%FSLAX45Y45*%
G04 Gerber Fmt 4.5, Leading zero omitted, Abs format (unit mm)*
G04 Created by KiCad (PCBNEW (5.1.10)-1) date 2021-10-21 22:49:51*
%MOMM*%
%LPD*%
G01*
G04 APERTURE LIST*
%TA.AperFunction,Profile*%
%ADD10C,0.050000*%
%TD*%
%ADD11C,0.200000*%
%ADD12C,0.300000*%
G04 APERTURE END LIST*
D10*
X9906000Y-7924800D02*
G75*
G02*
X10210800Y-7620000I304800J0D01*
G01*
X18745200Y-7620000D02*
G75*
G02*
X19050000Y-7924800I0J-304800D01*
G01*
X19050000Y-11379200D02*
G75*
G02*
X18745200Y-11684000I-304800J0D01*
G01*
X10210800Y-11684000D02*
G75*
G02*
X9906000Y-11379200I0J304800D01*
G01*
X9906000Y-7924800D02*
X9906000Y-11379200D01*
X18745200Y-11684000D02*
X10210800Y-11684000D01*
X19050000Y-7924800D02*
X19050000Y-11379200D01*
X10210800Y-7620000D02*
X18745200Y-7620000D01*
D11*
X10018000Y-8367000D02*
X10048000Y-8397000D01*
X10048000Y-8367000D02*
X10018000Y-8397000D01*
X10018000Y-9002000D02*
X10048000Y-9032000D01*
X10048000Y-9002000D02*
X10018000Y-9032000D01*
X10018000Y-9637000D02*
X10048000Y-9667000D01*
X10048000Y-9637000D02*
X10018000Y-9667000D01*
X10018000Y-10272000D02*
X10048000Y-10302000D01*
X10048000Y-10272000D02*
X10018000Y-10302000D01*
X10018000Y-10907000D02*
X10048000Y-10937000D01*
X10048000Y-10907000D02*
X10018000Y-10937000D01*
X10631000Y-9259000D02*
X10661000Y-9289000D01*
X10661000Y-9259000D02*
X10631000Y-9289000D01*
X10631000Y-10049000D02*
X10661000Y-10079000D01*
X10661000Y-10049000D02*
X10631000Y-10079000D01*
X10653000Y-7732000D02*
X10683000Y-7762000D01*
X10683000Y-7732000D02*
X10653000Y-7762000D01*
X10653000Y-11542000D02*
X10683000Y-11572000D01*
X10683000Y-11542000D02*
X10653000Y-11572000D01*
X10815000Y-9455000D02*
X10845000Y-9485000D01*
X10845000Y-9455000D02*
X10815000Y-9485000D01*
X10815000Y-9825000D02*
X10845000Y-9855000D01*
X10845000Y-9825000D02*
X10815000Y-9855000D01*
X10870000Y-10670000D02*
X10900000Y-10700000D01*
X10900000Y-10670000D02*
X10870000Y-10700000D01*
X10875000Y-10545000D02*
X10905000Y-10575000D01*
X10905000Y-10545000D02*
X10875000Y-10575000D01*
X10925000Y-8205000D02*
X10955000Y-8235000D01*
X10955000Y-8205000D02*
X10925000Y-8235000D01*
X11075000Y-9635000D02*
X11105000Y-9665000D01*
X11105000Y-9635000D02*
X11075000Y-9665000D01*
X11288000Y-7732000D02*
X11318000Y-7762000D01*
X11318000Y-7732000D02*
X11288000Y-7762000D01*
X11325000Y-10205000D02*
X11355000Y-10235000D01*
X11355000Y-10205000D02*
X11325000Y-10235000D01*
X11325000Y-10465000D02*
X11355000Y-10495000D01*
X11355000Y-10465000D02*
X11325000Y-10495000D01*
X11361000Y-9739000D02*
X11391000Y-9769000D01*
X11391000Y-9739000D02*
X11361000Y-9769000D01*
X11421000Y-9682431D02*
X11451000Y-9712431D01*
X11451000Y-9682431D02*
X11421000Y-9712431D01*
X11451000Y-10589000D02*
X11481000Y-10619000D01*
X11481000Y-10589000D02*
X11451000Y-10619000D01*
X11475000Y-9855000D02*
X11505000Y-9885000D01*
X11505000Y-9855000D02*
X11475000Y-9885000D01*
X11495000Y-10045000D02*
X11525000Y-10075000D01*
X11525000Y-10045000D02*
X11495000Y-10075000D01*
X11545000Y-9785000D02*
X11575000Y-9815000D01*
X11575000Y-9785000D02*
X11545000Y-9815000D01*
X11707474Y-9383000D02*
X11737474Y-9413000D01*
X11737474Y-9383000D02*
X11707474Y-9413000D01*
X11775000Y-10905000D02*
X11805000Y-10935000D01*
X11805000Y-10905000D02*
X11775000Y-10935000D01*
X11851000Y-10989001D02*
X11881000Y-11019001D01*
X11881000Y-10989001D02*
X11851000Y-11019001D01*
X11915333Y-10101698D02*
X11945333Y-10131698D01*
X11945333Y-10101698D02*
X11915333Y-10131698D01*
X11923000Y-7732000D02*
X11953000Y-7762000D01*
X11953000Y-7732000D02*
X11923000Y-7762000D01*
X11923000Y-9167474D02*
X11953000Y-9197474D01*
X11953000Y-9167474D02*
X11923000Y-9197474D01*
X11923000Y-9383000D02*
X11953000Y-9413000D01*
X11953000Y-9383000D02*
X11923000Y-9413000D01*
X11923000Y-9598526D02*
X11953000Y-9628526D01*
X11953000Y-9598526D02*
X11923000Y-9628526D01*
X11951000Y-10905000D02*
X11981000Y-10935000D01*
X11981000Y-10905000D02*
X11951000Y-10935000D01*
X11972000Y-9910000D02*
X12002000Y-9940000D01*
X12002000Y-9910000D02*
X11972000Y-9940000D01*
X11986000Y-10056000D02*
X12016000Y-10086000D01*
X12016000Y-10056000D02*
X11986000Y-10086000D01*
X12064777Y-9917223D02*
X12094777Y-9947223D01*
X12094777Y-9917223D02*
X12064777Y-9947223D01*
X12069999Y-10002000D02*
X12099999Y-10032000D01*
X12099999Y-10002000D02*
X12069999Y-10032000D01*
X12131000Y-8839000D02*
X12161000Y-8869000D01*
X12161000Y-8839000D02*
X12131000Y-8869000D01*
X12138526Y-9383000D02*
X12168526Y-9413000D01*
X12168526Y-9383000D02*
X12138526Y-9413000D01*
X12187569Y-8779000D02*
X12217569Y-8809000D01*
X12217569Y-8779000D02*
X12187569Y-8809000D01*
X12255000Y-10820000D02*
X12285000Y-10850000D01*
X12285000Y-10820000D02*
X12255000Y-10850000D01*
X12264431Y-8975569D02*
X12294431Y-9005569D01*
X12294431Y-8975569D02*
X12264431Y-9005569D01*
X12321000Y-8919000D02*
X12351000Y-8949000D01*
X12351000Y-8919000D02*
X12321000Y-8949000D01*
X12370000Y-10865000D02*
X12400000Y-10895000D01*
X12400000Y-10865000D02*
X12370000Y-10895000D01*
X12375000Y-10135000D02*
X12405000Y-10165000D01*
X12405000Y-10135000D02*
X12375000Y-10165000D01*
X12411000Y-8529000D02*
X12441000Y-8559000D01*
X12441000Y-8529000D02*
X12411000Y-8559000D01*
X12460000Y-10140000D02*
X12490000Y-10170000D01*
X12490000Y-10140000D02*
X12460000Y-10170000D01*
X12465000Y-9565000D02*
X12495000Y-9595000D01*
X12495000Y-9565000D02*
X12465000Y-9595000D01*
X12505000Y-8985000D02*
X12535000Y-9015000D01*
X12535000Y-8985000D02*
X12505000Y-9015000D01*
X12525000Y-9625000D02*
X12555000Y-9655000D01*
X12555000Y-9625000D02*
X12525000Y-9655000D01*
X12545000Y-10355000D02*
X12575000Y-10385000D01*
X12575000Y-10355000D02*
X12545000Y-10385000D01*
X12545000Y-10475000D02*
X12575000Y-10505000D01*
X12575000Y-10475000D02*
X12545000Y-10505000D01*
X12558000Y-7732000D02*
X12588000Y-7762000D01*
X12588000Y-7732000D02*
X12558000Y-7762000D01*
X12558000Y-11542000D02*
X12588000Y-11572000D01*
X12588000Y-11542000D02*
X12558000Y-11572000D01*
X12590000Y-10885000D02*
X12620000Y-10915000D01*
X12620000Y-10885000D02*
X12590000Y-10915000D01*
X12605000Y-9415000D02*
X12635000Y-9445000D01*
X12635000Y-9415000D02*
X12605000Y-9445000D01*
X12645000Y-8655000D02*
X12675000Y-8685000D01*
X12675000Y-8655000D02*
X12645000Y-8685000D01*
X12665000Y-9475000D02*
X12695000Y-9505000D01*
X12695000Y-9475000D02*
X12665000Y-9505000D01*
X12704000Y-9922000D02*
X12734000Y-9952000D01*
X12734000Y-9922000D02*
X12704000Y-9952000D01*
X12709000Y-10029000D02*
X12739000Y-10059000D01*
X12739000Y-10029000D02*
X12709000Y-10059000D01*
X12727701Y-10725000D02*
X12757701Y-10755000D01*
X12757701Y-10725000D02*
X12727701Y-10755000D01*
X12731347Y-10163000D02*
X12761347Y-10193000D01*
X12761347Y-10163000D02*
X12731347Y-10193000D01*
X12743000Y-10266000D02*
X12773000Y-10296000D01*
X12773000Y-10266000D02*
X12743000Y-10296000D01*
X12791000Y-9976000D02*
X12821000Y-10006000D01*
X12821000Y-9976000D02*
X12791000Y-10006000D01*
X12796000Y-10103000D02*
X12826000Y-10133000D01*
X12826000Y-10103000D02*
X12796000Y-10133000D01*
X13193000Y-7732000D02*
X13223000Y-7762000D01*
X13223000Y-7732000D02*
X13193000Y-7762000D01*
X13193000Y-11542000D02*
X13223000Y-11572000D01*
X13223000Y-11542000D02*
X13193000Y-11572000D01*
X13275000Y-7885000D02*
X13305000Y-7915000D01*
X13305000Y-7885000D02*
X13275000Y-7915000D01*
X13465000Y-8205000D02*
X13495000Y-8235000D01*
X13495000Y-8205000D02*
X13465000Y-8235000D01*
X13575000Y-9745000D02*
X13605000Y-9775000D01*
X13605000Y-9745000D02*
X13575000Y-9775000D01*
X13755000Y-9455000D02*
X13785000Y-9485000D01*
X13785000Y-9455000D02*
X13755000Y-9485000D01*
X13811569Y-9398431D02*
X13841569Y-9428431D01*
X13841569Y-9398431D02*
X13811569Y-9428431D01*
X13828000Y-7732000D02*
X13858000Y-7762000D01*
X13858000Y-7732000D02*
X13828000Y-7762000D01*
X13851000Y-10199000D02*
X13881000Y-10229000D01*
X13881000Y-10199000D02*
X13851000Y-10229000D01*
X13861000Y-10459000D02*
X13891000Y-10489000D01*
X13891000Y-10459000D02*
X13861000Y-10489000D01*
X13885000Y-9845000D02*
X13915000Y-9875000D01*
X13915000Y-9845000D02*
X13885000Y-9875000D01*
X13955000Y-9915000D02*
X13985000Y-9945000D01*
X13985000Y-9915000D02*
X13955000Y-9945000D01*
X14140000Y-9710000D02*
X14170000Y-9740000D01*
X14170000Y-9710000D02*
X14140000Y-9740000D01*
X14194655Y-9810000D02*
X14224655Y-9840000D01*
X14224655Y-9810000D02*
X14194655Y-9840000D01*
X14205000Y-10665000D02*
X14235000Y-10695000D01*
X14235000Y-10665000D02*
X14205000Y-10695000D01*
X14247474Y-9383000D02*
X14277474Y-9413000D01*
X14277474Y-9383000D02*
X14247474Y-9413000D01*
X14365000Y-10407302D02*
X14395000Y-10437302D01*
X14395000Y-10407302D02*
X14365000Y-10437302D01*
X14463000Y-7732000D02*
X14493000Y-7762000D01*
X14493000Y-7732000D02*
X14463000Y-7762000D01*
X14463000Y-9167474D02*
X14493000Y-9197474D01*
X14493000Y-9167474D02*
X14463000Y-9197474D01*
X14463000Y-9383000D02*
X14493000Y-9413000D01*
X14493000Y-9383000D02*
X14463000Y-9413000D01*
X14463000Y-9598526D02*
X14493000Y-9628526D01*
X14493000Y-9598526D02*
X14463000Y-9628526D01*
X14465000Y-10695000D02*
X14495000Y-10725000D01*
X14495000Y-10695000D02*
X14465000Y-10725000D01*
X14645000Y-10030000D02*
X14675000Y-10060000D01*
X14675000Y-10030000D02*
X14645000Y-10060000D01*
X14645000Y-10695000D02*
X14675000Y-10725000D01*
X14675000Y-10695000D02*
X14645000Y-10725000D01*
X14678526Y-9383000D02*
X14708526Y-9413000D01*
X14708526Y-9383000D02*
X14678526Y-9413000D01*
X14681000Y-8819000D02*
X14711000Y-8849000D01*
X14711000Y-8819000D02*
X14681000Y-8849000D01*
X14741000Y-8759000D02*
X14771000Y-8789000D01*
X14771000Y-8759000D02*
X14741000Y-8789000D01*
X14811000Y-8939000D02*
X14841000Y-8969000D01*
X14841000Y-8939000D02*
X14811000Y-8969000D01*
X14855000Y-9655000D02*
X14885000Y-9685000D01*
X14885000Y-9655000D02*
X14855000Y-9685000D01*
X14875000Y-8885000D02*
X14905000Y-8915000D01*
X14905000Y-8885000D02*
X14875000Y-8915000D01*
X14895000Y-10255000D02*
X14925000Y-10285000D01*
X14925000Y-10255000D02*
X14895000Y-10285000D01*
X14925000Y-9725000D02*
X14955000Y-9755000D01*
X14955000Y-9725000D02*
X14925000Y-9755000D01*
X14945000Y-9870000D02*
X14975000Y-9900000D01*
X14975000Y-9870000D02*
X14945000Y-9900000D01*
X14961000Y-8679000D02*
X14991000Y-8709000D01*
X14991000Y-8679000D02*
X14961000Y-8709000D01*
X14974823Y-10260322D02*
X15004823Y-10290322D01*
X15004823Y-10260322D02*
X14974823Y-10290322D01*
X14980000Y-11050000D02*
X15010000Y-11080000D01*
X15010000Y-11050000D02*
X14980000Y-11080000D01*
X15015000Y-9940000D02*
X15045000Y-9970000D01*
X15045000Y-9940000D02*
X15015000Y-9970000D01*
X15035000Y-10065000D02*
X15065000Y-10095000D01*
X15065000Y-10065000D02*
X15035000Y-10095000D01*
X15051000Y-9069000D02*
X15081000Y-9099000D01*
X15081000Y-9069000D02*
X15051000Y-9099000D01*
X15055000Y-9465000D02*
X15085000Y-9495000D01*
X15085000Y-9465000D02*
X15055000Y-9495000D01*
X15055000Y-10335000D02*
X15085000Y-10365000D01*
X15085000Y-10335000D02*
X15055000Y-10365000D01*
X15098000Y-7732000D02*
X15128000Y-7762000D01*
X15128000Y-7732000D02*
X15098000Y-7762000D01*
X15098000Y-11542000D02*
X15128000Y-11572000D01*
X15128000Y-11542000D02*
X15098000Y-11572000D01*
X15115000Y-9525000D02*
X15145000Y-9555000D01*
X15145000Y-9525000D02*
X15115000Y-9555000D01*
X15135000Y-10253210D02*
X15165000Y-10283210D01*
X15165000Y-10253210D02*
X15135000Y-10283210D01*
X15235000Y-10065000D02*
X15265000Y-10095000D01*
X15265000Y-10065000D02*
X15235000Y-10095000D01*
X15241000Y-8559000D02*
X15271000Y-8589000D01*
X15271000Y-8559000D02*
X15241000Y-8589000D01*
X15305000Y-10335000D02*
X15335000Y-10365000D01*
X15335000Y-10335000D02*
X15305000Y-10365000D01*
X15365000Y-10255000D02*
X15395000Y-10285000D01*
X15395000Y-10255000D02*
X15365000Y-10285000D01*
X15425000Y-10005000D02*
X15455000Y-10035000D01*
X15455000Y-10005000D02*
X15425000Y-10035000D01*
X15733000Y-7732000D02*
X15763000Y-7762000D01*
X15763000Y-7732000D02*
X15733000Y-7762000D01*
X15733000Y-11542000D02*
X15763000Y-11572000D01*
X15763000Y-11542000D02*
X15733000Y-11572000D01*
X16665000Y-9415000D02*
X16695000Y-9445000D01*
X16695000Y-9415000D02*
X16665000Y-9445000D01*
X16665000Y-9535000D02*
X16695000Y-9565000D01*
X16695000Y-9535000D02*
X16665000Y-9565000D01*
X16665000Y-9915000D02*
X16695000Y-9945000D01*
X16695000Y-9915000D02*
X16665000Y-9945000D01*
X16685587Y-8995546D02*
X16715587Y-9025546D01*
X16715587Y-8995546D02*
X16685587Y-9025546D01*
X18908000Y-8367000D02*
X18938000Y-8397000D01*
X18938000Y-8367000D02*
X18908000Y-8397000D01*
X18908000Y-9002000D02*
X18938000Y-9032000D01*
X18938000Y-9002000D02*
X18908000Y-9032000D01*
X18908000Y-9637000D02*
X18938000Y-9667000D01*
X18938000Y-9637000D02*
X18908000Y-9667000D01*
X18908000Y-10272000D02*
X18938000Y-10302000D01*
X18938000Y-10272000D02*
X18908000Y-10302000D01*
X18908000Y-10907000D02*
X18938000Y-10937000D01*
X18938000Y-10907000D02*
X18908000Y-10937000D01*
X10688000Y-8509000D02*
G75*
G03*
X10688000Y-8509000I-20000J0D01*
G01*
X11019008Y-8709734D02*
G75*
G03*
X11019008Y-8709734I-20000J0D01*
G01*
X11119000Y-8711000D02*
G75*
G03*
X11119000Y-8711000I-20000J0D01*
G01*
X11210000Y-9130000D02*
G75*
G03*
X11210000Y-9130000I-20000J0D01*
G01*
X16400000Y-9330000D02*
G75*
G03*
X16400000Y-9330000I-20000J0D01*
G01*
X16410000Y-9200000D02*
G75*
G03*
X16410000Y-9200000I-20000J0D01*
G01*
X16420000Y-10200000D02*
G75*
G03*
X16420000Y-10200000I-20000J0D01*
G01*
X16420000Y-10330000D02*
G75*
G03*
X16420000Y-10330000I-20000J0D01*
G01*
X16440000Y-9730000D02*
G75*
G03*
X16440000Y-9730000I-20000J0D01*
G01*
X16445000Y-9855000D02*
G75*
G03*
X16445000Y-9855000I-20000J0D01*
G01*
X16810000Y-10200000D02*
G75*
G03*
X16810000Y-10200000I-20000J0D01*
G01*
X16815000Y-9725000D02*
G75*
G03*
X16815000Y-9725000I-20000J0D01*
G01*
X16820000Y-9200000D02*
G75*
G03*
X16820000Y-9200000I-20000J0D01*
G01*
X17240000Y-9180000D02*
G75*
G03*
X17240000Y-9180000I-20000J0D01*
G01*
X17245000Y-10195000D02*
G75*
G03*
X17245000Y-10195000I-20000J0D01*
G01*
X17250000Y-9720000D02*
G75*
G03*
X17250000Y-9720000I-20000J0D01*
G01*
X18800000Y-9000000D02*
G75*
G03*
X18800000Y-9000000I-20000J0D01*
G01*
X10021000Y-9190000D02*
X10021000Y-9250000D01*
X9991000Y-9220000D02*
X10051000Y-9220000D01*
X10051000Y-9200000D02*
X9991000Y-9200000D01*
X10051000Y-9240000D02*
X9991000Y-9240000D01*
X9991000Y-9200000D02*
G75*
G03*
X9991000Y-9240000I0J-20000D01*
G01*
X10051000Y-9240000D02*
G75*
G03*
X10051000Y-9200000I0J20000D01*
G01*
X10021000Y-10054000D02*
X10021000Y-10114000D01*
X9991000Y-10084000D02*
X10051000Y-10084000D01*
X10051000Y-10064000D02*
X9991000Y-10064000D01*
X10051000Y-10104000D02*
X9991000Y-10104000D01*
X9991000Y-10064000D02*
G75*
G03*
X9991000Y-10104000I0J-20000D01*
G01*
X10051000Y-10104000D02*
G75*
G03*
X10051000Y-10064000I0J20000D01*
G01*
X10439000Y-9190000D02*
X10439000Y-9250000D01*
X10409000Y-9220000D02*
X10469000Y-9220000D01*
X10494000Y-9200000D02*
X10384000Y-9200000D01*
X10494000Y-9240000D02*
X10384000Y-9240000D01*
X10384000Y-9200000D02*
G75*
G03*
X10384000Y-9240000I0J-20000D01*
G01*
X10494000Y-9240000D02*
G75*
G03*
X10494000Y-9200000I0J20000D01*
G01*
X10439000Y-10054000D02*
X10439000Y-10114000D01*
X10409000Y-10084000D02*
X10469000Y-10084000D01*
X10494000Y-10064000D02*
X10384000Y-10064000D01*
X10494000Y-10104000D02*
X10384000Y-10104000D01*
X10384000Y-10064000D02*
G75*
G03*
X10384000Y-10104000I0J-20000D01*
G01*
X10494000Y-10104000D02*
G75*
G03*
X10494000Y-10064000I0J20000D01*
G01*
X15520941Y-8408941D02*
X15520941Y-8355059D01*
X15467059Y-8355059D01*
X15467059Y-8408941D01*
X15520941Y-8408941D01*
X15520941Y-8662941D02*
X15520941Y-8609059D01*
X15467059Y-8609059D01*
X15467059Y-8662941D01*
X15520941Y-8662941D01*
X15520941Y-10694941D02*
X15520941Y-10641059D01*
X15467059Y-10641059D01*
X15467059Y-10694941D01*
X15520941Y-10694941D01*
X15520941Y-10948941D02*
X15520941Y-10895059D01*
X15467059Y-10895059D01*
X15467059Y-10948941D01*
X15520941Y-10948941D01*
X15774941Y-8408941D02*
X15774941Y-8355059D01*
X15721059Y-8355059D01*
X15721059Y-8408941D01*
X15774941Y-8408941D01*
X15774941Y-8662941D02*
X15774941Y-8609059D01*
X15721059Y-8609059D01*
X15721059Y-8662941D01*
X15774941Y-8662941D01*
X15774941Y-10694941D02*
X15774941Y-10641059D01*
X15721059Y-10641059D01*
X15721059Y-10694941D01*
X15774941Y-10694941D01*
X15774941Y-10948941D02*
X15774941Y-10895059D01*
X15721059Y-10895059D01*
X15721059Y-10948941D01*
X15774941Y-10948941D01*
X16028941Y-8408941D02*
X16028941Y-8355059D01*
X15975059Y-8355059D01*
X15975059Y-8408941D01*
X16028941Y-8408941D01*
X16028941Y-8662941D02*
X16028941Y-8609059D01*
X15975059Y-8609059D01*
X15975059Y-8662941D01*
X16028941Y-8662941D01*
X16028941Y-10694941D02*
X16028941Y-10641059D01*
X15975059Y-10641059D01*
X15975059Y-10694941D01*
X16028941Y-10694941D01*
X16028941Y-10948941D02*
X16028941Y-10895059D01*
X15975059Y-10895059D01*
X15975059Y-10948941D01*
X16028941Y-10948941D01*
X16282941Y-8408941D02*
X16282941Y-8355059D01*
X16229059Y-8355059D01*
X16229059Y-8408941D01*
X16282941Y-8408941D01*
X16282941Y-8662941D02*
X16282941Y-8609059D01*
X16229059Y-8609059D01*
X16229059Y-8662941D01*
X16282941Y-8662941D01*
X16282941Y-10694941D02*
X16282941Y-10641059D01*
X16229059Y-10641059D01*
X16229059Y-10694941D01*
X16282941Y-10694941D01*
X16282941Y-10948941D02*
X16282941Y-10895059D01*
X16229059Y-10895059D01*
X16229059Y-10948941D01*
X16282941Y-10948941D01*
X16536941Y-8408941D02*
X16536941Y-8355059D01*
X16483059Y-8355059D01*
X16483059Y-8408941D01*
X16536941Y-8408941D01*
X16536941Y-8662941D02*
X16536941Y-8609059D01*
X16483059Y-8609059D01*
X16483059Y-8662941D01*
X16536941Y-8662941D01*
X16536941Y-10694941D02*
X16536941Y-10641059D01*
X16483059Y-10641059D01*
X16483059Y-10694941D01*
X16536941Y-10694941D01*
X16536941Y-10948941D02*
X16536941Y-10895059D01*
X16483059Y-10895059D01*
X16483059Y-10948941D01*
X16536941Y-10948941D01*
X16790941Y-8408941D02*
X16790941Y-8355059D01*
X16737059Y-8355059D01*
X16737059Y-8408941D01*
X16790941Y-8408941D01*
X16790941Y-8662941D02*
X16790941Y-8609059D01*
X16737059Y-8609059D01*
X16737059Y-8662941D01*
X16790941Y-8662941D01*
X16790941Y-10694941D02*
X16790941Y-10641059D01*
X16737059Y-10641059D01*
X16737059Y-10694941D01*
X16790941Y-10694941D01*
X16790941Y-10948941D02*
X16790941Y-10895059D01*
X16737059Y-10895059D01*
X16737059Y-10948941D01*
X16790941Y-10948941D01*
X17044941Y-8408941D02*
X17044941Y-8355059D01*
X16991059Y-8355059D01*
X16991059Y-8408941D01*
X17044941Y-8408941D01*
X17044941Y-8662941D02*
X17044941Y-8609059D01*
X16991059Y-8609059D01*
X16991059Y-8662941D01*
X17044941Y-8662941D01*
X17044941Y-10694941D02*
X17044941Y-10641059D01*
X16991059Y-10641059D01*
X16991059Y-10694941D01*
X17044941Y-10694941D01*
X17044941Y-10948941D02*
X17044941Y-10895059D01*
X16991059Y-10895059D01*
X16991059Y-10948941D01*
X17044941Y-10948941D01*
X17298941Y-8408941D02*
X17298941Y-8355059D01*
X17245059Y-8355059D01*
X17245059Y-8408941D01*
X17298941Y-8408941D01*
X17298941Y-8662941D02*
X17298941Y-8609059D01*
X17245059Y-8609059D01*
X17245059Y-8662941D01*
X17298941Y-8662941D01*
X17298941Y-10694941D02*
X17298941Y-10641059D01*
X17245059Y-10641059D01*
X17245059Y-10694941D01*
X17298941Y-10694941D01*
X17298941Y-10948941D02*
X17298941Y-10895059D01*
X17245059Y-10895059D01*
X17245059Y-10948941D01*
X17298941Y-10948941D01*
X17552941Y-8408941D02*
X17552941Y-8355059D01*
X17499059Y-8355059D01*
X17499059Y-8408941D01*
X17552941Y-8408941D01*
X17552941Y-8662941D02*
X17552941Y-8609059D01*
X17499059Y-8609059D01*
X17499059Y-8662941D01*
X17552941Y-8662941D01*
X17552941Y-10694941D02*
X17552941Y-10641059D01*
X17499059Y-10641059D01*
X17499059Y-10694941D01*
X17552941Y-10694941D01*
X17552941Y-10948941D02*
X17552941Y-10895059D01*
X17499059Y-10895059D01*
X17499059Y-10948941D01*
X17552941Y-10948941D01*
X17806941Y-8408941D02*
X17806941Y-8355059D01*
X17753059Y-8355059D01*
X17753059Y-8408941D01*
X17806941Y-8408941D01*
X17806941Y-8662941D02*
X17806941Y-8609059D01*
X17753059Y-8609059D01*
X17753059Y-8662941D01*
X17806941Y-8662941D01*
X17806941Y-10694941D02*
X17806941Y-10641059D01*
X17753059Y-10641059D01*
X17753059Y-10694941D01*
X17806941Y-10694941D01*
X17806941Y-10948941D02*
X17806941Y-10895059D01*
X17753059Y-10895059D01*
X17753059Y-10948941D01*
X17806941Y-10948941D01*
X18060941Y-8408941D02*
X18060941Y-8355059D01*
X18007059Y-8355059D01*
X18007059Y-8408941D01*
X18060941Y-8408941D01*
X18060941Y-8662941D02*
X18060941Y-8609059D01*
X18007059Y-8609059D01*
X18007059Y-8662941D01*
X18060941Y-8662941D01*
X18060941Y-10694941D02*
X18060941Y-10641059D01*
X18007059Y-10641059D01*
X18007059Y-10694941D01*
X18060941Y-10694941D01*
X18060941Y-10948941D02*
X18060941Y-10895059D01*
X18007059Y-10895059D01*
X18007059Y-10948941D01*
X18060941Y-10948941D01*
X18314941Y-8408941D02*
X18314941Y-8355059D01*
X18261059Y-8355059D01*
X18261059Y-8408941D01*
X18314941Y-8408941D01*
X18314941Y-8662941D02*
X18314941Y-8609059D01*
X18261059Y-8609059D01*
X18261059Y-8662941D01*
X18314941Y-8662941D01*
X18314941Y-10694941D02*
X18314941Y-10641059D01*
X18261059Y-10641059D01*
X18261059Y-10694941D01*
X18314941Y-10694941D01*
X18314941Y-10948941D02*
X18314941Y-10895059D01*
X18261059Y-10895059D01*
X18261059Y-10948941D01*
X18314941Y-10948941D01*
X18568941Y-8408941D02*
X18568941Y-8355059D01*
X18515059Y-8355059D01*
X18515059Y-8408941D01*
X18568941Y-8408941D01*
X18568941Y-8662941D02*
X18568941Y-8609059D01*
X18515059Y-8609059D01*
X18515059Y-8662941D01*
X18568941Y-8662941D01*
X18568941Y-10694941D02*
X18568941Y-10641059D01*
X18515059Y-10641059D01*
X18515059Y-10694941D01*
X18568941Y-10694941D01*
X18568941Y-10948941D02*
X18568941Y-10895059D01*
X18515059Y-10895059D01*
X18515059Y-10948941D01*
X18568941Y-10948941D01*
X11430000Y-8432000D02*
X11480000Y-8382000D01*
X11430000Y-8332000D01*
X11380000Y-8382000D01*
X11430000Y-8432000D01*
X11430000Y-11226000D02*
X11480000Y-11176000D01*
X11430000Y-11126000D01*
X11380000Y-11176000D01*
X11430000Y-11226000D01*
X11430000Y-11480000D02*
X11480000Y-11430000D01*
X11430000Y-11380000D01*
X11380000Y-11430000D01*
X11430000Y-11480000D01*
X11684000Y-8432000D02*
X11734000Y-8382000D01*
X11684000Y-8332000D01*
X11634000Y-8382000D01*
X11684000Y-8432000D01*
X11938000Y-8432000D02*
X11988000Y-8382000D01*
X11938000Y-8332000D01*
X11888000Y-8382000D01*
X11938000Y-8432000D01*
X11938000Y-11226000D02*
X11988000Y-11176000D01*
X11938000Y-11126000D01*
X11888000Y-11176000D01*
X11938000Y-11226000D01*
X11938000Y-11480000D02*
X11988000Y-11430000D01*
X11938000Y-11380000D01*
X11888000Y-11430000D01*
X11938000Y-11480000D01*
X12192000Y-8432000D02*
X12242000Y-8382000D01*
X12192000Y-8332000D01*
X12142000Y-8382000D01*
X12192000Y-8432000D01*
X12192000Y-11226000D02*
X12242000Y-11176000D01*
X12192000Y-11126000D01*
X12142000Y-11176000D01*
X12192000Y-11226000D01*
X12192000Y-11480000D02*
X12242000Y-11430000D01*
X12192000Y-11380000D01*
X12142000Y-11430000D01*
X12192000Y-11480000D01*
X12446000Y-8432000D02*
X12496000Y-8382000D01*
X12446000Y-8332000D01*
X12396000Y-8382000D01*
X12446000Y-8432000D01*
X13075920Y-8762200D02*
X13125920Y-8712200D01*
X13075920Y-8662200D01*
X13025920Y-8712200D01*
X13075920Y-8762200D01*
X13075920Y-9016200D02*
X13125920Y-8966200D01*
X13075920Y-8916200D01*
X13025920Y-8966200D01*
X13075920Y-9016200D01*
X13075920Y-9270200D02*
X13125920Y-9220200D01*
X13075920Y-9170200D01*
X13025920Y-9220200D01*
X13075920Y-9270200D01*
X13075920Y-9524200D02*
X13125920Y-9474200D01*
X13075920Y-9424200D01*
X13025920Y-9474200D01*
X13075920Y-9524200D01*
X13075920Y-9778200D02*
X13125920Y-9728200D01*
X13075920Y-9678200D01*
X13025920Y-9728200D01*
X13075920Y-9778200D01*
X13075920Y-10032200D02*
X13125920Y-9982200D01*
X13075920Y-9932200D01*
X13025920Y-9982200D01*
X13075920Y-10032200D01*
X13075920Y-10286200D02*
X13125920Y-10236200D01*
X13075920Y-10186200D01*
X13025920Y-10236200D01*
X13075920Y-10286200D01*
X13075920Y-10540200D02*
X13125920Y-10490200D01*
X13075920Y-10440200D01*
X13025920Y-10490200D01*
X13075920Y-10540200D01*
X13329920Y-8762200D02*
X13379920Y-8712200D01*
X13329920Y-8662200D01*
X13279920Y-8712200D01*
X13329920Y-8762200D01*
X13329920Y-9016200D02*
X13379920Y-8966200D01*
X13329920Y-8916200D01*
X13279920Y-8966200D01*
X13329920Y-9016200D01*
X13329920Y-9270200D02*
X13379920Y-9220200D01*
X13329920Y-9170200D01*
X13279920Y-9220200D01*
X13329920Y-9270200D01*
X13329920Y-9524200D02*
X13379920Y-9474200D01*
X13329920Y-9424200D01*
X13279920Y-9474200D01*
X13329920Y-9524200D01*
X13329920Y-9778200D02*
X13379920Y-9728200D01*
X13329920Y-9678200D01*
X13279920Y-9728200D01*
X13329920Y-9778200D01*
X13329920Y-10032200D02*
X13379920Y-9982200D01*
X13329920Y-9932200D01*
X13279920Y-9982200D01*
X13329920Y-10032200D01*
X13329920Y-10286200D02*
X13379920Y-10236200D01*
X13329920Y-10186200D01*
X13279920Y-10236200D01*
X13329920Y-10286200D01*
X13329920Y-10540200D02*
X13379920Y-10490200D01*
X13329920Y-10440200D01*
X13279920Y-10490200D01*
X13329920Y-10540200D01*
X13970000Y-8432000D02*
X14020000Y-8382000D01*
X13970000Y-8332000D01*
X13920000Y-8382000D01*
X13970000Y-8432000D01*
X13970000Y-11226000D02*
X14020000Y-11176000D01*
X13970000Y-11126000D01*
X13920000Y-11176000D01*
X13970000Y-11226000D01*
X13970000Y-11480000D02*
X14020000Y-11430000D01*
X13970000Y-11380000D01*
X13920000Y-11430000D01*
X13970000Y-11480000D01*
X14224000Y-8432000D02*
X14274000Y-8382000D01*
X14224000Y-8332000D01*
X14174000Y-8382000D01*
X14224000Y-8432000D01*
X14478000Y-8432000D02*
X14528000Y-8382000D01*
X14478000Y-8332000D01*
X14428000Y-8382000D01*
X14478000Y-8432000D01*
X14478000Y-11226000D02*
X14528000Y-11176000D01*
X14478000Y-11126000D01*
X14428000Y-11176000D01*
X14478000Y-11226000D01*
X14478000Y-11480000D02*
X14528000Y-11430000D01*
X14478000Y-11380000D01*
X14428000Y-11430000D01*
X14478000Y-11480000D01*
X14732000Y-8432000D02*
X14782000Y-8382000D01*
X14732000Y-8332000D01*
X14682000Y-8382000D01*
X14732000Y-8432000D01*
X14732000Y-11226000D02*
X14782000Y-11176000D01*
X14732000Y-11126000D01*
X14682000Y-11176000D01*
X14732000Y-11226000D01*
X14732000Y-11480000D02*
X14782000Y-11430000D01*
X14732000Y-11380000D01*
X14682000Y-11430000D01*
X14732000Y-11480000D01*
X14986000Y-8432000D02*
X15036000Y-8382000D01*
X14986000Y-8332000D01*
X14936000Y-8382000D01*
X14986000Y-8432000D01*
X16256000Y-7860500D02*
X16306000Y-7810500D01*
X16256000Y-7760500D01*
X16206000Y-7810500D01*
X16256000Y-7860500D01*
X16256000Y-11543500D02*
X16306000Y-11493500D01*
X16256000Y-11443500D01*
X16206000Y-11493500D01*
X16256000Y-11543500D01*
X16510000Y-7860500D02*
X16560000Y-7810500D01*
X16510000Y-7760500D01*
X16460000Y-7810500D01*
X16510000Y-7860500D01*
X16510000Y-11543500D02*
X16560000Y-11493500D01*
X16510000Y-11443500D01*
X16460000Y-11493500D01*
X16510000Y-11543500D01*
X16764000Y-7860500D02*
X16814000Y-7810500D01*
X16764000Y-7760500D01*
X16714000Y-7810500D01*
X16764000Y-7860500D01*
X16764000Y-11543500D02*
X16814000Y-11493500D01*
X16764000Y-11443500D01*
X16714000Y-11493500D01*
X16764000Y-11543500D01*
X17018000Y-7860500D02*
X17068000Y-7810500D01*
X17018000Y-7760500D01*
X16968000Y-7810500D01*
X17018000Y-7860500D01*
X17018000Y-11543500D02*
X17068000Y-11493500D01*
X17018000Y-11443500D01*
X16968000Y-11493500D01*
X17018000Y-11543500D01*
X17272000Y-7860500D02*
X17322000Y-7810500D01*
X17272000Y-7760500D01*
X17222000Y-7810500D01*
X17272000Y-7860500D01*
X17272000Y-11543500D02*
X17322000Y-11493500D01*
X17272000Y-11443500D01*
X17222000Y-11493500D01*
X17272000Y-11543500D01*
X17526000Y-7860500D02*
X17576000Y-7810500D01*
X17526000Y-7760500D01*
X17476000Y-7810500D01*
X17526000Y-7860500D01*
X17526000Y-11543500D02*
X17576000Y-11493500D01*
X17526000Y-11443500D01*
X17476000Y-11493500D01*
X17526000Y-11543500D01*
X17780000Y-7860500D02*
X17830000Y-7810500D01*
X17780000Y-7760500D01*
X17730000Y-7810500D01*
X17780000Y-7860500D01*
X17780000Y-11543500D02*
X17830000Y-11493500D01*
X17780000Y-11443500D01*
X17730000Y-11493500D01*
X17780000Y-11543500D01*
X18034000Y-7860500D02*
X18084000Y-7810500D01*
X18034000Y-7760500D01*
X17984000Y-7810500D01*
X18034000Y-7860500D01*
X18034000Y-11543500D02*
X18084000Y-11493500D01*
X18034000Y-11443500D01*
X17984000Y-11493500D01*
X18034000Y-11543500D01*
X10050800Y-7764800D02*
X10370800Y-8084800D01*
X10370800Y-7764800D02*
X10050800Y-8084800D01*
X10370800Y-7924800D02*
G75*
G03*
X10370800Y-7924800I-160000J0D01*
G01*
X10050800Y-11219200D02*
X10370800Y-11539200D01*
X10370800Y-11219200D02*
X10050800Y-11539200D01*
X10370800Y-11379200D02*
G75*
G03*
X10370800Y-11379200I-160000J0D01*
G01*
X18585200Y-7764800D02*
X18905200Y-8084800D01*
X18905200Y-7764800D02*
X18585200Y-8084800D01*
X18905200Y-7924800D02*
G75*
G03*
X18905200Y-7924800I-160000J0D01*
G01*
X18585200Y-11219200D02*
X18905200Y-11539200D01*
X18905200Y-11219200D02*
X18585200Y-11539200D01*
X18905200Y-11379200D02*
G75*
G03*
X18905200Y-11379200I-160000J0D01*
G01*
D12*
X10189928Y-12152214D02*
X10189928Y-11852214D01*
X10261357Y-11852214D01*
X10304214Y-11866500D01*
X10332786Y-11895071D01*
X10347071Y-11923643D01*
X10361357Y-11980786D01*
X10361357Y-12023643D01*
X10347071Y-12080786D01*
X10332786Y-12109357D01*
X10304214Y-12137929D01*
X10261357Y-12152214D01*
X10189928Y-12152214D01*
X10489928Y-12152214D02*
X10489928Y-11952214D01*
X10489928Y-12009357D02*
X10504214Y-11980786D01*
X10518500Y-11966500D01*
X10547071Y-11952214D01*
X10575643Y-11952214D01*
X10675643Y-12152214D02*
X10675643Y-11952214D01*
X10675643Y-11852214D02*
X10661357Y-11866500D01*
X10675643Y-11880786D01*
X10689928Y-11866500D01*
X10675643Y-11852214D01*
X10675643Y-11880786D01*
X10861357Y-12152214D02*
X10832786Y-12137929D01*
X10818500Y-12109357D01*
X10818500Y-11852214D01*
X11018500Y-12152214D02*
X10989928Y-12137929D01*
X10975643Y-12109357D01*
X10975643Y-11852214D01*
X11361357Y-12152214D02*
X11361357Y-11852214D01*
X11461357Y-12066500D01*
X11561357Y-11852214D01*
X11561357Y-12152214D01*
X11832786Y-12152214D02*
X11832786Y-11995071D01*
X11818500Y-11966500D01*
X11789928Y-11952214D01*
X11732786Y-11952214D01*
X11704214Y-11966500D01*
X11832786Y-12137929D02*
X11804214Y-12152214D01*
X11732786Y-12152214D01*
X11704214Y-12137929D01*
X11689928Y-12109357D01*
X11689928Y-12080786D01*
X11704214Y-12052214D01*
X11732786Y-12037929D01*
X11804214Y-12037929D01*
X11832786Y-12023643D01*
X11975643Y-11952214D02*
X11975643Y-12252214D01*
X11975643Y-11966500D02*
X12004214Y-11952214D01*
X12061357Y-11952214D01*
X12089928Y-11966500D01*
X12104214Y-11980786D01*
X12118500Y-12009357D01*
X12118500Y-12095071D01*
X12104214Y-12123643D01*
X12089928Y-12137929D01*
X12061357Y-12152214D01*
X12004214Y-12152214D01*
X11975643Y-12137929D01*
X12247071Y-12123643D02*
X12261357Y-12137929D01*
X12247071Y-12152214D01*
X12232786Y-12137929D01*
X12247071Y-12123643D01*
X12247071Y-12152214D01*
X12247071Y-11966500D02*
X12261357Y-11980786D01*
X12247071Y-11995071D01*
X12232786Y-11980786D01*
X12247071Y-11966500D01*
X12247071Y-11995071D01*
X9873500Y-12631500D02*
X9903500Y-12661500D01*
X9903500Y-12631500D02*
X9873500Y-12661500D01*
X10247071Y-12482214D02*
X10275643Y-12482214D01*
X10304214Y-12496500D01*
X10318500Y-12510786D01*
X10332786Y-12539357D01*
X10347071Y-12596500D01*
X10347071Y-12667929D01*
X10332786Y-12725071D01*
X10318500Y-12753643D01*
X10304214Y-12767929D01*
X10275643Y-12782214D01*
X10247071Y-12782214D01*
X10218500Y-12767929D01*
X10204214Y-12753643D01*
X10189928Y-12725071D01*
X10175643Y-12667929D01*
X10175643Y-12596500D01*
X10189928Y-12539357D01*
X10204214Y-12510786D01*
X10218500Y-12496500D01*
X10247071Y-12482214D01*
X10475643Y-12753643D02*
X10489928Y-12767929D01*
X10475643Y-12782214D01*
X10461357Y-12767929D01*
X10475643Y-12753643D01*
X10475643Y-12782214D01*
X10589928Y-12482214D02*
X10775643Y-12482214D01*
X10675643Y-12596500D01*
X10718500Y-12596500D01*
X10747071Y-12610786D01*
X10761357Y-12625071D01*
X10775643Y-12653643D01*
X10775643Y-12725071D01*
X10761357Y-12753643D01*
X10747071Y-12767929D01*
X10718500Y-12782214D01*
X10632786Y-12782214D01*
X10604214Y-12767929D01*
X10589928Y-12753643D01*
X10961357Y-12482214D02*
X10989928Y-12482214D01*
X11018500Y-12496500D01*
X11032786Y-12510786D01*
X11047071Y-12539357D01*
X11061357Y-12596500D01*
X11061357Y-12667929D01*
X11047071Y-12725071D01*
X11032786Y-12753643D01*
X11018500Y-12767929D01*
X10989928Y-12782214D01*
X10961357Y-12782214D01*
X10932786Y-12767929D01*
X10918500Y-12753643D01*
X10904214Y-12725071D01*
X10889928Y-12667929D01*
X10889928Y-12596500D01*
X10904214Y-12539357D01*
X10918500Y-12510786D01*
X10932786Y-12496500D01*
X10961357Y-12482214D01*
X11247071Y-12482214D02*
X11275643Y-12482214D01*
X11304214Y-12496500D01*
X11318500Y-12510786D01*
X11332786Y-12539357D01*
X11347071Y-12596500D01*
X11347071Y-12667929D01*
X11332786Y-12725071D01*
X11318500Y-12753643D01*
X11304214Y-12767929D01*
X11275643Y-12782214D01*
X11247071Y-12782214D01*
X11218500Y-12767929D01*
X11204214Y-12753643D01*
X11189928Y-12725071D01*
X11175643Y-12667929D01*
X11175643Y-12596500D01*
X11189928Y-12539357D01*
X11204214Y-12510786D01*
X11218500Y-12496500D01*
X11247071Y-12482214D01*
X11475643Y-12782214D02*
X11475643Y-12582214D01*
X11475643Y-12610786D02*
X11489928Y-12596500D01*
X11518500Y-12582214D01*
X11561357Y-12582214D01*
X11589928Y-12596500D01*
X11604214Y-12625071D01*
X11604214Y-12782214D01*
X11604214Y-12625071D02*
X11618500Y-12596500D01*
X11647071Y-12582214D01*
X11689928Y-12582214D01*
X11718500Y-12596500D01*
X11732786Y-12625071D01*
X11732786Y-12782214D01*
X11875643Y-12782214D02*
X11875643Y-12582214D01*
X11875643Y-12610786D02*
X11889928Y-12596500D01*
X11918500Y-12582214D01*
X11961357Y-12582214D01*
X11989928Y-12596500D01*
X12004214Y-12625071D01*
X12004214Y-12782214D01*
X12004214Y-12625071D02*
X12018500Y-12596500D01*
X12047071Y-12582214D01*
X12089928Y-12582214D01*
X12118500Y-12596500D01*
X12132786Y-12625071D01*
X12132786Y-12782214D01*
X12718500Y-12467929D02*
X12461357Y-12853643D01*
X13104214Y-12482214D02*
X13132786Y-12482214D01*
X13161357Y-12496500D01*
X13175643Y-12510786D01*
X13189928Y-12539357D01*
X13204214Y-12596500D01*
X13204214Y-12667929D01*
X13189928Y-12725071D01*
X13175643Y-12753643D01*
X13161357Y-12767929D01*
X13132786Y-12782214D01*
X13104214Y-12782214D01*
X13075643Y-12767929D01*
X13061357Y-12753643D01*
X13047071Y-12725071D01*
X13032786Y-12667929D01*
X13032786Y-12596500D01*
X13047071Y-12539357D01*
X13061357Y-12510786D01*
X13075643Y-12496500D01*
X13104214Y-12482214D01*
X13332786Y-12753643D02*
X13347071Y-12767929D01*
X13332786Y-12782214D01*
X13318500Y-12767929D01*
X13332786Y-12753643D01*
X13332786Y-12782214D01*
X13532786Y-12482214D02*
X13561357Y-12482214D01*
X13589928Y-12496500D01*
X13604214Y-12510786D01*
X13618500Y-12539357D01*
X13632786Y-12596500D01*
X13632786Y-12667929D01*
X13618500Y-12725071D01*
X13604214Y-12753643D01*
X13589928Y-12767929D01*
X13561357Y-12782214D01*
X13532786Y-12782214D01*
X13504214Y-12767929D01*
X13489928Y-12753643D01*
X13475643Y-12725071D01*
X13461357Y-12667929D01*
X13461357Y-12596500D01*
X13475643Y-12539357D01*
X13489928Y-12510786D01*
X13504214Y-12496500D01*
X13532786Y-12482214D01*
X13918500Y-12782214D02*
X13747071Y-12782214D01*
X13832786Y-12782214D02*
X13832786Y-12482214D01*
X13804214Y-12525071D01*
X13775643Y-12553643D01*
X13747071Y-12567929D01*
X14204214Y-12782214D02*
X14032786Y-12782214D01*
X14118500Y-12782214D02*
X14118500Y-12482214D01*
X14089928Y-12525071D01*
X14061357Y-12553643D01*
X14032786Y-12567929D01*
X14375643Y-12610786D02*
X14347071Y-12596500D01*
X14332786Y-12582214D01*
X14318500Y-12553643D01*
X14318500Y-12539357D01*
X14332786Y-12510786D01*
X14347071Y-12496500D01*
X14375643Y-12482214D01*
X14432786Y-12482214D01*
X14461357Y-12496500D01*
X14475643Y-12510786D01*
X14489928Y-12539357D01*
X14489928Y-12553643D01*
X14475643Y-12582214D01*
X14461357Y-12596500D01*
X14432786Y-12610786D01*
X14375643Y-12610786D01*
X14347071Y-12625071D01*
X14332786Y-12639357D01*
X14318500Y-12667929D01*
X14318500Y-12725071D01*
X14332786Y-12753643D01*
X14347071Y-12767929D01*
X14375643Y-12782214D01*
X14432786Y-12782214D01*
X14461357Y-12767929D01*
X14475643Y-12753643D01*
X14489928Y-12725071D01*
X14489928Y-12667929D01*
X14475643Y-12639357D01*
X14461357Y-12625071D01*
X14432786Y-12610786D01*
X14604214Y-12482214D02*
X14604214Y-12539357D01*
X14718500Y-12482214D02*
X14718500Y-12539357D01*
X15161357Y-12896500D02*
X15147071Y-12882214D01*
X15118500Y-12839357D01*
X15104214Y-12810786D01*
X15089928Y-12767929D01*
X15075643Y-12696500D01*
X15075643Y-12639357D01*
X15089928Y-12567929D01*
X15104214Y-12525071D01*
X15118500Y-12496500D01*
X15147071Y-12453643D01*
X15161357Y-12439357D01*
X15432786Y-12782214D02*
X15261357Y-12782214D01*
X15347071Y-12782214D02*
X15347071Y-12482214D01*
X15318500Y-12525071D01*
X15289928Y-12553643D01*
X15261357Y-12567929D01*
X15547071Y-12510786D02*
X15561357Y-12496500D01*
X15589928Y-12482214D01*
X15661357Y-12482214D01*
X15689928Y-12496500D01*
X15704214Y-12510786D01*
X15718500Y-12539357D01*
X15718500Y-12567929D01*
X15704214Y-12610786D01*
X15532786Y-12782214D01*
X15718500Y-12782214D01*
X15975643Y-12482214D02*
X15918500Y-12482214D01*
X15889928Y-12496500D01*
X15875643Y-12510786D01*
X15847071Y-12553643D01*
X15832786Y-12610786D01*
X15832786Y-12725071D01*
X15847071Y-12753643D01*
X15861357Y-12767929D01*
X15889928Y-12782214D01*
X15947071Y-12782214D01*
X15975643Y-12767929D01*
X15989928Y-12753643D01*
X16004214Y-12725071D01*
X16004214Y-12653643D01*
X15989928Y-12625071D01*
X15975643Y-12610786D01*
X15947071Y-12596500D01*
X15889928Y-12596500D01*
X15861357Y-12610786D01*
X15847071Y-12625071D01*
X15832786Y-12653643D01*
X16361357Y-12782214D02*
X16361357Y-12482214D01*
X16489928Y-12782214D02*
X16489928Y-12625071D01*
X16475643Y-12596500D01*
X16447071Y-12582214D01*
X16404214Y-12582214D01*
X16375643Y-12596500D01*
X16361357Y-12610786D01*
X16675643Y-12782214D02*
X16647071Y-12767929D01*
X16632786Y-12753643D01*
X16618500Y-12725071D01*
X16618500Y-12639357D01*
X16632786Y-12610786D01*
X16647071Y-12596500D01*
X16675643Y-12582214D01*
X16718500Y-12582214D01*
X16747071Y-12596500D01*
X16761357Y-12610786D01*
X16775643Y-12639357D01*
X16775643Y-12725071D01*
X16761357Y-12753643D01*
X16747071Y-12767929D01*
X16718500Y-12782214D01*
X16675643Y-12782214D01*
X16947071Y-12782214D02*
X16918500Y-12767929D01*
X16904214Y-12739357D01*
X16904214Y-12482214D01*
X17175643Y-12767929D02*
X17147071Y-12782214D01*
X17089928Y-12782214D01*
X17061357Y-12767929D01*
X17047071Y-12739357D01*
X17047071Y-12625071D01*
X17061357Y-12596500D01*
X17089928Y-12582214D01*
X17147071Y-12582214D01*
X17175643Y-12596500D01*
X17189928Y-12625071D01*
X17189928Y-12653643D01*
X17047071Y-12682214D01*
X17304214Y-12767929D02*
X17332786Y-12782214D01*
X17389928Y-12782214D01*
X17418500Y-12767929D01*
X17432786Y-12739357D01*
X17432786Y-12725071D01*
X17418500Y-12696500D01*
X17389928Y-12682214D01*
X17347071Y-12682214D01*
X17318500Y-12667929D01*
X17304214Y-12639357D01*
X17304214Y-12625071D01*
X17318500Y-12596500D01*
X17347071Y-12582214D01*
X17389928Y-12582214D01*
X17418500Y-12596500D01*
X17532786Y-12896500D02*
X17547071Y-12882214D01*
X17575643Y-12839357D01*
X17589928Y-12810786D01*
X17604214Y-12767929D01*
X17618500Y-12696500D01*
X17618500Y-12639357D01*
X17604214Y-12567929D01*
X17589928Y-12525071D01*
X17575643Y-12496500D01*
X17547071Y-12453643D01*
X17532786Y-12439357D01*
X9903500Y-13042500D02*
G75*
G03*
X9903500Y-13042500I-20000J0D01*
G01*
X10247071Y-12878214D02*
X10275643Y-12878214D01*
X10304214Y-12892500D01*
X10318500Y-12906786D01*
X10332786Y-12935357D01*
X10347071Y-12992500D01*
X10347071Y-13063929D01*
X10332786Y-13121071D01*
X10318500Y-13149643D01*
X10304214Y-13163929D01*
X10275643Y-13178214D01*
X10247071Y-13178214D01*
X10218500Y-13163929D01*
X10204214Y-13149643D01*
X10189928Y-13121071D01*
X10175643Y-13063929D01*
X10175643Y-12992500D01*
X10189928Y-12935357D01*
X10204214Y-12906786D01*
X10218500Y-12892500D01*
X10247071Y-12878214D01*
X10475643Y-13149643D02*
X10489928Y-13163929D01*
X10475643Y-13178214D01*
X10461357Y-13163929D01*
X10475643Y-13149643D01*
X10475643Y-13178214D01*
X10747071Y-12978214D02*
X10747071Y-13178214D01*
X10675643Y-12863929D02*
X10604214Y-13078214D01*
X10789928Y-13078214D01*
X10961357Y-12878214D02*
X10989928Y-12878214D01*
X11018500Y-12892500D01*
X11032786Y-12906786D01*
X11047071Y-12935357D01*
X11061357Y-12992500D01*
X11061357Y-13063929D01*
X11047071Y-13121071D01*
X11032786Y-13149643D01*
X11018500Y-13163929D01*
X10989928Y-13178214D01*
X10961357Y-13178214D01*
X10932786Y-13163929D01*
X10918500Y-13149643D01*
X10904214Y-13121071D01*
X10889928Y-13063929D01*
X10889928Y-12992500D01*
X10904214Y-12935357D01*
X10918500Y-12906786D01*
X10932786Y-12892500D01*
X10961357Y-12878214D01*
X11247071Y-12878214D02*
X11275643Y-12878214D01*
X11304214Y-12892500D01*
X11318500Y-12906786D01*
X11332786Y-12935357D01*
X11347071Y-12992500D01*
X11347071Y-13063929D01*
X11332786Y-13121071D01*
X11318500Y-13149643D01*
X11304214Y-13163929D01*
X11275643Y-13178214D01*
X11247071Y-13178214D01*
X11218500Y-13163929D01*
X11204214Y-13149643D01*
X11189928Y-13121071D01*
X11175643Y-13063929D01*
X11175643Y-12992500D01*
X11189928Y-12935357D01*
X11204214Y-12906786D01*
X11218500Y-12892500D01*
X11247071Y-12878214D01*
X11475643Y-13178214D02*
X11475643Y-12978214D01*
X11475643Y-13006786D02*
X11489928Y-12992500D01*
X11518500Y-12978214D01*
X11561357Y-12978214D01*
X11589928Y-12992500D01*
X11604214Y-13021071D01*
X11604214Y-13178214D01*
X11604214Y-13021071D02*
X11618500Y-12992500D01*
X11647071Y-12978214D01*
X11689928Y-12978214D01*
X11718500Y-12992500D01*
X11732786Y-13021071D01*
X11732786Y-13178214D01*
X11875643Y-13178214D02*
X11875643Y-12978214D01*
X11875643Y-13006786D02*
X11889928Y-12992500D01*
X11918500Y-12978214D01*
X11961357Y-12978214D01*
X11989928Y-12992500D01*
X12004214Y-13021071D01*
X12004214Y-13178214D01*
X12004214Y-13021071D02*
X12018500Y-12992500D01*
X12047071Y-12978214D01*
X12089928Y-12978214D01*
X12118500Y-12992500D01*
X12132786Y-13021071D01*
X12132786Y-13178214D01*
X12718500Y-12863929D02*
X12461357Y-13249643D01*
X13104214Y-12878214D02*
X13132786Y-12878214D01*
X13161357Y-12892500D01*
X13175643Y-12906786D01*
X13189928Y-12935357D01*
X13204214Y-12992500D01*
X13204214Y-13063929D01*
X13189928Y-13121071D01*
X13175643Y-13149643D01*
X13161357Y-13163929D01*
X13132786Y-13178214D01*
X13104214Y-13178214D01*
X13075643Y-13163929D01*
X13061357Y-13149643D01*
X13047071Y-13121071D01*
X13032786Y-13063929D01*
X13032786Y-12992500D01*
X13047071Y-12935357D01*
X13061357Y-12906786D01*
X13075643Y-12892500D01*
X13104214Y-12878214D01*
X13332786Y-13149643D02*
X13347071Y-13163929D01*
X13332786Y-13178214D01*
X13318500Y-13163929D01*
X13332786Y-13149643D01*
X13332786Y-13178214D01*
X13532786Y-12878214D02*
X13561357Y-12878214D01*
X13589928Y-12892500D01*
X13604214Y-12906786D01*
X13618500Y-12935357D01*
X13632786Y-12992500D01*
X13632786Y-13063929D01*
X13618500Y-13121071D01*
X13604214Y-13149643D01*
X13589928Y-13163929D01*
X13561357Y-13178214D01*
X13532786Y-13178214D01*
X13504214Y-13163929D01*
X13489928Y-13149643D01*
X13475643Y-13121071D01*
X13461357Y-13063929D01*
X13461357Y-12992500D01*
X13475643Y-12935357D01*
X13489928Y-12906786D01*
X13504214Y-12892500D01*
X13532786Y-12878214D01*
X13918500Y-13178214D02*
X13747071Y-13178214D01*
X13832786Y-13178214D02*
X13832786Y-12878214D01*
X13804214Y-12921071D01*
X13775643Y-12949643D01*
X13747071Y-12963929D01*
X14189928Y-12878214D02*
X14047071Y-12878214D01*
X14032786Y-13021071D01*
X14047071Y-13006786D01*
X14075643Y-12992500D01*
X14147071Y-12992500D01*
X14175643Y-13006786D01*
X14189928Y-13021071D01*
X14204214Y-13049643D01*
X14204214Y-13121071D01*
X14189928Y-13149643D01*
X14175643Y-13163929D01*
X14147071Y-13178214D01*
X14075643Y-13178214D01*
X14047071Y-13163929D01*
X14032786Y-13149643D01*
X14304214Y-12878214D02*
X14504214Y-12878214D01*
X14375643Y-13178214D01*
X14604214Y-12878214D02*
X14604214Y-12935357D01*
X14718500Y-12878214D02*
X14718500Y-12935357D01*
X15161357Y-13292500D02*
X15147071Y-13278214D01*
X15118500Y-13235357D01*
X15104214Y-13206786D01*
X15089928Y-13163929D01*
X15075643Y-13092500D01*
X15075643Y-13035357D01*
X15089928Y-12963929D01*
X15104214Y-12921071D01*
X15118500Y-12892500D01*
X15147071Y-12849643D01*
X15161357Y-12835357D01*
X15432786Y-13178214D02*
X15261357Y-13178214D01*
X15347071Y-13178214D02*
X15347071Y-12878214D01*
X15318500Y-12921071D01*
X15289928Y-12949643D01*
X15261357Y-12963929D01*
X15532786Y-12878214D02*
X15732786Y-12878214D01*
X15604214Y-13178214D01*
X16075643Y-13178214D02*
X16075643Y-12878214D01*
X16204214Y-13178214D02*
X16204214Y-13021071D01*
X16189928Y-12992500D01*
X16161357Y-12978214D01*
X16118500Y-12978214D01*
X16089928Y-12992500D01*
X16075643Y-13006786D01*
X16389928Y-13178214D02*
X16361357Y-13163929D01*
X16347071Y-13149643D01*
X16332786Y-13121071D01*
X16332786Y-13035357D01*
X16347071Y-13006786D01*
X16361357Y-12992500D01*
X16389928Y-12978214D01*
X16432786Y-12978214D01*
X16461357Y-12992500D01*
X16475643Y-13006786D01*
X16489928Y-13035357D01*
X16489928Y-13121071D01*
X16475643Y-13149643D01*
X16461357Y-13163929D01*
X16432786Y-13178214D01*
X16389928Y-13178214D01*
X16661357Y-13178214D02*
X16632786Y-13163929D01*
X16618500Y-13135357D01*
X16618500Y-12878214D01*
X16889928Y-13163929D02*
X16861357Y-13178214D01*
X16804214Y-13178214D01*
X16775643Y-13163929D01*
X16761357Y-13135357D01*
X16761357Y-13021071D01*
X16775643Y-12992500D01*
X16804214Y-12978214D01*
X16861357Y-12978214D01*
X16889928Y-12992500D01*
X16904214Y-13021071D01*
X16904214Y-13049643D01*
X16761357Y-13078214D01*
X17018500Y-13163929D02*
X17047071Y-13178214D01*
X17104214Y-13178214D01*
X17132786Y-13163929D01*
X17147071Y-13135357D01*
X17147071Y-13121071D01*
X17132786Y-13092500D01*
X17104214Y-13078214D01*
X17061357Y-13078214D01*
X17032786Y-13063929D01*
X17018500Y-13035357D01*
X17018500Y-13021071D01*
X17032786Y-12992500D01*
X17061357Y-12978214D01*
X17104214Y-12978214D01*
X17132786Y-12992500D01*
X17247071Y-13292500D02*
X17261357Y-13278214D01*
X17289928Y-13235357D01*
X17304214Y-13206786D01*
X17318500Y-13163929D01*
X17332786Y-13092500D01*
X17332786Y-13035357D01*
X17318500Y-12963929D01*
X17304214Y-12921071D01*
X17289928Y-12892500D01*
X17261357Y-12849643D01*
X17247071Y-12835357D01*
X9873500Y-13408500D02*
X9873500Y-13468500D01*
X9843500Y-13438500D02*
X9903500Y-13438500D01*
X10247071Y-13274214D02*
X10275643Y-13274214D01*
X10304214Y-13288500D01*
X10318500Y-13302786D01*
X10332786Y-13331357D01*
X10347071Y-13388500D01*
X10347071Y-13459929D01*
X10332786Y-13517071D01*
X10318500Y-13545643D01*
X10304214Y-13559929D01*
X10275643Y-13574214D01*
X10247071Y-13574214D01*
X10218500Y-13559929D01*
X10204214Y-13545643D01*
X10189928Y-13517071D01*
X10175643Y-13459929D01*
X10175643Y-13388500D01*
X10189928Y-13331357D01*
X10204214Y-13302786D01*
X10218500Y-13288500D01*
X10247071Y-13274214D01*
X10475643Y-13545643D02*
X10489928Y-13559929D01*
X10475643Y-13574214D01*
X10461357Y-13559929D01*
X10475643Y-13545643D01*
X10475643Y-13574214D01*
X10747071Y-13274214D02*
X10689928Y-13274214D01*
X10661357Y-13288500D01*
X10647071Y-13302786D01*
X10618500Y-13345643D01*
X10604214Y-13402786D01*
X10604214Y-13517071D01*
X10618500Y-13545643D01*
X10632786Y-13559929D01*
X10661357Y-13574214D01*
X10718500Y-13574214D01*
X10747071Y-13559929D01*
X10761357Y-13545643D01*
X10775643Y-13517071D01*
X10775643Y-13445643D01*
X10761357Y-13417071D01*
X10747071Y-13402786D01*
X10718500Y-13388500D01*
X10661357Y-13388500D01*
X10632786Y-13402786D01*
X10618500Y-13417071D01*
X10604214Y-13445643D01*
X10961357Y-13274214D02*
X10989928Y-13274214D01*
X11018500Y-13288500D01*
X11032786Y-13302786D01*
X11047071Y-13331357D01*
X11061357Y-13388500D01*
X11061357Y-13459929D01*
X11047071Y-13517071D01*
X11032786Y-13545643D01*
X11018500Y-13559929D01*
X10989928Y-13574214D01*
X10961357Y-13574214D01*
X10932786Y-13559929D01*
X10918500Y-13545643D01*
X10904214Y-13517071D01*
X10889928Y-13459929D01*
X10889928Y-13388500D01*
X10904214Y-13331357D01*
X10918500Y-13302786D01*
X10932786Y-13288500D01*
X10961357Y-13274214D01*
X11247071Y-13274214D02*
X11275643Y-13274214D01*
X11304214Y-13288500D01*
X11318500Y-13302786D01*
X11332786Y-13331357D01*
X11347071Y-13388500D01*
X11347071Y-13459929D01*
X11332786Y-13517071D01*
X11318500Y-13545643D01*
X11304214Y-13559929D01*
X11275643Y-13574214D01*
X11247071Y-13574214D01*
X11218500Y-13559929D01*
X11204214Y-13545643D01*
X11189928Y-13517071D01*
X11175643Y-13459929D01*
X11175643Y-13388500D01*
X11189928Y-13331357D01*
X11204214Y-13302786D01*
X11218500Y-13288500D01*
X11247071Y-13274214D01*
X11475643Y-13574214D02*
X11475643Y-13374214D01*
X11475643Y-13402786D02*
X11489928Y-13388500D01*
X11518500Y-13374214D01*
X11561357Y-13374214D01*
X11589928Y-13388500D01*
X11604214Y-13417071D01*
X11604214Y-13574214D01*
X11604214Y-13417071D02*
X11618500Y-13388500D01*
X11647071Y-13374214D01*
X11689928Y-13374214D01*
X11718500Y-13388500D01*
X11732786Y-13417071D01*
X11732786Y-13574214D01*
X11875643Y-13574214D02*
X11875643Y-13374214D01*
X11875643Y-13402786D02*
X11889928Y-13388500D01*
X11918500Y-13374214D01*
X11961357Y-13374214D01*
X11989928Y-13388500D01*
X12004214Y-13417071D01*
X12004214Y-13574214D01*
X12004214Y-13417071D02*
X12018500Y-13388500D01*
X12047071Y-13374214D01*
X12089928Y-13374214D01*
X12118500Y-13388500D01*
X12132786Y-13417071D01*
X12132786Y-13574214D01*
X12718500Y-13259929D02*
X12461357Y-13645643D01*
X13104214Y-13274214D02*
X13132786Y-13274214D01*
X13161357Y-13288500D01*
X13175643Y-13302786D01*
X13189928Y-13331357D01*
X13204214Y-13388500D01*
X13204214Y-13459929D01*
X13189928Y-13517071D01*
X13175643Y-13545643D01*
X13161357Y-13559929D01*
X13132786Y-13574214D01*
X13104214Y-13574214D01*
X13075643Y-13559929D01*
X13061357Y-13545643D01*
X13047071Y-13517071D01*
X13032786Y-13459929D01*
X13032786Y-13388500D01*
X13047071Y-13331357D01*
X13061357Y-13302786D01*
X13075643Y-13288500D01*
X13104214Y-13274214D01*
X13332786Y-13545643D02*
X13347071Y-13559929D01*
X13332786Y-13574214D01*
X13318500Y-13559929D01*
X13332786Y-13545643D01*
X13332786Y-13574214D01*
X13532786Y-13274214D02*
X13561357Y-13274214D01*
X13589928Y-13288500D01*
X13604214Y-13302786D01*
X13618500Y-13331357D01*
X13632786Y-13388500D01*
X13632786Y-13459929D01*
X13618500Y-13517071D01*
X13604214Y-13545643D01*
X13589928Y-13559929D01*
X13561357Y-13574214D01*
X13532786Y-13574214D01*
X13504214Y-13559929D01*
X13489928Y-13545643D01*
X13475643Y-13517071D01*
X13461357Y-13459929D01*
X13461357Y-13388500D01*
X13475643Y-13331357D01*
X13489928Y-13302786D01*
X13504214Y-13288500D01*
X13532786Y-13274214D01*
X13747071Y-13302786D02*
X13761357Y-13288500D01*
X13789928Y-13274214D01*
X13861357Y-13274214D01*
X13889928Y-13288500D01*
X13904214Y-13302786D01*
X13918500Y-13331357D01*
X13918500Y-13359929D01*
X13904214Y-13402786D01*
X13732786Y-13574214D01*
X13918500Y-13574214D01*
X14018500Y-13274214D02*
X14204214Y-13274214D01*
X14104214Y-13388500D01*
X14147071Y-13388500D01*
X14175643Y-13402786D01*
X14189928Y-13417071D01*
X14204214Y-13445643D01*
X14204214Y-13517071D01*
X14189928Y-13545643D01*
X14175643Y-13559929D01*
X14147071Y-13574214D01*
X14061357Y-13574214D01*
X14032786Y-13559929D01*
X14018500Y-13545643D01*
X14461357Y-13274214D02*
X14404214Y-13274214D01*
X14375643Y-13288500D01*
X14361357Y-13302786D01*
X14332786Y-13345643D01*
X14318500Y-13402786D01*
X14318500Y-13517071D01*
X14332786Y-13545643D01*
X14347071Y-13559929D01*
X14375643Y-13574214D01*
X14432786Y-13574214D01*
X14461357Y-13559929D01*
X14475643Y-13545643D01*
X14489928Y-13517071D01*
X14489928Y-13445643D01*
X14475643Y-13417071D01*
X14461357Y-13402786D01*
X14432786Y-13388500D01*
X14375643Y-13388500D01*
X14347071Y-13402786D01*
X14332786Y-13417071D01*
X14318500Y-13445643D01*
X14604214Y-13274214D02*
X14604214Y-13331357D01*
X14718500Y-13274214D02*
X14718500Y-13331357D01*
X15161357Y-13688500D02*
X15147071Y-13674214D01*
X15118500Y-13631357D01*
X15104214Y-13602786D01*
X15089928Y-13559929D01*
X15075643Y-13488500D01*
X15075643Y-13431357D01*
X15089928Y-13359929D01*
X15104214Y-13317071D01*
X15118500Y-13288500D01*
X15147071Y-13245643D01*
X15161357Y-13231357D01*
X15332786Y-13274214D02*
X15361357Y-13274214D01*
X15389928Y-13288500D01*
X15404214Y-13302786D01*
X15418500Y-13331357D01*
X15432786Y-13388500D01*
X15432786Y-13459929D01*
X15418500Y-13517071D01*
X15404214Y-13545643D01*
X15389928Y-13559929D01*
X15361357Y-13574214D01*
X15332786Y-13574214D01*
X15304214Y-13559929D01*
X15289928Y-13545643D01*
X15275643Y-13517071D01*
X15261357Y-13459929D01*
X15261357Y-13388500D01*
X15275643Y-13331357D01*
X15289928Y-13302786D01*
X15304214Y-13288500D01*
X15332786Y-13274214D01*
X15789928Y-13574214D02*
X15789928Y-13274214D01*
X15918500Y-13574214D02*
X15918500Y-13417071D01*
X15904214Y-13388500D01*
X15875643Y-13374214D01*
X15832786Y-13374214D01*
X15804214Y-13388500D01*
X15789928Y-13402786D01*
X16104214Y-13574214D02*
X16075643Y-13559929D01*
X16061357Y-13545643D01*
X16047071Y-13517071D01*
X16047071Y-13431357D01*
X16061357Y-13402786D01*
X16075643Y-13388500D01*
X16104214Y-13374214D01*
X16147071Y-13374214D01*
X16175643Y-13388500D01*
X16189928Y-13402786D01*
X16204214Y-13431357D01*
X16204214Y-13517071D01*
X16189928Y-13545643D01*
X16175643Y-13559929D01*
X16147071Y-13574214D01*
X16104214Y-13574214D01*
X16375643Y-13574214D02*
X16347071Y-13559929D01*
X16332786Y-13531357D01*
X16332786Y-13274214D01*
X16604214Y-13559929D02*
X16575643Y-13574214D01*
X16518500Y-13574214D01*
X16489928Y-13559929D01*
X16475643Y-13531357D01*
X16475643Y-13417071D01*
X16489928Y-13388500D01*
X16518500Y-13374214D01*
X16575643Y-13374214D01*
X16604214Y-13388500D01*
X16618500Y-13417071D01*
X16618500Y-13445643D01*
X16475643Y-13474214D01*
X16732786Y-13559929D02*
X16761357Y-13574214D01*
X16818500Y-13574214D01*
X16847071Y-13559929D01*
X16861357Y-13531357D01*
X16861357Y-13517071D01*
X16847071Y-13488500D01*
X16818500Y-13474214D01*
X16775643Y-13474214D01*
X16747071Y-13459929D01*
X16732786Y-13431357D01*
X16732786Y-13417071D01*
X16747071Y-13388500D01*
X16775643Y-13374214D01*
X16818500Y-13374214D01*
X16847071Y-13388500D01*
X17218500Y-13459929D02*
X17447071Y-13459929D01*
X17332786Y-13574214D02*
X17332786Y-13345643D01*
X17947071Y-13374214D02*
X17947071Y-13574214D01*
X17875643Y-13259929D02*
X17804214Y-13474214D01*
X17989928Y-13474214D01*
X18318500Y-13559929D02*
X18347071Y-13574214D01*
X18404214Y-13574214D01*
X18432786Y-13559929D01*
X18447071Y-13531357D01*
X18447071Y-13517071D01*
X18432786Y-13488500D01*
X18404214Y-13474214D01*
X18361357Y-13474214D01*
X18332786Y-13459929D01*
X18318500Y-13431357D01*
X18318500Y-13417071D01*
X18332786Y-13388500D01*
X18361357Y-13374214D01*
X18404214Y-13374214D01*
X18432786Y-13388500D01*
X18618500Y-13574214D02*
X18589928Y-13559929D01*
X18575643Y-13531357D01*
X18575643Y-13274214D01*
X18775643Y-13574214D02*
X18747071Y-13559929D01*
X18732786Y-13545643D01*
X18718500Y-13517071D01*
X18718500Y-13431357D01*
X18732786Y-13402786D01*
X18747071Y-13388500D01*
X18775643Y-13374214D01*
X18818500Y-13374214D01*
X18847071Y-13388500D01*
X18861357Y-13402786D01*
X18875643Y-13431357D01*
X18875643Y-13517071D01*
X18861357Y-13545643D01*
X18847071Y-13559929D01*
X18818500Y-13574214D01*
X18775643Y-13574214D01*
X18961357Y-13374214D02*
X19075643Y-13374214D01*
X19004214Y-13274214D02*
X19004214Y-13531357D01*
X19018500Y-13559929D01*
X19047071Y-13574214D01*
X19075643Y-13574214D01*
X19161357Y-13559929D02*
X19189928Y-13574214D01*
X19247071Y-13574214D01*
X19275643Y-13559929D01*
X19289928Y-13531357D01*
X19289928Y-13517071D01*
X19275643Y-13488500D01*
X19247071Y-13474214D01*
X19204214Y-13474214D01*
X19175643Y-13459929D01*
X19161357Y-13431357D01*
X19161357Y-13417071D01*
X19175643Y-13388500D01*
X19204214Y-13374214D01*
X19247071Y-13374214D01*
X19275643Y-13388500D01*
X19389928Y-13688500D02*
X19404214Y-13674214D01*
X19432786Y-13631357D01*
X19447071Y-13602786D01*
X19461357Y-13559929D01*
X19475643Y-13488500D01*
X19475643Y-13431357D01*
X19461357Y-13359929D01*
X19447071Y-13317071D01*
X19432786Y-13288500D01*
X19404214Y-13245643D01*
X19389928Y-13231357D01*
X9892341Y-13861441D02*
X9892341Y-13807559D01*
X9838459Y-13807559D01*
X9838459Y-13861441D01*
X9892341Y-13861441D01*
X10247071Y-13670214D02*
X10275643Y-13670214D01*
X10304214Y-13684500D01*
X10318500Y-13698786D01*
X10332786Y-13727357D01*
X10347071Y-13784500D01*
X10347071Y-13855929D01*
X10332786Y-13913071D01*
X10318500Y-13941643D01*
X10304214Y-13955929D01*
X10275643Y-13970214D01*
X10247071Y-13970214D01*
X10218500Y-13955929D01*
X10204214Y-13941643D01*
X10189928Y-13913071D01*
X10175643Y-13855929D01*
X10175643Y-13784500D01*
X10189928Y-13727357D01*
X10204214Y-13698786D01*
X10218500Y-13684500D01*
X10247071Y-13670214D01*
X10475643Y-13941643D02*
X10489928Y-13955929D01*
X10475643Y-13970214D01*
X10461357Y-13955929D01*
X10475643Y-13941643D01*
X10475643Y-13970214D01*
X10589928Y-13670214D02*
X10789928Y-13670214D01*
X10661357Y-13970214D01*
X11032786Y-13670214D02*
X10975643Y-13670214D01*
X10947071Y-13684500D01*
X10932786Y-13698786D01*
X10904214Y-13741643D01*
X10889928Y-13798786D01*
X10889928Y-13913071D01*
X10904214Y-13941643D01*
X10918500Y-13955929D01*
X10947071Y-13970214D01*
X11004214Y-13970214D01*
X11032786Y-13955929D01*
X11047071Y-13941643D01*
X11061357Y-13913071D01*
X11061357Y-13841643D01*
X11047071Y-13813071D01*
X11032786Y-13798786D01*
X11004214Y-13784500D01*
X10947071Y-13784500D01*
X10918500Y-13798786D01*
X10904214Y-13813071D01*
X10889928Y-13841643D01*
X11175643Y-13698786D02*
X11189928Y-13684500D01*
X11218500Y-13670214D01*
X11289928Y-13670214D01*
X11318500Y-13684500D01*
X11332786Y-13698786D01*
X11347071Y-13727357D01*
X11347071Y-13755929D01*
X11332786Y-13798786D01*
X11161357Y-13970214D01*
X11347071Y-13970214D01*
X11475643Y-13970214D02*
X11475643Y-13770214D01*
X11475643Y-13798786D02*
X11489928Y-13784500D01*
X11518500Y-13770214D01*
X11561357Y-13770214D01*
X11589928Y-13784500D01*
X11604214Y-13813071D01*
X11604214Y-13970214D01*
X11604214Y-13813071D02*
X11618500Y-13784500D01*
X11647071Y-13770214D01*
X11689928Y-13770214D01*
X11718500Y-13784500D01*
X11732786Y-13813071D01*
X11732786Y-13970214D01*
X11875643Y-13970214D02*
X11875643Y-13770214D01*
X11875643Y-13798786D02*
X11889928Y-13784500D01*
X11918500Y-13770214D01*
X11961357Y-13770214D01*
X11989928Y-13784500D01*
X12004214Y-13813071D01*
X12004214Y-13970214D01*
X12004214Y-13813071D02*
X12018500Y-13784500D01*
X12047071Y-13770214D01*
X12089928Y-13770214D01*
X12118500Y-13784500D01*
X12132786Y-13813071D01*
X12132786Y-13970214D01*
X12718500Y-13655929D02*
X12461357Y-14041643D01*
X13104214Y-13670214D02*
X13132786Y-13670214D01*
X13161357Y-13684500D01*
X13175643Y-13698786D01*
X13189928Y-13727357D01*
X13204214Y-13784500D01*
X13204214Y-13855929D01*
X13189928Y-13913071D01*
X13175643Y-13941643D01*
X13161357Y-13955929D01*
X13132786Y-13970214D01*
X13104214Y-13970214D01*
X13075643Y-13955929D01*
X13061357Y-13941643D01*
X13047071Y-13913071D01*
X13032786Y-13855929D01*
X13032786Y-13784500D01*
X13047071Y-13727357D01*
X13061357Y-13698786D01*
X13075643Y-13684500D01*
X13104214Y-13670214D01*
X13332786Y-13941643D02*
X13347071Y-13955929D01*
X13332786Y-13970214D01*
X13318500Y-13955929D01*
X13332786Y-13941643D01*
X13332786Y-13970214D01*
X13532786Y-13670214D02*
X13561357Y-13670214D01*
X13589928Y-13684500D01*
X13604214Y-13698786D01*
X13618500Y-13727357D01*
X13632786Y-13784500D01*
X13632786Y-13855929D01*
X13618500Y-13913071D01*
X13604214Y-13941643D01*
X13589928Y-13955929D01*
X13561357Y-13970214D01*
X13532786Y-13970214D01*
X13504214Y-13955929D01*
X13489928Y-13941643D01*
X13475643Y-13913071D01*
X13461357Y-13855929D01*
X13461357Y-13784500D01*
X13475643Y-13727357D01*
X13489928Y-13698786D01*
X13504214Y-13684500D01*
X13532786Y-13670214D01*
X13732786Y-13670214D02*
X13918500Y-13670214D01*
X13818500Y-13784500D01*
X13861357Y-13784500D01*
X13889928Y-13798786D01*
X13904214Y-13813071D01*
X13918500Y-13841643D01*
X13918500Y-13913071D01*
X13904214Y-13941643D01*
X13889928Y-13955929D01*
X13861357Y-13970214D01*
X13775643Y-13970214D01*
X13747071Y-13955929D01*
X13732786Y-13941643D01*
X14104214Y-13670214D02*
X14132786Y-13670214D01*
X14161357Y-13684500D01*
X14175643Y-13698786D01*
X14189928Y-13727357D01*
X14204214Y-13784500D01*
X14204214Y-13855929D01*
X14189928Y-13913071D01*
X14175643Y-13941643D01*
X14161357Y-13955929D01*
X14132786Y-13970214D01*
X14104214Y-13970214D01*
X14075643Y-13955929D01*
X14061357Y-13941643D01*
X14047071Y-13913071D01*
X14032786Y-13855929D01*
X14032786Y-13784500D01*
X14047071Y-13727357D01*
X14061357Y-13698786D01*
X14075643Y-13684500D01*
X14104214Y-13670214D01*
X14389928Y-13670214D02*
X14418500Y-13670214D01*
X14447071Y-13684500D01*
X14461357Y-13698786D01*
X14475643Y-13727357D01*
X14489928Y-13784500D01*
X14489928Y-13855929D01*
X14475643Y-13913071D01*
X14461357Y-13941643D01*
X14447071Y-13955929D01*
X14418500Y-13970214D01*
X14389928Y-13970214D01*
X14361357Y-13955929D01*
X14347071Y-13941643D01*
X14332786Y-13913071D01*
X14318500Y-13855929D01*
X14318500Y-13784500D01*
X14332786Y-13727357D01*
X14347071Y-13698786D01*
X14361357Y-13684500D01*
X14389928Y-13670214D01*
X14604214Y-13670214D02*
X14604214Y-13727357D01*
X14718500Y-13670214D02*
X14718500Y-13727357D01*
X15161357Y-14084500D02*
X15147071Y-14070214D01*
X15118500Y-14027357D01*
X15104214Y-13998786D01*
X15089928Y-13955929D01*
X15075643Y-13884500D01*
X15075643Y-13827357D01*
X15089928Y-13755929D01*
X15104214Y-13713071D01*
X15118500Y-13684500D01*
X15147071Y-13641643D01*
X15161357Y-13627357D01*
X15418500Y-13670214D02*
X15275643Y-13670214D01*
X15261357Y-13813071D01*
X15275643Y-13798786D01*
X15304214Y-13784500D01*
X15375643Y-13784500D01*
X15404214Y-13798786D01*
X15418500Y-13813071D01*
X15432786Y-13841643D01*
X15432786Y-13913071D01*
X15418500Y-13941643D01*
X15404214Y-13955929D01*
X15375643Y-13970214D01*
X15304214Y-13970214D01*
X15275643Y-13955929D01*
X15261357Y-13941643D01*
X15547071Y-13698786D02*
X15561357Y-13684500D01*
X15589928Y-13670214D01*
X15661357Y-13670214D01*
X15689928Y-13684500D01*
X15704214Y-13698786D01*
X15718500Y-13727357D01*
X15718500Y-13755929D01*
X15704214Y-13798786D01*
X15532786Y-13970214D01*
X15718500Y-13970214D01*
X16075643Y-13970214D02*
X16075643Y-13670214D01*
X16204214Y-13970214D02*
X16204214Y-13813071D01*
X16189928Y-13784500D01*
X16161357Y-13770214D01*
X16118500Y-13770214D01*
X16089928Y-13784500D01*
X16075643Y-13798786D01*
X16389928Y-13970214D02*
X16361357Y-13955929D01*
X16347071Y-13941643D01*
X16332786Y-13913071D01*
X16332786Y-13827357D01*
X16347071Y-13798786D01*
X16361357Y-13784500D01*
X16389928Y-13770214D01*
X16432786Y-13770214D01*
X16461357Y-13784500D01*
X16475643Y-13798786D01*
X16489928Y-13827357D01*
X16489928Y-13913071D01*
X16475643Y-13941643D01*
X16461357Y-13955929D01*
X16432786Y-13970214D01*
X16389928Y-13970214D01*
X16661357Y-13970214D02*
X16632786Y-13955929D01*
X16618500Y-13927357D01*
X16618500Y-13670214D01*
X16889928Y-13955929D02*
X16861357Y-13970214D01*
X16804214Y-13970214D01*
X16775643Y-13955929D01*
X16761357Y-13927357D01*
X16761357Y-13813071D01*
X16775643Y-13784500D01*
X16804214Y-13770214D01*
X16861357Y-13770214D01*
X16889928Y-13784500D01*
X16904214Y-13813071D01*
X16904214Y-13841643D01*
X16761357Y-13870214D01*
X17018500Y-13955929D02*
X17047071Y-13970214D01*
X17104214Y-13970214D01*
X17132786Y-13955929D01*
X17147071Y-13927357D01*
X17147071Y-13913071D01*
X17132786Y-13884500D01*
X17104214Y-13870214D01*
X17061357Y-13870214D01*
X17032786Y-13855929D01*
X17018500Y-13827357D01*
X17018500Y-13813071D01*
X17032786Y-13784500D01*
X17061357Y-13770214D01*
X17104214Y-13770214D01*
X17132786Y-13784500D01*
X17247071Y-14084500D02*
X17261357Y-14070214D01*
X17289928Y-14027357D01*
X17304214Y-13998786D01*
X17318500Y-13955929D01*
X17332786Y-13884500D01*
X17332786Y-13827357D01*
X17318500Y-13755929D01*
X17304214Y-13713071D01*
X17289928Y-13684500D01*
X17261357Y-13641643D01*
X17247071Y-13627357D01*
X9853500Y-14280500D02*
X9903500Y-14230500D01*
X9853500Y-14180500D01*
X9803500Y-14230500D01*
X9853500Y-14280500D01*
X10347071Y-14366214D02*
X10175643Y-14366214D01*
X10261357Y-14366214D02*
X10261357Y-14066214D01*
X10232786Y-14109071D01*
X10204214Y-14137643D01*
X10175643Y-14151929D01*
X10475643Y-14337643D02*
X10489928Y-14351929D01*
X10475643Y-14366214D01*
X10461357Y-14351929D01*
X10475643Y-14337643D01*
X10475643Y-14366214D01*
X10675643Y-14066214D02*
X10704214Y-14066214D01*
X10732786Y-14080500D01*
X10747071Y-14094786D01*
X10761357Y-14123357D01*
X10775643Y-14180500D01*
X10775643Y-14251929D01*
X10761357Y-14309071D01*
X10747071Y-14337643D01*
X10732786Y-14351929D01*
X10704214Y-14366214D01*
X10675643Y-14366214D01*
X10647071Y-14351929D01*
X10632786Y-14337643D01*
X10618500Y-14309071D01*
X10604214Y-14251929D01*
X10604214Y-14180500D01*
X10618500Y-14123357D01*
X10632786Y-14094786D01*
X10647071Y-14080500D01*
X10675643Y-14066214D01*
X10961357Y-14066214D02*
X10989928Y-14066214D01*
X11018500Y-14080500D01*
X11032786Y-14094786D01*
X11047071Y-14123357D01*
X11061357Y-14180500D01*
X11061357Y-14251929D01*
X11047071Y-14309071D01*
X11032786Y-14337643D01*
X11018500Y-14351929D01*
X10989928Y-14366214D01*
X10961357Y-14366214D01*
X10932786Y-14351929D01*
X10918500Y-14337643D01*
X10904214Y-14309071D01*
X10889928Y-14251929D01*
X10889928Y-14180500D01*
X10904214Y-14123357D01*
X10918500Y-14094786D01*
X10932786Y-14080500D01*
X10961357Y-14066214D01*
X11247071Y-14066214D02*
X11275643Y-14066214D01*
X11304214Y-14080500D01*
X11318500Y-14094786D01*
X11332786Y-14123357D01*
X11347071Y-14180500D01*
X11347071Y-14251929D01*
X11332786Y-14309071D01*
X11318500Y-14337643D01*
X11304214Y-14351929D01*
X11275643Y-14366214D01*
X11247071Y-14366214D01*
X11218500Y-14351929D01*
X11204214Y-14337643D01*
X11189928Y-14309071D01*
X11175643Y-14251929D01*
X11175643Y-14180500D01*
X11189928Y-14123357D01*
X11204214Y-14094786D01*
X11218500Y-14080500D01*
X11247071Y-14066214D01*
X11475643Y-14366214D02*
X11475643Y-14166214D01*
X11475643Y-14194786D02*
X11489928Y-14180500D01*
X11518500Y-14166214D01*
X11561357Y-14166214D01*
X11589928Y-14180500D01*
X11604214Y-14209071D01*
X11604214Y-14366214D01*
X11604214Y-14209071D02*
X11618500Y-14180500D01*
X11647071Y-14166214D01*
X11689928Y-14166214D01*
X11718500Y-14180500D01*
X11732786Y-14209071D01*
X11732786Y-14366214D01*
X11875643Y-14366214D02*
X11875643Y-14166214D01*
X11875643Y-14194786D02*
X11889928Y-14180500D01*
X11918500Y-14166214D01*
X11961357Y-14166214D01*
X11989928Y-14180500D01*
X12004214Y-14209071D01*
X12004214Y-14366214D01*
X12004214Y-14209071D02*
X12018500Y-14180500D01*
X12047071Y-14166214D01*
X12089928Y-14166214D01*
X12118500Y-14180500D01*
X12132786Y-14209071D01*
X12132786Y-14366214D01*
X12718500Y-14051929D02*
X12461357Y-14437643D01*
X13104214Y-14066214D02*
X13132786Y-14066214D01*
X13161357Y-14080500D01*
X13175643Y-14094786D01*
X13189928Y-14123357D01*
X13204214Y-14180500D01*
X13204214Y-14251929D01*
X13189928Y-14309071D01*
X13175643Y-14337643D01*
X13161357Y-14351929D01*
X13132786Y-14366214D01*
X13104214Y-14366214D01*
X13075643Y-14351929D01*
X13061357Y-14337643D01*
X13047071Y-14309071D01*
X13032786Y-14251929D01*
X13032786Y-14180500D01*
X13047071Y-14123357D01*
X13061357Y-14094786D01*
X13075643Y-14080500D01*
X13104214Y-14066214D01*
X13332786Y-14337643D02*
X13347071Y-14351929D01*
X13332786Y-14366214D01*
X13318500Y-14351929D01*
X13332786Y-14337643D01*
X13332786Y-14366214D01*
X13532786Y-14066214D02*
X13561357Y-14066214D01*
X13589928Y-14080500D01*
X13604214Y-14094786D01*
X13618500Y-14123357D01*
X13632786Y-14180500D01*
X13632786Y-14251929D01*
X13618500Y-14309071D01*
X13604214Y-14337643D01*
X13589928Y-14351929D01*
X13561357Y-14366214D01*
X13532786Y-14366214D01*
X13504214Y-14351929D01*
X13489928Y-14337643D01*
X13475643Y-14309071D01*
X13461357Y-14251929D01*
X13461357Y-14180500D01*
X13475643Y-14123357D01*
X13489928Y-14094786D01*
X13504214Y-14080500D01*
X13532786Y-14066214D01*
X13732786Y-14066214D02*
X13918500Y-14066214D01*
X13818500Y-14180500D01*
X13861357Y-14180500D01*
X13889928Y-14194786D01*
X13904214Y-14209071D01*
X13918500Y-14237643D01*
X13918500Y-14309071D01*
X13904214Y-14337643D01*
X13889928Y-14351929D01*
X13861357Y-14366214D01*
X13775643Y-14366214D01*
X13747071Y-14351929D01*
X13732786Y-14337643D01*
X14061357Y-14366214D02*
X14118500Y-14366214D01*
X14147071Y-14351929D01*
X14161357Y-14337643D01*
X14189928Y-14294786D01*
X14204214Y-14237643D01*
X14204214Y-14123357D01*
X14189928Y-14094786D01*
X14175643Y-14080500D01*
X14147071Y-14066214D01*
X14089928Y-14066214D01*
X14061357Y-14080500D01*
X14047071Y-14094786D01*
X14032786Y-14123357D01*
X14032786Y-14194786D01*
X14047071Y-14223357D01*
X14061357Y-14237643D01*
X14089928Y-14251929D01*
X14147071Y-14251929D01*
X14175643Y-14237643D01*
X14189928Y-14223357D01*
X14204214Y-14194786D01*
X14461357Y-14166214D02*
X14461357Y-14366214D01*
X14389928Y-14051929D02*
X14318500Y-14266214D01*
X14504214Y-14266214D01*
X14604214Y-14066214D02*
X14604214Y-14123357D01*
X14718500Y-14066214D02*
X14718500Y-14123357D01*
X15161357Y-14480500D02*
X15147071Y-14466214D01*
X15118500Y-14423357D01*
X15104214Y-14394786D01*
X15089928Y-14351929D01*
X15075643Y-14280500D01*
X15075643Y-14223357D01*
X15089928Y-14151929D01*
X15104214Y-14109071D01*
X15118500Y-14080500D01*
X15147071Y-14037643D01*
X15161357Y-14023357D01*
X15418500Y-14066214D02*
X15275643Y-14066214D01*
X15261357Y-14209071D01*
X15275643Y-14194786D01*
X15304214Y-14180500D01*
X15375643Y-14180500D01*
X15404214Y-14194786D01*
X15418500Y-14209071D01*
X15432786Y-14237643D01*
X15432786Y-14309071D01*
X15418500Y-14337643D01*
X15404214Y-14351929D01*
X15375643Y-14366214D01*
X15304214Y-14366214D01*
X15275643Y-14351929D01*
X15261357Y-14337643D01*
X15689928Y-14166214D02*
X15689928Y-14366214D01*
X15618500Y-14051929D02*
X15547071Y-14266214D01*
X15732786Y-14266214D01*
X16075643Y-14366214D02*
X16075643Y-14066214D01*
X16204214Y-14366214D02*
X16204214Y-14209071D01*
X16189928Y-14180500D01*
X16161357Y-14166214D01*
X16118500Y-14166214D01*
X16089928Y-14180500D01*
X16075643Y-14194786D01*
X16389928Y-14366214D02*
X16361357Y-14351929D01*
X16347071Y-14337643D01*
X16332786Y-14309071D01*
X16332786Y-14223357D01*
X16347071Y-14194786D01*
X16361357Y-14180500D01*
X16389928Y-14166214D01*
X16432786Y-14166214D01*
X16461357Y-14180500D01*
X16475643Y-14194786D01*
X16489928Y-14223357D01*
X16489928Y-14309071D01*
X16475643Y-14337643D01*
X16461357Y-14351929D01*
X16432786Y-14366214D01*
X16389928Y-14366214D01*
X16661357Y-14366214D02*
X16632786Y-14351929D01*
X16618500Y-14323357D01*
X16618500Y-14066214D01*
X16889928Y-14351929D02*
X16861357Y-14366214D01*
X16804214Y-14366214D01*
X16775643Y-14351929D01*
X16761357Y-14323357D01*
X16761357Y-14209071D01*
X16775643Y-14180500D01*
X16804214Y-14166214D01*
X16861357Y-14166214D01*
X16889928Y-14180500D01*
X16904214Y-14209071D01*
X16904214Y-14237643D01*
X16761357Y-14266214D01*
X17018500Y-14351929D02*
X17047071Y-14366214D01*
X17104214Y-14366214D01*
X17132786Y-14351929D01*
X17147071Y-14323357D01*
X17147071Y-14309071D01*
X17132786Y-14280500D01*
X17104214Y-14266214D01*
X17061357Y-14266214D01*
X17032786Y-14251929D01*
X17018500Y-14223357D01*
X17018500Y-14209071D01*
X17032786Y-14180500D01*
X17061357Y-14166214D01*
X17104214Y-14166214D01*
X17132786Y-14180500D01*
X17247071Y-14480500D02*
X17261357Y-14466214D01*
X17289928Y-14423357D01*
X17304214Y-14394786D01*
X17318500Y-14351929D01*
X17332786Y-14280500D01*
X17332786Y-14223357D01*
X17318500Y-14151929D01*
X17304214Y-14109071D01*
X17289928Y-14080500D01*
X17261357Y-14037643D01*
X17247071Y-14023357D01*
X9583500Y-14466500D02*
X9903500Y-14786500D01*
X9903500Y-14466500D02*
X9583500Y-14786500D01*
X9903500Y-14626500D02*
G75*
G03*
X9903500Y-14626500I-160000J0D01*
G01*
X10161357Y-14462214D02*
X10347071Y-14462214D01*
X10247071Y-14576500D01*
X10289928Y-14576500D01*
X10318500Y-14590786D01*
X10332786Y-14605071D01*
X10347071Y-14633643D01*
X10347071Y-14705071D01*
X10332786Y-14733643D01*
X10318500Y-14747929D01*
X10289928Y-14762214D01*
X10204214Y-14762214D01*
X10175643Y-14747929D01*
X10161357Y-14733643D01*
X10475643Y-14733643D02*
X10489928Y-14747929D01*
X10475643Y-14762214D01*
X10461357Y-14747929D01*
X10475643Y-14733643D01*
X10475643Y-14762214D01*
X10604214Y-14490786D02*
X10618500Y-14476500D01*
X10647071Y-14462214D01*
X10718500Y-14462214D01*
X10747071Y-14476500D01*
X10761357Y-14490786D01*
X10775643Y-14519357D01*
X10775643Y-14547929D01*
X10761357Y-14590786D01*
X10589928Y-14762214D01*
X10775643Y-14762214D01*
X10961357Y-14462214D02*
X10989928Y-14462214D01*
X11018500Y-14476500D01*
X11032786Y-14490786D01*
X11047071Y-14519357D01*
X11061357Y-14576500D01*
X11061357Y-14647929D01*
X11047071Y-14705071D01*
X11032786Y-14733643D01*
X11018500Y-14747929D01*
X10989928Y-14762214D01*
X10961357Y-14762214D01*
X10932786Y-14747929D01*
X10918500Y-14733643D01*
X10904214Y-14705071D01*
X10889928Y-14647929D01*
X10889928Y-14576500D01*
X10904214Y-14519357D01*
X10918500Y-14490786D01*
X10932786Y-14476500D01*
X10961357Y-14462214D01*
X11247071Y-14462214D02*
X11275643Y-14462214D01*
X11304214Y-14476500D01*
X11318500Y-14490786D01*
X11332786Y-14519357D01*
X11347071Y-14576500D01*
X11347071Y-14647929D01*
X11332786Y-14705071D01*
X11318500Y-14733643D01*
X11304214Y-14747929D01*
X11275643Y-14762214D01*
X11247071Y-14762214D01*
X11218500Y-14747929D01*
X11204214Y-14733643D01*
X11189928Y-14705071D01*
X11175643Y-14647929D01*
X11175643Y-14576500D01*
X11189928Y-14519357D01*
X11204214Y-14490786D01*
X11218500Y-14476500D01*
X11247071Y-14462214D01*
X11475643Y-14762214D02*
X11475643Y-14562214D01*
X11475643Y-14590786D02*
X11489928Y-14576500D01*
X11518500Y-14562214D01*
X11561357Y-14562214D01*
X11589928Y-14576500D01*
X11604214Y-14605071D01*
X11604214Y-14762214D01*
X11604214Y-14605071D02*
X11618500Y-14576500D01*
X11647071Y-14562214D01*
X11689928Y-14562214D01*
X11718500Y-14576500D01*
X11732786Y-14605071D01*
X11732786Y-14762214D01*
X11875643Y-14762214D02*
X11875643Y-14562214D01*
X11875643Y-14590786D02*
X11889928Y-14576500D01*
X11918500Y-14562214D01*
X11961357Y-14562214D01*
X11989928Y-14576500D01*
X12004214Y-14605071D01*
X12004214Y-14762214D01*
X12004214Y-14605071D02*
X12018500Y-14576500D01*
X12047071Y-14562214D01*
X12089928Y-14562214D01*
X12118500Y-14576500D01*
X12132786Y-14605071D01*
X12132786Y-14762214D01*
X12718500Y-14447929D02*
X12461357Y-14833643D01*
X13104214Y-14462214D02*
X13132786Y-14462214D01*
X13161357Y-14476500D01*
X13175643Y-14490786D01*
X13189928Y-14519357D01*
X13204214Y-14576500D01*
X13204214Y-14647929D01*
X13189928Y-14705071D01*
X13175643Y-14733643D01*
X13161357Y-14747929D01*
X13132786Y-14762214D01*
X13104214Y-14762214D01*
X13075643Y-14747929D01*
X13061357Y-14733643D01*
X13047071Y-14705071D01*
X13032786Y-14647929D01*
X13032786Y-14576500D01*
X13047071Y-14519357D01*
X13061357Y-14490786D01*
X13075643Y-14476500D01*
X13104214Y-14462214D01*
X13332786Y-14733643D02*
X13347071Y-14747929D01*
X13332786Y-14762214D01*
X13318500Y-14747929D01*
X13332786Y-14733643D01*
X13332786Y-14762214D01*
X13632786Y-14762214D02*
X13461357Y-14762214D01*
X13547071Y-14762214D02*
X13547071Y-14462214D01*
X13518500Y-14505071D01*
X13489928Y-14533643D01*
X13461357Y-14547929D01*
X13747071Y-14490786D02*
X13761357Y-14476500D01*
X13789928Y-14462214D01*
X13861357Y-14462214D01*
X13889928Y-14476500D01*
X13904214Y-14490786D01*
X13918500Y-14519357D01*
X13918500Y-14547929D01*
X13904214Y-14590786D01*
X13732786Y-14762214D01*
X13918500Y-14762214D01*
X14175643Y-14462214D02*
X14118500Y-14462214D01*
X14089928Y-14476500D01*
X14075643Y-14490786D01*
X14047071Y-14533643D01*
X14032786Y-14590786D01*
X14032786Y-14705071D01*
X14047071Y-14733643D01*
X14061357Y-14747929D01*
X14089928Y-14762214D01*
X14147071Y-14762214D01*
X14175643Y-14747929D01*
X14189928Y-14733643D01*
X14204214Y-14705071D01*
X14204214Y-14633643D01*
X14189928Y-14605071D01*
X14175643Y-14590786D01*
X14147071Y-14576500D01*
X14089928Y-14576500D01*
X14061357Y-14590786D01*
X14047071Y-14605071D01*
X14032786Y-14633643D01*
X14389928Y-14462214D02*
X14418500Y-14462214D01*
X14447071Y-14476500D01*
X14461357Y-14490786D01*
X14475643Y-14519357D01*
X14489928Y-14576500D01*
X14489928Y-14647929D01*
X14475643Y-14705071D01*
X14461357Y-14733643D01*
X14447071Y-14747929D01*
X14418500Y-14762214D01*
X14389928Y-14762214D01*
X14361357Y-14747929D01*
X14347071Y-14733643D01*
X14332786Y-14705071D01*
X14318500Y-14647929D01*
X14318500Y-14576500D01*
X14332786Y-14519357D01*
X14347071Y-14490786D01*
X14361357Y-14476500D01*
X14389928Y-14462214D01*
X14604214Y-14462214D02*
X14604214Y-14519357D01*
X14718500Y-14462214D02*
X14718500Y-14519357D01*
X15161357Y-14876500D02*
X15147071Y-14862214D01*
X15118500Y-14819357D01*
X15104214Y-14790786D01*
X15089928Y-14747929D01*
X15075643Y-14676500D01*
X15075643Y-14619357D01*
X15089928Y-14547929D01*
X15104214Y-14505071D01*
X15118500Y-14476500D01*
X15147071Y-14433643D01*
X15161357Y-14419357D01*
X15404214Y-14562214D02*
X15404214Y-14762214D01*
X15332786Y-14447929D02*
X15261357Y-14662214D01*
X15447071Y-14662214D01*
X15789928Y-14762214D02*
X15789928Y-14462214D01*
X15918500Y-14762214D02*
X15918500Y-14605071D01*
X15904214Y-14576500D01*
X15875643Y-14562214D01*
X15832786Y-14562214D01*
X15804214Y-14576500D01*
X15789928Y-14590786D01*
X16104214Y-14762214D02*
X16075643Y-14747929D01*
X16061357Y-14733643D01*
X16047071Y-14705071D01*
X16047071Y-14619357D01*
X16061357Y-14590786D01*
X16075643Y-14576500D01*
X16104214Y-14562214D01*
X16147071Y-14562214D01*
X16175643Y-14576500D01*
X16189928Y-14590786D01*
X16204214Y-14619357D01*
X16204214Y-14705071D01*
X16189928Y-14733643D01*
X16175643Y-14747929D01*
X16147071Y-14762214D01*
X16104214Y-14762214D01*
X16375643Y-14762214D02*
X16347071Y-14747929D01*
X16332786Y-14719357D01*
X16332786Y-14462214D01*
X16604214Y-14747929D02*
X16575643Y-14762214D01*
X16518500Y-14762214D01*
X16489928Y-14747929D01*
X16475643Y-14719357D01*
X16475643Y-14605071D01*
X16489928Y-14576500D01*
X16518500Y-14562214D01*
X16575643Y-14562214D01*
X16604214Y-14576500D01*
X16618500Y-14605071D01*
X16618500Y-14633643D01*
X16475643Y-14662214D01*
X16732786Y-14747929D02*
X16761357Y-14762214D01*
X16818500Y-14762214D01*
X16847071Y-14747929D01*
X16861357Y-14719357D01*
X16861357Y-14705071D01*
X16847071Y-14676500D01*
X16818500Y-14662214D01*
X16775643Y-14662214D01*
X16747071Y-14647929D01*
X16732786Y-14619357D01*
X16732786Y-14605071D01*
X16747071Y-14576500D01*
X16775643Y-14562214D01*
X16818500Y-14562214D01*
X16847071Y-14576500D01*
X16961357Y-14876500D02*
X16975643Y-14862214D01*
X17004214Y-14819357D01*
X17018500Y-14790786D01*
X17032786Y-14747929D01*
X17047071Y-14676500D01*
X17047071Y-14619357D01*
X17032786Y-14547929D01*
X17018500Y-14505071D01*
X17004214Y-14476500D01*
X16975643Y-14433643D01*
X16961357Y-14419357D01*
M02*
