G04 #@! TF.GenerationSoftware,KiCad,Pcbnew,(5.1.10)-1*
G04 #@! TF.CreationDate,2021-10-21T22:48:54+02:00*
G04 #@! TF.ProjectId,mta1_usb_dev,6d746131-5f75-4736-925f-6465762e6b69,rev?*
G04 #@! TF.SameCoordinates,Original*
G04 #@! TF.FileFunction,Legend,Bot*
G04 #@! TF.FilePolarity,Positive*
%FSLAX46Y46*%
G04 Gerber Fmt 4.6, Leading zero omitted, Abs format (unit mm)*
G04 Created by KiCad (PCBNEW (5.1.10)-1) date 2021-10-21 22:48:54*
%MOMM*%
%LPD*%
G01*
G04 APERTURE LIST*
%ADD10C,1.524000*%
%ADD11R,1.524000X1.524000*%
%ADD12C,0.002000*%
%ADD13C,5.600000*%
%ADD14C,3.600000*%
%ADD15O,1.700000X1.700000*%
%ADD16R,1.700000X1.700000*%
%ADD17O,2.100000X1.000000*%
%ADD18C,0.650000*%
%ADD19O,1.600000X1.000000*%
G04 APERTURE END LIST*
%LPC*%
D10*
X185420000Y-86360000D03*
D11*
X185420000Y-83820000D03*
D10*
X154940000Y-109220000D03*
X154940000Y-106680000D03*
X157480000Y-109220000D03*
X157480000Y-106680000D03*
X160020000Y-109220000D03*
X160020000Y-106680000D03*
X162560000Y-109220000D03*
X162560000Y-106680000D03*
X165100000Y-109220000D03*
X165100000Y-106680000D03*
X167640000Y-109220000D03*
X167640000Y-106680000D03*
X170180000Y-109220000D03*
X170180000Y-106680000D03*
X172720000Y-109220000D03*
X172720000Y-106680000D03*
X175260000Y-109220000D03*
X175260000Y-106680000D03*
X177800000Y-109220000D03*
X177800000Y-106680000D03*
X180340000Y-109220000D03*
X180340000Y-106680000D03*
X182880000Y-109220000D03*
X182880000Y-106680000D03*
X185420000Y-109220000D03*
D11*
X185420000Y-106680000D03*
D10*
X154940000Y-86360000D03*
X154940000Y-83820000D03*
X157480000Y-86360000D03*
X157480000Y-83820000D03*
X160020000Y-86360000D03*
X160020000Y-83820000D03*
X162560000Y-86360000D03*
X162560000Y-83820000D03*
X165100000Y-86360000D03*
X165100000Y-83820000D03*
X167640000Y-86360000D03*
X167640000Y-83820000D03*
X170180000Y-86360000D03*
X170180000Y-83820000D03*
X172720000Y-86360000D03*
X172720000Y-83820000D03*
X175260000Y-86360000D03*
X175260000Y-83820000D03*
X177800000Y-86360000D03*
X177800000Y-83820000D03*
X180340000Y-86360000D03*
X180340000Y-83820000D03*
X182880000Y-86360000D03*
X182880000Y-83820000D03*
D12*
X119380000Y-93980000D03*
X119380000Y-91824739D03*
X121535261Y-93980000D03*
X119380000Y-96135261D03*
X117224739Y-93980000D03*
X144780000Y-93980000D03*
X144780000Y-91824739D03*
X146935261Y-93980000D03*
X144780000Y-96135261D03*
X142624739Y-93980000D03*
D13*
X187452000Y-113792000D03*
D14*
X187452000Y-113792000D03*
D13*
X102108000Y-113792000D03*
D14*
X102108000Y-113792000D03*
D13*
X102108000Y-79248000D03*
D14*
X102108000Y-79248000D03*
D13*
X187452000Y-79248000D03*
D14*
X187452000Y-79248000D03*
D15*
X121920000Y-114300000D03*
X119380000Y-114300000D03*
X121920000Y-111760000D03*
D16*
X119380000Y-111760000D03*
D17*
X104390000Y-100840000D03*
X104390000Y-92200000D03*
D18*
X103860000Y-93630000D03*
D19*
X100210000Y-92200000D03*
D18*
X103860000Y-99410000D03*
D19*
X100210000Y-100840000D03*
D15*
X149860000Y-83820000D03*
X147320000Y-83820000D03*
X144780000Y-83820000D03*
X142240000Y-83820000D03*
D16*
X139700000Y-83820000D03*
D15*
X133299200Y-104902000D03*
X130759200Y-104902000D03*
X133299200Y-102362000D03*
X130759200Y-102362000D03*
X133299200Y-99822000D03*
X130759200Y-99822000D03*
X133299200Y-97282000D03*
X130759200Y-97282000D03*
X133299200Y-94742000D03*
X130759200Y-94742000D03*
X133299200Y-92202000D03*
X130759200Y-92202000D03*
X133299200Y-89662000D03*
X130759200Y-89662000D03*
X133299200Y-87122000D03*
D16*
X130759200Y-87122000D03*
D15*
X114300000Y-114300000D03*
D16*
X114300000Y-111760000D03*
D15*
X180340000Y-114935000D03*
X177800000Y-114935000D03*
X175260000Y-114935000D03*
X172720000Y-114935000D03*
X170180000Y-114935000D03*
X167640000Y-114935000D03*
X165100000Y-114935000D03*
D16*
X162560000Y-114935000D03*
D15*
X162560000Y-78105000D03*
X165100000Y-78105000D03*
X167640000Y-78105000D03*
X170180000Y-78105000D03*
X172720000Y-78105000D03*
X175260000Y-78105000D03*
X177800000Y-78105000D03*
D16*
X180340000Y-78105000D03*
D15*
X147320000Y-114300000D03*
X144780000Y-114300000D03*
X147320000Y-111760000D03*
D16*
X144780000Y-111760000D03*
D15*
X139700000Y-114300000D03*
D16*
X139700000Y-111760000D03*
D15*
X124460000Y-83820000D03*
X121920000Y-83820000D03*
X119380000Y-83820000D03*
X116840000Y-83820000D03*
D16*
X114300000Y-83820000D03*
M02*
