M48
; DRILL file {KiCad (5.1.10)-1} date 10/21/21 22:49:29
; FORMAT={-:-/ absolute / metric / decimal}
; #@! TF.CreationDate,2021-10-21T22:49:29+02:00
; #@! TF.GenerationSoftware,Kicad,Pcbnew,(5.1.10)-1
; #@! TF.FileFunction,Plated,1,4,PTH
FMAT,2
METRIC
T1C0.300
T2C0.400
T3C0.600
T4C0.762
T5C1.000
T6C3.200
%
G90
G05
T1
X100.33Y-83.82
X100.33Y-90.17
X100.33Y-96.52
X100.33Y-102.87
X100.33Y-109.22
X106.46Y-92.74
X106.46Y-100.64
X106.68Y-77.47
X106.68Y-115.57
X108.3Y-94.7
X108.3Y-98.4
X108.85Y-106.85
X108.9Y-105.6
X109.4Y-82.2
X110.9Y-96.5
X113.03Y-77.47
X113.4Y-102.2
X113.4Y-104.8
X113.76Y-97.54
X114.36Y-96.974
X114.66Y-106.04
X114.9Y-98.7
X115.1Y-100.6
X115.6Y-98.0
X117.225Y-93.98
X117.9Y-109.2
X118.66Y-110.04
X119.303Y-101.167
X119.38Y-77.47
X119.38Y-91.825
X119.38Y-93.98
X119.38Y-96.135
X119.66Y-109.2
X119.87Y-99.25
X120.01Y-100.71
X120.798Y-99.322
X120.85Y-100.17
X121.46Y-88.54
X121.535Y-93.98
X122.026Y-87.94
X122.7Y-108.35
X122.794Y-89.906
X123.36Y-89.34
X123.85Y-108.8
X123.9Y-101.5
X124.26Y-85.44
X124.75Y-101.55
X124.8Y-95.8
X125.2Y-90.0
X125.4Y-96.4
X125.6Y-103.7
X125.6Y-104.9
X125.73Y-77.47
X125.73Y-115.57
X126.05Y-109.0
X126.2Y-94.3
X126.6Y-86.7
X126.8Y-94.9
X127.19Y-99.37
X127.24Y-100.44
X127.427Y-107.4
X127.463Y-101.78
X127.58Y-102.81
X128.06Y-99.91
X128.11Y-101.18
X132.08Y-77.47
X132.08Y-115.57
X132.9Y-79.0
X134.8Y-82.2
X135.9Y-97.6
X137.7Y-94.7
X138.266Y-94.134
X138.43Y-77.47
X138.66Y-102.14
X138.76Y-104.74
X139.0Y-98.6
X139.7Y-99.3
X141.55Y-97.25
X142.097Y-98.25
X142.2Y-106.8
X142.625Y-93.98
X143.8Y-104.223
X144.78Y-77.47
X144.78Y-91.825
X144.78Y-93.98
X144.78Y-96.135
X144.8Y-107.1
X146.6Y-100.45
X146.6Y-107.1
X146.935Y-93.98
X146.96Y-88.34
X147.56Y-87.74
X148.26Y-89.54
X148.7Y-96.7
X148.9Y-89.0
X149.1Y-102.7
X149.4Y-97.4
X149.6Y-98.85
X149.76Y-86.94
X149.898Y-102.753
X149.95Y-110.65
X150.3Y-99.55
X150.5Y-100.8
X150.66Y-90.84
X150.7Y-94.8
X150.7Y-103.5
X151.13Y-77.47
X151.13Y-115.57
X151.3Y-95.4
X151.5Y-102.682
X152.5Y-100.8
X152.56Y-85.74
X153.2Y-103.5
X153.8Y-102.7
X154.4Y-100.2
X157.48Y-77.47
X157.48Y-115.57
X166.8Y-94.3
X166.8Y-95.5
X166.8Y-99.3
X167.006Y-90.105
X189.23Y-83.82
X189.23Y-90.17
X189.23Y-96.52
X189.23Y-102.87
X189.23Y-109.22
T2
X106.68Y-85.09
X109.99Y-87.097
X110.99Y-87.11
X111.9Y-91.3
X163.8Y-93.3
X163.9Y-92.0
X164.0Y-102.0
X164.0Y-103.3
X164.2Y-97.3
X164.25Y-98.55
X167.9Y-102.0
X167.95Y-97.25
X168.0Y-92.0
X172.2Y-91.8
X172.25Y-101.95
X172.3Y-97.2
X187.8Y-90.0
T4
X154.94Y-83.82
X154.94Y-86.36
X154.94Y-106.68
X154.94Y-109.22
X157.48Y-83.82
X157.48Y-86.36
X157.48Y-106.68
X157.48Y-109.22
X160.02Y-83.82
X160.02Y-86.36
X160.02Y-106.68
X160.02Y-109.22
X162.56Y-83.82
X162.56Y-86.36
X162.56Y-106.68
X162.56Y-109.22
X165.1Y-83.82
X165.1Y-86.36
X165.1Y-106.68
X165.1Y-109.22
X167.64Y-83.82
X167.64Y-86.36
X167.64Y-106.68
X167.64Y-109.22
X170.18Y-83.82
X170.18Y-86.36
X170.18Y-106.68
X170.18Y-109.22
X172.72Y-83.82
X172.72Y-86.36
X172.72Y-106.68
X172.72Y-109.22
X175.26Y-83.82
X175.26Y-86.36
X175.26Y-106.68
X175.26Y-109.22
X177.8Y-83.82
X177.8Y-86.36
X177.8Y-106.68
X177.8Y-109.22
X180.34Y-83.82
X180.34Y-86.36
X180.34Y-106.68
X180.34Y-109.22
X182.88Y-83.82
X182.88Y-86.36
X182.88Y-106.68
X182.88Y-109.22
X185.42Y-83.82
X185.42Y-86.36
X185.42Y-106.68
X185.42Y-109.22
T5
X114.3Y-83.82
X114.3Y-111.76
X114.3Y-114.3
X116.84Y-83.82
X119.38Y-83.82
X119.38Y-111.76
X119.38Y-114.3
X121.92Y-83.82
X121.92Y-111.76
X121.92Y-114.3
X124.46Y-83.82
X130.759Y-87.122
X130.759Y-89.662
X130.759Y-92.202
X130.759Y-94.742
X130.759Y-97.282
X130.759Y-99.822
X130.759Y-102.362
X130.759Y-104.902
X133.299Y-87.122
X133.299Y-89.662
X133.299Y-92.202
X133.299Y-94.742
X133.299Y-97.282
X133.299Y-99.822
X133.299Y-102.362
X133.299Y-104.902
X139.7Y-83.82
X139.7Y-111.76
X139.7Y-114.3
X142.24Y-83.82
X144.78Y-83.82
X144.78Y-111.76
X144.78Y-114.3
X147.32Y-83.82
X147.32Y-111.76
X147.32Y-114.3
X149.86Y-83.82
X162.56Y-78.105
X162.56Y-114.935
X165.1Y-78.105
X165.1Y-114.935
X167.64Y-78.105
X167.64Y-114.935
X170.18Y-78.105
X170.18Y-114.935
X172.72Y-78.105
X172.72Y-114.935
X175.26Y-78.105
X175.26Y-114.935
X177.8Y-78.105
X177.8Y-114.935
X180.34Y-78.105
X180.34Y-114.935
T6
X102.108Y-79.248
X102.108Y-113.792
X187.452Y-79.248
X187.452Y-113.792
T3
X100.51Y-92.2G85X99.91Y-92.2
G05
X100.51Y-100.84G85X99.91Y-100.84
G05
X104.94Y-92.2G85X103.84Y-92.2
G05
X104.94Y-100.84G85X103.84Y-100.84
G05
T0
M30
