G04 #@! TF.GenerationSoftware,KiCad,Pcbnew,(5.1.10)-1*
G04 #@! TF.CreationDate,2021-10-21T22:48:54+02:00*
G04 #@! TF.ProjectId,mta1_usb_dev,6d746131-5f75-4736-925f-6465762e6b69,rev?*
G04 #@! TF.SameCoordinates,Original*
G04 #@! TF.FileFunction,Copper,L3,Inr*
G04 #@! TF.FilePolarity,Positive*
%FSLAX46Y46*%
G04 Gerber Fmt 4.6, Leading zero omitted, Abs format (unit mm)*
G04 Created by KiCad (PCBNEW (5.1.10)-1) date 2021-10-21 22:48:54*
%MOMM*%
%LPD*%
G01*
G04 APERTURE LIST*
G04 #@! TA.AperFunction,ComponentPad*
%ADD10C,1.524000*%
G04 #@! TD*
G04 #@! TA.AperFunction,ComponentPad*
%ADD11R,1.524000X1.524000*%
G04 #@! TD*
G04 #@! TA.AperFunction,ComponentPad*
%ADD12C,0.600000*%
G04 #@! TD*
G04 #@! TA.AperFunction,ComponentPad*
%ADD13C,3.600000*%
G04 #@! TD*
G04 #@! TA.AperFunction,ComponentPad*
%ADD14O,1.700000X1.700000*%
G04 #@! TD*
G04 #@! TA.AperFunction,ComponentPad*
%ADD15R,1.700000X1.700000*%
G04 #@! TD*
G04 #@! TA.AperFunction,ComponentPad*
%ADD16O,2.100000X1.000000*%
G04 #@! TD*
G04 #@! TA.AperFunction,ComponentPad*
%ADD17O,1.600000X1.000000*%
G04 #@! TD*
G04 #@! TA.AperFunction,ViaPad*
%ADD18C,0.600000*%
G04 #@! TD*
G04 #@! TA.AperFunction,ViaPad*
%ADD19C,0.800000*%
G04 #@! TD*
G04 #@! TA.AperFunction,Conductor*
%ADD20C,0.600000*%
G04 #@! TD*
G04 #@! TA.AperFunction,Conductor*
%ADD21C,1.000000*%
G04 #@! TD*
G04 #@! TA.AperFunction,Conductor*
%ADD22C,0.200000*%
G04 #@! TD*
G04 #@! TA.AperFunction,Conductor*
%ADD23C,0.250000*%
G04 #@! TD*
G04 #@! TA.AperFunction,Conductor*
%ADD24C,0.254000*%
G04 #@! TD*
G04 #@! TA.AperFunction,Conductor*
%ADD25C,0.100000*%
G04 #@! TD*
G04 APERTURE END LIST*
D10*
X185420000Y-86360000D03*
D11*
X185420000Y-83820000D03*
D10*
X154940000Y-109220000D03*
X154940000Y-106680000D03*
X157480000Y-109220000D03*
X157480000Y-106680000D03*
X160020000Y-109220000D03*
X160020000Y-106680000D03*
X162560000Y-109220000D03*
X162560000Y-106680000D03*
X165100000Y-109220000D03*
X165100000Y-106680000D03*
X167640000Y-109220000D03*
X167640000Y-106680000D03*
X170180000Y-109220000D03*
X170180000Y-106680000D03*
X172720000Y-109220000D03*
X172720000Y-106680000D03*
X175260000Y-109220000D03*
X175260000Y-106680000D03*
X177800000Y-109220000D03*
X177800000Y-106680000D03*
X180340000Y-109220000D03*
X180340000Y-106680000D03*
X182880000Y-109220000D03*
X182880000Y-106680000D03*
X185420000Y-109220000D03*
D11*
X185420000Y-106680000D03*
D10*
X154940000Y-86360000D03*
X154940000Y-83820000D03*
X157480000Y-86360000D03*
X157480000Y-83820000D03*
X160020000Y-86360000D03*
X160020000Y-83820000D03*
X162560000Y-86360000D03*
X162560000Y-83820000D03*
X165100000Y-86360000D03*
X165100000Y-83820000D03*
X167640000Y-86360000D03*
X167640000Y-83820000D03*
X170180000Y-86360000D03*
X170180000Y-83820000D03*
X172720000Y-86360000D03*
X172720000Y-83820000D03*
X175260000Y-86360000D03*
X175260000Y-83820000D03*
X177800000Y-86360000D03*
X177800000Y-83820000D03*
X180340000Y-86360000D03*
X180340000Y-83820000D03*
X182880000Y-86360000D03*
X182880000Y-83820000D03*
D12*
X119380000Y-93980000D03*
X119380000Y-91824739D03*
X121535261Y-93980000D03*
X119380000Y-96135261D03*
X117224739Y-93980000D03*
X144780000Y-93980000D03*
X144780000Y-91824739D03*
X146935261Y-93980000D03*
X144780000Y-96135261D03*
X142624739Y-93980000D03*
D13*
X187452000Y-113792000D03*
X102108000Y-113792000D03*
X102108000Y-79248000D03*
X187452000Y-79248000D03*
D14*
X121920000Y-114300000D03*
X119380000Y-114300000D03*
X121920000Y-111760000D03*
D15*
X119380000Y-111760000D03*
D16*
X104390000Y-100840000D03*
X104390000Y-92200000D03*
D17*
X100210000Y-92200000D03*
X100210000Y-100840000D03*
D14*
X149860000Y-83820000D03*
X147320000Y-83820000D03*
X144780000Y-83820000D03*
X142240000Y-83820000D03*
D15*
X139700000Y-83820000D03*
D14*
X133299200Y-104902000D03*
X130759200Y-104902000D03*
X133299200Y-102362000D03*
X130759200Y-102362000D03*
X133299200Y-99822000D03*
X130759200Y-99822000D03*
X133299200Y-97282000D03*
X130759200Y-97282000D03*
X133299200Y-94742000D03*
X130759200Y-94742000D03*
X133299200Y-92202000D03*
X130759200Y-92202000D03*
X133299200Y-89662000D03*
X130759200Y-89662000D03*
X133299200Y-87122000D03*
D15*
X130759200Y-87122000D03*
D14*
X114300000Y-114300000D03*
D15*
X114300000Y-111760000D03*
D14*
X180340000Y-114935000D03*
X177800000Y-114935000D03*
X175260000Y-114935000D03*
X172720000Y-114935000D03*
X170180000Y-114935000D03*
X167640000Y-114935000D03*
X165100000Y-114935000D03*
D15*
X162560000Y-114935000D03*
D14*
X162560000Y-78105000D03*
X165100000Y-78105000D03*
X167640000Y-78105000D03*
X170180000Y-78105000D03*
X172720000Y-78105000D03*
X175260000Y-78105000D03*
X177800000Y-78105000D03*
D15*
X180340000Y-78105000D03*
D14*
X147320000Y-114300000D03*
X144780000Y-114300000D03*
X147320000Y-111760000D03*
D15*
X144780000Y-111760000D03*
D14*
X139700000Y-114300000D03*
D15*
X139700000Y-111760000D03*
D14*
X124460000Y-83820000D03*
X121920000Y-83820000D03*
X119380000Y-83820000D03*
X116840000Y-83820000D03*
D15*
X114300000Y-83820000D03*
D18*
X127580000Y-102810000D03*
X100330000Y-96520000D03*
X100330000Y-83820000D03*
X100330000Y-90170000D03*
X100330000Y-102870000D03*
X100330000Y-109220000D03*
X113030000Y-77470000D03*
X125730000Y-77470000D03*
X119380000Y-77470000D03*
X144780000Y-77470000D03*
X151130000Y-77470000D03*
X138430000Y-77470000D03*
X132080000Y-77470000D03*
X157480000Y-77470000D03*
X151130000Y-115570000D03*
X157480000Y-115570000D03*
X132080000Y-115570000D03*
X125730000Y-115570000D03*
X106680000Y-115570000D03*
X189230000Y-96520000D03*
X189230000Y-83820000D03*
X189230000Y-90170000D03*
X189230000Y-102870000D03*
X189230000Y-109220000D03*
X106680000Y-77470000D03*
X147560000Y-87740000D03*
X148900000Y-89000000D03*
X150660000Y-90840000D03*
X149760000Y-86940000D03*
X122025686Y-87940000D03*
X123360000Y-89340000D03*
X113760000Y-97540000D03*
X114900000Y-98700000D03*
X110900000Y-96500000D03*
X108300000Y-94700000D03*
X108300000Y-98400000D03*
X124750000Y-101550000D03*
X125200000Y-90000000D03*
X125400000Y-96400000D03*
X126800000Y-94900000D03*
X139000000Y-98600000D03*
D19*
X110990000Y-87110000D03*
X111900000Y-91300000D03*
D18*
X151300000Y-95400000D03*
X106460000Y-100640000D03*
X106460000Y-92740000D03*
X108900000Y-105600000D03*
X149898230Y-102753215D03*
D19*
X172200000Y-91800000D03*
X168000000Y-92000000D03*
X167900000Y-102000000D03*
X172250000Y-101950000D03*
X164000000Y-102000000D03*
X163900000Y-92000000D03*
X167950000Y-97250000D03*
X172300000Y-97200000D03*
X164200000Y-97300000D03*
D18*
X126600000Y-86700000D03*
X149400000Y-97400000D03*
X137700000Y-94700000D03*
X142200000Y-106800000D03*
X132900000Y-79000000D03*
X114660000Y-106040000D03*
X146960000Y-88340000D03*
X138660000Y-102140000D03*
X138760000Y-104740000D03*
X121460000Y-88540000D03*
X114360000Y-96974313D03*
X115100000Y-100600000D03*
X113400000Y-102200000D03*
X123900000Y-101500000D03*
X125600000Y-103700000D03*
X125600000Y-104900000D03*
X124800000Y-95800000D03*
D19*
X109990078Y-87097343D03*
D18*
X134800000Y-82200000D03*
X109400000Y-82200000D03*
X139700000Y-99300000D03*
X148700000Y-96700000D03*
X150700000Y-103500000D03*
X149100000Y-102700000D03*
D19*
X164250000Y-98550000D03*
D18*
X138265687Y-94134313D03*
X113400000Y-104800000D03*
X126200000Y-94300000D03*
X150700000Y-94800000D03*
X108850000Y-106850000D03*
D19*
X164000000Y-103300000D03*
D18*
X148260000Y-89540000D03*
X152560000Y-85740000D03*
X122794313Y-89905687D03*
X115600000Y-98000000D03*
D19*
X163800000Y-93300000D03*
D18*
X124260001Y-85439999D03*
X135900000Y-97600000D03*
X118660000Y-110040008D03*
X149950000Y-110650000D03*
X119660000Y-109200000D03*
X123850000Y-108800000D03*
X141550000Y-97250000D03*
X150300000Y-99550000D03*
X142096553Y-98250000D03*
X149600000Y-98850000D03*
X146600000Y-100450000D03*
X154400000Y-100200000D03*
X166800000Y-94300000D03*
X167005867Y-90105458D03*
X166800000Y-95500000D03*
X166800000Y-99300000D03*
D19*
X106680000Y-85090000D03*
X187800000Y-90000000D03*
D18*
X119303329Y-101166975D03*
X127463474Y-101780000D03*
X120010000Y-100710000D03*
X128110000Y-101180000D03*
X120849990Y-100170000D03*
X127240000Y-100440000D03*
X128060000Y-99910000D03*
X119870000Y-99250000D03*
X127190000Y-99370000D03*
X120797771Y-99322229D03*
X127427013Y-107399999D03*
X122700000Y-108350000D03*
X117900000Y-109200000D03*
X126050000Y-109000000D03*
X150500000Y-100800000D03*
X152500000Y-100800000D03*
X146600000Y-107100000D03*
X144800000Y-107100000D03*
X153800000Y-102700000D03*
X151500000Y-102682103D03*
X143799999Y-104223015D03*
X153200000Y-103500000D03*
D20*
X125900001Y-94599999D02*
X125900001Y-95300001D01*
X126200000Y-94300000D02*
X125900001Y-94599999D01*
D21*
X164000000Y-103300000D02*
X162760008Y-104539992D01*
X159011376Y-104539992D02*
X159011374Y-104539990D01*
X162760008Y-104539992D02*
X159011376Y-104539992D01*
X156660010Y-104539990D02*
X156660010Y-98260010D01*
X159011374Y-104539990D02*
X156660010Y-104539990D01*
X152799999Y-94399999D02*
X150819999Y-94399999D01*
X150819999Y-94399999D02*
X150559999Y-94659999D01*
X156660010Y-98260010D02*
X152799999Y-94399999D01*
X152996370Y-105223016D02*
X150123016Y-105223016D01*
X153679396Y-104539990D02*
X152996370Y-105223016D01*
X150123016Y-105223016D02*
X151876984Y-105223016D01*
X109040001Y-107040001D02*
X108850000Y-106850000D01*
X117300001Y-106399999D02*
X116659999Y-107040001D01*
X127782003Y-106452001D02*
X127730001Y-106399999D01*
X116659999Y-107040001D02*
X109040001Y-107040001D01*
X141196982Y-105223016D02*
X139967997Y-106452001D01*
X127730001Y-106399999D02*
X117300001Y-106399999D01*
X150123016Y-105223016D02*
X141196982Y-105223016D01*
X128452001Y-106452001D02*
X127782003Y-106452001D01*
X156660010Y-104539990D02*
X153679396Y-104539990D01*
X129209199Y-106219199D02*
X129442001Y-106452001D01*
X129209199Y-98789199D02*
X129209199Y-106219199D01*
X125799999Y-95380001D02*
X129209199Y-98789199D01*
X125799999Y-95300001D02*
X125799999Y-95380001D01*
X129442001Y-106452001D02*
X128452001Y-106452001D01*
X139967997Y-106452001D02*
X129442001Y-106452001D01*
D20*
X148375999Y-88239999D02*
X147900000Y-88715998D01*
X148460001Y-88239999D02*
X148375999Y-88239999D01*
X147959999Y-89424001D02*
X148167999Y-89632001D01*
X147959999Y-88959999D02*
X147959999Y-89424001D01*
X147900000Y-88900000D02*
X147959999Y-88959999D01*
X147900000Y-88715998D02*
X147900000Y-88900000D01*
X124200000Y-85500000D02*
X124260001Y-85439999D01*
X122559999Y-89671373D02*
X122794313Y-89905687D01*
X122559999Y-88955999D02*
X122559999Y-89671373D01*
X123139999Y-88375999D02*
X122559999Y-88955999D01*
X159500000Y-93300000D02*
X160300000Y-93300000D01*
X160300000Y-93300000D02*
X159695736Y-93300000D01*
X163800000Y-93300000D02*
X160300000Y-93300000D01*
X148460001Y-88239999D02*
X148460001Y-85840001D01*
D21*
X152560000Y-86360000D02*
X152560000Y-85740000D01*
X159500000Y-93300000D02*
X163800000Y-93300000D01*
X153700000Y-87500000D02*
X159500000Y-93300000D01*
X153700000Y-87500000D02*
X152560000Y-86360000D01*
X152560000Y-85740000D02*
X152260001Y-85440001D01*
X135959999Y-85440001D02*
X124260003Y-85440001D01*
X152260001Y-85440001D02*
X135959999Y-85440001D01*
X124260001Y-85439999D02*
X124260003Y-85440001D01*
X115600000Y-97919998D02*
X115640001Y-97959999D01*
X115600000Y-92919998D02*
X115600000Y-97919998D01*
X124260001Y-85439999D02*
X123079999Y-85439999D01*
D20*
X122129687Y-86859999D02*
X121659999Y-86859999D01*
X123139999Y-87870311D02*
X122129687Y-86859999D01*
X123139999Y-88375999D02*
X123139999Y-87870311D01*
D21*
X121659999Y-86859999D02*
X115600000Y-92919998D01*
X123079999Y-85439999D02*
X121659999Y-86859999D01*
X135900000Y-85500000D02*
X135959999Y-85440001D01*
X135900000Y-97600000D02*
X135900000Y-85500000D01*
D22*
X149759999Y-110459999D02*
X149950000Y-110650000D01*
X149950000Y-110650000D02*
X149340001Y-110040001D01*
X149209999Y-110040001D02*
X118660000Y-110040008D01*
X149340001Y-110040001D02*
X149209999Y-110040001D01*
X158635881Y-108664119D02*
X159200000Y-108100000D01*
X159200000Y-108100000D02*
X163414301Y-108100000D01*
X158635881Y-109635881D02*
X158635881Y-108664119D01*
X164534301Y-109220000D02*
X165100000Y-109220000D01*
X157589751Y-110682011D02*
X158635881Y-109635881D01*
X154264551Y-110682011D02*
X157589751Y-110682011D01*
X163414301Y-108100000D02*
X164534301Y-109220000D01*
X153222539Y-109639999D02*
X154264551Y-110682011D01*
X120099999Y-109639999D02*
X153222539Y-109639999D01*
X119660000Y-109200000D02*
X120099999Y-109639999D01*
X126338001Y-108399999D02*
X124250001Y-108399999D01*
X126537992Y-108599990D02*
X126338001Y-108399999D01*
X154319990Y-108599990D02*
X126537992Y-108599990D01*
X154940000Y-109220000D02*
X154319990Y-108599990D01*
X124250001Y-108399999D02*
X123850000Y-108800000D01*
X141496552Y-97303448D02*
X141550000Y-97250000D01*
X141496552Y-98538001D02*
X141496552Y-97303448D01*
X142508551Y-99550000D02*
X141496552Y-98538001D01*
X150300000Y-99550000D02*
X142508551Y-99550000D01*
X149600000Y-98850000D02*
X142696553Y-98850000D01*
X142696553Y-98850000D02*
X142096553Y-98250000D01*
X146850000Y-100200000D02*
X146600000Y-100450000D01*
X154400000Y-100200000D02*
X146850000Y-100200000D01*
X167005867Y-94094133D02*
X166800000Y-94300000D01*
X167005867Y-90105458D02*
X167005867Y-94094133D01*
X166800000Y-95500000D02*
X166800000Y-99300000D01*
D20*
X185420000Y-83820000D02*
X180340000Y-83820000D01*
X180340000Y-83820000D02*
X178770000Y-82250000D01*
X174290000Y-82250000D02*
X172720000Y-83820000D01*
X178770000Y-82250000D02*
X174290000Y-82250000D01*
X160020000Y-83820000D02*
X161590000Y-82250000D01*
X171150000Y-82250000D02*
X172720000Y-83820000D01*
X161590000Y-82250000D02*
X171150000Y-82250000D01*
X160020000Y-109220000D02*
X161950000Y-111150000D01*
X170790000Y-111150000D02*
X172720000Y-109220000D01*
X161950000Y-111150000D02*
X170790000Y-111150000D01*
X186690000Y-85090000D02*
X185420000Y-83820000D01*
X186690000Y-104140000D02*
X186690000Y-85090000D01*
X187200000Y-104650000D02*
X186690000Y-104140000D01*
X186100000Y-110900000D02*
X187200000Y-109800000D01*
X187200000Y-109800000D02*
X187200000Y-104650000D01*
X174400000Y-110900000D02*
X186100000Y-110900000D01*
X172720000Y-109220000D02*
X174400000Y-110900000D01*
D21*
X106680000Y-83330000D02*
X106680000Y-85090000D01*
X108870000Y-81140000D02*
X106680000Y-83330000D01*
X187800000Y-83296002D02*
X187800000Y-86000000D01*
X185643998Y-81140000D02*
X187800000Y-83296002D01*
X184940000Y-81140000D02*
X185643998Y-81140000D01*
X187800000Y-86000000D02*
X187800000Y-83875998D01*
X187800000Y-90000000D02*
X187800000Y-86000000D01*
X185524002Y-81140000D02*
X184940000Y-81140000D01*
X184940000Y-81140000D02*
X108870000Y-81140000D01*
D22*
X119603328Y-101466974D02*
X121198725Y-101466974D01*
X119303329Y-101166975D02*
X119603328Y-101466974D01*
X121198725Y-101466974D02*
X122015689Y-100650010D01*
X122015689Y-100650010D02*
X125996310Y-100650010D01*
X127126300Y-101780000D02*
X126303150Y-100956850D01*
X127463474Y-101780000D02*
X127126300Y-101780000D01*
X126303150Y-100956850D02*
X126639999Y-101293699D01*
X125996310Y-100650010D02*
X126303150Y-100956850D01*
X120309999Y-101009999D02*
X121090001Y-101009999D01*
X120010000Y-100710000D02*
X120309999Y-101009999D01*
X121090001Y-101009999D02*
X121850000Y-100250000D01*
X121850000Y-100250000D02*
X126161998Y-100250000D01*
X127091998Y-101180000D02*
X126360999Y-100449001D01*
X128110000Y-101180000D02*
X127091998Y-101180000D01*
X126161998Y-100250000D02*
X126360999Y-100449001D01*
X120849990Y-100170000D02*
X121285763Y-99734227D01*
X121285773Y-99734227D02*
X121297761Y-99722239D01*
X121285763Y-99734227D02*
X121285773Y-99734227D01*
X126522239Y-99722239D02*
X127240000Y-100440000D01*
X121297761Y-99722239D02*
X126522239Y-99722239D01*
X128060000Y-99910000D02*
X128060000Y-99230000D01*
X120397772Y-98722228D02*
X119870000Y-99250000D01*
X127552228Y-98722228D02*
X120397772Y-98722228D01*
X128060000Y-99230000D02*
X127552228Y-98722228D01*
X127142229Y-99322229D02*
X127190000Y-99370000D01*
X120797771Y-99322229D02*
X127142229Y-99322229D01*
X127826984Y-107799970D02*
X127427013Y-107399999D01*
X152200030Y-107799970D02*
X127826984Y-107799970D01*
X154382001Y-105617999D02*
X152200030Y-107799970D01*
X158957999Y-105617999D02*
X154382001Y-105617999D01*
X160020000Y-106680000D02*
X158957999Y-105617999D01*
X118750000Y-108350000D02*
X117900000Y-109200000D01*
X122700000Y-108350000D02*
X118750000Y-108350000D01*
X153420020Y-108199980D02*
X154940000Y-106680000D01*
X126703681Y-108199980D02*
X153420020Y-108199980D01*
X126503690Y-107999989D02*
X126703681Y-108199980D01*
X123050011Y-107999989D02*
X126503690Y-107999989D01*
X122700000Y-108350000D02*
X123050011Y-107999989D01*
X157480000Y-109220000D02*
X156500000Y-110200000D01*
X156500000Y-110200000D02*
X156417999Y-110282001D01*
X156417999Y-110282001D02*
X157480000Y-109220000D01*
X156017999Y-110282001D02*
X156417999Y-110282001D01*
X156317999Y-110282001D02*
X156017999Y-110282001D01*
X154967999Y-110282001D02*
X156017999Y-110282001D01*
X154430239Y-110282001D02*
X154967999Y-110282001D01*
X153148238Y-109000000D02*
X154430239Y-110282001D01*
X126050000Y-109000000D02*
X153148238Y-109000000D01*
X152500000Y-100800000D02*
X151600000Y-100800000D01*
X151600000Y-100800000D02*
X150500000Y-100800000D01*
X144800000Y-107100000D02*
X146600000Y-107100000D01*
X153782103Y-102682103D02*
X153800000Y-102700000D01*
X151500000Y-102682103D02*
X153782103Y-102682103D01*
D23*
X152476985Y-104223015D02*
X153200000Y-103500000D01*
X151306985Y-104223015D02*
X152476985Y-104223015D01*
D22*
X151306985Y-104223015D02*
X143799999Y-104223015D01*
D24*
X160188748Y-82688173D02*
X160132576Y-82677000D01*
X159907424Y-82677000D01*
X159686599Y-82720925D01*
X159478587Y-82807087D01*
X159291380Y-82932174D01*
X159132174Y-83091380D01*
X159007087Y-83278587D01*
X158920925Y-83486599D01*
X158877000Y-83707424D01*
X158877000Y-83932576D01*
X158920925Y-84153401D01*
X159007087Y-84361413D01*
X159132174Y-84548620D01*
X159291380Y-84707826D01*
X159478587Y-84832913D01*
X159686599Y-84919075D01*
X159907424Y-84963000D01*
X160132576Y-84963000D01*
X160353401Y-84919075D01*
X160561413Y-84832913D01*
X160748620Y-84707826D01*
X160907826Y-84548620D01*
X161032913Y-84361413D01*
X161119075Y-84153401D01*
X161163000Y-83932576D01*
X161163000Y-83707424D01*
X161151827Y-83651252D01*
X161592584Y-83210495D01*
X161547087Y-83278587D01*
X161460925Y-83486599D01*
X161417000Y-83707424D01*
X161417000Y-83932576D01*
X161460925Y-84153401D01*
X161547087Y-84361413D01*
X161672174Y-84548620D01*
X161831380Y-84707826D01*
X162018587Y-84832913D01*
X162226599Y-84919075D01*
X162447424Y-84963000D01*
X162672576Y-84963000D01*
X162893401Y-84919075D01*
X163101413Y-84832913D01*
X163288620Y-84707826D01*
X163447826Y-84548620D01*
X163572913Y-84361413D01*
X163659075Y-84153401D01*
X163703000Y-83932576D01*
X163703000Y-83707424D01*
X163659075Y-83486599D01*
X163572913Y-83278587D01*
X163447826Y-83091380D01*
X163288620Y-82932174D01*
X163286863Y-82931000D01*
X164373137Y-82931000D01*
X164371380Y-82932174D01*
X164212174Y-83091380D01*
X164087087Y-83278587D01*
X164000925Y-83486599D01*
X163957000Y-83707424D01*
X163957000Y-83932576D01*
X164000925Y-84153401D01*
X164087087Y-84361413D01*
X164212174Y-84548620D01*
X164371380Y-84707826D01*
X164558587Y-84832913D01*
X164766599Y-84919075D01*
X164987424Y-84963000D01*
X165212576Y-84963000D01*
X165433401Y-84919075D01*
X165641413Y-84832913D01*
X165828620Y-84707826D01*
X165987826Y-84548620D01*
X166112913Y-84361413D01*
X166199075Y-84153401D01*
X166243000Y-83932576D01*
X166243000Y-83707424D01*
X166199075Y-83486599D01*
X166112913Y-83278587D01*
X165987826Y-83091380D01*
X165828620Y-82932174D01*
X165826863Y-82931000D01*
X166373000Y-82931000D01*
X166373000Y-89853797D01*
X166351038Y-89906818D01*
X166324867Y-90038385D01*
X166324867Y-90172531D01*
X166351038Y-90304098D01*
X166373000Y-90357119D01*
X166373000Y-93766281D01*
X166365888Y-93771033D01*
X166271033Y-93865888D01*
X166196506Y-93977426D01*
X166145171Y-94101360D01*
X166119000Y-94232927D01*
X166119000Y-94367073D01*
X166145171Y-94498640D01*
X166196506Y-94622574D01*
X166271033Y-94734112D01*
X166365888Y-94828967D01*
X166373000Y-94833719D01*
X166373000Y-94966281D01*
X166365888Y-94971033D01*
X166271033Y-95065888D01*
X166196506Y-95177426D01*
X166145171Y-95301360D01*
X166119000Y-95432927D01*
X166119000Y-95567073D01*
X166145171Y-95698640D01*
X166196506Y-95822574D01*
X166271033Y-95934112D01*
X166319000Y-95982079D01*
X166319001Y-98817920D01*
X166271033Y-98865888D01*
X166196506Y-98977426D01*
X166145171Y-99101360D01*
X166119000Y-99232927D01*
X166119000Y-99367073D01*
X166145171Y-99498640D01*
X166196506Y-99622574D01*
X166271033Y-99734112D01*
X166365888Y-99828967D01*
X166373000Y-99833719D01*
X166373000Y-106572956D01*
X166243000Y-106572911D01*
X166243000Y-106567424D01*
X166199075Y-106346599D01*
X166112913Y-106138587D01*
X165987826Y-105951380D01*
X165828620Y-105792174D01*
X165641413Y-105667087D01*
X165433401Y-105580925D01*
X165212576Y-105537000D01*
X164987424Y-105537000D01*
X164766599Y-105580925D01*
X164558587Y-105667087D01*
X164371380Y-105792174D01*
X164212174Y-105951380D01*
X164087087Y-106138587D01*
X164000925Y-106346599D01*
X163957000Y-106567424D01*
X163957000Y-106572112D01*
X163703000Y-106572024D01*
X163703000Y-106567424D01*
X163659075Y-106346599D01*
X163572913Y-106138587D01*
X163447826Y-105951380D01*
X163288620Y-105792174D01*
X163101413Y-105667087D01*
X162893401Y-105580925D01*
X162672576Y-105537000D01*
X162447424Y-105537000D01*
X162226599Y-105580925D01*
X162018587Y-105667087D01*
X161831380Y-105792174D01*
X161672174Y-105951380D01*
X161547087Y-106138587D01*
X161460925Y-106346599D01*
X161417000Y-106567424D01*
X161417000Y-106571225D01*
X161163000Y-106571137D01*
X161163000Y-106567424D01*
X161119075Y-106346599D01*
X161032913Y-106138587D01*
X160907826Y-105951380D01*
X160748620Y-105792174D01*
X160561413Y-105667087D01*
X160353401Y-105580925D01*
X160132576Y-105537000D01*
X159907424Y-105537000D01*
X159686599Y-105580925D01*
X159626186Y-105605949D01*
X159441228Y-105420992D01*
X162716738Y-105420992D01*
X162760008Y-105425254D01*
X162803278Y-105420992D01*
X162803281Y-105420992D01*
X162932714Y-105408244D01*
X163098783Y-105357867D01*
X163251833Y-105276060D01*
X163385983Y-105165967D01*
X163413573Y-105132348D01*
X164653560Y-103892363D01*
X164736068Y-103791825D01*
X164817875Y-103638775D01*
X164868251Y-103472706D01*
X164885262Y-103300000D01*
X164868251Y-103127294D01*
X164817875Y-102961225D01*
X164736068Y-102808175D01*
X164625975Y-102674025D01*
X164518598Y-102585903D01*
X164606642Y-102497859D01*
X164692113Y-102369942D01*
X164750987Y-102227809D01*
X164781000Y-102076922D01*
X164781000Y-101923078D01*
X164750987Y-101772191D01*
X164692113Y-101630058D01*
X164606642Y-101502141D01*
X164497859Y-101393358D01*
X164369942Y-101307887D01*
X164227809Y-101249013D01*
X164076922Y-101219000D01*
X163923078Y-101219000D01*
X163772191Y-101249013D01*
X163630058Y-101307887D01*
X163502141Y-101393358D01*
X163393358Y-101502141D01*
X163307887Y-101630058D01*
X163249013Y-101772191D01*
X163219000Y-101923078D01*
X163219000Y-102076922D01*
X163249013Y-102227809D01*
X163307887Y-102369942D01*
X163393358Y-102497859D01*
X163481402Y-102585903D01*
X163407637Y-102646440D01*
X162395087Y-103658992D01*
X159054667Y-103658992D01*
X159054647Y-103658990D01*
X159054644Y-103658990D01*
X159011374Y-103654728D01*
X158968104Y-103658990D01*
X157541010Y-103658990D01*
X157541010Y-98303280D01*
X157545272Y-98260010D01*
X157541010Y-98216737D01*
X157528262Y-98087304D01*
X157477885Y-97921235D01*
X157414936Y-97803465D01*
X157396078Y-97768184D01*
X157327082Y-97684112D01*
X157285985Y-97634035D01*
X157252371Y-97606449D01*
X156869000Y-97223078D01*
X163419000Y-97223078D01*
X163419000Y-97376922D01*
X163449013Y-97527809D01*
X163507887Y-97669942D01*
X163593358Y-97797859D01*
X163702141Y-97906642D01*
X163830058Y-97992113D01*
X163972191Y-98050987D01*
X164123078Y-98081000D01*
X164276922Y-98081000D01*
X164427809Y-98050987D01*
X164569942Y-97992113D01*
X164697859Y-97906642D01*
X164806642Y-97797859D01*
X164892113Y-97669942D01*
X164950987Y-97527809D01*
X164981000Y-97376922D01*
X164981000Y-97223078D01*
X164950987Y-97072191D01*
X164892113Y-96930058D01*
X164806642Y-96802141D01*
X164697859Y-96693358D01*
X164569942Y-96607887D01*
X164427809Y-96549013D01*
X164276922Y-96519000D01*
X164123078Y-96519000D01*
X163972191Y-96549013D01*
X163830058Y-96607887D01*
X163702141Y-96693358D01*
X163593358Y-96802141D01*
X163507887Y-96930058D01*
X163449013Y-97072191D01*
X163419000Y-97223078D01*
X156869000Y-97223078D01*
X153453565Y-93807644D01*
X153425974Y-93774024D01*
X153291824Y-93663931D01*
X153138774Y-93582124D01*
X152972705Y-93531747D01*
X152843272Y-93518999D01*
X152843269Y-93518999D01*
X152799999Y-93514737D01*
X152756729Y-93518999D01*
X150863269Y-93518999D01*
X150819999Y-93514737D01*
X150776729Y-93518999D01*
X150776726Y-93518999D01*
X150647293Y-93531747D01*
X150481224Y-93582124D01*
X150328174Y-93663931D01*
X150194024Y-93774024D01*
X150166437Y-93807639D01*
X149906440Y-94067637D01*
X149823931Y-94168174D01*
X149742124Y-94321225D01*
X149691748Y-94487294D01*
X149674737Y-94659999D01*
X149691748Y-94832704D01*
X149742124Y-94998773D01*
X149823931Y-95151824D01*
X149934025Y-95285973D01*
X150068174Y-95396067D01*
X150221225Y-95477874D01*
X150387294Y-95528250D01*
X150559999Y-95545261D01*
X150633120Y-95538059D01*
X150645171Y-95598640D01*
X150696506Y-95722574D01*
X150771033Y-95834112D01*
X150865888Y-95928967D01*
X150977426Y-96003494D01*
X151101360Y-96054829D01*
X151232927Y-96081000D01*
X151367073Y-96081000D01*
X151498640Y-96054829D01*
X151622574Y-96003494D01*
X151734112Y-95928967D01*
X151828967Y-95834112D01*
X151903494Y-95722574D01*
X151954829Y-95598640D01*
X151981000Y-95467073D01*
X151981000Y-95332927D01*
X151970671Y-95280999D01*
X152435078Y-95280999D01*
X155779011Y-98624933D01*
X155779010Y-103658990D01*
X153862716Y-103658990D01*
X153881000Y-103567073D01*
X153881000Y-103432927D01*
X153870534Y-103380312D01*
X153998640Y-103354829D01*
X154122574Y-103303494D01*
X154234112Y-103228967D01*
X154328967Y-103134112D01*
X154403494Y-103022574D01*
X154454829Y-102898640D01*
X154481000Y-102767073D01*
X154481000Y-102632927D01*
X154454829Y-102501360D01*
X154403494Y-102377426D01*
X154328967Y-102265888D01*
X154234112Y-102171033D01*
X154122574Y-102096506D01*
X153998640Y-102045171D01*
X153867073Y-102019000D01*
X153732927Y-102019000D01*
X153601360Y-102045171D01*
X153477426Y-102096506D01*
X153365888Y-102171033D01*
X153335818Y-102201103D01*
X151982079Y-102201103D01*
X151934112Y-102153136D01*
X151822574Y-102078609D01*
X151698640Y-102027274D01*
X151567073Y-102001103D01*
X151432927Y-102001103D01*
X151301360Y-102027274D01*
X151177426Y-102078609D01*
X151065888Y-102153136D01*
X150971033Y-102247991D01*
X150896506Y-102359529D01*
X150845171Y-102483463D01*
X150819000Y-102615030D01*
X150819000Y-102749176D01*
X150845171Y-102880743D01*
X150896506Y-103004677D01*
X150971033Y-103116215D01*
X151065888Y-103211070D01*
X151177426Y-103285597D01*
X151301360Y-103336932D01*
X151432927Y-103363103D01*
X151567073Y-103363103D01*
X151698640Y-103336932D01*
X151822574Y-103285597D01*
X151934112Y-103211070D01*
X151982079Y-103163103D01*
X152606076Y-103163103D01*
X152596506Y-103177426D01*
X152545171Y-103301360D01*
X152519000Y-103432927D01*
X152519000Y-103465408D01*
X152267394Y-103717015D01*
X151282131Y-103717015D01*
X151207792Y-103724337D01*
X151149514Y-103742015D01*
X144282078Y-103742015D01*
X144234111Y-103694048D01*
X144122573Y-103619521D01*
X143998639Y-103568186D01*
X143867072Y-103542015D01*
X143732926Y-103542015D01*
X143601359Y-103568186D01*
X143477425Y-103619521D01*
X143365887Y-103694048D01*
X143271032Y-103788903D01*
X143196505Y-103900441D01*
X143145170Y-104024375D01*
X143118999Y-104155942D01*
X143118999Y-104290088D01*
X143129328Y-104342016D01*
X141240251Y-104342016D01*
X141196981Y-104337754D01*
X141153711Y-104342016D01*
X141153709Y-104342016D01*
X141024276Y-104354764D01*
X140858207Y-104405141D01*
X140834917Y-104417590D01*
X140705156Y-104486948D01*
X140640522Y-104539992D01*
X140571007Y-104597041D01*
X140543422Y-104630654D01*
X139603076Y-105571001D01*
X134332699Y-105571001D01*
X134390098Y-105485097D01*
X134482893Y-105261069D01*
X134530200Y-105023243D01*
X134530200Y-104780757D01*
X134482893Y-104542931D01*
X134390098Y-104318903D01*
X134255380Y-104117283D01*
X134083917Y-103945820D01*
X133882297Y-103811102D01*
X133658269Y-103718307D01*
X133420443Y-103671000D01*
X133177957Y-103671000D01*
X132940131Y-103718307D01*
X132716103Y-103811102D01*
X132514483Y-103945820D01*
X132343020Y-104117283D01*
X132208302Y-104318903D01*
X132115507Y-104542931D01*
X132068200Y-104780757D01*
X132068200Y-105023243D01*
X132115507Y-105261069D01*
X132208302Y-105485097D01*
X132265701Y-105571001D01*
X131792699Y-105571001D01*
X131850098Y-105485097D01*
X131942893Y-105261069D01*
X131990200Y-105023243D01*
X131990200Y-104780757D01*
X131942893Y-104542931D01*
X131850098Y-104318903D01*
X131715380Y-104117283D01*
X131543917Y-103945820D01*
X131342297Y-103811102D01*
X131118269Y-103718307D01*
X130880443Y-103671000D01*
X130637957Y-103671000D01*
X130400131Y-103718307D01*
X130176103Y-103811102D01*
X130090199Y-103868501D01*
X130090199Y-103395499D01*
X130176103Y-103452898D01*
X130400131Y-103545693D01*
X130637957Y-103593000D01*
X130880443Y-103593000D01*
X131118269Y-103545693D01*
X131342297Y-103452898D01*
X131543917Y-103318180D01*
X131715380Y-103146717D01*
X131850098Y-102945097D01*
X131942893Y-102721069D01*
X131990200Y-102483243D01*
X131990200Y-102240757D01*
X132068200Y-102240757D01*
X132068200Y-102483243D01*
X132115507Y-102721069D01*
X132208302Y-102945097D01*
X132343020Y-103146717D01*
X132514483Y-103318180D01*
X132716103Y-103452898D01*
X132940131Y-103545693D01*
X133177957Y-103593000D01*
X133420443Y-103593000D01*
X133658269Y-103545693D01*
X133882297Y-103452898D01*
X134083917Y-103318180D01*
X134255380Y-103146717D01*
X134390098Y-102945097D01*
X134482893Y-102721069D01*
X134489840Y-102686142D01*
X149217230Y-102686142D01*
X149217230Y-102820288D01*
X149243401Y-102951855D01*
X149294736Y-103075789D01*
X149369263Y-103187327D01*
X149464118Y-103282182D01*
X149575656Y-103356709D01*
X149699590Y-103408044D01*
X149831157Y-103434215D01*
X149965303Y-103434215D01*
X150096870Y-103408044D01*
X150220804Y-103356709D01*
X150332342Y-103282182D01*
X150427197Y-103187327D01*
X150501724Y-103075789D01*
X150553059Y-102951855D01*
X150579230Y-102820288D01*
X150579230Y-102686142D01*
X150553059Y-102554575D01*
X150501724Y-102430641D01*
X150427197Y-102319103D01*
X150332342Y-102224248D01*
X150220804Y-102149721D01*
X150096870Y-102098386D01*
X149965303Y-102072215D01*
X149831157Y-102072215D01*
X149699590Y-102098386D01*
X149575656Y-102149721D01*
X149464118Y-102224248D01*
X149369263Y-102319103D01*
X149294736Y-102430641D01*
X149243401Y-102554575D01*
X149217230Y-102686142D01*
X134489840Y-102686142D01*
X134530200Y-102483243D01*
X134530200Y-102240757D01*
X134482893Y-102002931D01*
X134390098Y-101778903D01*
X134255380Y-101577283D01*
X134083917Y-101405820D01*
X133882297Y-101271102D01*
X133658269Y-101178307D01*
X133420443Y-101131000D01*
X133177957Y-101131000D01*
X132940131Y-101178307D01*
X132716103Y-101271102D01*
X132514483Y-101405820D01*
X132343020Y-101577283D01*
X132208302Y-101778903D01*
X132115507Y-102002931D01*
X132068200Y-102240757D01*
X131990200Y-102240757D01*
X131942893Y-102002931D01*
X131850098Y-101778903D01*
X131715380Y-101577283D01*
X131543917Y-101405820D01*
X131342297Y-101271102D01*
X131118269Y-101178307D01*
X130880443Y-101131000D01*
X130637957Y-101131000D01*
X130400131Y-101178307D01*
X130176103Y-101271102D01*
X130090199Y-101328501D01*
X130090199Y-100855499D01*
X130176103Y-100912898D01*
X130400131Y-101005693D01*
X130637957Y-101053000D01*
X130880443Y-101053000D01*
X131118269Y-101005693D01*
X131342297Y-100912898D01*
X131543917Y-100778180D01*
X131715380Y-100606717D01*
X131850098Y-100405097D01*
X131942893Y-100181069D01*
X131990200Y-99943243D01*
X131990200Y-99700757D01*
X132068200Y-99700757D01*
X132068200Y-99943243D01*
X132115507Y-100181069D01*
X132208302Y-100405097D01*
X132343020Y-100606717D01*
X132514483Y-100778180D01*
X132716103Y-100912898D01*
X132940131Y-101005693D01*
X133177957Y-101053000D01*
X133420443Y-101053000D01*
X133658269Y-101005693D01*
X133882297Y-100912898D01*
X134083917Y-100778180D01*
X134255380Y-100606717D01*
X134390098Y-100405097D01*
X134482893Y-100181069D01*
X134530200Y-99943243D01*
X134530200Y-99700757D01*
X134482893Y-99462931D01*
X134390098Y-99238903D01*
X134255380Y-99037283D01*
X134083917Y-98865820D01*
X133882297Y-98731102D01*
X133658269Y-98638307D01*
X133420443Y-98591000D01*
X133177957Y-98591000D01*
X132940131Y-98638307D01*
X132716103Y-98731102D01*
X132514483Y-98865820D01*
X132343020Y-99037283D01*
X132208302Y-99238903D01*
X132115507Y-99462931D01*
X132068200Y-99700757D01*
X131990200Y-99700757D01*
X131942893Y-99462931D01*
X131850098Y-99238903D01*
X131715380Y-99037283D01*
X131543917Y-98865820D01*
X131342297Y-98731102D01*
X131118269Y-98638307D01*
X130880443Y-98591000D01*
X130637957Y-98591000D01*
X130400131Y-98638307D01*
X130176103Y-98731102D01*
X130094133Y-98785872D01*
X130087170Y-98715171D01*
X130077451Y-98616493D01*
X130052102Y-98532927D01*
X138319000Y-98532927D01*
X138319000Y-98667073D01*
X138345171Y-98798640D01*
X138396506Y-98922574D01*
X138471033Y-99034112D01*
X138565888Y-99128967D01*
X138677426Y-99203494D01*
X138801360Y-99254829D01*
X138932927Y-99281000D01*
X139067073Y-99281000D01*
X139198640Y-99254829D01*
X139322574Y-99203494D01*
X139434112Y-99128967D01*
X139528967Y-99034112D01*
X139603494Y-98922574D01*
X139654829Y-98798640D01*
X139681000Y-98667073D01*
X139681000Y-98532927D01*
X139654829Y-98401360D01*
X139603494Y-98277426D01*
X139528967Y-98165888D01*
X139434112Y-98071033D01*
X139322574Y-97996506D01*
X139198640Y-97945171D01*
X139067073Y-97919000D01*
X138932927Y-97919000D01*
X138801360Y-97945171D01*
X138677426Y-97996506D01*
X138565888Y-98071033D01*
X138471033Y-98165888D01*
X138396506Y-98277426D01*
X138345171Y-98401360D01*
X138319000Y-98532927D01*
X130052102Y-98532927D01*
X130027074Y-98450424D01*
X129945267Y-98297374D01*
X129835174Y-98163224D01*
X129801561Y-98135639D01*
X128826678Y-97160757D01*
X129528200Y-97160757D01*
X129528200Y-97403243D01*
X129575507Y-97641069D01*
X129668302Y-97865097D01*
X129803020Y-98066717D01*
X129974483Y-98238180D01*
X130176103Y-98372898D01*
X130400131Y-98465693D01*
X130637957Y-98513000D01*
X130880443Y-98513000D01*
X131118269Y-98465693D01*
X131342297Y-98372898D01*
X131543917Y-98238180D01*
X131715380Y-98066717D01*
X131850098Y-97865097D01*
X131942893Y-97641069D01*
X131990200Y-97403243D01*
X131990200Y-97160757D01*
X132068200Y-97160757D01*
X132068200Y-97403243D01*
X132115507Y-97641069D01*
X132208302Y-97865097D01*
X132343020Y-98066717D01*
X132514483Y-98238180D01*
X132716103Y-98372898D01*
X132940131Y-98465693D01*
X133177957Y-98513000D01*
X133420443Y-98513000D01*
X133658269Y-98465693D01*
X133882297Y-98372898D01*
X134083917Y-98238180D01*
X134255380Y-98066717D01*
X134390098Y-97865097D01*
X134482893Y-97641069D01*
X134530200Y-97403243D01*
X134530200Y-97160757D01*
X134482893Y-96922931D01*
X134390098Y-96698903D01*
X134255380Y-96497283D01*
X134083917Y-96325820D01*
X133882297Y-96191102D01*
X133658269Y-96098307D01*
X133420443Y-96051000D01*
X133177957Y-96051000D01*
X132940131Y-96098307D01*
X132716103Y-96191102D01*
X132514483Y-96325820D01*
X132343020Y-96497283D01*
X132208302Y-96698903D01*
X132115507Y-96922931D01*
X132068200Y-97160757D01*
X131990200Y-97160757D01*
X131942893Y-96922931D01*
X131850098Y-96698903D01*
X131715380Y-96497283D01*
X131543917Y-96325820D01*
X131342297Y-96191102D01*
X131118269Y-96098307D01*
X130880443Y-96051000D01*
X130637957Y-96051000D01*
X130400131Y-96098307D01*
X130176103Y-96191102D01*
X129974483Y-96325820D01*
X129803020Y-96497283D01*
X129668302Y-96698903D01*
X129575507Y-96922931D01*
X129528200Y-97160757D01*
X128826678Y-97160757D01*
X127150652Y-95484733D01*
X127234112Y-95428967D01*
X127328967Y-95334112D01*
X127403494Y-95222574D01*
X127454829Y-95098640D01*
X127481000Y-94967073D01*
X127481000Y-94832927D01*
X127454829Y-94701360D01*
X127421443Y-94620757D01*
X129528200Y-94620757D01*
X129528200Y-94863243D01*
X129575507Y-95101069D01*
X129668302Y-95325097D01*
X129803020Y-95526717D01*
X129974483Y-95698180D01*
X130176103Y-95832898D01*
X130400131Y-95925693D01*
X130637957Y-95973000D01*
X130880443Y-95973000D01*
X131118269Y-95925693D01*
X131342297Y-95832898D01*
X131543917Y-95698180D01*
X131715380Y-95526717D01*
X131850098Y-95325097D01*
X131942893Y-95101069D01*
X131990200Y-94863243D01*
X131990200Y-94620757D01*
X132068200Y-94620757D01*
X132068200Y-94863243D01*
X132115507Y-95101069D01*
X132208302Y-95325097D01*
X132343020Y-95526717D01*
X132514483Y-95698180D01*
X132716103Y-95832898D01*
X132940131Y-95925693D01*
X133177957Y-95973000D01*
X133420443Y-95973000D01*
X133658269Y-95925693D01*
X133882297Y-95832898D01*
X134083917Y-95698180D01*
X134255380Y-95526717D01*
X134390098Y-95325097D01*
X134482893Y-95101069D01*
X134530200Y-94863243D01*
X134530200Y-94620757D01*
X134482893Y-94382931D01*
X134390098Y-94158903D01*
X134255380Y-93957283D01*
X134083917Y-93785820D01*
X133882297Y-93651102D01*
X133658269Y-93558307D01*
X133420443Y-93511000D01*
X133177957Y-93511000D01*
X132940131Y-93558307D01*
X132716103Y-93651102D01*
X132514483Y-93785820D01*
X132343020Y-93957283D01*
X132208302Y-94158903D01*
X132115507Y-94382931D01*
X132068200Y-94620757D01*
X131990200Y-94620757D01*
X131942893Y-94382931D01*
X131850098Y-94158903D01*
X131715380Y-93957283D01*
X131543917Y-93785820D01*
X131342297Y-93651102D01*
X131118269Y-93558307D01*
X130880443Y-93511000D01*
X130637957Y-93511000D01*
X130400131Y-93558307D01*
X130176103Y-93651102D01*
X129974483Y-93785820D01*
X129803020Y-93957283D01*
X129668302Y-94158903D01*
X129575507Y-94382931D01*
X129528200Y-94620757D01*
X127421443Y-94620757D01*
X127403494Y-94577426D01*
X127328967Y-94465888D01*
X127234112Y-94371033D01*
X127122574Y-94296506D01*
X126998640Y-94245171D01*
X126878689Y-94221311D01*
X126874441Y-94199953D01*
X126871146Y-94166501D01*
X126861388Y-94134332D01*
X126854829Y-94101360D01*
X126841965Y-94070304D01*
X126832206Y-94038132D01*
X126816358Y-94008483D01*
X126803494Y-93977426D01*
X126784817Y-93949475D01*
X126768970Y-93919826D01*
X126747645Y-93893841D01*
X126728967Y-93865888D01*
X126705192Y-93842113D01*
X126683869Y-93816131D01*
X126657885Y-93794806D01*
X126634112Y-93771033D01*
X126606159Y-93752355D01*
X126580174Y-93731030D01*
X126550525Y-93715183D01*
X126522574Y-93696506D01*
X126491517Y-93683642D01*
X126461868Y-93667794D01*
X126429696Y-93658035D01*
X126398640Y-93645171D01*
X126365668Y-93638612D01*
X126333499Y-93628854D01*
X126300047Y-93625559D01*
X126267073Y-93619000D01*
X126233453Y-93619000D01*
X126200000Y-93615705D01*
X126166547Y-93619000D01*
X126132927Y-93619000D01*
X126099953Y-93625559D01*
X126066501Y-93628854D01*
X126034331Y-93638612D01*
X126001360Y-93645171D01*
X125970306Y-93658034D01*
X125938131Y-93667794D01*
X125908480Y-93683643D01*
X125877426Y-93696506D01*
X125849473Y-93715184D01*
X125819827Y-93731030D01*
X125793846Y-93752352D01*
X125765888Y-93771033D01*
X125671033Y-93865888D01*
X125671031Y-93865891D01*
X125442123Y-94094799D01*
X125416131Y-94116130D01*
X125331031Y-94219826D01*
X125267795Y-94338132D01*
X125249028Y-94399999D01*
X125228855Y-94466501D01*
X125215706Y-94599999D01*
X125219001Y-94633452D01*
X125219001Y-94637115D01*
X125174024Y-94674026D01*
X125063931Y-94808177D01*
X124982124Y-94961227D01*
X124931747Y-95127296D01*
X124918999Y-95256729D01*
X124918999Y-95336731D01*
X124914737Y-95380001D01*
X124918999Y-95423271D01*
X124918999Y-95423274D01*
X124931747Y-95552707D01*
X124982124Y-95718776D01*
X125037818Y-95822971D01*
X124965888Y-95871033D01*
X124871033Y-95965888D01*
X124796506Y-96077426D01*
X124745171Y-96201360D01*
X124719000Y-96332927D01*
X124719000Y-96467073D01*
X124745171Y-96598640D01*
X124796506Y-96722574D01*
X124871033Y-96834112D01*
X124965888Y-96928967D01*
X125077426Y-97003494D01*
X125201360Y-97054829D01*
X125332927Y-97081000D01*
X125467073Y-97081000D01*
X125598640Y-97054829D01*
X125722574Y-97003494D01*
X125834112Y-96928967D01*
X125928967Y-96834112D01*
X125960699Y-96786622D01*
X127415306Y-98241228D01*
X120421395Y-98241228D01*
X120397771Y-98238901D01*
X120374147Y-98241228D01*
X120374146Y-98241228D01*
X120303480Y-98248188D01*
X120212811Y-98275692D01*
X120129250Y-98320356D01*
X120056008Y-98380464D01*
X120040946Y-98398817D01*
X119870763Y-98569000D01*
X119802927Y-98569000D01*
X119671360Y-98595171D01*
X119547426Y-98646506D01*
X119435888Y-98721033D01*
X119341033Y-98815888D01*
X119266506Y-98927426D01*
X119215171Y-99051360D01*
X119189000Y-99182927D01*
X119189000Y-99317073D01*
X119215171Y-99448640D01*
X119266506Y-99572574D01*
X119341033Y-99684112D01*
X119435888Y-99778967D01*
X119547426Y-99853494D01*
X119671360Y-99904829D01*
X119802927Y-99931000D01*
X119937073Y-99931000D01*
X120068640Y-99904829D01*
X120192574Y-99853494D01*
X120282662Y-99793299D01*
X120246496Y-99847426D01*
X120195161Y-99971360D01*
X120179637Y-100049402D01*
X120077073Y-100029000D01*
X119942927Y-100029000D01*
X119811360Y-100055171D01*
X119687426Y-100106506D01*
X119575888Y-100181033D01*
X119481033Y-100275888D01*
X119406506Y-100387426D01*
X119365686Y-100485975D01*
X119236256Y-100485975D01*
X119104689Y-100512146D01*
X118980755Y-100563481D01*
X118869217Y-100638008D01*
X118774362Y-100732863D01*
X118699835Y-100844401D01*
X118648500Y-100968335D01*
X118622329Y-101099902D01*
X118622329Y-101234048D01*
X118648500Y-101365615D01*
X118699835Y-101489549D01*
X118774362Y-101601087D01*
X118869217Y-101695942D01*
X118980755Y-101770469D01*
X119104689Y-101821804D01*
X119236256Y-101847975D01*
X119309375Y-101847975D01*
X119334806Y-101868846D01*
X119341781Y-101872574D01*
X119418366Y-101913510D01*
X119509035Y-101941014D01*
X119603328Y-101950301D01*
X119626954Y-101947974D01*
X121175099Y-101947974D01*
X121198725Y-101950301D01*
X121222351Y-101947974D01*
X121293017Y-101941014D01*
X121383686Y-101913510D01*
X121467247Y-101868846D01*
X121540489Y-101808738D01*
X121555555Y-101790380D01*
X122214925Y-101131010D01*
X124210929Y-101131010D01*
X124146506Y-101227426D01*
X124095171Y-101351360D01*
X124069000Y-101482927D01*
X124069000Y-101617073D01*
X124095171Y-101748640D01*
X124146506Y-101872574D01*
X124221033Y-101984112D01*
X124315888Y-102078967D01*
X124427426Y-102153494D01*
X124551360Y-102204829D01*
X124682927Y-102231000D01*
X124817073Y-102231000D01*
X124948640Y-102204829D01*
X125072574Y-102153494D01*
X125184112Y-102078967D01*
X125278967Y-101984112D01*
X125353494Y-101872574D01*
X125404829Y-101748640D01*
X125431000Y-101617073D01*
X125431000Y-101482927D01*
X125404829Y-101351360D01*
X125353494Y-101227426D01*
X125289071Y-101131010D01*
X125797074Y-101131010D01*
X125946326Y-101280262D01*
X126316586Y-101650523D01*
X126769474Y-102103411D01*
X126784536Y-102121764D01*
X126857778Y-102181872D01*
X126941339Y-102226536D01*
X126949366Y-102228971D01*
X127029362Y-102308967D01*
X127082469Y-102344452D01*
X127051033Y-102375888D01*
X126976506Y-102487426D01*
X126925171Y-102611360D01*
X126899000Y-102742927D01*
X126899000Y-102877073D01*
X126925171Y-103008640D01*
X126976506Y-103132574D01*
X127051033Y-103244112D01*
X127145888Y-103338967D01*
X127257426Y-103413494D01*
X127381360Y-103464829D01*
X127512927Y-103491000D01*
X127647073Y-103491000D01*
X127778640Y-103464829D01*
X127902574Y-103413494D01*
X128014112Y-103338967D01*
X128108967Y-103244112D01*
X128183494Y-103132574D01*
X128234829Y-103008640D01*
X128261000Y-102877073D01*
X128261000Y-102742927D01*
X128234829Y-102611360D01*
X128183494Y-102487426D01*
X128108967Y-102375888D01*
X128014112Y-102281033D01*
X127961005Y-102245548D01*
X127992441Y-102214112D01*
X128066968Y-102102574D01*
X128118303Y-101978640D01*
X128141704Y-101861000D01*
X128177073Y-101861000D01*
X128308640Y-101834829D01*
X128328199Y-101826727D01*
X128328200Y-105571001D01*
X128032109Y-105571001D01*
X127902707Y-105531747D01*
X127773274Y-105518999D01*
X127773271Y-105518999D01*
X127730001Y-105514737D01*
X127686731Y-105518999D01*
X117343271Y-105518999D01*
X117300001Y-105514737D01*
X117256731Y-105518999D01*
X117256728Y-105518999D01*
X117127295Y-105531747D01*
X116965179Y-105580925D01*
X116961226Y-105582124D01*
X116808176Y-105663931D01*
X116707638Y-105746439D01*
X116707635Y-105746442D01*
X116674026Y-105774024D01*
X116646444Y-105807634D01*
X116295077Y-106159001D01*
X115330671Y-106159001D01*
X115341000Y-106107073D01*
X115341000Y-105972927D01*
X115314829Y-105841360D01*
X115263494Y-105717426D01*
X115188967Y-105605888D01*
X115094112Y-105511033D01*
X114982574Y-105436506D01*
X114858640Y-105385171D01*
X114727073Y-105359000D01*
X114592927Y-105359000D01*
X114461360Y-105385171D01*
X114337426Y-105436506D01*
X114225888Y-105511033D01*
X114131033Y-105605888D01*
X114056506Y-105717426D01*
X114005171Y-105841360D01*
X113979000Y-105972927D01*
X113979000Y-106107073D01*
X113989329Y-106159001D01*
X109396741Y-106159001D01*
X109347000Y-106118178D01*
X109347000Y-106116079D01*
X109428967Y-106034112D01*
X109503494Y-105922574D01*
X109554829Y-105798640D01*
X109581000Y-105667073D01*
X109581000Y-105532927D01*
X109554829Y-105401360D01*
X109503494Y-105277426D01*
X109428967Y-105165888D01*
X109347000Y-105083921D01*
X109347000Y-98632927D01*
X114219000Y-98632927D01*
X114219000Y-98767073D01*
X114245171Y-98898640D01*
X114296506Y-99022574D01*
X114371033Y-99134112D01*
X114465888Y-99228967D01*
X114577426Y-99303494D01*
X114701360Y-99354829D01*
X114832927Y-99381000D01*
X114967073Y-99381000D01*
X115098640Y-99354829D01*
X115222574Y-99303494D01*
X115334112Y-99228967D01*
X115428967Y-99134112D01*
X115503494Y-99022574D01*
X115554829Y-98898640D01*
X115566880Y-98838059D01*
X115640001Y-98845261D01*
X115812706Y-98828250D01*
X115978775Y-98777874D01*
X116131826Y-98696067D01*
X116265975Y-98585973D01*
X116376069Y-98451824D01*
X116457876Y-98298773D01*
X116508252Y-98132704D01*
X116525263Y-97959999D01*
X116508252Y-97787294D01*
X116481000Y-97697455D01*
X116481000Y-96068188D01*
X118699000Y-96068188D01*
X118699000Y-96202334D01*
X118725171Y-96333901D01*
X118776506Y-96457835D01*
X118851033Y-96569373D01*
X118945888Y-96664228D01*
X119057426Y-96738755D01*
X119181360Y-96790090D01*
X119312927Y-96816261D01*
X119447073Y-96816261D01*
X119578640Y-96790090D01*
X119702574Y-96738755D01*
X119814112Y-96664228D01*
X119908967Y-96569373D01*
X119983494Y-96457835D01*
X120034829Y-96333901D01*
X120061000Y-96202334D01*
X120061000Y-96068188D01*
X120034829Y-95936621D01*
X119983494Y-95812687D01*
X119908967Y-95701149D01*
X119814112Y-95606294D01*
X119702574Y-95531767D01*
X119578640Y-95480432D01*
X119447073Y-95454261D01*
X119312927Y-95454261D01*
X119181360Y-95480432D01*
X119057426Y-95531767D01*
X118945888Y-95606294D01*
X118851033Y-95701149D01*
X118776506Y-95812687D01*
X118725171Y-95936621D01*
X118699000Y-96068188D01*
X116481000Y-96068188D01*
X116481000Y-93912927D01*
X116543739Y-93912927D01*
X116543739Y-94047073D01*
X116569910Y-94178640D01*
X116621245Y-94302574D01*
X116695772Y-94414112D01*
X116790627Y-94508967D01*
X116902165Y-94583494D01*
X117026099Y-94634829D01*
X117157666Y-94661000D01*
X117291812Y-94661000D01*
X117423379Y-94634829D01*
X117547313Y-94583494D01*
X117658851Y-94508967D01*
X117753706Y-94414112D01*
X117828233Y-94302574D01*
X117879568Y-94178640D01*
X117905739Y-94047073D01*
X117905739Y-93912927D01*
X118699000Y-93912927D01*
X118699000Y-94047073D01*
X118725171Y-94178640D01*
X118776506Y-94302574D01*
X118851033Y-94414112D01*
X118945888Y-94508967D01*
X119057426Y-94583494D01*
X119181360Y-94634829D01*
X119312927Y-94661000D01*
X119447073Y-94661000D01*
X119578640Y-94634829D01*
X119702574Y-94583494D01*
X119814112Y-94508967D01*
X119908967Y-94414112D01*
X119983494Y-94302574D01*
X120034829Y-94178640D01*
X120061000Y-94047073D01*
X120061000Y-93912927D01*
X120854261Y-93912927D01*
X120854261Y-94047073D01*
X120880432Y-94178640D01*
X120931767Y-94302574D01*
X121006294Y-94414112D01*
X121101149Y-94508967D01*
X121212687Y-94583494D01*
X121336621Y-94634829D01*
X121468188Y-94661000D01*
X121602334Y-94661000D01*
X121733901Y-94634829D01*
X121857835Y-94583494D01*
X121969373Y-94508967D01*
X122064228Y-94414112D01*
X122138755Y-94302574D01*
X122190090Y-94178640D01*
X122216261Y-94047073D01*
X122216261Y-93912927D01*
X122190090Y-93781360D01*
X122138755Y-93657426D01*
X122064228Y-93545888D01*
X121969373Y-93451033D01*
X121857835Y-93376506D01*
X121733901Y-93325171D01*
X121602334Y-93299000D01*
X121468188Y-93299000D01*
X121336621Y-93325171D01*
X121212687Y-93376506D01*
X121101149Y-93451033D01*
X121006294Y-93545888D01*
X120931767Y-93657426D01*
X120880432Y-93781360D01*
X120854261Y-93912927D01*
X120061000Y-93912927D01*
X120034829Y-93781360D01*
X119983494Y-93657426D01*
X119908967Y-93545888D01*
X119814112Y-93451033D01*
X119702574Y-93376506D01*
X119578640Y-93325171D01*
X119447073Y-93299000D01*
X119312927Y-93299000D01*
X119181360Y-93325171D01*
X119057426Y-93376506D01*
X118945888Y-93451033D01*
X118851033Y-93545888D01*
X118776506Y-93657426D01*
X118725171Y-93781360D01*
X118699000Y-93912927D01*
X117905739Y-93912927D01*
X117879568Y-93781360D01*
X117828233Y-93657426D01*
X117753706Y-93545888D01*
X117658851Y-93451033D01*
X117547313Y-93376506D01*
X117423379Y-93325171D01*
X117291812Y-93299000D01*
X117157666Y-93299000D01*
X117026099Y-93325171D01*
X116902165Y-93376506D01*
X116790627Y-93451033D01*
X116695772Y-93545888D01*
X116621245Y-93657426D01*
X116569910Y-93781360D01*
X116543739Y-93912927D01*
X116481000Y-93912927D01*
X116481000Y-93284919D01*
X118008253Y-91757666D01*
X118699000Y-91757666D01*
X118699000Y-91891812D01*
X118725171Y-92023379D01*
X118776506Y-92147313D01*
X118851033Y-92258851D01*
X118945888Y-92353706D01*
X119057426Y-92428233D01*
X119181360Y-92479568D01*
X119312927Y-92505739D01*
X119447073Y-92505739D01*
X119578640Y-92479568D01*
X119702574Y-92428233D01*
X119814112Y-92353706D01*
X119908967Y-92258851D01*
X119983494Y-92147313D01*
X120011062Y-92080757D01*
X129528200Y-92080757D01*
X129528200Y-92323243D01*
X129575507Y-92561069D01*
X129668302Y-92785097D01*
X129803020Y-92986717D01*
X129974483Y-93158180D01*
X130176103Y-93292898D01*
X130400131Y-93385693D01*
X130637957Y-93433000D01*
X130880443Y-93433000D01*
X131118269Y-93385693D01*
X131342297Y-93292898D01*
X131543917Y-93158180D01*
X131715380Y-92986717D01*
X131850098Y-92785097D01*
X131942893Y-92561069D01*
X131990200Y-92323243D01*
X131990200Y-92080757D01*
X132068200Y-92080757D01*
X132068200Y-92323243D01*
X132115507Y-92561069D01*
X132208302Y-92785097D01*
X132343020Y-92986717D01*
X132514483Y-93158180D01*
X132716103Y-93292898D01*
X132940131Y-93385693D01*
X133177957Y-93433000D01*
X133420443Y-93433000D01*
X133658269Y-93385693D01*
X133882297Y-93292898D01*
X134083917Y-93158180D01*
X134255380Y-92986717D01*
X134390098Y-92785097D01*
X134482893Y-92561069D01*
X134530200Y-92323243D01*
X134530200Y-92080757D01*
X134482893Y-91842931D01*
X134390098Y-91618903D01*
X134255380Y-91417283D01*
X134083917Y-91245820D01*
X133882297Y-91111102D01*
X133658269Y-91018307D01*
X133420443Y-90971000D01*
X133177957Y-90971000D01*
X132940131Y-91018307D01*
X132716103Y-91111102D01*
X132514483Y-91245820D01*
X132343020Y-91417283D01*
X132208302Y-91618903D01*
X132115507Y-91842931D01*
X132068200Y-92080757D01*
X131990200Y-92080757D01*
X131942893Y-91842931D01*
X131850098Y-91618903D01*
X131715380Y-91417283D01*
X131543917Y-91245820D01*
X131342297Y-91111102D01*
X131118269Y-91018307D01*
X130880443Y-90971000D01*
X130637957Y-90971000D01*
X130400131Y-91018307D01*
X130176103Y-91111102D01*
X129974483Y-91245820D01*
X129803020Y-91417283D01*
X129668302Y-91618903D01*
X129575507Y-91842931D01*
X129528200Y-92080757D01*
X120011062Y-92080757D01*
X120034829Y-92023379D01*
X120061000Y-91891812D01*
X120061000Y-91757666D01*
X120034829Y-91626099D01*
X119983494Y-91502165D01*
X119908967Y-91390627D01*
X119814112Y-91295772D01*
X119702574Y-91221245D01*
X119578640Y-91169910D01*
X119447073Y-91143739D01*
X119312927Y-91143739D01*
X119181360Y-91169910D01*
X119057426Y-91221245D01*
X118945888Y-91295772D01*
X118851033Y-91390627D01*
X118776506Y-91502165D01*
X118725171Y-91626099D01*
X118699000Y-91757666D01*
X118008253Y-91757666D01*
X121454698Y-88311222D01*
X121496719Y-88374112D01*
X121591574Y-88468967D01*
X121703112Y-88543494D01*
X121827046Y-88594829D01*
X121958613Y-88621000D01*
X121966883Y-88621000D01*
X121927793Y-88694132D01*
X121905840Y-88766502D01*
X121888853Y-88822501D01*
X121875704Y-88955999D01*
X121878999Y-88989452D01*
X121878999Y-89637920D01*
X121875704Y-89671373D01*
X121878999Y-89704826D01*
X121888853Y-89804872D01*
X121927794Y-89933241D01*
X121991030Y-90051547D01*
X122076130Y-90155243D01*
X122102121Y-90176573D01*
X122265344Y-90339796D01*
X122265346Y-90339799D01*
X122360201Y-90434654D01*
X122388163Y-90453338D01*
X122414140Y-90474656D01*
X122443777Y-90490497D01*
X122471739Y-90509181D01*
X122502805Y-90522049D01*
X122532445Y-90537892D01*
X122564610Y-90547649D01*
X122595673Y-90560516D01*
X122628647Y-90567075D01*
X122660814Y-90576833D01*
X122694266Y-90580128D01*
X122727240Y-90586687D01*
X122760859Y-90586687D01*
X122794312Y-90589982D01*
X122827765Y-90586687D01*
X122861386Y-90586687D01*
X122894361Y-90580128D01*
X122927811Y-90576833D01*
X122959976Y-90567076D01*
X122992953Y-90560516D01*
X123024017Y-90547649D01*
X123056181Y-90537892D01*
X123085821Y-90522049D01*
X123116887Y-90509181D01*
X123144849Y-90490497D01*
X123174486Y-90474656D01*
X123200463Y-90453338D01*
X123228425Y-90434654D01*
X123252202Y-90410877D01*
X123278182Y-90389556D01*
X123299503Y-90363576D01*
X123323280Y-90339799D01*
X123341964Y-90311837D01*
X123363282Y-90285860D01*
X123379123Y-90256223D01*
X123397807Y-90228261D01*
X123410675Y-90197195D01*
X123426518Y-90167555D01*
X123436275Y-90135391D01*
X123449142Y-90104327D01*
X123455702Y-90071350D01*
X123465459Y-90039185D01*
X123468053Y-90012848D01*
X123558640Y-89994829D01*
X123682574Y-89943494D01*
X123698388Y-89932927D01*
X124519000Y-89932927D01*
X124519000Y-90067073D01*
X124545171Y-90198640D01*
X124596506Y-90322574D01*
X124671033Y-90434112D01*
X124765888Y-90528967D01*
X124877426Y-90603494D01*
X125001360Y-90654829D01*
X125132927Y-90681000D01*
X125267073Y-90681000D01*
X125398640Y-90654829D01*
X125522574Y-90603494D01*
X125634112Y-90528967D01*
X125728967Y-90434112D01*
X125803494Y-90322574D01*
X125854829Y-90198640D01*
X125881000Y-90067073D01*
X125881000Y-89932927D01*
X125854829Y-89801360D01*
X125803494Y-89677426D01*
X125728967Y-89565888D01*
X125634112Y-89471033D01*
X125522574Y-89396506D01*
X125398640Y-89345171D01*
X125267073Y-89319000D01*
X125132927Y-89319000D01*
X125001360Y-89345171D01*
X124877426Y-89396506D01*
X124765888Y-89471033D01*
X124671033Y-89565888D01*
X124596506Y-89677426D01*
X124545171Y-89801360D01*
X124519000Y-89932927D01*
X123698388Y-89932927D01*
X123794112Y-89868967D01*
X123888967Y-89774112D01*
X123963494Y-89662574D01*
X124014829Y-89538640D01*
X124041000Y-89407073D01*
X124041000Y-89272927D01*
X124014829Y-89141360D01*
X123963494Y-89017426D01*
X123888967Y-88905888D01*
X123794112Y-88811033D01*
X123709769Y-88754677D01*
X123772205Y-88637867D01*
X123811145Y-88509498D01*
X123820999Y-88409452D01*
X123820999Y-88409451D01*
X123824294Y-88375999D01*
X123820999Y-88342546D01*
X123820999Y-87903764D01*
X123824294Y-87870311D01*
X123811145Y-87736812D01*
X123808548Y-87728250D01*
X123772205Y-87608443D01*
X123708969Y-87490137D01*
X123623869Y-87386441D01*
X123597878Y-87365111D01*
X122999343Y-86766577D01*
X123444921Y-86320999D01*
X124216710Y-86320999D01*
X124216730Y-86321001D01*
X124216733Y-86321001D01*
X124260003Y-86325263D01*
X124303273Y-86321001D01*
X126034208Y-86321001D01*
X125996506Y-86377426D01*
X125945171Y-86501360D01*
X125919000Y-86632927D01*
X125919000Y-86767073D01*
X125945171Y-86898640D01*
X125996506Y-87022574D01*
X126071033Y-87134112D01*
X126165888Y-87228967D01*
X126277426Y-87303494D01*
X126401360Y-87354829D01*
X126532927Y-87381000D01*
X126667073Y-87381000D01*
X126798640Y-87354829D01*
X126922574Y-87303494D01*
X127034112Y-87228967D01*
X127128967Y-87134112D01*
X127203494Y-87022574D01*
X127254829Y-86898640D01*
X127281000Y-86767073D01*
X127281000Y-86632927D01*
X127254829Y-86501360D01*
X127203494Y-86377426D01*
X127165792Y-86321001D01*
X129271395Y-86321001D01*
X129274200Y-86836250D01*
X129432950Y-86995000D01*
X130632200Y-86995000D01*
X130632200Y-86975000D01*
X130886200Y-86975000D01*
X130886200Y-86995000D01*
X130906200Y-86995000D01*
X130906200Y-87249000D01*
X130886200Y-87249000D01*
X130886200Y-87269000D01*
X130632200Y-87269000D01*
X130632200Y-87249000D01*
X129432950Y-87249000D01*
X129274200Y-87407750D01*
X129271128Y-87972000D01*
X129283388Y-88096482D01*
X129319698Y-88216180D01*
X129378663Y-88326494D01*
X129458015Y-88423185D01*
X129554706Y-88502537D01*
X129665020Y-88561502D01*
X129784718Y-88597812D01*
X129909200Y-88610072D01*
X130119494Y-88608927D01*
X129974483Y-88705820D01*
X129803020Y-88877283D01*
X129668302Y-89078903D01*
X129575507Y-89302931D01*
X129528200Y-89540757D01*
X129528200Y-89783243D01*
X129575507Y-90021069D01*
X129668302Y-90245097D01*
X129803020Y-90446717D01*
X129974483Y-90618180D01*
X130176103Y-90752898D01*
X130400131Y-90845693D01*
X130637957Y-90893000D01*
X130880443Y-90893000D01*
X131118269Y-90845693D01*
X131342297Y-90752898D01*
X131543917Y-90618180D01*
X131715380Y-90446717D01*
X131850098Y-90245097D01*
X131942893Y-90021069D01*
X131990200Y-89783243D01*
X131990200Y-89540757D01*
X132068200Y-89540757D01*
X132068200Y-89783243D01*
X132115507Y-90021069D01*
X132208302Y-90245097D01*
X132343020Y-90446717D01*
X132514483Y-90618180D01*
X132716103Y-90752898D01*
X132940131Y-90845693D01*
X133177957Y-90893000D01*
X133420443Y-90893000D01*
X133658269Y-90845693D01*
X133882297Y-90752898D01*
X134083917Y-90618180D01*
X134255380Y-90446717D01*
X134390098Y-90245097D01*
X134482893Y-90021069D01*
X134530200Y-89783243D01*
X134530200Y-89540757D01*
X134482893Y-89302931D01*
X134390098Y-89078903D01*
X134255380Y-88877283D01*
X134083917Y-88705820D01*
X133882297Y-88571102D01*
X133658269Y-88478307D01*
X133420443Y-88431000D01*
X133177957Y-88431000D01*
X132940131Y-88478307D01*
X132716103Y-88571102D01*
X132514483Y-88705820D01*
X132343020Y-88877283D01*
X132208302Y-89078903D01*
X132115507Y-89302931D01*
X132068200Y-89540757D01*
X131990200Y-89540757D01*
X131942893Y-89302931D01*
X131850098Y-89078903D01*
X131715380Y-88877283D01*
X131543917Y-88705820D01*
X131398906Y-88608927D01*
X131609200Y-88610072D01*
X131733682Y-88597812D01*
X131853380Y-88561502D01*
X131963694Y-88502537D01*
X132060385Y-88423185D01*
X132139737Y-88326494D01*
X132198702Y-88216180D01*
X132235012Y-88096482D01*
X132247272Y-87972000D01*
X132246127Y-87761706D01*
X132343020Y-87906717D01*
X132514483Y-88078180D01*
X132716103Y-88212898D01*
X132940131Y-88305693D01*
X133177957Y-88353000D01*
X133420443Y-88353000D01*
X133658269Y-88305693D01*
X133882297Y-88212898D01*
X134083917Y-88078180D01*
X134255380Y-87906717D01*
X134390098Y-87705097D01*
X134482893Y-87481069D01*
X134530200Y-87243243D01*
X134530200Y-87000757D01*
X134482893Y-86762931D01*
X134390098Y-86538903D01*
X134255380Y-86337283D01*
X134239098Y-86321001D01*
X135019001Y-86321001D01*
X135019000Y-97643272D01*
X135031748Y-97772705D01*
X135082125Y-97938774D01*
X135163932Y-98091824D01*
X135274025Y-98225975D01*
X135408175Y-98336068D01*
X135561225Y-98417875D01*
X135727294Y-98468252D01*
X135900000Y-98485262D01*
X136072705Y-98468252D01*
X136238774Y-98417875D01*
X136391824Y-98336068D01*
X136525975Y-98225975D01*
X136636068Y-98091825D01*
X136717875Y-97938775D01*
X136768252Y-97772706D01*
X136781000Y-97643273D01*
X136781000Y-97182927D01*
X140869000Y-97182927D01*
X140869000Y-97317073D01*
X140895171Y-97448640D01*
X140946506Y-97572574D01*
X141015553Y-97675910D01*
X141015552Y-98514374D01*
X141013225Y-98538001D01*
X141022512Y-98632293D01*
X141025223Y-98641229D01*
X141050016Y-98722961D01*
X141094680Y-98806523D01*
X141154788Y-98879765D01*
X141173146Y-98894831D01*
X142151726Y-99873411D01*
X142166787Y-99891764D01*
X142240029Y-99951872D01*
X142265851Y-99965674D01*
X142323589Y-99996536D01*
X142414258Y-100024040D01*
X142508551Y-100033327D01*
X142532177Y-100031000D01*
X146060936Y-100031000D01*
X145996506Y-100127426D01*
X145945171Y-100251360D01*
X145919000Y-100382927D01*
X145919000Y-100517073D01*
X145945171Y-100648640D01*
X145996506Y-100772574D01*
X146071033Y-100884112D01*
X146165888Y-100978967D01*
X146277426Y-101053494D01*
X146401360Y-101104829D01*
X146532927Y-101131000D01*
X146667073Y-101131000D01*
X146798640Y-101104829D01*
X146922574Y-101053494D01*
X147034112Y-100978967D01*
X147128967Y-100884112D01*
X147203494Y-100772574D01*
X147241425Y-100681000D01*
X149829329Y-100681000D01*
X149819000Y-100732927D01*
X149819000Y-100867073D01*
X149845171Y-100998640D01*
X149896506Y-101122574D01*
X149971033Y-101234112D01*
X150065888Y-101328967D01*
X150177426Y-101403494D01*
X150301360Y-101454829D01*
X150432927Y-101481000D01*
X150567073Y-101481000D01*
X150698640Y-101454829D01*
X150822574Y-101403494D01*
X150934112Y-101328967D01*
X150982079Y-101281000D01*
X152017921Y-101281000D01*
X152065888Y-101328967D01*
X152177426Y-101403494D01*
X152301360Y-101454829D01*
X152432927Y-101481000D01*
X152567073Y-101481000D01*
X152698640Y-101454829D01*
X152822574Y-101403494D01*
X152934112Y-101328967D01*
X153028967Y-101234112D01*
X153103494Y-101122574D01*
X153154829Y-100998640D01*
X153181000Y-100867073D01*
X153181000Y-100732927D01*
X153170671Y-100681000D01*
X153917921Y-100681000D01*
X153965888Y-100728967D01*
X154077426Y-100803494D01*
X154201360Y-100854829D01*
X154332927Y-100881000D01*
X154467073Y-100881000D01*
X154598640Y-100854829D01*
X154722574Y-100803494D01*
X154834112Y-100728967D01*
X154928967Y-100634112D01*
X155003494Y-100522574D01*
X155054829Y-100398640D01*
X155081000Y-100267073D01*
X155081000Y-100132927D01*
X155054829Y-100001360D01*
X155003494Y-99877426D01*
X154928967Y-99765888D01*
X154834112Y-99671033D01*
X154722574Y-99596506D01*
X154598640Y-99545171D01*
X154467073Y-99519000D01*
X154332927Y-99519000D01*
X154201360Y-99545171D01*
X154077426Y-99596506D01*
X153965888Y-99671033D01*
X153917921Y-99719000D01*
X150960725Y-99719000D01*
X150981000Y-99617073D01*
X150981000Y-99482927D01*
X150954829Y-99351360D01*
X150903494Y-99227426D01*
X150828967Y-99115888D01*
X150734112Y-99021033D01*
X150622574Y-98946506D01*
X150498640Y-98895171D01*
X150367073Y-98869000D01*
X150281000Y-98869000D01*
X150281000Y-98782927D01*
X150254829Y-98651360D01*
X150203494Y-98527426D01*
X150128967Y-98415888D01*
X150034112Y-98321033D01*
X149922574Y-98246506D01*
X149798640Y-98195171D01*
X149667073Y-98169000D01*
X149532927Y-98169000D01*
X149401360Y-98195171D01*
X149277426Y-98246506D01*
X149165888Y-98321033D01*
X149117921Y-98369000D01*
X142895790Y-98369000D01*
X142777553Y-98250763D01*
X142777553Y-98182927D01*
X142751382Y-98051360D01*
X142700047Y-97927426D01*
X142625520Y-97815888D01*
X142530665Y-97721033D01*
X142419127Y-97646506D01*
X142295193Y-97595171D01*
X142163626Y-97569000D01*
X142154974Y-97569000D01*
X142204829Y-97448640D01*
X142227846Y-97332927D01*
X148719000Y-97332927D01*
X148719000Y-97467073D01*
X148745171Y-97598640D01*
X148796506Y-97722574D01*
X148871033Y-97834112D01*
X148965888Y-97928967D01*
X149077426Y-98003494D01*
X149201360Y-98054829D01*
X149332927Y-98081000D01*
X149467073Y-98081000D01*
X149598640Y-98054829D01*
X149722574Y-98003494D01*
X149834112Y-97928967D01*
X149928967Y-97834112D01*
X150003494Y-97722574D01*
X150054829Y-97598640D01*
X150081000Y-97467073D01*
X150081000Y-97332927D01*
X150054829Y-97201360D01*
X150003494Y-97077426D01*
X149928967Y-96965888D01*
X149834112Y-96871033D01*
X149722574Y-96796506D01*
X149598640Y-96745171D01*
X149467073Y-96719000D01*
X149332927Y-96719000D01*
X149201360Y-96745171D01*
X149077426Y-96796506D01*
X148965888Y-96871033D01*
X148871033Y-96965888D01*
X148796506Y-97077426D01*
X148745171Y-97201360D01*
X148719000Y-97332927D01*
X142227846Y-97332927D01*
X142231000Y-97317073D01*
X142231000Y-97182927D01*
X142204829Y-97051360D01*
X142153494Y-96927426D01*
X142078967Y-96815888D01*
X141984112Y-96721033D01*
X141872574Y-96646506D01*
X141748640Y-96595171D01*
X141617073Y-96569000D01*
X141482927Y-96569000D01*
X141351360Y-96595171D01*
X141227426Y-96646506D01*
X141115888Y-96721033D01*
X141021033Y-96815888D01*
X140946506Y-96927426D01*
X140895171Y-97051360D01*
X140869000Y-97182927D01*
X136781000Y-97182927D01*
X136781000Y-96068188D01*
X144099000Y-96068188D01*
X144099000Y-96202334D01*
X144125171Y-96333901D01*
X144176506Y-96457835D01*
X144251033Y-96569373D01*
X144345888Y-96664228D01*
X144457426Y-96738755D01*
X144581360Y-96790090D01*
X144712927Y-96816261D01*
X144847073Y-96816261D01*
X144978640Y-96790090D01*
X145102574Y-96738755D01*
X145214112Y-96664228D01*
X145308967Y-96569373D01*
X145383494Y-96457835D01*
X145434829Y-96333901D01*
X145461000Y-96202334D01*
X145461000Y-96068188D01*
X145434829Y-95936621D01*
X145383494Y-95812687D01*
X145308967Y-95701149D01*
X145214112Y-95606294D01*
X145102574Y-95531767D01*
X144978640Y-95480432D01*
X144847073Y-95454261D01*
X144712927Y-95454261D01*
X144581360Y-95480432D01*
X144457426Y-95531767D01*
X144345888Y-95606294D01*
X144251033Y-95701149D01*
X144176506Y-95812687D01*
X144125171Y-95936621D01*
X144099000Y-96068188D01*
X136781000Y-96068188D01*
X136781000Y-94632927D01*
X137019000Y-94632927D01*
X137019000Y-94767073D01*
X137045171Y-94898640D01*
X137096506Y-95022574D01*
X137171033Y-95134112D01*
X137265888Y-95228967D01*
X137377426Y-95303494D01*
X137501360Y-95354829D01*
X137632927Y-95381000D01*
X137767073Y-95381000D01*
X137898640Y-95354829D01*
X138022574Y-95303494D01*
X138134112Y-95228967D01*
X138228967Y-95134112D01*
X138303494Y-95022574D01*
X138354829Y-94898640D01*
X138381000Y-94767073D01*
X138381000Y-94632927D01*
X138354829Y-94501360D01*
X138303494Y-94377426D01*
X138228967Y-94265888D01*
X138134112Y-94171033D01*
X138022574Y-94096506D01*
X137898640Y-94045171D01*
X137767073Y-94019000D01*
X137632927Y-94019000D01*
X137501360Y-94045171D01*
X137377426Y-94096506D01*
X137265888Y-94171033D01*
X137171033Y-94265888D01*
X137096506Y-94377426D01*
X137045171Y-94501360D01*
X137019000Y-94632927D01*
X136781000Y-94632927D01*
X136781000Y-93912927D01*
X141943739Y-93912927D01*
X141943739Y-94047073D01*
X141969910Y-94178640D01*
X142021245Y-94302574D01*
X142095772Y-94414112D01*
X142190627Y-94508967D01*
X142302165Y-94583494D01*
X142426099Y-94634829D01*
X142557666Y-94661000D01*
X142691812Y-94661000D01*
X142823379Y-94634829D01*
X142947313Y-94583494D01*
X143058851Y-94508967D01*
X143153706Y-94414112D01*
X143228233Y-94302574D01*
X143279568Y-94178640D01*
X143305739Y-94047073D01*
X143305739Y-93912927D01*
X144099000Y-93912927D01*
X144099000Y-94047073D01*
X144125171Y-94178640D01*
X144176506Y-94302574D01*
X144251033Y-94414112D01*
X144345888Y-94508967D01*
X144457426Y-94583494D01*
X144581360Y-94634829D01*
X144712927Y-94661000D01*
X144847073Y-94661000D01*
X144978640Y-94634829D01*
X145102574Y-94583494D01*
X145214112Y-94508967D01*
X145308967Y-94414112D01*
X145383494Y-94302574D01*
X145434829Y-94178640D01*
X145461000Y-94047073D01*
X145461000Y-93912927D01*
X146254261Y-93912927D01*
X146254261Y-94047073D01*
X146280432Y-94178640D01*
X146331767Y-94302574D01*
X146406294Y-94414112D01*
X146501149Y-94508967D01*
X146612687Y-94583494D01*
X146736621Y-94634829D01*
X146868188Y-94661000D01*
X147002334Y-94661000D01*
X147133901Y-94634829D01*
X147257835Y-94583494D01*
X147369373Y-94508967D01*
X147464228Y-94414112D01*
X147538755Y-94302574D01*
X147590090Y-94178640D01*
X147616261Y-94047073D01*
X147616261Y-93912927D01*
X147590090Y-93781360D01*
X147538755Y-93657426D01*
X147464228Y-93545888D01*
X147369373Y-93451033D01*
X147257835Y-93376506D01*
X147133901Y-93325171D01*
X147002334Y-93299000D01*
X146868188Y-93299000D01*
X146736621Y-93325171D01*
X146612687Y-93376506D01*
X146501149Y-93451033D01*
X146406294Y-93545888D01*
X146331767Y-93657426D01*
X146280432Y-93781360D01*
X146254261Y-93912927D01*
X145461000Y-93912927D01*
X145434829Y-93781360D01*
X145383494Y-93657426D01*
X145308967Y-93545888D01*
X145214112Y-93451033D01*
X145102574Y-93376506D01*
X144978640Y-93325171D01*
X144847073Y-93299000D01*
X144712927Y-93299000D01*
X144581360Y-93325171D01*
X144457426Y-93376506D01*
X144345888Y-93451033D01*
X144251033Y-93545888D01*
X144176506Y-93657426D01*
X144125171Y-93781360D01*
X144099000Y-93912927D01*
X143305739Y-93912927D01*
X143279568Y-93781360D01*
X143228233Y-93657426D01*
X143153706Y-93545888D01*
X143058851Y-93451033D01*
X142947313Y-93376506D01*
X142823379Y-93325171D01*
X142691812Y-93299000D01*
X142557666Y-93299000D01*
X142426099Y-93325171D01*
X142302165Y-93376506D01*
X142190627Y-93451033D01*
X142095772Y-93545888D01*
X142021245Y-93657426D01*
X141969910Y-93781360D01*
X141943739Y-93912927D01*
X136781000Y-93912927D01*
X136781000Y-91757666D01*
X144099000Y-91757666D01*
X144099000Y-91891812D01*
X144125171Y-92023379D01*
X144176506Y-92147313D01*
X144251033Y-92258851D01*
X144345888Y-92353706D01*
X144457426Y-92428233D01*
X144581360Y-92479568D01*
X144712927Y-92505739D01*
X144847073Y-92505739D01*
X144978640Y-92479568D01*
X145102574Y-92428233D01*
X145214112Y-92353706D01*
X145308967Y-92258851D01*
X145383494Y-92147313D01*
X145434829Y-92023379D01*
X145461000Y-91891812D01*
X145461000Y-91757666D01*
X145434829Y-91626099D01*
X145383494Y-91502165D01*
X145308967Y-91390627D01*
X145214112Y-91295772D01*
X145102574Y-91221245D01*
X144978640Y-91169910D01*
X144847073Y-91143739D01*
X144712927Y-91143739D01*
X144581360Y-91169910D01*
X144457426Y-91221245D01*
X144345888Y-91295772D01*
X144251033Y-91390627D01*
X144176506Y-91502165D01*
X144125171Y-91626099D01*
X144099000Y-91757666D01*
X136781000Y-91757666D01*
X136781000Y-90772927D01*
X149979000Y-90772927D01*
X149979000Y-90907073D01*
X150005171Y-91038640D01*
X150056506Y-91162574D01*
X150131033Y-91274112D01*
X150225888Y-91368967D01*
X150337426Y-91443494D01*
X150461360Y-91494829D01*
X150592927Y-91521000D01*
X150727073Y-91521000D01*
X150858640Y-91494829D01*
X150982574Y-91443494D01*
X151094112Y-91368967D01*
X151188967Y-91274112D01*
X151263494Y-91162574D01*
X151314829Y-91038640D01*
X151341000Y-90907073D01*
X151341000Y-90772927D01*
X151314829Y-90641360D01*
X151263494Y-90517426D01*
X151188967Y-90405888D01*
X151094112Y-90311033D01*
X150982574Y-90236506D01*
X150858640Y-90185171D01*
X150727073Y-90159000D01*
X150592927Y-90159000D01*
X150461360Y-90185171D01*
X150337426Y-90236506D01*
X150225888Y-90311033D01*
X150131033Y-90405888D01*
X150056506Y-90517426D01*
X150005171Y-90641360D01*
X149979000Y-90772927D01*
X136781000Y-90772927D01*
X136781000Y-86321001D01*
X147779002Y-86321001D01*
X147779001Y-87093605D01*
X147758640Y-87085171D01*
X147627073Y-87059000D01*
X147492927Y-87059000D01*
X147361360Y-87085171D01*
X147237426Y-87136506D01*
X147125888Y-87211033D01*
X147031033Y-87305888D01*
X146956506Y-87417426D01*
X146905171Y-87541360D01*
X146879000Y-87672927D01*
X146879000Y-87807073D01*
X146905171Y-87938640D01*
X146956506Y-88062574D01*
X147031033Y-88174112D01*
X147125888Y-88268967D01*
X147237426Y-88343494D01*
X147310706Y-88373848D01*
X147267794Y-88454131D01*
X147235224Y-88561502D01*
X147228854Y-88582500D01*
X147215705Y-88715998D01*
X147219000Y-88749451D01*
X147219000Y-88866547D01*
X147215705Y-88900000D01*
X147219000Y-88933452D01*
X147219000Y-88933453D01*
X147228854Y-89033499D01*
X147267794Y-89161868D01*
X147278999Y-89182831D01*
X147278999Y-89390548D01*
X147275704Y-89424001D01*
X147278999Y-89457453D01*
X147278999Y-89457454D01*
X147288853Y-89557500D01*
X147327793Y-89685869D01*
X147391029Y-89804175D01*
X147476130Y-89907871D01*
X147502120Y-89929200D01*
X147710114Y-90137195D01*
X147787825Y-90200970D01*
X147906131Y-90264206D01*
X148034499Y-90303146D01*
X148167998Y-90316296D01*
X148301497Y-90303146D01*
X148429867Y-90264206D01*
X148548172Y-90200970D01*
X148651868Y-90115870D01*
X148685804Y-90074518D01*
X148694112Y-90068967D01*
X148788967Y-89974112D01*
X148863494Y-89862574D01*
X148914829Y-89738640D01*
X148926295Y-89681000D01*
X148967073Y-89681000D01*
X149098640Y-89654829D01*
X149222574Y-89603494D01*
X149334112Y-89528967D01*
X149428967Y-89434112D01*
X149503494Y-89322574D01*
X149554829Y-89198640D01*
X149581000Y-89067073D01*
X149581000Y-88932927D01*
X149554829Y-88801360D01*
X149503494Y-88677426D01*
X149428967Y-88565888D01*
X149334112Y-88471033D01*
X149222574Y-88396506D01*
X149132553Y-88359218D01*
X149144296Y-88239999D01*
X149141001Y-88206546D01*
X149141001Y-87225142D01*
X149156506Y-87262574D01*
X149231033Y-87374112D01*
X149325888Y-87468967D01*
X149437426Y-87543494D01*
X149561360Y-87594829D01*
X149692927Y-87621000D01*
X149827073Y-87621000D01*
X149958640Y-87594829D01*
X150082574Y-87543494D01*
X150194112Y-87468967D01*
X150288967Y-87374112D01*
X150363494Y-87262574D01*
X150414829Y-87138640D01*
X150441000Y-87007073D01*
X150441000Y-86872927D01*
X150414829Y-86741360D01*
X150363494Y-86617426D01*
X150288967Y-86505888D01*
X150194112Y-86411033D01*
X150082574Y-86336506D01*
X150045142Y-86321001D01*
X151678579Y-86321001D01*
X151674738Y-86360000D01*
X151679000Y-86403270D01*
X151679000Y-86403272D01*
X151691748Y-86532705D01*
X151737075Y-86682125D01*
X151742125Y-86698774D01*
X151823932Y-86851825D01*
X151841250Y-86872927D01*
X151934025Y-86985975D01*
X151967644Y-87013566D01*
X153107637Y-88153559D01*
X153107643Y-88153564D01*
X158846439Y-93892361D01*
X158874025Y-93925975D01*
X158924981Y-93967793D01*
X159008174Y-94036068D01*
X159155919Y-94115039D01*
X159161225Y-94117875D01*
X159327294Y-94168252D01*
X159456727Y-94181000D01*
X159456730Y-94181000D01*
X159500000Y-94185262D01*
X159543270Y-94181000D01*
X163843273Y-94181000D01*
X163972706Y-94168252D01*
X164138775Y-94117875D01*
X164291825Y-94036068D01*
X164425975Y-93925975D01*
X164536068Y-93791825D01*
X164617875Y-93638775D01*
X164668252Y-93472706D01*
X164685262Y-93300000D01*
X164668252Y-93127294D01*
X164617875Y-92961225D01*
X164536068Y-92808175D01*
X164425975Y-92674025D01*
X164368098Y-92626527D01*
X164397859Y-92606642D01*
X164506642Y-92497859D01*
X164592113Y-92369942D01*
X164650987Y-92227809D01*
X164681000Y-92076922D01*
X164681000Y-91923078D01*
X164650987Y-91772191D01*
X164592113Y-91630058D01*
X164506642Y-91502141D01*
X164397859Y-91393358D01*
X164269942Y-91307887D01*
X164127809Y-91249013D01*
X163976922Y-91219000D01*
X163823078Y-91219000D01*
X163672191Y-91249013D01*
X163530058Y-91307887D01*
X163402141Y-91393358D01*
X163293358Y-91502141D01*
X163207887Y-91630058D01*
X163149013Y-91772191D01*
X163119000Y-91923078D01*
X163119000Y-92076922D01*
X163149013Y-92227809D01*
X163207887Y-92369942D01*
X163240666Y-92419000D01*
X159864922Y-92419000D01*
X154948921Y-87503000D01*
X155052576Y-87503000D01*
X155273401Y-87459075D01*
X155481413Y-87372913D01*
X155668620Y-87247826D01*
X155827826Y-87088620D01*
X155952913Y-86901413D01*
X156039075Y-86693401D01*
X156083000Y-86472576D01*
X156083000Y-86247424D01*
X156337000Y-86247424D01*
X156337000Y-86472576D01*
X156380925Y-86693401D01*
X156467087Y-86901413D01*
X156592174Y-87088620D01*
X156751380Y-87247826D01*
X156938587Y-87372913D01*
X157146599Y-87459075D01*
X157367424Y-87503000D01*
X157592576Y-87503000D01*
X157813401Y-87459075D01*
X158021413Y-87372913D01*
X158208620Y-87247826D01*
X158367826Y-87088620D01*
X158492913Y-86901413D01*
X158579075Y-86693401D01*
X158623000Y-86472576D01*
X158623000Y-86247424D01*
X158877000Y-86247424D01*
X158877000Y-86472576D01*
X158920925Y-86693401D01*
X159007087Y-86901413D01*
X159132174Y-87088620D01*
X159291380Y-87247826D01*
X159478587Y-87372913D01*
X159686599Y-87459075D01*
X159907424Y-87503000D01*
X160132576Y-87503000D01*
X160353401Y-87459075D01*
X160561413Y-87372913D01*
X160748620Y-87247826D01*
X160907826Y-87088620D01*
X161032913Y-86901413D01*
X161119075Y-86693401D01*
X161163000Y-86472576D01*
X161163000Y-86247424D01*
X161417000Y-86247424D01*
X161417000Y-86472576D01*
X161460925Y-86693401D01*
X161547087Y-86901413D01*
X161672174Y-87088620D01*
X161831380Y-87247826D01*
X162018587Y-87372913D01*
X162226599Y-87459075D01*
X162447424Y-87503000D01*
X162672576Y-87503000D01*
X162893401Y-87459075D01*
X163101413Y-87372913D01*
X163288620Y-87247826D01*
X163447826Y-87088620D01*
X163572913Y-86901413D01*
X163659075Y-86693401D01*
X163703000Y-86472576D01*
X163703000Y-86247424D01*
X163957000Y-86247424D01*
X163957000Y-86472576D01*
X164000925Y-86693401D01*
X164087087Y-86901413D01*
X164212174Y-87088620D01*
X164371380Y-87247826D01*
X164558587Y-87372913D01*
X164766599Y-87459075D01*
X164987424Y-87503000D01*
X165212576Y-87503000D01*
X165433401Y-87459075D01*
X165641413Y-87372913D01*
X165828620Y-87247826D01*
X165987826Y-87088620D01*
X166112913Y-86901413D01*
X166199075Y-86693401D01*
X166243000Y-86472576D01*
X166243000Y-86247424D01*
X166199075Y-86026599D01*
X166112913Y-85818587D01*
X165987826Y-85631380D01*
X165828620Y-85472174D01*
X165641413Y-85347087D01*
X165433401Y-85260925D01*
X165212576Y-85217000D01*
X164987424Y-85217000D01*
X164766599Y-85260925D01*
X164558587Y-85347087D01*
X164371380Y-85472174D01*
X164212174Y-85631380D01*
X164087087Y-85818587D01*
X164000925Y-86026599D01*
X163957000Y-86247424D01*
X163703000Y-86247424D01*
X163659075Y-86026599D01*
X163572913Y-85818587D01*
X163447826Y-85631380D01*
X163288620Y-85472174D01*
X163101413Y-85347087D01*
X162893401Y-85260925D01*
X162672576Y-85217000D01*
X162447424Y-85217000D01*
X162226599Y-85260925D01*
X162018587Y-85347087D01*
X161831380Y-85472174D01*
X161672174Y-85631380D01*
X161547087Y-85818587D01*
X161460925Y-86026599D01*
X161417000Y-86247424D01*
X161163000Y-86247424D01*
X161119075Y-86026599D01*
X161032913Y-85818587D01*
X160907826Y-85631380D01*
X160748620Y-85472174D01*
X160561413Y-85347087D01*
X160353401Y-85260925D01*
X160132576Y-85217000D01*
X159907424Y-85217000D01*
X159686599Y-85260925D01*
X159478587Y-85347087D01*
X159291380Y-85472174D01*
X159132174Y-85631380D01*
X159007087Y-85818587D01*
X158920925Y-86026599D01*
X158877000Y-86247424D01*
X158623000Y-86247424D01*
X158579075Y-86026599D01*
X158492913Y-85818587D01*
X158367826Y-85631380D01*
X158208620Y-85472174D01*
X158021413Y-85347087D01*
X157813401Y-85260925D01*
X157592576Y-85217000D01*
X157367424Y-85217000D01*
X157146599Y-85260925D01*
X156938587Y-85347087D01*
X156751380Y-85472174D01*
X156592174Y-85631380D01*
X156467087Y-85818587D01*
X156380925Y-86026599D01*
X156337000Y-86247424D01*
X156083000Y-86247424D01*
X156039075Y-86026599D01*
X155952913Y-85818587D01*
X155827826Y-85631380D01*
X155668620Y-85472174D01*
X155481413Y-85347087D01*
X155273401Y-85260925D01*
X155052576Y-85217000D01*
X154827424Y-85217000D01*
X154606599Y-85260925D01*
X154398587Y-85347087D01*
X154211380Y-85472174D01*
X154052174Y-85631380D01*
X153927087Y-85818587D01*
X153840925Y-86026599D01*
X153797000Y-86247424D01*
X153797000Y-86351078D01*
X153441000Y-85995079D01*
X153441000Y-85783270D01*
X153445262Y-85740000D01*
X153441000Y-85696727D01*
X153428252Y-85567294D01*
X153377875Y-85401225D01*
X153296068Y-85248175D01*
X153185975Y-85114025D01*
X153152355Y-85086434D01*
X152913567Y-84847646D01*
X152885976Y-84814026D01*
X152751826Y-84703933D01*
X152598776Y-84622126D01*
X152432707Y-84571749D01*
X152303274Y-84559001D01*
X152303271Y-84559001D01*
X152260001Y-84554739D01*
X152216731Y-84559001D01*
X150846726Y-84559001D01*
X150950898Y-84403097D01*
X151043693Y-84179069D01*
X151091000Y-83941243D01*
X151091000Y-83707424D01*
X153797000Y-83707424D01*
X153797000Y-83932576D01*
X153840925Y-84153401D01*
X153927087Y-84361413D01*
X154052174Y-84548620D01*
X154211380Y-84707826D01*
X154398587Y-84832913D01*
X154606599Y-84919075D01*
X154827424Y-84963000D01*
X155052576Y-84963000D01*
X155273401Y-84919075D01*
X155481413Y-84832913D01*
X155668620Y-84707826D01*
X155827826Y-84548620D01*
X155952913Y-84361413D01*
X156039075Y-84153401D01*
X156083000Y-83932576D01*
X156083000Y-83707424D01*
X156337000Y-83707424D01*
X156337000Y-83932576D01*
X156380925Y-84153401D01*
X156467087Y-84361413D01*
X156592174Y-84548620D01*
X156751380Y-84707826D01*
X156938587Y-84832913D01*
X157146599Y-84919075D01*
X157367424Y-84963000D01*
X157592576Y-84963000D01*
X157813401Y-84919075D01*
X158021413Y-84832913D01*
X158208620Y-84707826D01*
X158367826Y-84548620D01*
X158492913Y-84361413D01*
X158579075Y-84153401D01*
X158623000Y-83932576D01*
X158623000Y-83707424D01*
X158579075Y-83486599D01*
X158492913Y-83278587D01*
X158367826Y-83091380D01*
X158208620Y-82932174D01*
X158021413Y-82807087D01*
X157813401Y-82720925D01*
X157592576Y-82677000D01*
X157367424Y-82677000D01*
X157146599Y-82720925D01*
X156938587Y-82807087D01*
X156751380Y-82932174D01*
X156592174Y-83091380D01*
X156467087Y-83278587D01*
X156380925Y-83486599D01*
X156337000Y-83707424D01*
X156083000Y-83707424D01*
X156039075Y-83486599D01*
X155952913Y-83278587D01*
X155827826Y-83091380D01*
X155668620Y-82932174D01*
X155481413Y-82807087D01*
X155273401Y-82720925D01*
X155052576Y-82677000D01*
X154827424Y-82677000D01*
X154606599Y-82720925D01*
X154398587Y-82807087D01*
X154211380Y-82932174D01*
X154052174Y-83091380D01*
X153927087Y-83278587D01*
X153840925Y-83486599D01*
X153797000Y-83707424D01*
X151091000Y-83707424D01*
X151091000Y-83698757D01*
X151043693Y-83460931D01*
X150950898Y-83236903D01*
X150816180Y-83035283D01*
X150644717Y-82863820D01*
X150443097Y-82729102D01*
X150219069Y-82636307D01*
X149981243Y-82589000D01*
X149738757Y-82589000D01*
X149500931Y-82636307D01*
X149276903Y-82729102D01*
X149075283Y-82863820D01*
X148903820Y-83035283D01*
X148769102Y-83236903D01*
X148676307Y-83460931D01*
X148629000Y-83698757D01*
X148629000Y-83941243D01*
X148676307Y-84179069D01*
X148769102Y-84403097D01*
X148873274Y-84559001D01*
X148306726Y-84559001D01*
X148410898Y-84403097D01*
X148503693Y-84179069D01*
X148551000Y-83941243D01*
X148551000Y-83698757D01*
X148503693Y-83460931D01*
X148410898Y-83236903D01*
X148276180Y-83035283D01*
X148104717Y-82863820D01*
X147903097Y-82729102D01*
X147679069Y-82636307D01*
X147441243Y-82589000D01*
X147198757Y-82589000D01*
X146960931Y-82636307D01*
X146736903Y-82729102D01*
X146535283Y-82863820D01*
X146363820Y-83035283D01*
X146229102Y-83236903D01*
X146136307Y-83460931D01*
X146089000Y-83698757D01*
X146089000Y-83941243D01*
X146136307Y-84179069D01*
X146229102Y-84403097D01*
X146333274Y-84559001D01*
X145766726Y-84559001D01*
X145870898Y-84403097D01*
X145963693Y-84179069D01*
X146011000Y-83941243D01*
X146011000Y-83698757D01*
X145963693Y-83460931D01*
X145870898Y-83236903D01*
X145736180Y-83035283D01*
X145564717Y-82863820D01*
X145363097Y-82729102D01*
X145139069Y-82636307D01*
X144901243Y-82589000D01*
X144658757Y-82589000D01*
X144420931Y-82636307D01*
X144196903Y-82729102D01*
X143995283Y-82863820D01*
X143823820Y-83035283D01*
X143689102Y-83236903D01*
X143596307Y-83460931D01*
X143549000Y-83698757D01*
X143549000Y-83941243D01*
X143596307Y-84179069D01*
X143689102Y-84403097D01*
X143793274Y-84559001D01*
X143226726Y-84559001D01*
X143330898Y-84403097D01*
X143423693Y-84179069D01*
X143471000Y-83941243D01*
X143471000Y-83698757D01*
X143423693Y-83460931D01*
X143330898Y-83236903D01*
X143196180Y-83035283D01*
X143024717Y-82863820D01*
X142823097Y-82729102D01*
X142599069Y-82636307D01*
X142361243Y-82589000D01*
X142118757Y-82589000D01*
X141880931Y-82636307D01*
X141656903Y-82729102D01*
X141455283Y-82863820D01*
X141283820Y-83035283D01*
X141149102Y-83236903D01*
X141056307Y-83460931D01*
X141009000Y-83698757D01*
X141009000Y-83941243D01*
X141056307Y-84179069D01*
X141149102Y-84403097D01*
X141253274Y-84559001D01*
X140932843Y-84559001D01*
X140932843Y-82970000D01*
X140925487Y-82895311D01*
X140903701Y-82823492D01*
X140868322Y-82757304D01*
X140820711Y-82699289D01*
X140762696Y-82651678D01*
X140696508Y-82616299D01*
X140624689Y-82594513D01*
X140550000Y-82587157D01*
X138850000Y-82587157D01*
X138775311Y-82594513D01*
X138703492Y-82616299D01*
X138637304Y-82651678D01*
X138579289Y-82699289D01*
X138531678Y-82757304D01*
X138496299Y-82823492D01*
X138474513Y-82895311D01*
X138467157Y-82970000D01*
X138467157Y-84559001D01*
X136003268Y-84559001D01*
X135959998Y-84554739D01*
X135916728Y-84559001D01*
X125446726Y-84559001D01*
X125550898Y-84403097D01*
X125643693Y-84179069D01*
X125691000Y-83941243D01*
X125691000Y-83698757D01*
X125643693Y-83460931D01*
X125550898Y-83236903D01*
X125416180Y-83035283D01*
X125244717Y-82863820D01*
X125043097Y-82729102D01*
X124819069Y-82636307D01*
X124581243Y-82589000D01*
X124338757Y-82589000D01*
X124100931Y-82636307D01*
X123876903Y-82729102D01*
X123675283Y-82863820D01*
X123503820Y-83035283D01*
X123369102Y-83236903D01*
X123276307Y-83460931D01*
X123229000Y-83698757D01*
X123229000Y-83941243D01*
X123276307Y-84179069D01*
X123369102Y-84403097D01*
X123473272Y-84558999D01*
X123123268Y-84558999D01*
X123079998Y-84554737D01*
X123036728Y-84558999D01*
X123036726Y-84558999D01*
X122907293Y-84571747D01*
X122895901Y-84575203D01*
X123010898Y-84403097D01*
X123103693Y-84179069D01*
X123151000Y-83941243D01*
X123151000Y-83698757D01*
X123103693Y-83460931D01*
X123010898Y-83236903D01*
X122876180Y-83035283D01*
X122704717Y-82863820D01*
X122503097Y-82729102D01*
X122279069Y-82636307D01*
X122041243Y-82589000D01*
X121798757Y-82589000D01*
X121560931Y-82636307D01*
X121336903Y-82729102D01*
X121135283Y-82863820D01*
X120963820Y-83035283D01*
X120829102Y-83236903D01*
X120736307Y-83460931D01*
X120689000Y-83698757D01*
X120689000Y-83941243D01*
X120736307Y-84179069D01*
X120829102Y-84403097D01*
X120963820Y-84604717D01*
X121135283Y-84776180D01*
X121336903Y-84910898D01*
X121560931Y-85003693D01*
X121798757Y-85051000D01*
X122041243Y-85051000D01*
X122268226Y-85005850D01*
X121067641Y-86206436D01*
X121067636Y-86206440D01*
X115007645Y-92266432D01*
X114974025Y-92294023D01*
X114911721Y-92369942D01*
X114863932Y-92428173D01*
X114815384Y-92519000D01*
X114782125Y-92581224D01*
X114731748Y-92747293D01*
X114719000Y-92876725D01*
X114714738Y-92919998D01*
X114719000Y-92963268D01*
X114719001Y-97876718D01*
X114714738Y-97919998D01*
X114726573Y-98040156D01*
X114701360Y-98045171D01*
X114577426Y-98096506D01*
X114465888Y-98171033D01*
X114371033Y-98265888D01*
X114296506Y-98377426D01*
X114245171Y-98501360D01*
X114219000Y-98632927D01*
X109347000Y-98632927D01*
X109347000Y-97472927D01*
X113079000Y-97472927D01*
X113079000Y-97607073D01*
X113105171Y-97738640D01*
X113156506Y-97862574D01*
X113231033Y-97974112D01*
X113325888Y-98068967D01*
X113437426Y-98143494D01*
X113561360Y-98194829D01*
X113692927Y-98221000D01*
X113827073Y-98221000D01*
X113958640Y-98194829D01*
X114082574Y-98143494D01*
X114194112Y-98068967D01*
X114288967Y-97974112D01*
X114363494Y-97862574D01*
X114414829Y-97738640D01*
X114441000Y-97607073D01*
X114441000Y-97472927D01*
X114414829Y-97341360D01*
X114363494Y-97217426D01*
X114288967Y-97105888D01*
X114194112Y-97011033D01*
X114082574Y-96936506D01*
X113958640Y-96885171D01*
X113827073Y-96859000D01*
X113692927Y-96859000D01*
X113561360Y-96885171D01*
X113437426Y-96936506D01*
X113325888Y-97011033D01*
X113231033Y-97105888D01*
X113156506Y-97217426D01*
X113105171Y-97341360D01*
X113079000Y-97472927D01*
X109347000Y-97472927D01*
X109347000Y-96432927D01*
X110219000Y-96432927D01*
X110219000Y-96567073D01*
X110245171Y-96698640D01*
X110296506Y-96822574D01*
X110371033Y-96934112D01*
X110465888Y-97028967D01*
X110577426Y-97103494D01*
X110701360Y-97154829D01*
X110832927Y-97181000D01*
X110967073Y-97181000D01*
X111098640Y-97154829D01*
X111222574Y-97103494D01*
X111334112Y-97028967D01*
X111428967Y-96934112D01*
X111503494Y-96822574D01*
X111554829Y-96698640D01*
X111581000Y-96567073D01*
X111581000Y-96432927D01*
X111554829Y-96301360D01*
X111503494Y-96177426D01*
X111428967Y-96065888D01*
X111334112Y-95971033D01*
X111222574Y-95896506D01*
X111098640Y-95845171D01*
X110967073Y-95819000D01*
X110832927Y-95819000D01*
X110701360Y-95845171D01*
X110577426Y-95896506D01*
X110465888Y-95971033D01*
X110371033Y-96065888D01*
X110296506Y-96177426D01*
X110245171Y-96301360D01*
X110219000Y-96432927D01*
X109347000Y-96432927D01*
X109347000Y-91223078D01*
X111119000Y-91223078D01*
X111119000Y-91376922D01*
X111149013Y-91527809D01*
X111207887Y-91669942D01*
X111293358Y-91797859D01*
X111402141Y-91906642D01*
X111530058Y-91992113D01*
X111672191Y-92050987D01*
X111823078Y-92081000D01*
X111976922Y-92081000D01*
X112127809Y-92050987D01*
X112269942Y-91992113D01*
X112397859Y-91906642D01*
X112506642Y-91797859D01*
X112592113Y-91669942D01*
X112650987Y-91527809D01*
X112681000Y-91376922D01*
X112681000Y-91223078D01*
X112650987Y-91072191D01*
X112592113Y-90930058D01*
X112506642Y-90802141D01*
X112397859Y-90693358D01*
X112269942Y-90607887D01*
X112127809Y-90549013D01*
X111976922Y-90519000D01*
X111823078Y-90519000D01*
X111672191Y-90549013D01*
X111530058Y-90607887D01*
X111402141Y-90693358D01*
X111293358Y-90802141D01*
X111207887Y-90930058D01*
X111149013Y-91072191D01*
X111119000Y-91223078D01*
X109347000Y-91223078D01*
X109347000Y-87033078D01*
X110209000Y-87033078D01*
X110209000Y-87186922D01*
X110239013Y-87337809D01*
X110297887Y-87479942D01*
X110383358Y-87607859D01*
X110492141Y-87716642D01*
X110620058Y-87802113D01*
X110762191Y-87860987D01*
X110913078Y-87891000D01*
X111066922Y-87891000D01*
X111217809Y-87860987D01*
X111359942Y-87802113D01*
X111487859Y-87716642D01*
X111596642Y-87607859D01*
X111682113Y-87479942D01*
X111740987Y-87337809D01*
X111771000Y-87186922D01*
X111771000Y-87033078D01*
X111740987Y-86882191D01*
X111682113Y-86740058D01*
X111596642Y-86612141D01*
X111487859Y-86503358D01*
X111359942Y-86417887D01*
X111217809Y-86359013D01*
X111066922Y-86329000D01*
X110913078Y-86329000D01*
X110762191Y-86359013D01*
X110620058Y-86417887D01*
X110492141Y-86503358D01*
X110383358Y-86612141D01*
X110297887Y-86740058D01*
X110239013Y-86882191D01*
X110209000Y-87033078D01*
X109347000Y-87033078D01*
X109347000Y-82970000D01*
X113067157Y-82970000D01*
X113067157Y-84670000D01*
X113074513Y-84744689D01*
X113096299Y-84816508D01*
X113131678Y-84882696D01*
X113179289Y-84940711D01*
X113237304Y-84988322D01*
X113303492Y-85023701D01*
X113375311Y-85045487D01*
X113450000Y-85052843D01*
X115150000Y-85052843D01*
X115224689Y-85045487D01*
X115296508Y-85023701D01*
X115362696Y-84988322D01*
X115420711Y-84940711D01*
X115468322Y-84882696D01*
X115503701Y-84816508D01*
X115525487Y-84744689D01*
X115532843Y-84670000D01*
X115532843Y-83698757D01*
X115609000Y-83698757D01*
X115609000Y-83941243D01*
X115656307Y-84179069D01*
X115749102Y-84403097D01*
X115883820Y-84604717D01*
X116055283Y-84776180D01*
X116256903Y-84910898D01*
X116480931Y-85003693D01*
X116718757Y-85051000D01*
X116961243Y-85051000D01*
X117199069Y-85003693D01*
X117423097Y-84910898D01*
X117624717Y-84776180D01*
X117796180Y-84604717D01*
X117930898Y-84403097D01*
X118023693Y-84179069D01*
X118071000Y-83941243D01*
X118071000Y-83698757D01*
X118149000Y-83698757D01*
X118149000Y-83941243D01*
X118196307Y-84179069D01*
X118289102Y-84403097D01*
X118423820Y-84604717D01*
X118595283Y-84776180D01*
X118796903Y-84910898D01*
X119020931Y-85003693D01*
X119258757Y-85051000D01*
X119501243Y-85051000D01*
X119739069Y-85003693D01*
X119963097Y-84910898D01*
X120164717Y-84776180D01*
X120336180Y-84604717D01*
X120470898Y-84403097D01*
X120563693Y-84179069D01*
X120611000Y-83941243D01*
X120611000Y-83698757D01*
X120563693Y-83460931D01*
X120470898Y-83236903D01*
X120336180Y-83035283D01*
X120164717Y-82863820D01*
X119963097Y-82729102D01*
X119739069Y-82636307D01*
X119501243Y-82589000D01*
X119258757Y-82589000D01*
X119020931Y-82636307D01*
X118796903Y-82729102D01*
X118595283Y-82863820D01*
X118423820Y-83035283D01*
X118289102Y-83236903D01*
X118196307Y-83460931D01*
X118149000Y-83698757D01*
X118071000Y-83698757D01*
X118023693Y-83460931D01*
X117930898Y-83236903D01*
X117796180Y-83035283D01*
X117624717Y-82863820D01*
X117423097Y-82729102D01*
X117199069Y-82636307D01*
X116961243Y-82589000D01*
X116718757Y-82589000D01*
X116480931Y-82636307D01*
X116256903Y-82729102D01*
X116055283Y-82863820D01*
X115883820Y-83035283D01*
X115749102Y-83236903D01*
X115656307Y-83460931D01*
X115609000Y-83698757D01*
X115532843Y-83698757D01*
X115532843Y-82970000D01*
X115525487Y-82895311D01*
X115503701Y-82823492D01*
X115468322Y-82757304D01*
X115420711Y-82699289D01*
X115362696Y-82651678D01*
X115296508Y-82616299D01*
X115224689Y-82594513D01*
X115150000Y-82587157D01*
X113450000Y-82587157D01*
X113375311Y-82594513D01*
X113303492Y-82616299D01*
X113237304Y-82651678D01*
X113179289Y-82699289D01*
X113131678Y-82757304D01*
X113096299Y-82823492D01*
X113074513Y-82895311D01*
X113067157Y-82970000D01*
X109347000Y-82970000D01*
X109347000Y-82021000D01*
X160855920Y-82021000D01*
X160188748Y-82688173D01*
G04 #@! TA.AperFunction,Conductor*
D25*
G36*
X160188748Y-82688173D02*
G01*
X160132576Y-82677000D01*
X159907424Y-82677000D01*
X159686599Y-82720925D01*
X159478587Y-82807087D01*
X159291380Y-82932174D01*
X159132174Y-83091380D01*
X159007087Y-83278587D01*
X158920925Y-83486599D01*
X158877000Y-83707424D01*
X158877000Y-83932576D01*
X158920925Y-84153401D01*
X159007087Y-84361413D01*
X159132174Y-84548620D01*
X159291380Y-84707826D01*
X159478587Y-84832913D01*
X159686599Y-84919075D01*
X159907424Y-84963000D01*
X160132576Y-84963000D01*
X160353401Y-84919075D01*
X160561413Y-84832913D01*
X160748620Y-84707826D01*
X160907826Y-84548620D01*
X161032913Y-84361413D01*
X161119075Y-84153401D01*
X161163000Y-83932576D01*
X161163000Y-83707424D01*
X161151827Y-83651252D01*
X161592584Y-83210495D01*
X161547087Y-83278587D01*
X161460925Y-83486599D01*
X161417000Y-83707424D01*
X161417000Y-83932576D01*
X161460925Y-84153401D01*
X161547087Y-84361413D01*
X161672174Y-84548620D01*
X161831380Y-84707826D01*
X162018587Y-84832913D01*
X162226599Y-84919075D01*
X162447424Y-84963000D01*
X162672576Y-84963000D01*
X162893401Y-84919075D01*
X163101413Y-84832913D01*
X163288620Y-84707826D01*
X163447826Y-84548620D01*
X163572913Y-84361413D01*
X163659075Y-84153401D01*
X163703000Y-83932576D01*
X163703000Y-83707424D01*
X163659075Y-83486599D01*
X163572913Y-83278587D01*
X163447826Y-83091380D01*
X163288620Y-82932174D01*
X163286863Y-82931000D01*
X164373137Y-82931000D01*
X164371380Y-82932174D01*
X164212174Y-83091380D01*
X164087087Y-83278587D01*
X164000925Y-83486599D01*
X163957000Y-83707424D01*
X163957000Y-83932576D01*
X164000925Y-84153401D01*
X164087087Y-84361413D01*
X164212174Y-84548620D01*
X164371380Y-84707826D01*
X164558587Y-84832913D01*
X164766599Y-84919075D01*
X164987424Y-84963000D01*
X165212576Y-84963000D01*
X165433401Y-84919075D01*
X165641413Y-84832913D01*
X165828620Y-84707826D01*
X165987826Y-84548620D01*
X166112913Y-84361413D01*
X166199075Y-84153401D01*
X166243000Y-83932576D01*
X166243000Y-83707424D01*
X166199075Y-83486599D01*
X166112913Y-83278587D01*
X165987826Y-83091380D01*
X165828620Y-82932174D01*
X165826863Y-82931000D01*
X166373000Y-82931000D01*
X166373000Y-89853797D01*
X166351038Y-89906818D01*
X166324867Y-90038385D01*
X166324867Y-90172531D01*
X166351038Y-90304098D01*
X166373000Y-90357119D01*
X166373000Y-93766281D01*
X166365888Y-93771033D01*
X166271033Y-93865888D01*
X166196506Y-93977426D01*
X166145171Y-94101360D01*
X166119000Y-94232927D01*
X166119000Y-94367073D01*
X166145171Y-94498640D01*
X166196506Y-94622574D01*
X166271033Y-94734112D01*
X166365888Y-94828967D01*
X166373000Y-94833719D01*
X166373000Y-94966281D01*
X166365888Y-94971033D01*
X166271033Y-95065888D01*
X166196506Y-95177426D01*
X166145171Y-95301360D01*
X166119000Y-95432927D01*
X166119000Y-95567073D01*
X166145171Y-95698640D01*
X166196506Y-95822574D01*
X166271033Y-95934112D01*
X166319000Y-95982079D01*
X166319001Y-98817920D01*
X166271033Y-98865888D01*
X166196506Y-98977426D01*
X166145171Y-99101360D01*
X166119000Y-99232927D01*
X166119000Y-99367073D01*
X166145171Y-99498640D01*
X166196506Y-99622574D01*
X166271033Y-99734112D01*
X166365888Y-99828967D01*
X166373000Y-99833719D01*
X166373000Y-106572956D01*
X166243000Y-106572911D01*
X166243000Y-106567424D01*
X166199075Y-106346599D01*
X166112913Y-106138587D01*
X165987826Y-105951380D01*
X165828620Y-105792174D01*
X165641413Y-105667087D01*
X165433401Y-105580925D01*
X165212576Y-105537000D01*
X164987424Y-105537000D01*
X164766599Y-105580925D01*
X164558587Y-105667087D01*
X164371380Y-105792174D01*
X164212174Y-105951380D01*
X164087087Y-106138587D01*
X164000925Y-106346599D01*
X163957000Y-106567424D01*
X163957000Y-106572112D01*
X163703000Y-106572024D01*
X163703000Y-106567424D01*
X163659075Y-106346599D01*
X163572913Y-106138587D01*
X163447826Y-105951380D01*
X163288620Y-105792174D01*
X163101413Y-105667087D01*
X162893401Y-105580925D01*
X162672576Y-105537000D01*
X162447424Y-105537000D01*
X162226599Y-105580925D01*
X162018587Y-105667087D01*
X161831380Y-105792174D01*
X161672174Y-105951380D01*
X161547087Y-106138587D01*
X161460925Y-106346599D01*
X161417000Y-106567424D01*
X161417000Y-106571225D01*
X161163000Y-106571137D01*
X161163000Y-106567424D01*
X161119075Y-106346599D01*
X161032913Y-106138587D01*
X160907826Y-105951380D01*
X160748620Y-105792174D01*
X160561413Y-105667087D01*
X160353401Y-105580925D01*
X160132576Y-105537000D01*
X159907424Y-105537000D01*
X159686599Y-105580925D01*
X159626186Y-105605949D01*
X159441228Y-105420992D01*
X162716738Y-105420992D01*
X162760008Y-105425254D01*
X162803278Y-105420992D01*
X162803281Y-105420992D01*
X162932714Y-105408244D01*
X163098783Y-105357867D01*
X163251833Y-105276060D01*
X163385983Y-105165967D01*
X163413573Y-105132348D01*
X164653560Y-103892363D01*
X164736068Y-103791825D01*
X164817875Y-103638775D01*
X164868251Y-103472706D01*
X164885262Y-103300000D01*
X164868251Y-103127294D01*
X164817875Y-102961225D01*
X164736068Y-102808175D01*
X164625975Y-102674025D01*
X164518598Y-102585903D01*
X164606642Y-102497859D01*
X164692113Y-102369942D01*
X164750987Y-102227809D01*
X164781000Y-102076922D01*
X164781000Y-101923078D01*
X164750987Y-101772191D01*
X164692113Y-101630058D01*
X164606642Y-101502141D01*
X164497859Y-101393358D01*
X164369942Y-101307887D01*
X164227809Y-101249013D01*
X164076922Y-101219000D01*
X163923078Y-101219000D01*
X163772191Y-101249013D01*
X163630058Y-101307887D01*
X163502141Y-101393358D01*
X163393358Y-101502141D01*
X163307887Y-101630058D01*
X163249013Y-101772191D01*
X163219000Y-101923078D01*
X163219000Y-102076922D01*
X163249013Y-102227809D01*
X163307887Y-102369942D01*
X163393358Y-102497859D01*
X163481402Y-102585903D01*
X163407637Y-102646440D01*
X162395087Y-103658992D01*
X159054667Y-103658992D01*
X159054647Y-103658990D01*
X159054644Y-103658990D01*
X159011374Y-103654728D01*
X158968104Y-103658990D01*
X157541010Y-103658990D01*
X157541010Y-98303280D01*
X157545272Y-98260010D01*
X157541010Y-98216737D01*
X157528262Y-98087304D01*
X157477885Y-97921235D01*
X157414936Y-97803465D01*
X157396078Y-97768184D01*
X157327082Y-97684112D01*
X157285985Y-97634035D01*
X157252371Y-97606449D01*
X156869000Y-97223078D01*
X163419000Y-97223078D01*
X163419000Y-97376922D01*
X163449013Y-97527809D01*
X163507887Y-97669942D01*
X163593358Y-97797859D01*
X163702141Y-97906642D01*
X163830058Y-97992113D01*
X163972191Y-98050987D01*
X164123078Y-98081000D01*
X164276922Y-98081000D01*
X164427809Y-98050987D01*
X164569942Y-97992113D01*
X164697859Y-97906642D01*
X164806642Y-97797859D01*
X164892113Y-97669942D01*
X164950987Y-97527809D01*
X164981000Y-97376922D01*
X164981000Y-97223078D01*
X164950987Y-97072191D01*
X164892113Y-96930058D01*
X164806642Y-96802141D01*
X164697859Y-96693358D01*
X164569942Y-96607887D01*
X164427809Y-96549013D01*
X164276922Y-96519000D01*
X164123078Y-96519000D01*
X163972191Y-96549013D01*
X163830058Y-96607887D01*
X163702141Y-96693358D01*
X163593358Y-96802141D01*
X163507887Y-96930058D01*
X163449013Y-97072191D01*
X163419000Y-97223078D01*
X156869000Y-97223078D01*
X153453565Y-93807644D01*
X153425974Y-93774024D01*
X153291824Y-93663931D01*
X153138774Y-93582124D01*
X152972705Y-93531747D01*
X152843272Y-93518999D01*
X152843269Y-93518999D01*
X152799999Y-93514737D01*
X152756729Y-93518999D01*
X150863269Y-93518999D01*
X150819999Y-93514737D01*
X150776729Y-93518999D01*
X150776726Y-93518999D01*
X150647293Y-93531747D01*
X150481224Y-93582124D01*
X150328174Y-93663931D01*
X150194024Y-93774024D01*
X150166437Y-93807639D01*
X149906440Y-94067637D01*
X149823931Y-94168174D01*
X149742124Y-94321225D01*
X149691748Y-94487294D01*
X149674737Y-94659999D01*
X149691748Y-94832704D01*
X149742124Y-94998773D01*
X149823931Y-95151824D01*
X149934025Y-95285973D01*
X150068174Y-95396067D01*
X150221225Y-95477874D01*
X150387294Y-95528250D01*
X150559999Y-95545261D01*
X150633120Y-95538059D01*
X150645171Y-95598640D01*
X150696506Y-95722574D01*
X150771033Y-95834112D01*
X150865888Y-95928967D01*
X150977426Y-96003494D01*
X151101360Y-96054829D01*
X151232927Y-96081000D01*
X151367073Y-96081000D01*
X151498640Y-96054829D01*
X151622574Y-96003494D01*
X151734112Y-95928967D01*
X151828967Y-95834112D01*
X151903494Y-95722574D01*
X151954829Y-95598640D01*
X151981000Y-95467073D01*
X151981000Y-95332927D01*
X151970671Y-95280999D01*
X152435078Y-95280999D01*
X155779011Y-98624933D01*
X155779010Y-103658990D01*
X153862716Y-103658990D01*
X153881000Y-103567073D01*
X153881000Y-103432927D01*
X153870534Y-103380312D01*
X153998640Y-103354829D01*
X154122574Y-103303494D01*
X154234112Y-103228967D01*
X154328967Y-103134112D01*
X154403494Y-103022574D01*
X154454829Y-102898640D01*
X154481000Y-102767073D01*
X154481000Y-102632927D01*
X154454829Y-102501360D01*
X154403494Y-102377426D01*
X154328967Y-102265888D01*
X154234112Y-102171033D01*
X154122574Y-102096506D01*
X153998640Y-102045171D01*
X153867073Y-102019000D01*
X153732927Y-102019000D01*
X153601360Y-102045171D01*
X153477426Y-102096506D01*
X153365888Y-102171033D01*
X153335818Y-102201103D01*
X151982079Y-102201103D01*
X151934112Y-102153136D01*
X151822574Y-102078609D01*
X151698640Y-102027274D01*
X151567073Y-102001103D01*
X151432927Y-102001103D01*
X151301360Y-102027274D01*
X151177426Y-102078609D01*
X151065888Y-102153136D01*
X150971033Y-102247991D01*
X150896506Y-102359529D01*
X150845171Y-102483463D01*
X150819000Y-102615030D01*
X150819000Y-102749176D01*
X150845171Y-102880743D01*
X150896506Y-103004677D01*
X150971033Y-103116215D01*
X151065888Y-103211070D01*
X151177426Y-103285597D01*
X151301360Y-103336932D01*
X151432927Y-103363103D01*
X151567073Y-103363103D01*
X151698640Y-103336932D01*
X151822574Y-103285597D01*
X151934112Y-103211070D01*
X151982079Y-103163103D01*
X152606076Y-103163103D01*
X152596506Y-103177426D01*
X152545171Y-103301360D01*
X152519000Y-103432927D01*
X152519000Y-103465408D01*
X152267394Y-103717015D01*
X151282131Y-103717015D01*
X151207792Y-103724337D01*
X151149514Y-103742015D01*
X144282078Y-103742015D01*
X144234111Y-103694048D01*
X144122573Y-103619521D01*
X143998639Y-103568186D01*
X143867072Y-103542015D01*
X143732926Y-103542015D01*
X143601359Y-103568186D01*
X143477425Y-103619521D01*
X143365887Y-103694048D01*
X143271032Y-103788903D01*
X143196505Y-103900441D01*
X143145170Y-104024375D01*
X143118999Y-104155942D01*
X143118999Y-104290088D01*
X143129328Y-104342016D01*
X141240251Y-104342016D01*
X141196981Y-104337754D01*
X141153711Y-104342016D01*
X141153709Y-104342016D01*
X141024276Y-104354764D01*
X140858207Y-104405141D01*
X140834917Y-104417590D01*
X140705156Y-104486948D01*
X140640522Y-104539992D01*
X140571007Y-104597041D01*
X140543422Y-104630654D01*
X139603076Y-105571001D01*
X134332699Y-105571001D01*
X134390098Y-105485097D01*
X134482893Y-105261069D01*
X134530200Y-105023243D01*
X134530200Y-104780757D01*
X134482893Y-104542931D01*
X134390098Y-104318903D01*
X134255380Y-104117283D01*
X134083917Y-103945820D01*
X133882297Y-103811102D01*
X133658269Y-103718307D01*
X133420443Y-103671000D01*
X133177957Y-103671000D01*
X132940131Y-103718307D01*
X132716103Y-103811102D01*
X132514483Y-103945820D01*
X132343020Y-104117283D01*
X132208302Y-104318903D01*
X132115507Y-104542931D01*
X132068200Y-104780757D01*
X132068200Y-105023243D01*
X132115507Y-105261069D01*
X132208302Y-105485097D01*
X132265701Y-105571001D01*
X131792699Y-105571001D01*
X131850098Y-105485097D01*
X131942893Y-105261069D01*
X131990200Y-105023243D01*
X131990200Y-104780757D01*
X131942893Y-104542931D01*
X131850098Y-104318903D01*
X131715380Y-104117283D01*
X131543917Y-103945820D01*
X131342297Y-103811102D01*
X131118269Y-103718307D01*
X130880443Y-103671000D01*
X130637957Y-103671000D01*
X130400131Y-103718307D01*
X130176103Y-103811102D01*
X130090199Y-103868501D01*
X130090199Y-103395499D01*
X130176103Y-103452898D01*
X130400131Y-103545693D01*
X130637957Y-103593000D01*
X130880443Y-103593000D01*
X131118269Y-103545693D01*
X131342297Y-103452898D01*
X131543917Y-103318180D01*
X131715380Y-103146717D01*
X131850098Y-102945097D01*
X131942893Y-102721069D01*
X131990200Y-102483243D01*
X131990200Y-102240757D01*
X132068200Y-102240757D01*
X132068200Y-102483243D01*
X132115507Y-102721069D01*
X132208302Y-102945097D01*
X132343020Y-103146717D01*
X132514483Y-103318180D01*
X132716103Y-103452898D01*
X132940131Y-103545693D01*
X133177957Y-103593000D01*
X133420443Y-103593000D01*
X133658269Y-103545693D01*
X133882297Y-103452898D01*
X134083917Y-103318180D01*
X134255380Y-103146717D01*
X134390098Y-102945097D01*
X134482893Y-102721069D01*
X134489840Y-102686142D01*
X149217230Y-102686142D01*
X149217230Y-102820288D01*
X149243401Y-102951855D01*
X149294736Y-103075789D01*
X149369263Y-103187327D01*
X149464118Y-103282182D01*
X149575656Y-103356709D01*
X149699590Y-103408044D01*
X149831157Y-103434215D01*
X149965303Y-103434215D01*
X150096870Y-103408044D01*
X150220804Y-103356709D01*
X150332342Y-103282182D01*
X150427197Y-103187327D01*
X150501724Y-103075789D01*
X150553059Y-102951855D01*
X150579230Y-102820288D01*
X150579230Y-102686142D01*
X150553059Y-102554575D01*
X150501724Y-102430641D01*
X150427197Y-102319103D01*
X150332342Y-102224248D01*
X150220804Y-102149721D01*
X150096870Y-102098386D01*
X149965303Y-102072215D01*
X149831157Y-102072215D01*
X149699590Y-102098386D01*
X149575656Y-102149721D01*
X149464118Y-102224248D01*
X149369263Y-102319103D01*
X149294736Y-102430641D01*
X149243401Y-102554575D01*
X149217230Y-102686142D01*
X134489840Y-102686142D01*
X134530200Y-102483243D01*
X134530200Y-102240757D01*
X134482893Y-102002931D01*
X134390098Y-101778903D01*
X134255380Y-101577283D01*
X134083917Y-101405820D01*
X133882297Y-101271102D01*
X133658269Y-101178307D01*
X133420443Y-101131000D01*
X133177957Y-101131000D01*
X132940131Y-101178307D01*
X132716103Y-101271102D01*
X132514483Y-101405820D01*
X132343020Y-101577283D01*
X132208302Y-101778903D01*
X132115507Y-102002931D01*
X132068200Y-102240757D01*
X131990200Y-102240757D01*
X131942893Y-102002931D01*
X131850098Y-101778903D01*
X131715380Y-101577283D01*
X131543917Y-101405820D01*
X131342297Y-101271102D01*
X131118269Y-101178307D01*
X130880443Y-101131000D01*
X130637957Y-101131000D01*
X130400131Y-101178307D01*
X130176103Y-101271102D01*
X130090199Y-101328501D01*
X130090199Y-100855499D01*
X130176103Y-100912898D01*
X130400131Y-101005693D01*
X130637957Y-101053000D01*
X130880443Y-101053000D01*
X131118269Y-101005693D01*
X131342297Y-100912898D01*
X131543917Y-100778180D01*
X131715380Y-100606717D01*
X131850098Y-100405097D01*
X131942893Y-100181069D01*
X131990200Y-99943243D01*
X131990200Y-99700757D01*
X132068200Y-99700757D01*
X132068200Y-99943243D01*
X132115507Y-100181069D01*
X132208302Y-100405097D01*
X132343020Y-100606717D01*
X132514483Y-100778180D01*
X132716103Y-100912898D01*
X132940131Y-101005693D01*
X133177957Y-101053000D01*
X133420443Y-101053000D01*
X133658269Y-101005693D01*
X133882297Y-100912898D01*
X134083917Y-100778180D01*
X134255380Y-100606717D01*
X134390098Y-100405097D01*
X134482893Y-100181069D01*
X134530200Y-99943243D01*
X134530200Y-99700757D01*
X134482893Y-99462931D01*
X134390098Y-99238903D01*
X134255380Y-99037283D01*
X134083917Y-98865820D01*
X133882297Y-98731102D01*
X133658269Y-98638307D01*
X133420443Y-98591000D01*
X133177957Y-98591000D01*
X132940131Y-98638307D01*
X132716103Y-98731102D01*
X132514483Y-98865820D01*
X132343020Y-99037283D01*
X132208302Y-99238903D01*
X132115507Y-99462931D01*
X132068200Y-99700757D01*
X131990200Y-99700757D01*
X131942893Y-99462931D01*
X131850098Y-99238903D01*
X131715380Y-99037283D01*
X131543917Y-98865820D01*
X131342297Y-98731102D01*
X131118269Y-98638307D01*
X130880443Y-98591000D01*
X130637957Y-98591000D01*
X130400131Y-98638307D01*
X130176103Y-98731102D01*
X130094133Y-98785872D01*
X130087170Y-98715171D01*
X130077451Y-98616493D01*
X130052102Y-98532927D01*
X138319000Y-98532927D01*
X138319000Y-98667073D01*
X138345171Y-98798640D01*
X138396506Y-98922574D01*
X138471033Y-99034112D01*
X138565888Y-99128967D01*
X138677426Y-99203494D01*
X138801360Y-99254829D01*
X138932927Y-99281000D01*
X139067073Y-99281000D01*
X139198640Y-99254829D01*
X139322574Y-99203494D01*
X139434112Y-99128967D01*
X139528967Y-99034112D01*
X139603494Y-98922574D01*
X139654829Y-98798640D01*
X139681000Y-98667073D01*
X139681000Y-98532927D01*
X139654829Y-98401360D01*
X139603494Y-98277426D01*
X139528967Y-98165888D01*
X139434112Y-98071033D01*
X139322574Y-97996506D01*
X139198640Y-97945171D01*
X139067073Y-97919000D01*
X138932927Y-97919000D01*
X138801360Y-97945171D01*
X138677426Y-97996506D01*
X138565888Y-98071033D01*
X138471033Y-98165888D01*
X138396506Y-98277426D01*
X138345171Y-98401360D01*
X138319000Y-98532927D01*
X130052102Y-98532927D01*
X130027074Y-98450424D01*
X129945267Y-98297374D01*
X129835174Y-98163224D01*
X129801561Y-98135639D01*
X128826678Y-97160757D01*
X129528200Y-97160757D01*
X129528200Y-97403243D01*
X129575507Y-97641069D01*
X129668302Y-97865097D01*
X129803020Y-98066717D01*
X129974483Y-98238180D01*
X130176103Y-98372898D01*
X130400131Y-98465693D01*
X130637957Y-98513000D01*
X130880443Y-98513000D01*
X131118269Y-98465693D01*
X131342297Y-98372898D01*
X131543917Y-98238180D01*
X131715380Y-98066717D01*
X131850098Y-97865097D01*
X131942893Y-97641069D01*
X131990200Y-97403243D01*
X131990200Y-97160757D01*
X132068200Y-97160757D01*
X132068200Y-97403243D01*
X132115507Y-97641069D01*
X132208302Y-97865097D01*
X132343020Y-98066717D01*
X132514483Y-98238180D01*
X132716103Y-98372898D01*
X132940131Y-98465693D01*
X133177957Y-98513000D01*
X133420443Y-98513000D01*
X133658269Y-98465693D01*
X133882297Y-98372898D01*
X134083917Y-98238180D01*
X134255380Y-98066717D01*
X134390098Y-97865097D01*
X134482893Y-97641069D01*
X134530200Y-97403243D01*
X134530200Y-97160757D01*
X134482893Y-96922931D01*
X134390098Y-96698903D01*
X134255380Y-96497283D01*
X134083917Y-96325820D01*
X133882297Y-96191102D01*
X133658269Y-96098307D01*
X133420443Y-96051000D01*
X133177957Y-96051000D01*
X132940131Y-96098307D01*
X132716103Y-96191102D01*
X132514483Y-96325820D01*
X132343020Y-96497283D01*
X132208302Y-96698903D01*
X132115507Y-96922931D01*
X132068200Y-97160757D01*
X131990200Y-97160757D01*
X131942893Y-96922931D01*
X131850098Y-96698903D01*
X131715380Y-96497283D01*
X131543917Y-96325820D01*
X131342297Y-96191102D01*
X131118269Y-96098307D01*
X130880443Y-96051000D01*
X130637957Y-96051000D01*
X130400131Y-96098307D01*
X130176103Y-96191102D01*
X129974483Y-96325820D01*
X129803020Y-96497283D01*
X129668302Y-96698903D01*
X129575507Y-96922931D01*
X129528200Y-97160757D01*
X128826678Y-97160757D01*
X127150652Y-95484733D01*
X127234112Y-95428967D01*
X127328967Y-95334112D01*
X127403494Y-95222574D01*
X127454829Y-95098640D01*
X127481000Y-94967073D01*
X127481000Y-94832927D01*
X127454829Y-94701360D01*
X127421443Y-94620757D01*
X129528200Y-94620757D01*
X129528200Y-94863243D01*
X129575507Y-95101069D01*
X129668302Y-95325097D01*
X129803020Y-95526717D01*
X129974483Y-95698180D01*
X130176103Y-95832898D01*
X130400131Y-95925693D01*
X130637957Y-95973000D01*
X130880443Y-95973000D01*
X131118269Y-95925693D01*
X131342297Y-95832898D01*
X131543917Y-95698180D01*
X131715380Y-95526717D01*
X131850098Y-95325097D01*
X131942893Y-95101069D01*
X131990200Y-94863243D01*
X131990200Y-94620757D01*
X132068200Y-94620757D01*
X132068200Y-94863243D01*
X132115507Y-95101069D01*
X132208302Y-95325097D01*
X132343020Y-95526717D01*
X132514483Y-95698180D01*
X132716103Y-95832898D01*
X132940131Y-95925693D01*
X133177957Y-95973000D01*
X133420443Y-95973000D01*
X133658269Y-95925693D01*
X133882297Y-95832898D01*
X134083917Y-95698180D01*
X134255380Y-95526717D01*
X134390098Y-95325097D01*
X134482893Y-95101069D01*
X134530200Y-94863243D01*
X134530200Y-94620757D01*
X134482893Y-94382931D01*
X134390098Y-94158903D01*
X134255380Y-93957283D01*
X134083917Y-93785820D01*
X133882297Y-93651102D01*
X133658269Y-93558307D01*
X133420443Y-93511000D01*
X133177957Y-93511000D01*
X132940131Y-93558307D01*
X132716103Y-93651102D01*
X132514483Y-93785820D01*
X132343020Y-93957283D01*
X132208302Y-94158903D01*
X132115507Y-94382931D01*
X132068200Y-94620757D01*
X131990200Y-94620757D01*
X131942893Y-94382931D01*
X131850098Y-94158903D01*
X131715380Y-93957283D01*
X131543917Y-93785820D01*
X131342297Y-93651102D01*
X131118269Y-93558307D01*
X130880443Y-93511000D01*
X130637957Y-93511000D01*
X130400131Y-93558307D01*
X130176103Y-93651102D01*
X129974483Y-93785820D01*
X129803020Y-93957283D01*
X129668302Y-94158903D01*
X129575507Y-94382931D01*
X129528200Y-94620757D01*
X127421443Y-94620757D01*
X127403494Y-94577426D01*
X127328967Y-94465888D01*
X127234112Y-94371033D01*
X127122574Y-94296506D01*
X126998640Y-94245171D01*
X126878689Y-94221311D01*
X126874441Y-94199953D01*
X126871146Y-94166501D01*
X126861388Y-94134332D01*
X126854829Y-94101360D01*
X126841965Y-94070304D01*
X126832206Y-94038132D01*
X126816358Y-94008483D01*
X126803494Y-93977426D01*
X126784817Y-93949475D01*
X126768970Y-93919826D01*
X126747645Y-93893841D01*
X126728967Y-93865888D01*
X126705192Y-93842113D01*
X126683869Y-93816131D01*
X126657885Y-93794806D01*
X126634112Y-93771033D01*
X126606159Y-93752355D01*
X126580174Y-93731030D01*
X126550525Y-93715183D01*
X126522574Y-93696506D01*
X126491517Y-93683642D01*
X126461868Y-93667794D01*
X126429696Y-93658035D01*
X126398640Y-93645171D01*
X126365668Y-93638612D01*
X126333499Y-93628854D01*
X126300047Y-93625559D01*
X126267073Y-93619000D01*
X126233453Y-93619000D01*
X126200000Y-93615705D01*
X126166547Y-93619000D01*
X126132927Y-93619000D01*
X126099953Y-93625559D01*
X126066501Y-93628854D01*
X126034331Y-93638612D01*
X126001360Y-93645171D01*
X125970306Y-93658034D01*
X125938131Y-93667794D01*
X125908480Y-93683643D01*
X125877426Y-93696506D01*
X125849473Y-93715184D01*
X125819827Y-93731030D01*
X125793846Y-93752352D01*
X125765888Y-93771033D01*
X125671033Y-93865888D01*
X125671031Y-93865891D01*
X125442123Y-94094799D01*
X125416131Y-94116130D01*
X125331031Y-94219826D01*
X125267795Y-94338132D01*
X125249028Y-94399999D01*
X125228855Y-94466501D01*
X125215706Y-94599999D01*
X125219001Y-94633452D01*
X125219001Y-94637115D01*
X125174024Y-94674026D01*
X125063931Y-94808177D01*
X124982124Y-94961227D01*
X124931747Y-95127296D01*
X124918999Y-95256729D01*
X124918999Y-95336731D01*
X124914737Y-95380001D01*
X124918999Y-95423271D01*
X124918999Y-95423274D01*
X124931747Y-95552707D01*
X124982124Y-95718776D01*
X125037818Y-95822971D01*
X124965888Y-95871033D01*
X124871033Y-95965888D01*
X124796506Y-96077426D01*
X124745171Y-96201360D01*
X124719000Y-96332927D01*
X124719000Y-96467073D01*
X124745171Y-96598640D01*
X124796506Y-96722574D01*
X124871033Y-96834112D01*
X124965888Y-96928967D01*
X125077426Y-97003494D01*
X125201360Y-97054829D01*
X125332927Y-97081000D01*
X125467073Y-97081000D01*
X125598640Y-97054829D01*
X125722574Y-97003494D01*
X125834112Y-96928967D01*
X125928967Y-96834112D01*
X125960699Y-96786622D01*
X127415306Y-98241228D01*
X120421395Y-98241228D01*
X120397771Y-98238901D01*
X120374147Y-98241228D01*
X120374146Y-98241228D01*
X120303480Y-98248188D01*
X120212811Y-98275692D01*
X120129250Y-98320356D01*
X120056008Y-98380464D01*
X120040946Y-98398817D01*
X119870763Y-98569000D01*
X119802927Y-98569000D01*
X119671360Y-98595171D01*
X119547426Y-98646506D01*
X119435888Y-98721033D01*
X119341033Y-98815888D01*
X119266506Y-98927426D01*
X119215171Y-99051360D01*
X119189000Y-99182927D01*
X119189000Y-99317073D01*
X119215171Y-99448640D01*
X119266506Y-99572574D01*
X119341033Y-99684112D01*
X119435888Y-99778967D01*
X119547426Y-99853494D01*
X119671360Y-99904829D01*
X119802927Y-99931000D01*
X119937073Y-99931000D01*
X120068640Y-99904829D01*
X120192574Y-99853494D01*
X120282662Y-99793299D01*
X120246496Y-99847426D01*
X120195161Y-99971360D01*
X120179637Y-100049402D01*
X120077073Y-100029000D01*
X119942927Y-100029000D01*
X119811360Y-100055171D01*
X119687426Y-100106506D01*
X119575888Y-100181033D01*
X119481033Y-100275888D01*
X119406506Y-100387426D01*
X119365686Y-100485975D01*
X119236256Y-100485975D01*
X119104689Y-100512146D01*
X118980755Y-100563481D01*
X118869217Y-100638008D01*
X118774362Y-100732863D01*
X118699835Y-100844401D01*
X118648500Y-100968335D01*
X118622329Y-101099902D01*
X118622329Y-101234048D01*
X118648500Y-101365615D01*
X118699835Y-101489549D01*
X118774362Y-101601087D01*
X118869217Y-101695942D01*
X118980755Y-101770469D01*
X119104689Y-101821804D01*
X119236256Y-101847975D01*
X119309375Y-101847975D01*
X119334806Y-101868846D01*
X119341781Y-101872574D01*
X119418366Y-101913510D01*
X119509035Y-101941014D01*
X119603328Y-101950301D01*
X119626954Y-101947974D01*
X121175099Y-101947974D01*
X121198725Y-101950301D01*
X121222351Y-101947974D01*
X121293017Y-101941014D01*
X121383686Y-101913510D01*
X121467247Y-101868846D01*
X121540489Y-101808738D01*
X121555555Y-101790380D01*
X122214925Y-101131010D01*
X124210929Y-101131010D01*
X124146506Y-101227426D01*
X124095171Y-101351360D01*
X124069000Y-101482927D01*
X124069000Y-101617073D01*
X124095171Y-101748640D01*
X124146506Y-101872574D01*
X124221033Y-101984112D01*
X124315888Y-102078967D01*
X124427426Y-102153494D01*
X124551360Y-102204829D01*
X124682927Y-102231000D01*
X124817073Y-102231000D01*
X124948640Y-102204829D01*
X125072574Y-102153494D01*
X125184112Y-102078967D01*
X125278967Y-101984112D01*
X125353494Y-101872574D01*
X125404829Y-101748640D01*
X125431000Y-101617073D01*
X125431000Y-101482927D01*
X125404829Y-101351360D01*
X125353494Y-101227426D01*
X125289071Y-101131010D01*
X125797074Y-101131010D01*
X125946326Y-101280262D01*
X126316586Y-101650523D01*
X126769474Y-102103411D01*
X126784536Y-102121764D01*
X126857778Y-102181872D01*
X126941339Y-102226536D01*
X126949366Y-102228971D01*
X127029362Y-102308967D01*
X127082469Y-102344452D01*
X127051033Y-102375888D01*
X126976506Y-102487426D01*
X126925171Y-102611360D01*
X126899000Y-102742927D01*
X126899000Y-102877073D01*
X126925171Y-103008640D01*
X126976506Y-103132574D01*
X127051033Y-103244112D01*
X127145888Y-103338967D01*
X127257426Y-103413494D01*
X127381360Y-103464829D01*
X127512927Y-103491000D01*
X127647073Y-103491000D01*
X127778640Y-103464829D01*
X127902574Y-103413494D01*
X128014112Y-103338967D01*
X128108967Y-103244112D01*
X128183494Y-103132574D01*
X128234829Y-103008640D01*
X128261000Y-102877073D01*
X128261000Y-102742927D01*
X128234829Y-102611360D01*
X128183494Y-102487426D01*
X128108967Y-102375888D01*
X128014112Y-102281033D01*
X127961005Y-102245548D01*
X127992441Y-102214112D01*
X128066968Y-102102574D01*
X128118303Y-101978640D01*
X128141704Y-101861000D01*
X128177073Y-101861000D01*
X128308640Y-101834829D01*
X128328199Y-101826727D01*
X128328200Y-105571001D01*
X128032109Y-105571001D01*
X127902707Y-105531747D01*
X127773274Y-105518999D01*
X127773271Y-105518999D01*
X127730001Y-105514737D01*
X127686731Y-105518999D01*
X117343271Y-105518999D01*
X117300001Y-105514737D01*
X117256731Y-105518999D01*
X117256728Y-105518999D01*
X117127295Y-105531747D01*
X116965179Y-105580925D01*
X116961226Y-105582124D01*
X116808176Y-105663931D01*
X116707638Y-105746439D01*
X116707635Y-105746442D01*
X116674026Y-105774024D01*
X116646444Y-105807634D01*
X116295077Y-106159001D01*
X115330671Y-106159001D01*
X115341000Y-106107073D01*
X115341000Y-105972927D01*
X115314829Y-105841360D01*
X115263494Y-105717426D01*
X115188967Y-105605888D01*
X115094112Y-105511033D01*
X114982574Y-105436506D01*
X114858640Y-105385171D01*
X114727073Y-105359000D01*
X114592927Y-105359000D01*
X114461360Y-105385171D01*
X114337426Y-105436506D01*
X114225888Y-105511033D01*
X114131033Y-105605888D01*
X114056506Y-105717426D01*
X114005171Y-105841360D01*
X113979000Y-105972927D01*
X113979000Y-106107073D01*
X113989329Y-106159001D01*
X109396741Y-106159001D01*
X109347000Y-106118178D01*
X109347000Y-106116079D01*
X109428967Y-106034112D01*
X109503494Y-105922574D01*
X109554829Y-105798640D01*
X109581000Y-105667073D01*
X109581000Y-105532927D01*
X109554829Y-105401360D01*
X109503494Y-105277426D01*
X109428967Y-105165888D01*
X109347000Y-105083921D01*
X109347000Y-98632927D01*
X114219000Y-98632927D01*
X114219000Y-98767073D01*
X114245171Y-98898640D01*
X114296506Y-99022574D01*
X114371033Y-99134112D01*
X114465888Y-99228967D01*
X114577426Y-99303494D01*
X114701360Y-99354829D01*
X114832927Y-99381000D01*
X114967073Y-99381000D01*
X115098640Y-99354829D01*
X115222574Y-99303494D01*
X115334112Y-99228967D01*
X115428967Y-99134112D01*
X115503494Y-99022574D01*
X115554829Y-98898640D01*
X115566880Y-98838059D01*
X115640001Y-98845261D01*
X115812706Y-98828250D01*
X115978775Y-98777874D01*
X116131826Y-98696067D01*
X116265975Y-98585973D01*
X116376069Y-98451824D01*
X116457876Y-98298773D01*
X116508252Y-98132704D01*
X116525263Y-97959999D01*
X116508252Y-97787294D01*
X116481000Y-97697455D01*
X116481000Y-96068188D01*
X118699000Y-96068188D01*
X118699000Y-96202334D01*
X118725171Y-96333901D01*
X118776506Y-96457835D01*
X118851033Y-96569373D01*
X118945888Y-96664228D01*
X119057426Y-96738755D01*
X119181360Y-96790090D01*
X119312927Y-96816261D01*
X119447073Y-96816261D01*
X119578640Y-96790090D01*
X119702574Y-96738755D01*
X119814112Y-96664228D01*
X119908967Y-96569373D01*
X119983494Y-96457835D01*
X120034829Y-96333901D01*
X120061000Y-96202334D01*
X120061000Y-96068188D01*
X120034829Y-95936621D01*
X119983494Y-95812687D01*
X119908967Y-95701149D01*
X119814112Y-95606294D01*
X119702574Y-95531767D01*
X119578640Y-95480432D01*
X119447073Y-95454261D01*
X119312927Y-95454261D01*
X119181360Y-95480432D01*
X119057426Y-95531767D01*
X118945888Y-95606294D01*
X118851033Y-95701149D01*
X118776506Y-95812687D01*
X118725171Y-95936621D01*
X118699000Y-96068188D01*
X116481000Y-96068188D01*
X116481000Y-93912927D01*
X116543739Y-93912927D01*
X116543739Y-94047073D01*
X116569910Y-94178640D01*
X116621245Y-94302574D01*
X116695772Y-94414112D01*
X116790627Y-94508967D01*
X116902165Y-94583494D01*
X117026099Y-94634829D01*
X117157666Y-94661000D01*
X117291812Y-94661000D01*
X117423379Y-94634829D01*
X117547313Y-94583494D01*
X117658851Y-94508967D01*
X117753706Y-94414112D01*
X117828233Y-94302574D01*
X117879568Y-94178640D01*
X117905739Y-94047073D01*
X117905739Y-93912927D01*
X118699000Y-93912927D01*
X118699000Y-94047073D01*
X118725171Y-94178640D01*
X118776506Y-94302574D01*
X118851033Y-94414112D01*
X118945888Y-94508967D01*
X119057426Y-94583494D01*
X119181360Y-94634829D01*
X119312927Y-94661000D01*
X119447073Y-94661000D01*
X119578640Y-94634829D01*
X119702574Y-94583494D01*
X119814112Y-94508967D01*
X119908967Y-94414112D01*
X119983494Y-94302574D01*
X120034829Y-94178640D01*
X120061000Y-94047073D01*
X120061000Y-93912927D01*
X120854261Y-93912927D01*
X120854261Y-94047073D01*
X120880432Y-94178640D01*
X120931767Y-94302574D01*
X121006294Y-94414112D01*
X121101149Y-94508967D01*
X121212687Y-94583494D01*
X121336621Y-94634829D01*
X121468188Y-94661000D01*
X121602334Y-94661000D01*
X121733901Y-94634829D01*
X121857835Y-94583494D01*
X121969373Y-94508967D01*
X122064228Y-94414112D01*
X122138755Y-94302574D01*
X122190090Y-94178640D01*
X122216261Y-94047073D01*
X122216261Y-93912927D01*
X122190090Y-93781360D01*
X122138755Y-93657426D01*
X122064228Y-93545888D01*
X121969373Y-93451033D01*
X121857835Y-93376506D01*
X121733901Y-93325171D01*
X121602334Y-93299000D01*
X121468188Y-93299000D01*
X121336621Y-93325171D01*
X121212687Y-93376506D01*
X121101149Y-93451033D01*
X121006294Y-93545888D01*
X120931767Y-93657426D01*
X120880432Y-93781360D01*
X120854261Y-93912927D01*
X120061000Y-93912927D01*
X120034829Y-93781360D01*
X119983494Y-93657426D01*
X119908967Y-93545888D01*
X119814112Y-93451033D01*
X119702574Y-93376506D01*
X119578640Y-93325171D01*
X119447073Y-93299000D01*
X119312927Y-93299000D01*
X119181360Y-93325171D01*
X119057426Y-93376506D01*
X118945888Y-93451033D01*
X118851033Y-93545888D01*
X118776506Y-93657426D01*
X118725171Y-93781360D01*
X118699000Y-93912927D01*
X117905739Y-93912927D01*
X117879568Y-93781360D01*
X117828233Y-93657426D01*
X117753706Y-93545888D01*
X117658851Y-93451033D01*
X117547313Y-93376506D01*
X117423379Y-93325171D01*
X117291812Y-93299000D01*
X117157666Y-93299000D01*
X117026099Y-93325171D01*
X116902165Y-93376506D01*
X116790627Y-93451033D01*
X116695772Y-93545888D01*
X116621245Y-93657426D01*
X116569910Y-93781360D01*
X116543739Y-93912927D01*
X116481000Y-93912927D01*
X116481000Y-93284919D01*
X118008253Y-91757666D01*
X118699000Y-91757666D01*
X118699000Y-91891812D01*
X118725171Y-92023379D01*
X118776506Y-92147313D01*
X118851033Y-92258851D01*
X118945888Y-92353706D01*
X119057426Y-92428233D01*
X119181360Y-92479568D01*
X119312927Y-92505739D01*
X119447073Y-92505739D01*
X119578640Y-92479568D01*
X119702574Y-92428233D01*
X119814112Y-92353706D01*
X119908967Y-92258851D01*
X119983494Y-92147313D01*
X120011062Y-92080757D01*
X129528200Y-92080757D01*
X129528200Y-92323243D01*
X129575507Y-92561069D01*
X129668302Y-92785097D01*
X129803020Y-92986717D01*
X129974483Y-93158180D01*
X130176103Y-93292898D01*
X130400131Y-93385693D01*
X130637957Y-93433000D01*
X130880443Y-93433000D01*
X131118269Y-93385693D01*
X131342297Y-93292898D01*
X131543917Y-93158180D01*
X131715380Y-92986717D01*
X131850098Y-92785097D01*
X131942893Y-92561069D01*
X131990200Y-92323243D01*
X131990200Y-92080757D01*
X132068200Y-92080757D01*
X132068200Y-92323243D01*
X132115507Y-92561069D01*
X132208302Y-92785097D01*
X132343020Y-92986717D01*
X132514483Y-93158180D01*
X132716103Y-93292898D01*
X132940131Y-93385693D01*
X133177957Y-93433000D01*
X133420443Y-93433000D01*
X133658269Y-93385693D01*
X133882297Y-93292898D01*
X134083917Y-93158180D01*
X134255380Y-92986717D01*
X134390098Y-92785097D01*
X134482893Y-92561069D01*
X134530200Y-92323243D01*
X134530200Y-92080757D01*
X134482893Y-91842931D01*
X134390098Y-91618903D01*
X134255380Y-91417283D01*
X134083917Y-91245820D01*
X133882297Y-91111102D01*
X133658269Y-91018307D01*
X133420443Y-90971000D01*
X133177957Y-90971000D01*
X132940131Y-91018307D01*
X132716103Y-91111102D01*
X132514483Y-91245820D01*
X132343020Y-91417283D01*
X132208302Y-91618903D01*
X132115507Y-91842931D01*
X132068200Y-92080757D01*
X131990200Y-92080757D01*
X131942893Y-91842931D01*
X131850098Y-91618903D01*
X131715380Y-91417283D01*
X131543917Y-91245820D01*
X131342297Y-91111102D01*
X131118269Y-91018307D01*
X130880443Y-90971000D01*
X130637957Y-90971000D01*
X130400131Y-91018307D01*
X130176103Y-91111102D01*
X129974483Y-91245820D01*
X129803020Y-91417283D01*
X129668302Y-91618903D01*
X129575507Y-91842931D01*
X129528200Y-92080757D01*
X120011062Y-92080757D01*
X120034829Y-92023379D01*
X120061000Y-91891812D01*
X120061000Y-91757666D01*
X120034829Y-91626099D01*
X119983494Y-91502165D01*
X119908967Y-91390627D01*
X119814112Y-91295772D01*
X119702574Y-91221245D01*
X119578640Y-91169910D01*
X119447073Y-91143739D01*
X119312927Y-91143739D01*
X119181360Y-91169910D01*
X119057426Y-91221245D01*
X118945888Y-91295772D01*
X118851033Y-91390627D01*
X118776506Y-91502165D01*
X118725171Y-91626099D01*
X118699000Y-91757666D01*
X118008253Y-91757666D01*
X121454698Y-88311222D01*
X121496719Y-88374112D01*
X121591574Y-88468967D01*
X121703112Y-88543494D01*
X121827046Y-88594829D01*
X121958613Y-88621000D01*
X121966883Y-88621000D01*
X121927793Y-88694132D01*
X121905840Y-88766502D01*
X121888853Y-88822501D01*
X121875704Y-88955999D01*
X121878999Y-88989452D01*
X121878999Y-89637920D01*
X121875704Y-89671373D01*
X121878999Y-89704826D01*
X121888853Y-89804872D01*
X121927794Y-89933241D01*
X121991030Y-90051547D01*
X122076130Y-90155243D01*
X122102121Y-90176573D01*
X122265344Y-90339796D01*
X122265346Y-90339799D01*
X122360201Y-90434654D01*
X122388163Y-90453338D01*
X122414140Y-90474656D01*
X122443777Y-90490497D01*
X122471739Y-90509181D01*
X122502805Y-90522049D01*
X122532445Y-90537892D01*
X122564610Y-90547649D01*
X122595673Y-90560516D01*
X122628647Y-90567075D01*
X122660814Y-90576833D01*
X122694266Y-90580128D01*
X122727240Y-90586687D01*
X122760859Y-90586687D01*
X122794312Y-90589982D01*
X122827765Y-90586687D01*
X122861386Y-90586687D01*
X122894361Y-90580128D01*
X122927811Y-90576833D01*
X122959976Y-90567076D01*
X122992953Y-90560516D01*
X123024017Y-90547649D01*
X123056181Y-90537892D01*
X123085821Y-90522049D01*
X123116887Y-90509181D01*
X123144849Y-90490497D01*
X123174486Y-90474656D01*
X123200463Y-90453338D01*
X123228425Y-90434654D01*
X123252202Y-90410877D01*
X123278182Y-90389556D01*
X123299503Y-90363576D01*
X123323280Y-90339799D01*
X123341964Y-90311837D01*
X123363282Y-90285860D01*
X123379123Y-90256223D01*
X123397807Y-90228261D01*
X123410675Y-90197195D01*
X123426518Y-90167555D01*
X123436275Y-90135391D01*
X123449142Y-90104327D01*
X123455702Y-90071350D01*
X123465459Y-90039185D01*
X123468053Y-90012848D01*
X123558640Y-89994829D01*
X123682574Y-89943494D01*
X123698388Y-89932927D01*
X124519000Y-89932927D01*
X124519000Y-90067073D01*
X124545171Y-90198640D01*
X124596506Y-90322574D01*
X124671033Y-90434112D01*
X124765888Y-90528967D01*
X124877426Y-90603494D01*
X125001360Y-90654829D01*
X125132927Y-90681000D01*
X125267073Y-90681000D01*
X125398640Y-90654829D01*
X125522574Y-90603494D01*
X125634112Y-90528967D01*
X125728967Y-90434112D01*
X125803494Y-90322574D01*
X125854829Y-90198640D01*
X125881000Y-90067073D01*
X125881000Y-89932927D01*
X125854829Y-89801360D01*
X125803494Y-89677426D01*
X125728967Y-89565888D01*
X125634112Y-89471033D01*
X125522574Y-89396506D01*
X125398640Y-89345171D01*
X125267073Y-89319000D01*
X125132927Y-89319000D01*
X125001360Y-89345171D01*
X124877426Y-89396506D01*
X124765888Y-89471033D01*
X124671033Y-89565888D01*
X124596506Y-89677426D01*
X124545171Y-89801360D01*
X124519000Y-89932927D01*
X123698388Y-89932927D01*
X123794112Y-89868967D01*
X123888967Y-89774112D01*
X123963494Y-89662574D01*
X124014829Y-89538640D01*
X124041000Y-89407073D01*
X124041000Y-89272927D01*
X124014829Y-89141360D01*
X123963494Y-89017426D01*
X123888967Y-88905888D01*
X123794112Y-88811033D01*
X123709769Y-88754677D01*
X123772205Y-88637867D01*
X123811145Y-88509498D01*
X123820999Y-88409452D01*
X123820999Y-88409451D01*
X123824294Y-88375999D01*
X123820999Y-88342546D01*
X123820999Y-87903764D01*
X123824294Y-87870311D01*
X123811145Y-87736812D01*
X123808548Y-87728250D01*
X123772205Y-87608443D01*
X123708969Y-87490137D01*
X123623869Y-87386441D01*
X123597878Y-87365111D01*
X122999343Y-86766577D01*
X123444921Y-86320999D01*
X124216710Y-86320999D01*
X124216730Y-86321001D01*
X124216733Y-86321001D01*
X124260003Y-86325263D01*
X124303273Y-86321001D01*
X126034208Y-86321001D01*
X125996506Y-86377426D01*
X125945171Y-86501360D01*
X125919000Y-86632927D01*
X125919000Y-86767073D01*
X125945171Y-86898640D01*
X125996506Y-87022574D01*
X126071033Y-87134112D01*
X126165888Y-87228967D01*
X126277426Y-87303494D01*
X126401360Y-87354829D01*
X126532927Y-87381000D01*
X126667073Y-87381000D01*
X126798640Y-87354829D01*
X126922574Y-87303494D01*
X127034112Y-87228967D01*
X127128967Y-87134112D01*
X127203494Y-87022574D01*
X127254829Y-86898640D01*
X127281000Y-86767073D01*
X127281000Y-86632927D01*
X127254829Y-86501360D01*
X127203494Y-86377426D01*
X127165792Y-86321001D01*
X129271395Y-86321001D01*
X129274200Y-86836250D01*
X129432950Y-86995000D01*
X130632200Y-86995000D01*
X130632200Y-86975000D01*
X130886200Y-86975000D01*
X130886200Y-86995000D01*
X130906200Y-86995000D01*
X130906200Y-87249000D01*
X130886200Y-87249000D01*
X130886200Y-87269000D01*
X130632200Y-87269000D01*
X130632200Y-87249000D01*
X129432950Y-87249000D01*
X129274200Y-87407750D01*
X129271128Y-87972000D01*
X129283388Y-88096482D01*
X129319698Y-88216180D01*
X129378663Y-88326494D01*
X129458015Y-88423185D01*
X129554706Y-88502537D01*
X129665020Y-88561502D01*
X129784718Y-88597812D01*
X129909200Y-88610072D01*
X130119494Y-88608927D01*
X129974483Y-88705820D01*
X129803020Y-88877283D01*
X129668302Y-89078903D01*
X129575507Y-89302931D01*
X129528200Y-89540757D01*
X129528200Y-89783243D01*
X129575507Y-90021069D01*
X129668302Y-90245097D01*
X129803020Y-90446717D01*
X129974483Y-90618180D01*
X130176103Y-90752898D01*
X130400131Y-90845693D01*
X130637957Y-90893000D01*
X130880443Y-90893000D01*
X131118269Y-90845693D01*
X131342297Y-90752898D01*
X131543917Y-90618180D01*
X131715380Y-90446717D01*
X131850098Y-90245097D01*
X131942893Y-90021069D01*
X131990200Y-89783243D01*
X131990200Y-89540757D01*
X132068200Y-89540757D01*
X132068200Y-89783243D01*
X132115507Y-90021069D01*
X132208302Y-90245097D01*
X132343020Y-90446717D01*
X132514483Y-90618180D01*
X132716103Y-90752898D01*
X132940131Y-90845693D01*
X133177957Y-90893000D01*
X133420443Y-90893000D01*
X133658269Y-90845693D01*
X133882297Y-90752898D01*
X134083917Y-90618180D01*
X134255380Y-90446717D01*
X134390098Y-90245097D01*
X134482893Y-90021069D01*
X134530200Y-89783243D01*
X134530200Y-89540757D01*
X134482893Y-89302931D01*
X134390098Y-89078903D01*
X134255380Y-88877283D01*
X134083917Y-88705820D01*
X133882297Y-88571102D01*
X133658269Y-88478307D01*
X133420443Y-88431000D01*
X133177957Y-88431000D01*
X132940131Y-88478307D01*
X132716103Y-88571102D01*
X132514483Y-88705820D01*
X132343020Y-88877283D01*
X132208302Y-89078903D01*
X132115507Y-89302931D01*
X132068200Y-89540757D01*
X131990200Y-89540757D01*
X131942893Y-89302931D01*
X131850098Y-89078903D01*
X131715380Y-88877283D01*
X131543917Y-88705820D01*
X131398906Y-88608927D01*
X131609200Y-88610072D01*
X131733682Y-88597812D01*
X131853380Y-88561502D01*
X131963694Y-88502537D01*
X132060385Y-88423185D01*
X132139737Y-88326494D01*
X132198702Y-88216180D01*
X132235012Y-88096482D01*
X132247272Y-87972000D01*
X132246127Y-87761706D01*
X132343020Y-87906717D01*
X132514483Y-88078180D01*
X132716103Y-88212898D01*
X132940131Y-88305693D01*
X133177957Y-88353000D01*
X133420443Y-88353000D01*
X133658269Y-88305693D01*
X133882297Y-88212898D01*
X134083917Y-88078180D01*
X134255380Y-87906717D01*
X134390098Y-87705097D01*
X134482893Y-87481069D01*
X134530200Y-87243243D01*
X134530200Y-87000757D01*
X134482893Y-86762931D01*
X134390098Y-86538903D01*
X134255380Y-86337283D01*
X134239098Y-86321001D01*
X135019001Y-86321001D01*
X135019000Y-97643272D01*
X135031748Y-97772705D01*
X135082125Y-97938774D01*
X135163932Y-98091824D01*
X135274025Y-98225975D01*
X135408175Y-98336068D01*
X135561225Y-98417875D01*
X135727294Y-98468252D01*
X135900000Y-98485262D01*
X136072705Y-98468252D01*
X136238774Y-98417875D01*
X136391824Y-98336068D01*
X136525975Y-98225975D01*
X136636068Y-98091825D01*
X136717875Y-97938775D01*
X136768252Y-97772706D01*
X136781000Y-97643273D01*
X136781000Y-97182927D01*
X140869000Y-97182927D01*
X140869000Y-97317073D01*
X140895171Y-97448640D01*
X140946506Y-97572574D01*
X141015553Y-97675910D01*
X141015552Y-98514374D01*
X141013225Y-98538001D01*
X141022512Y-98632293D01*
X141025223Y-98641229D01*
X141050016Y-98722961D01*
X141094680Y-98806523D01*
X141154788Y-98879765D01*
X141173146Y-98894831D01*
X142151726Y-99873411D01*
X142166787Y-99891764D01*
X142240029Y-99951872D01*
X142265851Y-99965674D01*
X142323589Y-99996536D01*
X142414258Y-100024040D01*
X142508551Y-100033327D01*
X142532177Y-100031000D01*
X146060936Y-100031000D01*
X145996506Y-100127426D01*
X145945171Y-100251360D01*
X145919000Y-100382927D01*
X145919000Y-100517073D01*
X145945171Y-100648640D01*
X145996506Y-100772574D01*
X146071033Y-100884112D01*
X146165888Y-100978967D01*
X146277426Y-101053494D01*
X146401360Y-101104829D01*
X146532927Y-101131000D01*
X146667073Y-101131000D01*
X146798640Y-101104829D01*
X146922574Y-101053494D01*
X147034112Y-100978967D01*
X147128967Y-100884112D01*
X147203494Y-100772574D01*
X147241425Y-100681000D01*
X149829329Y-100681000D01*
X149819000Y-100732927D01*
X149819000Y-100867073D01*
X149845171Y-100998640D01*
X149896506Y-101122574D01*
X149971033Y-101234112D01*
X150065888Y-101328967D01*
X150177426Y-101403494D01*
X150301360Y-101454829D01*
X150432927Y-101481000D01*
X150567073Y-101481000D01*
X150698640Y-101454829D01*
X150822574Y-101403494D01*
X150934112Y-101328967D01*
X150982079Y-101281000D01*
X152017921Y-101281000D01*
X152065888Y-101328967D01*
X152177426Y-101403494D01*
X152301360Y-101454829D01*
X152432927Y-101481000D01*
X152567073Y-101481000D01*
X152698640Y-101454829D01*
X152822574Y-101403494D01*
X152934112Y-101328967D01*
X153028967Y-101234112D01*
X153103494Y-101122574D01*
X153154829Y-100998640D01*
X153181000Y-100867073D01*
X153181000Y-100732927D01*
X153170671Y-100681000D01*
X153917921Y-100681000D01*
X153965888Y-100728967D01*
X154077426Y-100803494D01*
X154201360Y-100854829D01*
X154332927Y-100881000D01*
X154467073Y-100881000D01*
X154598640Y-100854829D01*
X154722574Y-100803494D01*
X154834112Y-100728967D01*
X154928967Y-100634112D01*
X155003494Y-100522574D01*
X155054829Y-100398640D01*
X155081000Y-100267073D01*
X155081000Y-100132927D01*
X155054829Y-100001360D01*
X155003494Y-99877426D01*
X154928967Y-99765888D01*
X154834112Y-99671033D01*
X154722574Y-99596506D01*
X154598640Y-99545171D01*
X154467073Y-99519000D01*
X154332927Y-99519000D01*
X154201360Y-99545171D01*
X154077426Y-99596506D01*
X153965888Y-99671033D01*
X153917921Y-99719000D01*
X150960725Y-99719000D01*
X150981000Y-99617073D01*
X150981000Y-99482927D01*
X150954829Y-99351360D01*
X150903494Y-99227426D01*
X150828967Y-99115888D01*
X150734112Y-99021033D01*
X150622574Y-98946506D01*
X150498640Y-98895171D01*
X150367073Y-98869000D01*
X150281000Y-98869000D01*
X150281000Y-98782927D01*
X150254829Y-98651360D01*
X150203494Y-98527426D01*
X150128967Y-98415888D01*
X150034112Y-98321033D01*
X149922574Y-98246506D01*
X149798640Y-98195171D01*
X149667073Y-98169000D01*
X149532927Y-98169000D01*
X149401360Y-98195171D01*
X149277426Y-98246506D01*
X149165888Y-98321033D01*
X149117921Y-98369000D01*
X142895790Y-98369000D01*
X142777553Y-98250763D01*
X142777553Y-98182927D01*
X142751382Y-98051360D01*
X142700047Y-97927426D01*
X142625520Y-97815888D01*
X142530665Y-97721033D01*
X142419127Y-97646506D01*
X142295193Y-97595171D01*
X142163626Y-97569000D01*
X142154974Y-97569000D01*
X142204829Y-97448640D01*
X142227846Y-97332927D01*
X148719000Y-97332927D01*
X148719000Y-97467073D01*
X148745171Y-97598640D01*
X148796506Y-97722574D01*
X148871033Y-97834112D01*
X148965888Y-97928967D01*
X149077426Y-98003494D01*
X149201360Y-98054829D01*
X149332927Y-98081000D01*
X149467073Y-98081000D01*
X149598640Y-98054829D01*
X149722574Y-98003494D01*
X149834112Y-97928967D01*
X149928967Y-97834112D01*
X150003494Y-97722574D01*
X150054829Y-97598640D01*
X150081000Y-97467073D01*
X150081000Y-97332927D01*
X150054829Y-97201360D01*
X150003494Y-97077426D01*
X149928967Y-96965888D01*
X149834112Y-96871033D01*
X149722574Y-96796506D01*
X149598640Y-96745171D01*
X149467073Y-96719000D01*
X149332927Y-96719000D01*
X149201360Y-96745171D01*
X149077426Y-96796506D01*
X148965888Y-96871033D01*
X148871033Y-96965888D01*
X148796506Y-97077426D01*
X148745171Y-97201360D01*
X148719000Y-97332927D01*
X142227846Y-97332927D01*
X142231000Y-97317073D01*
X142231000Y-97182927D01*
X142204829Y-97051360D01*
X142153494Y-96927426D01*
X142078967Y-96815888D01*
X141984112Y-96721033D01*
X141872574Y-96646506D01*
X141748640Y-96595171D01*
X141617073Y-96569000D01*
X141482927Y-96569000D01*
X141351360Y-96595171D01*
X141227426Y-96646506D01*
X141115888Y-96721033D01*
X141021033Y-96815888D01*
X140946506Y-96927426D01*
X140895171Y-97051360D01*
X140869000Y-97182927D01*
X136781000Y-97182927D01*
X136781000Y-96068188D01*
X144099000Y-96068188D01*
X144099000Y-96202334D01*
X144125171Y-96333901D01*
X144176506Y-96457835D01*
X144251033Y-96569373D01*
X144345888Y-96664228D01*
X144457426Y-96738755D01*
X144581360Y-96790090D01*
X144712927Y-96816261D01*
X144847073Y-96816261D01*
X144978640Y-96790090D01*
X145102574Y-96738755D01*
X145214112Y-96664228D01*
X145308967Y-96569373D01*
X145383494Y-96457835D01*
X145434829Y-96333901D01*
X145461000Y-96202334D01*
X145461000Y-96068188D01*
X145434829Y-95936621D01*
X145383494Y-95812687D01*
X145308967Y-95701149D01*
X145214112Y-95606294D01*
X145102574Y-95531767D01*
X144978640Y-95480432D01*
X144847073Y-95454261D01*
X144712927Y-95454261D01*
X144581360Y-95480432D01*
X144457426Y-95531767D01*
X144345888Y-95606294D01*
X144251033Y-95701149D01*
X144176506Y-95812687D01*
X144125171Y-95936621D01*
X144099000Y-96068188D01*
X136781000Y-96068188D01*
X136781000Y-94632927D01*
X137019000Y-94632927D01*
X137019000Y-94767073D01*
X137045171Y-94898640D01*
X137096506Y-95022574D01*
X137171033Y-95134112D01*
X137265888Y-95228967D01*
X137377426Y-95303494D01*
X137501360Y-95354829D01*
X137632927Y-95381000D01*
X137767073Y-95381000D01*
X137898640Y-95354829D01*
X138022574Y-95303494D01*
X138134112Y-95228967D01*
X138228967Y-95134112D01*
X138303494Y-95022574D01*
X138354829Y-94898640D01*
X138381000Y-94767073D01*
X138381000Y-94632927D01*
X138354829Y-94501360D01*
X138303494Y-94377426D01*
X138228967Y-94265888D01*
X138134112Y-94171033D01*
X138022574Y-94096506D01*
X137898640Y-94045171D01*
X137767073Y-94019000D01*
X137632927Y-94019000D01*
X137501360Y-94045171D01*
X137377426Y-94096506D01*
X137265888Y-94171033D01*
X137171033Y-94265888D01*
X137096506Y-94377426D01*
X137045171Y-94501360D01*
X137019000Y-94632927D01*
X136781000Y-94632927D01*
X136781000Y-93912927D01*
X141943739Y-93912927D01*
X141943739Y-94047073D01*
X141969910Y-94178640D01*
X142021245Y-94302574D01*
X142095772Y-94414112D01*
X142190627Y-94508967D01*
X142302165Y-94583494D01*
X142426099Y-94634829D01*
X142557666Y-94661000D01*
X142691812Y-94661000D01*
X142823379Y-94634829D01*
X142947313Y-94583494D01*
X143058851Y-94508967D01*
X143153706Y-94414112D01*
X143228233Y-94302574D01*
X143279568Y-94178640D01*
X143305739Y-94047073D01*
X143305739Y-93912927D01*
X144099000Y-93912927D01*
X144099000Y-94047073D01*
X144125171Y-94178640D01*
X144176506Y-94302574D01*
X144251033Y-94414112D01*
X144345888Y-94508967D01*
X144457426Y-94583494D01*
X144581360Y-94634829D01*
X144712927Y-94661000D01*
X144847073Y-94661000D01*
X144978640Y-94634829D01*
X145102574Y-94583494D01*
X145214112Y-94508967D01*
X145308967Y-94414112D01*
X145383494Y-94302574D01*
X145434829Y-94178640D01*
X145461000Y-94047073D01*
X145461000Y-93912927D01*
X146254261Y-93912927D01*
X146254261Y-94047073D01*
X146280432Y-94178640D01*
X146331767Y-94302574D01*
X146406294Y-94414112D01*
X146501149Y-94508967D01*
X146612687Y-94583494D01*
X146736621Y-94634829D01*
X146868188Y-94661000D01*
X147002334Y-94661000D01*
X147133901Y-94634829D01*
X147257835Y-94583494D01*
X147369373Y-94508967D01*
X147464228Y-94414112D01*
X147538755Y-94302574D01*
X147590090Y-94178640D01*
X147616261Y-94047073D01*
X147616261Y-93912927D01*
X147590090Y-93781360D01*
X147538755Y-93657426D01*
X147464228Y-93545888D01*
X147369373Y-93451033D01*
X147257835Y-93376506D01*
X147133901Y-93325171D01*
X147002334Y-93299000D01*
X146868188Y-93299000D01*
X146736621Y-93325171D01*
X146612687Y-93376506D01*
X146501149Y-93451033D01*
X146406294Y-93545888D01*
X146331767Y-93657426D01*
X146280432Y-93781360D01*
X146254261Y-93912927D01*
X145461000Y-93912927D01*
X145434829Y-93781360D01*
X145383494Y-93657426D01*
X145308967Y-93545888D01*
X145214112Y-93451033D01*
X145102574Y-93376506D01*
X144978640Y-93325171D01*
X144847073Y-93299000D01*
X144712927Y-93299000D01*
X144581360Y-93325171D01*
X144457426Y-93376506D01*
X144345888Y-93451033D01*
X144251033Y-93545888D01*
X144176506Y-93657426D01*
X144125171Y-93781360D01*
X144099000Y-93912927D01*
X143305739Y-93912927D01*
X143279568Y-93781360D01*
X143228233Y-93657426D01*
X143153706Y-93545888D01*
X143058851Y-93451033D01*
X142947313Y-93376506D01*
X142823379Y-93325171D01*
X142691812Y-93299000D01*
X142557666Y-93299000D01*
X142426099Y-93325171D01*
X142302165Y-93376506D01*
X142190627Y-93451033D01*
X142095772Y-93545888D01*
X142021245Y-93657426D01*
X141969910Y-93781360D01*
X141943739Y-93912927D01*
X136781000Y-93912927D01*
X136781000Y-91757666D01*
X144099000Y-91757666D01*
X144099000Y-91891812D01*
X144125171Y-92023379D01*
X144176506Y-92147313D01*
X144251033Y-92258851D01*
X144345888Y-92353706D01*
X144457426Y-92428233D01*
X144581360Y-92479568D01*
X144712927Y-92505739D01*
X144847073Y-92505739D01*
X144978640Y-92479568D01*
X145102574Y-92428233D01*
X145214112Y-92353706D01*
X145308967Y-92258851D01*
X145383494Y-92147313D01*
X145434829Y-92023379D01*
X145461000Y-91891812D01*
X145461000Y-91757666D01*
X145434829Y-91626099D01*
X145383494Y-91502165D01*
X145308967Y-91390627D01*
X145214112Y-91295772D01*
X145102574Y-91221245D01*
X144978640Y-91169910D01*
X144847073Y-91143739D01*
X144712927Y-91143739D01*
X144581360Y-91169910D01*
X144457426Y-91221245D01*
X144345888Y-91295772D01*
X144251033Y-91390627D01*
X144176506Y-91502165D01*
X144125171Y-91626099D01*
X144099000Y-91757666D01*
X136781000Y-91757666D01*
X136781000Y-90772927D01*
X149979000Y-90772927D01*
X149979000Y-90907073D01*
X150005171Y-91038640D01*
X150056506Y-91162574D01*
X150131033Y-91274112D01*
X150225888Y-91368967D01*
X150337426Y-91443494D01*
X150461360Y-91494829D01*
X150592927Y-91521000D01*
X150727073Y-91521000D01*
X150858640Y-91494829D01*
X150982574Y-91443494D01*
X151094112Y-91368967D01*
X151188967Y-91274112D01*
X151263494Y-91162574D01*
X151314829Y-91038640D01*
X151341000Y-90907073D01*
X151341000Y-90772927D01*
X151314829Y-90641360D01*
X151263494Y-90517426D01*
X151188967Y-90405888D01*
X151094112Y-90311033D01*
X150982574Y-90236506D01*
X150858640Y-90185171D01*
X150727073Y-90159000D01*
X150592927Y-90159000D01*
X150461360Y-90185171D01*
X150337426Y-90236506D01*
X150225888Y-90311033D01*
X150131033Y-90405888D01*
X150056506Y-90517426D01*
X150005171Y-90641360D01*
X149979000Y-90772927D01*
X136781000Y-90772927D01*
X136781000Y-86321001D01*
X147779002Y-86321001D01*
X147779001Y-87093605D01*
X147758640Y-87085171D01*
X147627073Y-87059000D01*
X147492927Y-87059000D01*
X147361360Y-87085171D01*
X147237426Y-87136506D01*
X147125888Y-87211033D01*
X147031033Y-87305888D01*
X146956506Y-87417426D01*
X146905171Y-87541360D01*
X146879000Y-87672927D01*
X146879000Y-87807073D01*
X146905171Y-87938640D01*
X146956506Y-88062574D01*
X147031033Y-88174112D01*
X147125888Y-88268967D01*
X147237426Y-88343494D01*
X147310706Y-88373848D01*
X147267794Y-88454131D01*
X147235224Y-88561502D01*
X147228854Y-88582500D01*
X147215705Y-88715998D01*
X147219000Y-88749451D01*
X147219000Y-88866547D01*
X147215705Y-88900000D01*
X147219000Y-88933452D01*
X147219000Y-88933453D01*
X147228854Y-89033499D01*
X147267794Y-89161868D01*
X147278999Y-89182831D01*
X147278999Y-89390548D01*
X147275704Y-89424001D01*
X147278999Y-89457453D01*
X147278999Y-89457454D01*
X147288853Y-89557500D01*
X147327793Y-89685869D01*
X147391029Y-89804175D01*
X147476130Y-89907871D01*
X147502120Y-89929200D01*
X147710114Y-90137195D01*
X147787825Y-90200970D01*
X147906131Y-90264206D01*
X148034499Y-90303146D01*
X148167998Y-90316296D01*
X148301497Y-90303146D01*
X148429867Y-90264206D01*
X148548172Y-90200970D01*
X148651868Y-90115870D01*
X148685804Y-90074518D01*
X148694112Y-90068967D01*
X148788967Y-89974112D01*
X148863494Y-89862574D01*
X148914829Y-89738640D01*
X148926295Y-89681000D01*
X148967073Y-89681000D01*
X149098640Y-89654829D01*
X149222574Y-89603494D01*
X149334112Y-89528967D01*
X149428967Y-89434112D01*
X149503494Y-89322574D01*
X149554829Y-89198640D01*
X149581000Y-89067073D01*
X149581000Y-88932927D01*
X149554829Y-88801360D01*
X149503494Y-88677426D01*
X149428967Y-88565888D01*
X149334112Y-88471033D01*
X149222574Y-88396506D01*
X149132553Y-88359218D01*
X149144296Y-88239999D01*
X149141001Y-88206546D01*
X149141001Y-87225142D01*
X149156506Y-87262574D01*
X149231033Y-87374112D01*
X149325888Y-87468967D01*
X149437426Y-87543494D01*
X149561360Y-87594829D01*
X149692927Y-87621000D01*
X149827073Y-87621000D01*
X149958640Y-87594829D01*
X150082574Y-87543494D01*
X150194112Y-87468967D01*
X150288967Y-87374112D01*
X150363494Y-87262574D01*
X150414829Y-87138640D01*
X150441000Y-87007073D01*
X150441000Y-86872927D01*
X150414829Y-86741360D01*
X150363494Y-86617426D01*
X150288967Y-86505888D01*
X150194112Y-86411033D01*
X150082574Y-86336506D01*
X150045142Y-86321001D01*
X151678579Y-86321001D01*
X151674738Y-86360000D01*
X151679000Y-86403270D01*
X151679000Y-86403272D01*
X151691748Y-86532705D01*
X151737075Y-86682125D01*
X151742125Y-86698774D01*
X151823932Y-86851825D01*
X151841250Y-86872927D01*
X151934025Y-86985975D01*
X151967644Y-87013566D01*
X153107637Y-88153559D01*
X153107643Y-88153564D01*
X158846439Y-93892361D01*
X158874025Y-93925975D01*
X158924981Y-93967793D01*
X159008174Y-94036068D01*
X159155919Y-94115039D01*
X159161225Y-94117875D01*
X159327294Y-94168252D01*
X159456727Y-94181000D01*
X159456730Y-94181000D01*
X159500000Y-94185262D01*
X159543270Y-94181000D01*
X163843273Y-94181000D01*
X163972706Y-94168252D01*
X164138775Y-94117875D01*
X164291825Y-94036068D01*
X164425975Y-93925975D01*
X164536068Y-93791825D01*
X164617875Y-93638775D01*
X164668252Y-93472706D01*
X164685262Y-93300000D01*
X164668252Y-93127294D01*
X164617875Y-92961225D01*
X164536068Y-92808175D01*
X164425975Y-92674025D01*
X164368098Y-92626527D01*
X164397859Y-92606642D01*
X164506642Y-92497859D01*
X164592113Y-92369942D01*
X164650987Y-92227809D01*
X164681000Y-92076922D01*
X164681000Y-91923078D01*
X164650987Y-91772191D01*
X164592113Y-91630058D01*
X164506642Y-91502141D01*
X164397859Y-91393358D01*
X164269942Y-91307887D01*
X164127809Y-91249013D01*
X163976922Y-91219000D01*
X163823078Y-91219000D01*
X163672191Y-91249013D01*
X163530058Y-91307887D01*
X163402141Y-91393358D01*
X163293358Y-91502141D01*
X163207887Y-91630058D01*
X163149013Y-91772191D01*
X163119000Y-91923078D01*
X163119000Y-92076922D01*
X163149013Y-92227809D01*
X163207887Y-92369942D01*
X163240666Y-92419000D01*
X159864922Y-92419000D01*
X154948921Y-87503000D01*
X155052576Y-87503000D01*
X155273401Y-87459075D01*
X155481413Y-87372913D01*
X155668620Y-87247826D01*
X155827826Y-87088620D01*
X155952913Y-86901413D01*
X156039075Y-86693401D01*
X156083000Y-86472576D01*
X156083000Y-86247424D01*
X156337000Y-86247424D01*
X156337000Y-86472576D01*
X156380925Y-86693401D01*
X156467087Y-86901413D01*
X156592174Y-87088620D01*
X156751380Y-87247826D01*
X156938587Y-87372913D01*
X157146599Y-87459075D01*
X157367424Y-87503000D01*
X157592576Y-87503000D01*
X157813401Y-87459075D01*
X158021413Y-87372913D01*
X158208620Y-87247826D01*
X158367826Y-87088620D01*
X158492913Y-86901413D01*
X158579075Y-86693401D01*
X158623000Y-86472576D01*
X158623000Y-86247424D01*
X158877000Y-86247424D01*
X158877000Y-86472576D01*
X158920925Y-86693401D01*
X159007087Y-86901413D01*
X159132174Y-87088620D01*
X159291380Y-87247826D01*
X159478587Y-87372913D01*
X159686599Y-87459075D01*
X159907424Y-87503000D01*
X160132576Y-87503000D01*
X160353401Y-87459075D01*
X160561413Y-87372913D01*
X160748620Y-87247826D01*
X160907826Y-87088620D01*
X161032913Y-86901413D01*
X161119075Y-86693401D01*
X161163000Y-86472576D01*
X161163000Y-86247424D01*
X161417000Y-86247424D01*
X161417000Y-86472576D01*
X161460925Y-86693401D01*
X161547087Y-86901413D01*
X161672174Y-87088620D01*
X161831380Y-87247826D01*
X162018587Y-87372913D01*
X162226599Y-87459075D01*
X162447424Y-87503000D01*
X162672576Y-87503000D01*
X162893401Y-87459075D01*
X163101413Y-87372913D01*
X163288620Y-87247826D01*
X163447826Y-87088620D01*
X163572913Y-86901413D01*
X163659075Y-86693401D01*
X163703000Y-86472576D01*
X163703000Y-86247424D01*
X163957000Y-86247424D01*
X163957000Y-86472576D01*
X164000925Y-86693401D01*
X164087087Y-86901413D01*
X164212174Y-87088620D01*
X164371380Y-87247826D01*
X164558587Y-87372913D01*
X164766599Y-87459075D01*
X164987424Y-87503000D01*
X165212576Y-87503000D01*
X165433401Y-87459075D01*
X165641413Y-87372913D01*
X165828620Y-87247826D01*
X165987826Y-87088620D01*
X166112913Y-86901413D01*
X166199075Y-86693401D01*
X166243000Y-86472576D01*
X166243000Y-86247424D01*
X166199075Y-86026599D01*
X166112913Y-85818587D01*
X165987826Y-85631380D01*
X165828620Y-85472174D01*
X165641413Y-85347087D01*
X165433401Y-85260925D01*
X165212576Y-85217000D01*
X164987424Y-85217000D01*
X164766599Y-85260925D01*
X164558587Y-85347087D01*
X164371380Y-85472174D01*
X164212174Y-85631380D01*
X164087087Y-85818587D01*
X164000925Y-86026599D01*
X163957000Y-86247424D01*
X163703000Y-86247424D01*
X163659075Y-86026599D01*
X163572913Y-85818587D01*
X163447826Y-85631380D01*
X163288620Y-85472174D01*
X163101413Y-85347087D01*
X162893401Y-85260925D01*
X162672576Y-85217000D01*
X162447424Y-85217000D01*
X162226599Y-85260925D01*
X162018587Y-85347087D01*
X161831380Y-85472174D01*
X161672174Y-85631380D01*
X161547087Y-85818587D01*
X161460925Y-86026599D01*
X161417000Y-86247424D01*
X161163000Y-86247424D01*
X161119075Y-86026599D01*
X161032913Y-85818587D01*
X160907826Y-85631380D01*
X160748620Y-85472174D01*
X160561413Y-85347087D01*
X160353401Y-85260925D01*
X160132576Y-85217000D01*
X159907424Y-85217000D01*
X159686599Y-85260925D01*
X159478587Y-85347087D01*
X159291380Y-85472174D01*
X159132174Y-85631380D01*
X159007087Y-85818587D01*
X158920925Y-86026599D01*
X158877000Y-86247424D01*
X158623000Y-86247424D01*
X158579075Y-86026599D01*
X158492913Y-85818587D01*
X158367826Y-85631380D01*
X158208620Y-85472174D01*
X158021413Y-85347087D01*
X157813401Y-85260925D01*
X157592576Y-85217000D01*
X157367424Y-85217000D01*
X157146599Y-85260925D01*
X156938587Y-85347087D01*
X156751380Y-85472174D01*
X156592174Y-85631380D01*
X156467087Y-85818587D01*
X156380925Y-86026599D01*
X156337000Y-86247424D01*
X156083000Y-86247424D01*
X156039075Y-86026599D01*
X155952913Y-85818587D01*
X155827826Y-85631380D01*
X155668620Y-85472174D01*
X155481413Y-85347087D01*
X155273401Y-85260925D01*
X155052576Y-85217000D01*
X154827424Y-85217000D01*
X154606599Y-85260925D01*
X154398587Y-85347087D01*
X154211380Y-85472174D01*
X154052174Y-85631380D01*
X153927087Y-85818587D01*
X153840925Y-86026599D01*
X153797000Y-86247424D01*
X153797000Y-86351078D01*
X153441000Y-85995079D01*
X153441000Y-85783270D01*
X153445262Y-85740000D01*
X153441000Y-85696727D01*
X153428252Y-85567294D01*
X153377875Y-85401225D01*
X153296068Y-85248175D01*
X153185975Y-85114025D01*
X153152355Y-85086434D01*
X152913567Y-84847646D01*
X152885976Y-84814026D01*
X152751826Y-84703933D01*
X152598776Y-84622126D01*
X152432707Y-84571749D01*
X152303274Y-84559001D01*
X152303271Y-84559001D01*
X152260001Y-84554739D01*
X152216731Y-84559001D01*
X150846726Y-84559001D01*
X150950898Y-84403097D01*
X151043693Y-84179069D01*
X151091000Y-83941243D01*
X151091000Y-83707424D01*
X153797000Y-83707424D01*
X153797000Y-83932576D01*
X153840925Y-84153401D01*
X153927087Y-84361413D01*
X154052174Y-84548620D01*
X154211380Y-84707826D01*
X154398587Y-84832913D01*
X154606599Y-84919075D01*
X154827424Y-84963000D01*
X155052576Y-84963000D01*
X155273401Y-84919075D01*
X155481413Y-84832913D01*
X155668620Y-84707826D01*
X155827826Y-84548620D01*
X155952913Y-84361413D01*
X156039075Y-84153401D01*
X156083000Y-83932576D01*
X156083000Y-83707424D01*
X156337000Y-83707424D01*
X156337000Y-83932576D01*
X156380925Y-84153401D01*
X156467087Y-84361413D01*
X156592174Y-84548620D01*
X156751380Y-84707826D01*
X156938587Y-84832913D01*
X157146599Y-84919075D01*
X157367424Y-84963000D01*
X157592576Y-84963000D01*
X157813401Y-84919075D01*
X158021413Y-84832913D01*
X158208620Y-84707826D01*
X158367826Y-84548620D01*
X158492913Y-84361413D01*
X158579075Y-84153401D01*
X158623000Y-83932576D01*
X158623000Y-83707424D01*
X158579075Y-83486599D01*
X158492913Y-83278587D01*
X158367826Y-83091380D01*
X158208620Y-82932174D01*
X158021413Y-82807087D01*
X157813401Y-82720925D01*
X157592576Y-82677000D01*
X157367424Y-82677000D01*
X157146599Y-82720925D01*
X156938587Y-82807087D01*
X156751380Y-82932174D01*
X156592174Y-83091380D01*
X156467087Y-83278587D01*
X156380925Y-83486599D01*
X156337000Y-83707424D01*
X156083000Y-83707424D01*
X156039075Y-83486599D01*
X155952913Y-83278587D01*
X155827826Y-83091380D01*
X155668620Y-82932174D01*
X155481413Y-82807087D01*
X155273401Y-82720925D01*
X155052576Y-82677000D01*
X154827424Y-82677000D01*
X154606599Y-82720925D01*
X154398587Y-82807087D01*
X154211380Y-82932174D01*
X154052174Y-83091380D01*
X153927087Y-83278587D01*
X153840925Y-83486599D01*
X153797000Y-83707424D01*
X151091000Y-83707424D01*
X151091000Y-83698757D01*
X151043693Y-83460931D01*
X150950898Y-83236903D01*
X150816180Y-83035283D01*
X150644717Y-82863820D01*
X150443097Y-82729102D01*
X150219069Y-82636307D01*
X149981243Y-82589000D01*
X149738757Y-82589000D01*
X149500931Y-82636307D01*
X149276903Y-82729102D01*
X149075283Y-82863820D01*
X148903820Y-83035283D01*
X148769102Y-83236903D01*
X148676307Y-83460931D01*
X148629000Y-83698757D01*
X148629000Y-83941243D01*
X148676307Y-84179069D01*
X148769102Y-84403097D01*
X148873274Y-84559001D01*
X148306726Y-84559001D01*
X148410898Y-84403097D01*
X148503693Y-84179069D01*
X148551000Y-83941243D01*
X148551000Y-83698757D01*
X148503693Y-83460931D01*
X148410898Y-83236903D01*
X148276180Y-83035283D01*
X148104717Y-82863820D01*
X147903097Y-82729102D01*
X147679069Y-82636307D01*
X147441243Y-82589000D01*
X147198757Y-82589000D01*
X146960931Y-82636307D01*
X146736903Y-82729102D01*
X146535283Y-82863820D01*
X146363820Y-83035283D01*
X146229102Y-83236903D01*
X146136307Y-83460931D01*
X146089000Y-83698757D01*
X146089000Y-83941243D01*
X146136307Y-84179069D01*
X146229102Y-84403097D01*
X146333274Y-84559001D01*
X145766726Y-84559001D01*
X145870898Y-84403097D01*
X145963693Y-84179069D01*
X146011000Y-83941243D01*
X146011000Y-83698757D01*
X145963693Y-83460931D01*
X145870898Y-83236903D01*
X145736180Y-83035283D01*
X145564717Y-82863820D01*
X145363097Y-82729102D01*
X145139069Y-82636307D01*
X144901243Y-82589000D01*
X144658757Y-82589000D01*
X144420931Y-82636307D01*
X144196903Y-82729102D01*
X143995283Y-82863820D01*
X143823820Y-83035283D01*
X143689102Y-83236903D01*
X143596307Y-83460931D01*
X143549000Y-83698757D01*
X143549000Y-83941243D01*
X143596307Y-84179069D01*
X143689102Y-84403097D01*
X143793274Y-84559001D01*
X143226726Y-84559001D01*
X143330898Y-84403097D01*
X143423693Y-84179069D01*
X143471000Y-83941243D01*
X143471000Y-83698757D01*
X143423693Y-83460931D01*
X143330898Y-83236903D01*
X143196180Y-83035283D01*
X143024717Y-82863820D01*
X142823097Y-82729102D01*
X142599069Y-82636307D01*
X142361243Y-82589000D01*
X142118757Y-82589000D01*
X141880931Y-82636307D01*
X141656903Y-82729102D01*
X141455283Y-82863820D01*
X141283820Y-83035283D01*
X141149102Y-83236903D01*
X141056307Y-83460931D01*
X141009000Y-83698757D01*
X141009000Y-83941243D01*
X141056307Y-84179069D01*
X141149102Y-84403097D01*
X141253274Y-84559001D01*
X140932843Y-84559001D01*
X140932843Y-82970000D01*
X140925487Y-82895311D01*
X140903701Y-82823492D01*
X140868322Y-82757304D01*
X140820711Y-82699289D01*
X140762696Y-82651678D01*
X140696508Y-82616299D01*
X140624689Y-82594513D01*
X140550000Y-82587157D01*
X138850000Y-82587157D01*
X138775311Y-82594513D01*
X138703492Y-82616299D01*
X138637304Y-82651678D01*
X138579289Y-82699289D01*
X138531678Y-82757304D01*
X138496299Y-82823492D01*
X138474513Y-82895311D01*
X138467157Y-82970000D01*
X138467157Y-84559001D01*
X136003268Y-84559001D01*
X135959998Y-84554739D01*
X135916728Y-84559001D01*
X125446726Y-84559001D01*
X125550898Y-84403097D01*
X125643693Y-84179069D01*
X125691000Y-83941243D01*
X125691000Y-83698757D01*
X125643693Y-83460931D01*
X125550898Y-83236903D01*
X125416180Y-83035283D01*
X125244717Y-82863820D01*
X125043097Y-82729102D01*
X124819069Y-82636307D01*
X124581243Y-82589000D01*
X124338757Y-82589000D01*
X124100931Y-82636307D01*
X123876903Y-82729102D01*
X123675283Y-82863820D01*
X123503820Y-83035283D01*
X123369102Y-83236903D01*
X123276307Y-83460931D01*
X123229000Y-83698757D01*
X123229000Y-83941243D01*
X123276307Y-84179069D01*
X123369102Y-84403097D01*
X123473272Y-84558999D01*
X123123268Y-84558999D01*
X123079998Y-84554737D01*
X123036728Y-84558999D01*
X123036726Y-84558999D01*
X122907293Y-84571747D01*
X122895901Y-84575203D01*
X123010898Y-84403097D01*
X123103693Y-84179069D01*
X123151000Y-83941243D01*
X123151000Y-83698757D01*
X123103693Y-83460931D01*
X123010898Y-83236903D01*
X122876180Y-83035283D01*
X122704717Y-82863820D01*
X122503097Y-82729102D01*
X122279069Y-82636307D01*
X122041243Y-82589000D01*
X121798757Y-82589000D01*
X121560931Y-82636307D01*
X121336903Y-82729102D01*
X121135283Y-82863820D01*
X120963820Y-83035283D01*
X120829102Y-83236903D01*
X120736307Y-83460931D01*
X120689000Y-83698757D01*
X120689000Y-83941243D01*
X120736307Y-84179069D01*
X120829102Y-84403097D01*
X120963820Y-84604717D01*
X121135283Y-84776180D01*
X121336903Y-84910898D01*
X121560931Y-85003693D01*
X121798757Y-85051000D01*
X122041243Y-85051000D01*
X122268226Y-85005850D01*
X121067641Y-86206436D01*
X121067636Y-86206440D01*
X115007645Y-92266432D01*
X114974025Y-92294023D01*
X114911721Y-92369942D01*
X114863932Y-92428173D01*
X114815384Y-92519000D01*
X114782125Y-92581224D01*
X114731748Y-92747293D01*
X114719000Y-92876725D01*
X114714738Y-92919998D01*
X114719000Y-92963268D01*
X114719001Y-97876718D01*
X114714738Y-97919998D01*
X114726573Y-98040156D01*
X114701360Y-98045171D01*
X114577426Y-98096506D01*
X114465888Y-98171033D01*
X114371033Y-98265888D01*
X114296506Y-98377426D01*
X114245171Y-98501360D01*
X114219000Y-98632927D01*
X109347000Y-98632927D01*
X109347000Y-97472927D01*
X113079000Y-97472927D01*
X113079000Y-97607073D01*
X113105171Y-97738640D01*
X113156506Y-97862574D01*
X113231033Y-97974112D01*
X113325888Y-98068967D01*
X113437426Y-98143494D01*
X113561360Y-98194829D01*
X113692927Y-98221000D01*
X113827073Y-98221000D01*
X113958640Y-98194829D01*
X114082574Y-98143494D01*
X114194112Y-98068967D01*
X114288967Y-97974112D01*
X114363494Y-97862574D01*
X114414829Y-97738640D01*
X114441000Y-97607073D01*
X114441000Y-97472927D01*
X114414829Y-97341360D01*
X114363494Y-97217426D01*
X114288967Y-97105888D01*
X114194112Y-97011033D01*
X114082574Y-96936506D01*
X113958640Y-96885171D01*
X113827073Y-96859000D01*
X113692927Y-96859000D01*
X113561360Y-96885171D01*
X113437426Y-96936506D01*
X113325888Y-97011033D01*
X113231033Y-97105888D01*
X113156506Y-97217426D01*
X113105171Y-97341360D01*
X113079000Y-97472927D01*
X109347000Y-97472927D01*
X109347000Y-96432927D01*
X110219000Y-96432927D01*
X110219000Y-96567073D01*
X110245171Y-96698640D01*
X110296506Y-96822574D01*
X110371033Y-96934112D01*
X110465888Y-97028967D01*
X110577426Y-97103494D01*
X110701360Y-97154829D01*
X110832927Y-97181000D01*
X110967073Y-97181000D01*
X111098640Y-97154829D01*
X111222574Y-97103494D01*
X111334112Y-97028967D01*
X111428967Y-96934112D01*
X111503494Y-96822574D01*
X111554829Y-96698640D01*
X111581000Y-96567073D01*
X111581000Y-96432927D01*
X111554829Y-96301360D01*
X111503494Y-96177426D01*
X111428967Y-96065888D01*
X111334112Y-95971033D01*
X111222574Y-95896506D01*
X111098640Y-95845171D01*
X110967073Y-95819000D01*
X110832927Y-95819000D01*
X110701360Y-95845171D01*
X110577426Y-95896506D01*
X110465888Y-95971033D01*
X110371033Y-96065888D01*
X110296506Y-96177426D01*
X110245171Y-96301360D01*
X110219000Y-96432927D01*
X109347000Y-96432927D01*
X109347000Y-91223078D01*
X111119000Y-91223078D01*
X111119000Y-91376922D01*
X111149013Y-91527809D01*
X111207887Y-91669942D01*
X111293358Y-91797859D01*
X111402141Y-91906642D01*
X111530058Y-91992113D01*
X111672191Y-92050987D01*
X111823078Y-92081000D01*
X111976922Y-92081000D01*
X112127809Y-92050987D01*
X112269942Y-91992113D01*
X112397859Y-91906642D01*
X112506642Y-91797859D01*
X112592113Y-91669942D01*
X112650987Y-91527809D01*
X112681000Y-91376922D01*
X112681000Y-91223078D01*
X112650987Y-91072191D01*
X112592113Y-90930058D01*
X112506642Y-90802141D01*
X112397859Y-90693358D01*
X112269942Y-90607887D01*
X112127809Y-90549013D01*
X111976922Y-90519000D01*
X111823078Y-90519000D01*
X111672191Y-90549013D01*
X111530058Y-90607887D01*
X111402141Y-90693358D01*
X111293358Y-90802141D01*
X111207887Y-90930058D01*
X111149013Y-91072191D01*
X111119000Y-91223078D01*
X109347000Y-91223078D01*
X109347000Y-87033078D01*
X110209000Y-87033078D01*
X110209000Y-87186922D01*
X110239013Y-87337809D01*
X110297887Y-87479942D01*
X110383358Y-87607859D01*
X110492141Y-87716642D01*
X110620058Y-87802113D01*
X110762191Y-87860987D01*
X110913078Y-87891000D01*
X111066922Y-87891000D01*
X111217809Y-87860987D01*
X111359942Y-87802113D01*
X111487859Y-87716642D01*
X111596642Y-87607859D01*
X111682113Y-87479942D01*
X111740987Y-87337809D01*
X111771000Y-87186922D01*
X111771000Y-87033078D01*
X111740987Y-86882191D01*
X111682113Y-86740058D01*
X111596642Y-86612141D01*
X111487859Y-86503358D01*
X111359942Y-86417887D01*
X111217809Y-86359013D01*
X111066922Y-86329000D01*
X110913078Y-86329000D01*
X110762191Y-86359013D01*
X110620058Y-86417887D01*
X110492141Y-86503358D01*
X110383358Y-86612141D01*
X110297887Y-86740058D01*
X110239013Y-86882191D01*
X110209000Y-87033078D01*
X109347000Y-87033078D01*
X109347000Y-82970000D01*
X113067157Y-82970000D01*
X113067157Y-84670000D01*
X113074513Y-84744689D01*
X113096299Y-84816508D01*
X113131678Y-84882696D01*
X113179289Y-84940711D01*
X113237304Y-84988322D01*
X113303492Y-85023701D01*
X113375311Y-85045487D01*
X113450000Y-85052843D01*
X115150000Y-85052843D01*
X115224689Y-85045487D01*
X115296508Y-85023701D01*
X115362696Y-84988322D01*
X115420711Y-84940711D01*
X115468322Y-84882696D01*
X115503701Y-84816508D01*
X115525487Y-84744689D01*
X115532843Y-84670000D01*
X115532843Y-83698757D01*
X115609000Y-83698757D01*
X115609000Y-83941243D01*
X115656307Y-84179069D01*
X115749102Y-84403097D01*
X115883820Y-84604717D01*
X116055283Y-84776180D01*
X116256903Y-84910898D01*
X116480931Y-85003693D01*
X116718757Y-85051000D01*
X116961243Y-85051000D01*
X117199069Y-85003693D01*
X117423097Y-84910898D01*
X117624717Y-84776180D01*
X117796180Y-84604717D01*
X117930898Y-84403097D01*
X118023693Y-84179069D01*
X118071000Y-83941243D01*
X118071000Y-83698757D01*
X118149000Y-83698757D01*
X118149000Y-83941243D01*
X118196307Y-84179069D01*
X118289102Y-84403097D01*
X118423820Y-84604717D01*
X118595283Y-84776180D01*
X118796903Y-84910898D01*
X119020931Y-85003693D01*
X119258757Y-85051000D01*
X119501243Y-85051000D01*
X119739069Y-85003693D01*
X119963097Y-84910898D01*
X120164717Y-84776180D01*
X120336180Y-84604717D01*
X120470898Y-84403097D01*
X120563693Y-84179069D01*
X120611000Y-83941243D01*
X120611000Y-83698757D01*
X120563693Y-83460931D01*
X120470898Y-83236903D01*
X120336180Y-83035283D01*
X120164717Y-82863820D01*
X119963097Y-82729102D01*
X119739069Y-82636307D01*
X119501243Y-82589000D01*
X119258757Y-82589000D01*
X119020931Y-82636307D01*
X118796903Y-82729102D01*
X118595283Y-82863820D01*
X118423820Y-83035283D01*
X118289102Y-83236903D01*
X118196307Y-83460931D01*
X118149000Y-83698757D01*
X118071000Y-83698757D01*
X118023693Y-83460931D01*
X117930898Y-83236903D01*
X117796180Y-83035283D01*
X117624717Y-82863820D01*
X117423097Y-82729102D01*
X117199069Y-82636307D01*
X116961243Y-82589000D01*
X116718757Y-82589000D01*
X116480931Y-82636307D01*
X116256903Y-82729102D01*
X116055283Y-82863820D01*
X115883820Y-83035283D01*
X115749102Y-83236903D01*
X115656307Y-83460931D01*
X115609000Y-83698757D01*
X115532843Y-83698757D01*
X115532843Y-82970000D01*
X115525487Y-82895311D01*
X115503701Y-82823492D01*
X115468322Y-82757304D01*
X115420711Y-82699289D01*
X115362696Y-82651678D01*
X115296508Y-82616299D01*
X115224689Y-82594513D01*
X115150000Y-82587157D01*
X113450000Y-82587157D01*
X113375311Y-82594513D01*
X113303492Y-82616299D01*
X113237304Y-82651678D01*
X113179289Y-82699289D01*
X113131678Y-82757304D01*
X113096299Y-82823492D01*
X113074513Y-82895311D01*
X113067157Y-82970000D01*
X109347000Y-82970000D01*
X109347000Y-82021000D01*
X160855920Y-82021000D01*
X160188748Y-82688173D01*
G37*
G04 #@! TD.AperFunction*
M02*
