%FSLAX45Y45*%
G04 Gerber Fmt 4.5, Leading zero omitted, Abs format (unit mm)*
G04 Created by KiCad (PCBNEW (5.1.10)-1) date 2021-10-21 22:49:51*
%MOMM*%
%LPD*%
G01*
G04 APERTURE LIST*
%TA.AperFunction,Profile*%
%ADD10C,0.050000*%
%TD*%
%ADD11C,0.200000*%
%ADD12C,0.300000*%
G04 APERTURE END LIST*
D10*
X9906000Y-7924800D02*
G75*
G02*
X10210800Y-7620000I304800J0D01*
G01*
X18745200Y-7620000D02*
G75*
G02*
X19050000Y-7924800I0J-304800D01*
G01*
X19050000Y-11379200D02*
G75*
G02*
X18745200Y-11684000I-304800J0D01*
G01*
X10210800Y-11684000D02*
G75*
G02*
X9906000Y-11379200I0J304800D01*
G01*
X9906000Y-7924800D02*
X9906000Y-11379200D01*
X18745200Y-11684000D02*
X10210800Y-11684000D01*
X19050000Y-7924800D02*
X19050000Y-11379200D01*
X10210800Y-7620000D02*
X18745200Y-7620000D01*
D11*
X10353500Y-9330500D02*
X10418500Y-9395500D01*
X10418500Y-9330500D02*
X10353500Y-9395500D01*
X10353500Y-9908500D02*
X10418500Y-9973500D01*
X10418500Y-9908500D02*
X10353500Y-9973500D01*
D12*
X10189928Y-12152214D02*
X10189928Y-11852214D01*
X10261357Y-11852214D01*
X10304214Y-11866500D01*
X10332786Y-11895071D01*
X10347071Y-11923643D01*
X10361357Y-11980786D01*
X10361357Y-12023643D01*
X10347071Y-12080786D01*
X10332786Y-12109357D01*
X10304214Y-12137929D01*
X10261357Y-12152214D01*
X10189928Y-12152214D01*
X10489928Y-12152214D02*
X10489928Y-11952214D01*
X10489928Y-12009357D02*
X10504214Y-11980786D01*
X10518500Y-11966500D01*
X10547071Y-11952214D01*
X10575643Y-11952214D01*
X10675643Y-12152214D02*
X10675643Y-11952214D01*
X10675643Y-11852214D02*
X10661357Y-11866500D01*
X10675643Y-11880786D01*
X10689928Y-11866500D01*
X10675643Y-11852214D01*
X10675643Y-11880786D01*
X10861357Y-12152214D02*
X10832786Y-12137929D01*
X10818500Y-12109357D01*
X10818500Y-11852214D01*
X11018500Y-12152214D02*
X10989928Y-12137929D01*
X10975643Y-12109357D01*
X10975643Y-11852214D01*
X11361357Y-12152214D02*
X11361357Y-11852214D01*
X11461357Y-12066500D01*
X11561357Y-11852214D01*
X11561357Y-12152214D01*
X11832786Y-12152214D02*
X11832786Y-11995071D01*
X11818500Y-11966500D01*
X11789928Y-11952214D01*
X11732786Y-11952214D01*
X11704214Y-11966500D01*
X11832786Y-12137929D02*
X11804214Y-12152214D01*
X11732786Y-12152214D01*
X11704214Y-12137929D01*
X11689928Y-12109357D01*
X11689928Y-12080786D01*
X11704214Y-12052214D01*
X11732786Y-12037929D01*
X11804214Y-12037929D01*
X11832786Y-12023643D01*
X11975643Y-11952214D02*
X11975643Y-12252214D01*
X11975643Y-11966500D02*
X12004214Y-11952214D01*
X12061357Y-11952214D01*
X12089928Y-11966500D01*
X12104214Y-11980786D01*
X12118500Y-12009357D01*
X12118500Y-12095071D01*
X12104214Y-12123643D01*
X12089928Y-12137929D01*
X12061357Y-12152214D01*
X12004214Y-12152214D01*
X11975643Y-12137929D01*
X12247071Y-12123643D02*
X12261357Y-12137929D01*
X12247071Y-12152214D01*
X12232786Y-12137929D01*
X12247071Y-12123643D01*
X12247071Y-12152214D01*
X12247071Y-11966500D02*
X12261357Y-11980786D01*
X12247071Y-11995071D01*
X12232786Y-11980786D01*
X12247071Y-11966500D01*
X12247071Y-11995071D01*
X9838500Y-12614000D02*
X9903500Y-12679000D01*
X9903500Y-12614000D02*
X9838500Y-12679000D01*
X10247071Y-12482214D02*
X10275643Y-12482214D01*
X10304214Y-12496500D01*
X10318500Y-12510786D01*
X10332786Y-12539357D01*
X10347071Y-12596500D01*
X10347071Y-12667929D01*
X10332786Y-12725071D01*
X10318500Y-12753643D01*
X10304214Y-12767929D01*
X10275643Y-12782214D01*
X10247071Y-12782214D01*
X10218500Y-12767929D01*
X10204214Y-12753643D01*
X10189928Y-12725071D01*
X10175643Y-12667929D01*
X10175643Y-12596500D01*
X10189928Y-12539357D01*
X10204214Y-12510786D01*
X10218500Y-12496500D01*
X10247071Y-12482214D01*
X10475643Y-12753643D02*
X10489928Y-12767929D01*
X10475643Y-12782214D01*
X10461357Y-12767929D01*
X10475643Y-12753643D01*
X10475643Y-12782214D01*
X10747071Y-12482214D02*
X10689928Y-12482214D01*
X10661357Y-12496500D01*
X10647071Y-12510786D01*
X10618500Y-12553643D01*
X10604214Y-12610786D01*
X10604214Y-12725071D01*
X10618500Y-12753643D01*
X10632786Y-12767929D01*
X10661357Y-12782214D01*
X10718500Y-12782214D01*
X10747071Y-12767929D01*
X10761357Y-12753643D01*
X10775643Y-12725071D01*
X10775643Y-12653643D01*
X10761357Y-12625071D01*
X10747071Y-12610786D01*
X10718500Y-12596500D01*
X10661357Y-12596500D01*
X10632786Y-12610786D01*
X10618500Y-12625071D01*
X10604214Y-12653643D01*
X11047071Y-12482214D02*
X10904214Y-12482214D01*
X10889928Y-12625071D01*
X10904214Y-12610786D01*
X10932786Y-12596500D01*
X11004214Y-12596500D01*
X11032786Y-12610786D01*
X11047071Y-12625071D01*
X11061357Y-12653643D01*
X11061357Y-12725071D01*
X11047071Y-12753643D01*
X11032786Y-12767929D01*
X11004214Y-12782214D01*
X10932786Y-12782214D01*
X10904214Y-12767929D01*
X10889928Y-12753643D01*
X11247071Y-12482214D02*
X11275643Y-12482214D01*
X11304214Y-12496500D01*
X11318500Y-12510786D01*
X11332786Y-12539357D01*
X11347071Y-12596500D01*
X11347071Y-12667929D01*
X11332786Y-12725071D01*
X11318500Y-12753643D01*
X11304214Y-12767929D01*
X11275643Y-12782214D01*
X11247071Y-12782214D01*
X11218500Y-12767929D01*
X11204214Y-12753643D01*
X11189928Y-12725071D01*
X11175643Y-12667929D01*
X11175643Y-12596500D01*
X11189928Y-12539357D01*
X11204214Y-12510786D01*
X11218500Y-12496500D01*
X11247071Y-12482214D01*
X11475643Y-12782214D02*
X11475643Y-12582214D01*
X11475643Y-12610786D02*
X11489928Y-12596500D01*
X11518500Y-12582214D01*
X11561357Y-12582214D01*
X11589928Y-12596500D01*
X11604214Y-12625071D01*
X11604214Y-12782214D01*
X11604214Y-12625071D02*
X11618500Y-12596500D01*
X11647071Y-12582214D01*
X11689928Y-12582214D01*
X11718500Y-12596500D01*
X11732786Y-12625071D01*
X11732786Y-12782214D01*
X11875643Y-12782214D02*
X11875643Y-12582214D01*
X11875643Y-12610786D02*
X11889928Y-12596500D01*
X11918500Y-12582214D01*
X11961357Y-12582214D01*
X11989928Y-12596500D01*
X12004214Y-12625071D01*
X12004214Y-12782214D01*
X12004214Y-12625071D02*
X12018500Y-12596500D01*
X12047071Y-12582214D01*
X12089928Y-12582214D01*
X12118500Y-12596500D01*
X12132786Y-12625071D01*
X12132786Y-12782214D01*
X12718500Y-12467929D02*
X12461357Y-12853643D01*
X13104214Y-12482214D02*
X13132786Y-12482214D01*
X13161357Y-12496500D01*
X13175643Y-12510786D01*
X13189928Y-12539357D01*
X13204214Y-12596500D01*
X13204214Y-12667929D01*
X13189928Y-12725071D01*
X13175643Y-12753643D01*
X13161357Y-12767929D01*
X13132786Y-12782214D01*
X13104214Y-12782214D01*
X13075643Y-12767929D01*
X13061357Y-12753643D01*
X13047071Y-12725071D01*
X13032786Y-12667929D01*
X13032786Y-12596500D01*
X13047071Y-12539357D01*
X13061357Y-12510786D01*
X13075643Y-12496500D01*
X13104214Y-12482214D01*
X13332786Y-12753643D02*
X13347071Y-12767929D01*
X13332786Y-12782214D01*
X13318500Y-12767929D01*
X13332786Y-12753643D01*
X13332786Y-12782214D01*
X13532786Y-12482214D02*
X13561357Y-12482214D01*
X13589928Y-12496500D01*
X13604214Y-12510786D01*
X13618500Y-12539357D01*
X13632786Y-12596500D01*
X13632786Y-12667929D01*
X13618500Y-12725071D01*
X13604214Y-12753643D01*
X13589928Y-12767929D01*
X13561357Y-12782214D01*
X13532786Y-12782214D01*
X13504214Y-12767929D01*
X13489928Y-12753643D01*
X13475643Y-12725071D01*
X13461357Y-12667929D01*
X13461357Y-12596500D01*
X13475643Y-12539357D01*
X13489928Y-12510786D01*
X13504214Y-12496500D01*
X13532786Y-12482214D01*
X13747071Y-12510786D02*
X13761357Y-12496500D01*
X13789928Y-12482214D01*
X13861357Y-12482214D01*
X13889928Y-12496500D01*
X13904214Y-12510786D01*
X13918500Y-12539357D01*
X13918500Y-12567929D01*
X13904214Y-12610786D01*
X13732786Y-12782214D01*
X13918500Y-12782214D01*
X14189928Y-12482214D02*
X14047071Y-12482214D01*
X14032786Y-12625071D01*
X14047071Y-12610786D01*
X14075643Y-12596500D01*
X14147071Y-12596500D01*
X14175643Y-12610786D01*
X14189928Y-12625071D01*
X14204214Y-12653643D01*
X14204214Y-12725071D01*
X14189928Y-12753643D01*
X14175643Y-12767929D01*
X14147071Y-12782214D01*
X14075643Y-12782214D01*
X14047071Y-12767929D01*
X14032786Y-12753643D01*
X14461357Y-12482214D02*
X14404214Y-12482214D01*
X14375643Y-12496500D01*
X14361357Y-12510786D01*
X14332786Y-12553643D01*
X14318500Y-12610786D01*
X14318500Y-12725071D01*
X14332786Y-12753643D01*
X14347071Y-12767929D01*
X14375643Y-12782214D01*
X14432786Y-12782214D01*
X14461357Y-12767929D01*
X14475643Y-12753643D01*
X14489928Y-12725071D01*
X14489928Y-12653643D01*
X14475643Y-12625071D01*
X14461357Y-12610786D01*
X14432786Y-12596500D01*
X14375643Y-12596500D01*
X14347071Y-12610786D01*
X14332786Y-12625071D01*
X14318500Y-12653643D01*
X14604214Y-12482214D02*
X14604214Y-12539357D01*
X14718500Y-12482214D02*
X14718500Y-12539357D01*
X15161357Y-12896500D02*
X15147071Y-12882214D01*
X15118500Y-12839357D01*
X15104214Y-12810786D01*
X15089928Y-12767929D01*
X15075643Y-12696500D01*
X15075643Y-12639357D01*
X15089928Y-12567929D01*
X15104214Y-12525071D01*
X15118500Y-12496500D01*
X15147071Y-12453643D01*
X15161357Y-12439357D01*
X15261357Y-12510786D02*
X15275643Y-12496500D01*
X15304214Y-12482214D01*
X15375643Y-12482214D01*
X15404214Y-12496500D01*
X15418500Y-12510786D01*
X15432786Y-12539357D01*
X15432786Y-12567929D01*
X15418500Y-12610786D01*
X15247071Y-12782214D01*
X15432786Y-12782214D01*
X15789928Y-12782214D02*
X15789928Y-12482214D01*
X15918500Y-12782214D02*
X15918500Y-12625071D01*
X15904214Y-12596500D01*
X15875643Y-12582214D01*
X15832786Y-12582214D01*
X15804214Y-12596500D01*
X15789928Y-12610786D01*
X16104214Y-12782214D02*
X16075643Y-12767929D01*
X16061357Y-12753643D01*
X16047071Y-12725071D01*
X16047071Y-12639357D01*
X16061357Y-12610786D01*
X16075643Y-12596500D01*
X16104214Y-12582214D01*
X16147071Y-12582214D01*
X16175643Y-12596500D01*
X16189928Y-12610786D01*
X16204214Y-12639357D01*
X16204214Y-12725071D01*
X16189928Y-12753643D01*
X16175643Y-12767929D01*
X16147071Y-12782214D01*
X16104214Y-12782214D01*
X16375643Y-12782214D02*
X16347071Y-12767929D01*
X16332786Y-12739357D01*
X16332786Y-12482214D01*
X16604214Y-12767929D02*
X16575643Y-12782214D01*
X16518500Y-12782214D01*
X16489928Y-12767929D01*
X16475643Y-12739357D01*
X16475643Y-12625071D01*
X16489928Y-12596500D01*
X16518500Y-12582214D01*
X16575643Y-12582214D01*
X16604214Y-12596500D01*
X16618500Y-12625071D01*
X16618500Y-12653643D01*
X16475643Y-12682214D01*
X16732786Y-12767929D02*
X16761357Y-12782214D01*
X16818500Y-12782214D01*
X16847071Y-12767929D01*
X16861357Y-12739357D01*
X16861357Y-12725071D01*
X16847071Y-12696500D01*
X16818500Y-12682214D01*
X16775643Y-12682214D01*
X16747071Y-12667929D01*
X16732786Y-12639357D01*
X16732786Y-12625071D01*
X16747071Y-12596500D01*
X16775643Y-12582214D01*
X16818500Y-12582214D01*
X16847071Y-12596500D01*
X16961357Y-12896500D02*
X16975643Y-12882214D01*
X17004214Y-12839357D01*
X17018500Y-12810786D01*
X17032786Y-12767929D01*
X17047071Y-12696500D01*
X17047071Y-12639357D01*
X17032786Y-12567929D01*
X17018500Y-12525071D01*
X17004214Y-12496500D01*
X16975643Y-12453643D01*
X16961357Y-12439357D01*
X17504214Y-12896500D02*
X17489928Y-12882214D01*
X17461357Y-12839357D01*
X17447071Y-12810786D01*
X17432786Y-12767929D01*
X17418500Y-12696500D01*
X17418500Y-12639357D01*
X17432786Y-12567929D01*
X17447071Y-12525071D01*
X17461357Y-12496500D01*
X17489928Y-12453643D01*
X17504214Y-12439357D01*
X17618500Y-12582214D02*
X17618500Y-12782214D01*
X17618500Y-12610786D02*
X17632786Y-12596500D01*
X17661357Y-12582214D01*
X17704214Y-12582214D01*
X17732786Y-12596500D01*
X17747071Y-12625071D01*
X17747071Y-12782214D01*
X17932786Y-12782214D02*
X17904214Y-12767929D01*
X17889928Y-12753643D01*
X17875643Y-12725071D01*
X17875643Y-12639357D01*
X17889928Y-12610786D01*
X17904214Y-12596500D01*
X17932786Y-12582214D01*
X17975643Y-12582214D01*
X18004214Y-12596500D01*
X18018500Y-12610786D01*
X18032786Y-12639357D01*
X18032786Y-12725071D01*
X18018500Y-12753643D01*
X18004214Y-12767929D01*
X17975643Y-12782214D01*
X17932786Y-12782214D01*
X18118500Y-12582214D02*
X18232786Y-12582214D01*
X18161357Y-12482214D02*
X18161357Y-12739357D01*
X18175643Y-12767929D01*
X18204214Y-12782214D01*
X18232786Y-12782214D01*
X18561357Y-12582214D02*
X18561357Y-12882214D01*
X18561357Y-12596500D02*
X18589928Y-12582214D01*
X18647071Y-12582214D01*
X18675643Y-12596500D01*
X18689928Y-12610786D01*
X18704214Y-12639357D01*
X18704214Y-12725071D01*
X18689928Y-12753643D01*
X18675643Y-12767929D01*
X18647071Y-12782214D01*
X18589928Y-12782214D01*
X18561357Y-12767929D01*
X18875643Y-12782214D02*
X18847071Y-12767929D01*
X18832786Y-12739357D01*
X18832786Y-12482214D01*
X19118500Y-12782214D02*
X19118500Y-12625071D01*
X19104214Y-12596500D01*
X19075643Y-12582214D01*
X19018500Y-12582214D01*
X18989928Y-12596500D01*
X19118500Y-12767929D02*
X19089928Y-12782214D01*
X19018500Y-12782214D01*
X18989928Y-12767929D01*
X18975643Y-12739357D01*
X18975643Y-12710786D01*
X18989928Y-12682214D01*
X19018500Y-12667929D01*
X19089928Y-12667929D01*
X19118500Y-12653643D01*
X19218500Y-12582214D02*
X19332786Y-12582214D01*
X19261357Y-12482214D02*
X19261357Y-12739357D01*
X19275643Y-12767929D01*
X19304214Y-12782214D01*
X19332786Y-12782214D01*
X19547071Y-12767929D02*
X19518500Y-12782214D01*
X19461357Y-12782214D01*
X19432786Y-12767929D01*
X19418500Y-12739357D01*
X19418500Y-12625071D01*
X19432786Y-12596500D01*
X19461357Y-12582214D01*
X19518500Y-12582214D01*
X19547071Y-12596500D01*
X19561357Y-12625071D01*
X19561357Y-12653643D01*
X19418500Y-12682214D01*
X19818500Y-12782214D02*
X19818500Y-12482214D01*
X19818500Y-12767929D02*
X19789928Y-12782214D01*
X19732786Y-12782214D01*
X19704214Y-12767929D01*
X19689928Y-12753643D01*
X19675643Y-12725071D01*
X19675643Y-12639357D01*
X19689928Y-12610786D01*
X19704214Y-12596500D01*
X19732786Y-12582214D01*
X19789928Y-12582214D01*
X19818500Y-12596500D01*
X19932786Y-12896500D02*
X19947071Y-12882214D01*
X19975643Y-12839357D01*
X19989928Y-12810786D01*
X20004214Y-12767929D01*
X20018500Y-12696500D01*
X20018500Y-12639357D01*
X20004214Y-12567929D01*
X19989928Y-12525071D01*
X19975643Y-12496500D01*
X19947071Y-12453643D01*
X19932786Y-12439357D01*
M02*
