%TF.GenerationSoftware,KiCad,Pcbnew,(6.0.4)*%
%TF.CreationDate,2022-11-07T15:55:16+01:00*%
%TF.ProjectId,mta1-usb-v1-programmer,6d746131-2d75-4736-922d-76312d70726f,rev?*%
%TF.SameCoordinates,Original*%
%TF.FileFunction,Legend,Top*%
%TF.FilePolarity,Positive*%
%FSLAX46Y46*%
G04 Gerber Fmt 4.6, Leading zero omitted, Abs format (unit mm)*
G04 Created by KiCad (PCBNEW (6.0.4)) date 2022-11-07 15:55:16*
%MOMM*%
%LPD*%
G01*
G04 APERTURE LIST*
%ADD10C,0.300000*%
%ADD11C,0.150000*%
%ADD12C,0.120000*%
%ADD13C,0.200000*%
G04 APERTURE END LIST*
D10*
X156627142Y-66227142D02*
X157770000Y-66227142D01*
X157198571Y-66798571D02*
X157198571Y-65655714D01*
X158341428Y-65298571D02*
X159270000Y-65298571D01*
X158770000Y-65870000D01*
X158984285Y-65870000D01*
X159127142Y-65941428D01*
X159198571Y-66012857D01*
X159270000Y-66155714D01*
X159270000Y-66512857D01*
X159198571Y-66655714D01*
X159127142Y-66727142D01*
X158984285Y-66798571D01*
X158555714Y-66798571D01*
X158412857Y-66727142D01*
X158341428Y-66655714D01*
X159698571Y-65298571D02*
X160198571Y-66798571D01*
X160698571Y-65298571D01*
X161055714Y-65298571D02*
X161984285Y-65298571D01*
X161484285Y-65870000D01*
X161698571Y-65870000D01*
X161841428Y-65941428D01*
X161912857Y-66012857D01*
X161984285Y-66155714D01*
X161984285Y-66512857D01*
X161912857Y-66655714D01*
X161841428Y-66727142D01*
X161698571Y-66798571D01*
X161270000Y-66798571D01*
X161127142Y-66727142D01*
X161055714Y-66655714D01*
X156627142Y-71307142D02*
X157770000Y-71307142D01*
X157198571Y-71878571D02*
X157198571Y-70735714D01*
X158412857Y-70521428D02*
X158484285Y-70450000D01*
X158627142Y-70378571D01*
X158984285Y-70378571D01*
X159127142Y-70450000D01*
X159198571Y-70521428D01*
X159270000Y-70664285D01*
X159270000Y-70807142D01*
X159198571Y-71021428D01*
X158341428Y-71878571D01*
X159270000Y-71878571D01*
X159698571Y-70378571D02*
X160198571Y-71878571D01*
X160698571Y-70378571D01*
X161912857Y-70378571D02*
X161198571Y-70378571D01*
X161127142Y-71092857D01*
X161198571Y-71021428D01*
X161341428Y-70950000D01*
X161698571Y-70950000D01*
X161841428Y-71021428D01*
X161912857Y-71092857D01*
X161984285Y-71235714D01*
X161984285Y-71592857D01*
X161912857Y-71735714D01*
X161841428Y-71807142D01*
X161698571Y-71878571D01*
X161341428Y-71878571D01*
X161198571Y-71807142D01*
X161127142Y-71735714D01*
X156627142Y-73847142D02*
X157770000Y-73847142D01*
X157198571Y-74418571D02*
X157198571Y-73275714D01*
X159270000Y-74418571D02*
X158412857Y-74418571D01*
X158841428Y-74418571D02*
X158841428Y-72918571D01*
X158698571Y-73132857D01*
X158555714Y-73275714D01*
X158412857Y-73347142D01*
X159698571Y-72918571D02*
X160198571Y-74418571D01*
X160698571Y-72918571D01*
X161127142Y-73061428D02*
X161198571Y-72990000D01*
X161341428Y-72918571D01*
X161698571Y-72918571D01*
X161841428Y-72990000D01*
X161912857Y-73061428D01*
X161984285Y-73204285D01*
X161984285Y-73347142D01*
X161912857Y-73561428D01*
X161055714Y-74418571D01*
X161984285Y-74418571D01*
D11*
X160952380Y-128785714D02*
X159952380Y-128785714D01*
X159952380Y-128404761D01*
X160000000Y-128309523D01*
X160047619Y-128261904D01*
X160142857Y-128214285D01*
X160285714Y-128214285D01*
X160380952Y-128261904D01*
X160428571Y-128309523D01*
X160476190Y-128404761D01*
X160476190Y-128785714D01*
X160952380Y-127785714D02*
X160285714Y-127785714D01*
X160476190Y-127785714D02*
X160380952Y-127738095D01*
X160333333Y-127690476D01*
X160285714Y-127595238D01*
X160285714Y-127500000D01*
X160952380Y-127023809D02*
X160904761Y-127119047D01*
X160857142Y-127166666D01*
X160761904Y-127214285D01*
X160476190Y-127214285D01*
X160380952Y-127166666D01*
X160333333Y-127119047D01*
X160285714Y-127023809D01*
X160285714Y-126880952D01*
X160333333Y-126785714D01*
X160380952Y-126738095D01*
X160476190Y-126690476D01*
X160761904Y-126690476D01*
X160857142Y-126738095D01*
X160904761Y-126785714D01*
X160952380Y-126880952D01*
X160952380Y-127023809D01*
X160285714Y-125833333D02*
X161095238Y-125833333D01*
X161190476Y-125880952D01*
X161238095Y-125928571D01*
X161285714Y-126023809D01*
X161285714Y-126166666D01*
X161238095Y-126261904D01*
X160904761Y-125833333D02*
X160952380Y-125928571D01*
X160952380Y-126119047D01*
X160904761Y-126214285D01*
X160857142Y-126261904D01*
X160761904Y-126309523D01*
X160476190Y-126309523D01*
X160380952Y-126261904D01*
X160333333Y-126214285D01*
X160285714Y-126119047D01*
X160285714Y-125928571D01*
X160333333Y-125833333D01*
X160952380Y-125357142D02*
X160285714Y-125357142D01*
X160476190Y-125357142D02*
X160380952Y-125309523D01*
X160333333Y-125261904D01*
X160285714Y-125166666D01*
X160285714Y-125071428D01*
X160952380Y-124309523D02*
X160428571Y-124309523D01*
X160333333Y-124357142D01*
X160285714Y-124452380D01*
X160285714Y-124642857D01*
X160333333Y-124738095D01*
X160904761Y-124309523D02*
X160952380Y-124404761D01*
X160952380Y-124642857D01*
X160904761Y-124738095D01*
X160809523Y-124785714D01*
X160714285Y-124785714D01*
X160619047Y-124738095D01*
X160571428Y-124642857D01*
X160571428Y-124404761D01*
X160523809Y-124309523D01*
X160952380Y-123833333D02*
X160285714Y-123833333D01*
X160380952Y-123833333D02*
X160333333Y-123785714D01*
X160285714Y-123690476D01*
X160285714Y-123547619D01*
X160333333Y-123452380D01*
X160428571Y-123404761D01*
X160952380Y-123404761D01*
X160428571Y-123404761D02*
X160333333Y-123357142D01*
X160285714Y-123261904D01*
X160285714Y-123119047D01*
X160333333Y-123023809D01*
X160428571Y-122976190D01*
X160952380Y-122976190D01*
X160952380Y-122500000D02*
X160285714Y-122500000D01*
X160380952Y-122500000D02*
X160333333Y-122452380D01*
X160285714Y-122357142D01*
X160285714Y-122214285D01*
X160333333Y-122119047D01*
X160428571Y-122071428D01*
X160952380Y-122071428D01*
X160428571Y-122071428D02*
X160333333Y-122023809D01*
X160285714Y-121928571D01*
X160285714Y-121785714D01*
X160333333Y-121690476D01*
X160428571Y-121642857D01*
X160952380Y-121642857D01*
X160904761Y-120785714D02*
X160952380Y-120880952D01*
X160952380Y-121071428D01*
X160904761Y-121166666D01*
X160809523Y-121214285D01*
X160428571Y-121214285D01*
X160333333Y-121166666D01*
X160285714Y-121071428D01*
X160285714Y-120880952D01*
X160333333Y-120785714D01*
X160428571Y-120738095D01*
X160523809Y-120738095D01*
X160619047Y-121214285D01*
X160952380Y-120309523D02*
X160285714Y-120309523D01*
X160476190Y-120309523D02*
X160380952Y-120261904D01*
X160333333Y-120214285D01*
X160285714Y-120119047D01*
X160285714Y-120023809D01*
X160952380Y-118357142D02*
X160476190Y-118690476D01*
X160952380Y-118928571D02*
X159952380Y-118928571D01*
X159952380Y-118547619D01*
X160000000Y-118452380D01*
X160047619Y-118404761D01*
X160142857Y-118357142D01*
X160285714Y-118357142D01*
X160380952Y-118404761D01*
X160428571Y-118452380D01*
X160476190Y-118547619D01*
X160476190Y-118928571D01*
X160904761Y-117547619D02*
X160952380Y-117642857D01*
X160952380Y-117833333D01*
X160904761Y-117928571D01*
X160809523Y-117976190D01*
X160428571Y-117976190D01*
X160333333Y-117928571D01*
X160285714Y-117833333D01*
X160285714Y-117642857D01*
X160333333Y-117547619D01*
X160428571Y-117500000D01*
X160523809Y-117500000D01*
X160619047Y-117976190D01*
X160285714Y-117166666D02*
X160952380Y-116928571D01*
X160285714Y-116690476D01*
X160666666Y-116357142D02*
X160666666Y-115880952D01*
X160952380Y-116452380D02*
X159952380Y-116119047D01*
X160952380Y-115785714D01*
X160047619Y-114738095D02*
X160000000Y-114690476D01*
X159952380Y-114595238D01*
X159952380Y-114357142D01*
X160000000Y-114261904D01*
X160047619Y-114214285D01*
X160142857Y-114166666D01*
X160238095Y-114166666D01*
X160380952Y-114214285D01*
X160952380Y-114785714D01*
X160952380Y-114166666D01*
X159952380Y-113547619D02*
X159952380Y-113452380D01*
X160000000Y-113357142D01*
X160047619Y-113309523D01*
X160142857Y-113261904D01*
X160333333Y-113214285D01*
X160571428Y-113214285D01*
X160761904Y-113261904D01*
X160857142Y-113309523D01*
X160904761Y-113357142D01*
X160952380Y-113452380D01*
X160952380Y-113547619D01*
X160904761Y-113642857D01*
X160857142Y-113690476D01*
X160761904Y-113738095D01*
X160571428Y-113785714D01*
X160333333Y-113785714D01*
X160142857Y-113738095D01*
X160047619Y-113690476D01*
X160000000Y-113642857D01*
X159952380Y-113547619D01*
X160047619Y-112833333D02*
X160000000Y-112785714D01*
X159952380Y-112690476D01*
X159952380Y-112452380D01*
X160000000Y-112357142D01*
X160047619Y-112309523D01*
X160142857Y-112261904D01*
X160238095Y-112261904D01*
X160380952Y-112309523D01*
X160952380Y-112880952D01*
X160952380Y-112261904D01*
X160047619Y-111880952D02*
X160000000Y-111833333D01*
X159952380Y-111738095D01*
X159952380Y-111500000D01*
X160000000Y-111404761D01*
X160047619Y-111357142D01*
X160142857Y-111309523D01*
X160238095Y-111309523D01*
X160380952Y-111357142D01*
X160952380Y-111928571D01*
X160952380Y-111309523D01*
X160571428Y-110880952D02*
X160571428Y-110119047D01*
X160952380Y-109119047D02*
X160952380Y-109690476D01*
X160952380Y-109404761D02*
X159952380Y-109404761D01*
X160095238Y-109500000D01*
X160190476Y-109595238D01*
X160238095Y-109690476D01*
X160952380Y-108166666D02*
X160952380Y-108738095D01*
X160952380Y-108452380D02*
X159952380Y-108452380D01*
X160095238Y-108547619D01*
X160190476Y-108642857D01*
X160238095Y-108738095D01*
D10*
X157412857Y-93310000D02*
X157270000Y-93238571D01*
X157055714Y-93238571D01*
X156841428Y-93310000D01*
X156698571Y-93452857D01*
X156627142Y-93595714D01*
X156555714Y-93881428D01*
X156555714Y-94095714D01*
X156627142Y-94381428D01*
X156698571Y-94524285D01*
X156841428Y-94667142D01*
X157055714Y-94738571D01*
X157198571Y-94738571D01*
X157412857Y-94667142D01*
X157484285Y-94595714D01*
X157484285Y-94095714D01*
X157198571Y-94095714D01*
X158127142Y-94738571D02*
X158127142Y-93238571D01*
X158984285Y-94738571D01*
X158984285Y-93238571D01*
X159698571Y-94738571D02*
X159698571Y-93238571D01*
X160055714Y-93238571D01*
X160270000Y-93310000D01*
X160412857Y-93452857D01*
X160484285Y-93595714D01*
X160555714Y-93881428D01*
X160555714Y-94095714D01*
X160484285Y-94381428D01*
X160412857Y-94524285D01*
X160270000Y-94667142D01*
X160055714Y-94738571D01*
X159698571Y-94738571D01*
X119593571Y-87278571D02*
X119593571Y-85778571D01*
X120093571Y-86850000D01*
X120593571Y-85778571D01*
X120593571Y-87278571D01*
X121593571Y-85778571D02*
X121879285Y-85778571D01*
X122022142Y-85850000D01*
X122165000Y-85992857D01*
X122236428Y-86278571D01*
X122236428Y-86778571D01*
X122165000Y-87064285D01*
X122022142Y-87207142D01*
X121879285Y-87278571D01*
X121593571Y-87278571D01*
X121450714Y-87207142D01*
X121307857Y-87064285D01*
X121236428Y-86778571D01*
X121236428Y-86278571D01*
X121307857Y-85992857D01*
X121450714Y-85850000D01*
X121593571Y-85778571D01*
X122807857Y-87207142D02*
X123022142Y-87278571D01*
X123379285Y-87278571D01*
X123522142Y-87207142D01*
X123593571Y-87135714D01*
X123665000Y-86992857D01*
X123665000Y-86850000D01*
X123593571Y-86707142D01*
X123522142Y-86635714D01*
X123379285Y-86564285D01*
X123093571Y-86492857D01*
X122950714Y-86421428D01*
X122879285Y-86350000D01*
X122807857Y-86207142D01*
X122807857Y-86064285D01*
X122879285Y-85921428D01*
X122950714Y-85850000D01*
X123093571Y-85778571D01*
X123450714Y-85778571D01*
X123665000Y-85850000D01*
X124307857Y-87278571D02*
X124307857Y-85778571D01*
X121236428Y-93470000D02*
X121093571Y-93398571D01*
X120879285Y-93398571D01*
X120665000Y-93470000D01*
X120522142Y-93612857D01*
X120450714Y-93755714D01*
X120379285Y-94041428D01*
X120379285Y-94255714D01*
X120450714Y-94541428D01*
X120522142Y-94684285D01*
X120665000Y-94827142D01*
X120879285Y-94898571D01*
X121022142Y-94898571D01*
X121236428Y-94827142D01*
X121307857Y-94755714D01*
X121307857Y-94255714D01*
X121022142Y-94255714D01*
X121950714Y-94898571D02*
X121950714Y-93398571D01*
X122807857Y-94898571D01*
X122807857Y-93398571D01*
X123522142Y-94898571D02*
X123522142Y-93398571D01*
X123879285Y-93398571D01*
X124093571Y-93470000D01*
X124236428Y-93612857D01*
X124307857Y-93755714D01*
X124379285Y-94041428D01*
X124379285Y-94255714D01*
X124307857Y-94541428D01*
X124236428Y-94684285D01*
X124093571Y-94827142D01*
X123879285Y-94898571D01*
X123522142Y-94898571D01*
X157412857Y-80610000D02*
X157270000Y-80538571D01*
X157055714Y-80538571D01*
X156841428Y-80610000D01*
X156698571Y-80752857D01*
X156627142Y-80895714D01*
X156555714Y-81181428D01*
X156555714Y-81395714D01*
X156627142Y-81681428D01*
X156698571Y-81824285D01*
X156841428Y-81967142D01*
X157055714Y-82038571D01*
X157198571Y-82038571D01*
X157412857Y-81967142D01*
X157484285Y-81895714D01*
X157484285Y-81395714D01*
X157198571Y-81395714D01*
X158127142Y-82038571D02*
X158127142Y-80538571D01*
X158984285Y-82038571D01*
X158984285Y-80538571D01*
X159698571Y-82038571D02*
X159698571Y-80538571D01*
X160055714Y-80538571D01*
X160270000Y-80610000D01*
X160412857Y-80752857D01*
X160484285Y-80895714D01*
X160555714Y-81181428D01*
X160555714Y-81395714D01*
X160484285Y-81681428D01*
X160412857Y-81824285D01*
X160270000Y-81967142D01*
X160055714Y-82038571D01*
X159698571Y-82038571D01*
X120522142Y-84667142D02*
X120736428Y-84738571D01*
X121093571Y-84738571D01*
X121236428Y-84667142D01*
X121307857Y-84595714D01*
X121379285Y-84452857D01*
X121379285Y-84310000D01*
X121307857Y-84167142D01*
X121236428Y-84095714D01*
X121093571Y-84024285D01*
X120807857Y-83952857D01*
X120665000Y-83881428D01*
X120593571Y-83810000D01*
X120522142Y-83667142D01*
X120522142Y-83524285D01*
X120593571Y-83381428D01*
X120665000Y-83310000D01*
X120807857Y-83238571D01*
X121165000Y-83238571D01*
X121379285Y-83310000D01*
X122879285Y-84595714D02*
X122807857Y-84667142D01*
X122593571Y-84738571D01*
X122450714Y-84738571D01*
X122236428Y-84667142D01*
X122093571Y-84524285D01*
X122022142Y-84381428D01*
X121950714Y-84095714D01*
X121950714Y-83881428D01*
X122022142Y-83595714D01*
X122093571Y-83452857D01*
X122236428Y-83310000D01*
X122450714Y-83238571D01*
X122593571Y-83238571D01*
X122807857Y-83310000D01*
X122879285Y-83381428D01*
X123522142Y-84738571D02*
X123522142Y-83238571D01*
X124379285Y-84738571D02*
X123736428Y-83881428D01*
X124379285Y-83238571D02*
X123522142Y-84095714D01*
X118990714Y-73078571D02*
X118276428Y-73078571D01*
X118205000Y-73792857D01*
X118276428Y-73721428D01*
X118419285Y-73650000D01*
X118776428Y-73650000D01*
X118919285Y-73721428D01*
X118990714Y-73792857D01*
X119062142Y-73935714D01*
X119062142Y-74292857D01*
X118990714Y-74435714D01*
X118919285Y-74507142D01*
X118776428Y-74578571D01*
X118419285Y-74578571D01*
X118276428Y-74507142D01*
X118205000Y-74435714D01*
X119490714Y-73078571D02*
X119990714Y-74578571D01*
X120490714Y-73078571D01*
X120633571Y-74721428D02*
X121776428Y-74721428D01*
X122133571Y-73792857D02*
X122633571Y-73792857D01*
X122847857Y-74578571D02*
X122133571Y-74578571D01*
X122133571Y-73078571D01*
X122847857Y-73078571D01*
X123490714Y-74578571D02*
X123490714Y-73078571D01*
X124347857Y-74578571D01*
X124347857Y-73078571D01*
X157412857Y-67910000D02*
X157270000Y-67838571D01*
X157055714Y-67838571D01*
X156841428Y-67910000D01*
X156698571Y-68052857D01*
X156627142Y-68195714D01*
X156555714Y-68481428D01*
X156555714Y-68695714D01*
X156627142Y-68981428D01*
X156698571Y-69124285D01*
X156841428Y-69267142D01*
X157055714Y-69338571D01*
X157198571Y-69338571D01*
X157412857Y-69267142D01*
X157484285Y-69195714D01*
X157484285Y-68695714D01*
X157198571Y-68695714D01*
X158127142Y-69338571D02*
X158127142Y-67838571D01*
X158984285Y-69338571D01*
X158984285Y-67838571D01*
X159698571Y-69338571D02*
X159698571Y-67838571D01*
X160055714Y-67838571D01*
X160270000Y-67910000D01*
X160412857Y-68052857D01*
X160484285Y-68195714D01*
X160555714Y-68481428D01*
X160555714Y-68695714D01*
X160484285Y-68981428D01*
X160412857Y-69124285D01*
X160270000Y-69267142D01*
X160055714Y-69338571D01*
X159698571Y-69338571D01*
X156627142Y-51307142D02*
X157770000Y-51307142D01*
X157198571Y-51878571D02*
X157198571Y-50735714D01*
X159198571Y-50378571D02*
X158484285Y-50378571D01*
X158412857Y-51092857D01*
X158484285Y-51021428D01*
X158627142Y-50950000D01*
X158984285Y-50950000D01*
X159127142Y-51021428D01*
X159198571Y-51092857D01*
X159270000Y-51235714D01*
X159270000Y-51592857D01*
X159198571Y-51735714D01*
X159127142Y-51807142D01*
X158984285Y-51878571D01*
X158627142Y-51878571D01*
X158484285Y-51807142D01*
X158412857Y-51735714D01*
X159698571Y-50378571D02*
X160198571Y-51878571D01*
X160698571Y-50378571D01*
X121236428Y-80770000D02*
X121093571Y-80698571D01*
X120879285Y-80698571D01*
X120665000Y-80770000D01*
X120522142Y-80912857D01*
X120450714Y-81055714D01*
X120379285Y-81341428D01*
X120379285Y-81555714D01*
X120450714Y-81841428D01*
X120522142Y-81984285D01*
X120665000Y-82127142D01*
X120879285Y-82198571D01*
X121022142Y-82198571D01*
X121236428Y-82127142D01*
X121307857Y-82055714D01*
X121307857Y-81555714D01*
X121022142Y-81555714D01*
X121950714Y-82198571D02*
X121950714Y-80698571D01*
X122807857Y-82198571D01*
X122807857Y-80698571D01*
X123522142Y-82198571D02*
X123522142Y-80698571D01*
X123879285Y-80698571D01*
X124093571Y-80770000D01*
X124236428Y-80912857D01*
X124307857Y-81055714D01*
X124379285Y-81341428D01*
X124379285Y-81555714D01*
X124307857Y-81841428D01*
X124236428Y-81984285D01*
X124093571Y-82127142D01*
X123879285Y-82198571D01*
X123522142Y-82198571D01*
X120307857Y-97295714D02*
X120236428Y-97367142D01*
X120022142Y-97438571D01*
X119879285Y-97438571D01*
X119665000Y-97367142D01*
X119522142Y-97224285D01*
X119450714Y-97081428D01*
X119379285Y-96795714D01*
X119379285Y-96581428D01*
X119450714Y-96295714D01*
X119522142Y-96152857D01*
X119665000Y-96010000D01*
X119879285Y-95938571D01*
X120022142Y-95938571D01*
X120236428Y-96010000D01*
X120307857Y-96081428D01*
X121807857Y-97438571D02*
X121307857Y-96724285D01*
X120950714Y-97438571D02*
X120950714Y-95938571D01*
X121522142Y-95938571D01*
X121665000Y-96010000D01*
X121736428Y-96081428D01*
X121807857Y-96224285D01*
X121807857Y-96438571D01*
X121736428Y-96581428D01*
X121665000Y-96652857D01*
X121522142Y-96724285D01*
X120950714Y-96724285D01*
X122379285Y-97367142D02*
X122593571Y-97438571D01*
X122950714Y-97438571D01*
X123093571Y-97367142D01*
X123165000Y-97295714D01*
X123236428Y-97152857D01*
X123236428Y-97010000D01*
X123165000Y-96867142D01*
X123093571Y-96795714D01*
X122950714Y-96724285D01*
X122665000Y-96652857D01*
X122522142Y-96581428D01*
X122450714Y-96510000D01*
X122379285Y-96367142D01*
X122379285Y-96224285D01*
X122450714Y-96081428D01*
X122522142Y-96010000D01*
X122665000Y-95938571D01*
X123022142Y-95938571D01*
X123236428Y-96010000D01*
X123665000Y-95938571D02*
X124522142Y-95938571D01*
X124093571Y-97438571D02*
X124093571Y-95938571D01*
X119593571Y-92358571D02*
X119593571Y-90858571D01*
X120093571Y-91930000D01*
X120593571Y-90858571D01*
X120593571Y-92358571D01*
X121307857Y-92358571D02*
X121307857Y-90858571D01*
X121950714Y-92287142D02*
X122165000Y-92358571D01*
X122522142Y-92358571D01*
X122665000Y-92287142D01*
X122736428Y-92215714D01*
X122807857Y-92072857D01*
X122807857Y-91930000D01*
X122736428Y-91787142D01*
X122665000Y-91715714D01*
X122522142Y-91644285D01*
X122236428Y-91572857D01*
X122093571Y-91501428D01*
X122022142Y-91430000D01*
X121950714Y-91287142D01*
X121950714Y-91144285D01*
X122022142Y-91001428D01*
X122093571Y-90930000D01*
X122236428Y-90858571D01*
X122593571Y-90858571D01*
X122807857Y-90930000D01*
X123736428Y-90858571D02*
X124022142Y-90858571D01*
X124165000Y-90930000D01*
X124307857Y-91072857D01*
X124379285Y-91358571D01*
X124379285Y-91858571D01*
X124307857Y-92144285D01*
X124165000Y-92287142D01*
X124022142Y-92358571D01*
X123736428Y-92358571D01*
X123593571Y-92287142D01*
X123450714Y-92144285D01*
X123379285Y-91858571D01*
X123379285Y-91358571D01*
X123450714Y-91072857D01*
X123593571Y-90930000D01*
X123736428Y-90858571D01*
X119950714Y-99835714D02*
X119879285Y-99907142D01*
X119665000Y-99978571D01*
X119522142Y-99978571D01*
X119307857Y-99907142D01*
X119165000Y-99764285D01*
X119093571Y-99621428D01*
X119022142Y-99335714D01*
X119022142Y-99121428D01*
X119093571Y-98835714D01*
X119165000Y-98692857D01*
X119307857Y-98550000D01*
X119522142Y-98478571D01*
X119665000Y-98478571D01*
X119879285Y-98550000D01*
X119950714Y-98621428D01*
X120593571Y-99978571D02*
X120593571Y-98478571D01*
X120950714Y-98478571D01*
X121165000Y-98550000D01*
X121307857Y-98692857D01*
X121379285Y-98835714D01*
X121450714Y-99121428D01*
X121450714Y-99335714D01*
X121379285Y-99621428D01*
X121307857Y-99764285D01*
X121165000Y-99907142D01*
X120950714Y-99978571D01*
X120593571Y-99978571D01*
X122093571Y-99978571D02*
X122093571Y-98478571D01*
X122950714Y-99978571D01*
X122950714Y-98478571D01*
X123665000Y-99192857D02*
X124165000Y-99192857D01*
X124379285Y-99978571D02*
X123665000Y-99978571D01*
X123665000Y-98478571D01*
X124379285Y-98478571D01*
X122093571Y-89747142D02*
X122307857Y-89818571D01*
X122665000Y-89818571D01*
X122807857Y-89747142D01*
X122879285Y-89675714D01*
X122950714Y-89532857D01*
X122950714Y-89390000D01*
X122879285Y-89247142D01*
X122807857Y-89175714D01*
X122665000Y-89104285D01*
X122379285Y-89032857D01*
X122236428Y-88961428D01*
X122165000Y-88890000D01*
X122093571Y-88747142D01*
X122093571Y-88604285D01*
X122165000Y-88461428D01*
X122236428Y-88390000D01*
X122379285Y-88318571D01*
X122736428Y-88318571D01*
X122950714Y-88390000D01*
X123522142Y-89747142D02*
X123736428Y-89818571D01*
X124093571Y-89818571D01*
X124236428Y-89747142D01*
X124307857Y-89675714D01*
X124379285Y-89532857D01*
X124379285Y-89390000D01*
X124307857Y-89247142D01*
X124236428Y-89175714D01*
X124093571Y-89104285D01*
X123807857Y-89032857D01*
X123665000Y-88961428D01*
X123593571Y-88890000D01*
X123522142Y-88747142D01*
X123522142Y-88604285D01*
X123593571Y-88461428D01*
X123665000Y-88390000D01*
X123807857Y-88318571D01*
X124165000Y-88318571D01*
X124379285Y-88390000D01*
D11*
%TO.C,R16*%
X130202380Y-103542857D02*
X129726190Y-103876190D01*
X130202380Y-104114285D02*
X129202380Y-104114285D01*
X129202380Y-103733333D01*
X129250000Y-103638095D01*
X129297619Y-103590476D01*
X129392857Y-103542857D01*
X129535714Y-103542857D01*
X129630952Y-103590476D01*
X129678571Y-103638095D01*
X129726190Y-103733333D01*
X129726190Y-104114285D01*
X130202380Y-102590476D02*
X130202380Y-103161904D01*
X130202380Y-102876190D02*
X129202380Y-102876190D01*
X129345238Y-102971428D01*
X129440476Y-103066666D01*
X129488095Y-103161904D01*
X129202380Y-101733333D02*
X129202380Y-101923809D01*
X129250000Y-102019047D01*
X129297619Y-102066666D01*
X129440476Y-102161904D01*
X129630952Y-102209523D01*
X130011904Y-102209523D01*
X130107142Y-102161904D01*
X130154761Y-102114285D01*
X130202380Y-102019047D01*
X130202380Y-101828571D01*
X130154761Y-101733333D01*
X130107142Y-101685714D01*
X130011904Y-101638095D01*
X129773809Y-101638095D01*
X129678571Y-101685714D01*
X129630952Y-101733333D01*
X129583333Y-101828571D01*
X129583333Y-102019047D01*
X129630952Y-102114285D01*
X129678571Y-102161904D01*
X129773809Y-102209523D01*
%TO.C,JIG1*%
X141152380Y-121171428D02*
X141866666Y-121171428D01*
X142009523Y-121219047D01*
X142104761Y-121314285D01*
X142152380Y-121457142D01*
X142152380Y-121552380D01*
X142152380Y-120695238D02*
X141152380Y-120695238D01*
X141200000Y-119695238D02*
X141152380Y-119790476D01*
X141152380Y-119933333D01*
X141200000Y-120076190D01*
X141295238Y-120171428D01*
X141390476Y-120219047D01*
X141580952Y-120266666D01*
X141723809Y-120266666D01*
X141914285Y-120219047D01*
X142009523Y-120171428D01*
X142104761Y-120076190D01*
X142152380Y-119933333D01*
X142152380Y-119838095D01*
X142104761Y-119695238D01*
X142057142Y-119647619D01*
X141723809Y-119647619D01*
X141723809Y-119838095D01*
X142152380Y-118695238D02*
X142152380Y-119266666D01*
X142152380Y-118980952D02*
X141152380Y-118980952D01*
X141295238Y-119076190D01*
X141390476Y-119171428D01*
X141438095Y-119266666D01*
%TO.C,J4*%
X136583333Y-123297619D02*
X136583333Y-122583333D01*
X136630952Y-122440476D01*
X136726190Y-122345238D01*
X136869047Y-122297619D01*
X136964285Y-122297619D01*
X135678571Y-122964285D02*
X135678571Y-122297619D01*
X135916666Y-123345238D02*
X136154761Y-122630952D01*
X135535714Y-122630952D01*
%TO.C,J3*%
X143416666Y-127202380D02*
X143416666Y-127916666D01*
X143369047Y-128059523D01*
X143273809Y-128154761D01*
X143130952Y-128202380D01*
X143035714Y-128202380D01*
X143797619Y-127202380D02*
X144416666Y-127202380D01*
X144083333Y-127583333D01*
X144226190Y-127583333D01*
X144321428Y-127630952D01*
X144369047Y-127678571D01*
X144416666Y-127773809D01*
X144416666Y-128011904D01*
X144369047Y-128107142D01*
X144321428Y-128154761D01*
X144226190Y-128202380D01*
X143940476Y-128202380D01*
X143845238Y-128154761D01*
X143797619Y-128107142D01*
%TO.C,F1*%
X159478571Y-53333333D02*
X159478571Y-53666666D01*
X160002380Y-53666666D02*
X159002380Y-53666666D01*
X159002380Y-53190476D01*
X160002380Y-52285714D02*
X160002380Y-52857142D01*
X160002380Y-52571428D02*
X159002380Y-52571428D01*
X159145238Y-52666666D01*
X159240476Y-52761904D01*
X159288095Y-52857142D01*
%TO.C,R12*%
X124202380Y-103542857D02*
X123726190Y-103876190D01*
X124202380Y-104114285D02*
X123202380Y-104114285D01*
X123202380Y-103733333D01*
X123250000Y-103638095D01*
X123297619Y-103590476D01*
X123392857Y-103542857D01*
X123535714Y-103542857D01*
X123630952Y-103590476D01*
X123678571Y-103638095D01*
X123726190Y-103733333D01*
X123726190Y-104114285D01*
X124202380Y-102590476D02*
X124202380Y-103161904D01*
X124202380Y-102876190D02*
X123202380Y-102876190D01*
X123345238Y-102971428D01*
X123440476Y-103066666D01*
X123488095Y-103161904D01*
X123297619Y-102209523D02*
X123250000Y-102161904D01*
X123202380Y-102066666D01*
X123202380Y-101828571D01*
X123250000Y-101733333D01*
X123297619Y-101685714D01*
X123392857Y-101638095D01*
X123488095Y-101638095D01*
X123630952Y-101685714D01*
X124202380Y-102257142D01*
X124202380Y-101638095D01*
%TO.C,R14*%
X127202380Y-103542857D02*
X126726190Y-103876190D01*
X127202380Y-104114285D02*
X126202380Y-104114285D01*
X126202380Y-103733333D01*
X126250000Y-103638095D01*
X126297619Y-103590476D01*
X126392857Y-103542857D01*
X126535714Y-103542857D01*
X126630952Y-103590476D01*
X126678571Y-103638095D01*
X126726190Y-103733333D01*
X126726190Y-104114285D01*
X127202380Y-102590476D02*
X127202380Y-103161904D01*
X127202380Y-102876190D02*
X126202380Y-102876190D01*
X126345238Y-102971428D01*
X126440476Y-103066666D01*
X126488095Y-103161904D01*
X126535714Y-101733333D02*
X127202380Y-101733333D01*
X126154761Y-101971428D02*
X126869047Y-102209523D01*
X126869047Y-101590476D01*
%TO.C,R11*%
X122702380Y-103542857D02*
X122226190Y-103876190D01*
X122702380Y-104114285D02*
X121702380Y-104114285D01*
X121702380Y-103733333D01*
X121750000Y-103638095D01*
X121797619Y-103590476D01*
X121892857Y-103542857D01*
X122035714Y-103542857D01*
X122130952Y-103590476D01*
X122178571Y-103638095D01*
X122226190Y-103733333D01*
X122226190Y-104114285D01*
X122702380Y-102590476D02*
X122702380Y-103161904D01*
X122702380Y-102876190D02*
X121702380Y-102876190D01*
X121845238Y-102971428D01*
X121940476Y-103066666D01*
X121988095Y-103161904D01*
X122702380Y-101638095D02*
X122702380Y-102209523D01*
X122702380Y-101923809D02*
X121702380Y-101923809D01*
X121845238Y-102019047D01*
X121940476Y-102114285D01*
X121988095Y-102209523D01*
%TO.C,R13*%
X125702380Y-103542857D02*
X125226190Y-103876190D01*
X125702380Y-104114285D02*
X124702380Y-104114285D01*
X124702380Y-103733333D01*
X124750000Y-103638095D01*
X124797619Y-103590476D01*
X124892857Y-103542857D01*
X125035714Y-103542857D01*
X125130952Y-103590476D01*
X125178571Y-103638095D01*
X125226190Y-103733333D01*
X125226190Y-104114285D01*
X125702380Y-102590476D02*
X125702380Y-103161904D01*
X125702380Y-102876190D02*
X124702380Y-102876190D01*
X124845238Y-102971428D01*
X124940476Y-103066666D01*
X124988095Y-103161904D01*
X124702380Y-102257142D02*
X124702380Y-101638095D01*
X125083333Y-101971428D01*
X125083333Y-101828571D01*
X125130952Y-101733333D01*
X125178571Y-101685714D01*
X125273809Y-101638095D01*
X125511904Y-101638095D01*
X125607142Y-101685714D01*
X125654761Y-101733333D01*
X125702380Y-101828571D01*
X125702380Y-102114285D01*
X125654761Y-102209523D01*
X125607142Y-102257142D01*
%TO.C,Q1*%
X123504761Y-113647619D02*
X123409523Y-113600000D01*
X123314285Y-113504761D01*
X123171428Y-113361904D01*
X123076190Y-113314285D01*
X122980952Y-113314285D01*
X123028571Y-113552380D02*
X122933333Y-113504761D01*
X122838095Y-113409523D01*
X122790476Y-113219047D01*
X122790476Y-112885714D01*
X122838095Y-112695238D01*
X122933333Y-112600000D01*
X123028571Y-112552380D01*
X123219047Y-112552380D01*
X123314285Y-112600000D01*
X123409523Y-112695238D01*
X123457142Y-112885714D01*
X123457142Y-113219047D01*
X123409523Y-113409523D01*
X123314285Y-113504761D01*
X123219047Y-113552380D01*
X123028571Y-113552380D01*
X124409523Y-113552380D02*
X123838095Y-113552380D01*
X124123809Y-113552380D02*
X124123809Y-112552380D01*
X124028571Y-112695238D01*
X123933333Y-112790476D01*
X123838095Y-112838095D01*
%TO.C,R8*%
X120952380Y-123666666D02*
X120476190Y-124000000D01*
X120952380Y-124238095D02*
X119952380Y-124238095D01*
X119952380Y-123857142D01*
X120000000Y-123761904D01*
X120047619Y-123714285D01*
X120142857Y-123666666D01*
X120285714Y-123666666D01*
X120380952Y-123714285D01*
X120428571Y-123761904D01*
X120476190Y-123857142D01*
X120476190Y-124238095D01*
X120380952Y-123095238D02*
X120333333Y-123190476D01*
X120285714Y-123238095D01*
X120190476Y-123285714D01*
X120142857Y-123285714D01*
X120047619Y-123238095D01*
X120000000Y-123190476D01*
X119952380Y-123095238D01*
X119952380Y-122904761D01*
X120000000Y-122809523D01*
X120047619Y-122761904D01*
X120142857Y-122714285D01*
X120190476Y-122714285D01*
X120285714Y-122761904D01*
X120333333Y-122809523D01*
X120380952Y-122904761D01*
X120380952Y-123095238D01*
X120428571Y-123190476D01*
X120476190Y-123238095D01*
X120571428Y-123285714D01*
X120761904Y-123285714D01*
X120857142Y-123238095D01*
X120904761Y-123190476D01*
X120952380Y-123095238D01*
X120952380Y-122904761D01*
X120904761Y-122809523D01*
X120857142Y-122761904D01*
X120761904Y-122714285D01*
X120571428Y-122714285D01*
X120476190Y-122761904D01*
X120428571Y-122809523D01*
X120380952Y-122904761D01*
%TO.C,Q2*%
X123504761Y-120247619D02*
X123409523Y-120200000D01*
X123314285Y-120104761D01*
X123171428Y-119961904D01*
X123076190Y-119914285D01*
X122980952Y-119914285D01*
X123028571Y-120152380D02*
X122933333Y-120104761D01*
X122838095Y-120009523D01*
X122790476Y-119819047D01*
X122790476Y-119485714D01*
X122838095Y-119295238D01*
X122933333Y-119200000D01*
X123028571Y-119152380D01*
X123219047Y-119152380D01*
X123314285Y-119200000D01*
X123409523Y-119295238D01*
X123457142Y-119485714D01*
X123457142Y-119819047D01*
X123409523Y-120009523D01*
X123314285Y-120104761D01*
X123219047Y-120152380D01*
X123028571Y-120152380D01*
X123838095Y-119247619D02*
X123885714Y-119200000D01*
X123980952Y-119152380D01*
X124219047Y-119152380D01*
X124314285Y-119200000D01*
X124361904Y-119247619D01*
X124409523Y-119342857D01*
X124409523Y-119438095D01*
X124361904Y-119580952D01*
X123790476Y-120152380D01*
X124409523Y-120152380D01*
%TO.C,U2*%
X139738095Y-74452380D02*
X139738095Y-75261904D01*
X139785714Y-75357142D01*
X139833333Y-75404761D01*
X139928571Y-75452380D01*
X140119047Y-75452380D01*
X140214285Y-75404761D01*
X140261904Y-75357142D01*
X140309523Y-75261904D01*
X140309523Y-74452380D01*
X140738095Y-74547619D02*
X140785714Y-74500000D01*
X140880952Y-74452380D01*
X141119047Y-74452380D01*
X141214285Y-74500000D01*
X141261904Y-74547619D01*
X141309523Y-74642857D01*
X141309523Y-74738095D01*
X141261904Y-74880952D01*
X140690476Y-75452380D01*
X141309523Y-75452380D01*
%TO.C,R17*%
X121202380Y-103442857D02*
X120726190Y-103776190D01*
X121202380Y-104014285D02*
X120202380Y-104014285D01*
X120202380Y-103633333D01*
X120250000Y-103538095D01*
X120297619Y-103490476D01*
X120392857Y-103442857D01*
X120535714Y-103442857D01*
X120630952Y-103490476D01*
X120678571Y-103538095D01*
X120726190Y-103633333D01*
X120726190Y-104014285D01*
X121202380Y-102490476D02*
X121202380Y-103061904D01*
X121202380Y-102776190D02*
X120202380Y-102776190D01*
X120345238Y-102871428D01*
X120440476Y-102966666D01*
X120488095Y-103061904D01*
X120202380Y-102157142D02*
X120202380Y-101490476D01*
X121202380Y-101919047D01*
%TO.C,R15*%
X128702380Y-103542857D02*
X128226190Y-103876190D01*
X128702380Y-104114285D02*
X127702380Y-104114285D01*
X127702380Y-103733333D01*
X127750000Y-103638095D01*
X127797619Y-103590476D01*
X127892857Y-103542857D01*
X128035714Y-103542857D01*
X128130952Y-103590476D01*
X128178571Y-103638095D01*
X128226190Y-103733333D01*
X128226190Y-104114285D01*
X128702380Y-102590476D02*
X128702380Y-103161904D01*
X128702380Y-102876190D02*
X127702380Y-102876190D01*
X127845238Y-102971428D01*
X127940476Y-103066666D01*
X127988095Y-103161904D01*
X127702380Y-101685714D02*
X127702380Y-102161904D01*
X128178571Y-102209523D01*
X128130952Y-102161904D01*
X128083333Y-102066666D01*
X128083333Y-101828571D01*
X128130952Y-101733333D01*
X128178571Y-101685714D01*
X128273809Y-101638095D01*
X128511904Y-101638095D01*
X128607142Y-101685714D01*
X128654761Y-101733333D01*
X128702380Y-101828571D01*
X128702380Y-102066666D01*
X128654761Y-102161904D01*
X128607142Y-102209523D01*
%TO.C,R7*%
X119862380Y-103196666D02*
X119386190Y-103530000D01*
X119862380Y-103768095D02*
X118862380Y-103768095D01*
X118862380Y-103387142D01*
X118910000Y-103291904D01*
X118957619Y-103244285D01*
X119052857Y-103196666D01*
X119195714Y-103196666D01*
X119290952Y-103244285D01*
X119338571Y-103291904D01*
X119386190Y-103387142D01*
X119386190Y-103768095D01*
X118862380Y-102863333D02*
X118862380Y-102196666D01*
X119862380Y-102625238D01*
D12*
%TO.C,R16*%
X130130000Y-105553641D02*
X130130000Y-105246359D01*
X129370000Y-105553641D02*
X129370000Y-105246359D01*
%TO.C,G\u002A\u002A\u002A*%
G36*
X154344667Y-113671404D02*
G01*
X156778833Y-113693869D01*
X159213000Y-113716334D01*
X159256044Y-133232000D01*
X154344667Y-133232000D01*
X154344667Y-130119862D01*
X155271804Y-130119862D01*
X155295069Y-131443098D01*
X155318333Y-132766334D01*
X155593500Y-132792865D01*
X155868666Y-132819396D01*
X155868667Y-132348365D01*
X155868667Y-131877334D01*
X157039889Y-131877334D01*
X157469608Y-131873179D01*
X157837501Y-131861780D01*
X158110961Y-131844740D01*
X158257381Y-131823658D01*
X158271585Y-131816860D01*
X158305518Y-131699198D01*
X158309267Y-131490310D01*
X158306863Y-131457027D01*
X158281667Y-131157667D01*
X157079511Y-131134202D01*
X155877356Y-131110738D01*
X155851845Y-130671636D01*
X155829948Y-130412988D01*
X155783371Y-130274915D01*
X155682361Y-130208736D01*
X155549069Y-130176198D01*
X155271804Y-130119862D01*
X154344667Y-130119862D01*
X154344667Y-129591334D01*
X155276000Y-129591334D01*
X158324000Y-129591334D01*
X158324000Y-128914000D01*
X155276000Y-128914000D01*
X155276000Y-129591334D01*
X154344667Y-129591334D01*
X154344667Y-127898000D01*
X155276000Y-127898000D01*
X158329374Y-127898000D01*
X158324000Y-127674628D01*
X158305520Y-126906500D01*
X158281667Y-125915000D01*
X158006500Y-125858860D01*
X157731333Y-125802721D01*
X157731333Y-127220667D01*
X155276000Y-127220667D01*
X155276000Y-127898000D01*
X154344667Y-127898000D01*
X154344667Y-125273334D01*
X155276000Y-125273334D01*
X158324000Y-125273334D01*
X158324000Y-124304664D01*
X158318775Y-123918016D01*
X158304583Y-123598195D01*
X158283648Y-123380369D01*
X158260500Y-123300370D01*
X158137703Y-123255942D01*
X157964167Y-123209093D01*
X157731333Y-123153441D01*
X157731333Y-124596000D01*
X155276000Y-124596000D01*
X155276000Y-125273334D01*
X154344667Y-125273334D01*
X154344667Y-121886667D01*
X155276000Y-121886667D01*
X155276000Y-122564000D01*
X158324000Y-122564000D01*
X158324000Y-121886667D01*
X155276000Y-121886667D01*
X154344667Y-121886667D01*
X154344667Y-121378667D01*
X155276000Y-121378667D01*
X155868667Y-121378667D01*
X155868667Y-120447334D01*
X157039889Y-120447334D01*
X157469608Y-120443179D01*
X157837501Y-120431780D01*
X158110961Y-120414740D01*
X158257381Y-120393658D01*
X158271585Y-120386860D01*
X158305518Y-120269198D01*
X158309267Y-120060310D01*
X158306863Y-120027027D01*
X158281667Y-119727667D01*
X157079511Y-119704202D01*
X155877356Y-119680738D01*
X155851845Y-119241636D01*
X155829892Y-118982930D01*
X155783287Y-118844842D01*
X155682484Y-118778727D01*
X155551167Y-118746627D01*
X155276000Y-118690721D01*
X155276000Y-121378667D01*
X154344667Y-121378667D01*
X154344667Y-117484000D01*
X155276000Y-117484000D01*
X155276000Y-118161334D01*
X158324000Y-118161334D01*
X158324000Y-117484000D01*
X155276000Y-117484000D01*
X154344667Y-117484000D01*
X154344667Y-114811818D01*
X155283521Y-114811818D01*
X155286017Y-115134500D01*
X155296167Y-115642941D01*
X155318409Y-116010791D01*
X155360807Y-116266746D01*
X155431423Y-116439502D01*
X155538322Y-116557753D01*
X155689565Y-116650195D01*
X155715534Y-116663101D01*
X155959886Y-116758306D01*
X156179596Y-116765222D01*
X156375465Y-116722324D01*
X156540927Y-116671297D01*
X156665186Y-116602719D01*
X156766821Y-116488034D01*
X156864412Y-116298688D01*
X156976538Y-116006126D01*
X157121778Y-115581793D01*
X157126290Y-115568370D01*
X157248727Y-115227767D01*
X157346544Y-115022450D01*
X157436762Y-114923572D01*
X157519667Y-114901667D01*
X157596717Y-114914204D01*
X157647632Y-114972050D01*
X157679246Y-115105563D01*
X157698395Y-115345097D01*
X157711915Y-115721010D01*
X157713028Y-115760374D01*
X157726352Y-116150138D01*
X157745118Y-116403043D01*
X157776883Y-116551547D01*
X157829207Y-116628112D01*
X157909646Y-116665196D01*
X157924694Y-116669384D01*
X158084001Y-116708018D01*
X158194053Y-116707671D01*
X158263960Y-116644348D01*
X158302830Y-116494053D01*
X158319773Y-116232790D01*
X158323899Y-115836563D01*
X158324000Y-115617485D01*
X158322435Y-115164397D01*
X158314314Y-114848166D01*
X158294494Y-114636321D01*
X158257832Y-114496391D01*
X158199188Y-114395904D01*
X158116182Y-114305152D01*
X157919567Y-114161013D01*
X157670812Y-114102655D01*
X157519666Y-114097334D01*
X157218266Y-114132895D01*
X156985918Y-114255078D01*
X156800643Y-114487129D01*
X156640460Y-114852297D01*
X156555437Y-115117129D01*
X156461607Y-115432184D01*
X156383924Y-115689825D01*
X156336945Y-115841839D01*
X156332905Y-115854167D01*
X156229882Y-115940947D01*
X156125324Y-115960000D01*
X156045023Y-115948301D01*
X155994525Y-115892104D01*
X155966979Y-115759764D01*
X155955533Y-115519634D01*
X155953333Y-115165542D01*
X155950848Y-114793779D01*
X155938287Y-114557349D01*
X155907994Y-114422271D01*
X155852313Y-114354560D01*
X155763588Y-114320234D01*
X155762833Y-114320031D01*
X155551315Y-114268740D01*
X155412363Y-114267097D01*
X155331238Y-114340279D01*
X155293204Y-114513461D01*
X155283521Y-114811818D01*
X154344667Y-114811818D01*
X154344667Y-113671404D01*
G37*
G36*
X158281667Y-112615667D02*
G01*
X158307701Y-112975500D01*
X158333736Y-113335334D01*
X155360667Y-113335334D01*
X155360667Y-112569335D01*
X158281667Y-112615667D01*
G37*
G36*
X158324000Y-110714703D02*
G01*
X158319889Y-110935349D01*
X158292359Y-111098635D01*
X158218617Y-111245479D01*
X158075868Y-111416797D01*
X157841319Y-111653508D01*
X157752500Y-111740595D01*
X157406063Y-112069718D01*
X157146257Y-112287045D01*
X156947572Y-112407655D01*
X156784494Y-112446627D01*
X156631511Y-112419043D01*
X156615043Y-112412918D01*
X156440691Y-112309914D01*
X156161908Y-112099530D01*
X155794093Y-111794034D01*
X155365511Y-111417267D01*
X155341152Y-111320875D01*
X155326442Y-111122502D01*
X155321680Y-110879947D01*
X155327167Y-110651011D01*
X155343204Y-110493494D01*
X155360513Y-110456667D01*
X155435719Y-110513055D01*
X155602545Y-110665527D01*
X155834274Y-110889043D01*
X156038000Y-111091667D01*
X156305518Y-111353325D01*
X156533949Y-111562592D01*
X156694778Y-111694175D01*
X156753873Y-111726667D01*
X156843360Y-111670031D01*
X157025360Y-111515572D01*
X157273924Y-111286463D01*
X157563102Y-111005878D01*
X157581492Y-110987599D01*
X158324000Y-110248531D01*
X158324000Y-110714703D01*
G37*
G36*
X155868667Y-108202634D02*
G01*
X155879356Y-108639584D01*
X155918502Y-108931539D01*
X155996720Y-109101893D01*
X156124624Y-109174041D01*
X156308506Y-109172000D01*
X156398415Y-109149989D01*
X156456785Y-109093155D01*
X156491925Y-108969181D01*
X156512148Y-108745744D01*
X156525764Y-108390526D01*
X156527899Y-108318834D01*
X156552132Y-107493334D01*
X157047868Y-107493334D01*
X157072101Y-108318834D01*
X157096333Y-109144334D01*
X157689000Y-109144334D01*
X157713128Y-108276500D01*
X157737257Y-107408667D01*
X158324000Y-107408667D01*
X158324000Y-108545620D01*
X158320364Y-109028490D01*
X158307522Y-109369834D01*
X158282574Y-109597339D01*
X158242618Y-109738695D01*
X158190952Y-109815620D01*
X158108736Y-109869118D01*
X157969181Y-109906626D01*
X157745921Y-109930673D01*
X157412586Y-109943789D01*
X156942808Y-109948504D01*
X156804319Y-109948667D01*
X156260240Y-109943686D01*
X155869536Y-109927914D01*
X155616517Y-109900110D01*
X155485494Y-109859032D01*
X155466732Y-109842834D01*
X155398023Y-109669965D01*
X155345629Y-109370326D01*
X155312843Y-108985975D01*
X155302956Y-108558975D01*
X155319260Y-108131385D01*
X155326181Y-108046973D01*
X155358030Y-107723510D01*
X155391836Y-107533341D01*
X155444244Y-107441067D01*
X155531903Y-107411287D01*
X155626345Y-107408667D01*
X155868667Y-107408667D01*
X155868667Y-108202634D01*
G37*
G36*
X155494705Y-103894502D02*
G01*
X155696655Y-104009101D01*
X155986490Y-104180105D01*
X156336162Y-104391155D01*
X156424868Y-104445334D01*
X156827180Y-104688319D01*
X157122033Y-104854293D01*
X157344454Y-104957734D01*
X157529473Y-105013125D01*
X157712117Y-105034946D01*
X157858512Y-105038000D01*
X158324000Y-105038000D01*
X158324000Y-105884667D01*
X157862170Y-105884667D01*
X157661502Y-105891796D01*
X157481077Y-105922705D01*
X157286112Y-105991678D01*
X157041823Y-106113000D01*
X156713428Y-106300956D01*
X156419000Y-106477334D01*
X156057023Y-106694322D01*
X155749408Y-106875653D01*
X155523824Y-107005248D01*
X155407938Y-107067029D01*
X155399163Y-107070000D01*
X155376909Y-106994022D01*
X155363535Y-106800747D01*
X155361705Y-106667834D01*
X155362743Y-106265667D01*
X155996048Y-105898812D01*
X156286517Y-105726399D01*
X156516159Y-105582294D01*
X156648669Y-105489596D01*
X156666078Y-105472534D01*
X156613931Y-105408046D01*
X156443525Y-105284730D01*
X156185763Y-105123908D01*
X156031938Y-105035055D01*
X155361073Y-104657000D01*
X155360870Y-104254834D01*
X155369823Y-104020308D01*
X155392827Y-103875379D01*
X155408689Y-103852667D01*
X155494705Y-103894502D01*
G37*
D13*
%TO.C,JIG1*%
X150950000Y-131750000D02*
X148750000Y-131750000D01*
X133000000Y-121450000D02*
X139500000Y-121450000D01*
X140500000Y-128900000D02*
X140500000Y-133450000D01*
X131250000Y-131750000D02*
X131250000Y-123000000D01*
X131250000Y-123000000D02*
X129050000Y-123000000D01*
X152950000Y-110250000D02*
X152950000Y-129750000D01*
X145700000Y-114250000D02*
X145700000Y-124750000D01*
X146900000Y-133450000D02*
X146900000Y-128900000D01*
X131250000Y-117000000D02*
X131250000Y-108250000D01*
X148750000Y-123550000D02*
X146900000Y-123550000D01*
X149750000Y-124750000D02*
X149750000Y-114250000D01*
X148750000Y-108250000D02*
X150950000Y-108250000D01*
X127050000Y-121000000D02*
X127050000Y-119000000D01*
X139500000Y-121450000D02*
X139500000Y-107050000D01*
X146900000Y-114250000D02*
X145700000Y-114250000D01*
X146900000Y-128900000D02*
X140500000Y-128900000D01*
X149750000Y-114250000D02*
X148750000Y-114250000D01*
X133000000Y-107050000D02*
X133000000Y-121450000D01*
X140500000Y-133450000D02*
X146900000Y-133450000D01*
X129050000Y-117000000D02*
X131250000Y-117000000D01*
X144750000Y-135750000D02*
X135250000Y-135750000D01*
X145700000Y-124750000D02*
X149750000Y-124750000D01*
X139500000Y-107050000D02*
X133000000Y-107050000D01*
X148750000Y-114250000D02*
X148750000Y-123550000D01*
X135250000Y-104250000D02*
X144750000Y-104250000D01*
X146900000Y-123550000D02*
X146900000Y-114250000D01*
X144750000Y-135750000D02*
G75*
G03*
X148750000Y-131750000I0J4000000D01*
G01*
X150950000Y-131750000D02*
G75*
G03*
X152950000Y-129750000I1J1999999D01*
G01*
X152950000Y-110250000D02*
G75*
G03*
X150950000Y-108250000I-2000000J0D01*
G01*
X148750000Y-108250000D02*
G75*
G03*
X144750000Y-104250000I-4000000J0D01*
G01*
X131250000Y-131750000D02*
G75*
G03*
X135250000Y-135750000I4000000J0D01*
G01*
X127050000Y-121000000D02*
G75*
G03*
X129050000Y-123000000I1999999J-1D01*
G01*
X135250000Y-104250000D02*
G75*
G03*
X131250000Y-108250000I0J-4000000D01*
G01*
X129050000Y-117000000D02*
G75*
G03*
X127050000Y-119000000I0J-2000000D01*
G01*
X151800000Y-111250000D02*
G75*
G03*
X151800000Y-111250000I-1850000J0D01*
G01*
X131900000Y-120000000D02*
G75*
G03*
X131900000Y-120000000I-1850000J0D01*
G01*
X151800000Y-128750000D02*
G75*
G03*
X151800000Y-128750000I-1850000J0D01*
G01*
D12*
%TO.C,J4*%
X139250000Y-121250000D02*
X133250000Y-121250000D01*
X133250000Y-107250000D02*
X139250000Y-107250000D01*
X139250000Y-107250000D02*
X139250000Y-121250000D01*
%TO.C,J3*%
X140750000Y-133250000D02*
X140750000Y-129250000D01*
X146750000Y-133250000D02*
X140750000Y-133250000D01*
X140750000Y-129250000D02*
X146750000Y-129250000D01*
%TO.C,J2*%
X153170000Y-100590000D02*
X155830000Y-100590000D01*
X153170000Y-49670000D02*
X154500000Y-49670000D01*
X153170000Y-51000000D02*
X153170000Y-49670000D01*
X153170000Y-52270000D02*
X153170000Y-100590000D01*
X153170000Y-52270000D02*
X155830000Y-52270000D01*
X155830000Y-52270000D02*
X155830000Y-100590000D01*
%TO.C,F1*%
X158590000Y-55897936D02*
X158590000Y-57102064D01*
X160410000Y-55897936D02*
X160410000Y-57102064D01*
%TO.C,R12*%
X124130000Y-105553641D02*
X124130000Y-105246359D01*
X123370000Y-105553641D02*
X123370000Y-105246359D01*
%TO.C,J1*%
X125170000Y-51000000D02*
X125170000Y-49670000D01*
X125170000Y-100590000D02*
X127830000Y-100590000D01*
X125170000Y-52270000D02*
X125170000Y-100590000D01*
X125170000Y-52270000D02*
X127830000Y-52270000D01*
X127830000Y-52270000D02*
X127830000Y-100590000D01*
X125170000Y-49670000D02*
X126500000Y-49670000D01*
%TO.C,R14*%
X126370000Y-105553641D02*
X126370000Y-105246359D01*
X127130000Y-105553641D02*
X127130000Y-105246359D01*
%TO.C,R11*%
X121870000Y-105553641D02*
X121870000Y-105246359D01*
X122630000Y-105553641D02*
X122630000Y-105246359D01*
%TO.C,R13*%
X124870000Y-105553641D02*
X124870000Y-105246359D01*
X125630000Y-105553641D02*
X125630000Y-105246359D01*
%TO.C,Q1*%
X121700000Y-112930000D02*
X122350000Y-112930000D01*
X121700000Y-116050000D02*
X121050000Y-116050000D01*
X121700000Y-112930000D02*
X120025000Y-112930000D01*
X121700000Y-116050000D02*
X122350000Y-116050000D01*
%TO.C,R8*%
X120120000Y-121246359D02*
X120120000Y-121553641D01*
X120880000Y-121246359D02*
X120880000Y-121553641D01*
%TO.C,Q2*%
X121700000Y-116740000D02*
X122350000Y-116740000D01*
X121700000Y-119860000D02*
X122350000Y-119860000D01*
X121700000Y-119860000D02*
X121050000Y-119860000D01*
X121700000Y-116740000D02*
X120025000Y-116740000D01*
%TO.C,U2*%
X130000000Y-72300000D02*
X130000000Y-72700000D01*
X151000000Y-90100000D02*
X151000000Y-90500000D01*
X151000000Y-74800000D02*
X151000000Y-75200000D01*
X130000000Y-92600000D02*
X130000000Y-93000000D01*
X130000000Y-79900000D02*
X130000000Y-80300000D01*
X130000000Y-57000000D02*
X130000000Y-57400000D01*
X130000000Y-52167000D02*
X133007000Y-52167000D01*
X151000000Y-92600000D02*
X151000000Y-93000000D01*
X130000000Y-82400000D02*
X130000000Y-82800000D01*
X151000000Y-97700000D02*
X151000000Y-98100000D01*
X130000000Y-64600000D02*
X130000000Y-65000000D01*
X130000000Y-49500000D02*
X130000000Y-49800000D01*
X151000000Y-54500000D02*
X151000000Y-54900000D01*
X151000000Y-64600000D02*
X151000000Y-65000000D01*
X130000000Y-67200000D02*
X130000000Y-67600000D01*
X151000000Y-87500000D02*
X151000000Y-87900000D01*
X130000000Y-97700000D02*
X130000000Y-98100000D01*
X151000000Y-67200000D02*
X151000000Y-67600000D01*
X151000000Y-85000000D02*
X151000000Y-85400000D01*
X151000000Y-69700000D02*
X151000000Y-70100000D01*
X130000000Y-62100000D02*
X130000000Y-62500000D01*
X151000000Y-79900000D02*
X151000000Y-80300000D01*
X130000000Y-85000000D02*
X130000000Y-85400000D01*
X141600000Y-100500000D02*
X142000000Y-100500000D01*
X151000000Y-51900000D02*
X151000000Y-52300000D01*
X151000000Y-77300000D02*
X151000000Y-77700000D01*
X130000000Y-59600000D02*
X130000000Y-60000000D01*
X130000000Y-95100000D02*
X130000000Y-95500000D01*
X151000000Y-57000000D02*
X151000000Y-57400000D01*
X133007000Y-52167000D02*
X133007000Y-49500000D01*
X151000000Y-49500000D02*
X151000000Y-49800000D01*
X130000000Y-90100000D02*
X130000000Y-90500000D01*
X151000000Y-72300000D02*
X151000000Y-72700000D01*
X151000000Y-62100000D02*
X151000000Y-62500000D01*
X130000000Y-87500000D02*
X130000000Y-87900000D01*
X130000000Y-54500000D02*
X130000000Y-54900000D01*
X151000000Y-82400000D02*
X151000000Y-82800000D01*
X139000000Y-100500000D02*
X139400000Y-100500000D01*
X130000000Y-49500000D02*
X151000000Y-49500000D01*
X130000000Y-74800000D02*
X130000000Y-75200000D01*
X151000000Y-59600000D02*
X151000000Y-60000000D01*
X130000000Y-77300000D02*
X130000000Y-77700000D01*
X136800000Y-100500000D02*
X130000000Y-100500000D01*
X130000000Y-69700000D02*
X130000000Y-70100000D01*
X151000000Y-100500000D02*
X144200000Y-100500000D01*
X151000000Y-95100000D02*
X151000000Y-95500000D01*
X130000000Y-51900000D02*
X130000000Y-52300000D01*
%TO.C,R17*%
X120370000Y-105246359D02*
X120370000Y-105553641D01*
X121130000Y-105246359D02*
X121130000Y-105553641D01*
%TO.C,R15*%
X127870000Y-105553641D02*
X127870000Y-105246359D01*
X128630000Y-105553641D02*
X128630000Y-105246359D01*
%TO.C,R7*%
X119680000Y-105246359D02*
X119680000Y-105553641D01*
X118920000Y-105246359D02*
X118920000Y-105553641D01*
%TD*%
M02*
