M48
; DRILL file {KiCad (6.0.4)} date Mon Nov  7 15:55:19 2022
; FORMAT={-:-/ absolute / inch / decimal}
; #@! TF.CreationDate,2022-11-07T15:55:19+01:00
; #@! TF.GenerationSoftware,Kicad,Pcbnew,(6.0.4)
; #@! TF.FileFunction,Plated,1,2,PTH
FMAT,2
INCH
; #@! TA.AperFunction,Plated,PTH,ViaDrill
T1C0.0118
; #@! TA.AperFunction,Plated,PTH,ComponentDrill
T2C0.0394
; #@! TA.AperFunction,Plated,PTH,ComponentDrill
T3C0.1260
%
G90
G05
T1
X4.6969Y-4.1024
X4.7Y-4.5472
X5.2008Y-4.2638
X5.5315Y-4.0236
X5.6614Y-5.1299
T2
X4.9803Y-2.0079
X4.9803Y-2.1079
X4.9803Y-2.2079
X4.9803Y-2.3079
X4.9803Y-2.4079
X4.9803Y-2.5079
X4.9803Y-2.6079
X4.9803Y-2.7079
X4.9803Y-2.8079
X4.9803Y-2.9079
X4.9803Y-3.0079
X4.9803Y-3.1079
X4.9803Y-3.2079
X4.9803Y-3.3079
X4.9803Y-3.4079
X4.9803Y-3.5079
X4.9803Y-3.6079
X4.9803Y-3.7079
X4.9803Y-3.8079
X4.9803Y-3.9079
X6.0827Y-2.0079
X6.0827Y-2.1079
X6.0827Y-2.2079
X6.0827Y-2.3079
X6.0827Y-2.4079
X6.0827Y-2.5079
X6.0827Y-2.6079
X6.0827Y-2.7079
X6.0827Y-2.8079
X6.0827Y-2.9079
X6.0827Y-3.0079
X6.0827Y-3.1079
X6.0827Y-3.2079
X6.0827Y-3.3079
X6.0827Y-3.4079
X6.0827Y-3.5079
X6.0827Y-3.6079
X6.0827Y-3.7079
X6.0827Y-3.8079
X6.0827Y-3.9079
T3
X5.1201Y-4.7244
X5.9035Y-4.3799
X5.9035Y-5.0689
T0
M30
