%TF.GenerationSoftware,KiCad,Pcbnew,(6.0.4)*%
%TF.CreationDate,2022-11-07T15:55:16+01:00*%
%TF.ProjectId,mta1-usb-v1-programmer,6d746131-2d75-4736-922d-76312d70726f,rev?*%
%TF.SameCoordinates,Original*%
%TF.FileFunction,Copper,L1,Top*%
%TF.FilePolarity,Positive*%
%FSLAX46Y46*%
G04 Gerber Fmt 4.6, Leading zero omitted, Abs format (unit mm)*
G04 Created by KiCad (PCBNEW (6.0.4)) date 2022-11-07 15:55:16*
%MOMM*%
%LPD*%
G01*
G04 APERTURE LIST*
G04 Aperture macros list*
%AMRoundRect*
0 Rectangle with rounded corners*
0 $1 Rounding radius*
0 $2 $3 $4 $5 $6 $7 $8 $9 X,Y pos of 4 corners*
0 Add a 4 corners polygon primitive as box body*
4,1,4,$2,$3,$4,$5,$6,$7,$8,$9,$2,$3,0*
0 Add four circle primitives for the rounded corners*
1,1,$1+$1,$2,$3*
1,1,$1+$1,$4,$5*
1,1,$1+$1,$6,$7*
1,1,$1+$1,$8,$9*
0 Add four rect primitives between the rounded corners*
20,1,$1+$1,$2,$3,$4,$5,0*
20,1,$1+$1,$4,$5,$6,$7,0*
20,1,$1+$1,$6,$7,$8,$9,0*
20,1,$1+$1,$8,$9,$2,$3,0*%
G04 Aperture macros list end*
%TA.AperFunction,SMDPad,CuDef*%
%ADD10RoundRect,0.112500X0.112500X-0.112500X0.112500X0.112500X-0.112500X0.112500X-0.112500X-0.112500X0*%
%TD*%
%TA.AperFunction,ComponentPad*%
%ADD11C,5.000000*%
%TD*%
%TA.AperFunction,SMDPad,CuDef*%
%ADD12RoundRect,0.170000X1.130000X0.680000X-1.130000X0.680000X-1.130000X-0.680000X1.130000X-0.680000X0*%
%TD*%
%TA.AperFunction,SMDPad,CuDef*%
%ADD13RoundRect,0.170000X-1.130000X-0.680000X1.130000X-0.680000X1.130000X0.680000X-1.130000X0.680000X0*%
%TD*%
%TA.AperFunction,ComponentPad*%
%ADD14R,1.700000X1.700000*%
%TD*%
%TA.AperFunction,ComponentPad*%
%ADD15O,1.700000X1.700000*%
%TD*%
%TA.AperFunction,SMDPad,CuDef*%
%ADD16RoundRect,0.250000X-0.625000X0.375000X-0.625000X-0.375000X0.625000X-0.375000X0.625000X0.375000X0*%
%TD*%
%TA.AperFunction,SMDPad,CuDef*%
%ADD17RoundRect,0.150000X-0.587500X-0.150000X0.587500X-0.150000X0.587500X0.150000X-0.587500X0.150000X0*%
%TD*%
%TA.AperFunction,SMDPad,CuDef*%
%ADD18RoundRect,0.112500X-0.112500X0.112500X-0.112500X-0.112500X0.112500X-0.112500X0.112500X0.112500X0*%
%TD*%
%TA.AperFunction,SMDPad,CuDef*%
%ADD19R,1.700000X3.500000*%
%TD*%
%TA.AperFunction,SMDPad,CuDef*%
%ADD20R,3.500000X1.700000*%
%TD*%
%TA.AperFunction,ViaPad*%
%ADD21C,0.600000*%
%TD*%
%TA.AperFunction,Conductor*%
%ADD22C,0.800000*%
%TD*%
%TA.AperFunction,Conductor*%
%ADD23C,0.250000*%
%TD*%
%TA.AperFunction,Conductor*%
%ADD24C,0.200000*%
%TD*%
G04 APERTURE END LIST*
D10*
%TO.P,R16,1*%
%TO.N,/CDONE*%
X129750000Y-105800000D03*
%TO.P,R16,2*%
%TO.N,/CDONE_U*%
X129750000Y-105000000D03*
%TD*%
D11*
%TO.P,JIG1,M1*%
%TO.N,N/C*%
X130050000Y-120000000D03*
%TO.P,JIG1,M2*%
X149950000Y-128750000D03*
%TO.P,JIG1,M3*%
X149950000Y-111250000D03*
%TD*%
D12*
%TO.P,J4,7,7*%
%TO.N,GND*%
X134250000Y-108250000D03*
%TO.P,J4,6,6*%
%TO.N,/CDONE*%
X134250000Y-110250000D03*
%TO.P,J4,5,5*%
%TO.N,/CRESET*%
X134250000Y-112250000D03*
%TO.P,J4,4,4*%
%TO.N,/MISO*%
X134250000Y-114250000D03*
%TO.P,J4,3,3*%
%TO.N,/SS*%
X134250000Y-116250000D03*
%TO.P,J4,2,2*%
%TO.N,/MOSI*%
X134250000Y-118250000D03*
%TO.P,J4,1,1*%
%TO.N,/SCK*%
X134250000Y-120250000D03*
%TD*%
D13*
%TO.P,J3,1,1*%
%TO.N,GND*%
X145750000Y-130250000D03*
%TO.P,J3,2,2*%
%TO.N,/5V_DUT*%
X145750000Y-132250000D03*
%TD*%
D14*
%TO.P,J2,1,Pin_1*%
%TO.N,+5V*%
X154500000Y-51000000D03*
D15*
%TO.P,J2,2,Pin_2*%
%TO.N,/PICO_VSYS*%
X154500000Y-53540000D03*
%TO.P,J2,3,Pin_3*%
%TO.N,GND*%
X154500000Y-56080000D03*
%TO.P,J2,4,Pin_4*%
%TO.N,/PICO_3V3_EN*%
X154500000Y-58620000D03*
%TO.P,J2,5,Pin_5*%
%TO.N,/PICO_3V3*%
X154500000Y-61160000D03*
%TO.P,J2,6,Pin_6*%
%TO.N,/PICO_ADC_VREF*%
X154500000Y-63700000D03*
%TO.P,J2,7,Pin_7*%
%TO.N,/PICO28*%
X154500000Y-66240000D03*
%TO.P,J2,8,Pin_8*%
%TO.N,GND*%
X154500000Y-68780000D03*
%TO.P,J2,9,Pin_9*%
%TO.N,/PICO27*%
X154500000Y-71320000D03*
%TO.P,J2,10,Pin_10*%
%TO.N,/PICO26*%
X154500000Y-73860000D03*
%TO.P,J2,11,Pin_11*%
%TO.N,/PICO_RUN*%
X154500000Y-76400000D03*
%TO.P,J2,12,Pin_12*%
%TO.N,/PICO22*%
X154500000Y-78940000D03*
%TO.P,J2,13,Pin_13*%
%TO.N,GND*%
X154500000Y-81480000D03*
%TO.P,J2,14,Pin_14*%
%TO.N,/GPIO4_U*%
X154500000Y-84020000D03*
%TO.P,J2,15,Pin_15*%
%TO.N,/GPIO3_U*%
X154500000Y-86560000D03*
%TO.P,J2,16,Pin_16*%
%TO.N,/GPIO2_U*%
X154500000Y-89100000D03*
%TO.P,J2,17,Pin_17*%
%TO.N,/GPIO1_U*%
X154500000Y-91640000D03*
%TO.P,J2,18,Pin_18*%
%TO.N,GND*%
X154500000Y-94180000D03*
%TO.P,J2,19,Pin_19*%
%TO.N,/CTS_U*%
X154500000Y-96720000D03*
%TO.P,J2,20,Pin_20*%
%TO.N,/RTS_U*%
X154500000Y-99260000D03*
%TD*%
D16*
%TO.P,F1,1*%
%TO.N,+5V*%
X159500000Y-55100000D03*
%TO.P,F1,2*%
%TO.N,/5V_FUSE*%
X159500000Y-57900000D03*
%TD*%
D10*
%TO.P,R12,1*%
%TO.N,/MOSI*%
X123750000Y-105800000D03*
%TO.P,R12,2*%
%TO.N,/MOSI_U*%
X123750000Y-105000000D03*
%TD*%
D14*
%TO.P,J1,1,Pin_1*%
%TO.N,/PICO_0*%
X126500000Y-51000000D03*
D15*
%TO.P,J1,2,Pin_2*%
%TO.N,/PICO_1*%
X126500000Y-53540000D03*
%TO.P,J1,3,Pin_3*%
%TO.N,GND*%
X126500000Y-56080000D03*
%TO.P,J1,4,Pin_4*%
%TO.N,/PICO_2*%
X126500000Y-58620000D03*
%TO.P,J1,5,Pin_5*%
%TO.N,/PICO_3*%
X126500000Y-61160000D03*
%TO.P,J1,6,Pin_6*%
%TO.N,/PICO_4*%
X126500000Y-63700000D03*
%TO.P,J1,7,Pin_7*%
%TO.N,/PICO_5*%
X126500000Y-66240000D03*
%TO.P,J1,8,Pin_8*%
%TO.N,GND*%
X126500000Y-68780000D03*
%TO.P,J1,9,Pin_9*%
%TO.N,/PICO_6*%
X126500000Y-71320000D03*
%TO.P,J1,10,Pin_10*%
%TO.N,/5V_EN*%
X126500000Y-73860000D03*
%TO.P,J1,11,Pin_11*%
%TO.N,/TX_U*%
X126500000Y-76400000D03*
%TO.P,J1,12,Pin_12*%
%TO.N,/RX_U*%
X126500000Y-78940000D03*
%TO.P,J1,13,Pin_13*%
%TO.N,GND*%
X126500000Y-81480000D03*
%TO.P,J1,14,Pin_14*%
%TO.N,/SCK_U*%
X126500000Y-84020000D03*
%TO.P,J1,15,Pin_15*%
%TO.N,/MOSI_U*%
X126500000Y-86560000D03*
%TO.P,J1,16,Pin_16*%
%TO.N,/SS_U*%
X126500000Y-89100000D03*
%TO.P,J1,17,Pin_17*%
%TO.N,/MISO_U*%
X126500000Y-91640000D03*
%TO.P,J1,18,Pin_18*%
%TO.N,GND*%
X126500000Y-94180000D03*
%TO.P,J1,19,Pin_19*%
%TO.N,/CRESET_U*%
X126500000Y-96720000D03*
%TO.P,J1,20,Pin_20*%
%TO.N,/CDONE_U*%
X126500000Y-99260000D03*
%TD*%
D10*
%TO.P,R14,1*%
%TO.N,/MISO*%
X126750000Y-105800000D03*
%TO.P,R14,2*%
%TO.N,/MISO_U*%
X126750000Y-105000000D03*
%TD*%
%TO.P,R11,2*%
%TO.N,/SCK_U*%
X122250000Y-105000000D03*
%TO.P,R11,1*%
%TO.N,/SCK*%
X122250000Y-105800000D03*
%TD*%
%TO.P,R13,1*%
%TO.N,/SS*%
X125250000Y-105800000D03*
%TO.P,R13,2*%
%TO.N,/SS_U*%
X125250000Y-105000000D03*
%TD*%
D17*
%TO.P,Q1,1,G*%
%TO.N,Net-(Q1-Pad1)*%
X120762500Y-113540000D03*
%TO.P,Q1,2,S*%
%TO.N,GND*%
X120762500Y-115440000D03*
%TO.P,Q1,3,D*%
%TO.N,Net-(Q1-Pad3)*%
X122637500Y-114490000D03*
%TD*%
D18*
%TO.P,R8,1*%
%TO.N,Net-(Q1-Pad3)*%
X120500000Y-121000000D03*
%TO.P,R8,2*%
%TO.N,/5V_FUSE*%
X120500000Y-121800000D03*
%TD*%
D17*
%TO.P,Q2,1,G*%
%TO.N,Net-(Q1-Pad3)*%
X120762500Y-117350000D03*
%TO.P,Q2,2,S*%
%TO.N,/5V_FUSE*%
X120762500Y-119250000D03*
%TO.P,Q2,3,D*%
%TO.N,/5V_DUT*%
X122637500Y-118300000D03*
%TD*%
D19*
%TO.P,U2,43,SWDIO*%
%TO.N,unconnected-(U2-Pad43)*%
X143040000Y-99800000D03*
%TO.P,U2,42,GND*%
%TO.N,GND*%
X140500000Y-99800000D03*
%TO.P,U2,41,SWCLK*%
%TO.N,unconnected-(U2-Pad41)*%
X137960000Y-99800000D03*
D20*
%TO.P,U2,40,VBUS*%
%TO.N,+5V*%
X150290000Y-50870000D03*
%TO.P,U2,39,VSYS*%
%TO.N,/PICO_VSYS*%
X150290000Y-53410000D03*
%TO.P,U2,38,GND*%
%TO.N,GND*%
X150290000Y-55950000D03*
%TO.P,U2,37,3V3_EN*%
%TO.N,/PICO_3V3_EN*%
X150290000Y-58490000D03*
%TO.P,U2,36,3V3*%
%TO.N,/PICO_3V3*%
X150290000Y-61030000D03*
%TO.P,U2,35,ADC_VREF*%
%TO.N,/PICO_ADC_VREF*%
X150290000Y-63570000D03*
%TO.P,U2,34,GPIO28_ADC2*%
%TO.N,/PICO28*%
X150290000Y-66110000D03*
%TO.P,U2,33,AGND*%
%TO.N,GND*%
X150290000Y-68650000D03*
%TO.P,U2,32,GPIO27_ADC1*%
%TO.N,/PICO27*%
X150290000Y-71190000D03*
%TO.P,U2,31,GPIO26_ADC0*%
%TO.N,/PICO26*%
X150290000Y-73730000D03*
%TO.P,U2,30,RUN*%
%TO.N,/PICO_RUN*%
X150290000Y-76270000D03*
%TO.P,U2,29,GPIO22*%
%TO.N,/PICO22*%
X150290000Y-78810000D03*
%TO.P,U2,28,GND*%
%TO.N,GND*%
X150290000Y-81350000D03*
%TO.P,U2,27,GPIO21*%
%TO.N,/GPIO4_U*%
X150290000Y-83890000D03*
%TO.P,U2,26,GPIO20*%
%TO.N,/GPIO3_U*%
X150290000Y-86430000D03*
%TO.P,U2,25,GPIO19*%
%TO.N,/GPIO2_U*%
X150290000Y-88970000D03*
%TO.P,U2,24,GPIO18*%
%TO.N,/GPIO1_U*%
X150290000Y-91510000D03*
%TO.P,U2,23,GND*%
%TO.N,GND*%
X150290000Y-94050000D03*
%TO.P,U2,22,GPIO17*%
%TO.N,/CTS_U*%
X150290000Y-96590000D03*
%TO.P,U2,21,GPIO16*%
%TO.N,/RTS_U*%
X150290000Y-99130000D03*
%TO.P,U2,20,GPIO15*%
%TO.N,/CDONE_U*%
X130710000Y-99130000D03*
%TO.P,U2,19,GPIO14*%
%TO.N,/CRESET_U*%
X130710000Y-96590000D03*
%TO.P,U2,18,GND*%
%TO.N,GND*%
X130710000Y-94050000D03*
%TO.P,U2,17,GPIO13*%
%TO.N,/MISO_U*%
X130710000Y-91510000D03*
%TO.P,U2,16,GPIO12*%
%TO.N,/SS_U*%
X130710000Y-88970000D03*
%TO.P,U2,15,GPIO11*%
%TO.N,/MOSI_U*%
X130710000Y-86430000D03*
%TO.P,U2,14,GPIO10*%
%TO.N,/SCK_U*%
X130710000Y-83890000D03*
%TO.P,U2,13,GND*%
%TO.N,GND*%
X130710000Y-81350000D03*
%TO.P,U2,12,GPIO9*%
%TO.N,/RX_U*%
X130710000Y-78810000D03*
%TO.P,U2,11,GPIO8*%
%TO.N,/TX_U*%
X130710000Y-76270000D03*
%TO.P,U2,10,GPIO7*%
%TO.N,/5V_EN*%
X130710000Y-73730000D03*
%TO.P,U2,9,GPIO6*%
%TO.N,/PICO_6*%
X130710000Y-71190000D03*
%TO.P,U2,8,GND*%
%TO.N,GND*%
X130710000Y-68650000D03*
%TO.P,U2,7,GPIO5*%
%TO.N,/PICO_5*%
X130710000Y-66110000D03*
%TO.P,U2,6,GPIO4*%
%TO.N,/PICO_4*%
X130710000Y-63570000D03*
%TO.P,U2,5,GPIO3*%
%TO.N,/PICO_3*%
X130710000Y-61030000D03*
%TO.P,U2,4,GPIO2*%
%TO.N,/PICO_2*%
X130710000Y-58490000D03*
%TO.P,U2,3,GND*%
%TO.N,GND*%
X130710000Y-55950000D03*
%TO.P,U2,2,GPIO1*%
%TO.N,/PICO_1*%
X130710000Y-53410000D03*
%TO.P,U2,1,GPIO0*%
%TO.N,/PICO_0*%
X130710000Y-50870000D03*
%TD*%
D18*
%TO.P,R17,1*%
%TO.N,/5V_EN*%
X120750000Y-105000000D03*
%TO.P,R17,2*%
%TO.N,Net-(Q1-Pad1)*%
X120750000Y-105800000D03*
%TD*%
D10*
%TO.P,R15,1*%
%TO.N,/CRESET*%
X128250000Y-105800000D03*
%TO.P,R15,2*%
%TO.N,/CRESET_U*%
X128250000Y-105000000D03*
%TD*%
D18*
%TO.P,R7,1*%
%TO.N,GND*%
X119300000Y-105000000D03*
%TO.P,R7,2*%
%TO.N,Net-(Q1-Pad1)*%
X119300000Y-105800000D03*
%TD*%
D21*
%TO.N,GND*%
X132100000Y-108300000D03*
X143800000Y-130300000D03*
X119300000Y-104200000D03*
X119380000Y-115500000D03*
X140500000Y-102200000D03*
%TD*%
D22*
%TO.N,GND*%
X140500000Y-98900000D02*
X140500000Y-102200000D01*
D23*
%TO.N,/PICO26*%
X149520000Y-73860000D02*
X149390000Y-73730000D01*
X154500000Y-73860000D02*
X149520000Y-73860000D01*
%TO.N,/PICO27*%
X149520000Y-71320000D02*
X149390000Y-71190000D01*
X154500000Y-71320000D02*
X149520000Y-71320000D01*
%TO.N,/PICO28*%
X149520000Y-66240000D02*
X149390000Y-66110000D01*
X154500000Y-66240000D02*
X149520000Y-66240000D01*
%TO.N,/SCK*%
X126300000Y-113200000D02*
X122250000Y-109150000D01*
X126300000Y-121100000D02*
X126300000Y-113200000D01*
X122250000Y-109150000D02*
X122250000Y-105800000D01*
X132200000Y-123100000D02*
X128300000Y-123100000D01*
X128300000Y-123100000D02*
X126300000Y-121100000D01*
X134250000Y-121050000D02*
X132200000Y-123100000D01*
X134250000Y-120250000D02*
X134250000Y-121050000D01*
D22*
%TO.N,/5V_DUT*%
X123800000Y-118300000D02*
X122637500Y-118300000D01*
X124900000Y-119400000D02*
X123800000Y-118300000D01*
X124900000Y-121800000D02*
X124900000Y-119400000D01*
X135350000Y-132250000D02*
X124900000Y-121800000D01*
X145750000Y-132250000D02*
X135350000Y-132250000D01*
%TO.N,/5V_FUSE*%
X159500000Y-133000000D02*
X159500000Y-57900000D01*
X158000000Y-134500000D02*
X159500000Y-133000000D01*
X134337500Y-134500000D02*
X158000000Y-134500000D01*
X122900000Y-122700000D02*
X122900000Y-123062500D01*
X122900000Y-123062500D02*
X134337500Y-134500000D01*
D23*
%TO.N,Net-(Q1-Pad1)*%
X120750000Y-113527500D02*
X120762500Y-113540000D01*
X120750000Y-107000000D02*
X120750000Y-113527500D01*
%TO.N,/MOSI*%
X132650000Y-118250000D02*
X134250000Y-118250000D01*
X123750000Y-109350000D02*
X132650000Y-118250000D01*
X123750000Y-105800000D02*
X123750000Y-109350000D01*
%TO.N,/SS*%
X125250000Y-109350000D02*
X125250000Y-105800000D01*
X132150000Y-116250000D02*
X125250000Y-109350000D01*
X134250000Y-116250000D02*
X132150000Y-116250000D01*
%TO.N,/MISO*%
X126750000Y-109250000D02*
X131750000Y-114250000D01*
X131750000Y-114250000D02*
X134250000Y-114250000D01*
X126750000Y-105800000D02*
X126750000Y-109250000D01*
%TO.N,/CRESET*%
X128250000Y-108850000D02*
X128250000Y-105800000D01*
X131650000Y-112250000D02*
X128250000Y-108850000D01*
X134250000Y-112250000D02*
X131650000Y-112250000D01*
%TO.N,/CDONE*%
X132250000Y-110250000D02*
X134250000Y-110250000D01*
X129750000Y-107750000D02*
X132250000Y-110250000D01*
X129750000Y-105800000D02*
X129750000Y-107750000D01*
%TO.N,Net-(Q1-Pad3)*%
X122637500Y-114490000D02*
X122637500Y-115942500D01*
X122637500Y-115942500D02*
X121230000Y-117350000D01*
X121230000Y-117350000D02*
X120762500Y-117350000D01*
%TO.N,Net-(Q1-Pad1)*%
X120750000Y-107000000D02*
X120125000Y-107000000D01*
X120750000Y-105800000D02*
X120750000Y-107000000D01*
X119300000Y-105800000D02*
X119300000Y-106175000D01*
X119300000Y-106175000D02*
X120125000Y-107000000D01*
%TO.N,/MOSI_U*%
X123750000Y-103250000D02*
X123750000Y-105000000D01*
%TO.N,/MISO_U*%
X124300000Y-101800000D02*
X126750000Y-104250000D01*
%TO.N,/CDONE_U*%
X129750000Y-104150000D02*
X129750000Y-105000000D01*
%TO.N,/SS_U*%
X123740000Y-102190000D02*
X125250000Y-103700000D01*
%TO.N,/SCK_U*%
X122540000Y-87980000D02*
X122540000Y-103560000D01*
%TO.N,/CRESET_U*%
X128250000Y-104150000D02*
X128250000Y-105000000D01*
%TO.N,/SCK_U*%
X122250000Y-103850000D02*
X122250000Y-105000000D01*
X122540000Y-103560000D02*
X122250000Y-103850000D01*
D22*
%TO.N,+5V*%
X158170000Y-50870000D02*
X159500000Y-52200000D01*
X159500000Y-52200000D02*
X159500000Y-55100000D01*
X149390000Y-50870000D02*
X158170000Y-50870000D01*
D23*
%TO.N,/SS_U*%
X125250000Y-103700000D02*
X125250000Y-103950000D01*
X123740000Y-91860000D02*
X123740000Y-102190000D01*
X126500000Y-89100000D02*
X123740000Y-91860000D01*
%TO.N,/MISO_U*%
X126750000Y-104250000D02*
X126750000Y-105000000D01*
X124300000Y-93840000D02*
X124300000Y-101800000D01*
X126500000Y-91640000D02*
X124300000Y-93840000D01*
%TO.N,/SCK_U*%
X126500000Y-84020000D02*
X122540000Y-87980000D01*
%TO.N,/CDONE_U*%
X126500000Y-100900000D02*
X129750000Y-104150000D01*
X126500000Y-99260000D02*
X126500000Y-100900000D01*
%TO.N,/CRESET_U*%
X124900000Y-100800000D02*
X128250000Y-104150000D01*
X124900000Y-98320000D02*
X124900000Y-100800000D01*
X126500000Y-96720000D02*
X124900000Y-98320000D01*
D24*
%TO.N,/SS_U*%
X125250000Y-105000000D02*
X125250000Y-103950000D01*
D23*
%TO.N,/MOSI_U*%
X123170000Y-89890000D02*
X123170000Y-102670000D01*
X123170000Y-102670000D02*
X123750000Y-103250000D01*
X126500000Y-86560000D02*
X123170000Y-89890000D01*
%TO.N,/5V_FUSE*%
X120500000Y-122400000D02*
X120500000Y-121800000D01*
X122900000Y-122700000D02*
X120800000Y-122700000D01*
X120800000Y-122700000D02*
X120500000Y-122400000D01*
%TO.N,Net-(Q1-Pad3)*%
X119700000Y-117800000D02*
X120150000Y-117350000D01*
X120150000Y-117350000D02*
X120762500Y-117350000D01*
X120500000Y-120500000D02*
X119700000Y-119700000D01*
X120500000Y-121000000D02*
X120500000Y-120500000D01*
X119700000Y-119700000D02*
X119700000Y-117800000D01*
D22*
%TO.N,GND*%
X132150000Y-108250000D02*
X132100000Y-108300000D01*
X134250000Y-108250000D02*
X132150000Y-108250000D01*
X143850000Y-130250000D02*
X143800000Y-130300000D01*
X145750000Y-130250000D02*
X143850000Y-130250000D01*
%TO.N,/5V_FUSE*%
X122900000Y-121000000D02*
X121150000Y-119250000D01*
X121150000Y-119250000D02*
X120762500Y-119250000D01*
X122900000Y-122700000D02*
X122900000Y-121000000D01*
D23*
%TO.N,/5V_EN*%
X120750000Y-104000000D02*
X120750000Y-105000000D01*
X120700000Y-103950000D02*
X120750000Y-104000000D01*
X120700000Y-79660000D02*
X120700000Y-103950000D01*
X126500000Y-73860000D02*
X120700000Y-79660000D01*
D22*
%TO.N,GND*%
X154370000Y-68650000D02*
X154500000Y-68780000D01*
X149390000Y-55950000D02*
X154370000Y-55950000D01*
X149390000Y-68650000D02*
X154370000Y-68650000D01*
D23*
X119300000Y-105000000D02*
X119300000Y-104140000D01*
D22*
X154370000Y-81350000D02*
X154500000Y-81480000D01*
X131610000Y-94050000D02*
X126630000Y-94050000D01*
X126630000Y-55950000D02*
X126500000Y-56080000D01*
X126630000Y-81350000D02*
X126500000Y-81480000D01*
D23*
X120762500Y-115440000D02*
X119440000Y-115440000D01*
X119440000Y-115440000D02*
X119380000Y-115500000D01*
D22*
X131610000Y-55950000D02*
X126630000Y-55950000D01*
X131610000Y-68650000D02*
X126630000Y-68650000D01*
X126630000Y-68650000D02*
X126500000Y-68780000D01*
X149390000Y-94050000D02*
X154370000Y-94050000D01*
X149390000Y-81350000D02*
X154370000Y-81350000D01*
X154370000Y-55950000D02*
X154500000Y-56080000D01*
X126630000Y-94050000D02*
X126500000Y-94180000D01*
X131610000Y-81350000D02*
X126630000Y-81350000D01*
D23*
%TO.N,/PICO_0*%
X131480000Y-51000000D02*
X131610000Y-50870000D01*
X126500000Y-51000000D02*
X131480000Y-51000000D01*
%TO.N,/PICO_1*%
X131480000Y-53540000D02*
X131610000Y-53410000D01*
X126500000Y-53540000D02*
X131480000Y-53540000D01*
%TO.N,/PICO_2*%
X126500000Y-58620000D02*
X131480000Y-58620000D01*
X131480000Y-58620000D02*
X131610000Y-58490000D01*
%TO.N,/PICO_3*%
X126500000Y-61160000D02*
X131480000Y-61160000D01*
X131480000Y-61160000D02*
X131610000Y-61030000D01*
%TO.N,/PICO_4*%
X131480000Y-63700000D02*
X131610000Y-63570000D01*
X126500000Y-63700000D02*
X131480000Y-63700000D01*
%TO.N,/PICO_5*%
X126500000Y-66240000D02*
X131480000Y-66240000D01*
X131480000Y-66240000D02*
X131610000Y-66110000D01*
%TO.N,/PICO_6*%
X131480000Y-71320000D02*
X131610000Y-71190000D01*
X126500000Y-71320000D02*
X131480000Y-71320000D01*
%TO.N,/PICO_VSYS*%
X154500000Y-53540000D02*
X149520000Y-53540000D01*
X149520000Y-53540000D02*
X149390000Y-53410000D01*
%TO.N,/PICO_3V3_EN*%
X149520000Y-58620000D02*
X149390000Y-58490000D01*
X154500000Y-58620000D02*
X149520000Y-58620000D01*
%TO.N,/PICO_3V3*%
X149520000Y-61160000D02*
X149390000Y-61030000D01*
X154500000Y-61160000D02*
X149520000Y-61160000D01*
%TO.N,/PICO_ADC_VREF*%
X154500000Y-63700000D02*
X149520000Y-63700000D01*
X149520000Y-63700000D02*
X149390000Y-63570000D01*
%TO.N,/PICO_RUN*%
X154500000Y-76400000D02*
X149520000Y-76400000D01*
%TO.N,/PICO22*%
X149520000Y-78940000D02*
X149390000Y-78810000D01*
X154500000Y-78940000D02*
X149520000Y-78940000D01*
%TO.N,/TX_U*%
X131480000Y-76400000D02*
X131610000Y-76270000D01*
X126500000Y-76400000D02*
X131480000Y-76400000D01*
%TO.N,/RX_U*%
X131480000Y-78940000D02*
X131610000Y-78810000D01*
X126500000Y-78940000D02*
X131480000Y-78940000D01*
%TO.N,/SCK_U*%
X126500000Y-84020000D02*
X131480000Y-84020000D01*
X131480000Y-84020000D02*
X131610000Y-83890000D01*
%TO.N,/MOSI_U*%
X131480000Y-86560000D02*
X131610000Y-86430000D01*
X126500000Y-86560000D02*
X131480000Y-86560000D01*
%TO.N,/SS_U*%
X131480000Y-89100000D02*
X131610000Y-88970000D01*
X126500000Y-89100000D02*
X131480000Y-89100000D01*
%TO.N,/MISO_U*%
X126630000Y-91510000D02*
X126500000Y-91640000D01*
X131610000Y-91510000D02*
X126630000Y-91510000D01*
%TO.N,/CRESET_U*%
X126500000Y-96720000D02*
X131480000Y-96720000D01*
X131480000Y-96720000D02*
X131610000Y-96590000D01*
%TO.N,/CDONE_U*%
X126630000Y-99130000D02*
X126500000Y-99260000D01*
X131610000Y-99130000D02*
X126630000Y-99130000D01*
%TO.N,/GPIO4_U*%
X149390000Y-83890000D02*
X149520000Y-84020000D01*
X149520000Y-84020000D02*
X154500000Y-84020000D01*
%TO.N,/GPIO3_U*%
X149390000Y-86430000D02*
X154370000Y-86430000D01*
%TO.N,/GPIO2_U*%
X149390000Y-88970000D02*
X154370000Y-88970000D01*
%TO.N,/GPIO1_U*%
X149520000Y-91640000D02*
X154500000Y-91640000D01*
X149390000Y-91510000D02*
X149520000Y-91640000D01*
%TO.N,/CTS_U*%
X149390000Y-96590000D02*
X154370000Y-96590000D01*
%TO.N,/RTS_U*%
X149390000Y-99130000D02*
X154370000Y-99130000D01*
%TO.N,/5V_EN*%
X131480000Y-73860000D02*
X126500000Y-73860000D01*
X131610000Y-73730000D02*
X131480000Y-73860000D01*
%TD*%
M02*
