%TF.GenerationSoftware,KiCad,Pcbnew,(6.0.4)*%
%TF.CreationDate,2022-11-15T10:47:26+01:00*%
%TF.ProjectId,tp1,7470312e-6b69-4636-9164-5f7063625858,rev?*%
%TF.SameCoordinates,Original*%
%TF.FileFunction,Legend,Top*%
%TF.FilePolarity,Positive*%
%FSLAX46Y46*%
G04 Gerber Fmt 4.6, Leading zero omitted, Abs format (unit mm)*
G04 Created by KiCad (PCBNEW (6.0.4)) date 2022-11-15 10:47:26*
%MOMM*%
%LPD*%
G01*
G04 APERTURE LIST*
%ADD10C,0.300000*%
%ADD11C,0.200000*%
%ADD12C,0.150000*%
%ADD13C,0.120000*%
G04 APERTURE END LIST*
D10*
X121376428Y-68250000D02*
X121233571Y-68178571D01*
X121019285Y-68178571D01*
X120805000Y-68250000D01*
X120662142Y-68392857D01*
X120590714Y-68535714D01*
X120519285Y-68821428D01*
X120519285Y-69035714D01*
X120590714Y-69321428D01*
X120662142Y-69464285D01*
X120805000Y-69607142D01*
X121019285Y-69678571D01*
X121162142Y-69678571D01*
X121376428Y-69607142D01*
X121447857Y-69535714D01*
X121447857Y-69035714D01*
X121162142Y-69035714D01*
X122090714Y-69678571D02*
X122090714Y-68178571D01*
X122947857Y-69678571D01*
X122947857Y-68178571D01*
X123662142Y-69678571D02*
X123662142Y-68178571D01*
X124019285Y-68178571D01*
X124233571Y-68250000D01*
X124376428Y-68392857D01*
X124447857Y-68535714D01*
X124519285Y-68821428D01*
X124519285Y-69035714D01*
X124447857Y-69321428D01*
X124376428Y-69464285D01*
X124233571Y-69607142D01*
X124019285Y-69678571D01*
X123662142Y-69678571D01*
X119593571Y-87278571D02*
X119593571Y-85778571D01*
X120093571Y-86850000D01*
X120593571Y-85778571D01*
X120593571Y-87278571D01*
X121593571Y-85778571D02*
X121879285Y-85778571D01*
X122022142Y-85850000D01*
X122165000Y-85992857D01*
X122236428Y-86278571D01*
X122236428Y-86778571D01*
X122165000Y-87064285D01*
X122022142Y-87207142D01*
X121879285Y-87278571D01*
X121593571Y-87278571D01*
X121450714Y-87207142D01*
X121307857Y-87064285D01*
X121236428Y-86778571D01*
X121236428Y-86278571D01*
X121307857Y-85992857D01*
X121450714Y-85850000D01*
X121593571Y-85778571D01*
X122807857Y-87207142D02*
X123022142Y-87278571D01*
X123379285Y-87278571D01*
X123522142Y-87207142D01*
X123593571Y-87135714D01*
X123665000Y-86992857D01*
X123665000Y-86850000D01*
X123593571Y-86707142D01*
X123522142Y-86635714D01*
X123379285Y-86564285D01*
X123093571Y-86492857D01*
X122950714Y-86421428D01*
X122879285Y-86350000D01*
X122807857Y-86207142D01*
X122807857Y-86064285D01*
X122879285Y-85921428D01*
X122950714Y-85850000D01*
X123093571Y-85778571D01*
X123450714Y-85778571D01*
X123665000Y-85850000D01*
X124307857Y-87278571D02*
X124307857Y-85778571D01*
X121236428Y-93470000D02*
X121093571Y-93398571D01*
X120879285Y-93398571D01*
X120665000Y-93470000D01*
X120522142Y-93612857D01*
X120450714Y-93755714D01*
X120379285Y-94041428D01*
X120379285Y-94255714D01*
X120450714Y-94541428D01*
X120522142Y-94684285D01*
X120665000Y-94827142D01*
X120879285Y-94898571D01*
X121022142Y-94898571D01*
X121236428Y-94827142D01*
X121307857Y-94755714D01*
X121307857Y-94255714D01*
X121022142Y-94255714D01*
X121950714Y-94898571D02*
X121950714Y-93398571D01*
X122807857Y-94898571D01*
X122807857Y-93398571D01*
X123522142Y-94898571D02*
X123522142Y-93398571D01*
X123879285Y-93398571D01*
X124093571Y-93470000D01*
X124236428Y-93612857D01*
X124307857Y-93755714D01*
X124379285Y-94041428D01*
X124379285Y-94255714D01*
X124307857Y-94541428D01*
X124236428Y-94684285D01*
X124093571Y-94827142D01*
X123879285Y-94898571D01*
X123522142Y-94898571D01*
X157412857Y-80610000D02*
X157270000Y-80538571D01*
X157055714Y-80538571D01*
X156841428Y-80610000D01*
X156698571Y-80752857D01*
X156627142Y-80895714D01*
X156555714Y-81181428D01*
X156555714Y-81395714D01*
X156627142Y-81681428D01*
X156698571Y-81824285D01*
X156841428Y-81967142D01*
X157055714Y-82038571D01*
X157198571Y-82038571D01*
X157412857Y-81967142D01*
X157484285Y-81895714D01*
X157484285Y-81395714D01*
X157198571Y-81395714D01*
X158127142Y-82038571D02*
X158127142Y-80538571D01*
X158984285Y-82038571D01*
X158984285Y-80538571D01*
X159698571Y-82038571D02*
X159698571Y-80538571D01*
X160055714Y-80538571D01*
X160270000Y-80610000D01*
X160412857Y-80752857D01*
X160484285Y-80895714D01*
X160555714Y-81181428D01*
X160555714Y-81395714D01*
X160484285Y-81681428D01*
X160412857Y-81824285D01*
X160270000Y-81967142D01*
X160055714Y-82038571D01*
X159698571Y-82038571D01*
X157412857Y-93310000D02*
X157270000Y-93238571D01*
X157055714Y-93238571D01*
X156841428Y-93310000D01*
X156698571Y-93452857D01*
X156627142Y-93595714D01*
X156555714Y-93881428D01*
X156555714Y-94095714D01*
X156627142Y-94381428D01*
X156698571Y-94524285D01*
X156841428Y-94667142D01*
X157055714Y-94738571D01*
X157198571Y-94738571D01*
X157412857Y-94667142D01*
X157484285Y-94595714D01*
X157484285Y-94095714D01*
X157198571Y-94095714D01*
X158127142Y-94738571D02*
X158127142Y-93238571D01*
X158984285Y-94738571D01*
X158984285Y-93238571D01*
X159698571Y-94738571D02*
X159698571Y-93238571D01*
X160055714Y-93238571D01*
X160270000Y-93310000D01*
X160412857Y-93452857D01*
X160484285Y-93595714D01*
X160555714Y-93881428D01*
X160555714Y-94095714D01*
X160484285Y-94381428D01*
X160412857Y-94524285D01*
X160270000Y-94667142D01*
X160055714Y-94738571D01*
X159698571Y-94738571D01*
D11*
X154678571Y-133250000D02*
X154678571Y-132392857D01*
X156178571Y-132821428D02*
X154678571Y-132821428D01*
X156178571Y-131892857D02*
X155178571Y-131892857D01*
X154678571Y-131892857D02*
X154750000Y-131964285D01*
X154821428Y-131892857D01*
X154750000Y-131821428D01*
X154678571Y-131892857D01*
X154821428Y-131892857D01*
X156178571Y-130964285D02*
X156107142Y-131107142D01*
X155964285Y-131178571D01*
X154678571Y-131178571D01*
X156178571Y-130178571D02*
X156107142Y-130321428D01*
X155964285Y-130392857D01*
X154678571Y-130392857D01*
X156178571Y-129607142D02*
X155178571Y-129607142D01*
X154678571Y-129607142D02*
X154750000Y-129678571D01*
X154821428Y-129607142D01*
X154750000Y-129535714D01*
X154678571Y-129607142D01*
X154821428Y-129607142D01*
X155178571Y-129107142D02*
X155178571Y-128535714D01*
X154678571Y-128892857D02*
X155964285Y-128892857D01*
X156107142Y-128821428D01*
X156178571Y-128678571D01*
X156178571Y-128535714D01*
X156178571Y-128035714D02*
X155178571Y-128035714D01*
X154678571Y-128035714D02*
X154750000Y-128107142D01*
X154821428Y-128035714D01*
X154750000Y-127964285D01*
X154678571Y-128035714D01*
X154821428Y-128035714D01*
X156107142Y-127392857D02*
X156178571Y-127250000D01*
X156178571Y-126964285D01*
X156107142Y-126821428D01*
X155964285Y-126750000D01*
X155892857Y-126750000D01*
X155750000Y-126821428D01*
X155678571Y-126964285D01*
X155678571Y-127178571D01*
X155607142Y-127321428D01*
X155464285Y-127392857D01*
X155392857Y-127392857D01*
X155250000Y-127321428D01*
X155178571Y-127178571D01*
X155178571Y-126964285D01*
X155250000Y-126821428D01*
X154678571Y-125178571D02*
X154678571Y-124321428D01*
X156178571Y-124750000D02*
X154678571Y-124750000D01*
X156178571Y-123821428D02*
X154678571Y-123821428D01*
X156178571Y-122964285D02*
X155321428Y-123607142D01*
X154678571Y-122964285D02*
X155535714Y-123821428D01*
X155607142Y-122321428D02*
X155607142Y-121178571D01*
X156178571Y-119678571D02*
X156178571Y-120535714D01*
X156178571Y-120107142D02*
X154678571Y-120107142D01*
X154892857Y-120250000D01*
X155035714Y-120392857D01*
X155107142Y-120535714D01*
X156178571Y-117892857D02*
X154678571Y-117892857D01*
X154678571Y-117321428D01*
X154750000Y-117178571D01*
X154821428Y-117107142D01*
X154964285Y-117035714D01*
X155178571Y-117035714D01*
X155321428Y-117107142D01*
X155392857Y-117178571D01*
X155464285Y-117321428D01*
X155464285Y-117892857D01*
X156178571Y-116392857D02*
X155178571Y-116392857D01*
X155464285Y-116392857D02*
X155321428Y-116321428D01*
X155250000Y-116250000D01*
X155178571Y-116107142D01*
X155178571Y-115964285D01*
X156178571Y-115250000D02*
X156107142Y-115392857D01*
X156035714Y-115464285D01*
X155892857Y-115535714D01*
X155464285Y-115535714D01*
X155321428Y-115464285D01*
X155250000Y-115392857D01*
X155178571Y-115250000D01*
X155178571Y-115035714D01*
X155250000Y-114892857D01*
X155321428Y-114821428D01*
X155464285Y-114750000D01*
X155892857Y-114750000D01*
X156035714Y-114821428D01*
X156107142Y-114892857D01*
X156178571Y-115035714D01*
X156178571Y-115250000D01*
X155178571Y-113464285D02*
X156392857Y-113464285D01*
X156535714Y-113535714D01*
X156607142Y-113607142D01*
X156678571Y-113750000D01*
X156678571Y-113964285D01*
X156607142Y-114107142D01*
X156107142Y-113464285D02*
X156178571Y-113607142D01*
X156178571Y-113892857D01*
X156107142Y-114035714D01*
X156035714Y-114107142D01*
X155892857Y-114178571D01*
X155464285Y-114178571D01*
X155321428Y-114107142D01*
X155250000Y-114035714D01*
X155178571Y-113892857D01*
X155178571Y-113607142D01*
X155250000Y-113464285D01*
X156178571Y-112750000D02*
X155178571Y-112750000D01*
X155464285Y-112750000D02*
X155321428Y-112678571D01*
X155250000Y-112607142D01*
X155178571Y-112464285D01*
X155178571Y-112321428D01*
X156178571Y-111178571D02*
X155392857Y-111178571D01*
X155250000Y-111250000D01*
X155178571Y-111392857D01*
X155178571Y-111678571D01*
X155250000Y-111821428D01*
X156107142Y-111178571D02*
X156178571Y-111321428D01*
X156178571Y-111678571D01*
X156107142Y-111821428D01*
X155964285Y-111892857D01*
X155821428Y-111892857D01*
X155678571Y-111821428D01*
X155607142Y-111678571D01*
X155607142Y-111321428D01*
X155535714Y-111178571D01*
X156178571Y-110464285D02*
X155178571Y-110464285D01*
X155321428Y-110464285D02*
X155250000Y-110392857D01*
X155178571Y-110250000D01*
X155178571Y-110035714D01*
X155250000Y-109892857D01*
X155392857Y-109821428D01*
X156178571Y-109821428D01*
X155392857Y-109821428D02*
X155250000Y-109750000D01*
X155178571Y-109607142D01*
X155178571Y-109392857D01*
X155250000Y-109250000D01*
X155392857Y-109178571D01*
X156178571Y-109178571D01*
X156178571Y-108464285D02*
X155178571Y-108464285D01*
X155321428Y-108464285D02*
X155250000Y-108392857D01*
X155178571Y-108250000D01*
X155178571Y-108035714D01*
X155250000Y-107892857D01*
X155392857Y-107821428D01*
X156178571Y-107821428D01*
X155392857Y-107821428D02*
X155250000Y-107750000D01*
X155178571Y-107607142D01*
X155178571Y-107392857D01*
X155250000Y-107250000D01*
X155392857Y-107178571D01*
X156178571Y-107178571D01*
X156107142Y-105892857D02*
X156178571Y-106035714D01*
X156178571Y-106321428D01*
X156107142Y-106464285D01*
X155964285Y-106535714D01*
X155392857Y-106535714D01*
X155250000Y-106464285D01*
X155178571Y-106321428D01*
X155178571Y-106035714D01*
X155250000Y-105892857D01*
X155392857Y-105821428D01*
X155535714Y-105821428D01*
X155678571Y-106535714D01*
X156178571Y-105178571D02*
X155178571Y-105178571D01*
X155464285Y-105178571D02*
X155321428Y-105107142D01*
X155250000Y-105035714D01*
X155178571Y-104892857D01*
X155178571Y-104750000D01*
D10*
X120522142Y-84667142D02*
X120736428Y-84738571D01*
X121093571Y-84738571D01*
X121236428Y-84667142D01*
X121307857Y-84595714D01*
X121379285Y-84452857D01*
X121379285Y-84310000D01*
X121307857Y-84167142D01*
X121236428Y-84095714D01*
X121093571Y-84024285D01*
X120807857Y-83952857D01*
X120665000Y-83881428D01*
X120593571Y-83810000D01*
X120522142Y-83667142D01*
X120522142Y-83524285D01*
X120593571Y-83381428D01*
X120665000Y-83310000D01*
X120807857Y-83238571D01*
X121165000Y-83238571D01*
X121379285Y-83310000D01*
X122879285Y-84595714D02*
X122807857Y-84667142D01*
X122593571Y-84738571D01*
X122450714Y-84738571D01*
X122236428Y-84667142D01*
X122093571Y-84524285D01*
X122022142Y-84381428D01*
X121950714Y-84095714D01*
X121950714Y-83881428D01*
X122022142Y-83595714D01*
X122093571Y-83452857D01*
X122236428Y-83310000D01*
X122450714Y-83238571D01*
X122593571Y-83238571D01*
X122807857Y-83310000D01*
X122879285Y-83381428D01*
X123522142Y-84738571D02*
X123522142Y-83238571D01*
X124379285Y-84738571D02*
X123736428Y-83881428D01*
X124379285Y-83238571D02*
X123522142Y-84095714D01*
X118990714Y-73078571D02*
X118276428Y-73078571D01*
X118205000Y-73792857D01*
X118276428Y-73721428D01*
X118419285Y-73650000D01*
X118776428Y-73650000D01*
X118919285Y-73721428D01*
X118990714Y-73792857D01*
X119062142Y-73935714D01*
X119062142Y-74292857D01*
X118990714Y-74435714D01*
X118919285Y-74507142D01*
X118776428Y-74578571D01*
X118419285Y-74578571D01*
X118276428Y-74507142D01*
X118205000Y-74435714D01*
X119490714Y-73078571D02*
X119990714Y-74578571D01*
X120490714Y-73078571D01*
X120633571Y-74721428D02*
X121776428Y-74721428D01*
X122133571Y-73792857D02*
X122633571Y-73792857D01*
X122847857Y-74578571D02*
X122133571Y-74578571D01*
X122133571Y-73078571D01*
X122847857Y-73078571D01*
X123490714Y-74578571D02*
X123490714Y-73078571D01*
X124347857Y-74578571D01*
X124347857Y-73078571D01*
X157412857Y-67910000D02*
X157270000Y-67838571D01*
X157055714Y-67838571D01*
X156841428Y-67910000D01*
X156698571Y-68052857D01*
X156627142Y-68195714D01*
X156555714Y-68481428D01*
X156555714Y-68695714D01*
X156627142Y-68981428D01*
X156698571Y-69124285D01*
X156841428Y-69267142D01*
X157055714Y-69338571D01*
X157198571Y-69338571D01*
X157412857Y-69267142D01*
X157484285Y-69195714D01*
X157484285Y-68695714D01*
X157198571Y-68695714D01*
X158127142Y-69338571D02*
X158127142Y-67838571D01*
X158984285Y-69338571D01*
X158984285Y-67838571D01*
X159698571Y-69338571D02*
X159698571Y-67838571D01*
X160055714Y-67838571D01*
X160270000Y-67910000D01*
X160412857Y-68052857D01*
X160484285Y-68195714D01*
X160555714Y-68481428D01*
X160555714Y-68695714D01*
X160484285Y-68981428D01*
X160412857Y-69124285D01*
X160270000Y-69267142D01*
X160055714Y-69338571D01*
X159698571Y-69338571D01*
X121376428Y-55250000D02*
X121233571Y-55178571D01*
X121019285Y-55178571D01*
X120805000Y-55250000D01*
X120662142Y-55392857D01*
X120590714Y-55535714D01*
X120519285Y-55821428D01*
X120519285Y-56035714D01*
X120590714Y-56321428D01*
X120662142Y-56464285D01*
X120805000Y-56607142D01*
X121019285Y-56678571D01*
X121162142Y-56678571D01*
X121376428Y-56607142D01*
X121447857Y-56535714D01*
X121447857Y-56035714D01*
X121162142Y-56035714D01*
X122090714Y-56678571D02*
X122090714Y-55178571D01*
X122947857Y-56678571D01*
X122947857Y-55178571D01*
X123662142Y-56678571D02*
X123662142Y-55178571D01*
X124019285Y-55178571D01*
X124233571Y-55250000D01*
X124376428Y-55392857D01*
X124447857Y-55535714D01*
X124519285Y-55821428D01*
X124519285Y-56035714D01*
X124447857Y-56321428D01*
X124376428Y-56464285D01*
X124233571Y-56607142D01*
X124019285Y-56678571D01*
X123662142Y-56678571D01*
X156627142Y-51307142D02*
X157770000Y-51307142D01*
X157198571Y-51878571D02*
X157198571Y-50735714D01*
X159198571Y-50378571D02*
X158484285Y-50378571D01*
X158412857Y-51092857D01*
X158484285Y-51021428D01*
X158627142Y-50950000D01*
X158984285Y-50950000D01*
X159127142Y-51021428D01*
X159198571Y-51092857D01*
X159270000Y-51235714D01*
X159270000Y-51592857D01*
X159198571Y-51735714D01*
X159127142Y-51807142D01*
X158984285Y-51878571D01*
X158627142Y-51878571D01*
X158484285Y-51807142D01*
X158412857Y-51735714D01*
X159698571Y-50378571D02*
X160198571Y-51878571D01*
X160698571Y-50378571D01*
X121236428Y-80770000D02*
X121093571Y-80698571D01*
X120879285Y-80698571D01*
X120665000Y-80770000D01*
X120522142Y-80912857D01*
X120450714Y-81055714D01*
X120379285Y-81341428D01*
X120379285Y-81555714D01*
X120450714Y-81841428D01*
X120522142Y-81984285D01*
X120665000Y-82127142D01*
X120879285Y-82198571D01*
X121022142Y-82198571D01*
X121236428Y-82127142D01*
X121307857Y-82055714D01*
X121307857Y-81555714D01*
X121022142Y-81555714D01*
X121950714Y-82198571D02*
X121950714Y-80698571D01*
X122807857Y-82198571D01*
X122807857Y-80698571D01*
X123522142Y-82198571D02*
X123522142Y-80698571D01*
X123879285Y-80698571D01*
X124093571Y-80770000D01*
X124236428Y-80912857D01*
X124307857Y-81055714D01*
X124379285Y-81341428D01*
X124379285Y-81555714D01*
X124307857Y-81841428D01*
X124236428Y-81984285D01*
X124093571Y-82127142D01*
X123879285Y-82198571D01*
X123522142Y-82198571D01*
X120307857Y-97295714D02*
X120236428Y-97367142D01*
X120022142Y-97438571D01*
X119879285Y-97438571D01*
X119665000Y-97367142D01*
X119522142Y-97224285D01*
X119450714Y-97081428D01*
X119379285Y-96795714D01*
X119379285Y-96581428D01*
X119450714Y-96295714D01*
X119522142Y-96152857D01*
X119665000Y-96010000D01*
X119879285Y-95938571D01*
X120022142Y-95938571D01*
X120236428Y-96010000D01*
X120307857Y-96081428D01*
X121807857Y-97438571D02*
X121307857Y-96724285D01*
X120950714Y-97438571D02*
X120950714Y-95938571D01*
X121522142Y-95938571D01*
X121665000Y-96010000D01*
X121736428Y-96081428D01*
X121807857Y-96224285D01*
X121807857Y-96438571D01*
X121736428Y-96581428D01*
X121665000Y-96652857D01*
X121522142Y-96724285D01*
X120950714Y-96724285D01*
X122379285Y-97367142D02*
X122593571Y-97438571D01*
X122950714Y-97438571D01*
X123093571Y-97367142D01*
X123165000Y-97295714D01*
X123236428Y-97152857D01*
X123236428Y-97010000D01*
X123165000Y-96867142D01*
X123093571Y-96795714D01*
X122950714Y-96724285D01*
X122665000Y-96652857D01*
X122522142Y-96581428D01*
X122450714Y-96510000D01*
X122379285Y-96367142D01*
X122379285Y-96224285D01*
X122450714Y-96081428D01*
X122522142Y-96010000D01*
X122665000Y-95938571D01*
X123022142Y-95938571D01*
X123236428Y-96010000D01*
X123665000Y-95938571D02*
X124522142Y-95938571D01*
X124093571Y-97438571D02*
X124093571Y-95938571D01*
X119593571Y-92358571D02*
X119593571Y-90858571D01*
X120093571Y-91930000D01*
X120593571Y-90858571D01*
X120593571Y-92358571D01*
X121307857Y-92358571D02*
X121307857Y-90858571D01*
X121950714Y-92287142D02*
X122165000Y-92358571D01*
X122522142Y-92358571D01*
X122665000Y-92287142D01*
X122736428Y-92215714D01*
X122807857Y-92072857D01*
X122807857Y-91930000D01*
X122736428Y-91787142D01*
X122665000Y-91715714D01*
X122522142Y-91644285D01*
X122236428Y-91572857D01*
X122093571Y-91501428D01*
X122022142Y-91430000D01*
X121950714Y-91287142D01*
X121950714Y-91144285D01*
X122022142Y-91001428D01*
X122093571Y-90930000D01*
X122236428Y-90858571D01*
X122593571Y-90858571D01*
X122807857Y-90930000D01*
X123736428Y-90858571D02*
X124022142Y-90858571D01*
X124165000Y-90930000D01*
X124307857Y-91072857D01*
X124379285Y-91358571D01*
X124379285Y-91858571D01*
X124307857Y-92144285D01*
X124165000Y-92287142D01*
X124022142Y-92358571D01*
X123736428Y-92358571D01*
X123593571Y-92287142D01*
X123450714Y-92144285D01*
X123379285Y-91858571D01*
X123379285Y-91358571D01*
X123450714Y-91072857D01*
X123593571Y-90930000D01*
X123736428Y-90858571D01*
X119950714Y-99835714D02*
X119879285Y-99907142D01*
X119665000Y-99978571D01*
X119522142Y-99978571D01*
X119307857Y-99907142D01*
X119165000Y-99764285D01*
X119093571Y-99621428D01*
X119022142Y-99335714D01*
X119022142Y-99121428D01*
X119093571Y-98835714D01*
X119165000Y-98692857D01*
X119307857Y-98550000D01*
X119522142Y-98478571D01*
X119665000Y-98478571D01*
X119879285Y-98550000D01*
X119950714Y-98621428D01*
X120593571Y-99978571D02*
X120593571Y-98478571D01*
X120950714Y-98478571D01*
X121165000Y-98550000D01*
X121307857Y-98692857D01*
X121379285Y-98835714D01*
X121450714Y-99121428D01*
X121450714Y-99335714D01*
X121379285Y-99621428D01*
X121307857Y-99764285D01*
X121165000Y-99907142D01*
X120950714Y-99978571D01*
X120593571Y-99978571D01*
X122093571Y-99978571D02*
X122093571Y-98478571D01*
X122950714Y-99978571D01*
X122950714Y-98478571D01*
X123665000Y-99192857D02*
X124165000Y-99192857D01*
X124379285Y-99978571D02*
X123665000Y-99978571D01*
X123665000Y-98478571D01*
X124379285Y-98478571D01*
X122093571Y-89747142D02*
X122307857Y-89818571D01*
X122665000Y-89818571D01*
X122807857Y-89747142D01*
X122879285Y-89675714D01*
X122950714Y-89532857D01*
X122950714Y-89390000D01*
X122879285Y-89247142D01*
X122807857Y-89175714D01*
X122665000Y-89104285D01*
X122379285Y-89032857D01*
X122236428Y-88961428D01*
X122165000Y-88890000D01*
X122093571Y-88747142D01*
X122093571Y-88604285D01*
X122165000Y-88461428D01*
X122236428Y-88390000D01*
X122379285Y-88318571D01*
X122736428Y-88318571D01*
X122950714Y-88390000D01*
X123522142Y-89747142D02*
X123736428Y-89818571D01*
X124093571Y-89818571D01*
X124236428Y-89747142D01*
X124307857Y-89675714D01*
X124379285Y-89532857D01*
X124379285Y-89390000D01*
X124307857Y-89247142D01*
X124236428Y-89175714D01*
X124093571Y-89104285D01*
X123807857Y-89032857D01*
X123665000Y-88961428D01*
X123593571Y-88890000D01*
X123522142Y-88747142D01*
X123522142Y-88604285D01*
X123593571Y-88461428D01*
X123665000Y-88390000D01*
X123807857Y-88318571D01*
X124165000Y-88318571D01*
X124379285Y-88390000D01*
D12*
X157352380Y-127057142D02*
X157352380Y-126485714D01*
X158352380Y-126771428D02*
X157352380Y-126771428D01*
X158352380Y-126152380D02*
X157352380Y-126152380D01*
X157352380Y-125771428D01*
X157400000Y-125676190D01*
X157447619Y-125628571D01*
X157542857Y-125580952D01*
X157685714Y-125580952D01*
X157780952Y-125628571D01*
X157828571Y-125676190D01*
X157876190Y-125771428D01*
X157876190Y-126152380D01*
X157971428Y-125152380D02*
X157971428Y-124390476D01*
X158352380Y-123390476D02*
X158352380Y-123961904D01*
X158352380Y-123676190D02*
X157352380Y-123676190D01*
X157495238Y-123771428D01*
X157590476Y-123866666D01*
X157638095Y-123961904D01*
X158352380Y-121628571D02*
X157876190Y-121961904D01*
X158352380Y-122200000D02*
X157352380Y-122200000D01*
X157352380Y-121819047D01*
X157400000Y-121723809D01*
X157447619Y-121676190D01*
X157542857Y-121628571D01*
X157685714Y-121628571D01*
X157780952Y-121676190D01*
X157828571Y-121723809D01*
X157876190Y-121819047D01*
X157876190Y-122200000D01*
X158304761Y-120819047D02*
X158352380Y-120914285D01*
X158352380Y-121104761D01*
X158304761Y-121200000D01*
X158209523Y-121247619D01*
X157828571Y-121247619D01*
X157733333Y-121200000D01*
X157685714Y-121104761D01*
X157685714Y-120914285D01*
X157733333Y-120819047D01*
X157828571Y-120771428D01*
X157923809Y-120771428D01*
X158019047Y-121247619D01*
X157685714Y-120438095D02*
X158352380Y-120200000D01*
X157685714Y-119961904D01*
X158066666Y-119628571D02*
X158066666Y-119152380D01*
X158352380Y-119723809D02*
X157352380Y-119390476D01*
X158352380Y-119057142D01*
X157447619Y-118009523D02*
X157400000Y-117961904D01*
X157352380Y-117866666D01*
X157352380Y-117628571D01*
X157400000Y-117533333D01*
X157447619Y-117485714D01*
X157542857Y-117438095D01*
X157638095Y-117438095D01*
X157780952Y-117485714D01*
X158352380Y-118057142D01*
X158352380Y-117438095D01*
X157352380Y-116819047D02*
X157352380Y-116723809D01*
X157400000Y-116628571D01*
X157447619Y-116580952D01*
X157542857Y-116533333D01*
X157733333Y-116485714D01*
X157971428Y-116485714D01*
X158161904Y-116533333D01*
X158257142Y-116580952D01*
X158304761Y-116628571D01*
X158352380Y-116723809D01*
X158352380Y-116819047D01*
X158304761Y-116914285D01*
X158257142Y-116961904D01*
X158161904Y-117009523D01*
X157971428Y-117057142D01*
X157733333Y-117057142D01*
X157542857Y-117009523D01*
X157447619Y-116961904D01*
X157400000Y-116914285D01*
X157352380Y-116819047D01*
X157447619Y-116104761D02*
X157400000Y-116057142D01*
X157352380Y-115961904D01*
X157352380Y-115723809D01*
X157400000Y-115628571D01*
X157447619Y-115580952D01*
X157542857Y-115533333D01*
X157638095Y-115533333D01*
X157780952Y-115580952D01*
X158352380Y-116152380D01*
X158352380Y-115533333D01*
X157447619Y-115152380D02*
X157400000Y-115104761D01*
X157352380Y-115009523D01*
X157352380Y-114771428D01*
X157400000Y-114676190D01*
X157447619Y-114628571D01*
X157542857Y-114580952D01*
X157638095Y-114580952D01*
X157780952Y-114628571D01*
X158352380Y-115200000D01*
X158352380Y-114580952D01*
X157971428Y-114152380D02*
X157971428Y-113390476D01*
X158352380Y-112390476D02*
X158352380Y-112961904D01*
X158352380Y-112676190D02*
X157352380Y-112676190D01*
X157495238Y-112771428D01*
X157590476Y-112866666D01*
X157638095Y-112961904D01*
X158352380Y-111438095D02*
X158352380Y-112009523D01*
X158352380Y-111723809D02*
X157352380Y-111723809D01*
X157495238Y-111819047D01*
X157590476Y-111914285D01*
X157638095Y-112009523D01*
%TO.C,U2*%
X139738095Y-74452380D02*
X139738095Y-75261904D01*
X139785714Y-75357142D01*
X139833333Y-75404761D01*
X139928571Y-75452380D01*
X140119047Y-75452380D01*
X140214285Y-75404761D01*
X140261904Y-75357142D01*
X140309523Y-75261904D01*
X140309523Y-74452380D01*
X140738095Y-74547619D02*
X140785714Y-74500000D01*
X140880952Y-74452380D01*
X141119047Y-74452380D01*
X141214285Y-74500000D01*
X141261904Y-74547619D01*
X141309523Y-74642857D01*
X141309523Y-74738095D01*
X141261904Y-74880952D01*
X140690476Y-75452380D01*
X141309523Y-75452380D01*
%TO.C,F1*%
X159478571Y-53333333D02*
X159478571Y-53666666D01*
X160002380Y-53666666D02*
X159002380Y-53666666D01*
X159002380Y-53190476D01*
X160002380Y-52285714D02*
X160002380Y-52857142D01*
X160002380Y-52571428D02*
X159002380Y-52571428D01*
X159145238Y-52666666D01*
X159240476Y-52761904D01*
X159288095Y-52857142D01*
%TO.C,R12*%
X124202380Y-103542857D02*
X123726190Y-103876190D01*
X124202380Y-104114285D02*
X123202380Y-104114285D01*
X123202380Y-103733333D01*
X123250000Y-103638095D01*
X123297619Y-103590476D01*
X123392857Y-103542857D01*
X123535714Y-103542857D01*
X123630952Y-103590476D01*
X123678571Y-103638095D01*
X123726190Y-103733333D01*
X123726190Y-104114285D01*
X124202380Y-102590476D02*
X124202380Y-103161904D01*
X124202380Y-102876190D02*
X123202380Y-102876190D01*
X123345238Y-102971428D01*
X123440476Y-103066666D01*
X123488095Y-103161904D01*
X123297619Y-102209523D02*
X123250000Y-102161904D01*
X123202380Y-102066666D01*
X123202380Y-101828571D01*
X123250000Y-101733333D01*
X123297619Y-101685714D01*
X123392857Y-101638095D01*
X123488095Y-101638095D01*
X123630952Y-101685714D01*
X124202380Y-102257142D01*
X124202380Y-101638095D01*
%TO.C,R14*%
X127202380Y-103542857D02*
X126726190Y-103876190D01*
X127202380Y-104114285D02*
X126202380Y-104114285D01*
X126202380Y-103733333D01*
X126250000Y-103638095D01*
X126297619Y-103590476D01*
X126392857Y-103542857D01*
X126535714Y-103542857D01*
X126630952Y-103590476D01*
X126678571Y-103638095D01*
X126726190Y-103733333D01*
X126726190Y-104114285D01*
X127202380Y-102590476D02*
X127202380Y-103161904D01*
X127202380Y-102876190D02*
X126202380Y-102876190D01*
X126345238Y-102971428D01*
X126440476Y-103066666D01*
X126488095Y-103161904D01*
X126535714Y-101733333D02*
X127202380Y-101733333D01*
X126154761Y-101971428D02*
X126869047Y-102209523D01*
X126869047Y-101590476D01*
%TO.C,R11*%
X122702380Y-103542857D02*
X122226190Y-103876190D01*
X122702380Y-104114285D02*
X121702380Y-104114285D01*
X121702380Y-103733333D01*
X121750000Y-103638095D01*
X121797619Y-103590476D01*
X121892857Y-103542857D01*
X122035714Y-103542857D01*
X122130952Y-103590476D01*
X122178571Y-103638095D01*
X122226190Y-103733333D01*
X122226190Y-104114285D01*
X122702380Y-102590476D02*
X122702380Y-103161904D01*
X122702380Y-102876190D02*
X121702380Y-102876190D01*
X121845238Y-102971428D01*
X121940476Y-103066666D01*
X121988095Y-103161904D01*
X122702380Y-101638095D02*
X122702380Y-102209523D01*
X122702380Y-101923809D02*
X121702380Y-101923809D01*
X121845238Y-102019047D01*
X121940476Y-102114285D01*
X121988095Y-102209523D01*
%TO.C,R13*%
X125702380Y-103542857D02*
X125226190Y-103876190D01*
X125702380Y-104114285D02*
X124702380Y-104114285D01*
X124702380Y-103733333D01*
X124750000Y-103638095D01*
X124797619Y-103590476D01*
X124892857Y-103542857D01*
X125035714Y-103542857D01*
X125130952Y-103590476D01*
X125178571Y-103638095D01*
X125226190Y-103733333D01*
X125226190Y-104114285D01*
X125702380Y-102590476D02*
X125702380Y-103161904D01*
X125702380Y-102876190D02*
X124702380Y-102876190D01*
X124845238Y-102971428D01*
X124940476Y-103066666D01*
X124988095Y-103161904D01*
X124702380Y-102257142D02*
X124702380Y-101638095D01*
X125083333Y-101971428D01*
X125083333Y-101828571D01*
X125130952Y-101733333D01*
X125178571Y-101685714D01*
X125273809Y-101638095D01*
X125511904Y-101638095D01*
X125607142Y-101685714D01*
X125654761Y-101733333D01*
X125702380Y-101828571D01*
X125702380Y-102114285D01*
X125654761Y-102209523D01*
X125607142Y-102257142D01*
%TO.C,Q1*%
X123504761Y-113647619D02*
X123409523Y-113600000D01*
X123314285Y-113504761D01*
X123171428Y-113361904D01*
X123076190Y-113314285D01*
X122980952Y-113314285D01*
X123028571Y-113552380D02*
X122933333Y-113504761D01*
X122838095Y-113409523D01*
X122790476Y-113219047D01*
X122790476Y-112885714D01*
X122838095Y-112695238D01*
X122933333Y-112600000D01*
X123028571Y-112552380D01*
X123219047Y-112552380D01*
X123314285Y-112600000D01*
X123409523Y-112695238D01*
X123457142Y-112885714D01*
X123457142Y-113219047D01*
X123409523Y-113409523D01*
X123314285Y-113504761D01*
X123219047Y-113552380D01*
X123028571Y-113552380D01*
X124409523Y-113552380D02*
X123838095Y-113552380D01*
X124123809Y-113552380D02*
X124123809Y-112552380D01*
X124028571Y-112695238D01*
X123933333Y-112790476D01*
X123838095Y-112838095D01*
%TO.C,JIG1*%
X141152380Y-121171428D02*
X141866666Y-121171428D01*
X142009523Y-121219047D01*
X142104761Y-121314285D01*
X142152380Y-121457142D01*
X142152380Y-121552380D01*
X142152380Y-120695238D02*
X141152380Y-120695238D01*
X141200000Y-119695238D02*
X141152380Y-119790476D01*
X141152380Y-119933333D01*
X141200000Y-120076190D01*
X141295238Y-120171428D01*
X141390476Y-120219047D01*
X141580952Y-120266666D01*
X141723809Y-120266666D01*
X141914285Y-120219047D01*
X142009523Y-120171428D01*
X142104761Y-120076190D01*
X142152380Y-119933333D01*
X142152380Y-119838095D01*
X142104761Y-119695238D01*
X142057142Y-119647619D01*
X141723809Y-119647619D01*
X141723809Y-119838095D01*
X142152380Y-118695238D02*
X142152380Y-119266666D01*
X142152380Y-118980952D02*
X141152380Y-118980952D01*
X141295238Y-119076190D01*
X141390476Y-119171428D01*
X141438095Y-119266666D01*
%TO.C,R8*%
X120952380Y-123666666D02*
X120476190Y-124000000D01*
X120952380Y-124238095D02*
X119952380Y-124238095D01*
X119952380Y-123857142D01*
X120000000Y-123761904D01*
X120047619Y-123714285D01*
X120142857Y-123666666D01*
X120285714Y-123666666D01*
X120380952Y-123714285D01*
X120428571Y-123761904D01*
X120476190Y-123857142D01*
X120476190Y-124238095D01*
X120380952Y-123095238D02*
X120333333Y-123190476D01*
X120285714Y-123238095D01*
X120190476Y-123285714D01*
X120142857Y-123285714D01*
X120047619Y-123238095D01*
X120000000Y-123190476D01*
X119952380Y-123095238D01*
X119952380Y-122904761D01*
X120000000Y-122809523D01*
X120047619Y-122761904D01*
X120142857Y-122714285D01*
X120190476Y-122714285D01*
X120285714Y-122761904D01*
X120333333Y-122809523D01*
X120380952Y-122904761D01*
X120380952Y-123095238D01*
X120428571Y-123190476D01*
X120476190Y-123238095D01*
X120571428Y-123285714D01*
X120761904Y-123285714D01*
X120857142Y-123238095D01*
X120904761Y-123190476D01*
X120952380Y-123095238D01*
X120952380Y-122904761D01*
X120904761Y-122809523D01*
X120857142Y-122761904D01*
X120761904Y-122714285D01*
X120571428Y-122714285D01*
X120476190Y-122761904D01*
X120428571Y-122809523D01*
X120380952Y-122904761D01*
%TO.C,Q2*%
X123504761Y-120247619D02*
X123409523Y-120200000D01*
X123314285Y-120104761D01*
X123171428Y-119961904D01*
X123076190Y-119914285D01*
X122980952Y-119914285D01*
X123028571Y-120152380D02*
X122933333Y-120104761D01*
X122838095Y-120009523D01*
X122790476Y-119819047D01*
X122790476Y-119485714D01*
X122838095Y-119295238D01*
X122933333Y-119200000D01*
X123028571Y-119152380D01*
X123219047Y-119152380D01*
X123314285Y-119200000D01*
X123409523Y-119295238D01*
X123457142Y-119485714D01*
X123457142Y-119819047D01*
X123409523Y-120009523D01*
X123314285Y-120104761D01*
X123219047Y-120152380D01*
X123028571Y-120152380D01*
X123838095Y-119247619D02*
X123885714Y-119200000D01*
X123980952Y-119152380D01*
X124219047Y-119152380D01*
X124314285Y-119200000D01*
X124361904Y-119247619D01*
X124409523Y-119342857D01*
X124409523Y-119438095D01*
X124361904Y-119580952D01*
X123790476Y-120152380D01*
X124409523Y-120152380D01*
%TO.C,J4*%
X136583333Y-123297619D02*
X136583333Y-122583333D01*
X136630952Y-122440476D01*
X136726190Y-122345238D01*
X136869047Y-122297619D01*
X136964285Y-122297619D01*
X135678571Y-122964285D02*
X135678571Y-122297619D01*
X135916666Y-123345238D02*
X136154761Y-122630952D01*
X135535714Y-122630952D01*
%TO.C,J3*%
X143416666Y-127202380D02*
X143416666Y-127916666D01*
X143369047Y-128059523D01*
X143273809Y-128154761D01*
X143130952Y-128202380D01*
X143035714Y-128202380D01*
X143797619Y-127202380D02*
X144416666Y-127202380D01*
X144083333Y-127583333D01*
X144226190Y-127583333D01*
X144321428Y-127630952D01*
X144369047Y-127678571D01*
X144416666Y-127773809D01*
X144416666Y-128011904D01*
X144369047Y-128107142D01*
X144321428Y-128154761D01*
X144226190Y-128202380D01*
X143940476Y-128202380D01*
X143845238Y-128154761D01*
X143797619Y-128107142D01*
%TO.C,R16*%
X130202380Y-103542857D02*
X129726190Y-103876190D01*
X130202380Y-104114285D02*
X129202380Y-104114285D01*
X129202380Y-103733333D01*
X129250000Y-103638095D01*
X129297619Y-103590476D01*
X129392857Y-103542857D01*
X129535714Y-103542857D01*
X129630952Y-103590476D01*
X129678571Y-103638095D01*
X129726190Y-103733333D01*
X129726190Y-104114285D01*
X130202380Y-102590476D02*
X130202380Y-103161904D01*
X130202380Y-102876190D02*
X129202380Y-102876190D01*
X129345238Y-102971428D01*
X129440476Y-103066666D01*
X129488095Y-103161904D01*
X129202380Y-101733333D02*
X129202380Y-101923809D01*
X129250000Y-102019047D01*
X129297619Y-102066666D01*
X129440476Y-102161904D01*
X129630952Y-102209523D01*
X130011904Y-102209523D01*
X130107142Y-102161904D01*
X130154761Y-102114285D01*
X130202380Y-102019047D01*
X130202380Y-101828571D01*
X130154761Y-101733333D01*
X130107142Y-101685714D01*
X130011904Y-101638095D01*
X129773809Y-101638095D01*
X129678571Y-101685714D01*
X129630952Y-101733333D01*
X129583333Y-101828571D01*
X129583333Y-102019047D01*
X129630952Y-102114285D01*
X129678571Y-102161904D01*
X129773809Y-102209523D01*
%TO.C,R17*%
X121202380Y-103442857D02*
X120726190Y-103776190D01*
X121202380Y-104014285D02*
X120202380Y-104014285D01*
X120202380Y-103633333D01*
X120250000Y-103538095D01*
X120297619Y-103490476D01*
X120392857Y-103442857D01*
X120535714Y-103442857D01*
X120630952Y-103490476D01*
X120678571Y-103538095D01*
X120726190Y-103633333D01*
X120726190Y-104014285D01*
X121202380Y-102490476D02*
X121202380Y-103061904D01*
X121202380Y-102776190D02*
X120202380Y-102776190D01*
X120345238Y-102871428D01*
X120440476Y-102966666D01*
X120488095Y-103061904D01*
X120202380Y-102157142D02*
X120202380Y-101490476D01*
X121202380Y-101919047D01*
%TO.C,R15*%
X128702380Y-103542857D02*
X128226190Y-103876190D01*
X128702380Y-104114285D02*
X127702380Y-104114285D01*
X127702380Y-103733333D01*
X127750000Y-103638095D01*
X127797619Y-103590476D01*
X127892857Y-103542857D01*
X128035714Y-103542857D01*
X128130952Y-103590476D01*
X128178571Y-103638095D01*
X128226190Y-103733333D01*
X128226190Y-104114285D01*
X128702380Y-102590476D02*
X128702380Y-103161904D01*
X128702380Y-102876190D02*
X127702380Y-102876190D01*
X127845238Y-102971428D01*
X127940476Y-103066666D01*
X127988095Y-103161904D01*
X127702380Y-101685714D02*
X127702380Y-102161904D01*
X128178571Y-102209523D01*
X128130952Y-102161904D01*
X128083333Y-102066666D01*
X128083333Y-101828571D01*
X128130952Y-101733333D01*
X128178571Y-101685714D01*
X128273809Y-101638095D01*
X128511904Y-101638095D01*
X128607142Y-101685714D01*
X128654761Y-101733333D01*
X128702380Y-101828571D01*
X128702380Y-102066666D01*
X128654761Y-102161904D01*
X128607142Y-102209523D01*
%TO.C,R7*%
X119862380Y-103196666D02*
X119386190Y-103530000D01*
X119862380Y-103768095D02*
X118862380Y-103768095D01*
X118862380Y-103387142D01*
X118910000Y-103291904D01*
X118957619Y-103244285D01*
X119052857Y-103196666D01*
X119195714Y-103196666D01*
X119290952Y-103244285D01*
X119338571Y-103291904D01*
X119386190Y-103387142D01*
X119386190Y-103768095D01*
X118862380Y-102863333D02*
X118862380Y-102196666D01*
X119862380Y-102625238D01*
D13*
%TO.C,U2*%
X151000000Y-79900000D02*
X151000000Y-80300000D01*
X130000000Y-51900000D02*
X130000000Y-52300000D01*
X130000000Y-54500000D02*
X130000000Y-54900000D01*
X151000000Y-85000000D02*
X151000000Y-85400000D01*
X136800000Y-100500000D02*
X130000000Y-100500000D01*
X151000000Y-74800000D02*
X151000000Y-75200000D01*
X151000000Y-97700000D02*
X151000000Y-98100000D01*
X151000000Y-51900000D02*
X151000000Y-52300000D01*
X133007000Y-52167000D02*
X133007000Y-49500000D01*
X151000000Y-69700000D02*
X151000000Y-70100000D01*
X130000000Y-49500000D02*
X151000000Y-49500000D01*
X130000000Y-95100000D02*
X130000000Y-95500000D01*
X130000000Y-72300000D02*
X130000000Y-72700000D01*
X130000000Y-97700000D02*
X130000000Y-98100000D01*
X130000000Y-59600000D02*
X130000000Y-60000000D01*
X130000000Y-69700000D02*
X130000000Y-70100000D01*
X151000000Y-72300000D02*
X151000000Y-72700000D01*
X151000000Y-100500000D02*
X144200000Y-100500000D01*
X151000000Y-59600000D02*
X151000000Y-60000000D01*
X130000000Y-82400000D02*
X130000000Y-82800000D01*
X130000000Y-52167000D02*
X133007000Y-52167000D01*
X130000000Y-67200000D02*
X130000000Y-67600000D01*
X130000000Y-79900000D02*
X130000000Y-80300000D01*
X139000000Y-100500000D02*
X139400000Y-100500000D01*
X130000000Y-62100000D02*
X130000000Y-62500000D01*
X151000000Y-54500000D02*
X151000000Y-54900000D01*
X130000000Y-90100000D02*
X130000000Y-90500000D01*
X141600000Y-100500000D02*
X142000000Y-100500000D01*
X151000000Y-62100000D02*
X151000000Y-62500000D01*
X130000000Y-85000000D02*
X130000000Y-85400000D01*
X151000000Y-77300000D02*
X151000000Y-77700000D01*
X130000000Y-64600000D02*
X130000000Y-65000000D01*
X130000000Y-74800000D02*
X130000000Y-75200000D01*
X130000000Y-92600000D02*
X130000000Y-93000000D01*
X130000000Y-87500000D02*
X130000000Y-87900000D01*
X151000000Y-82400000D02*
X151000000Y-82800000D01*
X151000000Y-64600000D02*
X151000000Y-65000000D01*
X151000000Y-92600000D02*
X151000000Y-93000000D01*
X151000000Y-67200000D02*
X151000000Y-67600000D01*
X130000000Y-49500000D02*
X130000000Y-49800000D01*
X151000000Y-95100000D02*
X151000000Y-95500000D01*
X151000000Y-87500000D02*
X151000000Y-87900000D01*
X151000000Y-57000000D02*
X151000000Y-57400000D01*
X130000000Y-77300000D02*
X130000000Y-77700000D01*
X151000000Y-49500000D02*
X151000000Y-49800000D01*
X130000000Y-57000000D02*
X130000000Y-57400000D01*
X151000000Y-90100000D02*
X151000000Y-90500000D01*
%TO.C,J2*%
X153170000Y-100590000D02*
X155830000Y-100590000D01*
X153170000Y-49670000D02*
X154500000Y-49670000D01*
X153170000Y-51000000D02*
X153170000Y-49670000D01*
X153170000Y-52270000D02*
X153170000Y-100590000D01*
X153170000Y-52270000D02*
X155830000Y-52270000D01*
X155830000Y-52270000D02*
X155830000Y-100590000D01*
%TO.C,F1*%
X158590000Y-55897936D02*
X158590000Y-57102064D01*
X160410000Y-55897936D02*
X160410000Y-57102064D01*
%TO.C,R12*%
X124130000Y-105553641D02*
X124130000Y-105246359D01*
X123370000Y-105553641D02*
X123370000Y-105246359D01*
%TO.C,J1*%
X125170000Y-51000000D02*
X125170000Y-49670000D01*
X125170000Y-100590000D02*
X127830000Y-100590000D01*
X125170000Y-52270000D02*
X125170000Y-100590000D01*
X125170000Y-52270000D02*
X127830000Y-52270000D01*
X127830000Y-52270000D02*
X127830000Y-100590000D01*
X125170000Y-49670000D02*
X126500000Y-49670000D01*
%TO.C,R14*%
X126370000Y-105553641D02*
X126370000Y-105246359D01*
X127130000Y-105553641D02*
X127130000Y-105246359D01*
%TO.C,R11*%
X122630000Y-105553641D02*
X122630000Y-105246359D01*
X121870000Y-105553641D02*
X121870000Y-105246359D01*
%TO.C,R13*%
X124870000Y-105553641D02*
X124870000Y-105246359D01*
X125630000Y-105553641D02*
X125630000Y-105246359D01*
%TO.C,Q1*%
X121700000Y-112930000D02*
X122350000Y-112930000D01*
X121700000Y-116050000D02*
X121050000Y-116050000D01*
X121700000Y-112930000D02*
X120025000Y-112930000D01*
X121700000Y-116050000D02*
X122350000Y-116050000D01*
D11*
%TO.C,JIG1*%
X148750000Y-108250000D02*
X150950000Y-108250000D01*
X152950000Y-110250000D02*
X152950000Y-129750000D01*
X146900000Y-123550000D02*
X146900000Y-114250000D01*
X150950000Y-131750000D02*
X148750000Y-131750000D01*
X146900000Y-133450000D02*
X146900000Y-128900000D01*
X135250000Y-104250000D02*
X144750000Y-104250000D01*
X140500000Y-128900000D02*
X140500000Y-133450000D01*
X148750000Y-123550000D02*
X146900000Y-123550000D01*
X140500000Y-133450000D02*
X146900000Y-133450000D01*
X139500000Y-121450000D02*
X139500000Y-107050000D01*
X129050000Y-117000000D02*
X131250000Y-117000000D01*
X148750000Y-114250000D02*
X148750000Y-123550000D01*
X127050000Y-121000000D02*
X127050000Y-119000000D01*
X145700000Y-114250000D02*
X145700000Y-124750000D01*
X131250000Y-123000000D02*
X129050000Y-123000000D01*
X146900000Y-128900000D02*
X140500000Y-128900000D01*
X145700000Y-124750000D02*
X149750000Y-124750000D01*
X133000000Y-107050000D02*
X133000000Y-121450000D01*
X149750000Y-124750000D02*
X149750000Y-114250000D01*
X149750000Y-114250000D02*
X148750000Y-114250000D01*
X131250000Y-131750000D02*
X131250000Y-123000000D01*
X139500000Y-107050000D02*
X133000000Y-107050000D01*
X146900000Y-114250000D02*
X145700000Y-114250000D01*
X133000000Y-121450000D02*
X139500000Y-121450000D01*
X131250000Y-117000000D02*
X131250000Y-108250000D01*
X144750000Y-135750000D02*
X135250000Y-135750000D01*
X152950000Y-110250000D02*
G75*
G03*
X150950000Y-108250000I-2000000J0D01*
G01*
X150950000Y-131750000D02*
G75*
G03*
X152950000Y-129750000I1J1999999D01*
G01*
X129050000Y-117000000D02*
G75*
G03*
X127050000Y-119000000I0J-2000000D01*
G01*
X135250000Y-104250000D02*
G75*
G03*
X131250000Y-108250000I0J-4000000D01*
G01*
X144750000Y-135750000D02*
G75*
G03*
X148750000Y-131750000I0J4000000D01*
G01*
X131250000Y-131750000D02*
G75*
G03*
X135250000Y-135750000I4000000J0D01*
G01*
X148750000Y-108250000D02*
G75*
G03*
X144750000Y-104250000I-4000000J0D01*
G01*
X127050000Y-121000000D02*
G75*
G03*
X129050000Y-123000000I1999999J-1D01*
G01*
X131900000Y-120000000D02*
G75*
G03*
X131900000Y-120000000I-1850000J0D01*
G01*
X151800000Y-111250000D02*
G75*
G03*
X151800000Y-111250000I-1850000J0D01*
G01*
X151800000Y-128750000D02*
G75*
G03*
X151800000Y-128750000I-1850000J0D01*
G01*
D13*
%TO.C,R8*%
X120120000Y-121246359D02*
X120120000Y-121553641D01*
X120880000Y-121246359D02*
X120880000Y-121553641D01*
%TO.C,Q2*%
X121700000Y-116740000D02*
X122350000Y-116740000D01*
X121700000Y-119860000D02*
X122350000Y-119860000D01*
X121700000Y-119860000D02*
X121050000Y-119860000D01*
X121700000Y-116740000D02*
X120025000Y-116740000D01*
%TO.C,J4*%
X139250000Y-121250000D02*
X133250000Y-121250000D01*
X139250000Y-107250000D02*
X139250000Y-121250000D01*
X133250000Y-107250000D02*
X139250000Y-107250000D01*
%TO.C,J3*%
X146750000Y-133250000D02*
X140750000Y-133250000D01*
X140750000Y-133250000D02*
X140750000Y-129250000D01*
X140750000Y-129250000D02*
X146750000Y-129250000D01*
%TO.C,R16*%
X130130000Y-105553641D02*
X130130000Y-105246359D01*
X129370000Y-105553641D02*
X129370000Y-105246359D01*
%TO.C,R17*%
X120370000Y-105246359D02*
X120370000Y-105553641D01*
X121130000Y-105246359D02*
X121130000Y-105553641D01*
%TO.C,R15*%
X127870000Y-105553641D02*
X127870000Y-105246359D01*
X128630000Y-105553641D02*
X128630000Y-105246359D01*
%TO.C,R7*%
X119680000Y-105246359D02*
X119680000Y-105553641D01*
X118920000Y-105246359D02*
X118920000Y-105553641D01*
%TD*%
M02*
