%TF.GenerationSoftware,KiCad,Pcbnew,(6.0.4)*%
%TF.CreationDate,2022-08-11T18:10:44+02:00*%
%TF.ProjectId,mta1-usb-ch552-programmer,6d746131-2d75-4736-922d-63683535322d,rev?*%
%TF.SameCoordinates,Original*%
%TF.FileFunction,Copper,L2,Bot*%
%TF.FilePolarity,Positive*%
%FSLAX46Y46*%
G04 Gerber Fmt 4.6, Leading zero omitted, Abs format (unit mm)*
G04 Created by KiCad (PCBNEW (6.0.4)) date 2022-08-11 18:10:44*
%MOMM*%
%LPD*%
G01*
G04 APERTURE LIST*
G04 Aperture macros list*
%AMRoundRect*
0 Rectangle with rounded corners*
0 $1 Rounding radius*
0 $2 $3 $4 $5 $6 $7 $8 $9 X,Y pos of 4 corners*
0 Add a 4 corners polygon primitive as box body*
4,1,4,$2,$3,$4,$5,$6,$7,$8,$9,$2,$3,0*
0 Add four circle primitives for the rounded corners*
1,1,$1+$1,$2,$3*
1,1,$1+$1,$4,$5*
1,1,$1+$1,$6,$7*
1,1,$1+$1,$8,$9*
0 Add four rect primitives between the rounded corners*
20,1,$1+$1,$2,$3,$4,$5,0*
20,1,$1+$1,$4,$5,$6,$7,0*
20,1,$1+$1,$6,$7,$8,$9,0*
20,1,$1+$1,$8,$9,$2,$3,0*%
G04 Aperture macros list end*
%TA.AperFunction,ComponentPad*%
%ADD10R,1.700000X1.700000*%
%TD*%
%TA.AperFunction,ComponentPad*%
%ADD11O,1.700000X1.700000*%
%TD*%
%TA.AperFunction,ComponentPad*%
%ADD12RoundRect,0.850000X0.000000X-0.400000X0.000000X-0.400000X0.000000X0.400000X0.000000X0.400000X0*%
%TD*%
%TA.AperFunction,ViaPad*%
%ADD13C,0.600000*%
%TD*%
G04 APERTURE END LIST*
D10*
%TO.P,J2,1,Pin_1*%
%TO.N,+5V*%
X154500000Y-51000000D03*
D11*
%TO.P,J2,2,Pin_2*%
%TO.N,/PICO_VSYS*%
X154500000Y-53540000D03*
%TO.P,J2,3,Pin_3*%
%TO.N,GND*%
X154500000Y-56080000D03*
%TO.P,J2,4,Pin_4*%
%TO.N,/PICO_3V3_EN*%
X154500000Y-58620000D03*
%TO.P,J2,5,Pin_5*%
%TO.N,/PICO_3V3*%
X154500000Y-61160000D03*
%TO.P,J2,6,Pin_6*%
%TO.N,/PICO_ADC_VREF*%
X154500000Y-63700000D03*
%TO.P,J2,7,Pin_7*%
%TO.N,+3V3*%
X154500000Y-66240000D03*
%TO.P,J2,8,Pin_8*%
%TO.N,GND*%
X154500000Y-68780000D03*
%TO.P,J2,9,Pin_9*%
%TO.N,+2V5*%
X154500000Y-71320000D03*
%TO.P,J2,10,Pin_10*%
%TO.N,+1V2*%
X154500000Y-73860000D03*
%TO.P,J2,11,Pin_11*%
%TO.N,/PICO_RUN*%
X154500000Y-76400000D03*
%TO.P,J2,12,Pin_12*%
%TO.N,/PICO22*%
X154500000Y-78940000D03*
%TO.P,J2,13,Pin_13*%
%TO.N,GND*%
X154500000Y-81480000D03*
%TO.P,J2,14,Pin_14*%
%TO.N,/GPIO4_U*%
X154500000Y-84020000D03*
%TO.P,J2,15,Pin_15*%
%TO.N,/GPIO3_U*%
X154500000Y-86560000D03*
%TO.P,J2,16,Pin_16*%
%TO.N,/GPIO2_U*%
X154500000Y-89100000D03*
%TO.P,J2,17,Pin_17*%
%TO.N,/GPIO1_U*%
X154500000Y-91640000D03*
%TO.P,J2,18,Pin_18*%
%TO.N,GND*%
X154500000Y-94180000D03*
%TO.P,J2,19,Pin_19*%
%TO.N,/CTS_U*%
X154500000Y-96720000D03*
%TO.P,J2,20,Pin_20*%
%TO.N,/RTS_U*%
X154500000Y-99260000D03*
%TD*%
D10*
%TO.P,J1,1,Pin_1*%
%TO.N,/PICO_0*%
X126500000Y-51000000D03*
D11*
%TO.P,J1,2,Pin_2*%
%TO.N,/PICO_1*%
X126500000Y-53540000D03*
%TO.P,J1,3,Pin_3*%
%TO.N,GND*%
X126500000Y-56080000D03*
%TO.P,J1,4,Pin_4*%
%TO.N,/PICO_2*%
X126500000Y-58620000D03*
%TO.P,J1,5,Pin_5*%
%TO.N,/PICO_3*%
X126500000Y-61160000D03*
%TO.P,J1,6,Pin_6*%
%TO.N,/PICO_4*%
X126500000Y-63700000D03*
%TO.P,J1,7,Pin_7*%
%TO.N,/PICO_5*%
X126500000Y-66240000D03*
%TO.P,J1,8,Pin_8*%
%TO.N,GND*%
X126500000Y-68780000D03*
%TO.P,J1,9,Pin_9*%
%TO.N,/PICO_6*%
X126500000Y-71320000D03*
%TO.P,J1,10,Pin_10*%
%TO.N,/5V_EN*%
X126500000Y-73860000D03*
%TO.P,J1,11,Pin_11*%
%TO.N,/TX_U*%
X126500000Y-76400000D03*
%TO.P,J1,12,Pin_12*%
%TO.N,/RX_U*%
X126500000Y-78940000D03*
%TO.P,J1,13,Pin_13*%
%TO.N,GND*%
X126500000Y-81480000D03*
%TO.P,J1,14,Pin_14*%
%TO.N,/SCK_U*%
X126500000Y-84020000D03*
%TO.P,J1,15,Pin_15*%
%TO.N,/MOSI_U*%
X126500000Y-86560000D03*
%TO.P,J1,16,Pin_16*%
%TO.N,/SS_U*%
X126500000Y-89100000D03*
%TO.P,J1,17,Pin_17*%
%TO.N,/MISO_U*%
X126500000Y-91640000D03*
%TO.P,J1,18,Pin_18*%
%TO.N,GND*%
X126500000Y-94180000D03*
%TO.P,J1,19,Pin_19*%
%TO.N,/CRESET_U*%
X126500000Y-96720000D03*
%TO.P,J1,20,Pin_20*%
%TO.N,/CDONE_U*%
X126500000Y-99260000D03*
%TD*%
D12*
%TO.P,U1,1,GND*%
%TO.N,GND*%
X128500000Y-131500000D03*
%TO.P,U1,2,5V*%
%TO.N,/5V_DUT*%
X130500000Y-131500000D03*
%TO.P,U1,3,3.3V*%
%TO.N,+3V3*%
X132500000Y-131500000D03*
%TO.P,U1,4,2.5V*%
%TO.N,+2V5*%
X134500000Y-131500000D03*
%TO.P,U1,5,1.2V*%
%TO.N,+1V2*%
X136500000Y-131500000D03*
%TO.P,U1,6,TX*%
%TO.N,/TX*%
X138500000Y-131500000D03*
%TO.P,U1,7,RX*%
%TO.N,/RX*%
X140500000Y-131500000D03*
%TO.P,U1,8,RTS*%
%TO.N,/RTS*%
X142500000Y-131500000D03*
%TO.P,U1,9,CTS*%
%TO.N,/CTS*%
X144500000Y-131500000D03*
%TO.P,U1,10,GPIO1*%
%TO.N,/GPIO1*%
X146500000Y-131500000D03*
%TO.P,U1,11,GPIO2*%
%TO.N,/GPIO2*%
X148500000Y-131500000D03*
%TO.P,U1,12,GPIO3*%
%TO.N,/GPIO3*%
X150500000Y-131500000D03*
%TO.P,U1,13,GPIO4*%
%TO.N,/GPIO4*%
X152500000Y-131500000D03*
%TO.P,U1,14,GND*%
%TO.N,GND*%
X152500000Y-120500000D03*
%TO.P,U1,15,CDONE*%
%TO.N,/CDONE*%
X150500000Y-120500000D03*
%TO.P,U1,16,CRESET*%
%TO.N,/CRESET*%
X148500000Y-120500000D03*
%TO.P,U1,17,MISO*%
%TO.N,/MISO*%
X146500000Y-120500000D03*
%TO.P,U1,18,SS*%
%TO.N,/SS*%
X144500000Y-120500000D03*
%TO.P,U1,19,MOSI*%
%TO.N,/MOSI*%
X142500000Y-120500000D03*
%TO.P,U1,20,SCK*%
%TO.N,/SCK*%
X140500000Y-120500000D03*
%TO.P,U1,21,NC*%
%TO.N,unconnected-(U1-Pad21)*%
X138500000Y-120500000D03*
%TO.P,U1,22,NC*%
%TO.N,unconnected-(U1-Pad22)*%
X136500000Y-120500000D03*
%TO.P,U1,23,NC*%
%TO.N,unconnected-(U1-Pad23)*%
X134500000Y-120500000D03*
%TO.P,U1,24,NC*%
%TO.N,unconnected-(U1-Pad24)*%
X132500000Y-120500000D03*
%TO.P,U1,25,NC*%
%TO.N,unconnected-(U1-Pad25)*%
X130500000Y-120500000D03*
%TO.P,U1,26,NC*%
%TO.N,unconnected-(U1-Pad26)*%
X128500000Y-120500000D03*
%TD*%
D13*
%TO.N,GND*%
X127700000Y-110500000D03*
X120100000Y-111500000D03*
X140500000Y-102200000D03*
%TD*%
%TA.AperFunction,Conductor*%
%TO.N,GND*%
G36*
X125347895Y-49528502D02*
G01*
X125394388Y-49582158D01*
X125404492Y-49652432D01*
X125374998Y-49717012D01*
X125355339Y-49735326D01*
X125286739Y-49786739D01*
X125199385Y-49903295D01*
X125148255Y-50039684D01*
X125141500Y-50101866D01*
X125141500Y-51898134D01*
X125148255Y-51960316D01*
X125199385Y-52096705D01*
X125286739Y-52213261D01*
X125403295Y-52300615D01*
X125411704Y-52303767D01*
X125411705Y-52303768D01*
X125520451Y-52344535D01*
X125577216Y-52387176D01*
X125601916Y-52453738D01*
X125586709Y-52523087D01*
X125567316Y-52549568D01*
X125440629Y-52682138D01*
X125314743Y-52866680D01*
X125267715Y-52967993D01*
X125225429Y-53059092D01*
X125220688Y-53069305D01*
X125160989Y-53284570D01*
X125137251Y-53506695D01*
X125137548Y-53511848D01*
X125137548Y-53511851D01*
X125143011Y-53606590D01*
X125150110Y-53729715D01*
X125151247Y-53734761D01*
X125151248Y-53734767D01*
X125167148Y-53805319D01*
X125199222Y-53947639D01*
X125283266Y-54154616D01*
X125399987Y-54345088D01*
X125546250Y-54513938D01*
X125718126Y-54656632D01*
X125734435Y-54666162D01*
X125791955Y-54699774D01*
X125840679Y-54751412D01*
X125853750Y-54821195D01*
X125827019Y-54886967D01*
X125786562Y-54920327D01*
X125778457Y-54924546D01*
X125769738Y-54930036D01*
X125599433Y-55057905D01*
X125591726Y-55064748D01*
X125444590Y-55218717D01*
X125438104Y-55226727D01*
X125318098Y-55402649D01*
X125313000Y-55411623D01*
X125223338Y-55604783D01*
X125219775Y-55614470D01*
X125164389Y-55814183D01*
X125165912Y-55822607D01*
X125178292Y-55826000D01*
X127818344Y-55826000D01*
X127831875Y-55822027D01*
X127833180Y-55812947D01*
X127791214Y-55645875D01*
X127787894Y-55636124D01*
X127702972Y-55440814D01*
X127698105Y-55431739D01*
X127582426Y-55252926D01*
X127576136Y-55244757D01*
X127432806Y-55087240D01*
X127425273Y-55080215D01*
X127258139Y-54948222D01*
X127249556Y-54942520D01*
X127212602Y-54922120D01*
X127162631Y-54871687D01*
X127147859Y-54802245D01*
X127172975Y-54735839D01*
X127200327Y-54709232D01*
X127260709Y-54666162D01*
X127379860Y-54581173D01*
X127538096Y-54423489D01*
X127597594Y-54340689D01*
X127665435Y-54246277D01*
X127668453Y-54242077D01*
X127767430Y-54041811D01*
X127771018Y-54030000D01*
X136811693Y-54030000D01*
X136830885Y-54249371D01*
X136887880Y-54462076D01*
X136931415Y-54555438D01*
X136978618Y-54656666D01*
X136978621Y-54656671D01*
X136980944Y-54661653D01*
X136984100Y-54666160D01*
X136984101Y-54666162D01*
X137092657Y-54821195D01*
X137107251Y-54842038D01*
X137262962Y-54997749D01*
X137443346Y-55124056D01*
X137642924Y-55217120D01*
X137855629Y-55274115D01*
X138075000Y-55293307D01*
X138294371Y-55274115D01*
X138507076Y-55217120D01*
X138706654Y-55124056D01*
X138887038Y-54997749D01*
X139042749Y-54842038D01*
X139057344Y-54821195D01*
X139165899Y-54666162D01*
X139165900Y-54666160D01*
X139169056Y-54661653D01*
X139171379Y-54656671D01*
X139171382Y-54656666D01*
X139218585Y-54555438D01*
X139262120Y-54462076D01*
X139319115Y-54249371D01*
X139338307Y-54030000D01*
X141661693Y-54030000D01*
X141680885Y-54249371D01*
X141737880Y-54462076D01*
X141781415Y-54555438D01*
X141828618Y-54656666D01*
X141828621Y-54656671D01*
X141830944Y-54661653D01*
X141834100Y-54666160D01*
X141834101Y-54666162D01*
X141942657Y-54821195D01*
X141957251Y-54842038D01*
X142112962Y-54997749D01*
X142293346Y-55124056D01*
X142492924Y-55217120D01*
X142705629Y-55274115D01*
X142925000Y-55293307D01*
X143144371Y-55274115D01*
X143357076Y-55217120D01*
X143556654Y-55124056D01*
X143737038Y-54997749D01*
X143892749Y-54842038D01*
X143907344Y-54821195D01*
X144015899Y-54666162D01*
X144015900Y-54666160D01*
X144019056Y-54661653D01*
X144021379Y-54656671D01*
X144021382Y-54656666D01*
X144068585Y-54555438D01*
X144112120Y-54462076D01*
X144169115Y-54249371D01*
X144188307Y-54030000D01*
X144169115Y-53810629D01*
X144112120Y-53597924D01*
X144067186Y-53501562D01*
X144021382Y-53403334D01*
X144021379Y-53403329D01*
X144019056Y-53398347D01*
X143958835Y-53312342D01*
X143895908Y-53222473D01*
X143895906Y-53222470D01*
X143892749Y-53217962D01*
X143737038Y-53062251D01*
X143556654Y-52935944D01*
X143357076Y-52842880D01*
X143144371Y-52785885D01*
X142925000Y-52766693D01*
X142705629Y-52785885D01*
X142492924Y-52842880D01*
X142441885Y-52866680D01*
X142298334Y-52933618D01*
X142298329Y-52933621D01*
X142293347Y-52935944D01*
X142288840Y-52939100D01*
X142288838Y-52939101D01*
X142117473Y-53059092D01*
X142117470Y-53059094D01*
X142112962Y-53062251D01*
X141957251Y-53217962D01*
X141954094Y-53222470D01*
X141954092Y-53222473D01*
X141891165Y-53312342D01*
X141830944Y-53398347D01*
X141828621Y-53403329D01*
X141828618Y-53403334D01*
X141782814Y-53501562D01*
X141737880Y-53597924D01*
X141680885Y-53810629D01*
X141661693Y-54030000D01*
X139338307Y-54030000D01*
X139319115Y-53810629D01*
X139262120Y-53597924D01*
X139217186Y-53501562D01*
X139171382Y-53403334D01*
X139171379Y-53403329D01*
X139169056Y-53398347D01*
X139108835Y-53312342D01*
X139045908Y-53222473D01*
X139045906Y-53222470D01*
X139042749Y-53217962D01*
X138887038Y-53062251D01*
X138706654Y-52935944D01*
X138507076Y-52842880D01*
X138294371Y-52785885D01*
X138075000Y-52766693D01*
X137855629Y-52785885D01*
X137642924Y-52842880D01*
X137591885Y-52866680D01*
X137448334Y-52933618D01*
X137448329Y-52933621D01*
X137443347Y-52935944D01*
X137438840Y-52939100D01*
X137438838Y-52939101D01*
X137267473Y-53059092D01*
X137267470Y-53059094D01*
X137262962Y-53062251D01*
X137107251Y-53217962D01*
X137104094Y-53222470D01*
X137104092Y-53222473D01*
X137041165Y-53312342D01*
X136980944Y-53398347D01*
X136978621Y-53403329D01*
X136978618Y-53403334D01*
X136932814Y-53501562D01*
X136887880Y-53597924D01*
X136830885Y-53810629D01*
X136811693Y-54030000D01*
X127771018Y-54030000D01*
X127832370Y-53828069D01*
X127861529Y-53606590D01*
X127863156Y-53540000D01*
X127844852Y-53317361D01*
X127790431Y-53100702D01*
X127701354Y-52895840D01*
X127661906Y-52834862D01*
X127582822Y-52712617D01*
X127582820Y-52712614D01*
X127580014Y-52708277D01*
X127576532Y-52704450D01*
X127432798Y-52546488D01*
X127401746Y-52482642D01*
X127410141Y-52412143D01*
X127455317Y-52357375D01*
X127481761Y-52343706D01*
X127588297Y-52303767D01*
X127596705Y-52300615D01*
X127713261Y-52213261D01*
X127800615Y-52096705D01*
X127851745Y-51960316D01*
X127858500Y-51898134D01*
X127858500Y-50101866D01*
X127851745Y-50039684D01*
X127800615Y-49903295D01*
X127713261Y-49786739D01*
X127644661Y-49735326D01*
X127602146Y-49678467D01*
X127597120Y-49607648D01*
X127631180Y-49545355D01*
X127693511Y-49511365D01*
X127720226Y-49508500D01*
X137074704Y-49508500D01*
X137142825Y-49528502D01*
X137189318Y-49582158D01*
X137199422Y-49652432D01*
X137169928Y-49717012D01*
X137132884Y-49746263D01*
X137055117Y-49786746D01*
X137021872Y-49804052D01*
X137017739Y-49807155D01*
X137017736Y-49807157D01*
X136878494Y-49911703D01*
X136836655Y-49943117D01*
X136800640Y-49980805D01*
X136681686Y-50105283D01*
X136676639Y-50110564D01*
X136673725Y-50114836D01*
X136673724Y-50114837D01*
X136658152Y-50137665D01*
X136546119Y-50301899D01*
X136448602Y-50511981D01*
X136386707Y-50735169D01*
X136362095Y-50965469D01*
X136362392Y-50970622D01*
X136362392Y-50970625D01*
X136368067Y-51069041D01*
X136375427Y-51196697D01*
X136376564Y-51201743D01*
X136376565Y-51201749D01*
X136408741Y-51344523D01*
X136426346Y-51422642D01*
X136428288Y-51427424D01*
X136428289Y-51427428D01*
X136511540Y-51632450D01*
X136513484Y-51637237D01*
X136634501Y-51834719D01*
X136786147Y-52009784D01*
X136964349Y-52157730D01*
X137164322Y-52274584D01*
X137169147Y-52276426D01*
X137169148Y-52276427D01*
X137232490Y-52300615D01*
X137380694Y-52357209D01*
X137385760Y-52358240D01*
X137385761Y-52358240D01*
X137387039Y-52358500D01*
X137607656Y-52403385D01*
X137738324Y-52408176D01*
X137833949Y-52411683D01*
X137833953Y-52411683D01*
X137839113Y-52411872D01*
X137844233Y-52411216D01*
X137844235Y-52411216D01*
X137917270Y-52401860D01*
X138068847Y-52382442D01*
X138073795Y-52380957D01*
X138073802Y-52380956D01*
X138285747Y-52317369D01*
X138290690Y-52315886D01*
X138321862Y-52300615D01*
X138494049Y-52216262D01*
X138494052Y-52216260D01*
X138498684Y-52213991D01*
X138687243Y-52079494D01*
X138851303Y-51916005D01*
X138986458Y-51727917D01*
X139033641Y-51632450D01*
X139086784Y-51524922D01*
X139086785Y-51524920D01*
X139089078Y-51520280D01*
X139156408Y-51298671D01*
X139186640Y-51069041D01*
X139188327Y-51000000D01*
X139182032Y-50923434D01*
X139169773Y-50774318D01*
X139169772Y-50774312D01*
X139169349Y-50769167D01*
X139112925Y-50544533D01*
X139110866Y-50539797D01*
X139022630Y-50336868D01*
X139022628Y-50336865D01*
X139020570Y-50332131D01*
X138894764Y-50137665D01*
X138862190Y-50101866D01*
X138812757Y-50047540D01*
X138738887Y-49966358D01*
X138734836Y-49963159D01*
X138734832Y-49963155D01*
X138561177Y-49826011D01*
X138561172Y-49826008D01*
X138557123Y-49822810D01*
X138552604Y-49820316D01*
X138552599Y-49820312D01*
X138415825Y-49744809D01*
X138365854Y-49694376D01*
X138351082Y-49624933D01*
X138376198Y-49558528D01*
X138433229Y-49516243D01*
X138476718Y-49508500D01*
X142524704Y-49508500D01*
X142592825Y-49528502D01*
X142639318Y-49582158D01*
X142649422Y-49652432D01*
X142619928Y-49717012D01*
X142582884Y-49746263D01*
X142505117Y-49786746D01*
X142471872Y-49804052D01*
X142467739Y-49807155D01*
X142467736Y-49807157D01*
X142328494Y-49911703D01*
X142286655Y-49943117D01*
X142250640Y-49980805D01*
X142131686Y-50105283D01*
X142126639Y-50110564D01*
X142123725Y-50114836D01*
X142123724Y-50114837D01*
X142108152Y-50137665D01*
X141996119Y-50301899D01*
X141898602Y-50511981D01*
X141836707Y-50735169D01*
X141812095Y-50965469D01*
X141812392Y-50970622D01*
X141812392Y-50970625D01*
X141818067Y-51069041D01*
X141825427Y-51196697D01*
X141826564Y-51201743D01*
X141826565Y-51201749D01*
X141858741Y-51344523D01*
X141876346Y-51422642D01*
X141878288Y-51427424D01*
X141878289Y-51427428D01*
X141961540Y-51632450D01*
X141963484Y-51637237D01*
X142084501Y-51834719D01*
X142236147Y-52009784D01*
X142414349Y-52157730D01*
X142614322Y-52274584D01*
X142619147Y-52276426D01*
X142619148Y-52276427D01*
X142682490Y-52300615D01*
X142830694Y-52357209D01*
X142835760Y-52358240D01*
X142835761Y-52358240D01*
X142837039Y-52358500D01*
X143057656Y-52403385D01*
X143188324Y-52408176D01*
X143283949Y-52411683D01*
X143283953Y-52411683D01*
X143289113Y-52411872D01*
X143294233Y-52411216D01*
X143294235Y-52411216D01*
X143367270Y-52401860D01*
X143518847Y-52382442D01*
X143523795Y-52380957D01*
X143523802Y-52380956D01*
X143735747Y-52317369D01*
X143740690Y-52315886D01*
X143771862Y-52300615D01*
X143944049Y-52216262D01*
X143944052Y-52216260D01*
X143948684Y-52213991D01*
X144137243Y-52079494D01*
X144301303Y-51916005D01*
X144436458Y-51727917D01*
X144483641Y-51632450D01*
X144536784Y-51524922D01*
X144536785Y-51524920D01*
X144539078Y-51520280D01*
X144606408Y-51298671D01*
X144636640Y-51069041D01*
X144638327Y-51000000D01*
X144632032Y-50923434D01*
X144619773Y-50774318D01*
X144619772Y-50774312D01*
X144619349Y-50769167D01*
X144562925Y-50544533D01*
X144560866Y-50539797D01*
X144472630Y-50336868D01*
X144472628Y-50336865D01*
X144470570Y-50332131D01*
X144344764Y-50137665D01*
X144312190Y-50101866D01*
X144262757Y-50047540D01*
X144188887Y-49966358D01*
X144184836Y-49963159D01*
X144184832Y-49963155D01*
X144011177Y-49826011D01*
X144011172Y-49826008D01*
X144007123Y-49822810D01*
X144002604Y-49820316D01*
X144002599Y-49820312D01*
X143865825Y-49744809D01*
X143815854Y-49694376D01*
X143801082Y-49624933D01*
X143826198Y-49558528D01*
X143883229Y-49516243D01*
X143926718Y-49508500D01*
X153279774Y-49508500D01*
X153347895Y-49528502D01*
X153394388Y-49582158D01*
X153404492Y-49652432D01*
X153374998Y-49717012D01*
X153355339Y-49735326D01*
X153286739Y-49786739D01*
X153199385Y-49903295D01*
X153148255Y-50039684D01*
X153141500Y-50101866D01*
X153141500Y-51898134D01*
X153148255Y-51960316D01*
X153199385Y-52096705D01*
X153286739Y-52213261D01*
X153403295Y-52300615D01*
X153411704Y-52303767D01*
X153411705Y-52303768D01*
X153520451Y-52344535D01*
X153577216Y-52387176D01*
X153601916Y-52453738D01*
X153586709Y-52523087D01*
X153567316Y-52549568D01*
X153440629Y-52682138D01*
X153314743Y-52866680D01*
X153267715Y-52967993D01*
X153225429Y-53059092D01*
X153220688Y-53069305D01*
X153160989Y-53284570D01*
X153137251Y-53506695D01*
X153137548Y-53511848D01*
X153137548Y-53511851D01*
X153143011Y-53606590D01*
X153150110Y-53729715D01*
X153151247Y-53734761D01*
X153151248Y-53734767D01*
X153167148Y-53805319D01*
X153199222Y-53947639D01*
X153283266Y-54154616D01*
X153399987Y-54345088D01*
X153546250Y-54513938D01*
X153718126Y-54656632D01*
X153734435Y-54666162D01*
X153791955Y-54699774D01*
X153840679Y-54751412D01*
X153853750Y-54821195D01*
X153827019Y-54886967D01*
X153786562Y-54920327D01*
X153778457Y-54924546D01*
X153769738Y-54930036D01*
X153599433Y-55057905D01*
X153591726Y-55064748D01*
X153444590Y-55218717D01*
X153438104Y-55226727D01*
X153318098Y-55402649D01*
X153313000Y-55411623D01*
X153223338Y-55604783D01*
X153219775Y-55614470D01*
X153164389Y-55814183D01*
X153165912Y-55822607D01*
X153178292Y-55826000D01*
X155818344Y-55826000D01*
X155831875Y-55822027D01*
X155833180Y-55812947D01*
X155791214Y-55645875D01*
X155787894Y-55636124D01*
X155702972Y-55440814D01*
X155698105Y-55431739D01*
X155582426Y-55252926D01*
X155576136Y-55244757D01*
X155432806Y-55087240D01*
X155425273Y-55080215D01*
X155258139Y-54948222D01*
X155249556Y-54942520D01*
X155212602Y-54922120D01*
X155162631Y-54871687D01*
X155147859Y-54802245D01*
X155172975Y-54735839D01*
X155200327Y-54709232D01*
X155260709Y-54666162D01*
X155379860Y-54581173D01*
X155538096Y-54423489D01*
X155597594Y-54340689D01*
X155665435Y-54246277D01*
X155668453Y-54242077D01*
X155767430Y-54041811D01*
X155832370Y-53828069D01*
X155861529Y-53606590D01*
X155863156Y-53540000D01*
X155844852Y-53317361D01*
X155790431Y-53100702D01*
X155701354Y-52895840D01*
X155661906Y-52834862D01*
X155582822Y-52712617D01*
X155582820Y-52712614D01*
X155580014Y-52708277D01*
X155576532Y-52704450D01*
X155432798Y-52546488D01*
X155401746Y-52482642D01*
X155410141Y-52412143D01*
X155455317Y-52357375D01*
X155481761Y-52343706D01*
X155588297Y-52303767D01*
X155596705Y-52300615D01*
X155713261Y-52213261D01*
X155800615Y-52096705D01*
X155851745Y-51960316D01*
X155858500Y-51898134D01*
X155858500Y-50101866D01*
X155851745Y-50039684D01*
X155800615Y-49903295D01*
X155713261Y-49786739D01*
X155644661Y-49735326D01*
X155602146Y-49678467D01*
X155597120Y-49607648D01*
X155631180Y-49545355D01*
X155693511Y-49511365D01*
X155720226Y-49508500D01*
X161950633Y-49508500D01*
X161970018Y-49510000D01*
X161984852Y-49512310D01*
X161984855Y-49512310D01*
X161993724Y-49513691D01*
X162002626Y-49512527D01*
X162002750Y-49512511D01*
X162033192Y-49512240D01*
X162040621Y-49513077D01*
X162095264Y-49519234D01*
X162122771Y-49525513D01*
X162199853Y-49552485D01*
X162225274Y-49564727D01*
X162294426Y-49608178D01*
X162316485Y-49625770D01*
X162374230Y-49683515D01*
X162391822Y-49705574D01*
X162435273Y-49774726D01*
X162447515Y-49800147D01*
X162474487Y-49877228D01*
X162480766Y-49904736D01*
X162487018Y-49960226D01*
X162486923Y-49975868D01*
X162487800Y-49975879D01*
X162487690Y-49984851D01*
X162486309Y-49993724D01*
X162487473Y-50002626D01*
X162487473Y-50002628D01*
X162490436Y-50025283D01*
X162491500Y-50041621D01*
X162491500Y-137950633D01*
X162490000Y-137970018D01*
X162486309Y-137993724D01*
X162487473Y-138002626D01*
X162487489Y-138002750D01*
X162487760Y-138033192D01*
X162485430Y-138053870D01*
X162480766Y-138095264D01*
X162474487Y-138122771D01*
X162447515Y-138199853D01*
X162435273Y-138225274D01*
X162391822Y-138294426D01*
X162374230Y-138316485D01*
X162316485Y-138374230D01*
X162294426Y-138391822D01*
X162225274Y-138435273D01*
X162199853Y-138447515D01*
X162122772Y-138474487D01*
X162095264Y-138480766D01*
X162039774Y-138487018D01*
X162024132Y-138486923D01*
X162024121Y-138487800D01*
X162015149Y-138487690D01*
X162006276Y-138486309D01*
X161997374Y-138487473D01*
X161997372Y-138487473D01*
X161986385Y-138488910D01*
X161974714Y-138490436D01*
X161958379Y-138491500D01*
X119049367Y-138491500D01*
X119029982Y-138490000D01*
X119015148Y-138487690D01*
X119015145Y-138487690D01*
X119006276Y-138486309D01*
X118997374Y-138487473D01*
X118997250Y-138487489D01*
X118966808Y-138487760D01*
X118946130Y-138485430D01*
X118904736Y-138480766D01*
X118877229Y-138474487D01*
X118800147Y-138447515D01*
X118774726Y-138435273D01*
X118705574Y-138391822D01*
X118683515Y-138374230D01*
X118625770Y-138316485D01*
X118608178Y-138294426D01*
X118564727Y-138225274D01*
X118552485Y-138199853D01*
X118525513Y-138122772D01*
X118519234Y-138095266D01*
X118513170Y-138041451D01*
X118512888Y-138016640D01*
X118513576Y-138012552D01*
X118513729Y-138000000D01*
X118509773Y-137972376D01*
X118508500Y-137954514D01*
X118508500Y-131988957D01*
X127142001Y-131988957D01*
X127142093Y-131992348D01*
X127144825Y-132042823D01*
X127145901Y-132051491D01*
X127188211Y-132268150D01*
X127191122Y-132278368D01*
X127268994Y-132483908D01*
X127273586Y-132493491D01*
X127384970Y-132682962D01*
X127391123Y-132691651D01*
X127532842Y-132859651D01*
X127540349Y-132867158D01*
X127708349Y-133008877D01*
X127717038Y-133015030D01*
X127906509Y-133126414D01*
X127916092Y-133131006D01*
X128121627Y-133208876D01*
X128131857Y-133211790D01*
X128228218Y-133230607D01*
X128241168Y-133229403D01*
X128245482Y-133215965D01*
X128754000Y-133215965D01*
X128757664Y-133228442D01*
X128773362Y-133230299D01*
X128868143Y-133211790D01*
X128878373Y-133208876D01*
X129083908Y-133131006D01*
X129093491Y-133126414D01*
X129282962Y-133015030D01*
X129291651Y-133008877D01*
X129418368Y-132901983D01*
X129483334Y-132873348D01*
X129553468Y-132884382D01*
X129580856Y-132901983D01*
X129712142Y-133012732D01*
X129910889Y-133129569D01*
X130126481Y-133211250D01*
X130131710Y-133212271D01*
X130131713Y-133212272D01*
X130337468Y-133252452D01*
X130352752Y-133255437D01*
X130360662Y-133255865D01*
X130407618Y-133258409D01*
X130407634Y-133258409D01*
X130409306Y-133258500D01*
X130590694Y-133258500D01*
X130592366Y-133258409D01*
X130592382Y-133258409D01*
X130639338Y-133255865D01*
X130647248Y-133255437D01*
X130662532Y-133252452D01*
X130868287Y-133212272D01*
X130868290Y-133212271D01*
X130873519Y-133211250D01*
X131089111Y-133129569D01*
X131287858Y-133012732D01*
X131418757Y-132902310D01*
X131483722Y-132873675D01*
X131553856Y-132884709D01*
X131581242Y-132902309D01*
X131712142Y-133012732D01*
X131910889Y-133129569D01*
X132126481Y-133211250D01*
X132131710Y-133212271D01*
X132131713Y-133212272D01*
X132337468Y-133252452D01*
X132352752Y-133255437D01*
X132360662Y-133255865D01*
X132407618Y-133258409D01*
X132407634Y-133258409D01*
X132409306Y-133258500D01*
X132590694Y-133258500D01*
X132592366Y-133258409D01*
X132592382Y-133258409D01*
X132639338Y-133255865D01*
X132647248Y-133255437D01*
X132662532Y-133252452D01*
X132868287Y-133212272D01*
X132868290Y-133212271D01*
X132873519Y-133211250D01*
X133089111Y-133129569D01*
X133287858Y-133012732D01*
X133418757Y-132902310D01*
X133483722Y-132873675D01*
X133553856Y-132884709D01*
X133581242Y-132902309D01*
X133712142Y-133012732D01*
X133910889Y-133129569D01*
X134126481Y-133211250D01*
X134131710Y-133212271D01*
X134131713Y-133212272D01*
X134337468Y-133252452D01*
X134352752Y-133255437D01*
X134360662Y-133255865D01*
X134407618Y-133258409D01*
X134407634Y-133258409D01*
X134409306Y-133258500D01*
X134590694Y-133258500D01*
X134592366Y-133258409D01*
X134592382Y-133258409D01*
X134639338Y-133255865D01*
X134647248Y-133255437D01*
X134662532Y-133252452D01*
X134868287Y-133212272D01*
X134868290Y-133212271D01*
X134873519Y-133211250D01*
X135089111Y-133129569D01*
X135287858Y-133012732D01*
X135418757Y-132902310D01*
X135483722Y-132873675D01*
X135553856Y-132884709D01*
X135581242Y-132902309D01*
X135712142Y-133012732D01*
X135910889Y-133129569D01*
X136126481Y-133211250D01*
X136131710Y-133212271D01*
X136131713Y-133212272D01*
X136337468Y-133252452D01*
X136352752Y-133255437D01*
X136360662Y-133255865D01*
X136407618Y-133258409D01*
X136407634Y-133258409D01*
X136409306Y-133258500D01*
X136590694Y-133258500D01*
X136592366Y-133258409D01*
X136592382Y-133258409D01*
X136639338Y-133255865D01*
X136647248Y-133255437D01*
X136662532Y-133252452D01*
X136868287Y-133212272D01*
X136868290Y-133212271D01*
X136873519Y-133211250D01*
X137089111Y-133129569D01*
X137287858Y-133012732D01*
X137418757Y-132902310D01*
X137483722Y-132873675D01*
X137553856Y-132884709D01*
X137581242Y-132902309D01*
X137712142Y-133012732D01*
X137910889Y-133129569D01*
X138126481Y-133211250D01*
X138131710Y-133212271D01*
X138131713Y-133212272D01*
X138337468Y-133252452D01*
X138352752Y-133255437D01*
X138360662Y-133255865D01*
X138407618Y-133258409D01*
X138407634Y-133258409D01*
X138409306Y-133258500D01*
X138590694Y-133258500D01*
X138592366Y-133258409D01*
X138592382Y-133258409D01*
X138639338Y-133255865D01*
X138647248Y-133255437D01*
X138662532Y-133252452D01*
X138868287Y-133212272D01*
X138868290Y-133212271D01*
X138873519Y-133211250D01*
X139089111Y-133129569D01*
X139287858Y-133012732D01*
X139418757Y-132902310D01*
X139483722Y-132873675D01*
X139553856Y-132884709D01*
X139581242Y-132902309D01*
X139712142Y-133012732D01*
X139910889Y-133129569D01*
X140126481Y-133211250D01*
X140131710Y-133212271D01*
X140131713Y-133212272D01*
X140337468Y-133252452D01*
X140352752Y-133255437D01*
X140360662Y-133255865D01*
X140407618Y-133258409D01*
X140407634Y-133258409D01*
X140409306Y-133258500D01*
X140590694Y-133258500D01*
X140592366Y-133258409D01*
X140592382Y-133258409D01*
X140639338Y-133255865D01*
X140647248Y-133255437D01*
X140662532Y-133252452D01*
X140868287Y-133212272D01*
X140868290Y-133212271D01*
X140873519Y-133211250D01*
X141089111Y-133129569D01*
X141287858Y-133012732D01*
X141418757Y-132902310D01*
X141483722Y-132873675D01*
X141553856Y-132884709D01*
X141581242Y-132902309D01*
X141712142Y-133012732D01*
X141910889Y-133129569D01*
X142126481Y-133211250D01*
X142131710Y-133212271D01*
X142131713Y-133212272D01*
X142337468Y-133252452D01*
X142352752Y-133255437D01*
X142360662Y-133255865D01*
X142407618Y-133258409D01*
X142407634Y-133258409D01*
X142409306Y-133258500D01*
X142590694Y-133258500D01*
X142592366Y-133258409D01*
X142592382Y-133258409D01*
X142639338Y-133255865D01*
X142647248Y-133255437D01*
X142662532Y-133252452D01*
X142868287Y-133212272D01*
X142868290Y-133212271D01*
X142873519Y-133211250D01*
X143089111Y-133129569D01*
X143287858Y-133012732D01*
X143418757Y-132902310D01*
X143483722Y-132873675D01*
X143553856Y-132884709D01*
X143581242Y-132902309D01*
X143712142Y-133012732D01*
X143910889Y-133129569D01*
X144126481Y-133211250D01*
X144131710Y-133212271D01*
X144131713Y-133212272D01*
X144337468Y-133252452D01*
X144352752Y-133255437D01*
X144360662Y-133255865D01*
X144407618Y-133258409D01*
X144407634Y-133258409D01*
X144409306Y-133258500D01*
X144590694Y-133258500D01*
X144592366Y-133258409D01*
X144592382Y-133258409D01*
X144639338Y-133255865D01*
X144647248Y-133255437D01*
X144662532Y-133252452D01*
X144868287Y-133212272D01*
X144868290Y-133212271D01*
X144873519Y-133211250D01*
X145089111Y-133129569D01*
X145287858Y-133012732D01*
X145418757Y-132902310D01*
X145483722Y-132873675D01*
X145553856Y-132884709D01*
X145581242Y-132902309D01*
X145712142Y-133012732D01*
X145910889Y-133129569D01*
X146126481Y-133211250D01*
X146131710Y-133212271D01*
X146131713Y-133212272D01*
X146337468Y-133252452D01*
X146352752Y-133255437D01*
X146360662Y-133255865D01*
X146407618Y-133258409D01*
X146407634Y-133258409D01*
X146409306Y-133258500D01*
X146590694Y-133258500D01*
X146592366Y-133258409D01*
X146592382Y-133258409D01*
X146639338Y-133255865D01*
X146647248Y-133255437D01*
X146662532Y-133252452D01*
X146868287Y-133212272D01*
X146868290Y-133212271D01*
X146873519Y-133211250D01*
X147089111Y-133129569D01*
X147287858Y-133012732D01*
X147418757Y-132902310D01*
X147483722Y-132873675D01*
X147553856Y-132884709D01*
X147581242Y-132902309D01*
X147712142Y-133012732D01*
X147910889Y-133129569D01*
X148126481Y-133211250D01*
X148131710Y-133212271D01*
X148131713Y-133212272D01*
X148337468Y-133252452D01*
X148352752Y-133255437D01*
X148360662Y-133255865D01*
X148407618Y-133258409D01*
X148407634Y-133258409D01*
X148409306Y-133258500D01*
X148590694Y-133258500D01*
X148592366Y-133258409D01*
X148592382Y-133258409D01*
X148639338Y-133255865D01*
X148647248Y-133255437D01*
X148662532Y-133252452D01*
X148868287Y-133212272D01*
X148868290Y-133212271D01*
X148873519Y-133211250D01*
X149089111Y-133129569D01*
X149287858Y-133012732D01*
X149418757Y-132902310D01*
X149483722Y-132873675D01*
X149553856Y-132884709D01*
X149581242Y-132902309D01*
X149712142Y-133012732D01*
X149910889Y-133129569D01*
X150126481Y-133211250D01*
X150131710Y-133212271D01*
X150131713Y-133212272D01*
X150337468Y-133252452D01*
X150352752Y-133255437D01*
X150360662Y-133255865D01*
X150407618Y-133258409D01*
X150407634Y-133258409D01*
X150409306Y-133258500D01*
X150590694Y-133258500D01*
X150592366Y-133258409D01*
X150592382Y-133258409D01*
X150639338Y-133255865D01*
X150647248Y-133255437D01*
X150662532Y-133252452D01*
X150868287Y-133212272D01*
X150868290Y-133212271D01*
X150873519Y-133211250D01*
X151089111Y-133129569D01*
X151287858Y-133012732D01*
X151418757Y-132902310D01*
X151483722Y-132873675D01*
X151553856Y-132884709D01*
X151581242Y-132902309D01*
X151712142Y-133012732D01*
X151910889Y-133129569D01*
X152126481Y-133211250D01*
X152131710Y-133212271D01*
X152131713Y-133212272D01*
X152337468Y-133252452D01*
X152352752Y-133255437D01*
X152360662Y-133255865D01*
X152407618Y-133258409D01*
X152407634Y-133258409D01*
X152409306Y-133258500D01*
X152590694Y-133258500D01*
X152592366Y-133258409D01*
X152592382Y-133258409D01*
X152639338Y-133255865D01*
X152647248Y-133255437D01*
X152662532Y-133252452D01*
X152868287Y-133212272D01*
X152868290Y-133212271D01*
X152873519Y-133211250D01*
X153089111Y-133129569D01*
X153287858Y-133012732D01*
X153464078Y-132864078D01*
X153612732Y-132687858D01*
X153729569Y-132489111D01*
X153811250Y-132273519D01*
X153812299Y-132268150D01*
X153854600Y-132051534D01*
X153855437Y-132047248D01*
X153858500Y-131990694D01*
X153858500Y-131009306D01*
X153855437Y-130952752D01*
X153852452Y-130937468D01*
X153812272Y-130731713D01*
X153812271Y-130731710D01*
X153811250Y-130726481D01*
X153729569Y-130510889D01*
X153612732Y-130312142D01*
X153464078Y-130135922D01*
X153287858Y-129987268D01*
X153089111Y-129870431D01*
X152873519Y-129788750D01*
X152868290Y-129787729D01*
X152868287Y-129787728D01*
X152651534Y-129745400D01*
X152647248Y-129744563D01*
X152639338Y-129744135D01*
X152592382Y-129741591D01*
X152592366Y-129741591D01*
X152590694Y-129741500D01*
X152409306Y-129741500D01*
X152407634Y-129741591D01*
X152407618Y-129741591D01*
X152360662Y-129744135D01*
X152352752Y-129744563D01*
X152348466Y-129745400D01*
X152131713Y-129787728D01*
X152131710Y-129787729D01*
X152126481Y-129788750D01*
X151910889Y-129870431D01*
X151712142Y-129987268D01*
X151581244Y-130097690D01*
X151516278Y-130126325D01*
X151446144Y-130115291D01*
X151418756Y-130097690D01*
X151287858Y-129987268D01*
X151089111Y-129870431D01*
X150873519Y-129788750D01*
X150868290Y-129787729D01*
X150868287Y-129787728D01*
X150651534Y-129745400D01*
X150647248Y-129744563D01*
X150639338Y-129744135D01*
X150592382Y-129741591D01*
X150592366Y-129741591D01*
X150590694Y-129741500D01*
X150409306Y-129741500D01*
X150407634Y-129741591D01*
X150407618Y-129741591D01*
X150360662Y-129744135D01*
X150352752Y-129744563D01*
X150348466Y-129745400D01*
X150131713Y-129787728D01*
X150131710Y-129787729D01*
X150126481Y-129788750D01*
X149910889Y-129870431D01*
X149712142Y-129987268D01*
X149581244Y-130097690D01*
X149516278Y-130126325D01*
X149446144Y-130115291D01*
X149418756Y-130097690D01*
X149287858Y-129987268D01*
X149089111Y-129870431D01*
X148873519Y-129788750D01*
X148868290Y-129787729D01*
X148868287Y-129787728D01*
X148651534Y-129745400D01*
X148647248Y-129744563D01*
X148639338Y-129744135D01*
X148592382Y-129741591D01*
X148592366Y-129741591D01*
X148590694Y-129741500D01*
X148409306Y-129741500D01*
X148407634Y-129741591D01*
X148407618Y-129741591D01*
X148360662Y-129744135D01*
X148352752Y-129744563D01*
X148348466Y-129745400D01*
X148131713Y-129787728D01*
X148131710Y-129787729D01*
X148126481Y-129788750D01*
X147910889Y-129870431D01*
X147712142Y-129987268D01*
X147581244Y-130097690D01*
X147516278Y-130126325D01*
X147446144Y-130115291D01*
X147418756Y-130097690D01*
X147287858Y-129987268D01*
X147089111Y-129870431D01*
X146873519Y-129788750D01*
X146868290Y-129787729D01*
X146868287Y-129787728D01*
X146651534Y-129745400D01*
X146647248Y-129744563D01*
X146639338Y-129744135D01*
X146592382Y-129741591D01*
X146592366Y-129741591D01*
X146590694Y-129741500D01*
X146409306Y-129741500D01*
X146407634Y-129741591D01*
X146407618Y-129741591D01*
X146360662Y-129744135D01*
X146352752Y-129744563D01*
X146348466Y-129745400D01*
X146131713Y-129787728D01*
X146131710Y-129787729D01*
X146126481Y-129788750D01*
X145910889Y-129870431D01*
X145712142Y-129987268D01*
X145581244Y-130097690D01*
X145516278Y-130126325D01*
X145446144Y-130115291D01*
X145418756Y-130097690D01*
X145287858Y-129987268D01*
X145089111Y-129870431D01*
X144873519Y-129788750D01*
X144868290Y-129787729D01*
X144868287Y-129787728D01*
X144651534Y-129745400D01*
X144647248Y-129744563D01*
X144639338Y-129744135D01*
X144592382Y-129741591D01*
X144592366Y-129741591D01*
X144590694Y-129741500D01*
X144409306Y-129741500D01*
X144407634Y-129741591D01*
X144407618Y-129741591D01*
X144360662Y-129744135D01*
X144352752Y-129744563D01*
X144348466Y-129745400D01*
X144131713Y-129787728D01*
X144131710Y-129787729D01*
X144126481Y-129788750D01*
X143910889Y-129870431D01*
X143712142Y-129987268D01*
X143581244Y-130097690D01*
X143516278Y-130126325D01*
X143446144Y-130115291D01*
X143418756Y-130097690D01*
X143287858Y-129987268D01*
X143089111Y-129870431D01*
X142873519Y-129788750D01*
X142868290Y-129787729D01*
X142868287Y-129787728D01*
X142651534Y-129745400D01*
X142647248Y-129744563D01*
X142639338Y-129744135D01*
X142592382Y-129741591D01*
X142592366Y-129741591D01*
X142590694Y-129741500D01*
X142409306Y-129741500D01*
X142407634Y-129741591D01*
X142407618Y-129741591D01*
X142360662Y-129744135D01*
X142352752Y-129744563D01*
X142348466Y-129745400D01*
X142131713Y-129787728D01*
X142131710Y-129787729D01*
X142126481Y-129788750D01*
X141910889Y-129870431D01*
X141712142Y-129987268D01*
X141581244Y-130097690D01*
X141516278Y-130126325D01*
X141446144Y-130115291D01*
X141418756Y-130097690D01*
X141287858Y-129987268D01*
X141089111Y-129870431D01*
X140873519Y-129788750D01*
X140868290Y-129787729D01*
X140868287Y-129787728D01*
X140651534Y-129745400D01*
X140647248Y-129744563D01*
X140639338Y-129744135D01*
X140592382Y-129741591D01*
X140592366Y-129741591D01*
X140590694Y-129741500D01*
X140409306Y-129741500D01*
X140407634Y-129741591D01*
X140407618Y-129741591D01*
X140360662Y-129744135D01*
X140352752Y-129744563D01*
X140348466Y-129745400D01*
X140131713Y-129787728D01*
X140131710Y-129787729D01*
X140126481Y-129788750D01*
X139910889Y-129870431D01*
X139712142Y-129987268D01*
X139581244Y-130097690D01*
X139516278Y-130126325D01*
X139446144Y-130115291D01*
X139418756Y-130097690D01*
X139287858Y-129987268D01*
X139089111Y-129870431D01*
X138873519Y-129788750D01*
X138868290Y-129787729D01*
X138868287Y-129787728D01*
X138651534Y-129745400D01*
X138647248Y-129744563D01*
X138639338Y-129744135D01*
X138592382Y-129741591D01*
X138592366Y-129741591D01*
X138590694Y-129741500D01*
X138409306Y-129741500D01*
X138407634Y-129741591D01*
X138407618Y-129741591D01*
X138360662Y-129744135D01*
X138352752Y-129744563D01*
X138348466Y-129745400D01*
X138131713Y-129787728D01*
X138131710Y-129787729D01*
X138126481Y-129788750D01*
X137910889Y-129870431D01*
X137712142Y-129987268D01*
X137581244Y-130097690D01*
X137516278Y-130126325D01*
X137446144Y-130115291D01*
X137418756Y-130097690D01*
X137287858Y-129987268D01*
X137089111Y-129870431D01*
X136873519Y-129788750D01*
X136868290Y-129787729D01*
X136868287Y-129787728D01*
X136651534Y-129745400D01*
X136647248Y-129744563D01*
X136639338Y-129744135D01*
X136592382Y-129741591D01*
X136592366Y-129741591D01*
X136590694Y-129741500D01*
X136409306Y-129741500D01*
X136407634Y-129741591D01*
X136407618Y-129741591D01*
X136360662Y-129744135D01*
X136352752Y-129744563D01*
X136348466Y-129745400D01*
X136131713Y-129787728D01*
X136131710Y-129787729D01*
X136126481Y-129788750D01*
X135910889Y-129870431D01*
X135712142Y-129987268D01*
X135581244Y-130097690D01*
X135516278Y-130126325D01*
X135446144Y-130115291D01*
X135418756Y-130097690D01*
X135287858Y-129987268D01*
X135089111Y-129870431D01*
X134873519Y-129788750D01*
X134868290Y-129787729D01*
X134868287Y-129787728D01*
X134651534Y-129745400D01*
X134647248Y-129744563D01*
X134639338Y-129744135D01*
X134592382Y-129741591D01*
X134592366Y-129741591D01*
X134590694Y-129741500D01*
X134409306Y-129741500D01*
X134407634Y-129741591D01*
X134407618Y-129741591D01*
X134360662Y-129744135D01*
X134352752Y-129744563D01*
X134348466Y-129745400D01*
X134131713Y-129787728D01*
X134131710Y-129787729D01*
X134126481Y-129788750D01*
X133910889Y-129870431D01*
X133712142Y-129987268D01*
X133581244Y-130097690D01*
X133516278Y-130126325D01*
X133446144Y-130115291D01*
X133418756Y-130097690D01*
X133287858Y-129987268D01*
X133089111Y-129870431D01*
X132873519Y-129788750D01*
X132868290Y-129787729D01*
X132868287Y-129787728D01*
X132651534Y-129745400D01*
X132647248Y-129744563D01*
X132639338Y-129744135D01*
X132592382Y-129741591D01*
X132592366Y-129741591D01*
X132590694Y-129741500D01*
X132409306Y-129741500D01*
X132407634Y-129741591D01*
X132407618Y-129741591D01*
X132360662Y-129744135D01*
X132352752Y-129744563D01*
X132348466Y-129745400D01*
X132131713Y-129787728D01*
X132131710Y-129787729D01*
X132126481Y-129788750D01*
X131910889Y-129870431D01*
X131712142Y-129987268D01*
X131581244Y-130097690D01*
X131516278Y-130126325D01*
X131446144Y-130115291D01*
X131418756Y-130097690D01*
X131287858Y-129987268D01*
X131089111Y-129870431D01*
X130873519Y-129788750D01*
X130868290Y-129787729D01*
X130868287Y-129787728D01*
X130651534Y-129745400D01*
X130647248Y-129744563D01*
X130639338Y-129744135D01*
X130592382Y-129741591D01*
X130592366Y-129741591D01*
X130590694Y-129741500D01*
X130409306Y-129741500D01*
X130407634Y-129741591D01*
X130407618Y-129741591D01*
X130360662Y-129744135D01*
X130352752Y-129744563D01*
X130348466Y-129745400D01*
X130131713Y-129787728D01*
X130131710Y-129787729D01*
X130126481Y-129788750D01*
X129910889Y-129870431D01*
X129712142Y-129987268D01*
X129581244Y-130097690D01*
X129580856Y-130098017D01*
X129515890Y-130126652D01*
X129445756Y-130115618D01*
X129418368Y-130098017D01*
X129291651Y-129991123D01*
X129282962Y-129984970D01*
X129093491Y-129873586D01*
X129083908Y-129868994D01*
X128878373Y-129791124D01*
X128868143Y-129788210D01*
X128771782Y-129769393D01*
X128758832Y-129770597D01*
X128754000Y-129785648D01*
X128754000Y-133215965D01*
X128245482Y-133215965D01*
X128246000Y-133214352D01*
X128246000Y-131772115D01*
X128241525Y-131756876D01*
X128240135Y-131755671D01*
X128232452Y-131754000D01*
X127160116Y-131754000D01*
X127144877Y-131758475D01*
X127143672Y-131759865D01*
X127142001Y-131767548D01*
X127142001Y-131988957D01*
X118508500Y-131988957D01*
X118508500Y-131227885D01*
X127142000Y-131227885D01*
X127146475Y-131243124D01*
X127147865Y-131244329D01*
X127155548Y-131246000D01*
X128227885Y-131246000D01*
X128243124Y-131241525D01*
X128244329Y-131240135D01*
X128246000Y-131232452D01*
X128246000Y-129784035D01*
X128242336Y-129771558D01*
X128226638Y-129769701D01*
X128131857Y-129788210D01*
X128121627Y-129791124D01*
X127916092Y-129868994D01*
X127906509Y-129873586D01*
X127717038Y-129984970D01*
X127708349Y-129991123D01*
X127540349Y-130132842D01*
X127532842Y-130140349D01*
X127391123Y-130308349D01*
X127384970Y-130317038D01*
X127273586Y-130506509D01*
X127268994Y-130516092D01*
X127191122Y-130721632D01*
X127188211Y-130731850D01*
X127145899Y-130948521D01*
X127144826Y-130957165D01*
X127142091Y-131007655D01*
X127142000Y-131011041D01*
X127142000Y-131227885D01*
X118508500Y-131227885D01*
X118508500Y-126132703D01*
X128640743Y-126132703D01*
X128678268Y-126417734D01*
X128754129Y-126695036D01*
X128866923Y-126959476D01*
X129014561Y-127206161D01*
X129194313Y-127430528D01*
X129402851Y-127628423D01*
X129636317Y-127796186D01*
X129640112Y-127798195D01*
X129640113Y-127798196D01*
X129661869Y-127809715D01*
X129890392Y-127930712D01*
X130160373Y-128029511D01*
X130441264Y-128090755D01*
X130469841Y-128093004D01*
X130664282Y-128108307D01*
X130664291Y-128108307D01*
X130666739Y-128108500D01*
X130822271Y-128108500D01*
X130824407Y-128108354D01*
X130824418Y-128108354D01*
X131032548Y-128094165D01*
X131032554Y-128094164D01*
X131036825Y-128093873D01*
X131041020Y-128093004D01*
X131041022Y-128093004D01*
X131177584Y-128064723D01*
X131318342Y-128035574D01*
X131589343Y-127939607D01*
X131844812Y-127807750D01*
X131848313Y-127805289D01*
X131848317Y-127805287D01*
X131962417Y-127725096D01*
X132080023Y-127642441D01*
X132290622Y-127446740D01*
X132472713Y-127224268D01*
X132622927Y-126979142D01*
X132738483Y-126715898D01*
X132817244Y-126439406D01*
X132857751Y-126154784D01*
X132857845Y-126136951D01*
X132857867Y-126132703D01*
X148140743Y-126132703D01*
X148178268Y-126417734D01*
X148254129Y-126695036D01*
X148366923Y-126959476D01*
X148514561Y-127206161D01*
X148694313Y-127430528D01*
X148902851Y-127628423D01*
X149136317Y-127796186D01*
X149140112Y-127798195D01*
X149140113Y-127798196D01*
X149161869Y-127809715D01*
X149390392Y-127930712D01*
X149660373Y-128029511D01*
X149941264Y-128090755D01*
X149969841Y-128093004D01*
X150164282Y-128108307D01*
X150164291Y-128108307D01*
X150166739Y-128108500D01*
X150322271Y-128108500D01*
X150324407Y-128108354D01*
X150324418Y-128108354D01*
X150532548Y-128094165D01*
X150532554Y-128094164D01*
X150536825Y-128093873D01*
X150541020Y-128093004D01*
X150541022Y-128093004D01*
X150677584Y-128064723D01*
X150818342Y-128035574D01*
X151089343Y-127939607D01*
X151344812Y-127807750D01*
X151348313Y-127805289D01*
X151348317Y-127805287D01*
X151462417Y-127725096D01*
X151580023Y-127642441D01*
X151790622Y-127446740D01*
X151972713Y-127224268D01*
X152122927Y-126979142D01*
X152238483Y-126715898D01*
X152317244Y-126439406D01*
X152357751Y-126154784D01*
X152357845Y-126136951D01*
X152359235Y-125871583D01*
X152359235Y-125871576D01*
X152359257Y-125867297D01*
X152321732Y-125582266D01*
X152245871Y-125304964D01*
X152133077Y-125040524D01*
X151985439Y-124793839D01*
X151805687Y-124569472D01*
X151597149Y-124371577D01*
X151363683Y-124203814D01*
X151341843Y-124192250D01*
X151318654Y-124179972D01*
X151109608Y-124069288D01*
X150839627Y-123970489D01*
X150558736Y-123909245D01*
X150527685Y-123906801D01*
X150335718Y-123891693D01*
X150335709Y-123891693D01*
X150333261Y-123891500D01*
X150177729Y-123891500D01*
X150175593Y-123891646D01*
X150175582Y-123891646D01*
X149967452Y-123905835D01*
X149967446Y-123905836D01*
X149963175Y-123906127D01*
X149958980Y-123906996D01*
X149958978Y-123906996D01*
X149822417Y-123935276D01*
X149681658Y-123964426D01*
X149410657Y-124060393D01*
X149155188Y-124192250D01*
X149151687Y-124194711D01*
X149151683Y-124194713D01*
X149141594Y-124201804D01*
X148919977Y-124357559D01*
X148709378Y-124553260D01*
X148527287Y-124775732D01*
X148377073Y-125020858D01*
X148261517Y-125284102D01*
X148182756Y-125560594D01*
X148142249Y-125845216D01*
X148142227Y-125849505D01*
X148142226Y-125849512D01*
X148140765Y-126128417D01*
X148140743Y-126132703D01*
X132857867Y-126132703D01*
X132859235Y-125871583D01*
X132859235Y-125871576D01*
X132859257Y-125867297D01*
X132821732Y-125582266D01*
X132745871Y-125304964D01*
X132633077Y-125040524D01*
X132485439Y-124793839D01*
X132305687Y-124569472D01*
X132097149Y-124371577D01*
X131863683Y-124203814D01*
X131841843Y-124192250D01*
X131818654Y-124179972D01*
X131609608Y-124069288D01*
X131339627Y-123970489D01*
X131058736Y-123909245D01*
X131027685Y-123906801D01*
X130835718Y-123891693D01*
X130835709Y-123891693D01*
X130833261Y-123891500D01*
X130677729Y-123891500D01*
X130675593Y-123891646D01*
X130675582Y-123891646D01*
X130467452Y-123905835D01*
X130467446Y-123905836D01*
X130463175Y-123906127D01*
X130458980Y-123906996D01*
X130458978Y-123906996D01*
X130322417Y-123935276D01*
X130181658Y-123964426D01*
X129910657Y-124060393D01*
X129655188Y-124192250D01*
X129651687Y-124194711D01*
X129651683Y-124194713D01*
X129641594Y-124201804D01*
X129419977Y-124357559D01*
X129209378Y-124553260D01*
X129027287Y-124775732D01*
X128877073Y-125020858D01*
X128761517Y-125284102D01*
X128682756Y-125560594D01*
X128642249Y-125845216D01*
X128642227Y-125849505D01*
X128642226Y-125849512D01*
X128640765Y-126128417D01*
X128640743Y-126132703D01*
X118508500Y-126132703D01*
X118508500Y-120990694D01*
X127141500Y-120990694D01*
X127144563Y-121047248D01*
X127145400Y-121051534D01*
X127187702Y-121268150D01*
X127188750Y-121273519D01*
X127270431Y-121489111D01*
X127387268Y-121687858D01*
X127535922Y-121864078D01*
X127712142Y-122012732D01*
X127910889Y-122129569D01*
X128126481Y-122211250D01*
X128131710Y-122212271D01*
X128131713Y-122212272D01*
X128337468Y-122252452D01*
X128352752Y-122255437D01*
X128360662Y-122255865D01*
X128407618Y-122258409D01*
X128407634Y-122258409D01*
X128409306Y-122258500D01*
X128590694Y-122258500D01*
X128592366Y-122258409D01*
X128592382Y-122258409D01*
X128639338Y-122255865D01*
X128647248Y-122255437D01*
X128662532Y-122252452D01*
X128868287Y-122212272D01*
X128868290Y-122212271D01*
X128873519Y-122211250D01*
X129089111Y-122129569D01*
X129287858Y-122012732D01*
X129418757Y-121902310D01*
X129483722Y-121873675D01*
X129553856Y-121884709D01*
X129581242Y-121902309D01*
X129712142Y-122012732D01*
X129910889Y-122129569D01*
X130126481Y-122211250D01*
X130131710Y-122212271D01*
X130131713Y-122212272D01*
X130337468Y-122252452D01*
X130352752Y-122255437D01*
X130360662Y-122255865D01*
X130407618Y-122258409D01*
X130407634Y-122258409D01*
X130409306Y-122258500D01*
X130590694Y-122258500D01*
X130592366Y-122258409D01*
X130592382Y-122258409D01*
X130639338Y-122255865D01*
X130647248Y-122255437D01*
X130662532Y-122252452D01*
X130868287Y-122212272D01*
X130868290Y-122212271D01*
X130873519Y-122211250D01*
X131089111Y-122129569D01*
X131287858Y-122012732D01*
X131418757Y-121902310D01*
X131483722Y-121873675D01*
X131553856Y-121884709D01*
X131581242Y-121902309D01*
X131712142Y-122012732D01*
X131910889Y-122129569D01*
X132126481Y-122211250D01*
X132131710Y-122212271D01*
X132131713Y-122212272D01*
X132337468Y-122252452D01*
X132352752Y-122255437D01*
X132360662Y-122255865D01*
X132407618Y-122258409D01*
X132407634Y-122258409D01*
X132409306Y-122258500D01*
X132590694Y-122258500D01*
X132592366Y-122258409D01*
X132592382Y-122258409D01*
X132639338Y-122255865D01*
X132647248Y-122255437D01*
X132662532Y-122252452D01*
X132868287Y-122212272D01*
X132868290Y-122212271D01*
X132873519Y-122211250D01*
X133089111Y-122129569D01*
X133287858Y-122012732D01*
X133418757Y-121902310D01*
X133483722Y-121873675D01*
X133553856Y-121884709D01*
X133581242Y-121902309D01*
X133712142Y-122012732D01*
X133910889Y-122129569D01*
X134126481Y-122211250D01*
X134131710Y-122212271D01*
X134131713Y-122212272D01*
X134337468Y-122252452D01*
X134352752Y-122255437D01*
X134360662Y-122255865D01*
X134407618Y-122258409D01*
X134407634Y-122258409D01*
X134409306Y-122258500D01*
X134590694Y-122258500D01*
X134592366Y-122258409D01*
X134592382Y-122258409D01*
X134639338Y-122255865D01*
X134647248Y-122255437D01*
X134662532Y-122252452D01*
X134868287Y-122212272D01*
X134868290Y-122212271D01*
X134873519Y-122211250D01*
X135089111Y-122129569D01*
X135287858Y-122012732D01*
X135418757Y-121902310D01*
X135483722Y-121873675D01*
X135553856Y-121884709D01*
X135581242Y-121902309D01*
X135712142Y-122012732D01*
X135910889Y-122129569D01*
X136126481Y-122211250D01*
X136131710Y-122212271D01*
X136131713Y-122212272D01*
X136337468Y-122252452D01*
X136352752Y-122255437D01*
X136360662Y-122255865D01*
X136407618Y-122258409D01*
X136407634Y-122258409D01*
X136409306Y-122258500D01*
X136590694Y-122258500D01*
X136592366Y-122258409D01*
X136592382Y-122258409D01*
X136639338Y-122255865D01*
X136647248Y-122255437D01*
X136662532Y-122252452D01*
X136868287Y-122212272D01*
X136868290Y-122212271D01*
X136873519Y-122211250D01*
X137089111Y-122129569D01*
X137287858Y-122012732D01*
X137418757Y-121902310D01*
X137483722Y-121873675D01*
X137553856Y-121884709D01*
X137581242Y-121902309D01*
X137712142Y-122012732D01*
X137910889Y-122129569D01*
X138126481Y-122211250D01*
X138131710Y-122212271D01*
X138131713Y-122212272D01*
X138337468Y-122252452D01*
X138352752Y-122255437D01*
X138360662Y-122255865D01*
X138407618Y-122258409D01*
X138407634Y-122258409D01*
X138409306Y-122258500D01*
X138590694Y-122258500D01*
X138592366Y-122258409D01*
X138592382Y-122258409D01*
X138639338Y-122255865D01*
X138647248Y-122255437D01*
X138662532Y-122252452D01*
X138868287Y-122212272D01*
X138868290Y-122212271D01*
X138873519Y-122211250D01*
X139089111Y-122129569D01*
X139287858Y-122012732D01*
X139418757Y-121902310D01*
X139483722Y-121873675D01*
X139553856Y-121884709D01*
X139581242Y-121902309D01*
X139712142Y-122012732D01*
X139910889Y-122129569D01*
X140126481Y-122211250D01*
X140131710Y-122212271D01*
X140131713Y-122212272D01*
X140337468Y-122252452D01*
X140352752Y-122255437D01*
X140360662Y-122255865D01*
X140407618Y-122258409D01*
X140407634Y-122258409D01*
X140409306Y-122258500D01*
X140590694Y-122258500D01*
X140592366Y-122258409D01*
X140592382Y-122258409D01*
X140639338Y-122255865D01*
X140647248Y-122255437D01*
X140662532Y-122252452D01*
X140868287Y-122212272D01*
X140868290Y-122212271D01*
X140873519Y-122211250D01*
X141089111Y-122129569D01*
X141287858Y-122012732D01*
X141418757Y-121902310D01*
X141483722Y-121873675D01*
X141553856Y-121884709D01*
X141581242Y-121902309D01*
X141712142Y-122012732D01*
X141910889Y-122129569D01*
X142126481Y-122211250D01*
X142131710Y-122212271D01*
X142131713Y-122212272D01*
X142337468Y-122252452D01*
X142352752Y-122255437D01*
X142360662Y-122255865D01*
X142407618Y-122258409D01*
X142407634Y-122258409D01*
X142409306Y-122258500D01*
X142590694Y-122258500D01*
X142592366Y-122258409D01*
X142592382Y-122258409D01*
X142639338Y-122255865D01*
X142647248Y-122255437D01*
X142662532Y-122252452D01*
X142868287Y-122212272D01*
X142868290Y-122212271D01*
X142873519Y-122211250D01*
X143089111Y-122129569D01*
X143287858Y-122012732D01*
X143418757Y-121902310D01*
X143483722Y-121873675D01*
X143553856Y-121884709D01*
X143581242Y-121902309D01*
X143712142Y-122012732D01*
X143910889Y-122129569D01*
X144126481Y-122211250D01*
X144131710Y-122212271D01*
X144131713Y-122212272D01*
X144337468Y-122252452D01*
X144352752Y-122255437D01*
X144360662Y-122255865D01*
X144407618Y-122258409D01*
X144407634Y-122258409D01*
X144409306Y-122258500D01*
X144590694Y-122258500D01*
X144592366Y-122258409D01*
X144592382Y-122258409D01*
X144639338Y-122255865D01*
X144647248Y-122255437D01*
X144662532Y-122252452D01*
X144868287Y-122212272D01*
X144868290Y-122212271D01*
X144873519Y-122211250D01*
X145089111Y-122129569D01*
X145287858Y-122012732D01*
X145418757Y-121902310D01*
X145483722Y-121873675D01*
X145553856Y-121884709D01*
X145581242Y-121902309D01*
X145712142Y-122012732D01*
X145910889Y-122129569D01*
X146126481Y-122211250D01*
X146131710Y-122212271D01*
X146131713Y-122212272D01*
X146337468Y-122252452D01*
X146352752Y-122255437D01*
X146360662Y-122255865D01*
X146407618Y-122258409D01*
X146407634Y-122258409D01*
X146409306Y-122258500D01*
X146590694Y-122258500D01*
X146592366Y-122258409D01*
X146592382Y-122258409D01*
X146639338Y-122255865D01*
X146647248Y-122255437D01*
X146662532Y-122252452D01*
X146868287Y-122212272D01*
X146868290Y-122212271D01*
X146873519Y-122211250D01*
X147089111Y-122129569D01*
X147287858Y-122012732D01*
X147418757Y-121902310D01*
X147483722Y-121873675D01*
X147553856Y-121884709D01*
X147581242Y-121902309D01*
X147712142Y-122012732D01*
X147910889Y-122129569D01*
X148126481Y-122211250D01*
X148131710Y-122212271D01*
X148131713Y-122212272D01*
X148337468Y-122252452D01*
X148352752Y-122255437D01*
X148360662Y-122255865D01*
X148407618Y-122258409D01*
X148407634Y-122258409D01*
X148409306Y-122258500D01*
X148590694Y-122258500D01*
X148592366Y-122258409D01*
X148592382Y-122258409D01*
X148639338Y-122255865D01*
X148647248Y-122255437D01*
X148662532Y-122252452D01*
X148868287Y-122212272D01*
X148868290Y-122212271D01*
X148873519Y-122211250D01*
X149089111Y-122129569D01*
X149287858Y-122012732D01*
X149418757Y-121902310D01*
X149483722Y-121873675D01*
X149553856Y-121884709D01*
X149581242Y-121902309D01*
X149712142Y-122012732D01*
X149910889Y-122129569D01*
X150126481Y-122211250D01*
X150131710Y-122212271D01*
X150131713Y-122212272D01*
X150337468Y-122252452D01*
X150352752Y-122255437D01*
X150360662Y-122255865D01*
X150407618Y-122258409D01*
X150407634Y-122258409D01*
X150409306Y-122258500D01*
X150590694Y-122258500D01*
X150592366Y-122258409D01*
X150592382Y-122258409D01*
X150639338Y-122255865D01*
X150647248Y-122255437D01*
X150662532Y-122252452D01*
X150868287Y-122212272D01*
X150868290Y-122212271D01*
X150873519Y-122211250D01*
X151089111Y-122129569D01*
X151287858Y-122012732D01*
X151419144Y-121901983D01*
X151484110Y-121873348D01*
X151554244Y-121884382D01*
X151581632Y-121901983D01*
X151708349Y-122008877D01*
X151717038Y-122015030D01*
X151906509Y-122126414D01*
X151916092Y-122131006D01*
X152121627Y-122208876D01*
X152131857Y-122211790D01*
X152228218Y-122230607D01*
X152241168Y-122229403D01*
X152245482Y-122215965D01*
X152754000Y-122215965D01*
X152757664Y-122228442D01*
X152773362Y-122230299D01*
X152868143Y-122211790D01*
X152878373Y-122208876D01*
X153083908Y-122131006D01*
X153093491Y-122126414D01*
X153282962Y-122015030D01*
X153291651Y-122008877D01*
X153459651Y-121867158D01*
X153467158Y-121859651D01*
X153608877Y-121691651D01*
X153615030Y-121682962D01*
X153726414Y-121493491D01*
X153731006Y-121483908D01*
X153808878Y-121278368D01*
X153811789Y-121268150D01*
X153854101Y-121051479D01*
X153855174Y-121042835D01*
X153857909Y-120992345D01*
X153858000Y-120988960D01*
X153858000Y-120772115D01*
X153853525Y-120756876D01*
X153852135Y-120755671D01*
X153844452Y-120754000D01*
X152772115Y-120754000D01*
X152756876Y-120758475D01*
X152755671Y-120759865D01*
X152754000Y-120767548D01*
X152754000Y-122215965D01*
X152245482Y-122215965D01*
X152246000Y-122214352D01*
X152246000Y-120227885D01*
X152754000Y-120227885D01*
X152758475Y-120243124D01*
X152759865Y-120244329D01*
X152767548Y-120246000D01*
X153839884Y-120246000D01*
X153855123Y-120241525D01*
X153856328Y-120240135D01*
X153857999Y-120232452D01*
X153857999Y-120011043D01*
X153857907Y-120007652D01*
X153855175Y-119957177D01*
X153854099Y-119948509D01*
X153811789Y-119731850D01*
X153808878Y-119721632D01*
X153731006Y-119516092D01*
X153726414Y-119506509D01*
X153615030Y-119317038D01*
X153608877Y-119308349D01*
X153467158Y-119140349D01*
X153459651Y-119132842D01*
X153291651Y-118991123D01*
X153282962Y-118984970D01*
X153093491Y-118873586D01*
X153083908Y-118868994D01*
X152878373Y-118791124D01*
X152868143Y-118788210D01*
X152771782Y-118769393D01*
X152758832Y-118770597D01*
X152754000Y-118785648D01*
X152754000Y-120227885D01*
X152246000Y-120227885D01*
X152246000Y-118784035D01*
X152242336Y-118771558D01*
X152226638Y-118769701D01*
X152131857Y-118788210D01*
X152121627Y-118791124D01*
X151916092Y-118868994D01*
X151906509Y-118873586D01*
X151717038Y-118984970D01*
X151708349Y-118991123D01*
X151581632Y-119098017D01*
X151516666Y-119126652D01*
X151446532Y-119115618D01*
X151419144Y-119098017D01*
X151418756Y-119097690D01*
X151287858Y-118987268D01*
X151089111Y-118870431D01*
X150873519Y-118788750D01*
X150868290Y-118787729D01*
X150868287Y-118787728D01*
X150651534Y-118745400D01*
X150647248Y-118744563D01*
X150639338Y-118744135D01*
X150592382Y-118741591D01*
X150592366Y-118741591D01*
X150590694Y-118741500D01*
X150409306Y-118741500D01*
X150407634Y-118741591D01*
X150407618Y-118741591D01*
X150360662Y-118744135D01*
X150352752Y-118744563D01*
X150348466Y-118745400D01*
X150131713Y-118787728D01*
X150131710Y-118787729D01*
X150126481Y-118788750D01*
X149910889Y-118870431D01*
X149712142Y-118987268D01*
X149581244Y-119097690D01*
X149516278Y-119126325D01*
X149446144Y-119115291D01*
X149418756Y-119097690D01*
X149287858Y-118987268D01*
X149089111Y-118870431D01*
X148873519Y-118788750D01*
X148868290Y-118787729D01*
X148868287Y-118787728D01*
X148651534Y-118745400D01*
X148647248Y-118744563D01*
X148639338Y-118744135D01*
X148592382Y-118741591D01*
X148592366Y-118741591D01*
X148590694Y-118741500D01*
X148409306Y-118741500D01*
X148407634Y-118741591D01*
X148407618Y-118741591D01*
X148360662Y-118744135D01*
X148352752Y-118744563D01*
X148348466Y-118745400D01*
X148131713Y-118787728D01*
X148131710Y-118787729D01*
X148126481Y-118788750D01*
X147910889Y-118870431D01*
X147712142Y-118987268D01*
X147581244Y-119097690D01*
X147516278Y-119126325D01*
X147446144Y-119115291D01*
X147418756Y-119097690D01*
X147287858Y-118987268D01*
X147089111Y-118870431D01*
X146873519Y-118788750D01*
X146868290Y-118787729D01*
X146868287Y-118787728D01*
X146651534Y-118745400D01*
X146647248Y-118744563D01*
X146639338Y-118744135D01*
X146592382Y-118741591D01*
X146592366Y-118741591D01*
X146590694Y-118741500D01*
X146409306Y-118741500D01*
X146407634Y-118741591D01*
X146407618Y-118741591D01*
X146360662Y-118744135D01*
X146352752Y-118744563D01*
X146348466Y-118745400D01*
X146131713Y-118787728D01*
X146131710Y-118787729D01*
X146126481Y-118788750D01*
X145910889Y-118870431D01*
X145712142Y-118987268D01*
X145581244Y-119097690D01*
X145516278Y-119126325D01*
X145446144Y-119115291D01*
X145418756Y-119097690D01*
X145287858Y-118987268D01*
X145089111Y-118870431D01*
X144873519Y-118788750D01*
X144868290Y-118787729D01*
X144868287Y-118787728D01*
X144651534Y-118745400D01*
X144647248Y-118744563D01*
X144639338Y-118744135D01*
X144592382Y-118741591D01*
X144592366Y-118741591D01*
X144590694Y-118741500D01*
X144409306Y-118741500D01*
X144407634Y-118741591D01*
X144407618Y-118741591D01*
X144360662Y-118744135D01*
X144352752Y-118744563D01*
X144348466Y-118745400D01*
X144131713Y-118787728D01*
X144131710Y-118787729D01*
X144126481Y-118788750D01*
X143910889Y-118870431D01*
X143712142Y-118987268D01*
X143581244Y-119097690D01*
X143516278Y-119126325D01*
X143446144Y-119115291D01*
X143418756Y-119097690D01*
X143287858Y-118987268D01*
X143089111Y-118870431D01*
X142873519Y-118788750D01*
X142868290Y-118787729D01*
X142868287Y-118787728D01*
X142651534Y-118745400D01*
X142647248Y-118744563D01*
X142639338Y-118744135D01*
X142592382Y-118741591D01*
X142592366Y-118741591D01*
X142590694Y-118741500D01*
X142409306Y-118741500D01*
X142407634Y-118741591D01*
X142407618Y-118741591D01*
X142360662Y-118744135D01*
X142352752Y-118744563D01*
X142348466Y-118745400D01*
X142131713Y-118787728D01*
X142131710Y-118787729D01*
X142126481Y-118788750D01*
X141910889Y-118870431D01*
X141712142Y-118987268D01*
X141581244Y-119097690D01*
X141516278Y-119126325D01*
X141446144Y-119115291D01*
X141418756Y-119097690D01*
X141287858Y-118987268D01*
X141089111Y-118870431D01*
X140873519Y-118788750D01*
X140868290Y-118787729D01*
X140868287Y-118787728D01*
X140651534Y-118745400D01*
X140647248Y-118744563D01*
X140639338Y-118744135D01*
X140592382Y-118741591D01*
X140592366Y-118741591D01*
X140590694Y-118741500D01*
X140409306Y-118741500D01*
X140407634Y-118741591D01*
X140407618Y-118741591D01*
X140360662Y-118744135D01*
X140352752Y-118744563D01*
X140348466Y-118745400D01*
X140131713Y-118787728D01*
X140131710Y-118787729D01*
X140126481Y-118788750D01*
X139910889Y-118870431D01*
X139712142Y-118987268D01*
X139581244Y-119097690D01*
X139516278Y-119126325D01*
X139446144Y-119115291D01*
X139418756Y-119097690D01*
X139287858Y-118987268D01*
X139089111Y-118870431D01*
X138873519Y-118788750D01*
X138868290Y-118787729D01*
X138868287Y-118787728D01*
X138651534Y-118745400D01*
X138647248Y-118744563D01*
X138639338Y-118744135D01*
X138592382Y-118741591D01*
X138592366Y-118741591D01*
X138590694Y-118741500D01*
X138409306Y-118741500D01*
X138407634Y-118741591D01*
X138407618Y-118741591D01*
X138360662Y-118744135D01*
X138352752Y-118744563D01*
X138348466Y-118745400D01*
X138131713Y-118787728D01*
X138131710Y-118787729D01*
X138126481Y-118788750D01*
X137910889Y-118870431D01*
X137712142Y-118987268D01*
X137581244Y-119097690D01*
X137516278Y-119126325D01*
X137446144Y-119115291D01*
X137418756Y-119097690D01*
X137287858Y-118987268D01*
X137089111Y-118870431D01*
X136873519Y-118788750D01*
X136868290Y-118787729D01*
X136868287Y-118787728D01*
X136651534Y-118745400D01*
X136647248Y-118744563D01*
X136639338Y-118744135D01*
X136592382Y-118741591D01*
X136592366Y-118741591D01*
X136590694Y-118741500D01*
X136409306Y-118741500D01*
X136407634Y-118741591D01*
X136407618Y-118741591D01*
X136360662Y-118744135D01*
X136352752Y-118744563D01*
X136348466Y-118745400D01*
X136131713Y-118787728D01*
X136131710Y-118787729D01*
X136126481Y-118788750D01*
X135910889Y-118870431D01*
X135712142Y-118987268D01*
X135581244Y-119097690D01*
X135516278Y-119126325D01*
X135446144Y-119115291D01*
X135418756Y-119097690D01*
X135287858Y-118987268D01*
X135089111Y-118870431D01*
X134873519Y-118788750D01*
X134868290Y-118787729D01*
X134868287Y-118787728D01*
X134651534Y-118745400D01*
X134647248Y-118744563D01*
X134639338Y-118744135D01*
X134592382Y-118741591D01*
X134592366Y-118741591D01*
X134590694Y-118741500D01*
X134409306Y-118741500D01*
X134407634Y-118741591D01*
X134407618Y-118741591D01*
X134360662Y-118744135D01*
X134352752Y-118744563D01*
X134348466Y-118745400D01*
X134131713Y-118787728D01*
X134131710Y-118787729D01*
X134126481Y-118788750D01*
X133910889Y-118870431D01*
X133712142Y-118987268D01*
X133581244Y-119097690D01*
X133516278Y-119126325D01*
X133446144Y-119115291D01*
X133418756Y-119097690D01*
X133287858Y-118987268D01*
X133089111Y-118870431D01*
X132873519Y-118788750D01*
X132868290Y-118787729D01*
X132868287Y-118787728D01*
X132651534Y-118745400D01*
X132647248Y-118744563D01*
X132639338Y-118744135D01*
X132592382Y-118741591D01*
X132592366Y-118741591D01*
X132590694Y-118741500D01*
X132409306Y-118741500D01*
X132407634Y-118741591D01*
X132407618Y-118741591D01*
X132360662Y-118744135D01*
X132352752Y-118744563D01*
X132348466Y-118745400D01*
X132131713Y-118787728D01*
X132131710Y-118787729D01*
X132126481Y-118788750D01*
X131910889Y-118870431D01*
X131712142Y-118987268D01*
X131581244Y-119097690D01*
X131516278Y-119126325D01*
X131446144Y-119115291D01*
X131418756Y-119097690D01*
X131287858Y-118987268D01*
X131089111Y-118870431D01*
X130873519Y-118788750D01*
X130868290Y-118787729D01*
X130868287Y-118787728D01*
X130651534Y-118745400D01*
X130647248Y-118744563D01*
X130639338Y-118744135D01*
X130592382Y-118741591D01*
X130592366Y-118741591D01*
X130590694Y-118741500D01*
X130409306Y-118741500D01*
X130407634Y-118741591D01*
X130407618Y-118741591D01*
X130360662Y-118744135D01*
X130352752Y-118744563D01*
X130348466Y-118745400D01*
X130131713Y-118787728D01*
X130131710Y-118787729D01*
X130126481Y-118788750D01*
X129910889Y-118870431D01*
X129712142Y-118987268D01*
X129581244Y-119097690D01*
X129516278Y-119126325D01*
X129446144Y-119115291D01*
X129418756Y-119097690D01*
X129287858Y-118987268D01*
X129089111Y-118870431D01*
X128873519Y-118788750D01*
X128868290Y-118787729D01*
X128868287Y-118787728D01*
X128651534Y-118745400D01*
X128647248Y-118744563D01*
X128639338Y-118744135D01*
X128592382Y-118741591D01*
X128592366Y-118741591D01*
X128590694Y-118741500D01*
X128409306Y-118741500D01*
X128407634Y-118741591D01*
X128407618Y-118741591D01*
X128360662Y-118744135D01*
X128352752Y-118744563D01*
X128348466Y-118745400D01*
X128131713Y-118787728D01*
X128131710Y-118787729D01*
X128126481Y-118788750D01*
X127910889Y-118870431D01*
X127712142Y-118987268D01*
X127535922Y-119135922D01*
X127387268Y-119312142D01*
X127270431Y-119510889D01*
X127188750Y-119726481D01*
X127187729Y-119731710D01*
X127187728Y-119731713D01*
X127147548Y-119937468D01*
X127144563Y-119952752D01*
X127141500Y-120009306D01*
X127141500Y-120990694D01*
X118508500Y-120990694D01*
X118508500Y-99226695D01*
X125137251Y-99226695D01*
X125137548Y-99231848D01*
X125137548Y-99231851D01*
X125143011Y-99326590D01*
X125150110Y-99449715D01*
X125151247Y-99454761D01*
X125151248Y-99454767D01*
X125171119Y-99542939D01*
X125199222Y-99667639D01*
X125283266Y-99874616D01*
X125399987Y-100065088D01*
X125546250Y-100233938D01*
X125718126Y-100376632D01*
X125911000Y-100489338D01*
X126119692Y-100569030D01*
X126124760Y-100570061D01*
X126124763Y-100570062D01*
X126232017Y-100591883D01*
X126338597Y-100613567D01*
X126343772Y-100613757D01*
X126343774Y-100613757D01*
X126556673Y-100621564D01*
X126556677Y-100621564D01*
X126561837Y-100621753D01*
X126566957Y-100621097D01*
X126566959Y-100621097D01*
X126778288Y-100594025D01*
X126778289Y-100594025D01*
X126783416Y-100593368D01*
X126788366Y-100591883D01*
X126992429Y-100530661D01*
X126992434Y-100530659D01*
X126997384Y-100529174D01*
X127197994Y-100430896D01*
X127379860Y-100301173D01*
X127538096Y-100143489D01*
X127597594Y-100060689D01*
X127665435Y-99966277D01*
X127668453Y-99962077D01*
X127767430Y-99761811D01*
X127832370Y-99548069D01*
X127861529Y-99326590D01*
X127863156Y-99260000D01*
X127860418Y-99226695D01*
X153137251Y-99226695D01*
X153137548Y-99231848D01*
X153137548Y-99231851D01*
X153143011Y-99326590D01*
X153150110Y-99449715D01*
X153151247Y-99454761D01*
X153151248Y-99454767D01*
X153171119Y-99542939D01*
X153199222Y-99667639D01*
X153283266Y-99874616D01*
X153399987Y-100065088D01*
X153546250Y-100233938D01*
X153718126Y-100376632D01*
X153911000Y-100489338D01*
X154119692Y-100569030D01*
X154124760Y-100570061D01*
X154124763Y-100570062D01*
X154232017Y-100591883D01*
X154338597Y-100613567D01*
X154343772Y-100613757D01*
X154343774Y-100613757D01*
X154556673Y-100621564D01*
X154556677Y-100621564D01*
X154561837Y-100621753D01*
X154566957Y-100621097D01*
X154566959Y-100621097D01*
X154778288Y-100594025D01*
X154778289Y-100594025D01*
X154783416Y-100593368D01*
X154788366Y-100591883D01*
X154992429Y-100530661D01*
X154992434Y-100530659D01*
X154997384Y-100529174D01*
X155197994Y-100430896D01*
X155379860Y-100301173D01*
X155538096Y-100143489D01*
X155597594Y-100060689D01*
X155665435Y-99966277D01*
X155668453Y-99962077D01*
X155767430Y-99761811D01*
X155832370Y-99548069D01*
X155861529Y-99326590D01*
X155863156Y-99260000D01*
X155844852Y-99037361D01*
X155790431Y-98820702D01*
X155701354Y-98615840D01*
X155580014Y-98428277D01*
X155429670Y-98263051D01*
X155425619Y-98259852D01*
X155425615Y-98259848D01*
X155258414Y-98127800D01*
X155258410Y-98127798D01*
X155254359Y-98124598D01*
X155213053Y-98101796D01*
X155163084Y-98051364D01*
X155148312Y-97981921D01*
X155173428Y-97915516D01*
X155200780Y-97888909D01*
X155244603Y-97857650D01*
X155379860Y-97761173D01*
X155538096Y-97603489D01*
X155597594Y-97520689D01*
X155665435Y-97426277D01*
X155668453Y-97422077D01*
X155767430Y-97221811D01*
X155832370Y-97008069D01*
X155861529Y-96786590D01*
X155863156Y-96720000D01*
X155844852Y-96497361D01*
X155790431Y-96280702D01*
X155701354Y-96075840D01*
X155580014Y-95888277D01*
X155429670Y-95723051D01*
X155425619Y-95719852D01*
X155425615Y-95719848D01*
X155258414Y-95587800D01*
X155258410Y-95587798D01*
X155254359Y-95584598D01*
X155212569Y-95561529D01*
X155162598Y-95511097D01*
X155147826Y-95441654D01*
X155172942Y-95375248D01*
X155200294Y-95348641D01*
X155375328Y-95223792D01*
X155383200Y-95217139D01*
X155534052Y-95066812D01*
X155540730Y-95058965D01*
X155665003Y-94886020D01*
X155670313Y-94877183D01*
X155764670Y-94686267D01*
X155768469Y-94676672D01*
X155830377Y-94472910D01*
X155832555Y-94462837D01*
X155833986Y-94451962D01*
X155831775Y-94437778D01*
X155818617Y-94434000D01*
X153183225Y-94434000D01*
X153169694Y-94437973D01*
X153168257Y-94447966D01*
X153198565Y-94582446D01*
X153201645Y-94592275D01*
X153281770Y-94789603D01*
X153286413Y-94798794D01*
X153397694Y-94980388D01*
X153403777Y-94988699D01*
X153543213Y-95149667D01*
X153550580Y-95156883D01*
X153714434Y-95292916D01*
X153722881Y-95298831D01*
X153791969Y-95339203D01*
X153840693Y-95390842D01*
X153853764Y-95460625D01*
X153827033Y-95526396D01*
X153786584Y-95559752D01*
X153773607Y-95566507D01*
X153769474Y-95569610D01*
X153769471Y-95569612D01*
X153745247Y-95587800D01*
X153594965Y-95700635D01*
X153440629Y-95862138D01*
X153314743Y-96046680D01*
X153220688Y-96249305D01*
X153160989Y-96464570D01*
X153137251Y-96686695D01*
X153137548Y-96691848D01*
X153137548Y-96691851D01*
X153143011Y-96786590D01*
X153150110Y-96909715D01*
X153151247Y-96914761D01*
X153151248Y-96914767D01*
X153171119Y-97002939D01*
X153199222Y-97127639D01*
X153283266Y-97334616D01*
X153399987Y-97525088D01*
X153546250Y-97693938D01*
X153718126Y-97836632D01*
X153788595Y-97877811D01*
X153791445Y-97879476D01*
X153840169Y-97931114D01*
X153853240Y-98000897D01*
X153826509Y-98066669D01*
X153786055Y-98100027D01*
X153773607Y-98106507D01*
X153769474Y-98109610D01*
X153769471Y-98109612D01*
X153745247Y-98127800D01*
X153594965Y-98240635D01*
X153440629Y-98402138D01*
X153314743Y-98586680D01*
X153220688Y-98789305D01*
X153160989Y-99004570D01*
X153137251Y-99226695D01*
X127860418Y-99226695D01*
X127844852Y-99037361D01*
X127790431Y-98820702D01*
X127701354Y-98615840D01*
X127580014Y-98428277D01*
X127429670Y-98263051D01*
X127425619Y-98259852D01*
X127425615Y-98259848D01*
X127258414Y-98127800D01*
X127258410Y-98127798D01*
X127254359Y-98124598D01*
X127213053Y-98101796D01*
X127163084Y-98051364D01*
X127148312Y-97981921D01*
X127173428Y-97915516D01*
X127200780Y-97888909D01*
X127244603Y-97857650D01*
X127379860Y-97761173D01*
X127538096Y-97603489D01*
X127597594Y-97520689D01*
X127665435Y-97426277D01*
X127668453Y-97422077D01*
X127767430Y-97221811D01*
X127832370Y-97008069D01*
X127861529Y-96786590D01*
X127863156Y-96720000D01*
X127844852Y-96497361D01*
X127790431Y-96280702D01*
X127701354Y-96075840D01*
X127580014Y-95888277D01*
X127429670Y-95723051D01*
X127425619Y-95719852D01*
X127425615Y-95719848D01*
X127258414Y-95587800D01*
X127258410Y-95587798D01*
X127254359Y-95584598D01*
X127212569Y-95561529D01*
X127162598Y-95511097D01*
X127147826Y-95441654D01*
X127172942Y-95375248D01*
X127200294Y-95348641D01*
X127375328Y-95223792D01*
X127383200Y-95217139D01*
X127534052Y-95066812D01*
X127540730Y-95058965D01*
X127665003Y-94886020D01*
X127670313Y-94877183D01*
X127764670Y-94686267D01*
X127768469Y-94676672D01*
X127830377Y-94472910D01*
X127832555Y-94462837D01*
X127833986Y-94451962D01*
X127831775Y-94437778D01*
X127818617Y-94434000D01*
X125183225Y-94434000D01*
X125169694Y-94437973D01*
X125168257Y-94447966D01*
X125198565Y-94582446D01*
X125201645Y-94592275D01*
X125281770Y-94789603D01*
X125286413Y-94798794D01*
X125397694Y-94980388D01*
X125403777Y-94988699D01*
X125543213Y-95149667D01*
X125550580Y-95156883D01*
X125714434Y-95292916D01*
X125722881Y-95298831D01*
X125791969Y-95339203D01*
X125840693Y-95390842D01*
X125853764Y-95460625D01*
X125827033Y-95526396D01*
X125786584Y-95559752D01*
X125773607Y-95566507D01*
X125769474Y-95569610D01*
X125769471Y-95569612D01*
X125745247Y-95587800D01*
X125594965Y-95700635D01*
X125440629Y-95862138D01*
X125314743Y-96046680D01*
X125220688Y-96249305D01*
X125160989Y-96464570D01*
X125137251Y-96686695D01*
X125137548Y-96691848D01*
X125137548Y-96691851D01*
X125143011Y-96786590D01*
X125150110Y-96909715D01*
X125151247Y-96914761D01*
X125151248Y-96914767D01*
X125171119Y-97002939D01*
X125199222Y-97127639D01*
X125283266Y-97334616D01*
X125399987Y-97525088D01*
X125546250Y-97693938D01*
X125718126Y-97836632D01*
X125788595Y-97877811D01*
X125791445Y-97879476D01*
X125840169Y-97931114D01*
X125853240Y-98000897D01*
X125826509Y-98066669D01*
X125786055Y-98100027D01*
X125773607Y-98106507D01*
X125769474Y-98109610D01*
X125769471Y-98109612D01*
X125745247Y-98127800D01*
X125594965Y-98240635D01*
X125440629Y-98402138D01*
X125314743Y-98586680D01*
X125220688Y-98789305D01*
X125160989Y-99004570D01*
X125137251Y-99226695D01*
X118508500Y-99226695D01*
X118508500Y-91606695D01*
X125137251Y-91606695D01*
X125137548Y-91611848D01*
X125137548Y-91611851D01*
X125143011Y-91706590D01*
X125150110Y-91829715D01*
X125151247Y-91834761D01*
X125151248Y-91834767D01*
X125171119Y-91922939D01*
X125199222Y-92047639D01*
X125283266Y-92254616D01*
X125399987Y-92445088D01*
X125546250Y-92613938D01*
X125718126Y-92756632D01*
X125791955Y-92799774D01*
X125840679Y-92851412D01*
X125853750Y-92921195D01*
X125827019Y-92986967D01*
X125786562Y-93020327D01*
X125778457Y-93024546D01*
X125769738Y-93030036D01*
X125599433Y-93157905D01*
X125591726Y-93164748D01*
X125444590Y-93318717D01*
X125438104Y-93326727D01*
X125318098Y-93502649D01*
X125313000Y-93511623D01*
X125223338Y-93704783D01*
X125219775Y-93714470D01*
X125164389Y-93914183D01*
X125165912Y-93922607D01*
X125178292Y-93926000D01*
X127818344Y-93926000D01*
X127831875Y-93922027D01*
X127833180Y-93912947D01*
X127791214Y-93745875D01*
X127787894Y-93736124D01*
X127702972Y-93540814D01*
X127698105Y-93531739D01*
X127582426Y-93352926D01*
X127576136Y-93344757D01*
X127432806Y-93187240D01*
X127425273Y-93180215D01*
X127258139Y-93048222D01*
X127249556Y-93042520D01*
X127212602Y-93022120D01*
X127162631Y-92971687D01*
X127147859Y-92902245D01*
X127172975Y-92835839D01*
X127200327Y-92809232D01*
X127223797Y-92792491D01*
X127379860Y-92681173D01*
X127538096Y-92523489D01*
X127597594Y-92440689D01*
X127665435Y-92346277D01*
X127668453Y-92342077D01*
X127767430Y-92141811D01*
X127832370Y-91928069D01*
X127861529Y-91706590D01*
X127863156Y-91640000D01*
X127860418Y-91606695D01*
X153137251Y-91606695D01*
X153137548Y-91611848D01*
X153137548Y-91611851D01*
X153143011Y-91706590D01*
X153150110Y-91829715D01*
X153151247Y-91834761D01*
X153151248Y-91834767D01*
X153171119Y-91922939D01*
X153199222Y-92047639D01*
X153283266Y-92254616D01*
X153399987Y-92445088D01*
X153546250Y-92613938D01*
X153718126Y-92756632D01*
X153791955Y-92799774D01*
X153840679Y-92851412D01*
X153853750Y-92921195D01*
X153827019Y-92986967D01*
X153786562Y-93020327D01*
X153778457Y-93024546D01*
X153769738Y-93030036D01*
X153599433Y-93157905D01*
X153591726Y-93164748D01*
X153444590Y-93318717D01*
X153438104Y-93326727D01*
X153318098Y-93502649D01*
X153313000Y-93511623D01*
X153223338Y-93704783D01*
X153219775Y-93714470D01*
X153164389Y-93914183D01*
X153165912Y-93922607D01*
X153178292Y-93926000D01*
X155818344Y-93926000D01*
X155831875Y-93922027D01*
X155833180Y-93912947D01*
X155791214Y-93745875D01*
X155787894Y-93736124D01*
X155702972Y-93540814D01*
X155698105Y-93531739D01*
X155582426Y-93352926D01*
X155576136Y-93344757D01*
X155432806Y-93187240D01*
X155425273Y-93180215D01*
X155258139Y-93048222D01*
X155249556Y-93042520D01*
X155212602Y-93022120D01*
X155162631Y-92971687D01*
X155147859Y-92902245D01*
X155172975Y-92835839D01*
X155200327Y-92809232D01*
X155223797Y-92792491D01*
X155379860Y-92681173D01*
X155538096Y-92523489D01*
X155597594Y-92440689D01*
X155665435Y-92346277D01*
X155668453Y-92342077D01*
X155767430Y-92141811D01*
X155832370Y-91928069D01*
X155861529Y-91706590D01*
X155863156Y-91640000D01*
X155844852Y-91417361D01*
X155790431Y-91200702D01*
X155701354Y-90995840D01*
X155580014Y-90808277D01*
X155429670Y-90643051D01*
X155425619Y-90639852D01*
X155425615Y-90639848D01*
X155258414Y-90507800D01*
X155258410Y-90507798D01*
X155254359Y-90504598D01*
X155213053Y-90481796D01*
X155163084Y-90431364D01*
X155148312Y-90361921D01*
X155173428Y-90295516D01*
X155200780Y-90268909D01*
X155244603Y-90237650D01*
X155379860Y-90141173D01*
X155538096Y-89983489D01*
X155597594Y-89900689D01*
X155665435Y-89806277D01*
X155668453Y-89802077D01*
X155767430Y-89601811D01*
X155832370Y-89388069D01*
X155861529Y-89166590D01*
X155863156Y-89100000D01*
X155844852Y-88877361D01*
X155790431Y-88660702D01*
X155701354Y-88455840D01*
X155580014Y-88268277D01*
X155429670Y-88103051D01*
X155425619Y-88099852D01*
X155425615Y-88099848D01*
X155258414Y-87967800D01*
X155258410Y-87967798D01*
X155254359Y-87964598D01*
X155213053Y-87941796D01*
X155163084Y-87891364D01*
X155148312Y-87821921D01*
X155173428Y-87755516D01*
X155200780Y-87728909D01*
X155244603Y-87697650D01*
X155379860Y-87601173D01*
X155538096Y-87443489D01*
X155597594Y-87360689D01*
X155665435Y-87266277D01*
X155668453Y-87262077D01*
X155767430Y-87061811D01*
X155832370Y-86848069D01*
X155861529Y-86626590D01*
X155863156Y-86560000D01*
X155844852Y-86337361D01*
X155790431Y-86120702D01*
X155701354Y-85915840D01*
X155580014Y-85728277D01*
X155429670Y-85563051D01*
X155425619Y-85559852D01*
X155425615Y-85559848D01*
X155258414Y-85427800D01*
X155258410Y-85427798D01*
X155254359Y-85424598D01*
X155213053Y-85401796D01*
X155163084Y-85351364D01*
X155148312Y-85281921D01*
X155173428Y-85215516D01*
X155200780Y-85188909D01*
X155244603Y-85157650D01*
X155379860Y-85061173D01*
X155538096Y-84903489D01*
X155597594Y-84820689D01*
X155665435Y-84726277D01*
X155668453Y-84722077D01*
X155767430Y-84521811D01*
X155832370Y-84308069D01*
X155861529Y-84086590D01*
X155863156Y-84020000D01*
X155844852Y-83797361D01*
X155790431Y-83580702D01*
X155701354Y-83375840D01*
X155580014Y-83188277D01*
X155429670Y-83023051D01*
X155425619Y-83019852D01*
X155425615Y-83019848D01*
X155258414Y-82887800D01*
X155258410Y-82887798D01*
X155254359Y-82884598D01*
X155212569Y-82861529D01*
X155162598Y-82811097D01*
X155147826Y-82741654D01*
X155172942Y-82675248D01*
X155200294Y-82648641D01*
X155375328Y-82523792D01*
X155383200Y-82517139D01*
X155534052Y-82366812D01*
X155540730Y-82358965D01*
X155665003Y-82186020D01*
X155670313Y-82177183D01*
X155764670Y-81986267D01*
X155768469Y-81976672D01*
X155830377Y-81772910D01*
X155832555Y-81762837D01*
X155833986Y-81751962D01*
X155831775Y-81737778D01*
X155818617Y-81734000D01*
X153183225Y-81734000D01*
X153169694Y-81737973D01*
X153168257Y-81747966D01*
X153198565Y-81882446D01*
X153201645Y-81892275D01*
X153281770Y-82089603D01*
X153286413Y-82098794D01*
X153397694Y-82280388D01*
X153403777Y-82288699D01*
X153543213Y-82449667D01*
X153550580Y-82456883D01*
X153714434Y-82592916D01*
X153722881Y-82598831D01*
X153791969Y-82639203D01*
X153840693Y-82690842D01*
X153853764Y-82760625D01*
X153827033Y-82826396D01*
X153786584Y-82859752D01*
X153773607Y-82866507D01*
X153769474Y-82869610D01*
X153769471Y-82869612D01*
X153745247Y-82887800D01*
X153594965Y-83000635D01*
X153440629Y-83162138D01*
X153314743Y-83346680D01*
X153220688Y-83549305D01*
X153160989Y-83764570D01*
X153137251Y-83986695D01*
X153137548Y-83991848D01*
X153137548Y-83991851D01*
X153143011Y-84086590D01*
X153150110Y-84209715D01*
X153151247Y-84214761D01*
X153151248Y-84214767D01*
X153171119Y-84302939D01*
X153199222Y-84427639D01*
X153283266Y-84634616D01*
X153399987Y-84825088D01*
X153546250Y-84993938D01*
X153718126Y-85136632D01*
X153788595Y-85177811D01*
X153791445Y-85179476D01*
X153840169Y-85231114D01*
X153853240Y-85300897D01*
X153826509Y-85366669D01*
X153786055Y-85400027D01*
X153773607Y-85406507D01*
X153769474Y-85409610D01*
X153769471Y-85409612D01*
X153745247Y-85427800D01*
X153594965Y-85540635D01*
X153440629Y-85702138D01*
X153314743Y-85886680D01*
X153220688Y-86089305D01*
X153160989Y-86304570D01*
X153137251Y-86526695D01*
X153137548Y-86531848D01*
X153137548Y-86531851D01*
X153143011Y-86626590D01*
X153150110Y-86749715D01*
X153151247Y-86754761D01*
X153151248Y-86754767D01*
X153171119Y-86842939D01*
X153199222Y-86967639D01*
X153283266Y-87174616D01*
X153399987Y-87365088D01*
X153546250Y-87533938D01*
X153718126Y-87676632D01*
X153788595Y-87717811D01*
X153791445Y-87719476D01*
X153840169Y-87771114D01*
X153853240Y-87840897D01*
X153826509Y-87906669D01*
X153786055Y-87940027D01*
X153773607Y-87946507D01*
X153769474Y-87949610D01*
X153769471Y-87949612D01*
X153745247Y-87967800D01*
X153594965Y-88080635D01*
X153440629Y-88242138D01*
X153314743Y-88426680D01*
X153220688Y-88629305D01*
X153160989Y-88844570D01*
X153137251Y-89066695D01*
X153137548Y-89071848D01*
X153137548Y-89071851D01*
X153143011Y-89166590D01*
X153150110Y-89289715D01*
X153151247Y-89294761D01*
X153151248Y-89294767D01*
X153171119Y-89382939D01*
X153199222Y-89507639D01*
X153283266Y-89714616D01*
X153399987Y-89905088D01*
X153546250Y-90073938D01*
X153718126Y-90216632D01*
X153788595Y-90257811D01*
X153791445Y-90259476D01*
X153840169Y-90311114D01*
X153853240Y-90380897D01*
X153826509Y-90446669D01*
X153786055Y-90480027D01*
X153773607Y-90486507D01*
X153769474Y-90489610D01*
X153769471Y-90489612D01*
X153745247Y-90507800D01*
X153594965Y-90620635D01*
X153440629Y-90782138D01*
X153314743Y-90966680D01*
X153220688Y-91169305D01*
X153160989Y-91384570D01*
X153137251Y-91606695D01*
X127860418Y-91606695D01*
X127844852Y-91417361D01*
X127790431Y-91200702D01*
X127701354Y-90995840D01*
X127580014Y-90808277D01*
X127429670Y-90643051D01*
X127425619Y-90639852D01*
X127425615Y-90639848D01*
X127258414Y-90507800D01*
X127258410Y-90507798D01*
X127254359Y-90504598D01*
X127213053Y-90481796D01*
X127163084Y-90431364D01*
X127148312Y-90361921D01*
X127173428Y-90295516D01*
X127200780Y-90268909D01*
X127244603Y-90237650D01*
X127379860Y-90141173D01*
X127538096Y-89983489D01*
X127597594Y-89900689D01*
X127665435Y-89806277D01*
X127668453Y-89802077D01*
X127767430Y-89601811D01*
X127832370Y-89388069D01*
X127861529Y-89166590D01*
X127863156Y-89100000D01*
X127844852Y-88877361D01*
X127790431Y-88660702D01*
X127701354Y-88455840D01*
X127580014Y-88268277D01*
X127429670Y-88103051D01*
X127425619Y-88099852D01*
X127425615Y-88099848D01*
X127258414Y-87967800D01*
X127258410Y-87967798D01*
X127254359Y-87964598D01*
X127213053Y-87941796D01*
X127163084Y-87891364D01*
X127148312Y-87821921D01*
X127173428Y-87755516D01*
X127200780Y-87728909D01*
X127244603Y-87697650D01*
X127379860Y-87601173D01*
X127538096Y-87443489D01*
X127597594Y-87360689D01*
X127665435Y-87266277D01*
X127668453Y-87262077D01*
X127767430Y-87061811D01*
X127832370Y-86848069D01*
X127861529Y-86626590D01*
X127863156Y-86560000D01*
X127844852Y-86337361D01*
X127790431Y-86120702D01*
X127701354Y-85915840D01*
X127580014Y-85728277D01*
X127429670Y-85563051D01*
X127425619Y-85559852D01*
X127425615Y-85559848D01*
X127258414Y-85427800D01*
X127258410Y-85427798D01*
X127254359Y-85424598D01*
X127213053Y-85401796D01*
X127163084Y-85351364D01*
X127148312Y-85281921D01*
X127173428Y-85215516D01*
X127200780Y-85188909D01*
X127244603Y-85157650D01*
X127379860Y-85061173D01*
X127538096Y-84903489D01*
X127597594Y-84820689D01*
X127665435Y-84726277D01*
X127668453Y-84722077D01*
X127767430Y-84521811D01*
X127832370Y-84308069D01*
X127861529Y-84086590D01*
X127863156Y-84020000D01*
X127844852Y-83797361D01*
X127790431Y-83580702D01*
X127701354Y-83375840D01*
X127580014Y-83188277D01*
X127429670Y-83023051D01*
X127425619Y-83019852D01*
X127425615Y-83019848D01*
X127258414Y-82887800D01*
X127258410Y-82887798D01*
X127254359Y-82884598D01*
X127212569Y-82861529D01*
X127162598Y-82811097D01*
X127147826Y-82741654D01*
X127172942Y-82675248D01*
X127200294Y-82648641D01*
X127375328Y-82523792D01*
X127383200Y-82517139D01*
X127534052Y-82366812D01*
X127540730Y-82358965D01*
X127665003Y-82186020D01*
X127670313Y-82177183D01*
X127764670Y-81986267D01*
X127768469Y-81976672D01*
X127830377Y-81772910D01*
X127832555Y-81762837D01*
X127833986Y-81751962D01*
X127831775Y-81737778D01*
X127818617Y-81734000D01*
X125183225Y-81734000D01*
X125169694Y-81737973D01*
X125168257Y-81747966D01*
X125198565Y-81882446D01*
X125201645Y-81892275D01*
X125281770Y-82089603D01*
X125286413Y-82098794D01*
X125397694Y-82280388D01*
X125403777Y-82288699D01*
X125543213Y-82449667D01*
X125550580Y-82456883D01*
X125714434Y-82592916D01*
X125722881Y-82598831D01*
X125791969Y-82639203D01*
X125840693Y-82690842D01*
X125853764Y-82760625D01*
X125827033Y-82826396D01*
X125786584Y-82859752D01*
X125773607Y-82866507D01*
X125769474Y-82869610D01*
X125769471Y-82869612D01*
X125745247Y-82887800D01*
X125594965Y-83000635D01*
X125440629Y-83162138D01*
X125314743Y-83346680D01*
X125220688Y-83549305D01*
X125160989Y-83764570D01*
X125137251Y-83986695D01*
X125137548Y-83991848D01*
X125137548Y-83991851D01*
X125143011Y-84086590D01*
X125150110Y-84209715D01*
X125151247Y-84214761D01*
X125151248Y-84214767D01*
X125171119Y-84302939D01*
X125199222Y-84427639D01*
X125283266Y-84634616D01*
X125399987Y-84825088D01*
X125546250Y-84993938D01*
X125718126Y-85136632D01*
X125788595Y-85177811D01*
X125791445Y-85179476D01*
X125840169Y-85231114D01*
X125853240Y-85300897D01*
X125826509Y-85366669D01*
X125786055Y-85400027D01*
X125773607Y-85406507D01*
X125769474Y-85409610D01*
X125769471Y-85409612D01*
X125745247Y-85427800D01*
X125594965Y-85540635D01*
X125440629Y-85702138D01*
X125314743Y-85886680D01*
X125220688Y-86089305D01*
X125160989Y-86304570D01*
X125137251Y-86526695D01*
X125137548Y-86531848D01*
X125137548Y-86531851D01*
X125143011Y-86626590D01*
X125150110Y-86749715D01*
X125151247Y-86754761D01*
X125151248Y-86754767D01*
X125171119Y-86842939D01*
X125199222Y-86967639D01*
X125283266Y-87174616D01*
X125399987Y-87365088D01*
X125546250Y-87533938D01*
X125718126Y-87676632D01*
X125788595Y-87717811D01*
X125791445Y-87719476D01*
X125840169Y-87771114D01*
X125853240Y-87840897D01*
X125826509Y-87906669D01*
X125786055Y-87940027D01*
X125773607Y-87946507D01*
X125769474Y-87949610D01*
X125769471Y-87949612D01*
X125745247Y-87967800D01*
X125594965Y-88080635D01*
X125440629Y-88242138D01*
X125314743Y-88426680D01*
X125220688Y-88629305D01*
X125160989Y-88844570D01*
X125137251Y-89066695D01*
X125137548Y-89071848D01*
X125137548Y-89071851D01*
X125143011Y-89166590D01*
X125150110Y-89289715D01*
X125151247Y-89294761D01*
X125151248Y-89294767D01*
X125171119Y-89382939D01*
X125199222Y-89507639D01*
X125283266Y-89714616D01*
X125399987Y-89905088D01*
X125546250Y-90073938D01*
X125718126Y-90216632D01*
X125788595Y-90257811D01*
X125791445Y-90259476D01*
X125840169Y-90311114D01*
X125853240Y-90380897D01*
X125826509Y-90446669D01*
X125786055Y-90480027D01*
X125773607Y-90486507D01*
X125769474Y-90489610D01*
X125769471Y-90489612D01*
X125745247Y-90507800D01*
X125594965Y-90620635D01*
X125440629Y-90782138D01*
X125314743Y-90966680D01*
X125220688Y-91169305D01*
X125160989Y-91384570D01*
X125137251Y-91606695D01*
X118508500Y-91606695D01*
X118508500Y-78906695D01*
X125137251Y-78906695D01*
X125137548Y-78911848D01*
X125137548Y-78911851D01*
X125143011Y-79006590D01*
X125150110Y-79129715D01*
X125151247Y-79134761D01*
X125151248Y-79134767D01*
X125171119Y-79222939D01*
X125199222Y-79347639D01*
X125283266Y-79554616D01*
X125399987Y-79745088D01*
X125546250Y-79913938D01*
X125718126Y-80056632D01*
X125791955Y-80099774D01*
X125840679Y-80151412D01*
X125853750Y-80221195D01*
X125827019Y-80286967D01*
X125786562Y-80320327D01*
X125778457Y-80324546D01*
X125769738Y-80330036D01*
X125599433Y-80457905D01*
X125591726Y-80464748D01*
X125444590Y-80618717D01*
X125438104Y-80626727D01*
X125318098Y-80802649D01*
X125313000Y-80811623D01*
X125223338Y-81004783D01*
X125219775Y-81014470D01*
X125164389Y-81214183D01*
X125165912Y-81222607D01*
X125178292Y-81226000D01*
X127818344Y-81226000D01*
X127831875Y-81222027D01*
X127833180Y-81212947D01*
X127791214Y-81045875D01*
X127787894Y-81036124D01*
X127702972Y-80840814D01*
X127698105Y-80831739D01*
X127582426Y-80652926D01*
X127576136Y-80644757D01*
X127432806Y-80487240D01*
X127425273Y-80480215D01*
X127258139Y-80348222D01*
X127249556Y-80342520D01*
X127212602Y-80322120D01*
X127162631Y-80271687D01*
X127147859Y-80202245D01*
X127172975Y-80135839D01*
X127200327Y-80109232D01*
X127223797Y-80092491D01*
X127379860Y-79981173D01*
X127538096Y-79823489D01*
X127597594Y-79740689D01*
X127665435Y-79646277D01*
X127668453Y-79642077D01*
X127767430Y-79441811D01*
X127832370Y-79228069D01*
X127861529Y-79006590D01*
X127863156Y-78940000D01*
X127860418Y-78906695D01*
X153137251Y-78906695D01*
X153137548Y-78911848D01*
X153137548Y-78911851D01*
X153143011Y-79006590D01*
X153150110Y-79129715D01*
X153151247Y-79134761D01*
X153151248Y-79134767D01*
X153171119Y-79222939D01*
X153199222Y-79347639D01*
X153283266Y-79554616D01*
X153399987Y-79745088D01*
X153546250Y-79913938D01*
X153718126Y-80056632D01*
X153791955Y-80099774D01*
X153840679Y-80151412D01*
X153853750Y-80221195D01*
X153827019Y-80286967D01*
X153786562Y-80320327D01*
X153778457Y-80324546D01*
X153769738Y-80330036D01*
X153599433Y-80457905D01*
X153591726Y-80464748D01*
X153444590Y-80618717D01*
X153438104Y-80626727D01*
X153318098Y-80802649D01*
X153313000Y-80811623D01*
X153223338Y-81004783D01*
X153219775Y-81014470D01*
X153164389Y-81214183D01*
X153165912Y-81222607D01*
X153178292Y-81226000D01*
X155818344Y-81226000D01*
X155831875Y-81222027D01*
X155833180Y-81212947D01*
X155791214Y-81045875D01*
X155787894Y-81036124D01*
X155702972Y-80840814D01*
X155698105Y-80831739D01*
X155582426Y-80652926D01*
X155576136Y-80644757D01*
X155432806Y-80487240D01*
X155425273Y-80480215D01*
X155258139Y-80348222D01*
X155249556Y-80342520D01*
X155212602Y-80322120D01*
X155162631Y-80271687D01*
X155147859Y-80202245D01*
X155172975Y-80135839D01*
X155200327Y-80109232D01*
X155223797Y-80092491D01*
X155379860Y-79981173D01*
X155538096Y-79823489D01*
X155597594Y-79740689D01*
X155665435Y-79646277D01*
X155668453Y-79642077D01*
X155767430Y-79441811D01*
X155832370Y-79228069D01*
X155861529Y-79006590D01*
X155863156Y-78940000D01*
X155844852Y-78717361D01*
X155790431Y-78500702D01*
X155701354Y-78295840D01*
X155580014Y-78108277D01*
X155429670Y-77943051D01*
X155425619Y-77939852D01*
X155425615Y-77939848D01*
X155258414Y-77807800D01*
X155258410Y-77807798D01*
X155254359Y-77804598D01*
X155213053Y-77781796D01*
X155163084Y-77731364D01*
X155148312Y-77661921D01*
X155173428Y-77595516D01*
X155200780Y-77568909D01*
X155244603Y-77537650D01*
X155379860Y-77441173D01*
X155538096Y-77283489D01*
X155597594Y-77200689D01*
X155665435Y-77106277D01*
X155668453Y-77102077D01*
X155767430Y-76901811D01*
X155832370Y-76688069D01*
X155861529Y-76466590D01*
X155863156Y-76400000D01*
X155844852Y-76177361D01*
X155790431Y-75960702D01*
X155701354Y-75755840D01*
X155580014Y-75568277D01*
X155429670Y-75403051D01*
X155425619Y-75399852D01*
X155425615Y-75399848D01*
X155258414Y-75267800D01*
X155258410Y-75267798D01*
X155254359Y-75264598D01*
X155213053Y-75241796D01*
X155163084Y-75191364D01*
X155148312Y-75121921D01*
X155173428Y-75055516D01*
X155200780Y-75028909D01*
X155244603Y-74997650D01*
X155379860Y-74901173D01*
X155538096Y-74743489D01*
X155597594Y-74660689D01*
X155665435Y-74566277D01*
X155668453Y-74562077D01*
X155767430Y-74361811D01*
X155832370Y-74148069D01*
X155861529Y-73926590D01*
X155863156Y-73860000D01*
X155844852Y-73637361D01*
X155790431Y-73420702D01*
X155701354Y-73215840D01*
X155580014Y-73028277D01*
X155429670Y-72863051D01*
X155425619Y-72859852D01*
X155425615Y-72859848D01*
X155258414Y-72727800D01*
X155258410Y-72727798D01*
X155254359Y-72724598D01*
X155213053Y-72701796D01*
X155163084Y-72651364D01*
X155148312Y-72581921D01*
X155173428Y-72515516D01*
X155200780Y-72488909D01*
X155244603Y-72457650D01*
X155379860Y-72361173D01*
X155538096Y-72203489D01*
X155597594Y-72120689D01*
X155665435Y-72026277D01*
X155668453Y-72022077D01*
X155767430Y-71821811D01*
X155832370Y-71608069D01*
X155861529Y-71386590D01*
X155863156Y-71320000D01*
X155844852Y-71097361D01*
X155790431Y-70880702D01*
X155701354Y-70675840D01*
X155580014Y-70488277D01*
X155429670Y-70323051D01*
X155425619Y-70319852D01*
X155425615Y-70319848D01*
X155258414Y-70187800D01*
X155258410Y-70187798D01*
X155254359Y-70184598D01*
X155212569Y-70161529D01*
X155162598Y-70111097D01*
X155147826Y-70041654D01*
X155172942Y-69975248D01*
X155200294Y-69948641D01*
X155375328Y-69823792D01*
X155383200Y-69817139D01*
X155534052Y-69666812D01*
X155540730Y-69658965D01*
X155665003Y-69486020D01*
X155670313Y-69477183D01*
X155764670Y-69286267D01*
X155768469Y-69276672D01*
X155830377Y-69072910D01*
X155832555Y-69062837D01*
X155833986Y-69051962D01*
X155831775Y-69037778D01*
X155818617Y-69034000D01*
X153183225Y-69034000D01*
X153169694Y-69037973D01*
X153168257Y-69047966D01*
X153198565Y-69182446D01*
X153201645Y-69192275D01*
X153281770Y-69389603D01*
X153286413Y-69398794D01*
X153397694Y-69580388D01*
X153403777Y-69588699D01*
X153543213Y-69749667D01*
X153550580Y-69756883D01*
X153714434Y-69892916D01*
X153722881Y-69898831D01*
X153791969Y-69939203D01*
X153840693Y-69990842D01*
X153853764Y-70060625D01*
X153827033Y-70126396D01*
X153786584Y-70159752D01*
X153773607Y-70166507D01*
X153769474Y-70169610D01*
X153769471Y-70169612D01*
X153745247Y-70187800D01*
X153594965Y-70300635D01*
X153440629Y-70462138D01*
X153314743Y-70646680D01*
X153220688Y-70849305D01*
X153160989Y-71064570D01*
X153137251Y-71286695D01*
X153137548Y-71291848D01*
X153137548Y-71291851D01*
X153143011Y-71386590D01*
X153150110Y-71509715D01*
X153151247Y-71514761D01*
X153151248Y-71514767D01*
X153171119Y-71602939D01*
X153199222Y-71727639D01*
X153283266Y-71934616D01*
X153399987Y-72125088D01*
X153546250Y-72293938D01*
X153718126Y-72436632D01*
X153788595Y-72477811D01*
X153791445Y-72479476D01*
X153840169Y-72531114D01*
X153853240Y-72600897D01*
X153826509Y-72666669D01*
X153786055Y-72700027D01*
X153773607Y-72706507D01*
X153769474Y-72709610D01*
X153769471Y-72709612D01*
X153745247Y-72727800D01*
X153594965Y-72840635D01*
X153440629Y-73002138D01*
X153314743Y-73186680D01*
X153220688Y-73389305D01*
X153160989Y-73604570D01*
X153137251Y-73826695D01*
X153137548Y-73831848D01*
X153137548Y-73831851D01*
X153143011Y-73926590D01*
X153150110Y-74049715D01*
X153151247Y-74054761D01*
X153151248Y-74054767D01*
X153171119Y-74142939D01*
X153199222Y-74267639D01*
X153283266Y-74474616D01*
X153399987Y-74665088D01*
X153546250Y-74833938D01*
X153718126Y-74976632D01*
X153788595Y-75017811D01*
X153791445Y-75019476D01*
X153840169Y-75071114D01*
X153853240Y-75140897D01*
X153826509Y-75206669D01*
X153786055Y-75240027D01*
X153773607Y-75246507D01*
X153769474Y-75249610D01*
X153769471Y-75249612D01*
X153745247Y-75267800D01*
X153594965Y-75380635D01*
X153440629Y-75542138D01*
X153314743Y-75726680D01*
X153220688Y-75929305D01*
X153160989Y-76144570D01*
X153137251Y-76366695D01*
X153137548Y-76371848D01*
X153137548Y-76371851D01*
X153143011Y-76466590D01*
X153150110Y-76589715D01*
X153151247Y-76594761D01*
X153151248Y-76594767D01*
X153171119Y-76682939D01*
X153199222Y-76807639D01*
X153283266Y-77014616D01*
X153399987Y-77205088D01*
X153546250Y-77373938D01*
X153718126Y-77516632D01*
X153788595Y-77557811D01*
X153791445Y-77559476D01*
X153840169Y-77611114D01*
X153853240Y-77680897D01*
X153826509Y-77746669D01*
X153786055Y-77780027D01*
X153773607Y-77786507D01*
X153769474Y-77789610D01*
X153769471Y-77789612D01*
X153745247Y-77807800D01*
X153594965Y-77920635D01*
X153440629Y-78082138D01*
X153314743Y-78266680D01*
X153220688Y-78469305D01*
X153160989Y-78684570D01*
X153137251Y-78906695D01*
X127860418Y-78906695D01*
X127844852Y-78717361D01*
X127790431Y-78500702D01*
X127701354Y-78295840D01*
X127580014Y-78108277D01*
X127429670Y-77943051D01*
X127425619Y-77939852D01*
X127425615Y-77939848D01*
X127258414Y-77807800D01*
X127258410Y-77807798D01*
X127254359Y-77804598D01*
X127213053Y-77781796D01*
X127163084Y-77731364D01*
X127148312Y-77661921D01*
X127173428Y-77595516D01*
X127200780Y-77568909D01*
X127244603Y-77537650D01*
X127379860Y-77441173D01*
X127538096Y-77283489D01*
X127597594Y-77200689D01*
X127665435Y-77106277D01*
X127668453Y-77102077D01*
X127767430Y-76901811D01*
X127832370Y-76688069D01*
X127861529Y-76466590D01*
X127863156Y-76400000D01*
X127844852Y-76177361D01*
X127790431Y-75960702D01*
X127701354Y-75755840D01*
X127580014Y-75568277D01*
X127429670Y-75403051D01*
X127425619Y-75399852D01*
X127425615Y-75399848D01*
X127258414Y-75267800D01*
X127258410Y-75267798D01*
X127254359Y-75264598D01*
X127213053Y-75241796D01*
X127163084Y-75191364D01*
X127148312Y-75121921D01*
X127173428Y-75055516D01*
X127200780Y-75028909D01*
X127244603Y-74997650D01*
X127379860Y-74901173D01*
X127538096Y-74743489D01*
X127597594Y-74660689D01*
X127665435Y-74566277D01*
X127668453Y-74562077D01*
X127767430Y-74361811D01*
X127832370Y-74148069D01*
X127861529Y-73926590D01*
X127863156Y-73860000D01*
X127844852Y-73637361D01*
X127790431Y-73420702D01*
X127701354Y-73215840D01*
X127580014Y-73028277D01*
X127429670Y-72863051D01*
X127425619Y-72859852D01*
X127425615Y-72859848D01*
X127258414Y-72727800D01*
X127258410Y-72727798D01*
X127254359Y-72724598D01*
X127213053Y-72701796D01*
X127163084Y-72651364D01*
X127148312Y-72581921D01*
X127173428Y-72515516D01*
X127200780Y-72488909D01*
X127244603Y-72457650D01*
X127379860Y-72361173D01*
X127538096Y-72203489D01*
X127597594Y-72120689D01*
X127665435Y-72026277D01*
X127668453Y-72022077D01*
X127767430Y-71821811D01*
X127832370Y-71608069D01*
X127861529Y-71386590D01*
X127863156Y-71320000D01*
X127844852Y-71097361D01*
X127790431Y-70880702D01*
X127701354Y-70675840D01*
X127580014Y-70488277D01*
X127429670Y-70323051D01*
X127425619Y-70319852D01*
X127425615Y-70319848D01*
X127258414Y-70187800D01*
X127258410Y-70187798D01*
X127254359Y-70184598D01*
X127212569Y-70161529D01*
X127162598Y-70111097D01*
X127147826Y-70041654D01*
X127172942Y-69975248D01*
X127200294Y-69948641D01*
X127375328Y-69823792D01*
X127383200Y-69817139D01*
X127534052Y-69666812D01*
X127540730Y-69658965D01*
X127665003Y-69486020D01*
X127670313Y-69477183D01*
X127764670Y-69286267D01*
X127768469Y-69276672D01*
X127830377Y-69072910D01*
X127832555Y-69062837D01*
X127833986Y-69051962D01*
X127831775Y-69037778D01*
X127818617Y-69034000D01*
X125183225Y-69034000D01*
X125169694Y-69037973D01*
X125168257Y-69047966D01*
X125198565Y-69182446D01*
X125201645Y-69192275D01*
X125281770Y-69389603D01*
X125286413Y-69398794D01*
X125397694Y-69580388D01*
X125403777Y-69588699D01*
X125543213Y-69749667D01*
X125550580Y-69756883D01*
X125714434Y-69892916D01*
X125722881Y-69898831D01*
X125791969Y-69939203D01*
X125840693Y-69990842D01*
X125853764Y-70060625D01*
X125827033Y-70126396D01*
X125786584Y-70159752D01*
X125773607Y-70166507D01*
X125769474Y-70169610D01*
X125769471Y-70169612D01*
X125745247Y-70187800D01*
X125594965Y-70300635D01*
X125440629Y-70462138D01*
X125314743Y-70646680D01*
X125220688Y-70849305D01*
X125160989Y-71064570D01*
X125137251Y-71286695D01*
X125137548Y-71291848D01*
X125137548Y-71291851D01*
X125143011Y-71386590D01*
X125150110Y-71509715D01*
X125151247Y-71514761D01*
X125151248Y-71514767D01*
X125171119Y-71602939D01*
X125199222Y-71727639D01*
X125283266Y-71934616D01*
X125399987Y-72125088D01*
X125546250Y-72293938D01*
X125718126Y-72436632D01*
X125788595Y-72477811D01*
X125791445Y-72479476D01*
X125840169Y-72531114D01*
X125853240Y-72600897D01*
X125826509Y-72666669D01*
X125786055Y-72700027D01*
X125773607Y-72706507D01*
X125769474Y-72709610D01*
X125769471Y-72709612D01*
X125745247Y-72727800D01*
X125594965Y-72840635D01*
X125440629Y-73002138D01*
X125314743Y-73186680D01*
X125220688Y-73389305D01*
X125160989Y-73604570D01*
X125137251Y-73826695D01*
X125137548Y-73831848D01*
X125137548Y-73831851D01*
X125143011Y-73926590D01*
X125150110Y-74049715D01*
X125151247Y-74054761D01*
X125151248Y-74054767D01*
X125171119Y-74142939D01*
X125199222Y-74267639D01*
X125283266Y-74474616D01*
X125399987Y-74665088D01*
X125546250Y-74833938D01*
X125718126Y-74976632D01*
X125788595Y-75017811D01*
X125791445Y-75019476D01*
X125840169Y-75071114D01*
X125853240Y-75140897D01*
X125826509Y-75206669D01*
X125786055Y-75240027D01*
X125773607Y-75246507D01*
X125769474Y-75249610D01*
X125769471Y-75249612D01*
X125745247Y-75267800D01*
X125594965Y-75380635D01*
X125440629Y-75542138D01*
X125314743Y-75726680D01*
X125220688Y-75929305D01*
X125160989Y-76144570D01*
X125137251Y-76366695D01*
X125137548Y-76371848D01*
X125137548Y-76371851D01*
X125143011Y-76466590D01*
X125150110Y-76589715D01*
X125151247Y-76594761D01*
X125151248Y-76594767D01*
X125171119Y-76682939D01*
X125199222Y-76807639D01*
X125283266Y-77014616D01*
X125399987Y-77205088D01*
X125546250Y-77373938D01*
X125718126Y-77516632D01*
X125788595Y-77557811D01*
X125791445Y-77559476D01*
X125840169Y-77611114D01*
X125853240Y-77680897D01*
X125826509Y-77746669D01*
X125786055Y-77780027D01*
X125773607Y-77786507D01*
X125769474Y-77789610D01*
X125769471Y-77789612D01*
X125745247Y-77807800D01*
X125594965Y-77920635D01*
X125440629Y-78082138D01*
X125314743Y-78266680D01*
X125220688Y-78469305D01*
X125160989Y-78684570D01*
X125137251Y-78906695D01*
X118508500Y-78906695D01*
X118508500Y-66206695D01*
X125137251Y-66206695D01*
X125137548Y-66211848D01*
X125137548Y-66211851D01*
X125143011Y-66306590D01*
X125150110Y-66429715D01*
X125151247Y-66434761D01*
X125151248Y-66434767D01*
X125171119Y-66522939D01*
X125199222Y-66647639D01*
X125283266Y-66854616D01*
X125399987Y-67045088D01*
X125546250Y-67213938D01*
X125718126Y-67356632D01*
X125791955Y-67399774D01*
X125840679Y-67451412D01*
X125853750Y-67521195D01*
X125827019Y-67586967D01*
X125786562Y-67620327D01*
X125778457Y-67624546D01*
X125769738Y-67630036D01*
X125599433Y-67757905D01*
X125591726Y-67764748D01*
X125444590Y-67918717D01*
X125438104Y-67926727D01*
X125318098Y-68102649D01*
X125313000Y-68111623D01*
X125223338Y-68304783D01*
X125219775Y-68314470D01*
X125164389Y-68514183D01*
X125165912Y-68522607D01*
X125178292Y-68526000D01*
X127818344Y-68526000D01*
X127831875Y-68522027D01*
X127833180Y-68512947D01*
X127791214Y-68345875D01*
X127787894Y-68336124D01*
X127702972Y-68140814D01*
X127698105Y-68131739D01*
X127582426Y-67952926D01*
X127576136Y-67944757D01*
X127432806Y-67787240D01*
X127425273Y-67780215D01*
X127258139Y-67648222D01*
X127249556Y-67642520D01*
X127212602Y-67622120D01*
X127162631Y-67571687D01*
X127147859Y-67502245D01*
X127172975Y-67435839D01*
X127200327Y-67409232D01*
X127223797Y-67392491D01*
X127379860Y-67281173D01*
X127538096Y-67123489D01*
X127597594Y-67040689D01*
X127665435Y-66946277D01*
X127668453Y-66942077D01*
X127767430Y-66741811D01*
X127832370Y-66528069D01*
X127861529Y-66306590D01*
X127863156Y-66240000D01*
X127860418Y-66206695D01*
X153137251Y-66206695D01*
X153137548Y-66211848D01*
X153137548Y-66211851D01*
X153143011Y-66306590D01*
X153150110Y-66429715D01*
X153151247Y-66434761D01*
X153151248Y-66434767D01*
X153171119Y-66522939D01*
X153199222Y-66647639D01*
X153283266Y-66854616D01*
X153399987Y-67045088D01*
X153546250Y-67213938D01*
X153718126Y-67356632D01*
X153791955Y-67399774D01*
X153840679Y-67451412D01*
X153853750Y-67521195D01*
X153827019Y-67586967D01*
X153786562Y-67620327D01*
X153778457Y-67624546D01*
X153769738Y-67630036D01*
X153599433Y-67757905D01*
X153591726Y-67764748D01*
X153444590Y-67918717D01*
X153438104Y-67926727D01*
X153318098Y-68102649D01*
X153313000Y-68111623D01*
X153223338Y-68304783D01*
X153219775Y-68314470D01*
X153164389Y-68514183D01*
X153165912Y-68522607D01*
X153178292Y-68526000D01*
X155818344Y-68526000D01*
X155831875Y-68522027D01*
X155833180Y-68512947D01*
X155791214Y-68345875D01*
X155787894Y-68336124D01*
X155702972Y-68140814D01*
X155698105Y-68131739D01*
X155582426Y-67952926D01*
X155576136Y-67944757D01*
X155432806Y-67787240D01*
X155425273Y-67780215D01*
X155258139Y-67648222D01*
X155249556Y-67642520D01*
X155212602Y-67622120D01*
X155162631Y-67571687D01*
X155147859Y-67502245D01*
X155172975Y-67435839D01*
X155200327Y-67409232D01*
X155223797Y-67392491D01*
X155379860Y-67281173D01*
X155538096Y-67123489D01*
X155597594Y-67040689D01*
X155665435Y-66946277D01*
X155668453Y-66942077D01*
X155767430Y-66741811D01*
X155832370Y-66528069D01*
X155861529Y-66306590D01*
X155863156Y-66240000D01*
X155844852Y-66017361D01*
X155790431Y-65800702D01*
X155701354Y-65595840D01*
X155580014Y-65408277D01*
X155429670Y-65243051D01*
X155425619Y-65239852D01*
X155425615Y-65239848D01*
X155258414Y-65107800D01*
X155258410Y-65107798D01*
X155254359Y-65104598D01*
X155213053Y-65081796D01*
X155163084Y-65031364D01*
X155148312Y-64961921D01*
X155173428Y-64895516D01*
X155200780Y-64868909D01*
X155244603Y-64837650D01*
X155379860Y-64741173D01*
X155538096Y-64583489D01*
X155597594Y-64500689D01*
X155665435Y-64406277D01*
X155668453Y-64402077D01*
X155767430Y-64201811D01*
X155832370Y-63988069D01*
X155861529Y-63766590D01*
X155863156Y-63700000D01*
X155844852Y-63477361D01*
X155790431Y-63260702D01*
X155701354Y-63055840D01*
X155580014Y-62868277D01*
X155429670Y-62703051D01*
X155425619Y-62699852D01*
X155425615Y-62699848D01*
X155258414Y-62567800D01*
X155258410Y-62567798D01*
X155254359Y-62564598D01*
X155213053Y-62541796D01*
X155163084Y-62491364D01*
X155148312Y-62421921D01*
X155173428Y-62355516D01*
X155200780Y-62328909D01*
X155244603Y-62297650D01*
X155379860Y-62201173D01*
X155538096Y-62043489D01*
X155597594Y-61960689D01*
X155665435Y-61866277D01*
X155668453Y-61862077D01*
X155767430Y-61661811D01*
X155832370Y-61448069D01*
X155861529Y-61226590D01*
X155863156Y-61160000D01*
X155844852Y-60937361D01*
X155790431Y-60720702D01*
X155701354Y-60515840D01*
X155580014Y-60328277D01*
X155429670Y-60163051D01*
X155425619Y-60159852D01*
X155425615Y-60159848D01*
X155258414Y-60027800D01*
X155258410Y-60027798D01*
X155254359Y-60024598D01*
X155213053Y-60001796D01*
X155163084Y-59951364D01*
X155148312Y-59881921D01*
X155173428Y-59815516D01*
X155200780Y-59788909D01*
X155244603Y-59757650D01*
X155379860Y-59661173D01*
X155538096Y-59503489D01*
X155597594Y-59420689D01*
X155665435Y-59326277D01*
X155668453Y-59322077D01*
X155767430Y-59121811D01*
X155832370Y-58908069D01*
X155861529Y-58686590D01*
X155863156Y-58620000D01*
X155844852Y-58397361D01*
X155790431Y-58180702D01*
X155701354Y-57975840D01*
X155580014Y-57788277D01*
X155429670Y-57623051D01*
X155425619Y-57619852D01*
X155425615Y-57619848D01*
X155258414Y-57487800D01*
X155258410Y-57487798D01*
X155254359Y-57484598D01*
X155212569Y-57461529D01*
X155162598Y-57411097D01*
X155147826Y-57341654D01*
X155172942Y-57275248D01*
X155200294Y-57248641D01*
X155375328Y-57123792D01*
X155383200Y-57117139D01*
X155534052Y-56966812D01*
X155540730Y-56958965D01*
X155665003Y-56786020D01*
X155670313Y-56777183D01*
X155764670Y-56586267D01*
X155768469Y-56576672D01*
X155830377Y-56372910D01*
X155832555Y-56362837D01*
X155833986Y-56351962D01*
X155831775Y-56337778D01*
X155818617Y-56334000D01*
X153183225Y-56334000D01*
X153169694Y-56337973D01*
X153168257Y-56347966D01*
X153198565Y-56482446D01*
X153201645Y-56492275D01*
X153281770Y-56689603D01*
X153286413Y-56698794D01*
X153397694Y-56880388D01*
X153403777Y-56888699D01*
X153543213Y-57049667D01*
X153550580Y-57056883D01*
X153714434Y-57192916D01*
X153722881Y-57198831D01*
X153791969Y-57239203D01*
X153840693Y-57290842D01*
X153853764Y-57360625D01*
X153827033Y-57426396D01*
X153786584Y-57459752D01*
X153773607Y-57466507D01*
X153769474Y-57469610D01*
X153769471Y-57469612D01*
X153745247Y-57487800D01*
X153594965Y-57600635D01*
X153440629Y-57762138D01*
X153314743Y-57946680D01*
X153220688Y-58149305D01*
X153160989Y-58364570D01*
X153137251Y-58586695D01*
X153137548Y-58591848D01*
X153137548Y-58591851D01*
X153143011Y-58686590D01*
X153150110Y-58809715D01*
X153151247Y-58814761D01*
X153151248Y-58814767D01*
X153171119Y-58902939D01*
X153199222Y-59027639D01*
X153283266Y-59234616D01*
X153399987Y-59425088D01*
X153546250Y-59593938D01*
X153718126Y-59736632D01*
X153788595Y-59777811D01*
X153791445Y-59779476D01*
X153840169Y-59831114D01*
X153853240Y-59900897D01*
X153826509Y-59966669D01*
X153786055Y-60000027D01*
X153773607Y-60006507D01*
X153769474Y-60009610D01*
X153769471Y-60009612D01*
X153745247Y-60027800D01*
X153594965Y-60140635D01*
X153440629Y-60302138D01*
X153314743Y-60486680D01*
X153220688Y-60689305D01*
X153160989Y-60904570D01*
X153137251Y-61126695D01*
X153137548Y-61131848D01*
X153137548Y-61131851D01*
X153143011Y-61226590D01*
X153150110Y-61349715D01*
X153151247Y-61354761D01*
X153151248Y-61354767D01*
X153171119Y-61442939D01*
X153199222Y-61567639D01*
X153283266Y-61774616D01*
X153399987Y-61965088D01*
X153546250Y-62133938D01*
X153718126Y-62276632D01*
X153788595Y-62317811D01*
X153791445Y-62319476D01*
X153840169Y-62371114D01*
X153853240Y-62440897D01*
X153826509Y-62506669D01*
X153786055Y-62540027D01*
X153773607Y-62546507D01*
X153769474Y-62549610D01*
X153769471Y-62549612D01*
X153745247Y-62567800D01*
X153594965Y-62680635D01*
X153440629Y-62842138D01*
X153314743Y-63026680D01*
X153220688Y-63229305D01*
X153160989Y-63444570D01*
X153137251Y-63666695D01*
X153137548Y-63671848D01*
X153137548Y-63671851D01*
X153143011Y-63766590D01*
X153150110Y-63889715D01*
X153151247Y-63894761D01*
X153151248Y-63894767D01*
X153171119Y-63982939D01*
X153199222Y-64107639D01*
X153283266Y-64314616D01*
X153399987Y-64505088D01*
X153546250Y-64673938D01*
X153718126Y-64816632D01*
X153788595Y-64857811D01*
X153791445Y-64859476D01*
X153840169Y-64911114D01*
X153853240Y-64980897D01*
X153826509Y-65046669D01*
X153786055Y-65080027D01*
X153773607Y-65086507D01*
X153769474Y-65089610D01*
X153769471Y-65089612D01*
X153745247Y-65107800D01*
X153594965Y-65220635D01*
X153440629Y-65382138D01*
X153314743Y-65566680D01*
X153220688Y-65769305D01*
X153160989Y-65984570D01*
X153137251Y-66206695D01*
X127860418Y-66206695D01*
X127844852Y-66017361D01*
X127790431Y-65800702D01*
X127701354Y-65595840D01*
X127580014Y-65408277D01*
X127429670Y-65243051D01*
X127425619Y-65239852D01*
X127425615Y-65239848D01*
X127258414Y-65107800D01*
X127258410Y-65107798D01*
X127254359Y-65104598D01*
X127213053Y-65081796D01*
X127163084Y-65031364D01*
X127148312Y-64961921D01*
X127173428Y-64895516D01*
X127200780Y-64868909D01*
X127244603Y-64837650D01*
X127379860Y-64741173D01*
X127538096Y-64583489D01*
X127597594Y-64500689D01*
X127665435Y-64406277D01*
X127668453Y-64402077D01*
X127767430Y-64201811D01*
X127832370Y-63988069D01*
X127861529Y-63766590D01*
X127863156Y-63700000D01*
X127844852Y-63477361D01*
X127790431Y-63260702D01*
X127701354Y-63055840D01*
X127580014Y-62868277D01*
X127429670Y-62703051D01*
X127425619Y-62699852D01*
X127425615Y-62699848D01*
X127258414Y-62567800D01*
X127258410Y-62567798D01*
X127254359Y-62564598D01*
X127213053Y-62541796D01*
X127163084Y-62491364D01*
X127148312Y-62421921D01*
X127173428Y-62355516D01*
X127200780Y-62328909D01*
X127244603Y-62297650D01*
X127379860Y-62201173D01*
X127538096Y-62043489D01*
X127597594Y-61960689D01*
X127665435Y-61866277D01*
X127668453Y-61862077D01*
X127767430Y-61661811D01*
X127832370Y-61448069D01*
X127861529Y-61226590D01*
X127863156Y-61160000D01*
X127844852Y-60937361D01*
X127790431Y-60720702D01*
X127701354Y-60515840D01*
X127580014Y-60328277D01*
X127429670Y-60163051D01*
X127425619Y-60159852D01*
X127425615Y-60159848D01*
X127258414Y-60027800D01*
X127258410Y-60027798D01*
X127254359Y-60024598D01*
X127213053Y-60001796D01*
X127163084Y-59951364D01*
X127148312Y-59881921D01*
X127173428Y-59815516D01*
X127200780Y-59788909D01*
X127244603Y-59757650D01*
X127379860Y-59661173D01*
X127538096Y-59503489D01*
X127597594Y-59420689D01*
X127665435Y-59326277D01*
X127668453Y-59322077D01*
X127767430Y-59121811D01*
X127832370Y-58908069D01*
X127861529Y-58686590D01*
X127863156Y-58620000D01*
X127844852Y-58397361D01*
X127790431Y-58180702D01*
X127701354Y-57975840D01*
X127580014Y-57788277D01*
X127429670Y-57623051D01*
X127425619Y-57619852D01*
X127425615Y-57619848D01*
X127258414Y-57487800D01*
X127258410Y-57487798D01*
X127254359Y-57484598D01*
X127212569Y-57461529D01*
X127162598Y-57411097D01*
X127147826Y-57341654D01*
X127172942Y-57275248D01*
X127200294Y-57248641D01*
X127375328Y-57123792D01*
X127383200Y-57117139D01*
X127534052Y-56966812D01*
X127540730Y-56958965D01*
X127665003Y-56786020D01*
X127670313Y-56777183D01*
X127764670Y-56586267D01*
X127768469Y-56576672D01*
X127830377Y-56372910D01*
X127832555Y-56362837D01*
X127833986Y-56351962D01*
X127831775Y-56337778D01*
X127818617Y-56334000D01*
X125183225Y-56334000D01*
X125169694Y-56337973D01*
X125168257Y-56347966D01*
X125198565Y-56482446D01*
X125201645Y-56492275D01*
X125281770Y-56689603D01*
X125286413Y-56698794D01*
X125397694Y-56880388D01*
X125403777Y-56888699D01*
X125543213Y-57049667D01*
X125550580Y-57056883D01*
X125714434Y-57192916D01*
X125722881Y-57198831D01*
X125791969Y-57239203D01*
X125840693Y-57290842D01*
X125853764Y-57360625D01*
X125827033Y-57426396D01*
X125786584Y-57459752D01*
X125773607Y-57466507D01*
X125769474Y-57469610D01*
X125769471Y-57469612D01*
X125745247Y-57487800D01*
X125594965Y-57600635D01*
X125440629Y-57762138D01*
X125314743Y-57946680D01*
X125220688Y-58149305D01*
X125160989Y-58364570D01*
X125137251Y-58586695D01*
X125137548Y-58591848D01*
X125137548Y-58591851D01*
X125143011Y-58686590D01*
X125150110Y-58809715D01*
X125151247Y-58814761D01*
X125151248Y-58814767D01*
X125171119Y-58902939D01*
X125199222Y-59027639D01*
X125283266Y-59234616D01*
X125399987Y-59425088D01*
X125546250Y-59593938D01*
X125718126Y-59736632D01*
X125788595Y-59777811D01*
X125791445Y-59779476D01*
X125840169Y-59831114D01*
X125853240Y-59900897D01*
X125826509Y-59966669D01*
X125786055Y-60000027D01*
X125773607Y-60006507D01*
X125769474Y-60009610D01*
X125769471Y-60009612D01*
X125745247Y-60027800D01*
X125594965Y-60140635D01*
X125440629Y-60302138D01*
X125314743Y-60486680D01*
X125220688Y-60689305D01*
X125160989Y-60904570D01*
X125137251Y-61126695D01*
X125137548Y-61131848D01*
X125137548Y-61131851D01*
X125143011Y-61226590D01*
X125150110Y-61349715D01*
X125151247Y-61354761D01*
X125151248Y-61354767D01*
X125171119Y-61442939D01*
X125199222Y-61567639D01*
X125283266Y-61774616D01*
X125399987Y-61965088D01*
X125546250Y-62133938D01*
X125718126Y-62276632D01*
X125788595Y-62317811D01*
X125791445Y-62319476D01*
X125840169Y-62371114D01*
X125853240Y-62440897D01*
X125826509Y-62506669D01*
X125786055Y-62540027D01*
X125773607Y-62546507D01*
X125769474Y-62549610D01*
X125769471Y-62549612D01*
X125745247Y-62567800D01*
X125594965Y-62680635D01*
X125440629Y-62842138D01*
X125314743Y-63026680D01*
X125220688Y-63229305D01*
X125160989Y-63444570D01*
X125137251Y-63666695D01*
X125137548Y-63671848D01*
X125137548Y-63671851D01*
X125143011Y-63766590D01*
X125150110Y-63889715D01*
X125151247Y-63894761D01*
X125151248Y-63894767D01*
X125171119Y-63982939D01*
X125199222Y-64107639D01*
X125283266Y-64314616D01*
X125399987Y-64505088D01*
X125546250Y-64673938D01*
X125718126Y-64816632D01*
X125788595Y-64857811D01*
X125791445Y-64859476D01*
X125840169Y-64911114D01*
X125853240Y-64980897D01*
X125826509Y-65046669D01*
X125786055Y-65080027D01*
X125773607Y-65086507D01*
X125769474Y-65089610D01*
X125769471Y-65089612D01*
X125745247Y-65107800D01*
X125594965Y-65220635D01*
X125440629Y-65382138D01*
X125314743Y-65566680D01*
X125220688Y-65769305D01*
X125160989Y-65984570D01*
X125137251Y-66206695D01*
X118508500Y-66206695D01*
X118508500Y-50053250D01*
X118510246Y-50032345D01*
X118512770Y-50017344D01*
X118512770Y-50017341D01*
X118513576Y-50012552D01*
X118513729Y-50000000D01*
X118513040Y-49995188D01*
X118512723Y-49990327D01*
X118513008Y-49990308D01*
X118512607Y-49963549D01*
X118519234Y-49904736D01*
X118525513Y-49877229D01*
X118552485Y-49800147D01*
X118564727Y-49774726D01*
X118608178Y-49705574D01*
X118625770Y-49683515D01*
X118683515Y-49625770D01*
X118705574Y-49608178D01*
X118774726Y-49564727D01*
X118800147Y-49552485D01*
X118877228Y-49525513D01*
X118904736Y-49519234D01*
X118960226Y-49512982D01*
X118975868Y-49513077D01*
X118975879Y-49512200D01*
X118984851Y-49512310D01*
X118993724Y-49513691D01*
X119002626Y-49512527D01*
X119002628Y-49512527D01*
X119017951Y-49510523D01*
X119025286Y-49509564D01*
X119041621Y-49508500D01*
X125279774Y-49508500D01*
X125347895Y-49528502D01*
G37*
%TD.AperFunction*%
%TD*%
M02*
