%TF.GenerationSoftware,KiCad,Pcbnew,(6.0.4)*%
%TF.CreationDate,2022-08-11T18:10:44+02:00*%
%TF.ProjectId,mta1-usb-ch552-programmer,6d746131-2d75-4736-922d-63683535322d,rev?*%
%TF.SameCoordinates,Original*%
%TF.FileFunction,Paste,Top*%
%TF.FilePolarity,Positive*%
%FSLAX46Y46*%
G04 Gerber Fmt 4.6, Leading zero omitted, Abs format (unit mm)*
G04 Created by KiCad (PCBNEW (6.0.4)) date 2022-08-11 18:10:44*
%MOMM*%
%LPD*%
G01*
G04 APERTURE LIST*
G04 Aperture macros list*
%AMRoundRect*
0 Rectangle with rounded corners*
0 $1 Rounding radius*
0 $2 $3 $4 $5 $6 $7 $8 $9 X,Y pos of 4 corners*
0 Add a 4 corners polygon primitive as box body*
4,1,4,$2,$3,$4,$5,$6,$7,$8,$9,$2,$3,0*
0 Add four circle primitives for the rounded corners*
1,1,$1+$1,$2,$3*
1,1,$1+$1,$4,$5*
1,1,$1+$1,$6,$7*
1,1,$1+$1,$8,$9*
0 Add four rect primitives between the rounded corners*
20,1,$1+$1,$2,$3,$4,$5,0*
20,1,$1+$1,$4,$5,$6,$7,0*
20,1,$1+$1,$6,$7,$8,$9,0*
20,1,$1+$1,$8,$9,$2,$3,0*%
G04 Aperture macros list end*
%ADD10RoundRect,0.112500X-0.112500X0.112500X-0.112500X-0.112500X0.112500X-0.112500X0.112500X0.112500X0*%
%ADD11RoundRect,0.250000X0.625000X-0.375000X0.625000X0.375000X-0.625000X0.375000X-0.625000X-0.375000X0*%
%ADD12RoundRect,0.112500X0.112500X-0.112500X0.112500X0.112500X-0.112500X0.112500X-0.112500X-0.112500X0*%
%ADD13RoundRect,0.150000X-0.587500X-0.150000X0.587500X-0.150000X0.587500X0.150000X-0.587500X0.150000X0*%
%ADD14RoundRect,0.112500X-0.112500X-0.112500X0.112500X-0.112500X0.112500X0.112500X-0.112500X0.112500X0*%
%ADD15RoundRect,0.112500X0.112500X0.112500X-0.112500X0.112500X-0.112500X-0.112500X0.112500X-0.112500X0*%
G04 APERTURE END LIST*
D10*
%TO.C,R5*%
X153000000Y-109600000D03*
X153000000Y-110400000D03*
%TD*%
%TO.C,R4*%
X154500000Y-109600000D03*
X154500000Y-110400000D03*
%TD*%
%TO.C,R6*%
X151500000Y-109600000D03*
X151500000Y-110400000D03*
%TD*%
D11*
%TO.C,F1*%
X121450000Y-121500000D03*
X121450000Y-118700000D03*
%TD*%
D12*
%TO.C,R12*%
X139500000Y-110400000D03*
X139500000Y-109600000D03*
%TD*%
%TO.C,R14*%
X142500000Y-110400000D03*
X142500000Y-109600000D03*
%TD*%
%TO.C,R11*%
X138000000Y-110400000D03*
X138000000Y-109600000D03*
%TD*%
%TO.C,R13*%
X141000000Y-110400000D03*
X141000000Y-109600000D03*
%TD*%
D13*
%TO.C,Q1*%
X121482500Y-109540000D03*
X121482500Y-111440000D03*
X123357500Y-110490000D03*
%TD*%
D14*
%TO.C,R8*%
X125830000Y-113030000D03*
X126630000Y-113030000D03*
%TD*%
D13*
%TO.C,Q2*%
X121482500Y-113350000D03*
X121482500Y-115250000D03*
X123357500Y-114300000D03*
%TD*%
D12*
%TO.C,R9*%
X135000000Y-110400000D03*
X135000000Y-109600000D03*
%TD*%
%TO.C,R10*%
X136500000Y-110400000D03*
X136500000Y-109600000D03*
%TD*%
D10*
%TO.C,R1*%
X159000000Y-109600000D03*
X159000000Y-110400000D03*
%TD*%
D12*
%TO.C,R16*%
X145500000Y-110400000D03*
X145500000Y-109600000D03*
%TD*%
D10*
%TO.C,R3*%
X156000000Y-109600000D03*
X156000000Y-110400000D03*
%TD*%
%TO.C,R17*%
X121500000Y-106700000D03*
X121500000Y-107500000D03*
%TD*%
D12*
%TO.C,R15*%
X144000000Y-110400000D03*
X144000000Y-109600000D03*
%TD*%
D15*
%TO.C,R7*%
X126630000Y-110490000D03*
X125830000Y-110490000D03*
%TD*%
D10*
%TO.C,R2*%
X157500000Y-109600000D03*
X157500000Y-110400000D03*
%TD*%
M02*
