M48
; DRILL file {KiCad (6.0.4)} date Thu Aug 11 18:10:47 2022
; FORMAT={-:-/ absolute / inch / decimal}
; #@! TF.CreationDate,2022-08-11T18:10:47+02:00
; #@! TF.GenerationSoftware,Kicad,Pcbnew,(6.0.4)
; #@! TF.FileFunction,Plated,1,2,PTH
FMAT,2
INCH
; #@! TA.AperFunction,Plated,PTH,ViaDrill
T1C0.0118
; #@! TA.AperFunction,Plated,PTH,ComponentDrill
T2C0.0394
; #@! TA.AperFunction,Plated,PTH,ComponentDrill
T3C0.0472
%
G90
G05
T1
X4.7283Y-4.3898
X5.0276Y-4.3504
X5.5315Y-4.0236
T2
X4.9803Y-2.0079
X4.9803Y-2.1079
X4.9803Y-2.2079
X4.9803Y-2.3079
X4.9803Y-2.4079
X4.9803Y-2.5079
X4.9803Y-2.6079
X4.9803Y-2.7079
X4.9803Y-2.8079
X4.9803Y-2.9079
X4.9803Y-3.0079
X4.9803Y-3.1079
X4.9803Y-3.2079
X4.9803Y-3.3079
X4.9803Y-3.4079
X4.9803Y-3.5079
X4.9803Y-3.6079
X4.9803Y-3.7079
X4.9803Y-3.8079
X4.9803Y-3.9079
X6.0827Y-2.0079
X6.0827Y-2.1079
X6.0827Y-2.2079
X6.0827Y-2.3079
X6.0827Y-2.4079
X6.0827Y-2.5079
X6.0827Y-2.6079
X6.0827Y-2.7079
X6.0827Y-2.8079
X6.0827Y-2.9079
X6.0827Y-3.0079
X6.0827Y-3.1079
X6.0827Y-3.2079
X6.0827Y-3.3079
X6.0827Y-3.4079
X6.0827Y-3.5079
X6.0827Y-3.6079
X6.0827Y-3.7079
X6.0827Y-3.8079
X6.0827Y-3.9079
T3
X5.0591Y-4.7441
X5.0591Y-5.1772
X5.1378Y-4.7441
X5.1378Y-5.1772
X5.2165Y-4.7441
X5.2165Y-5.1772
X5.2953Y-4.7441
X5.2953Y-5.1772
X5.374Y-4.7441
X5.374Y-5.1772
X5.4528Y-4.7441
X5.4528Y-5.1772
X5.5315Y-4.7441
X5.5315Y-5.1772
X5.6102Y-4.7441
X5.6102Y-5.1772
X5.689Y-4.7441
X5.689Y-5.1772
X5.7677Y-4.7441
X5.7677Y-5.1772
X5.8465Y-4.7441
X5.8465Y-5.1772
X5.9252Y-4.7441
X5.9252Y-5.1772
X6.0039Y-4.7441
X6.0039Y-5.1772
T0
M30
