%TF.GenerationSoftware,KiCad,Pcbnew,(6.0.4)*%
%TF.CreationDate,2022-08-11T18:10:45+02:00*%
%TF.ProjectId,mta1-usb-ch552-programmer,6d746131-2d75-4736-922d-63683535322d,rev?*%
%TF.SameCoordinates,Original*%
%TF.FileFunction,Soldermask,Bot*%
%TF.FilePolarity,Negative*%
%FSLAX46Y46*%
G04 Gerber Fmt 4.6, Leading zero omitted, Abs format (unit mm)*
G04 Created by KiCad (PCBNEW (6.0.4)) date 2022-08-11 18:10:45*
%MOMM*%
%LPD*%
G01*
G04 APERTURE LIST*
G04 Aperture macros list*
%AMRoundRect*
0 Rectangle with rounded corners*
0 $1 Rounding radius*
0 $2 $3 $4 $5 $6 $7 $8 $9 X,Y pos of 4 corners*
0 Add a 4 corners polygon primitive as box body*
4,1,4,$2,$3,$4,$5,$6,$7,$8,$9,$2,$3,0*
0 Add four circle primitives for the rounded corners*
1,1,$1+$1,$2,$3*
1,1,$1+$1,$4,$5*
1,1,$1+$1,$6,$7*
1,1,$1+$1,$8,$9*
0 Add four rect primitives between the rounded corners*
20,1,$1+$1,$2,$3,$4,$5,0*
20,1,$1+$1,$4,$5,$6,$7,0*
20,1,$1+$1,$6,$7,$8,$9,0*
20,1,$1+$1,$8,$9,$2,$3,0*%
G04 Aperture macros list end*
%ADD10O,1.500000X1.500000*%
%ADD11O,1.800000X1.800000*%
%ADD12R,1.700000X1.700000*%
%ADD13O,1.700000X1.700000*%
%ADD14C,3.200000*%
%ADD15RoundRect,0.850000X0.000000X-0.400000X0.000000X-0.400000X0.000000X0.400000X0.000000X0.400000X0*%
G04 APERTURE END LIST*
D10*
%TO.C,U2*%
X142925000Y-54030000D03*
X138075000Y-54030000D03*
D11*
X143225000Y-51000000D03*
X137775000Y-51000000D03*
%TD*%
D12*
%TO.C,J2*%
X154500000Y-51000000D03*
D13*
X154500000Y-53540000D03*
X154500000Y-56080000D03*
X154500000Y-58620000D03*
X154500000Y-61160000D03*
X154500000Y-63700000D03*
X154500000Y-66240000D03*
X154500000Y-68780000D03*
X154500000Y-71320000D03*
X154500000Y-73860000D03*
X154500000Y-76400000D03*
X154500000Y-78940000D03*
X154500000Y-81480000D03*
X154500000Y-84020000D03*
X154500000Y-86560000D03*
X154500000Y-89100000D03*
X154500000Y-91640000D03*
X154500000Y-94180000D03*
X154500000Y-96720000D03*
X154500000Y-99260000D03*
%TD*%
D12*
%TO.C,J1*%
X126500000Y-51000000D03*
D13*
X126500000Y-53540000D03*
X126500000Y-56080000D03*
X126500000Y-58620000D03*
X126500000Y-61160000D03*
X126500000Y-63700000D03*
X126500000Y-66240000D03*
X126500000Y-68780000D03*
X126500000Y-71320000D03*
X126500000Y-73860000D03*
X126500000Y-76400000D03*
X126500000Y-78940000D03*
X126500000Y-81480000D03*
X126500000Y-84020000D03*
X126500000Y-86560000D03*
X126500000Y-89100000D03*
X126500000Y-91640000D03*
X126500000Y-94180000D03*
X126500000Y-96720000D03*
X126500000Y-99260000D03*
%TD*%
D14*
%TO.C,U1*%
X150250000Y-126000000D03*
X130750000Y-126000000D03*
D15*
X128500000Y-131500000D03*
X130500000Y-131500000D03*
X132500000Y-131500000D03*
X134500000Y-131500000D03*
X136500000Y-131500000D03*
X138500000Y-131500000D03*
X140500000Y-131500000D03*
X142500000Y-131500000D03*
X144500000Y-131500000D03*
X146500000Y-131500000D03*
X148500000Y-131500000D03*
X150500000Y-131500000D03*
X152500000Y-131500000D03*
X152500000Y-120500000D03*
X150500000Y-120500000D03*
X148500000Y-120500000D03*
X146500000Y-120500000D03*
X144500000Y-120500000D03*
X142500000Y-120500000D03*
X140500000Y-120500000D03*
X138500000Y-120500000D03*
X136500000Y-120500000D03*
X134500000Y-120500000D03*
X132500000Y-120500000D03*
X130500000Y-120500000D03*
X128500000Y-120500000D03*
%TD*%
M02*
