%TF.GenerationSoftware,KiCad,Pcbnew,(6.0.4)*%
%TF.CreationDate,2022-08-13T13:22:29+02:00*%
%TF.ProjectId,mta1_usb,6d746131-5f75-4736-922e-6b696361645f,rev?*%
%TF.SameCoordinates,Original*%
%TF.FileFunction,Copper,L2,Inr*%
%TF.FilePolarity,Positive*%
%FSLAX46Y46*%
G04 Gerber Fmt 4.6, Leading zero omitted, Abs format (unit mm)*
G04 Created by KiCad (PCBNEW (6.0.4)) date 2022-08-13 13:22:29*
%MOMM*%
%LPD*%
G01*
G04 APERTURE LIST*
%TA.AperFunction,ViaPad*%
%ADD10C,0.600000*%
%TD*%
G04 APERTURE END LIST*
D10*
%TO.N,GND*%
X108951563Y-98787032D03*
X113700000Y-91262489D03*
X126850000Y-89100000D03*
X109499292Y-92457430D03*
X105643750Y-92350000D03*
X116550000Y-100100000D03*
X102200000Y-90500000D03*
X107017510Y-95517510D03*
X112200000Y-91600000D03*
X117900000Y-96100000D03*
X116900000Y-95100000D03*
X114190950Y-98140450D03*
X110450000Y-90350000D03*
X116107816Y-87836928D03*
X119850000Y-94100000D03*
X118900000Y-93100000D03*
X102800000Y-90200000D03*
X102987526Y-89456771D03*
X124200000Y-91350000D03*
X102200000Y-91150000D03*
X114136045Y-100136045D03*
X111450000Y-91600000D03*
X113250000Y-91750000D03*
X114521610Y-99650000D03*
X117900000Y-94100000D03*
X105593750Y-89200000D03*
X118900000Y-95100000D03*
X122700000Y-89500000D03*
X105191730Y-98653959D03*
X120500000Y-87950000D03*
X119850000Y-96100000D03*
X102400000Y-98000000D03*
X102400000Y-97350000D03*
X124500000Y-92000000D03*
X120900000Y-95100000D03*
X111400000Y-89850000D03*
X115800000Y-92050000D03*
X118850000Y-97100000D03*
%TO.N,+5V*%
X105543750Y-88200000D03*
X105593750Y-91250000D03*
X102500000Y-91950000D03*
X103500000Y-98000000D03*
X102300000Y-92650000D03*
X102350000Y-95700000D03*
X102800000Y-88050000D03*
X102350000Y-96450000D03*
%TO.N,+3V3*%
X114700000Y-93400000D03*
X123371981Y-90871981D03*
X111400000Y-88850000D03*
X119365412Y-89676255D03*
X107200000Y-98550000D03*
X123522528Y-93677472D03*
X116836928Y-98892184D03*
X109550000Y-96150000D03*
X114599988Y-90338489D03*
X109543750Y-91350000D03*
X109350000Y-97050000D03*
X109400000Y-95350000D03*
X120050000Y-90000000D03*
X126850000Y-98600000D03*
X113700000Y-90150000D03*
%TO.N,+2V5*%
X111400000Y-90800000D03*
X113100000Y-93550000D03*
X108100000Y-98800000D03*
%TO.N,+1V2*%
X122900238Y-93064220D03*
X115875683Y-97957964D03*
X110732513Y-99969111D03*
X109750000Y-88100000D03*
%TO.N,APP_CDONE*%
X122750000Y-90450000D03*
%TO.N,APP_CRESET*%
X116400000Y-90250000D03*
X120896377Y-90771778D03*
%TO.N,APP_ICE_SCK*%
X113500000Y-88388000D03*
X117562000Y-90050000D03*
%TO.N,SPI_VCC_OK*%
X107400000Y-93450000D03*
X102500000Y-99950000D03*
%TO.N,TX*%
X110707631Y-98894377D03*
%TO.N,Net-(P1-PadA5)*%
X102346800Y-94903200D03*
X103206258Y-91637342D03*
%TO.N,APP_ICE_SS*%
X118183368Y-88496982D03*
%TO.N,APP_ICE_MOSI*%
X115986240Y-89094334D03*
%TO.N,APP_ICE_MISO*%
X118984579Y-90263000D03*
X114756811Y-87993272D03*
%TO.N,RX*%
X112300000Y-98850000D03*
%TO.N,RTS*%
X115001531Y-97152723D03*
X115150000Y-100050000D03*
%TO.N,CTS*%
X117134427Y-99569435D03*
X114400000Y-96762000D03*
%TO.N,APP_GPIO1*%
X118700000Y-100050000D03*
%TO.N,APP_GPIO2*%
X120500000Y-100050000D03*
%TO.N,APP_GPIO3*%
X124000000Y-98400500D03*
%TO.N,APP_GPIO4*%
X124796800Y-98396800D03*
%TD*%
%TA.AperFunction,Conductor*%
%TO.N,GND*%
G36*
X102363036Y-87720502D02*
G01*
X102409529Y-87774158D01*
X102419633Y-87844432D01*
X102407182Y-87883702D01*
X102394783Y-87908037D01*
X102394782Y-87908041D01*
X102390281Y-87916874D01*
X102388731Y-87926663D01*
X102388730Y-87926665D01*
X102383761Y-87958041D01*
X102369196Y-88050000D01*
X102370747Y-88059793D01*
X102384790Y-88148454D01*
X102390281Y-88183126D01*
X102451472Y-88303220D01*
X102546780Y-88398528D01*
X102666874Y-88459719D01*
X102676663Y-88461269D01*
X102676665Y-88461270D01*
X102790207Y-88479253D01*
X102800000Y-88480804D01*
X102809793Y-88479253D01*
X102923335Y-88461270D01*
X102923337Y-88461269D01*
X102933126Y-88459719D01*
X103053220Y-88398528D01*
X103148528Y-88303220D01*
X103209719Y-88183126D01*
X103215211Y-88148454D01*
X103229253Y-88059793D01*
X103230804Y-88050000D01*
X103216239Y-87958041D01*
X103211270Y-87926665D01*
X103211269Y-87926663D01*
X103209719Y-87916874D01*
X103205218Y-87908041D01*
X103205217Y-87908037D01*
X103192818Y-87883702D01*
X103179714Y-87813925D01*
X103206415Y-87748140D01*
X103264443Y-87707235D01*
X103305085Y-87700500D01*
X105137312Y-87700500D01*
X105205433Y-87720502D01*
X105251926Y-87774158D01*
X105262030Y-87844432D01*
X105232536Y-87909012D01*
X105226407Y-87915595D01*
X105195222Y-87946780D01*
X105134031Y-88066874D01*
X105132481Y-88076663D01*
X105132480Y-88076665D01*
X105130335Y-88090207D01*
X105112946Y-88200000D01*
X105114497Y-88209793D01*
X105127896Y-88294388D01*
X105134031Y-88333126D01*
X105195222Y-88453220D01*
X105290530Y-88548528D01*
X105410624Y-88609719D01*
X105420413Y-88611269D01*
X105420415Y-88611270D01*
X105533957Y-88629253D01*
X105543750Y-88630804D01*
X105553543Y-88629253D01*
X105667085Y-88611270D01*
X105667087Y-88611269D01*
X105676876Y-88609719D01*
X105796970Y-88548528D01*
X105892278Y-88453220D01*
X105953469Y-88333126D01*
X105959605Y-88294388D01*
X105973003Y-88209793D01*
X105974554Y-88200000D01*
X105957165Y-88090207D01*
X105955020Y-88076665D01*
X105955019Y-88076663D01*
X105953469Y-88066874D01*
X105892278Y-87946780D01*
X105861093Y-87915595D01*
X105827067Y-87853283D01*
X105832132Y-87782468D01*
X105874679Y-87725632D01*
X105941199Y-87700821D01*
X105950188Y-87700500D01*
X109270392Y-87700500D01*
X109338513Y-87720502D01*
X109385006Y-87774158D01*
X109395110Y-87844432D01*
X109382659Y-87883702D01*
X109340281Y-87966874D01*
X109319196Y-88100000D01*
X109320747Y-88109793D01*
X109326158Y-88143954D01*
X109340281Y-88233126D01*
X109401472Y-88353220D01*
X109496780Y-88448528D01*
X109616874Y-88509719D01*
X109626663Y-88511269D01*
X109626665Y-88511270D01*
X109740207Y-88529253D01*
X109750000Y-88530804D01*
X109759793Y-88529253D01*
X109873335Y-88511270D01*
X109873337Y-88511269D01*
X109883126Y-88509719D01*
X110003220Y-88448528D01*
X110063748Y-88388000D01*
X113069196Y-88388000D01*
X113070747Y-88397793D01*
X113088279Y-88508483D01*
X113090281Y-88521126D01*
X113151472Y-88641220D01*
X113246780Y-88736528D01*
X113366874Y-88797719D01*
X113376663Y-88799269D01*
X113376665Y-88799270D01*
X113490207Y-88817253D01*
X113500000Y-88818804D01*
X113509793Y-88817253D01*
X113623335Y-88799270D01*
X113623337Y-88799269D01*
X113633126Y-88797719D01*
X113753220Y-88736528D01*
X113848528Y-88641220D01*
X113909719Y-88521126D01*
X113911722Y-88508483D01*
X113913544Y-88496982D01*
X117752564Y-88496982D01*
X117754115Y-88506775D01*
X117770420Y-88609719D01*
X117773649Y-88630108D01*
X117834840Y-88750202D01*
X117930148Y-88845510D01*
X118050242Y-88906701D01*
X118060031Y-88908251D01*
X118060033Y-88908252D01*
X118173575Y-88926235D01*
X118183368Y-88927786D01*
X118193161Y-88926235D01*
X118306703Y-88908252D01*
X118306705Y-88908251D01*
X118316494Y-88906701D01*
X118436588Y-88845510D01*
X118531896Y-88750202D01*
X118593087Y-88630108D01*
X118596317Y-88609719D01*
X118612621Y-88506775D01*
X118614172Y-88496982D01*
X118607241Y-88453220D01*
X118594638Y-88373647D01*
X118594637Y-88373645D01*
X118593087Y-88363856D01*
X118531896Y-88243762D01*
X118436588Y-88148454D01*
X118316494Y-88087263D01*
X118306705Y-88085713D01*
X118306703Y-88085712D01*
X118193161Y-88067729D01*
X118183368Y-88066178D01*
X118173575Y-88067729D01*
X118060033Y-88085712D01*
X118060031Y-88085713D01*
X118050242Y-88087263D01*
X117930148Y-88148454D01*
X117834840Y-88243762D01*
X117773649Y-88363856D01*
X117772099Y-88373645D01*
X117772098Y-88373647D01*
X117759495Y-88453220D01*
X117752564Y-88496982D01*
X113913544Y-88496982D01*
X113929253Y-88397793D01*
X113930804Y-88388000D01*
X113925581Y-88355023D01*
X113911270Y-88264665D01*
X113911269Y-88264663D01*
X113909719Y-88254874D01*
X113848528Y-88134780D01*
X113753220Y-88039472D01*
X113633126Y-87978281D01*
X113623337Y-87976731D01*
X113623335Y-87976730D01*
X113509793Y-87958747D01*
X113500000Y-87957196D01*
X113490207Y-87958747D01*
X113376665Y-87976730D01*
X113376663Y-87976731D01*
X113366874Y-87978281D01*
X113246780Y-88039472D01*
X113151472Y-88134780D01*
X113090281Y-88254874D01*
X113088731Y-88264663D01*
X113088730Y-88264665D01*
X113074419Y-88355023D01*
X113069196Y-88388000D01*
X110063748Y-88388000D01*
X110098528Y-88353220D01*
X110159719Y-88233126D01*
X110173843Y-88143954D01*
X110179253Y-88109793D01*
X110180804Y-88100000D01*
X110159719Y-87966874D01*
X110117341Y-87883702D01*
X110104237Y-87813926D01*
X110130937Y-87748142D01*
X110188964Y-87707235D01*
X110229608Y-87700500D01*
X114227171Y-87700500D01*
X114295292Y-87720502D01*
X114341785Y-87774158D01*
X114351889Y-87844432D01*
X114349194Y-87856020D01*
X114347092Y-87860146D01*
X114345541Y-87869939D01*
X114345540Y-87869942D01*
X114332563Y-87951878D01*
X114326007Y-87993272D01*
X114327558Y-88003065D01*
X114341607Y-88091764D01*
X114347092Y-88126398D01*
X114408283Y-88246492D01*
X114503591Y-88341800D01*
X114623685Y-88402991D01*
X114633474Y-88404541D01*
X114633476Y-88404542D01*
X114747018Y-88422525D01*
X114756811Y-88424076D01*
X114766604Y-88422525D01*
X114880146Y-88404542D01*
X114880148Y-88404541D01*
X114889937Y-88402991D01*
X115010031Y-88341800D01*
X115105339Y-88246492D01*
X115166530Y-88126398D01*
X115172016Y-88091764D01*
X115186064Y-88003065D01*
X115187615Y-87993272D01*
X115181059Y-87951878D01*
X115168082Y-87869942D01*
X115168081Y-87869939D01*
X115166530Y-87860146D01*
X115166463Y-87860015D01*
X115164590Y-87794470D01*
X115201251Y-87733672D01*
X115264963Y-87702346D01*
X115286451Y-87700500D01*
X125455152Y-87700500D01*
X125474536Y-87702000D01*
X125485567Y-87703718D01*
X125485571Y-87703718D01*
X125494440Y-87705099D01*
X125506517Y-87703520D01*
X125531837Y-87702777D01*
X125668377Y-87712543D01*
X125711526Y-87715629D01*
X125729320Y-87718188D01*
X125927741Y-87761352D01*
X125944990Y-87766416D01*
X125988028Y-87782468D01*
X126135248Y-87837378D01*
X126151595Y-87844843D01*
X126329817Y-87942161D01*
X126344934Y-87951876D01*
X126378135Y-87976730D01*
X126507496Y-88073568D01*
X126521082Y-88085341D01*
X126664659Y-88228918D01*
X126676432Y-88242504D01*
X126697280Y-88270354D01*
X126796599Y-88403028D01*
X126798122Y-88405063D01*
X126807839Y-88420183D01*
X126900441Y-88589769D01*
X126905155Y-88598402D01*
X126912622Y-88614752D01*
X126919200Y-88632388D01*
X126983584Y-88805010D01*
X126988648Y-88822259D01*
X127031812Y-89020680D01*
X127034371Y-89038474D01*
X127046760Y-89211696D01*
X127046142Y-89226590D01*
X127046392Y-89226593D01*
X127046282Y-89235569D01*
X127044901Y-89244440D01*
X127046065Y-89253342D01*
X127046065Y-89253345D01*
X127048436Y-89271473D01*
X127049500Y-89287810D01*
X127049500Y-89574000D01*
X127029498Y-89642121D01*
X126975842Y-89688614D01*
X126923500Y-89700000D01*
X124900000Y-89700000D01*
X124900000Y-97842036D01*
X124879998Y-97910157D01*
X124826342Y-97956650D01*
X124793711Y-97966485D01*
X124673465Y-97985530D01*
X124673463Y-97985531D01*
X124663674Y-97987081D01*
X124543580Y-98048272D01*
X124485645Y-98106207D01*
X124423333Y-98140233D01*
X124352518Y-98135168D01*
X124307455Y-98106207D01*
X124253220Y-98051972D01*
X124133126Y-97990781D01*
X124123337Y-97989231D01*
X124123335Y-97989230D01*
X124009793Y-97971247D01*
X124000000Y-97969696D01*
X123990207Y-97971247D01*
X123876665Y-97989230D01*
X123876663Y-97989231D01*
X123866874Y-97990781D01*
X123746780Y-98051972D01*
X123651472Y-98147280D01*
X123590281Y-98267374D01*
X123588731Y-98277163D01*
X123588730Y-98277165D01*
X123570747Y-98390707D01*
X123569196Y-98400500D01*
X123570747Y-98410293D01*
X123586019Y-98506714D01*
X123590281Y-98533626D01*
X123651472Y-98653720D01*
X123746780Y-98749028D01*
X123866874Y-98810219D01*
X123876663Y-98811769D01*
X123876665Y-98811770D01*
X123990207Y-98829753D01*
X124000000Y-98831304D01*
X124009793Y-98829753D01*
X124123335Y-98811770D01*
X124123337Y-98811769D01*
X124133126Y-98810219D01*
X124253220Y-98749028D01*
X124311155Y-98691093D01*
X124373467Y-98657067D01*
X124444282Y-98662132D01*
X124489345Y-98691093D01*
X124543580Y-98745328D01*
X124663674Y-98806519D01*
X124673463Y-98808069D01*
X124673465Y-98808070D01*
X124787007Y-98826053D01*
X124796800Y-98827604D01*
X124806593Y-98826053D01*
X124920135Y-98808070D01*
X124920137Y-98808069D01*
X124929926Y-98806519D01*
X125050020Y-98745328D01*
X125145328Y-98650020D01*
X125206519Y-98529926D01*
X125210196Y-98506714D01*
X125218182Y-98456289D01*
X125248595Y-98392136D01*
X125308863Y-98354609D01*
X125342631Y-98350000D01*
X126311265Y-98350000D01*
X126379386Y-98370002D01*
X126425879Y-98423658D01*
X126435714Y-98495710D01*
X126419196Y-98600000D01*
X126420747Y-98609793D01*
X126437830Y-98717649D01*
X126440281Y-98733126D01*
X126501472Y-98853220D01*
X126596780Y-98948528D01*
X126716874Y-99009719D01*
X126726663Y-99011269D01*
X126726665Y-99011270D01*
X126840207Y-99029253D01*
X126850000Y-99030804D01*
X126859793Y-99029253D01*
X126863926Y-99029253D01*
X126932047Y-99049255D01*
X126978540Y-99102911D01*
X126988644Y-99173185D01*
X126981982Y-99199285D01*
X126961120Y-99255218D01*
X126938792Y-99315085D01*
X126912624Y-99385244D01*
X126905157Y-99401595D01*
X126816535Y-99563893D01*
X126807841Y-99579814D01*
X126798124Y-99594934D01*
X126727132Y-99689769D01*
X126676432Y-99757496D01*
X126664659Y-99771082D01*
X126521082Y-99914659D01*
X126507495Y-99926432D01*
X126437068Y-99979154D01*
X126344937Y-100048122D01*
X126329817Y-100057839D01*
X126151595Y-100155157D01*
X126135248Y-100162622D01*
X126026400Y-100203220D01*
X125944990Y-100233584D01*
X125927741Y-100238648D01*
X125729320Y-100281812D01*
X125711526Y-100284371D01*
X125538304Y-100296760D01*
X125523410Y-100296142D01*
X125523407Y-100296392D01*
X125514431Y-100296282D01*
X125505560Y-100294901D01*
X125496658Y-100296065D01*
X125496655Y-100296065D01*
X125478527Y-100298436D01*
X125462190Y-100299500D01*
X121038815Y-100299500D01*
X120970694Y-100279498D01*
X120924201Y-100225842D01*
X120914366Y-100153790D01*
X120929253Y-100059794D01*
X120929253Y-100059793D01*
X120930804Y-100050000D01*
X120918870Y-99974653D01*
X120911270Y-99926665D01*
X120911269Y-99926663D01*
X120909719Y-99916874D01*
X120848528Y-99796780D01*
X120753220Y-99701472D01*
X120633126Y-99640281D01*
X120623337Y-99638731D01*
X120623335Y-99638730D01*
X120509793Y-99620747D01*
X120500000Y-99619196D01*
X120490207Y-99620747D01*
X120376665Y-99638730D01*
X120376663Y-99638731D01*
X120366874Y-99640281D01*
X120246780Y-99701472D01*
X120151472Y-99796780D01*
X120090281Y-99916874D01*
X120088731Y-99926663D01*
X120088730Y-99926665D01*
X120081130Y-99974653D01*
X120069196Y-100050000D01*
X120070747Y-100059793D01*
X120070747Y-100059794D01*
X120085634Y-100153790D01*
X120076534Y-100224201D01*
X120030812Y-100278515D01*
X119961185Y-100299500D01*
X119238815Y-100299500D01*
X119170694Y-100279498D01*
X119124201Y-100225842D01*
X119114366Y-100153790D01*
X119129253Y-100059794D01*
X119129253Y-100059793D01*
X119130804Y-100050000D01*
X119118870Y-99974653D01*
X119111270Y-99926665D01*
X119111269Y-99926663D01*
X119109719Y-99916874D01*
X119048528Y-99796780D01*
X118953220Y-99701472D01*
X118833126Y-99640281D01*
X118823337Y-99638731D01*
X118823335Y-99638730D01*
X118709793Y-99620747D01*
X118700000Y-99619196D01*
X118690207Y-99620747D01*
X118576665Y-99638730D01*
X118576663Y-99638731D01*
X118566874Y-99640281D01*
X118446780Y-99701472D01*
X118351472Y-99796780D01*
X118290281Y-99916874D01*
X118288731Y-99926663D01*
X118288730Y-99926665D01*
X118281130Y-99974653D01*
X118269196Y-100050000D01*
X118270747Y-100059793D01*
X118270747Y-100059794D01*
X118285634Y-100153790D01*
X118276534Y-100224201D01*
X118230812Y-100278515D01*
X118161185Y-100299500D01*
X115688815Y-100299500D01*
X115620694Y-100279498D01*
X115574201Y-100225842D01*
X115564366Y-100153790D01*
X115579253Y-100059794D01*
X115579253Y-100059793D01*
X115580804Y-100050000D01*
X115568870Y-99974653D01*
X115561270Y-99926665D01*
X115561269Y-99926663D01*
X115559719Y-99916874D01*
X115498528Y-99796780D01*
X115403220Y-99701472D01*
X115283126Y-99640281D01*
X115273337Y-99638731D01*
X115273335Y-99638730D01*
X115159793Y-99620747D01*
X115150000Y-99619196D01*
X115140207Y-99620747D01*
X115026665Y-99638730D01*
X115026663Y-99638731D01*
X115016874Y-99640281D01*
X114896780Y-99701472D01*
X114801472Y-99796780D01*
X114740281Y-99916874D01*
X114738731Y-99926663D01*
X114738730Y-99926665D01*
X114731130Y-99974653D01*
X114719196Y-100050000D01*
X114720747Y-100059793D01*
X114720747Y-100059794D01*
X114735634Y-100153790D01*
X114726534Y-100224201D01*
X114680812Y-100278515D01*
X114611185Y-100299500D01*
X111247335Y-100299500D01*
X111179214Y-100279498D01*
X111132721Y-100225842D01*
X111122617Y-100155568D01*
X111135068Y-100116297D01*
X111142232Y-100102237D01*
X111150506Y-100050000D01*
X111161766Y-99978904D01*
X111163317Y-99969111D01*
X111155781Y-99921528D01*
X111143783Y-99845776D01*
X111143782Y-99845774D01*
X111142232Y-99835985D01*
X111081041Y-99715891D01*
X110985733Y-99620583D01*
X110865639Y-99559392D01*
X110855848Y-99557841D01*
X110855847Y-99557841D01*
X110847127Y-99556460D01*
X110833001Y-99554223D01*
X110768849Y-99523812D01*
X110731321Y-99463544D01*
X110732334Y-99392555D01*
X110771565Y-99333382D01*
X110822055Y-99310322D01*
X110821532Y-99308712D01*
X110830965Y-99305647D01*
X110840757Y-99304096D01*
X110960851Y-99242905D01*
X111056159Y-99147597D01*
X111117350Y-99027503D01*
X111123986Y-98985609D01*
X111136884Y-98904170D01*
X111138435Y-98894377D01*
X111133027Y-98860231D01*
X111131407Y-98850000D01*
X111869196Y-98850000D01*
X111870747Y-98859793D01*
X111886921Y-98961909D01*
X111890281Y-98983126D01*
X111951472Y-99103220D01*
X112046780Y-99198528D01*
X112166874Y-99259719D01*
X112176663Y-99261269D01*
X112176665Y-99261270D01*
X112290207Y-99279253D01*
X112300000Y-99280804D01*
X112309793Y-99279253D01*
X112423335Y-99261270D01*
X112423337Y-99261269D01*
X112433126Y-99259719D01*
X112553220Y-99198528D01*
X112648528Y-99103220D01*
X112709719Y-98983126D01*
X112713080Y-98961909D01*
X112724123Y-98892184D01*
X116406124Y-98892184D01*
X116407675Y-98901977D01*
X116424740Y-99009719D01*
X116427209Y-99025310D01*
X116488400Y-99145404D01*
X116583708Y-99240712D01*
X116624056Y-99261270D01*
X116664721Y-99281990D01*
X116716336Y-99330738D01*
X116733402Y-99399653D01*
X116727929Y-99429986D01*
X116724708Y-99436309D01*
X116723158Y-99446098D01*
X116723157Y-99446100D01*
X116707528Y-99544782D01*
X116703623Y-99569435D01*
X116705174Y-99579228D01*
X116711726Y-99620593D01*
X116724708Y-99702561D01*
X116785899Y-99822655D01*
X116881207Y-99917963D01*
X117001301Y-99979154D01*
X117011090Y-99980704D01*
X117011092Y-99980705D01*
X117124634Y-99998688D01*
X117134427Y-100000239D01*
X117144220Y-99998688D01*
X117257762Y-99980705D01*
X117257764Y-99980704D01*
X117267553Y-99979154D01*
X117387647Y-99917963D01*
X117482955Y-99822655D01*
X117544146Y-99702561D01*
X117557129Y-99620593D01*
X117563680Y-99579228D01*
X117565231Y-99569435D01*
X117561326Y-99544782D01*
X117545697Y-99446100D01*
X117545696Y-99446098D01*
X117544146Y-99436309D01*
X117482955Y-99316215D01*
X117387647Y-99220907D01*
X117306633Y-99179629D01*
X117255019Y-99130881D01*
X117237953Y-99061966D01*
X117243426Y-99031633D01*
X117246647Y-99025310D01*
X117249117Y-99009719D01*
X117266181Y-98901977D01*
X117267732Y-98892184D01*
X117252243Y-98794388D01*
X117248198Y-98768849D01*
X117248197Y-98768847D01*
X117246647Y-98759058D01*
X117185456Y-98638964D01*
X117090148Y-98543656D01*
X116970054Y-98482465D01*
X116960265Y-98480915D01*
X116960263Y-98480914D01*
X116846721Y-98462931D01*
X116836928Y-98461380D01*
X116827135Y-98462931D01*
X116713593Y-98480914D01*
X116713591Y-98480915D01*
X116703802Y-98482465D01*
X116583708Y-98543656D01*
X116488400Y-98638964D01*
X116427209Y-98759058D01*
X116425659Y-98768847D01*
X116425658Y-98768849D01*
X116421613Y-98794388D01*
X116406124Y-98892184D01*
X112724123Y-98892184D01*
X112729253Y-98859793D01*
X112730804Y-98850000D01*
X112723917Y-98806519D01*
X112711270Y-98726665D01*
X112711269Y-98726663D01*
X112709719Y-98716874D01*
X112648528Y-98596780D01*
X112553220Y-98501472D01*
X112433126Y-98440281D01*
X112423337Y-98438731D01*
X112423335Y-98438730D01*
X112309793Y-98420747D01*
X112300000Y-98419196D01*
X112290207Y-98420747D01*
X112176665Y-98438730D01*
X112176663Y-98438731D01*
X112166874Y-98440281D01*
X112046780Y-98501472D01*
X111951472Y-98596780D01*
X111890281Y-98716874D01*
X111888731Y-98726663D01*
X111888730Y-98726665D01*
X111876083Y-98806519D01*
X111869196Y-98850000D01*
X111131407Y-98850000D01*
X111118901Y-98771042D01*
X111118900Y-98771040D01*
X111117350Y-98761251D01*
X111056159Y-98641157D01*
X110960851Y-98545849D01*
X110840757Y-98484658D01*
X110830968Y-98483108D01*
X110830966Y-98483107D01*
X110717424Y-98465124D01*
X110707631Y-98463573D01*
X110697838Y-98465124D01*
X110584296Y-98483107D01*
X110584294Y-98483108D01*
X110574505Y-98484658D01*
X110454411Y-98545849D01*
X110359103Y-98641157D01*
X110297912Y-98761251D01*
X110296362Y-98771040D01*
X110296361Y-98771042D01*
X110282235Y-98860231D01*
X110276827Y-98894377D01*
X110278378Y-98904170D01*
X110291277Y-98985609D01*
X110297912Y-99027503D01*
X110359103Y-99147597D01*
X110454411Y-99242905D01*
X110574505Y-99304096D01*
X110584296Y-99305647D01*
X110584297Y-99305647D01*
X110593017Y-99307028D01*
X110607143Y-99309265D01*
X110671295Y-99339676D01*
X110708823Y-99399944D01*
X110707810Y-99470933D01*
X110668579Y-99530106D01*
X110618089Y-99553166D01*
X110618612Y-99554776D01*
X110609179Y-99557841D01*
X110599387Y-99559392D01*
X110479293Y-99620583D01*
X110383985Y-99715891D01*
X110322794Y-99835985D01*
X110321244Y-99845774D01*
X110321243Y-99845776D01*
X110309245Y-99921528D01*
X110301709Y-99969111D01*
X110303260Y-99978904D01*
X110314521Y-100050000D01*
X110322794Y-100102237D01*
X110329958Y-100116297D01*
X110343062Y-100186073D01*
X110316362Y-100251858D01*
X110258335Y-100292765D01*
X110217691Y-100299500D01*
X103005085Y-100299500D01*
X102936964Y-100279498D01*
X102890471Y-100225842D01*
X102880367Y-100155568D01*
X102892818Y-100116298D01*
X102905217Y-100091963D01*
X102905218Y-100091959D01*
X102909719Y-100083126D01*
X102913415Y-100059794D01*
X102929253Y-99959793D01*
X102930804Y-99950000D01*
X102926443Y-99922463D01*
X102911270Y-99826665D01*
X102911269Y-99826663D01*
X102909719Y-99816874D01*
X102848528Y-99696780D01*
X102753220Y-99601472D01*
X102633126Y-99540281D01*
X102623337Y-99538731D01*
X102623335Y-99538730D01*
X102509793Y-99520747D01*
X102500000Y-99519196D01*
X102490207Y-99520747D01*
X102376665Y-99538730D01*
X102376663Y-99538731D01*
X102366874Y-99540281D01*
X102246780Y-99601472D01*
X102151472Y-99696780D01*
X102090281Y-99816874D01*
X102088731Y-99826663D01*
X102088730Y-99826665D01*
X102073557Y-99922463D01*
X102069196Y-99950000D01*
X102070747Y-99959793D01*
X102086586Y-100059794D01*
X102090281Y-100083126D01*
X102094782Y-100091959D01*
X102094783Y-100091963D01*
X102105411Y-100112822D01*
X102118515Y-100182599D01*
X102091814Y-100248384D01*
X102033786Y-100289289D01*
X102005038Y-100293886D01*
X102005171Y-100294896D01*
X101993115Y-100296483D01*
X101967780Y-100297247D01*
X101917450Y-100293687D01*
X101788086Y-100284535D01*
X101770281Y-100281988D01*
X101571855Y-100238951D01*
X101554584Y-100233890D01*
X101364317Y-100163025D01*
X101347944Y-100155555D01*
X101327843Y-100144587D01*
X101169713Y-100058305D01*
X101154581Y-100048585D01*
X100992017Y-99926931D01*
X100978415Y-99915146D01*
X100834854Y-99771585D01*
X100823069Y-99757983D01*
X100798179Y-99724723D01*
X100701415Y-99595419D01*
X100691695Y-99580287D01*
X100594445Y-99402056D01*
X100586975Y-99385683D01*
X100586812Y-99385244D01*
X100558307Y-99308712D01*
X100516110Y-99195416D01*
X100511049Y-99178146D01*
X100494731Y-99102911D01*
X100468012Y-98979719D01*
X100465464Y-98961909D01*
X100464518Y-98948528D01*
X100454734Y-98810231D01*
X100453210Y-98788682D01*
X100453840Y-98773797D01*
X100453588Y-98773794D01*
X100453706Y-98764814D01*
X100455094Y-98755947D01*
X100451550Y-98728664D01*
X100450500Y-98712433D01*
X100450500Y-98550000D01*
X106769196Y-98550000D01*
X106770747Y-98559793D01*
X106786154Y-98657067D01*
X106790281Y-98683126D01*
X106851472Y-98803220D01*
X106946780Y-98898528D01*
X107066874Y-98959719D01*
X107076663Y-98961269D01*
X107076665Y-98961270D01*
X107190207Y-98979253D01*
X107200000Y-98980804D01*
X107209793Y-98979253D01*
X107323335Y-98961270D01*
X107323337Y-98961269D01*
X107333126Y-98959719D01*
X107453220Y-98898528D01*
X107479501Y-98872247D01*
X107541813Y-98838221D01*
X107612628Y-98843286D01*
X107669464Y-98885833D01*
X107688430Y-98922408D01*
X107688729Y-98923330D01*
X107690281Y-98933126D01*
X107694782Y-98941959D01*
X107694783Y-98941962D01*
X107713784Y-98979253D01*
X107751472Y-99053220D01*
X107846780Y-99148528D01*
X107966874Y-99209719D01*
X107976663Y-99211269D01*
X107976665Y-99211270D01*
X108090207Y-99229253D01*
X108100000Y-99230804D01*
X108109793Y-99229253D01*
X108223335Y-99211270D01*
X108223337Y-99211269D01*
X108233126Y-99209719D01*
X108353220Y-99148528D01*
X108448528Y-99053220D01*
X108509719Y-98933126D01*
X108514653Y-98901977D01*
X108529253Y-98809793D01*
X108530804Y-98800000D01*
X108524646Y-98761120D01*
X108511270Y-98676665D01*
X108511269Y-98676663D01*
X108509719Y-98666874D01*
X108448528Y-98546780D01*
X108353220Y-98451472D01*
X108233126Y-98390281D01*
X108223337Y-98388731D01*
X108223335Y-98388730D01*
X108109793Y-98370747D01*
X108100000Y-98369196D01*
X108090207Y-98370747D01*
X107976665Y-98388730D01*
X107976663Y-98388731D01*
X107966874Y-98390281D01*
X107846780Y-98451472D01*
X107820499Y-98477753D01*
X107758187Y-98511779D01*
X107687372Y-98506714D01*
X107630536Y-98464167D01*
X107611570Y-98427592D01*
X107611271Y-98426670D01*
X107609719Y-98416874D01*
X107548528Y-98296780D01*
X107453220Y-98201472D01*
X107333126Y-98140281D01*
X107323337Y-98138731D01*
X107323335Y-98138730D01*
X107209793Y-98120747D01*
X107200000Y-98119196D01*
X107190207Y-98120747D01*
X107076665Y-98138730D01*
X107076663Y-98138731D01*
X107066874Y-98140281D01*
X106946780Y-98201472D01*
X106851472Y-98296780D01*
X106790281Y-98416874D01*
X106788731Y-98426663D01*
X106788730Y-98426665D01*
X106770816Y-98539769D01*
X106769196Y-98550000D01*
X100450500Y-98550000D01*
X100450500Y-98000000D01*
X103069196Y-98000000D01*
X103070747Y-98009793D01*
X103088075Y-98119196D01*
X103090281Y-98133126D01*
X103151472Y-98253220D01*
X103246780Y-98348528D01*
X103366874Y-98409719D01*
X103376663Y-98411269D01*
X103376665Y-98411270D01*
X103490207Y-98429253D01*
X103500000Y-98430804D01*
X103509793Y-98429253D01*
X103623335Y-98411270D01*
X103623337Y-98411269D01*
X103633126Y-98409719D01*
X103753220Y-98348528D01*
X103848528Y-98253220D01*
X103909719Y-98133126D01*
X103911926Y-98119196D01*
X103929253Y-98009793D01*
X103930804Y-98000000D01*
X103924146Y-97957964D01*
X115444879Y-97957964D01*
X115446430Y-97967757D01*
X115459056Y-98047472D01*
X115465964Y-98091090D01*
X115527155Y-98211184D01*
X115622463Y-98306492D01*
X115742557Y-98367683D01*
X115752346Y-98369233D01*
X115752348Y-98369234D01*
X115865890Y-98387217D01*
X115875683Y-98388768D01*
X115885476Y-98387217D01*
X115999018Y-98369234D01*
X115999020Y-98369233D01*
X116008809Y-98367683D01*
X116128903Y-98306492D01*
X116224211Y-98211184D01*
X116285402Y-98091090D01*
X116292311Y-98047472D01*
X116304936Y-97967757D01*
X116306487Y-97957964D01*
X116285402Y-97824838D01*
X116224211Y-97704744D01*
X116128903Y-97609436D01*
X116008809Y-97548245D01*
X115999020Y-97546695D01*
X115999018Y-97546694D01*
X115885476Y-97528711D01*
X115875683Y-97527160D01*
X115865890Y-97528711D01*
X115752348Y-97546694D01*
X115752346Y-97546695D01*
X115742557Y-97548245D01*
X115622463Y-97609436D01*
X115527155Y-97704744D01*
X115465964Y-97824838D01*
X115444879Y-97957964D01*
X103924146Y-97957964D01*
X103922595Y-97948171D01*
X103911270Y-97876665D01*
X103911269Y-97876663D01*
X103909719Y-97866874D01*
X103848528Y-97746780D01*
X103753220Y-97651472D01*
X103633126Y-97590281D01*
X103623337Y-97588731D01*
X103623335Y-97588730D01*
X103509793Y-97570747D01*
X103500000Y-97569196D01*
X103490207Y-97570747D01*
X103376665Y-97588730D01*
X103376663Y-97588731D01*
X103366874Y-97590281D01*
X103246780Y-97651472D01*
X103151472Y-97746780D01*
X103090281Y-97866874D01*
X103088731Y-97876663D01*
X103088730Y-97876665D01*
X103077405Y-97948171D01*
X103069196Y-98000000D01*
X100450500Y-98000000D01*
X100450500Y-97116055D01*
X100451839Y-97104353D01*
X100451319Y-97104312D01*
X100452058Y-97094921D01*
X100454185Y-97085745D01*
X100452348Y-97059793D01*
X100451654Y-97050000D01*
X108919196Y-97050000D01*
X108920747Y-97059793D01*
X108937017Y-97162516D01*
X108940281Y-97183126D01*
X109001472Y-97303220D01*
X109096780Y-97398528D01*
X109216874Y-97459719D01*
X109226663Y-97461269D01*
X109226665Y-97461270D01*
X109340207Y-97479253D01*
X109350000Y-97480804D01*
X109359793Y-97479253D01*
X109473335Y-97461270D01*
X109473337Y-97461269D01*
X109483126Y-97459719D01*
X109603220Y-97398528D01*
X109698528Y-97303220D01*
X109759719Y-97183126D01*
X109762984Y-97162516D01*
X109779253Y-97059793D01*
X109780804Y-97050000D01*
X109775443Y-97016150D01*
X109761270Y-96926665D01*
X109761269Y-96926663D01*
X109759719Y-96916874D01*
X109698528Y-96796780D01*
X109663748Y-96762000D01*
X113969196Y-96762000D01*
X113970747Y-96771793D01*
X113988248Y-96882287D01*
X113990281Y-96895126D01*
X114051472Y-97015220D01*
X114146780Y-97110528D01*
X114266874Y-97171719D01*
X114276663Y-97173269D01*
X114276665Y-97173270D01*
X114390207Y-97191253D01*
X114400000Y-97192804D01*
X114409793Y-97191253D01*
X114409794Y-97191253D01*
X114448934Y-97185054D01*
X114519345Y-97194154D01*
X114573659Y-97239876D01*
X114588477Y-97270566D01*
X114590261Y-97276056D01*
X114591812Y-97285849D01*
X114653003Y-97405943D01*
X114748311Y-97501251D01*
X114868405Y-97562442D01*
X114878194Y-97563992D01*
X114878196Y-97563993D01*
X114991738Y-97581976D01*
X115001531Y-97583527D01*
X115011324Y-97581976D01*
X115124866Y-97563993D01*
X115124868Y-97563992D01*
X115134657Y-97562442D01*
X115254751Y-97501251D01*
X115350059Y-97405943D01*
X115411250Y-97285849D01*
X115412854Y-97275726D01*
X115430784Y-97162516D01*
X115432335Y-97152723D01*
X115424674Y-97104353D01*
X115412801Y-97029388D01*
X115412800Y-97029386D01*
X115411250Y-97019597D01*
X115350059Y-96899503D01*
X115254751Y-96804195D01*
X115134657Y-96743004D01*
X115124868Y-96741454D01*
X115124866Y-96741453D01*
X115011324Y-96723470D01*
X115001531Y-96721919D01*
X114991738Y-96723470D01*
X114991737Y-96723470D01*
X114952597Y-96729669D01*
X114882186Y-96720569D01*
X114827872Y-96674847D01*
X114813054Y-96644157D01*
X114811270Y-96638667D01*
X114809719Y-96628874D01*
X114748528Y-96508780D01*
X114653220Y-96413472D01*
X114533126Y-96352281D01*
X114523337Y-96350731D01*
X114523335Y-96350730D01*
X114409793Y-96332747D01*
X114400000Y-96331196D01*
X114390207Y-96332747D01*
X114276665Y-96350730D01*
X114276663Y-96350731D01*
X114266874Y-96352281D01*
X114146780Y-96413472D01*
X114051472Y-96508780D01*
X113990281Y-96628874D01*
X113988731Y-96638663D01*
X113988730Y-96638665D01*
X113974317Y-96729669D01*
X113969196Y-96762000D01*
X109663748Y-96762000D01*
X109658915Y-96757167D01*
X109624889Y-96694855D01*
X109629954Y-96624040D01*
X109672501Y-96567204D01*
X109690804Y-96555807D01*
X109803220Y-96498528D01*
X109898528Y-96403220D01*
X109959719Y-96283126D01*
X109980804Y-96150000D01*
X109968925Y-96075000D01*
X109961270Y-96026665D01*
X109961269Y-96026663D01*
X109959719Y-96016874D01*
X109898528Y-95896780D01*
X109803220Y-95801472D01*
X109788230Y-95793834D01*
X109736615Y-95745087D01*
X109719548Y-95676173D01*
X109743098Y-95608650D01*
X109748528Y-95603220D01*
X109809719Y-95483126D01*
X109830804Y-95350000D01*
X109815911Y-95255968D01*
X109811270Y-95226665D01*
X109811269Y-95226663D01*
X109809719Y-95216874D01*
X109748528Y-95096780D01*
X109653220Y-95001472D01*
X109533126Y-94940281D01*
X109523337Y-94938731D01*
X109523335Y-94938730D01*
X109409793Y-94920747D01*
X109400000Y-94919196D01*
X109390207Y-94920747D01*
X109276665Y-94938730D01*
X109276663Y-94938731D01*
X109266874Y-94940281D01*
X109146780Y-95001472D01*
X109051472Y-95096780D01*
X108990281Y-95216874D01*
X108988731Y-95226663D01*
X108988730Y-95226665D01*
X108984089Y-95255968D01*
X108969196Y-95350000D01*
X108990281Y-95483126D01*
X109051472Y-95603220D01*
X109146780Y-95698528D01*
X109161770Y-95706166D01*
X109213385Y-95754913D01*
X109230452Y-95823827D01*
X109206902Y-95891350D01*
X109201472Y-95896780D01*
X109140281Y-96016874D01*
X109138731Y-96026663D01*
X109138730Y-96026665D01*
X109131075Y-96075000D01*
X109119196Y-96150000D01*
X109140281Y-96283126D01*
X109201472Y-96403220D01*
X109241085Y-96442833D01*
X109275111Y-96505145D01*
X109270046Y-96575960D01*
X109227499Y-96632796D01*
X109209196Y-96644193D01*
X109096780Y-96701472D01*
X109001472Y-96796780D01*
X108940281Y-96916874D01*
X108938731Y-96926663D01*
X108938730Y-96926665D01*
X108924557Y-97016150D01*
X108919196Y-97050000D01*
X100451654Y-97050000D01*
X100450815Y-97038151D01*
X100450500Y-97029252D01*
X100450500Y-97016150D01*
X100448886Y-97005414D01*
X100447801Y-96995582D01*
X100445282Y-96960013D01*
X100444617Y-96950616D01*
X100441217Y-96941829D01*
X100439355Y-96933498D01*
X100436849Y-96925351D01*
X100435449Y-96916038D01*
X100415933Y-96875396D01*
X100412006Y-96866321D01*
X100399136Y-96833055D01*
X100395739Y-96824274D01*
X100389909Y-96816879D01*
X100385682Y-96809468D01*
X100380885Y-96802409D01*
X100376809Y-96793921D01*
X100356355Y-96771793D01*
X100346200Y-96760807D01*
X100339779Y-96753288D01*
X100317705Y-96725288D01*
X100317702Y-96725285D01*
X100311872Y-96717890D01*
X100304126Y-96712537D01*
X100297902Y-96706692D01*
X100291248Y-96701361D01*
X100284854Y-96694444D01*
X100245862Y-96671796D01*
X100237509Y-96666495D01*
X100208178Y-96646223D01*
X100208177Y-96646222D01*
X100200431Y-96640869D01*
X100191452Y-96638029D01*
X100183781Y-96634271D01*
X100175854Y-96631132D01*
X100167713Y-96626404D01*
X100158546Y-96624279D01*
X100158543Y-96624278D01*
X100123793Y-96616224D01*
X100114250Y-96613613D01*
X100088006Y-96605313D01*
X100029087Y-96565701D01*
X100000938Y-96500523D01*
X100000000Y-96485178D01*
X100000000Y-94903200D01*
X101915996Y-94903200D01*
X101917547Y-94912993D01*
X101931561Y-95001472D01*
X101937081Y-95036326D01*
X101998272Y-95156420D01*
X102055957Y-95214105D01*
X102089983Y-95276417D01*
X102084918Y-95347232D01*
X102055957Y-95392295D01*
X102001472Y-95446780D01*
X101940281Y-95566874D01*
X101919196Y-95700000D01*
X101920747Y-95709793D01*
X101935268Y-95801472D01*
X101940281Y-95833126D01*
X102001472Y-95953220D01*
X102034157Y-95985905D01*
X102068183Y-96048217D01*
X102063118Y-96119032D01*
X102034157Y-96164095D01*
X102001472Y-96196780D01*
X101940281Y-96316874D01*
X101938731Y-96326663D01*
X101938730Y-96326665D01*
X101937767Y-96332747D01*
X101919196Y-96450000D01*
X101920747Y-96459793D01*
X101936574Y-96559719D01*
X101940281Y-96583126D01*
X102001472Y-96703220D01*
X102096780Y-96798528D01*
X102216874Y-96859719D01*
X102226663Y-96861269D01*
X102226665Y-96861270D01*
X102340207Y-96879253D01*
X102350000Y-96880804D01*
X102359793Y-96879253D01*
X102473335Y-96861270D01*
X102473337Y-96861269D01*
X102483126Y-96859719D01*
X102603220Y-96798528D01*
X102698528Y-96703220D01*
X102759719Y-96583126D01*
X102763427Y-96559719D01*
X102779253Y-96459793D01*
X102780804Y-96450000D01*
X102762233Y-96332747D01*
X102761270Y-96326665D01*
X102761269Y-96326663D01*
X102759719Y-96316874D01*
X102698528Y-96196780D01*
X102665843Y-96164095D01*
X102631817Y-96101783D01*
X102636882Y-96030968D01*
X102665843Y-95985905D01*
X102698528Y-95953220D01*
X102759719Y-95833126D01*
X102764733Y-95801472D01*
X102779253Y-95709793D01*
X102780804Y-95700000D01*
X102759719Y-95566874D01*
X102698528Y-95446780D01*
X102640843Y-95389095D01*
X102606817Y-95326783D01*
X102611882Y-95255968D01*
X102640843Y-95210905D01*
X102695328Y-95156420D01*
X102756519Y-95036326D01*
X102762040Y-95001472D01*
X102776053Y-94912993D01*
X102777604Y-94903200D01*
X102756519Y-94770074D01*
X102695328Y-94649980D01*
X102600020Y-94554672D01*
X102479926Y-94493481D01*
X102470137Y-94491931D01*
X102470135Y-94491930D01*
X102356593Y-94473947D01*
X102346800Y-94472396D01*
X102337007Y-94473947D01*
X102223465Y-94491930D01*
X102223463Y-94491931D01*
X102213674Y-94493481D01*
X102093580Y-94554672D01*
X101998272Y-94649980D01*
X101937081Y-94770074D01*
X101915996Y-94903200D01*
X100000000Y-94903200D01*
X100000000Y-93450000D01*
X106969196Y-93450000D01*
X106970747Y-93459793D01*
X106985690Y-93554137D01*
X106990281Y-93583126D01*
X107051472Y-93703220D01*
X107146780Y-93798528D01*
X107266874Y-93859719D01*
X107276663Y-93861269D01*
X107276665Y-93861270D01*
X107390207Y-93879253D01*
X107400000Y-93880804D01*
X107409793Y-93879253D01*
X107523335Y-93861270D01*
X107523337Y-93861269D01*
X107533126Y-93859719D01*
X107653220Y-93798528D01*
X107748528Y-93703220D01*
X107809719Y-93583126D01*
X107814311Y-93554137D01*
X107814966Y-93550000D01*
X112669196Y-93550000D01*
X112670747Y-93559793D01*
X112684146Y-93644388D01*
X112690281Y-93683126D01*
X112751472Y-93803220D01*
X112846780Y-93898528D01*
X112966874Y-93959719D01*
X112976663Y-93961269D01*
X112976665Y-93961270D01*
X113090207Y-93979253D01*
X113100000Y-93980804D01*
X113109793Y-93979253D01*
X113223335Y-93961270D01*
X113223337Y-93961269D01*
X113233126Y-93959719D01*
X113353220Y-93898528D01*
X113448528Y-93803220D01*
X113509719Y-93683126D01*
X113515855Y-93644388D01*
X113529253Y-93559793D01*
X113530804Y-93550000D01*
X113529253Y-93540207D01*
X113511270Y-93426665D01*
X113511269Y-93426663D01*
X113509719Y-93416874D01*
X113501121Y-93400000D01*
X114269196Y-93400000D01*
X114270747Y-93409793D01*
X114284314Y-93495449D01*
X114290281Y-93533126D01*
X114351472Y-93653220D01*
X114446780Y-93748528D01*
X114566874Y-93809719D01*
X114576663Y-93811269D01*
X114576665Y-93811270D01*
X114690207Y-93829253D01*
X114700000Y-93830804D01*
X114709793Y-93829253D01*
X114823335Y-93811270D01*
X114823337Y-93811269D01*
X114833126Y-93809719D01*
X114953220Y-93748528D01*
X115048528Y-93653220D01*
X115109719Y-93533126D01*
X115115687Y-93495449D01*
X115129253Y-93409793D01*
X115130804Y-93400000D01*
X115116239Y-93308041D01*
X115111270Y-93276665D01*
X115111269Y-93276663D01*
X115109719Y-93266874D01*
X115048528Y-93146780D01*
X114965968Y-93064220D01*
X122469434Y-93064220D01*
X122470985Y-93074013D01*
X122476445Y-93108483D01*
X122490519Y-93197346D01*
X122551710Y-93317440D01*
X122647018Y-93412748D01*
X122767112Y-93473939D01*
X122776901Y-93475489D01*
X122776903Y-93475490D01*
X122890445Y-93493473D01*
X122900238Y-93495024D01*
X122955003Y-93486350D01*
X123025413Y-93495449D01*
X123079727Y-93541171D01*
X123100700Y-93608999D01*
X123099162Y-93630510D01*
X123091724Y-93677472D01*
X123093275Y-93687265D01*
X123110242Y-93794388D01*
X123112809Y-93810598D01*
X123174000Y-93930692D01*
X123269308Y-94026000D01*
X123389402Y-94087191D01*
X123399191Y-94088741D01*
X123399193Y-94088742D01*
X123512735Y-94106725D01*
X123522528Y-94108276D01*
X123532321Y-94106725D01*
X123645863Y-94088742D01*
X123645865Y-94088741D01*
X123655654Y-94087191D01*
X123775748Y-94026000D01*
X123871056Y-93930692D01*
X123932247Y-93810598D01*
X123934815Y-93794388D01*
X123951781Y-93687265D01*
X123953332Y-93677472D01*
X123938389Y-93583126D01*
X123933798Y-93554137D01*
X123933797Y-93554135D01*
X123932247Y-93544346D01*
X123871056Y-93424252D01*
X123775748Y-93328944D01*
X123655654Y-93267753D01*
X123645865Y-93266203D01*
X123645863Y-93266202D01*
X123532321Y-93248219D01*
X123522528Y-93246668D01*
X123467763Y-93255342D01*
X123397353Y-93246243D01*
X123343039Y-93200521D01*
X123322066Y-93132693D01*
X123323604Y-93111182D01*
X123329491Y-93074013D01*
X123331042Y-93064220D01*
X123327963Y-93044782D01*
X123311508Y-92940885D01*
X123311507Y-92940883D01*
X123309957Y-92931094D01*
X123248766Y-92811000D01*
X123153458Y-92715692D01*
X123033364Y-92654501D01*
X123023575Y-92652951D01*
X123023573Y-92652950D01*
X122910031Y-92634967D01*
X122900238Y-92633416D01*
X122890445Y-92634967D01*
X122776903Y-92652950D01*
X122776901Y-92652951D01*
X122767112Y-92654501D01*
X122647018Y-92715692D01*
X122551710Y-92811000D01*
X122490519Y-92931094D01*
X122488969Y-92940883D01*
X122488968Y-92940885D01*
X122472513Y-93044782D01*
X122469434Y-93064220D01*
X114965968Y-93064220D01*
X114953220Y-93051472D01*
X114833126Y-92990281D01*
X114823337Y-92988731D01*
X114823335Y-92988730D01*
X114709793Y-92970747D01*
X114700000Y-92969196D01*
X114690207Y-92970747D01*
X114576665Y-92988730D01*
X114576663Y-92988731D01*
X114566874Y-92990281D01*
X114446780Y-93051472D01*
X114351472Y-93146780D01*
X114290281Y-93266874D01*
X114288731Y-93276663D01*
X114288730Y-93276665D01*
X114283761Y-93308041D01*
X114269196Y-93400000D01*
X113501121Y-93400000D01*
X113448528Y-93296780D01*
X113353220Y-93201472D01*
X113233126Y-93140281D01*
X113223337Y-93138731D01*
X113223335Y-93138730D01*
X113109793Y-93120747D01*
X113100000Y-93119196D01*
X113090207Y-93120747D01*
X112976665Y-93138730D01*
X112976663Y-93138731D01*
X112966874Y-93140281D01*
X112846780Y-93201472D01*
X112751472Y-93296780D01*
X112690281Y-93416874D01*
X112688731Y-93426663D01*
X112688730Y-93426665D01*
X112670747Y-93540207D01*
X112669196Y-93550000D01*
X107814966Y-93550000D01*
X107829253Y-93459793D01*
X107830804Y-93450000D01*
X107824158Y-93408041D01*
X107811270Y-93326665D01*
X107811269Y-93326663D01*
X107809719Y-93316874D01*
X107748528Y-93196780D01*
X107653220Y-93101472D01*
X107533126Y-93040281D01*
X107523337Y-93038731D01*
X107523335Y-93038730D01*
X107409793Y-93020747D01*
X107400000Y-93019196D01*
X107390207Y-93020747D01*
X107276665Y-93038730D01*
X107276663Y-93038731D01*
X107266874Y-93040281D01*
X107146780Y-93101472D01*
X107051472Y-93196780D01*
X106990281Y-93316874D01*
X106988731Y-93326663D01*
X106988730Y-93326665D01*
X106975842Y-93408041D01*
X106969196Y-93450000D01*
X100000000Y-93450000D01*
X100000000Y-92650000D01*
X101869196Y-92650000D01*
X101870747Y-92659793D01*
X101879601Y-92715692D01*
X101890281Y-92783126D01*
X101951472Y-92903220D01*
X102046780Y-92998528D01*
X102166874Y-93059719D01*
X102176663Y-93061269D01*
X102176665Y-93061270D01*
X102290207Y-93079253D01*
X102300000Y-93080804D01*
X102309793Y-93079253D01*
X102423335Y-93061270D01*
X102423337Y-93061269D01*
X102433126Y-93059719D01*
X102553220Y-92998528D01*
X102648528Y-92903220D01*
X102709719Y-92783126D01*
X102720400Y-92715692D01*
X102729253Y-92659793D01*
X102730804Y-92650000D01*
X102709719Y-92516874D01*
X102705217Y-92508038D01*
X102687565Y-92473393D01*
X102674461Y-92403617D01*
X102701161Y-92337832D01*
X102736447Y-92308980D01*
X102736360Y-92308861D01*
X102738450Y-92307343D01*
X102742632Y-92303923D01*
X102744387Y-92303029D01*
X102744389Y-92303028D01*
X102753220Y-92298528D01*
X102848528Y-92203220D01*
X102900785Y-92100660D01*
X102949533Y-92049044D01*
X103018448Y-92031978D01*
X103054250Y-92041389D01*
X103054865Y-92039495D01*
X103064298Y-92042560D01*
X103073132Y-92047061D01*
X103082921Y-92048611D01*
X103082923Y-92048612D01*
X103196465Y-92066595D01*
X103206258Y-92068146D01*
X103216051Y-92066595D01*
X103329593Y-92048612D01*
X103329595Y-92048611D01*
X103339384Y-92047061D01*
X103459478Y-91985870D01*
X103554786Y-91890562D01*
X103615977Y-91770468D01*
X103617680Y-91759719D01*
X103635511Y-91647135D01*
X103637062Y-91637342D01*
X103631381Y-91601472D01*
X103617528Y-91514007D01*
X103617527Y-91514005D01*
X103615977Y-91504216D01*
X103554786Y-91384122D01*
X103459478Y-91288814D01*
X103383301Y-91250000D01*
X105162946Y-91250000D01*
X105164497Y-91259793D01*
X105180969Y-91363791D01*
X105184031Y-91383126D01*
X105245222Y-91503220D01*
X105340530Y-91598528D01*
X105460624Y-91659719D01*
X105470413Y-91661269D01*
X105470415Y-91661270D01*
X105583957Y-91679253D01*
X105593750Y-91680804D01*
X105603543Y-91679253D01*
X105717085Y-91661270D01*
X105717087Y-91661269D01*
X105726876Y-91659719D01*
X105846970Y-91598528D01*
X105942278Y-91503220D01*
X106003469Y-91383126D01*
X106006532Y-91363791D01*
X106008716Y-91350000D01*
X109112946Y-91350000D01*
X109114497Y-91359793D01*
X109128503Y-91448221D01*
X109134031Y-91483126D01*
X109195222Y-91603220D01*
X109290530Y-91698528D01*
X109410624Y-91759719D01*
X109420413Y-91761269D01*
X109420415Y-91761270D01*
X109533957Y-91779253D01*
X109543750Y-91780804D01*
X109553543Y-91779253D01*
X109667085Y-91761270D01*
X109667087Y-91761269D01*
X109676876Y-91759719D01*
X109796970Y-91698528D01*
X109892278Y-91603220D01*
X109953469Y-91483126D01*
X109958998Y-91448221D01*
X109973003Y-91359793D01*
X109974554Y-91350000D01*
X109964863Y-91288814D01*
X109955020Y-91226665D01*
X109955019Y-91226663D01*
X109953469Y-91216874D01*
X109892278Y-91096780D01*
X109796970Y-91001472D01*
X109676876Y-90940281D01*
X109667087Y-90938731D01*
X109667085Y-90938730D01*
X109553543Y-90920747D01*
X109543750Y-90919196D01*
X109533957Y-90920747D01*
X109420415Y-90938730D01*
X109420413Y-90938731D01*
X109410624Y-90940281D01*
X109290530Y-91001472D01*
X109195222Y-91096780D01*
X109134031Y-91216874D01*
X109132481Y-91226663D01*
X109132480Y-91226665D01*
X109122637Y-91288814D01*
X109112946Y-91350000D01*
X106008716Y-91350000D01*
X106023003Y-91259793D01*
X106024554Y-91250000D01*
X106016798Y-91201031D01*
X106005020Y-91126665D01*
X106005019Y-91126663D01*
X106003469Y-91116874D01*
X105942278Y-90996780D01*
X105846970Y-90901472D01*
X105726876Y-90840281D01*
X105717087Y-90838731D01*
X105717085Y-90838730D01*
X105603543Y-90820747D01*
X105593750Y-90819196D01*
X105583957Y-90820747D01*
X105470415Y-90838730D01*
X105470413Y-90838731D01*
X105460624Y-90840281D01*
X105340530Y-90901472D01*
X105245222Y-90996780D01*
X105184031Y-91116874D01*
X105182481Y-91126663D01*
X105182480Y-91126665D01*
X105170702Y-91201031D01*
X105162946Y-91250000D01*
X103383301Y-91250000D01*
X103339384Y-91227623D01*
X103329595Y-91226073D01*
X103329593Y-91226072D01*
X103216051Y-91208089D01*
X103206258Y-91206538D01*
X103196465Y-91208089D01*
X103082923Y-91226072D01*
X103082921Y-91226073D01*
X103073132Y-91227623D01*
X102953038Y-91288814D01*
X102857730Y-91384122D01*
X102853230Y-91392954D01*
X102853228Y-91392957D01*
X102805473Y-91486682D01*
X102756725Y-91538298D01*
X102687810Y-91555364D01*
X102652008Y-91545953D01*
X102651393Y-91547847D01*
X102641959Y-91544781D01*
X102633126Y-91540281D01*
X102623337Y-91538731D01*
X102623335Y-91538730D01*
X102509793Y-91520747D01*
X102500000Y-91519196D01*
X102490207Y-91520747D01*
X102376665Y-91538730D01*
X102376663Y-91538731D01*
X102366874Y-91540281D01*
X102246780Y-91601472D01*
X102151472Y-91696780D01*
X102090281Y-91816874D01*
X102088731Y-91826663D01*
X102088730Y-91826665D01*
X102070747Y-91940207D01*
X102069196Y-91950000D01*
X102070747Y-91959793D01*
X102084815Y-92048612D01*
X102090281Y-92083126D01*
X102094783Y-92091961D01*
X102094783Y-92091962D01*
X102112435Y-92126607D01*
X102125539Y-92196383D01*
X102098839Y-92262168D01*
X102063553Y-92291020D01*
X102063640Y-92291139D01*
X102061550Y-92292657D01*
X102057368Y-92296077D01*
X102055613Y-92296971D01*
X102055611Y-92296972D01*
X102046780Y-92301472D01*
X101951472Y-92396780D01*
X101890281Y-92516874D01*
X101869196Y-92650000D01*
X100000000Y-92650000D01*
X100000000Y-91516342D01*
X100020002Y-91448221D01*
X100073658Y-91401728D01*
X100093603Y-91395026D01*
X100099384Y-91394617D01*
X100108168Y-91391218D01*
X100116498Y-91389356D01*
X100124648Y-91386849D01*
X100133962Y-91385449D01*
X100174604Y-91365933D01*
X100183679Y-91362006D01*
X100216945Y-91349136D01*
X100216944Y-91349136D01*
X100225726Y-91345739D01*
X100233121Y-91339909D01*
X100240532Y-91335682D01*
X100247591Y-91330885D01*
X100256079Y-91326809D01*
X100283747Y-91301234D01*
X100289193Y-91296200D01*
X100296712Y-91289779D01*
X100324712Y-91267705D01*
X100324715Y-91267702D01*
X100332110Y-91261872D01*
X100337463Y-91254126D01*
X100343308Y-91247902D01*
X100348639Y-91241248D01*
X100355556Y-91234854D01*
X100378204Y-91195862D01*
X100383505Y-91187509D01*
X100403777Y-91158178D01*
X100403778Y-91158177D01*
X100409131Y-91150431D01*
X100411971Y-91141452D01*
X100415729Y-91133781D01*
X100418868Y-91125854D01*
X100423596Y-91117713D01*
X100425721Y-91108546D01*
X100425722Y-91108543D01*
X100433776Y-91073793D01*
X100436387Y-91064249D01*
X100441088Y-91049384D01*
X100449980Y-91021270D01*
X100450500Y-91014663D01*
X100450500Y-91012193D01*
X100450531Y-91011401D01*
X100451482Y-91004325D01*
X100451319Y-91004312D01*
X100452058Y-90994921D01*
X100454185Y-90985745D01*
X100453460Y-90975497D01*
X100450815Y-90938151D01*
X100450500Y-90929252D01*
X100450500Y-90800000D01*
X110969196Y-90800000D01*
X110970747Y-90809793D01*
X110988075Y-90919196D01*
X110990281Y-90933126D01*
X111051472Y-91053220D01*
X111146780Y-91148528D01*
X111266874Y-91209719D01*
X111276663Y-91211269D01*
X111276665Y-91211270D01*
X111390207Y-91229253D01*
X111400000Y-91230804D01*
X111409793Y-91229253D01*
X111523335Y-91211270D01*
X111523337Y-91211269D01*
X111533126Y-91209719D01*
X111653220Y-91148528D01*
X111748528Y-91053220D01*
X111809719Y-90933126D01*
X111811926Y-90919196D01*
X111829253Y-90809793D01*
X111830804Y-90800000D01*
X111826334Y-90771778D01*
X120465573Y-90771778D01*
X120467124Y-90781571D01*
X120482995Y-90881774D01*
X120486658Y-90904904D01*
X120547849Y-91024998D01*
X120643157Y-91120306D01*
X120763251Y-91181497D01*
X120773040Y-91183047D01*
X120773042Y-91183048D01*
X120886584Y-91201031D01*
X120896377Y-91202582D01*
X120906170Y-91201031D01*
X121019712Y-91183048D01*
X121019714Y-91183047D01*
X121029503Y-91181497D01*
X121149597Y-91120306D01*
X121244905Y-91024998D01*
X121306096Y-90904904D01*
X121309760Y-90881774D01*
X121325630Y-90781571D01*
X121327181Y-90771778D01*
X121312117Y-90676665D01*
X121307647Y-90648443D01*
X121307646Y-90648441D01*
X121306096Y-90638652D01*
X121244905Y-90518558D01*
X121176347Y-90450000D01*
X122319196Y-90450000D01*
X122320747Y-90459793D01*
X122336574Y-90559719D01*
X122340281Y-90583126D01*
X122401472Y-90703220D01*
X122496780Y-90798528D01*
X122616874Y-90859719D01*
X122626663Y-90861269D01*
X122626665Y-90861270D01*
X122740207Y-90879253D01*
X122750000Y-90880804D01*
X122813414Y-90870760D01*
X122883822Y-90879859D01*
X122938137Y-90925581D01*
X122957571Y-90975497D01*
X122960709Y-90995310D01*
X122960711Y-90995316D01*
X122962262Y-91005107D01*
X123023453Y-91125201D01*
X123118761Y-91220509D01*
X123238855Y-91281700D01*
X123248644Y-91283250D01*
X123248646Y-91283251D01*
X123362188Y-91301234D01*
X123371981Y-91302785D01*
X123381774Y-91301234D01*
X123495316Y-91283251D01*
X123495318Y-91283250D01*
X123505107Y-91281700D01*
X123625201Y-91220509D01*
X123720509Y-91125201D01*
X123781700Y-91005107D01*
X123784130Y-90989769D01*
X123801234Y-90881774D01*
X123802785Y-90871981D01*
X123797519Y-90838730D01*
X123783251Y-90748646D01*
X123783250Y-90748644D01*
X123781700Y-90738855D01*
X123720509Y-90618761D01*
X123625201Y-90523453D01*
X123505107Y-90462262D01*
X123495318Y-90460712D01*
X123495316Y-90460711D01*
X123381774Y-90442728D01*
X123371981Y-90441177D01*
X123308567Y-90451221D01*
X123238159Y-90442122D01*
X123183844Y-90396400D01*
X123164410Y-90346484D01*
X123161272Y-90326671D01*
X123161269Y-90326663D01*
X123159719Y-90316874D01*
X123098528Y-90196780D01*
X123003220Y-90101472D01*
X122883126Y-90040281D01*
X122873337Y-90038731D01*
X122873335Y-90038730D01*
X122759793Y-90020747D01*
X122750000Y-90019196D01*
X122740207Y-90020747D01*
X122626665Y-90038730D01*
X122626663Y-90038731D01*
X122616874Y-90040281D01*
X122496780Y-90101472D01*
X122401472Y-90196780D01*
X122340281Y-90316874D01*
X122338731Y-90326663D01*
X122338730Y-90326665D01*
X122326605Y-90403220D01*
X122319196Y-90450000D01*
X121176347Y-90450000D01*
X121149597Y-90423250D01*
X121029503Y-90362059D01*
X121019714Y-90360509D01*
X121019712Y-90360508D01*
X120906170Y-90342525D01*
X120896377Y-90340974D01*
X120886584Y-90342525D01*
X120773042Y-90360508D01*
X120773040Y-90360509D01*
X120763251Y-90362059D01*
X120643157Y-90423250D01*
X120547849Y-90518558D01*
X120486658Y-90638652D01*
X120485108Y-90648441D01*
X120485107Y-90648443D01*
X120480637Y-90676665D01*
X120465573Y-90771778D01*
X111826334Y-90771778D01*
X111814077Y-90694388D01*
X111811270Y-90676665D01*
X111811269Y-90676663D01*
X111809719Y-90666874D01*
X111748528Y-90546780D01*
X111653220Y-90451472D01*
X111533126Y-90390281D01*
X111523337Y-90388731D01*
X111523335Y-90388730D01*
X111409793Y-90370747D01*
X111400000Y-90369196D01*
X111390207Y-90370747D01*
X111276665Y-90388730D01*
X111276663Y-90388731D01*
X111266874Y-90390281D01*
X111146780Y-90451472D01*
X111051472Y-90546780D01*
X110990281Y-90666874D01*
X110988731Y-90676663D01*
X110988730Y-90676665D01*
X110985923Y-90694388D01*
X110969196Y-90800000D01*
X100450500Y-90800000D01*
X100450500Y-90150000D01*
X113269196Y-90150000D01*
X113270747Y-90159793D01*
X113284146Y-90244388D01*
X113290281Y-90283126D01*
X113351472Y-90403220D01*
X113446780Y-90498528D01*
X113566874Y-90559719D01*
X113576663Y-90561269D01*
X113576665Y-90561270D01*
X113690207Y-90579253D01*
X113700000Y-90580804D01*
X113709793Y-90579253D01*
X113823335Y-90561270D01*
X113823337Y-90561269D01*
X113833126Y-90559719D01*
X113953220Y-90498528D01*
X113996710Y-90455038D01*
X114059022Y-90421012D01*
X114129837Y-90426077D01*
X114186673Y-90468624D01*
X114198072Y-90486930D01*
X114208496Y-90507388D01*
X114251460Y-90591709D01*
X114346768Y-90687017D01*
X114466862Y-90748208D01*
X114476651Y-90749758D01*
X114476653Y-90749759D01*
X114590195Y-90767742D01*
X114599988Y-90769293D01*
X114609781Y-90767742D01*
X114723323Y-90749759D01*
X114723325Y-90749758D01*
X114733114Y-90748208D01*
X114853208Y-90687017D01*
X114948516Y-90591709D01*
X115009707Y-90471615D01*
X115011346Y-90461270D01*
X115029241Y-90348282D01*
X115030792Y-90338489D01*
X115023807Y-90294388D01*
X115016777Y-90250000D01*
X115969196Y-90250000D01*
X115970747Y-90259793D01*
X115988075Y-90369196D01*
X115990281Y-90383126D01*
X116051472Y-90503220D01*
X116146780Y-90598528D01*
X116266874Y-90659719D01*
X116276663Y-90661269D01*
X116276665Y-90661270D01*
X116390207Y-90679253D01*
X116400000Y-90680804D01*
X116409793Y-90679253D01*
X116523335Y-90661270D01*
X116523337Y-90661269D01*
X116533126Y-90659719D01*
X116653220Y-90598528D01*
X116748528Y-90503220D01*
X116809719Y-90383126D01*
X116811926Y-90369196D01*
X116829253Y-90259793D01*
X116830804Y-90250000D01*
X116821611Y-90191959D01*
X116811270Y-90126665D01*
X116811269Y-90126663D01*
X116809719Y-90116874D01*
X116775645Y-90050000D01*
X117131196Y-90050000D01*
X117132747Y-90059793D01*
X117139833Y-90104529D01*
X117152281Y-90183126D01*
X117213472Y-90303220D01*
X117308780Y-90398528D01*
X117428874Y-90459719D01*
X117438663Y-90461269D01*
X117438665Y-90461270D01*
X117552207Y-90479253D01*
X117562000Y-90480804D01*
X117571793Y-90479253D01*
X117685335Y-90461270D01*
X117685337Y-90461269D01*
X117695126Y-90459719D01*
X117815220Y-90398528D01*
X117910528Y-90303220D01*
X117931021Y-90263000D01*
X118553775Y-90263000D01*
X118555326Y-90272793D01*
X118570595Y-90369196D01*
X118574860Y-90396126D01*
X118636051Y-90516220D01*
X118731359Y-90611528D01*
X118851453Y-90672719D01*
X118861242Y-90674269D01*
X118861244Y-90674270D01*
X118974786Y-90692253D01*
X118984579Y-90693804D01*
X118994372Y-90692253D01*
X119107914Y-90674270D01*
X119107916Y-90674269D01*
X119117705Y-90672719D01*
X119237799Y-90611528D01*
X119333107Y-90516220D01*
X119394298Y-90396126D01*
X119398564Y-90369196D01*
X119413832Y-90272793D01*
X119415383Y-90263000D01*
X119409376Y-90225073D01*
X119418476Y-90154662D01*
X119464198Y-90100348D01*
X119491716Y-90087054D01*
X119498538Y-90085974D01*
X119500634Y-90084906D01*
X119567395Y-90082973D01*
X119628207Y-90119612D01*
X119647677Y-90147642D01*
X119701472Y-90253220D01*
X119796780Y-90348528D01*
X119916874Y-90409719D01*
X119926663Y-90411269D01*
X119926665Y-90411270D01*
X120040207Y-90429253D01*
X120050000Y-90430804D01*
X120059793Y-90429253D01*
X120173335Y-90411270D01*
X120173337Y-90411269D01*
X120183126Y-90409719D01*
X120303220Y-90348528D01*
X120398528Y-90253220D01*
X120459719Y-90133126D01*
X120461860Y-90119612D01*
X120479253Y-90009793D01*
X120480804Y-90000000D01*
X120466545Y-89909972D01*
X120461270Y-89876665D01*
X120461269Y-89876663D01*
X120459719Y-89866874D01*
X120398528Y-89746780D01*
X120303220Y-89651472D01*
X120183126Y-89590281D01*
X120173337Y-89588731D01*
X120173335Y-89588730D01*
X120059793Y-89570747D01*
X120050000Y-89569196D01*
X120040207Y-89570747D01*
X119926666Y-89588730D01*
X119926665Y-89588730D01*
X119916874Y-89590281D01*
X119914754Y-89591361D01*
X119847968Y-89593268D01*
X119787170Y-89556605D01*
X119767734Y-89528611D01*
X119724042Y-89442862D01*
X119713940Y-89423035D01*
X119618632Y-89327727D01*
X119498538Y-89266536D01*
X119488749Y-89264986D01*
X119488747Y-89264985D01*
X119375205Y-89247002D01*
X119365412Y-89245451D01*
X119355619Y-89247002D01*
X119242077Y-89264985D01*
X119242075Y-89264986D01*
X119232286Y-89266536D01*
X119112192Y-89327727D01*
X119016884Y-89423035D01*
X118955693Y-89543129D01*
X118954143Y-89552918D01*
X118954142Y-89552920D01*
X118940551Y-89638730D01*
X118934608Y-89676255D01*
X118936159Y-89686048D01*
X118940615Y-89714182D01*
X118931515Y-89784593D01*
X118885793Y-89838907D01*
X118858255Y-89852204D01*
X118851453Y-89853281D01*
X118731359Y-89914472D01*
X118636051Y-90009780D01*
X118574860Y-90129874D01*
X118573310Y-90139663D01*
X118573309Y-90139665D01*
X118565027Y-90191959D01*
X118553775Y-90263000D01*
X117931021Y-90263000D01*
X117971719Y-90183126D01*
X117984168Y-90104529D01*
X117991253Y-90059793D01*
X117992804Y-90050000D01*
X117983295Y-89989961D01*
X117973270Y-89926665D01*
X117973269Y-89926663D01*
X117971719Y-89916874D01*
X117910528Y-89796780D01*
X117815220Y-89701472D01*
X117695126Y-89640281D01*
X117685337Y-89638731D01*
X117685335Y-89638730D01*
X117571793Y-89620747D01*
X117562000Y-89619196D01*
X117552207Y-89620747D01*
X117438665Y-89638730D01*
X117438663Y-89638731D01*
X117428874Y-89640281D01*
X117308780Y-89701472D01*
X117213472Y-89796780D01*
X117152281Y-89916874D01*
X117150731Y-89926663D01*
X117150730Y-89926665D01*
X117140705Y-89989961D01*
X117131196Y-90050000D01*
X116775645Y-90050000D01*
X116748528Y-89996780D01*
X116653220Y-89901472D01*
X116533126Y-89840281D01*
X116523337Y-89838731D01*
X116523335Y-89838730D01*
X116409793Y-89820747D01*
X116400000Y-89819196D01*
X116390207Y-89820747D01*
X116276665Y-89838730D01*
X116276663Y-89838731D01*
X116266874Y-89840281D01*
X116146780Y-89901472D01*
X116051472Y-89996780D01*
X115990281Y-90116874D01*
X115988731Y-90126663D01*
X115988730Y-90126665D01*
X115978389Y-90191959D01*
X115969196Y-90250000D01*
X115016777Y-90250000D01*
X115011258Y-90215154D01*
X115011257Y-90215152D01*
X115009707Y-90205363D01*
X114948516Y-90085269D01*
X114853208Y-89989961D01*
X114733114Y-89928770D01*
X114723325Y-89927220D01*
X114723323Y-89927219D01*
X114609781Y-89909236D01*
X114599988Y-89907685D01*
X114590195Y-89909236D01*
X114476653Y-89927219D01*
X114476651Y-89927220D01*
X114466862Y-89928770D01*
X114346768Y-89989961D01*
X114303278Y-90033451D01*
X114240966Y-90067477D01*
X114170151Y-90062412D01*
X114113315Y-90019865D01*
X114101916Y-90001559D01*
X114067121Y-89933271D01*
X114048528Y-89896780D01*
X113953220Y-89801472D01*
X113833126Y-89740281D01*
X113823337Y-89738731D01*
X113823335Y-89738730D01*
X113709793Y-89720747D01*
X113700000Y-89719196D01*
X113690207Y-89720747D01*
X113576665Y-89738730D01*
X113576663Y-89738731D01*
X113566874Y-89740281D01*
X113446780Y-89801472D01*
X113351472Y-89896780D01*
X113290281Y-90016874D01*
X113288731Y-90026663D01*
X113288730Y-90026665D01*
X113279448Y-90085269D01*
X113269196Y-90150000D01*
X100450500Y-90150000D01*
X100450500Y-89298376D01*
X100452246Y-89277472D01*
X100454190Y-89265917D01*
X100454997Y-89261120D01*
X100455133Y-89250000D01*
X100453958Y-89241795D01*
X100453007Y-89214949D01*
X100465629Y-89038474D01*
X100468188Y-89020680D01*
X100505317Y-88850000D01*
X110969196Y-88850000D01*
X110970747Y-88859793D01*
X110986810Y-88961208D01*
X110990281Y-88983126D01*
X111051472Y-89103220D01*
X111146780Y-89198528D01*
X111266874Y-89259719D01*
X111276663Y-89261269D01*
X111276665Y-89261270D01*
X111390207Y-89279253D01*
X111400000Y-89280804D01*
X111409793Y-89279253D01*
X111523335Y-89261270D01*
X111523337Y-89261269D01*
X111533126Y-89259719D01*
X111653220Y-89198528D01*
X111748528Y-89103220D01*
X111753056Y-89094334D01*
X115555436Y-89094334D01*
X115556987Y-89104127D01*
X115571939Y-89198528D01*
X115576521Y-89227460D01*
X115637712Y-89347554D01*
X115733020Y-89442862D01*
X115853114Y-89504053D01*
X115862903Y-89505603D01*
X115862905Y-89505604D01*
X115976447Y-89523587D01*
X115986240Y-89525138D01*
X115996033Y-89523587D01*
X116109575Y-89505604D01*
X116109577Y-89505603D01*
X116119366Y-89504053D01*
X116239460Y-89442862D01*
X116334768Y-89347554D01*
X116395959Y-89227460D01*
X116400542Y-89198528D01*
X116415493Y-89104127D01*
X116417044Y-89094334D01*
X116406773Y-89029483D01*
X116397510Y-88970999D01*
X116397509Y-88970997D01*
X116395959Y-88961208D01*
X116334768Y-88841114D01*
X116239460Y-88745806D01*
X116119366Y-88684615D01*
X116109577Y-88683065D01*
X116109575Y-88683064D01*
X115996033Y-88665081D01*
X115986240Y-88663530D01*
X115976447Y-88665081D01*
X115862905Y-88683064D01*
X115862903Y-88683065D01*
X115853114Y-88684615D01*
X115733020Y-88745806D01*
X115637712Y-88841114D01*
X115576521Y-88961208D01*
X115574971Y-88970997D01*
X115574970Y-88970999D01*
X115565707Y-89029483D01*
X115555436Y-89094334D01*
X111753056Y-89094334D01*
X111809719Y-88983126D01*
X111813191Y-88961208D01*
X111829253Y-88859793D01*
X111830804Y-88850000D01*
X111825863Y-88818804D01*
X111811270Y-88726665D01*
X111811269Y-88726663D01*
X111809719Y-88716874D01*
X111748528Y-88596780D01*
X111653220Y-88501472D01*
X111533126Y-88440281D01*
X111523337Y-88438731D01*
X111523335Y-88438730D01*
X111409793Y-88420747D01*
X111400000Y-88419196D01*
X111390207Y-88420747D01*
X111276665Y-88438730D01*
X111276663Y-88438731D01*
X111266874Y-88440281D01*
X111146780Y-88501472D01*
X111051472Y-88596780D01*
X110990281Y-88716874D01*
X110988731Y-88726663D01*
X110988730Y-88726665D01*
X110974137Y-88818804D01*
X110969196Y-88850000D01*
X100505317Y-88850000D01*
X100511352Y-88822259D01*
X100516416Y-88805010D01*
X100580800Y-88632388D01*
X100587378Y-88614752D01*
X100594845Y-88598402D01*
X100599559Y-88589769D01*
X100692161Y-88420183D01*
X100701878Y-88405063D01*
X100703402Y-88403028D01*
X100802720Y-88270354D01*
X100823568Y-88242504D01*
X100835341Y-88228918D01*
X100978918Y-88085341D01*
X100992504Y-88073568D01*
X101121865Y-87976730D01*
X101155066Y-87951876D01*
X101170183Y-87942161D01*
X101348405Y-87844843D01*
X101364752Y-87837378D01*
X101511972Y-87782468D01*
X101555010Y-87766416D01*
X101572259Y-87761352D01*
X101770680Y-87718188D01*
X101788474Y-87715629D01*
X101961696Y-87703240D01*
X101976590Y-87703858D01*
X101976593Y-87703608D01*
X101985569Y-87703718D01*
X101994440Y-87705099D01*
X102003342Y-87703935D01*
X102003345Y-87703935D01*
X102021473Y-87701564D01*
X102037810Y-87700500D01*
X102294915Y-87700500D01*
X102363036Y-87720502D01*
G37*
%TD.AperFunction*%
%TD*%
M02*
