%TF.GenerationSoftware,KiCad,Pcbnew,(6.0.4)*%
%TF.CreationDate,2022-08-13T13:22:29+02:00*%
%TF.ProjectId,mta1_usb,6d746131-5f75-4736-922e-6b696361645f,rev?*%
%TF.SameCoordinates,Original*%
%TF.FileFunction,Legend,Top*%
%TF.FilePolarity,Positive*%
%FSLAX46Y46*%
G04 Gerber Fmt 4.6, Leading zero omitted, Abs format (unit mm)*
G04 Created by KiCad (PCBNEW (6.0.4)) date 2022-08-13 13:22:29*
%MOMM*%
%LPD*%
G01*
G04 APERTURE LIST*
%ADD10C,0.120000*%
%ADD11C,0.100000*%
%ADD12C,0.050000*%
%ADD13C,0.150000*%
G04 APERTURE END LIST*
D10*
%TO.C,C7*%
X111810000Y-92757836D02*
X111810000Y-92542164D01*
X111090000Y-92757836D02*
X111090000Y-92542164D01*
%TO.C,C13*%
X111990000Y-92757836D02*
X111990000Y-92542164D01*
X112710000Y-92757836D02*
X112710000Y-92542164D01*
%TO.C,C16*%
X123678307Y-92630810D02*
X123830810Y-92478307D01*
X123169190Y-92121693D02*
X123321693Y-91969190D01*
%TO.C,C17*%
X114621693Y-97869190D02*
X114469190Y-98021693D01*
X115130810Y-98378307D02*
X114978307Y-98530810D01*
%TO.C,C18*%
X114130810Y-92571693D02*
X113978307Y-92419190D01*
X113621693Y-93080810D02*
X113469190Y-92928307D01*
%TO.C,C19*%
X124378307Y-93330810D02*
X124530810Y-93178307D01*
X123869190Y-92821693D02*
X124021693Y-92669190D01*
%TO.C,C20*%
X115830810Y-99078307D02*
X115678307Y-99230810D01*
X115321693Y-98569190D02*
X115169190Y-98721693D01*
%TO.C,C21*%
X116530810Y-99778307D02*
X116378307Y-99930810D01*
X116021693Y-99269190D02*
X115869190Y-99421693D01*
D11*
%TO.C,D1*%
X113640000Y-90850000D02*
G75*
G03*
X113640000Y-90850000I-50000J0D01*
G01*
D12*
%TO.C,D3*%
X126652780Y-98302300D02*
X126652780Y-98502960D01*
X126419100Y-98302300D02*
X126652780Y-98302300D01*
D10*
%TO.C,R1*%
X103930000Y-88546359D02*
X103930000Y-88853641D01*
X103170000Y-88546359D02*
X103170000Y-88853641D01*
%TO.C,R2*%
X103170000Y-92496359D02*
X103170000Y-92803641D01*
X103930000Y-92496359D02*
X103930000Y-92803641D01*
%TO.C,R16*%
X121760060Y-99222659D02*
X121977341Y-99439940D01*
X121222659Y-99760060D02*
X121439940Y-99977341D01*
%TO.C,R17*%
X122460060Y-98522659D02*
X122677341Y-98739940D01*
X121922659Y-99060060D02*
X122139940Y-99277341D01*
%TO.C,R18*%
X123160060Y-97822659D02*
X123377341Y-98039940D01*
X122622659Y-98360060D02*
X122839940Y-98577341D01*
%TO.C,R19*%
X123077341Y-91810060D02*
X122860060Y-92027341D01*
X122539940Y-91272659D02*
X122322659Y-91489940D01*
%TO.C,U5*%
X105000000Y-97160000D02*
X104200000Y-97160000D01*
X105000000Y-97160000D02*
X106800000Y-97160000D01*
X105000000Y-94040000D02*
X104200000Y-94040000D01*
X105000000Y-94040000D02*
X105800000Y-94040000D01*
%TO.C,U6*%
X118900000Y-100205311D02*
X118564124Y-99869435D01*
X123669435Y-95435876D02*
X124005311Y-95100000D01*
X118900000Y-89994689D02*
X119235876Y-90330565D01*
X114130565Y-94764124D02*
X113794689Y-95100000D01*
X119235876Y-99869435D02*
X118900000Y-100205311D01*
X118564124Y-90330565D02*
X118900000Y-89994689D01*
X113794689Y-95100000D02*
X114130565Y-95435876D01*
%TO.C,C6*%
X105453750Y-92059420D02*
X105453750Y-92340580D01*
X104433750Y-92059420D02*
X104433750Y-92340580D01*
%TO.C,C25*%
X112540000Y-98659420D02*
X112540000Y-98940580D01*
X113560000Y-98659420D02*
X113560000Y-98940580D01*
%TO.C,FB3*%
X110977500Y-98562742D02*
X110977500Y-99037258D01*
X112022500Y-98562742D02*
X112022500Y-99037258D01*
%TO.C,R22*%
X102620000Y-98846359D02*
X102620000Y-99153641D01*
X103380000Y-98846359D02*
X103380000Y-99153641D01*
%TO.C,R29*%
X103170000Y-90803641D02*
X103170000Y-90496359D01*
X103930000Y-90803641D02*
X103930000Y-90496359D01*
%TO.C,R20*%
X115522659Y-90810060D02*
X115739940Y-91027341D01*
X116060060Y-90272659D02*
X116277341Y-90489940D01*
%TO.C,C1*%
X104333750Y-88759420D02*
X104333750Y-89040580D01*
X105353750Y-88759420D02*
X105353750Y-89040580D01*
%TO.C,C5*%
X110960000Y-88759420D02*
X110960000Y-89040580D01*
X109940000Y-88759420D02*
X109940000Y-89040580D01*
%TO.C,U2*%
X107643750Y-90560000D02*
X106843750Y-90560000D01*
X107643750Y-87440000D02*
X105843750Y-87440000D01*
X107643750Y-90560000D02*
X108443750Y-90560000D01*
X107643750Y-87440000D02*
X108443750Y-87440000D01*
%TO.C,C4*%
X109490000Y-98659420D02*
X109490000Y-98940580D01*
X110510000Y-98659420D02*
X110510000Y-98940580D01*
%TO.C,C2*%
X104960000Y-98659420D02*
X104960000Y-98940580D01*
X103940000Y-98659420D02*
X103940000Y-98940580D01*
%TO.C,U1*%
X107250000Y-100510000D02*
X108050000Y-100510000D01*
X107250000Y-97390000D02*
X105450000Y-97390000D01*
X107250000Y-97390000D02*
X108050000Y-97390000D01*
X107250000Y-100510000D02*
X106450000Y-100510000D01*
%TO.C,C3*%
X110753750Y-92059420D02*
X110753750Y-92340580D01*
X109733750Y-92059420D02*
X109733750Y-92340580D01*
%TO.C,R3*%
X115310060Y-90972659D02*
X115527341Y-91189940D01*
X114772659Y-91510060D02*
X114989940Y-91727341D01*
%TO.C,C22*%
X114321693Y-92380810D02*
X114169190Y-92228307D01*
X114830810Y-91871693D02*
X114678307Y-91719190D01*
%TO.C,U9*%
X106693750Y-93810000D02*
X108493750Y-93810000D01*
X108493750Y-90590000D02*
X106043750Y-90590000D01*
%TO.C,R25*%
X118353641Y-87570000D02*
X118046359Y-87570000D01*
X118353641Y-88330000D02*
X118046359Y-88330000D01*
%TO.C,C23*%
X112607836Y-90210000D02*
X112392164Y-90210000D01*
X112607836Y-89490000D02*
X112392164Y-89490000D01*
D13*
%TO.C,U3*%
X111875000Y-93825000D02*
X108525000Y-93825000D01*
X108525000Y-97175000D02*
X108525000Y-96875000D01*
X108525000Y-93825000D02*
X108525000Y-94125000D01*
X111875000Y-97175000D02*
X111875000Y-96950000D01*
X111875000Y-93825000D02*
X111875000Y-94125000D01*
X111875000Y-97175000D02*
X108525000Y-97175000D01*
X111875000Y-96950000D02*
X113100000Y-96950000D01*
D10*
%TO.C,C26*%
X119690000Y-88957836D02*
X119690000Y-88742164D01*
X120410000Y-88957836D02*
X120410000Y-88742164D01*
%TO.C,R23*%
X118353641Y-88670000D02*
X118046359Y-88670000D01*
X118353641Y-89430000D02*
X118046359Y-89430000D01*
%TO.C,R26*%
X112346359Y-88520000D02*
X112653641Y-88520000D01*
X112346359Y-89280000D02*
X112653641Y-89280000D01*
%TO.C,U10*%
X122700000Y-90560000D02*
X121900000Y-90560000D01*
X122700000Y-87440000D02*
X123500000Y-87440000D01*
X122700000Y-87440000D02*
X121900000Y-87440000D01*
X122700000Y-90560000D02*
X124500000Y-90560000D01*
%TO.C,U8*%
X114700000Y-87500000D02*
X116100000Y-87500000D01*
X114700000Y-89700000D02*
X116625000Y-89700000D01*
%TO.C,R30*%
X125596359Y-90080000D02*
X125903641Y-90080000D01*
X125596359Y-89320000D02*
X125903641Y-89320000D01*
%TO.C,C27*%
X125642164Y-88340000D02*
X125857836Y-88340000D01*
X125642164Y-89060000D02*
X125857836Y-89060000D01*
%TO.C,C8*%
X127110000Y-94711252D02*
X127110000Y-93288748D01*
X125290000Y-94711252D02*
X125290000Y-93288748D01*
%TO.C,R24*%
X112346359Y-87570000D02*
X112653641Y-87570000D01*
X112346359Y-88330000D02*
X112653641Y-88330000D01*
%TD*%
M02*
