M48
; DRILL file {KiCad (6.0.4)} date Sat Aug 13 13:22:32 2022
; FORMAT={-:-/ absolute / inch / decimal}
; #@! TF.CreationDate,2022-08-13T13:22:32+02:00
; #@! TF.GenerationSoftware,Kicad,Pcbnew,(6.0.4)
; #@! TF.FileFunction,Plated,1,4,PTH
FMAT,2
INCH
; #@! TA.AperFunction,Plated,PTH,ViaDrill
T1C0.0098
%
G90
G05
T1
X4.0236Y-3.563
X4.0236Y-3.5886
X4.0276Y-3.6476
X4.0294Y-3.7363
X4.0295Y-3.7677
X4.0295Y-3.7972
X4.0315Y-3.8327
X4.0315Y-3.8583
X4.0354Y-3.6201
X4.0354Y-3.935
X4.0472Y-3.4665
X4.0472Y-3.5512
X4.0546Y-3.5219
X4.0632Y-3.6078
X4.0748Y-3.8583
X4.1414Y-3.884
X4.1553Y-3.4724
X4.1572Y-3.5118
X4.1572Y-3.5925
X4.1592Y-3.6358
X4.2133Y-3.7605
X4.2205Y-3.8799
X4.2283Y-3.6791
X4.2559Y-3.8898
X4.2894Y-3.8893
X4.3051Y-3.8209
X4.3071Y-3.7539
X4.311Y-3.6401
X4.3127Y-3.5965
X4.313Y-3.7854
X4.3209Y-3.4685
X4.3484Y-3.5571
X4.3586Y-3.8935
X4.3595Y-3.9358
X4.3858Y-3.498
X4.3858Y-3.5374
X4.3858Y-3.5748
X4.3878Y-3.6063
X4.4173Y-3.6063
X4.4213Y-3.8917
X4.4528Y-3.6831
X4.4587Y-3.6122
X4.4685Y-3.4798
X4.4764Y-3.5492
X4.4764Y-3.593
X4.4935Y-3.9424
X4.4957Y-3.8638
X4.5039Y-3.8095
X4.5087Y-3.9232
X4.5118Y-3.5566
X4.5157Y-3.6772
X4.518Y-3.4643
X4.5276Y-3.8249
X4.5335Y-3.939
X4.5591Y-3.624
X4.562Y-3.8566
X4.5664Y-3.5077
X4.5712Y-3.4581
X4.5827Y-3.5531
X4.5886Y-3.9409
X4.5999Y-3.8934
X4.6024Y-3.7441
X4.6116Y-3.9201
X4.6284Y-3.5453
X4.6417Y-3.7047
X4.6417Y-3.7835
X4.6529Y-3.4841
X4.6732Y-3.939
X4.6791Y-3.8228
X4.6811Y-3.6654
X4.6811Y-3.7441
X4.6844Y-3.5537
X4.6994Y-3.5306
X4.7185Y-3.7047
X4.7185Y-3.7835
X4.7264Y-3.5433
X4.7441Y-3.4626
X4.7441Y-3.939
X4.7597Y-3.5737
X4.7598Y-3.7441
X4.8307Y-3.5236
X4.8327Y-3.561
X4.8386Y-3.6639
X4.8572Y-3.5776
X4.8631Y-3.6881
X4.8819Y-3.874
X4.8898Y-3.5965
X4.9016Y-3.622
X4.9133Y-3.8739
X4.9941Y-3.5079
X4.9941Y-3.8819
T0
M30
