%TF.GenerationSoftware,KiCad,Pcbnew,(6.0.4)*%
%TF.CreationDate,2022-08-13T13:22:29+02:00*%
%TF.ProjectId,mta1_usb,6d746131-5f75-4736-922e-6b696361645f,rev?*%
%TF.SameCoordinates,Original*%
%TF.FileFunction,Copper,L3,Inr*%
%TF.FilePolarity,Positive*%
%FSLAX46Y46*%
G04 Gerber Fmt 4.6, Leading zero omitted, Abs format (unit mm)*
G04 Created by KiCad (PCBNEW (6.0.4)) date 2022-08-13 13:22:29*
%MOMM*%
%LPD*%
G01*
G04 APERTURE LIST*
%TA.AperFunction,ViaPad*%
%ADD10C,0.600000*%
%TD*%
%TA.AperFunction,Conductor*%
%ADD11C,0.125000*%
%TD*%
%TA.AperFunction,Conductor*%
%ADD12C,0.600000*%
%TD*%
%TA.AperFunction,Conductor*%
%ADD13C,0.200000*%
%TD*%
G04 APERTURE END LIST*
D10*
%TO.N,GND*%
X108951563Y-98787032D03*
X113700000Y-91262489D03*
X126850000Y-89100000D03*
X109499292Y-92457430D03*
X105643750Y-92350000D03*
X116550000Y-100100000D03*
X102200000Y-90500000D03*
X107017510Y-95517510D03*
X112200000Y-91600000D03*
X117900000Y-96100000D03*
X116900000Y-95100000D03*
X114190950Y-98140450D03*
X110450000Y-90350000D03*
X116107816Y-87836928D03*
X119850000Y-94100000D03*
X118900000Y-93100000D03*
X102800000Y-90200000D03*
X102987526Y-89456771D03*
X124200000Y-91350000D03*
X102200000Y-91150000D03*
X114136045Y-100136045D03*
X111450000Y-91600000D03*
X113250000Y-91750000D03*
X114521610Y-99650000D03*
X117900000Y-94100000D03*
X105593750Y-89200000D03*
X118900000Y-95100000D03*
X122700000Y-89500000D03*
X105191730Y-98653959D03*
X120500000Y-87950000D03*
X119850000Y-96100000D03*
X102400000Y-98000000D03*
X102400000Y-97350000D03*
X124500000Y-92000000D03*
X120900000Y-95100000D03*
X111400000Y-89850000D03*
X115800000Y-92050000D03*
X118850000Y-97100000D03*
%TO.N,+5V*%
X105543750Y-88200000D03*
X105593750Y-91250000D03*
X102500000Y-91950000D03*
X103500000Y-98000000D03*
X102300000Y-92650000D03*
X102350000Y-95700000D03*
X102800000Y-88050000D03*
X102350000Y-96450000D03*
%TO.N,+3V3*%
X114700000Y-93400000D03*
X123371981Y-90871981D03*
X111400000Y-88850000D03*
X119365412Y-89676255D03*
X107200000Y-98550000D03*
X123522528Y-93677472D03*
X116836928Y-98892184D03*
X109550000Y-96150000D03*
X114599988Y-90338489D03*
X109543750Y-91350000D03*
X109350000Y-97050000D03*
X109400000Y-95350000D03*
X120050000Y-90000000D03*
X126850000Y-98600000D03*
X113700000Y-90150000D03*
%TO.N,+2V5*%
X111400000Y-90800000D03*
X113100000Y-93550000D03*
X108100000Y-98800000D03*
%TO.N,+1V2*%
X122900238Y-93064220D03*
X115875683Y-97957964D03*
X110732513Y-99969111D03*
X109750000Y-88100000D03*
%TO.N,APP_CDONE*%
X122750000Y-90450000D03*
%TO.N,APP_CRESET*%
X116400000Y-90250000D03*
X120896377Y-90771778D03*
%TO.N,APP_ICE_SCK*%
X113500000Y-88388000D03*
X117562000Y-90050000D03*
%TO.N,SPI_VCC_OK*%
X107400000Y-93450000D03*
X102500000Y-99950000D03*
%TO.N,TX*%
X110707631Y-98894377D03*
%TO.N,Net-(P1-PadA5)*%
X102346800Y-94903200D03*
X103206258Y-91637342D03*
%TO.N,APP_ICE_SS*%
X118183368Y-88496982D03*
%TO.N,APP_ICE_MOSI*%
X115986240Y-89094334D03*
%TO.N,APP_ICE_MISO*%
X118984579Y-90263000D03*
X114756811Y-87993272D03*
%TO.N,RX*%
X112300000Y-98850000D03*
%TO.N,RTS*%
X115001531Y-97152723D03*
X115150000Y-100050000D03*
%TO.N,CTS*%
X117134427Y-99569435D03*
X114400000Y-96762000D03*
%TO.N,APP_GPIO1*%
X118700000Y-100050000D03*
%TO.N,APP_GPIO2*%
X120500000Y-100050000D03*
%TO.N,APP_GPIO3*%
X124000000Y-98400500D03*
%TO.N,APP_GPIO4*%
X124796800Y-98396800D03*
%TD*%
D11*
%TO.N,CTS*%
X115765712Y-96665712D02*
X114496288Y-96665712D01*
X116349917Y-98600083D02*
X116650000Y-98300000D01*
X116650000Y-97550000D02*
X115765712Y-96665712D01*
X116349917Y-99093912D02*
X116349917Y-98600083D01*
X116650000Y-98300000D02*
X116650000Y-97550000D01*
X116825440Y-99569435D02*
X116349917Y-99093912D01*
X117134427Y-99569435D02*
X116825440Y-99569435D01*
X114496288Y-96665712D02*
X114400000Y-96762000D01*
%TO.N,RTS*%
X115852723Y-97152723D02*
X115001531Y-97152723D01*
X116400000Y-98197126D02*
X116400000Y-97700000D01*
X116400000Y-97700000D02*
X115852723Y-97152723D01*
X116100397Y-99099603D02*
X116100398Y-98496728D01*
X116100398Y-98496728D02*
X116400000Y-98197126D01*
X115150000Y-100050000D02*
X116100397Y-99099603D01*
D12*
%TO.N,+1V2*%
X110224511Y-98125489D02*
X109800000Y-98550000D01*
X113800000Y-98900000D02*
X113025489Y-98125489D01*
X113025489Y-98125489D02*
X110224511Y-98125489D01*
X114933647Y-98900000D02*
X113800000Y-98900000D01*
X115875683Y-97957964D02*
X114933647Y-98900000D01*
X108350000Y-89400000D02*
X109650000Y-88100000D01*
X108350000Y-97100000D02*
X108350000Y-89400000D01*
X109800000Y-98550000D02*
X108350000Y-97100000D01*
X109650000Y-88100000D02*
X109750000Y-88100000D01*
D11*
%TO.N,SPI_VCC_OK*%
X106450000Y-98750000D02*
X105250000Y-99950000D01*
X107400000Y-93450000D02*
X106450000Y-94400000D01*
X105250000Y-99950000D02*
X102500000Y-99950000D01*
X106450000Y-94400000D02*
X106450000Y-98750000D01*
D12*
%TO.N,+1V2*%
X109800000Y-99036598D02*
X109800000Y-98550000D01*
X110732513Y-99969111D02*
X109800000Y-99036598D01*
D11*
%TO.N,APP_ICE_MISO*%
X117811519Y-89610780D02*
X117811519Y-89608645D01*
X118463739Y-90263000D02*
X117811519Y-89610780D01*
X116552874Y-88350000D02*
X115113539Y-88350000D01*
X118984579Y-90263000D02*
X118463739Y-90263000D01*
X117811519Y-89608645D02*
X116552874Y-88350000D01*
X115113539Y-88350000D02*
X114756811Y-87993272D01*
%TO.N,APP_ICE_SCK*%
X117562000Y-89712000D02*
X116457323Y-88607323D01*
X117562000Y-90050000D02*
X117562000Y-89712000D01*
X116457323Y-88607323D02*
X113719323Y-88607323D01*
X113719323Y-88607323D02*
X113500000Y-88388000D01*
D13*
%TO.N,+2V5*%
X112141772Y-90800000D02*
X111400000Y-90800000D01*
X112724511Y-93174511D02*
X112724511Y-91382739D01*
X112724511Y-91382739D02*
X112141772Y-90800000D01*
X113100000Y-93550000D02*
X112724511Y-93174511D01*
D12*
%TO.N,+1V2*%
X114725489Y-89425489D02*
X115650000Y-90350000D01*
X113025489Y-89425489D02*
X114725489Y-89425489D01*
X115650000Y-90850000D02*
X116050000Y-91250000D01*
X111700000Y-88100000D02*
X113025489Y-89425489D01*
X115650000Y-90350000D02*
X115650000Y-90850000D01*
X109750000Y-88100000D02*
X111700000Y-88100000D01*
X122164220Y-93064220D02*
X122900238Y-93064220D01*
X120350000Y-91250000D02*
X122164220Y-93064220D01*
X116050000Y-91250000D02*
X120350000Y-91250000D01*
D11*
%TO.N,APP_CRESET*%
X116900000Y-90750000D02*
X116400000Y-90250000D01*
X120874599Y-90750000D02*
X116900000Y-90750000D01*
X120896377Y-90771778D02*
X120874599Y-90750000D01*
D13*
%TO.N,Net-(P1-PadA5)*%
X103500000Y-93750000D02*
X102346800Y-94903200D01*
X103500000Y-91931084D02*
X103500000Y-93750000D01*
X103206258Y-91637342D02*
X103500000Y-91931084D01*
%TD*%
%TA.AperFunction,Conductor*%
%TO.N,+5V*%
G36*
X107892121Y-87720502D02*
G01*
X107938614Y-87774158D01*
X107950000Y-87826500D01*
X107950000Y-89222025D01*
X107944076Y-89259425D01*
X107940281Y-89266874D01*
X107938264Y-89279610D01*
X107936528Y-89290570D01*
X107931914Y-89309790D01*
X107924500Y-89332607D01*
X107924500Y-93068562D01*
X107904498Y-93136683D01*
X107850842Y-93183176D01*
X107780568Y-93193280D01*
X107715988Y-93163786D01*
X107709405Y-93157657D01*
X107653220Y-93101472D01*
X107533126Y-93040281D01*
X107523337Y-93038731D01*
X107523335Y-93038730D01*
X107409793Y-93020747D01*
X107400000Y-93019196D01*
X107390207Y-93020747D01*
X107276665Y-93038730D01*
X107276663Y-93038731D01*
X107266874Y-93040281D01*
X107146780Y-93101472D01*
X107051472Y-93196780D01*
X106990281Y-93316874D01*
X106969196Y-93450000D01*
X106970747Y-93459793D01*
X106981704Y-93528972D01*
X106972604Y-93599383D01*
X106946350Y-93637778D01*
X106340166Y-94243962D01*
X106339628Y-94244442D01*
X106329957Y-94249086D01*
X106321096Y-94260166D01*
X106321095Y-94260167D01*
X106314013Y-94269023D01*
X106309120Y-94274490D01*
X106307078Y-94277050D01*
X106302076Y-94282052D01*
X106298312Y-94288041D01*
X106295921Y-94291038D01*
X106292047Y-94296490D01*
X106276387Y-94316072D01*
X106273902Y-94326879D01*
X106268002Y-94336266D01*
X106266408Y-94350364D01*
X106265187Y-94361162D01*
X106264012Y-94368037D01*
X106263598Y-94371688D01*
X106262000Y-94378637D01*
X106262000Y-94385771D01*
X106261607Y-94389235D01*
X106261202Y-94396411D01*
X106258366Y-94421495D01*
X106261952Y-94431763D01*
X106262000Y-94432625D01*
X106262000Y-98619938D01*
X106241998Y-98688059D01*
X106225095Y-98709033D01*
X105209033Y-99725095D01*
X105146721Y-99759121D01*
X105119938Y-99762000D01*
X102958195Y-99762000D01*
X102890074Y-99741998D01*
X102856259Y-99710061D01*
X102853032Y-99705619D01*
X102848528Y-99696780D01*
X102753220Y-99601472D01*
X102633126Y-99540281D01*
X102623337Y-99538731D01*
X102623335Y-99538730D01*
X102509793Y-99520747D01*
X102500000Y-99519196D01*
X102490207Y-99520747D01*
X102376665Y-99538730D01*
X102376663Y-99538731D01*
X102366874Y-99540281D01*
X102246780Y-99601472D01*
X102151472Y-99696780D01*
X102090281Y-99816874D01*
X102088731Y-99826663D01*
X102088730Y-99826665D01*
X102072850Y-99926931D01*
X102069196Y-99950000D01*
X102070747Y-99959793D01*
X102088251Y-100070306D01*
X102090281Y-100083126D01*
X102094782Y-100091959D01*
X102094783Y-100091963D01*
X102105411Y-100112822D01*
X102118515Y-100182599D01*
X102091814Y-100248384D01*
X102033786Y-100289289D01*
X102005038Y-100293886D01*
X102005171Y-100294896D01*
X101993115Y-100296483D01*
X101967780Y-100297247D01*
X101917450Y-100293687D01*
X101788086Y-100284535D01*
X101770281Y-100281988D01*
X101571855Y-100238951D01*
X101554584Y-100233890D01*
X101364317Y-100163025D01*
X101347944Y-100155555D01*
X101304974Y-100132109D01*
X101169713Y-100058305D01*
X101154581Y-100048585D01*
X100992017Y-99926931D01*
X100978415Y-99915146D01*
X100834854Y-99771585D01*
X100823069Y-99757983D01*
X100772018Y-99689765D01*
X100701415Y-99595419D01*
X100691695Y-99580287D01*
X100594445Y-99402056D01*
X100586975Y-99385683D01*
X100516110Y-99195416D01*
X100511049Y-99178146D01*
X100490795Y-99084763D01*
X100468012Y-98979719D01*
X100465464Y-98961909D01*
X100462089Y-98914190D01*
X100453210Y-98788682D01*
X100453840Y-98773797D01*
X100453588Y-98773794D01*
X100453706Y-98764814D01*
X100455094Y-98755947D01*
X100453748Y-98745581D01*
X100451550Y-98728664D01*
X100450500Y-98712433D01*
X100450500Y-98653959D01*
X104760926Y-98653959D01*
X104762477Y-98663752D01*
X104777660Y-98759611D01*
X104782011Y-98787085D01*
X104843202Y-98907179D01*
X104938510Y-99002487D01*
X105058604Y-99063678D01*
X105068393Y-99065228D01*
X105068395Y-99065229D01*
X105181937Y-99083212D01*
X105191730Y-99084763D01*
X105201523Y-99083212D01*
X105315065Y-99065229D01*
X105315067Y-99065228D01*
X105324856Y-99063678D01*
X105444950Y-99002487D01*
X105540258Y-98907179D01*
X105601449Y-98787085D01*
X105605801Y-98759611D01*
X105620983Y-98663752D01*
X105622534Y-98653959D01*
X105601449Y-98520833D01*
X105540258Y-98400739D01*
X105444950Y-98305431D01*
X105324856Y-98244240D01*
X105315067Y-98242690D01*
X105315065Y-98242689D01*
X105201523Y-98224706D01*
X105191730Y-98223155D01*
X105181937Y-98224706D01*
X105068395Y-98242689D01*
X105068393Y-98242690D01*
X105058604Y-98244240D01*
X104938510Y-98305431D01*
X104843202Y-98400739D01*
X104782011Y-98520833D01*
X104760926Y-98653959D01*
X100450500Y-98653959D01*
X100450500Y-98000000D01*
X101969196Y-98000000D01*
X101970747Y-98009793D01*
X101988075Y-98119196D01*
X101990281Y-98133126D01*
X102051472Y-98253220D01*
X102146780Y-98348528D01*
X102266874Y-98409719D01*
X102276663Y-98411269D01*
X102276665Y-98411270D01*
X102390207Y-98429253D01*
X102400000Y-98430804D01*
X102409793Y-98429253D01*
X102523335Y-98411270D01*
X102523337Y-98411269D01*
X102533126Y-98409719D01*
X102653220Y-98348528D01*
X102748528Y-98253220D01*
X102809719Y-98133126D01*
X102811926Y-98119196D01*
X102829253Y-98009793D01*
X102830804Y-98000000D01*
X102809719Y-97866874D01*
X102748528Y-97746780D01*
X102746858Y-97745110D01*
X102724410Y-97682194D01*
X102740489Y-97613043D01*
X102743697Y-97608051D01*
X102748528Y-97603220D01*
X102809719Y-97483126D01*
X102813520Y-97459131D01*
X102829253Y-97359793D01*
X102830804Y-97350000D01*
X102822185Y-97295581D01*
X102811270Y-97226665D01*
X102811269Y-97226663D01*
X102809719Y-97216874D01*
X102748528Y-97096780D01*
X102653220Y-97001472D01*
X102533126Y-96940281D01*
X102523337Y-96938731D01*
X102523335Y-96938730D01*
X102409793Y-96920747D01*
X102400000Y-96919196D01*
X102390207Y-96920747D01*
X102276665Y-96938730D01*
X102276663Y-96938731D01*
X102266874Y-96940281D01*
X102146780Y-97001472D01*
X102051472Y-97096780D01*
X101990281Y-97216874D01*
X101988731Y-97226663D01*
X101988730Y-97226665D01*
X101977815Y-97295581D01*
X101969196Y-97350000D01*
X101970747Y-97359793D01*
X101986481Y-97459131D01*
X101990281Y-97483126D01*
X102051472Y-97603220D01*
X102053142Y-97604890D01*
X102075590Y-97667806D01*
X102059511Y-97736957D01*
X102056303Y-97741949D01*
X102051472Y-97746780D01*
X101990281Y-97866874D01*
X101969196Y-98000000D01*
X100450500Y-98000000D01*
X100450500Y-97116055D01*
X100451839Y-97104353D01*
X100451319Y-97104312D01*
X100452058Y-97094921D01*
X100454185Y-97085745D01*
X100450815Y-97038150D01*
X100450500Y-97029252D01*
X100450500Y-97016150D01*
X100448886Y-97005414D01*
X100447801Y-96995582D01*
X100445282Y-96960013D01*
X100444617Y-96950616D01*
X100441217Y-96941829D01*
X100439355Y-96933498D01*
X100436849Y-96925351D01*
X100435449Y-96916038D01*
X100415933Y-96875396D01*
X100412006Y-96866321D01*
X100399136Y-96833055D01*
X100395739Y-96824274D01*
X100389909Y-96816879D01*
X100385682Y-96809468D01*
X100380885Y-96802409D01*
X100376809Y-96793921D01*
X100370418Y-96787007D01*
X100346200Y-96760807D01*
X100339779Y-96753288D01*
X100317705Y-96725288D01*
X100317702Y-96725285D01*
X100311872Y-96717890D01*
X100304126Y-96712537D01*
X100297902Y-96706692D01*
X100291248Y-96701361D01*
X100284854Y-96694444D01*
X100245862Y-96671796D01*
X100237509Y-96666495D01*
X100208178Y-96646223D01*
X100208177Y-96646222D01*
X100200431Y-96640869D01*
X100191452Y-96638029D01*
X100183781Y-96634271D01*
X100175854Y-96631132D01*
X100167713Y-96626404D01*
X100158546Y-96624279D01*
X100158543Y-96624278D01*
X100123793Y-96616224D01*
X100114250Y-96613613D01*
X100088006Y-96605313D01*
X100029087Y-96565701D01*
X100000938Y-96500523D01*
X100000000Y-96485178D01*
X100000000Y-94903200D01*
X101915996Y-94903200D01*
X101937081Y-95036326D01*
X101998272Y-95156420D01*
X102093580Y-95251728D01*
X102213674Y-95312919D01*
X102223463Y-95314469D01*
X102223465Y-95314470D01*
X102337007Y-95332453D01*
X102346800Y-95334004D01*
X102356593Y-95332453D01*
X102470135Y-95314470D01*
X102470137Y-95314469D01*
X102479926Y-95312919D01*
X102600020Y-95251728D01*
X102695328Y-95156420D01*
X102756519Y-95036326D01*
X102777604Y-94903200D01*
X102772347Y-94870010D01*
X102781446Y-94799599D01*
X102807701Y-94761204D01*
X103652928Y-93915977D01*
X103657712Y-93911436D01*
X103666359Y-93903650D01*
X103686509Y-93885507D01*
X103694755Y-93866985D01*
X103704183Y-93849622D01*
X103715226Y-93832618D01*
X103717298Y-93819537D01*
X103719080Y-93814894D01*
X103720114Y-93810028D01*
X103725500Y-93797932D01*
X103725500Y-93777666D01*
X103727051Y-93757955D01*
X103728151Y-93751011D01*
X103730222Y-93737935D01*
X103726795Y-93725146D01*
X103726102Y-93711918D01*
X103726576Y-93711893D01*
X103725500Y-93703723D01*
X103725500Y-92350000D01*
X105212946Y-92350000D01*
X105234031Y-92483126D01*
X105295222Y-92603220D01*
X105390530Y-92698528D01*
X105510624Y-92759719D01*
X105520413Y-92761269D01*
X105520415Y-92761270D01*
X105633957Y-92779253D01*
X105643750Y-92780804D01*
X105653543Y-92779253D01*
X105767085Y-92761270D01*
X105767087Y-92761269D01*
X105776876Y-92759719D01*
X105896970Y-92698528D01*
X105992278Y-92603220D01*
X106053469Y-92483126D01*
X106074554Y-92350000D01*
X106053469Y-92216874D01*
X105992278Y-92096780D01*
X105896970Y-92001472D01*
X105776876Y-91940281D01*
X105767087Y-91938731D01*
X105767085Y-91938730D01*
X105653543Y-91920747D01*
X105643750Y-91919196D01*
X105633957Y-91920747D01*
X105520415Y-91938730D01*
X105520413Y-91938731D01*
X105510624Y-91940281D01*
X105390530Y-92001472D01*
X105295222Y-92096780D01*
X105234031Y-92216874D01*
X105212946Y-92350000D01*
X103725500Y-92350000D01*
X103725500Y-91940292D01*
X103725673Y-91933698D01*
X103727007Y-91908247D01*
X103727007Y-91908246D01*
X103727700Y-91895020D01*
X103722954Y-91882658D01*
X103722954Y-91882655D01*
X103720436Y-91876096D01*
X103714820Y-91857137D01*
X103713361Y-91850271D01*
X103713360Y-91850269D01*
X103710607Y-91837316D01*
X103702822Y-91826601D01*
X103700797Y-91822053D01*
X103698091Y-91817886D01*
X103693346Y-91805525D01*
X103679017Y-91791196D01*
X103666175Y-91776160D01*
X103654898Y-91760638D01*
X103631040Y-91693770D01*
X103632386Y-91666870D01*
X103635511Y-91647138D01*
X103635511Y-91647134D01*
X103637062Y-91637342D01*
X103627862Y-91579253D01*
X103617528Y-91514007D01*
X103617527Y-91514005D01*
X103615977Y-91504216D01*
X103554786Y-91384122D01*
X103459478Y-91288814D01*
X103339384Y-91227623D01*
X103329595Y-91226073D01*
X103329593Y-91226072D01*
X103216051Y-91208089D01*
X103206258Y-91206538D01*
X103196465Y-91208089D01*
X103082923Y-91226072D01*
X103082921Y-91226073D01*
X103073132Y-91227623D01*
X102953038Y-91288814D01*
X102857730Y-91384122D01*
X102796539Y-91504216D01*
X102794989Y-91514005D01*
X102794988Y-91514007D01*
X102784654Y-91579253D01*
X102775454Y-91637342D01*
X102777005Y-91647135D01*
X102777006Y-91647138D01*
X102796539Y-91770468D01*
X102857730Y-91890562D01*
X102953038Y-91985870D01*
X103073132Y-92047061D01*
X103082921Y-92048611D01*
X103082923Y-92048612D01*
X103168211Y-92062120D01*
X103232364Y-92092532D01*
X103269891Y-92152801D01*
X103274500Y-92186569D01*
X103274500Y-93604403D01*
X103254498Y-93672524D01*
X103237596Y-93693498D01*
X102488796Y-94442299D01*
X102426483Y-94476324D01*
X102379990Y-94477653D01*
X102346800Y-94472396D01*
X102337007Y-94473947D01*
X102223465Y-94491930D01*
X102223463Y-94491931D01*
X102213674Y-94493481D01*
X102093580Y-94554672D01*
X101998272Y-94649980D01*
X101937081Y-94770074D01*
X101935531Y-94779863D01*
X101935530Y-94779865D01*
X101931296Y-94806601D01*
X101915996Y-94903200D01*
X100000000Y-94903200D01*
X100000000Y-91516342D01*
X100020002Y-91448221D01*
X100073658Y-91401728D01*
X100093603Y-91395026D01*
X100099384Y-91394617D01*
X100108168Y-91391218D01*
X100116498Y-91389356D01*
X100124648Y-91386849D01*
X100133962Y-91385449D01*
X100174604Y-91365933D01*
X100183679Y-91362006D01*
X100216945Y-91349136D01*
X100216944Y-91349136D01*
X100225726Y-91345739D01*
X100233121Y-91339909D01*
X100240532Y-91335682D01*
X100247591Y-91330885D01*
X100256079Y-91326809D01*
X100262993Y-91320418D01*
X100289193Y-91296200D01*
X100296712Y-91289779D01*
X100324712Y-91267705D01*
X100324715Y-91267702D01*
X100332110Y-91261872D01*
X100337463Y-91254126D01*
X100343308Y-91247902D01*
X100348639Y-91241248D01*
X100355556Y-91234854D01*
X100378204Y-91195862D01*
X100383505Y-91187509D01*
X100403777Y-91158178D01*
X100403778Y-91158177D01*
X100409131Y-91150431D01*
X100409267Y-91150000D01*
X101769196Y-91150000D01*
X101770747Y-91159793D01*
X101787839Y-91267705D01*
X101790281Y-91283126D01*
X101851472Y-91403220D01*
X101946780Y-91498528D01*
X102066874Y-91559719D01*
X102076663Y-91561269D01*
X102076665Y-91561270D01*
X102190207Y-91579253D01*
X102200000Y-91580804D01*
X102209793Y-91579253D01*
X102323335Y-91561270D01*
X102323337Y-91561269D01*
X102333126Y-91559719D01*
X102453220Y-91498528D01*
X102548528Y-91403220D01*
X102609719Y-91283126D01*
X102612162Y-91267705D01*
X102629253Y-91159793D01*
X102630804Y-91150000D01*
X102617970Y-91068970D01*
X102611270Y-91026665D01*
X102611269Y-91026663D01*
X102609719Y-91016874D01*
X102548528Y-90896780D01*
X102546858Y-90895110D01*
X102524410Y-90832194D01*
X102540489Y-90763043D01*
X102543697Y-90758051D01*
X102548528Y-90753220D01*
X102583463Y-90684657D01*
X102632212Y-90633042D01*
X102701127Y-90615976D01*
X102715437Y-90617411D01*
X102800000Y-90630804D01*
X102809793Y-90629253D01*
X102923335Y-90611270D01*
X102923337Y-90611269D01*
X102933126Y-90609719D01*
X103053220Y-90548528D01*
X103148528Y-90453220D01*
X103209719Y-90333126D01*
X103230804Y-90200000D01*
X103222405Y-90146972D01*
X103211270Y-90076665D01*
X103211269Y-90076663D01*
X103209719Y-90066874D01*
X103183463Y-90015343D01*
X103167508Y-89984028D01*
X103154404Y-89914251D01*
X103181105Y-89848467D01*
X103222573Y-89814559D01*
X103231911Y-89809801D01*
X103231913Y-89809800D01*
X103240746Y-89805299D01*
X103336054Y-89709991D01*
X103397245Y-89589897D01*
X103403085Y-89553028D01*
X103416779Y-89466564D01*
X103418330Y-89456771D01*
X103416369Y-89444388D01*
X103398796Y-89333436D01*
X103398795Y-89333434D01*
X103397245Y-89323645D01*
X103336054Y-89203551D01*
X103332503Y-89200000D01*
X105162946Y-89200000D01*
X105164497Y-89209793D01*
X105178842Y-89300362D01*
X105184031Y-89333126D01*
X105245222Y-89453220D01*
X105340530Y-89548528D01*
X105460624Y-89609719D01*
X105470413Y-89611269D01*
X105470415Y-89611270D01*
X105583957Y-89629253D01*
X105593750Y-89630804D01*
X105603543Y-89629253D01*
X105717085Y-89611270D01*
X105717087Y-89611269D01*
X105726876Y-89609719D01*
X105846970Y-89548528D01*
X105942278Y-89453220D01*
X106003469Y-89333126D01*
X106008659Y-89300362D01*
X106023003Y-89209793D01*
X106024554Y-89200000D01*
X106010021Y-89108243D01*
X106005020Y-89076665D01*
X106005019Y-89076663D01*
X106003469Y-89066874D01*
X105942278Y-88946780D01*
X105846970Y-88851472D01*
X105726876Y-88790281D01*
X105717087Y-88788731D01*
X105717085Y-88788730D01*
X105603543Y-88770747D01*
X105593750Y-88769196D01*
X105583957Y-88770747D01*
X105470415Y-88788730D01*
X105470413Y-88788731D01*
X105460624Y-88790281D01*
X105340530Y-88851472D01*
X105245222Y-88946780D01*
X105184031Y-89066874D01*
X105182481Y-89076663D01*
X105182480Y-89076665D01*
X105177479Y-89108243D01*
X105162946Y-89200000D01*
X103332503Y-89200000D01*
X103240746Y-89108243D01*
X103120652Y-89047052D01*
X103110863Y-89045502D01*
X103110861Y-89045501D01*
X102997319Y-89027518D01*
X102987526Y-89025967D01*
X102977733Y-89027518D01*
X102864191Y-89045501D01*
X102864189Y-89045502D01*
X102854400Y-89047052D01*
X102734306Y-89108243D01*
X102638998Y-89203551D01*
X102577807Y-89323645D01*
X102576257Y-89333434D01*
X102576256Y-89333436D01*
X102558683Y-89444388D01*
X102556722Y-89456771D01*
X102558273Y-89466564D01*
X102571968Y-89553028D01*
X102577807Y-89589897D01*
X102582308Y-89598730D01*
X102582309Y-89598733D01*
X102620018Y-89672743D01*
X102633122Y-89742520D01*
X102606421Y-89808304D01*
X102564953Y-89842212D01*
X102555615Y-89846970D01*
X102555613Y-89846971D01*
X102546780Y-89851472D01*
X102451472Y-89946780D01*
X102446972Y-89955611D01*
X102446971Y-89955613D01*
X102416537Y-90015343D01*
X102367788Y-90066958D01*
X102298873Y-90084024D01*
X102284563Y-90082589D01*
X102200000Y-90069196D01*
X102190207Y-90070747D01*
X102076665Y-90088730D01*
X102076663Y-90088731D01*
X102066874Y-90090281D01*
X101946780Y-90151472D01*
X101851472Y-90246780D01*
X101790281Y-90366874D01*
X101769196Y-90500000D01*
X101770747Y-90509793D01*
X101787565Y-90615976D01*
X101790281Y-90633126D01*
X101851472Y-90753220D01*
X101853142Y-90754890D01*
X101875590Y-90817806D01*
X101859511Y-90886957D01*
X101856303Y-90891949D01*
X101851472Y-90896780D01*
X101790281Y-91016874D01*
X101788731Y-91026663D01*
X101788730Y-91026665D01*
X101782030Y-91068970D01*
X101769196Y-91150000D01*
X100409267Y-91150000D01*
X100411971Y-91141452D01*
X100415729Y-91133781D01*
X100418868Y-91125854D01*
X100423596Y-91117713D01*
X100425721Y-91108546D01*
X100425722Y-91108543D01*
X100433776Y-91073793D01*
X100436387Y-91064249D01*
X100447815Y-91028115D01*
X100449980Y-91021270D01*
X100450500Y-91014663D01*
X100450500Y-91012193D01*
X100450531Y-91011401D01*
X100451482Y-91004325D01*
X100451319Y-91004312D01*
X100452058Y-90994921D01*
X100454185Y-90985745D01*
X100450815Y-90938150D01*
X100450500Y-90929252D01*
X100450500Y-89298376D01*
X100452246Y-89277472D01*
X100454190Y-89265917D01*
X100454997Y-89261120D01*
X100455133Y-89250000D01*
X100453958Y-89241795D01*
X100453007Y-89214949D01*
X100465629Y-89038474D01*
X100468188Y-89020680D01*
X100511352Y-88822259D01*
X100516416Y-88805010D01*
X100587376Y-88614756D01*
X100594845Y-88598402D01*
X100692159Y-88420186D01*
X100701878Y-88405063D01*
X100722741Y-88377194D01*
X100823568Y-88242504D01*
X100835341Y-88228918D01*
X100978918Y-88085341D01*
X100992504Y-88073568D01*
X101155063Y-87951878D01*
X101170183Y-87942161D01*
X101348405Y-87844843D01*
X101364752Y-87837378D01*
X101530799Y-87775446D01*
X101555010Y-87766416D01*
X101572259Y-87761352D01*
X101770680Y-87718188D01*
X101788474Y-87715629D01*
X101961696Y-87703240D01*
X101976590Y-87703858D01*
X101976593Y-87703608D01*
X101985569Y-87703718D01*
X101994440Y-87705099D01*
X102003342Y-87703935D01*
X102003345Y-87703935D01*
X102021473Y-87701564D01*
X102037810Y-87700500D01*
X107824000Y-87700500D01*
X107892121Y-87720502D01*
G37*
%TD.AperFunction*%
%TD*%
%TA.AperFunction,Conductor*%
%TO.N,+3V3*%
G36*
X120029306Y-87720502D02*
G01*
X120075799Y-87774158D01*
X120085634Y-87846210D01*
X120074645Y-87915595D01*
X120069196Y-87950000D01*
X120070747Y-87959793D01*
X120087597Y-88066178D01*
X120090281Y-88083126D01*
X120151472Y-88203220D01*
X120246780Y-88298528D01*
X120366874Y-88359719D01*
X120376663Y-88361269D01*
X120376665Y-88361270D01*
X120490207Y-88379253D01*
X120500000Y-88380804D01*
X120509793Y-88379253D01*
X120623335Y-88361270D01*
X120623337Y-88361269D01*
X120633126Y-88359719D01*
X120753220Y-88298528D01*
X120848528Y-88203220D01*
X120909719Y-88083126D01*
X120912404Y-88066178D01*
X120929253Y-87959793D01*
X120930804Y-87950000D01*
X120925355Y-87915595D01*
X120914366Y-87846210D01*
X120923466Y-87775799D01*
X120969188Y-87721485D01*
X121038815Y-87700500D01*
X125455152Y-87700500D01*
X125474536Y-87702000D01*
X125485567Y-87703718D01*
X125485571Y-87703718D01*
X125494440Y-87705099D01*
X125506517Y-87703520D01*
X125531837Y-87702777D01*
X125659194Y-87711886D01*
X125711526Y-87715629D01*
X125729320Y-87718188D01*
X125927741Y-87761352D01*
X125944990Y-87766416D01*
X125988028Y-87782468D01*
X126135248Y-87837378D01*
X126151595Y-87844843D01*
X126329817Y-87942161D01*
X126344937Y-87951878D01*
X126507496Y-88073568D01*
X126521082Y-88085341D01*
X126664659Y-88228918D01*
X126676432Y-88242504D01*
X126693022Y-88264666D01*
X126793862Y-88399372D01*
X126798122Y-88405063D01*
X126807837Y-88420179D01*
X126849775Y-88496982D01*
X126850684Y-88498647D01*
X126865775Y-88568021D01*
X126840964Y-88634541D01*
X126784128Y-88677088D01*
X126759807Y-88683481D01*
X126726665Y-88688730D01*
X126726663Y-88688731D01*
X126716874Y-88690281D01*
X126596780Y-88751472D01*
X126501472Y-88846780D01*
X126440281Y-88966874D01*
X126438731Y-88976663D01*
X126438730Y-88976665D01*
X126428439Y-89041640D01*
X126419196Y-89100000D01*
X126420747Y-89109793D01*
X126426636Y-89146972D01*
X126440281Y-89233126D01*
X126501472Y-89353220D01*
X126596780Y-89448528D01*
X126615252Y-89457940D01*
X126622696Y-89461733D01*
X126674311Y-89510482D01*
X126691377Y-89579397D01*
X126668476Y-89646598D01*
X126612878Y-89690750D01*
X126565493Y-89700000D01*
X124900000Y-89700000D01*
X124900000Y-91520647D01*
X124879998Y-91588768D01*
X124826342Y-91635261D01*
X124756068Y-91645365D01*
X124716799Y-91632915D01*
X124677328Y-91612803D01*
X124625714Y-91564056D01*
X124608648Y-91495141D01*
X124610083Y-91480826D01*
X124611270Y-91473335D01*
X124630804Y-91350000D01*
X124628215Y-91333656D01*
X124611270Y-91226665D01*
X124611269Y-91226663D01*
X124609719Y-91216874D01*
X124548528Y-91096780D01*
X124453220Y-91001472D01*
X124333126Y-90940281D01*
X124323337Y-90938731D01*
X124323335Y-90938730D01*
X124209793Y-90920747D01*
X124200000Y-90919196D01*
X124190207Y-90920747D01*
X124076665Y-90938730D01*
X124076663Y-90938731D01*
X124066874Y-90940281D01*
X123946780Y-91001472D01*
X123851472Y-91096780D01*
X123790281Y-91216874D01*
X123788731Y-91226663D01*
X123788730Y-91226665D01*
X123771785Y-91333656D01*
X123769196Y-91350000D01*
X123790281Y-91483126D01*
X123851472Y-91603220D01*
X123946780Y-91698528D01*
X123955613Y-91703029D01*
X123955615Y-91703030D01*
X124022670Y-91737196D01*
X124074286Y-91785944D01*
X124091352Y-91854859D01*
X124089917Y-91869169D01*
X124069196Y-92000000D01*
X124070747Y-92009793D01*
X124087555Y-92115913D01*
X124090281Y-92133126D01*
X124151472Y-92253220D01*
X124246780Y-92348528D01*
X124366874Y-92409719D01*
X124376663Y-92411269D01*
X124376665Y-92411270D01*
X124490207Y-92429253D01*
X124500000Y-92430804D01*
X124509793Y-92429253D01*
X124623335Y-92411270D01*
X124623337Y-92411269D01*
X124633126Y-92409719D01*
X124716798Y-92367086D01*
X124786573Y-92353982D01*
X124852358Y-92380682D01*
X124893265Y-92438709D01*
X124900000Y-92479353D01*
X124900000Y-97842036D01*
X124879998Y-97910157D01*
X124826342Y-97956650D01*
X124793711Y-97966485D01*
X124673465Y-97985530D01*
X124673463Y-97985531D01*
X124663674Y-97987081D01*
X124543580Y-98048272D01*
X124485645Y-98106207D01*
X124423333Y-98140233D01*
X124352518Y-98135168D01*
X124307455Y-98106207D01*
X124253220Y-98051972D01*
X124133126Y-97990781D01*
X124123337Y-97989231D01*
X124123335Y-97989230D01*
X124009793Y-97971247D01*
X124000000Y-97969696D01*
X123990207Y-97971247D01*
X123876665Y-97989230D01*
X123876663Y-97989231D01*
X123866874Y-97990781D01*
X123746780Y-98051972D01*
X123651472Y-98147280D01*
X123590281Y-98267374D01*
X123588731Y-98277163D01*
X123588730Y-98277165D01*
X123570747Y-98390707D01*
X123569196Y-98400500D01*
X123570747Y-98410293D01*
X123575426Y-98439832D01*
X123590281Y-98533626D01*
X123651472Y-98653720D01*
X123746780Y-98749028D01*
X123866874Y-98810219D01*
X123876663Y-98811769D01*
X123876665Y-98811770D01*
X123990207Y-98829753D01*
X124000000Y-98831304D01*
X124009793Y-98829753D01*
X124123335Y-98811770D01*
X124123337Y-98811769D01*
X124133126Y-98810219D01*
X124253220Y-98749028D01*
X124311155Y-98691093D01*
X124373467Y-98657067D01*
X124444282Y-98662132D01*
X124489345Y-98691093D01*
X124543580Y-98745328D01*
X124663674Y-98806519D01*
X124673463Y-98808069D01*
X124673465Y-98808070D01*
X124787007Y-98826053D01*
X124796800Y-98827604D01*
X124806593Y-98826053D01*
X124920135Y-98808070D01*
X124920137Y-98808069D01*
X124929926Y-98806519D01*
X125050020Y-98745328D01*
X125145328Y-98650020D01*
X125206519Y-98529926D01*
X125218182Y-98456289D01*
X125248595Y-98392136D01*
X125308863Y-98354609D01*
X125342631Y-98350000D01*
X126923500Y-98350000D01*
X126991621Y-98370002D01*
X127038114Y-98423658D01*
X127049500Y-98476000D01*
X127049500Y-98705152D01*
X127048000Y-98724536D01*
X127046282Y-98735567D01*
X127046282Y-98735571D01*
X127044901Y-98744440D01*
X127046480Y-98756517D01*
X127047223Y-98781837D01*
X127039874Y-98884584D01*
X127034371Y-98961526D01*
X127031812Y-98979320D01*
X126988648Y-99177741D01*
X126983584Y-99194990D01*
X126968328Y-99235894D01*
X126919238Y-99367512D01*
X126912624Y-99385244D01*
X126905157Y-99401595D01*
X126809953Y-99575947D01*
X126807841Y-99579814D01*
X126798124Y-99594934D01*
X126721740Y-99696972D01*
X126676432Y-99757496D01*
X126664659Y-99771082D01*
X126521082Y-99914659D01*
X126507495Y-99926432D01*
X126360457Y-100036504D01*
X126344937Y-100048122D01*
X126329817Y-100057839D01*
X126151595Y-100155157D01*
X126135248Y-100162622D01*
X126018503Y-100206166D01*
X125944990Y-100233584D01*
X125927741Y-100238648D01*
X125729320Y-100281812D01*
X125711526Y-100284371D01*
X125538304Y-100296760D01*
X125523410Y-100296142D01*
X125523407Y-100296392D01*
X125514431Y-100296282D01*
X125505560Y-100294901D01*
X125496658Y-100296065D01*
X125496655Y-100296065D01*
X125478527Y-100298436D01*
X125462190Y-100299500D01*
X121038815Y-100299500D01*
X120970694Y-100279498D01*
X120924201Y-100225842D01*
X120914366Y-100153790D01*
X120929253Y-100059794D01*
X120929253Y-100059793D01*
X120930804Y-100050000D01*
X120929100Y-100039240D01*
X120911270Y-99926665D01*
X120911269Y-99926663D01*
X120909719Y-99916874D01*
X120848528Y-99796780D01*
X120753220Y-99701472D01*
X120633126Y-99640281D01*
X120623337Y-99638731D01*
X120623335Y-99638730D01*
X120509793Y-99620747D01*
X120500000Y-99619196D01*
X120490207Y-99620747D01*
X120376665Y-99638730D01*
X120376663Y-99638731D01*
X120366874Y-99640281D01*
X120246780Y-99701472D01*
X120151472Y-99796780D01*
X120090281Y-99916874D01*
X120088731Y-99926663D01*
X120088730Y-99926665D01*
X120070900Y-100039240D01*
X120069196Y-100050000D01*
X120070747Y-100059793D01*
X120070747Y-100059794D01*
X120085634Y-100153790D01*
X120076534Y-100224201D01*
X120030812Y-100278515D01*
X119961185Y-100299500D01*
X119238815Y-100299500D01*
X119170694Y-100279498D01*
X119124201Y-100225842D01*
X119114366Y-100153790D01*
X119129253Y-100059794D01*
X119129253Y-100059793D01*
X119130804Y-100050000D01*
X119129100Y-100039240D01*
X119111270Y-99926665D01*
X119111269Y-99926663D01*
X119109719Y-99916874D01*
X119048528Y-99796780D01*
X118953220Y-99701472D01*
X118833126Y-99640281D01*
X118823337Y-99638731D01*
X118823335Y-99638730D01*
X118709793Y-99620747D01*
X118700000Y-99619196D01*
X118690207Y-99620747D01*
X118576665Y-99638730D01*
X118576663Y-99638731D01*
X118566874Y-99640281D01*
X118446780Y-99701472D01*
X118351472Y-99796780D01*
X118290281Y-99916874D01*
X118288731Y-99926663D01*
X118288730Y-99926665D01*
X118270900Y-100039240D01*
X118269196Y-100050000D01*
X118270747Y-100059793D01*
X118270747Y-100059794D01*
X118285634Y-100153790D01*
X118276534Y-100224201D01*
X118230812Y-100278515D01*
X118161185Y-100299500D01*
X117096734Y-100299500D01*
X117028613Y-100279498D01*
X116982120Y-100225842D01*
X116972285Y-100153789D01*
X116980267Y-100103393D01*
X117010680Y-100039240D01*
X117070948Y-100001713D01*
X117114716Y-99999211D01*
X117114716Y-99998688D01*
X117123869Y-99998688D01*
X117124429Y-99998656D01*
X117124631Y-99998688D01*
X117124634Y-99998688D01*
X117134427Y-100000239D01*
X117144220Y-99998688D01*
X117257762Y-99980705D01*
X117257764Y-99980704D01*
X117267553Y-99979154D01*
X117387647Y-99917963D01*
X117482955Y-99822655D01*
X117544146Y-99702561D01*
X117547768Y-99679696D01*
X117563680Y-99579228D01*
X117565231Y-99569435D01*
X117563680Y-99559642D01*
X117545697Y-99446100D01*
X117545696Y-99446098D01*
X117544146Y-99436309D01*
X117482955Y-99316215D01*
X117387647Y-99220907D01*
X117267553Y-99159716D01*
X117257764Y-99158166D01*
X117257762Y-99158165D01*
X117144220Y-99140182D01*
X117134427Y-99138631D01*
X117124634Y-99140182D01*
X117011092Y-99158165D01*
X117011090Y-99158166D01*
X117001301Y-99159716D01*
X116888018Y-99217436D01*
X116888014Y-99217438D01*
X116881207Y-99220907D01*
X116880759Y-99220027D01*
X116822336Y-99240872D01*
X116753184Y-99224790D01*
X116726049Y-99204172D01*
X116574822Y-99052945D01*
X116540796Y-98990633D01*
X116537917Y-98963850D01*
X116537917Y-98730146D01*
X116557919Y-98662025D01*
X116574822Y-98641050D01*
X116653393Y-98562480D01*
X116759841Y-98456032D01*
X116760372Y-98455558D01*
X116770043Y-98450914D01*
X116785983Y-98430982D01*
X116790883Y-98425507D01*
X116792920Y-98422953D01*
X116797924Y-98417949D01*
X116801687Y-98411961D01*
X116804087Y-98408952D01*
X116807973Y-98403484D01*
X116814752Y-98395008D01*
X116814752Y-98395007D01*
X116823613Y-98383928D01*
X116826098Y-98373123D01*
X116831998Y-98363735D01*
X116833592Y-98349637D01*
X116833593Y-98349633D01*
X116834814Y-98338835D01*
X116835988Y-98331963D01*
X116836403Y-98328309D01*
X116838000Y-98321363D01*
X116838000Y-98314236D01*
X116838392Y-98310782D01*
X116838797Y-98303592D01*
X116840039Y-98292604D01*
X116841633Y-98278505D01*
X116838048Y-98268240D01*
X116838000Y-98267378D01*
X116838000Y-97582660D01*
X116838040Y-97581951D01*
X116841595Y-97571829D01*
X116838773Y-97546469D01*
X116838366Y-97539128D01*
X116838000Y-97535878D01*
X116838000Y-97528804D01*
X116836426Y-97521906D01*
X116835995Y-97518076D01*
X116834879Y-97511478D01*
X116834242Y-97505751D01*
X116832109Y-97486583D01*
X116826225Y-97477185D01*
X116823759Y-97466375D01*
X116808140Y-97446774D01*
X116804112Y-97441085D01*
X116801827Y-97438216D01*
X116798042Y-97432170D01*
X116792997Y-97427125D01*
X116790825Y-97424397D01*
X116786043Y-97419044D01*
X116779148Y-97410391D01*
X116770306Y-97399295D01*
X116760512Y-97394571D01*
X116759863Y-97393991D01*
X116465872Y-97100000D01*
X118419196Y-97100000D01*
X118420747Y-97109793D01*
X118433895Y-97192804D01*
X118440281Y-97233126D01*
X118501472Y-97353220D01*
X118596780Y-97448528D01*
X118716874Y-97509719D01*
X118726663Y-97511269D01*
X118726665Y-97511270D01*
X118840207Y-97529253D01*
X118850000Y-97530804D01*
X118859793Y-97529253D01*
X118973335Y-97511270D01*
X118973337Y-97511269D01*
X118983126Y-97509719D01*
X119103220Y-97448528D01*
X119198528Y-97353220D01*
X119259719Y-97233126D01*
X119266106Y-97192804D01*
X119279253Y-97109793D01*
X119280804Y-97100000D01*
X119267376Y-97015220D01*
X119261270Y-96976665D01*
X119261269Y-96976663D01*
X119259719Y-96966874D01*
X119198528Y-96846780D01*
X119103220Y-96751472D01*
X118983126Y-96690281D01*
X118973337Y-96688731D01*
X118973335Y-96688730D01*
X118859793Y-96670747D01*
X118850000Y-96669196D01*
X118840207Y-96670747D01*
X118726665Y-96688730D01*
X118726663Y-96688731D01*
X118716874Y-96690281D01*
X118596780Y-96751472D01*
X118501472Y-96846780D01*
X118440281Y-96966874D01*
X118438731Y-96976663D01*
X118438730Y-96976665D01*
X118432624Y-97015220D01*
X118419196Y-97100000D01*
X116465872Y-97100000D01*
X115921750Y-96555878D01*
X115921270Y-96555340D01*
X115916626Y-96545669D01*
X115896689Y-96529725D01*
X115891222Y-96524832D01*
X115888662Y-96522790D01*
X115883660Y-96517788D01*
X115877671Y-96514024D01*
X115874674Y-96511633D01*
X115869222Y-96507759D01*
X115849640Y-96492099D01*
X115838833Y-96489614D01*
X115829446Y-96483714D01*
X115804551Y-96480899D01*
X115797675Y-96479724D01*
X115794024Y-96479310D01*
X115787075Y-96477712D01*
X115779941Y-96477712D01*
X115776477Y-96477319D01*
X115769301Y-96476914D01*
X115758318Y-96475672D01*
X115758317Y-96475672D01*
X115744217Y-96474078D01*
X115733949Y-96477664D01*
X115733087Y-96477712D01*
X114769650Y-96477712D01*
X114701529Y-96457710D01*
X114680555Y-96440807D01*
X114653220Y-96413472D01*
X114533126Y-96352281D01*
X114523337Y-96350731D01*
X114523335Y-96350730D01*
X114409793Y-96332747D01*
X114400000Y-96331196D01*
X114390207Y-96332747D01*
X114276665Y-96350730D01*
X114276663Y-96350731D01*
X114266874Y-96352281D01*
X114146780Y-96413472D01*
X114051472Y-96508780D01*
X113990281Y-96628874D01*
X113988731Y-96638663D01*
X113988730Y-96638665D01*
X113983649Y-96670747D01*
X113969196Y-96762000D01*
X113970747Y-96771793D01*
X113984023Y-96855612D01*
X113990281Y-96895126D01*
X114051472Y-97015220D01*
X114146780Y-97110528D01*
X114266874Y-97171719D01*
X114276663Y-97173269D01*
X114276665Y-97173270D01*
X114390207Y-97191253D01*
X114400000Y-97192804D01*
X114409793Y-97191253D01*
X114409794Y-97191253D01*
X114448934Y-97185054D01*
X114519345Y-97194154D01*
X114573659Y-97239876D01*
X114588477Y-97270566D01*
X114590261Y-97276056D01*
X114591812Y-97285849D01*
X114653003Y-97405943D01*
X114748311Y-97501251D01*
X114868405Y-97562442D01*
X114878194Y-97563992D01*
X114878196Y-97563993D01*
X114991738Y-97581976D01*
X115001531Y-97583527D01*
X115011324Y-97581976D01*
X115124866Y-97563993D01*
X115124868Y-97563992D01*
X115134657Y-97562442D01*
X115254751Y-97501251D01*
X115350059Y-97405943D01*
X115354563Y-97397104D01*
X115357790Y-97392662D01*
X115414012Y-97349308D01*
X115459726Y-97340723D01*
X115616749Y-97340723D01*
X115684870Y-97360725D01*
X115731363Y-97414381D01*
X115741467Y-97484655D01*
X115711973Y-97549235D01*
X115680238Y-97574071D01*
X115680102Y-97574115D01*
X115672079Y-97579944D01*
X115672077Y-97579945D01*
X115660695Y-97588215D01*
X115643842Y-97598543D01*
X115622463Y-97609436D01*
X114794303Y-98437596D01*
X114731991Y-98471621D01*
X114705208Y-98474500D01*
X114703907Y-98474500D01*
X114635786Y-98454498D01*
X114589293Y-98400842D01*
X114579189Y-98330568D01*
X114591639Y-98291299D01*
X114596168Y-98282410D01*
X114596168Y-98282409D01*
X114600669Y-98273576D01*
X114602238Y-98263674D01*
X114620203Y-98150243D01*
X114621754Y-98140450D01*
X114620203Y-98130657D01*
X114602220Y-98017115D01*
X114602219Y-98017113D01*
X114600669Y-98007324D01*
X114539478Y-97887230D01*
X114444170Y-97791922D01*
X114324076Y-97730731D01*
X114314287Y-97729181D01*
X114314285Y-97729180D01*
X114200743Y-97711197D01*
X114190950Y-97709646D01*
X114181157Y-97711197D01*
X114067615Y-97729180D01*
X114067613Y-97729181D01*
X114057824Y-97730731D01*
X113937730Y-97791922D01*
X113842422Y-97887230D01*
X113781231Y-98007324D01*
X113779680Y-98017115D01*
X113779256Y-98018421D01*
X113739182Y-98077027D01*
X113673786Y-98104664D01*
X113603829Y-98092557D01*
X113570328Y-98068580D01*
X113278709Y-97776961D01*
X113257326Y-97766066D01*
X113240480Y-97755742D01*
X113229093Y-97747469D01*
X113221070Y-97741640D01*
X113211639Y-97738576D01*
X113211636Y-97738574D01*
X113198252Y-97734225D01*
X113179991Y-97726661D01*
X113167453Y-97720273D01*
X113167452Y-97720273D01*
X113158615Y-97715770D01*
X113134918Y-97712017D01*
X113115699Y-97707403D01*
X113092882Y-97699989D01*
X110157118Y-97699989D01*
X110134301Y-97707403D01*
X110115082Y-97712017D01*
X110091385Y-97715770D01*
X110082548Y-97720273D01*
X110082547Y-97720273D01*
X110070009Y-97726661D01*
X110051748Y-97734225D01*
X110038362Y-97738575D01*
X110038361Y-97738576D01*
X110028930Y-97741640D01*
X110020910Y-97747467D01*
X110020908Y-97747468D01*
X110009523Y-97755740D01*
X109992670Y-97766068D01*
X109971291Y-97776961D01*
X109889095Y-97859157D01*
X109826783Y-97893183D01*
X109755968Y-97888118D01*
X109710905Y-97859157D01*
X108812405Y-96960657D01*
X108778379Y-96898345D01*
X108775500Y-96871562D01*
X108775500Y-96100000D01*
X117469196Y-96100000D01*
X117490281Y-96233126D01*
X117551472Y-96353220D01*
X117646780Y-96448528D01*
X117766874Y-96509719D01*
X117776663Y-96511269D01*
X117776665Y-96511270D01*
X117890207Y-96529253D01*
X117900000Y-96530804D01*
X117909793Y-96529253D01*
X118023335Y-96511270D01*
X118023337Y-96511269D01*
X118033126Y-96509719D01*
X118153220Y-96448528D01*
X118248528Y-96353220D01*
X118309719Y-96233126D01*
X118330804Y-96100000D01*
X119419196Y-96100000D01*
X119440281Y-96233126D01*
X119501472Y-96353220D01*
X119596780Y-96448528D01*
X119716874Y-96509719D01*
X119726663Y-96511269D01*
X119726665Y-96511270D01*
X119840207Y-96529253D01*
X119850000Y-96530804D01*
X119859793Y-96529253D01*
X119973335Y-96511270D01*
X119973337Y-96511269D01*
X119983126Y-96509719D01*
X120103220Y-96448528D01*
X120198528Y-96353220D01*
X120259719Y-96233126D01*
X120280804Y-96100000D01*
X120259719Y-95966874D01*
X120198528Y-95846780D01*
X120103220Y-95751472D01*
X119983126Y-95690281D01*
X119973337Y-95688731D01*
X119973335Y-95688730D01*
X119859793Y-95670747D01*
X119850000Y-95669196D01*
X119840207Y-95670747D01*
X119726665Y-95688730D01*
X119726663Y-95688731D01*
X119716874Y-95690281D01*
X119596780Y-95751472D01*
X119501472Y-95846780D01*
X119440281Y-95966874D01*
X119419196Y-96100000D01*
X118330804Y-96100000D01*
X118309719Y-95966874D01*
X118248528Y-95846780D01*
X118153220Y-95751472D01*
X118033126Y-95690281D01*
X118023337Y-95688731D01*
X118023335Y-95688730D01*
X117909793Y-95670747D01*
X117900000Y-95669196D01*
X117890207Y-95670747D01*
X117776665Y-95688730D01*
X117776663Y-95688731D01*
X117766874Y-95690281D01*
X117646780Y-95751472D01*
X117551472Y-95846780D01*
X117490281Y-95966874D01*
X117469196Y-96100000D01*
X108775500Y-96100000D01*
X108775500Y-95100000D01*
X116469196Y-95100000D01*
X116490281Y-95233126D01*
X116551472Y-95353220D01*
X116646780Y-95448528D01*
X116766874Y-95509719D01*
X116776663Y-95511269D01*
X116776665Y-95511270D01*
X116890207Y-95529253D01*
X116900000Y-95530804D01*
X116909793Y-95529253D01*
X117023335Y-95511270D01*
X117023337Y-95511269D01*
X117033126Y-95509719D01*
X117153220Y-95448528D01*
X117248528Y-95353220D01*
X117309719Y-95233126D01*
X117330804Y-95100000D01*
X118469196Y-95100000D01*
X118490281Y-95233126D01*
X118551472Y-95353220D01*
X118646780Y-95448528D01*
X118766874Y-95509719D01*
X118776663Y-95511269D01*
X118776665Y-95511270D01*
X118890207Y-95529253D01*
X118900000Y-95530804D01*
X118909793Y-95529253D01*
X119023335Y-95511270D01*
X119023337Y-95511269D01*
X119033126Y-95509719D01*
X119153220Y-95448528D01*
X119248528Y-95353220D01*
X119309719Y-95233126D01*
X119330804Y-95100000D01*
X120469196Y-95100000D01*
X120490281Y-95233126D01*
X120551472Y-95353220D01*
X120646780Y-95448528D01*
X120766874Y-95509719D01*
X120776663Y-95511269D01*
X120776665Y-95511270D01*
X120890207Y-95529253D01*
X120900000Y-95530804D01*
X120909793Y-95529253D01*
X121023335Y-95511270D01*
X121023337Y-95511269D01*
X121033126Y-95509719D01*
X121153220Y-95448528D01*
X121248528Y-95353220D01*
X121309719Y-95233126D01*
X121330804Y-95100000D01*
X121309719Y-94966874D01*
X121248528Y-94846780D01*
X121153220Y-94751472D01*
X121033126Y-94690281D01*
X121023337Y-94688731D01*
X121023335Y-94688730D01*
X120909793Y-94670747D01*
X120900000Y-94669196D01*
X120890207Y-94670747D01*
X120776665Y-94688730D01*
X120776663Y-94688731D01*
X120766874Y-94690281D01*
X120646780Y-94751472D01*
X120551472Y-94846780D01*
X120490281Y-94966874D01*
X120469196Y-95100000D01*
X119330804Y-95100000D01*
X119309719Y-94966874D01*
X119248528Y-94846780D01*
X119153220Y-94751472D01*
X119033126Y-94690281D01*
X119023337Y-94688731D01*
X119023335Y-94688730D01*
X118909793Y-94670747D01*
X118900000Y-94669196D01*
X118890207Y-94670747D01*
X118776665Y-94688730D01*
X118776663Y-94688731D01*
X118766874Y-94690281D01*
X118646780Y-94751472D01*
X118551472Y-94846780D01*
X118490281Y-94966874D01*
X118469196Y-95100000D01*
X117330804Y-95100000D01*
X117309719Y-94966874D01*
X117248528Y-94846780D01*
X117153220Y-94751472D01*
X117033126Y-94690281D01*
X117023337Y-94688731D01*
X117023335Y-94688730D01*
X116909793Y-94670747D01*
X116900000Y-94669196D01*
X116890207Y-94670747D01*
X116776665Y-94688730D01*
X116776663Y-94688731D01*
X116766874Y-94690281D01*
X116646780Y-94751472D01*
X116551472Y-94846780D01*
X116490281Y-94966874D01*
X116469196Y-95100000D01*
X108775500Y-95100000D01*
X108775500Y-94100000D01*
X117469196Y-94100000D01*
X117490281Y-94233126D01*
X117551472Y-94353220D01*
X117646780Y-94448528D01*
X117766874Y-94509719D01*
X117776663Y-94511269D01*
X117776665Y-94511270D01*
X117890207Y-94529253D01*
X117900000Y-94530804D01*
X117909793Y-94529253D01*
X118023335Y-94511270D01*
X118023337Y-94511269D01*
X118033126Y-94509719D01*
X118153220Y-94448528D01*
X118248528Y-94353220D01*
X118309719Y-94233126D01*
X118330804Y-94100000D01*
X119419196Y-94100000D01*
X119440281Y-94233126D01*
X119501472Y-94353220D01*
X119596780Y-94448528D01*
X119716874Y-94509719D01*
X119726663Y-94511269D01*
X119726665Y-94511270D01*
X119840207Y-94529253D01*
X119850000Y-94530804D01*
X119859793Y-94529253D01*
X119973335Y-94511270D01*
X119973337Y-94511269D01*
X119983126Y-94509719D01*
X120103220Y-94448528D01*
X120198528Y-94353220D01*
X120259719Y-94233126D01*
X120280804Y-94100000D01*
X120279253Y-94090207D01*
X120261270Y-93976665D01*
X120261269Y-93976663D01*
X120259719Y-93966874D01*
X120198528Y-93846780D01*
X120103220Y-93751472D01*
X119983126Y-93690281D01*
X119973337Y-93688731D01*
X119973335Y-93688730D01*
X119859793Y-93670747D01*
X119850000Y-93669196D01*
X119840207Y-93670747D01*
X119726665Y-93688730D01*
X119726663Y-93688731D01*
X119716874Y-93690281D01*
X119596780Y-93751472D01*
X119501472Y-93846780D01*
X119440281Y-93966874D01*
X119438731Y-93976663D01*
X119438730Y-93976665D01*
X119420747Y-94090207D01*
X119419196Y-94100000D01*
X118330804Y-94100000D01*
X118329253Y-94090207D01*
X118311270Y-93976665D01*
X118311269Y-93976663D01*
X118309719Y-93966874D01*
X118248528Y-93846780D01*
X118153220Y-93751472D01*
X118033126Y-93690281D01*
X118023337Y-93688731D01*
X118023335Y-93688730D01*
X117909793Y-93670747D01*
X117900000Y-93669196D01*
X117890207Y-93670747D01*
X117776665Y-93688730D01*
X117776663Y-93688731D01*
X117766874Y-93690281D01*
X117646780Y-93751472D01*
X117551472Y-93846780D01*
X117490281Y-93966874D01*
X117488731Y-93976663D01*
X117488730Y-93976665D01*
X117470747Y-94090207D01*
X117469196Y-94100000D01*
X108775500Y-94100000D01*
X108775500Y-92457430D01*
X109068488Y-92457430D01*
X109089573Y-92590556D01*
X109150764Y-92710650D01*
X109246072Y-92805958D01*
X109366166Y-92867149D01*
X109375955Y-92868699D01*
X109375957Y-92868700D01*
X109489499Y-92886683D01*
X109499292Y-92888234D01*
X109509085Y-92886683D01*
X109622627Y-92868700D01*
X109622629Y-92868699D01*
X109632418Y-92867149D01*
X109752512Y-92805958D01*
X109847820Y-92710650D01*
X109909011Y-92590556D01*
X109930096Y-92457430D01*
X109922539Y-92409719D01*
X109910562Y-92334095D01*
X109910561Y-92334093D01*
X109909011Y-92324304D01*
X109847820Y-92204210D01*
X109752512Y-92108902D01*
X109632418Y-92047711D01*
X109622629Y-92046161D01*
X109622627Y-92046160D01*
X109509085Y-92028177D01*
X109499292Y-92026626D01*
X109489499Y-92028177D01*
X109375957Y-92046160D01*
X109375955Y-92046161D01*
X109366166Y-92047711D01*
X109246072Y-92108902D01*
X109150764Y-92204210D01*
X109089573Y-92324304D01*
X109088023Y-92334093D01*
X109088022Y-92334095D01*
X109076045Y-92409719D01*
X109068488Y-92457430D01*
X108775500Y-92457430D01*
X108775500Y-90350000D01*
X110019196Y-90350000D01*
X110020747Y-90359793D01*
X110036574Y-90459719D01*
X110040281Y-90483126D01*
X110101472Y-90603220D01*
X110196780Y-90698528D01*
X110316874Y-90759719D01*
X110326663Y-90761269D01*
X110326665Y-90761270D01*
X110440207Y-90779253D01*
X110450000Y-90780804D01*
X110459793Y-90779253D01*
X110573335Y-90761270D01*
X110573337Y-90761269D01*
X110583126Y-90759719D01*
X110703220Y-90698528D01*
X110764139Y-90637609D01*
X110826451Y-90603583D01*
X110897266Y-90608648D01*
X110954102Y-90651195D01*
X110978913Y-90717715D01*
X110977683Y-90746415D01*
X110969196Y-90800000D01*
X110970747Y-90809793D01*
X110988075Y-90919196D01*
X110990281Y-90933126D01*
X111051472Y-91053220D01*
X111134157Y-91135905D01*
X111168183Y-91198217D01*
X111163118Y-91269032D01*
X111134157Y-91314095D01*
X111101472Y-91346780D01*
X111040281Y-91466874D01*
X111019196Y-91600000D01*
X111020747Y-91609793D01*
X111038700Y-91723142D01*
X111040281Y-91733126D01*
X111101472Y-91853220D01*
X111196780Y-91948528D01*
X111316874Y-92009719D01*
X111326663Y-92011269D01*
X111326665Y-92011270D01*
X111440207Y-92029253D01*
X111450000Y-92030804D01*
X111459793Y-92029253D01*
X111573335Y-92011270D01*
X111573337Y-92011269D01*
X111583126Y-92009719D01*
X111703220Y-91948528D01*
X111735905Y-91915843D01*
X111798217Y-91881817D01*
X111869032Y-91886882D01*
X111914095Y-91915843D01*
X111946780Y-91948528D01*
X112066874Y-92009719D01*
X112076663Y-92011269D01*
X112076665Y-92011270D01*
X112190207Y-92029253D01*
X112200000Y-92030804D01*
X112216587Y-92028177D01*
X112323333Y-92011270D01*
X112333126Y-92009719D01*
X112337101Y-92007693D01*
X112405042Y-92005752D01*
X112465840Y-92042415D01*
X112497166Y-92106127D01*
X112499011Y-92127613D01*
X112499011Y-93165303D01*
X112498838Y-93171897D01*
X112496811Y-93210575D01*
X112501558Y-93222941D01*
X112504074Y-93229496D01*
X112509690Y-93248452D01*
X112513904Y-93268279D01*
X112521687Y-93278992D01*
X112523712Y-93283540D01*
X112526419Y-93287709D01*
X112531165Y-93300071D01*
X112545497Y-93314403D01*
X112558338Y-93329438D01*
X112562466Y-93335120D01*
X112562468Y-93335122D01*
X112570251Y-93345834D01*
X112581718Y-93352455D01*
X112591561Y-93361317D01*
X112591244Y-93361669D01*
X112597777Y-93366683D01*
X112639098Y-93408003D01*
X112673124Y-93470315D01*
X112674453Y-93516810D01*
X112669196Y-93550000D01*
X112670747Y-93559793D01*
X112688075Y-93669196D01*
X112690281Y-93683126D01*
X112751472Y-93803220D01*
X112846780Y-93898528D01*
X112966874Y-93959719D01*
X112976663Y-93961269D01*
X112976665Y-93961270D01*
X113090207Y-93979253D01*
X113100000Y-93980804D01*
X113109793Y-93979253D01*
X113223335Y-93961270D01*
X113223337Y-93961269D01*
X113233126Y-93959719D01*
X113353220Y-93898528D01*
X113448528Y-93803220D01*
X113509719Y-93683126D01*
X113511926Y-93669196D01*
X113529253Y-93559793D01*
X113530804Y-93550000D01*
X113518183Y-93470315D01*
X113511270Y-93426665D01*
X113511269Y-93426663D01*
X113509719Y-93416874D01*
X113448528Y-93296780D01*
X113353220Y-93201472D01*
X113233126Y-93140281D01*
X113223337Y-93138731D01*
X113223335Y-93138730D01*
X113109793Y-93120747D01*
X113100000Y-93119196D01*
X113090208Y-93120747D01*
X113080289Y-93120747D01*
X113080289Y-93117877D01*
X113025322Y-93110779D01*
X113012515Y-93100000D01*
X118469196Y-93100000D01*
X118470747Y-93109793D01*
X118485268Y-93201472D01*
X118490281Y-93233126D01*
X118551472Y-93353220D01*
X118646780Y-93448528D01*
X118766874Y-93509719D01*
X118776663Y-93511269D01*
X118776665Y-93511270D01*
X118890207Y-93529253D01*
X118900000Y-93530804D01*
X118909793Y-93529253D01*
X119023335Y-93511270D01*
X119023337Y-93511269D01*
X119033126Y-93509719D01*
X119153220Y-93448528D01*
X119248528Y-93353220D01*
X119309719Y-93233126D01*
X119314733Y-93201472D01*
X119329253Y-93109793D01*
X119330804Y-93100000D01*
X119329253Y-93090207D01*
X119311270Y-92976665D01*
X119311269Y-92976663D01*
X119309719Y-92966874D01*
X119248528Y-92846780D01*
X119153220Y-92751472D01*
X119033126Y-92690281D01*
X119023337Y-92688731D01*
X119023335Y-92688730D01*
X118909793Y-92670747D01*
X118900000Y-92669196D01*
X118890207Y-92670747D01*
X118776665Y-92688730D01*
X118776663Y-92688731D01*
X118766874Y-92690281D01*
X118646780Y-92751472D01*
X118551472Y-92846780D01*
X118490281Y-92966874D01*
X118488731Y-92976663D01*
X118488730Y-92976665D01*
X118470747Y-93090207D01*
X118469196Y-93100000D01*
X113012515Y-93100000D01*
X112971003Y-93065063D01*
X112950011Y-92995425D01*
X112950011Y-92277295D01*
X112970013Y-92209174D01*
X113023669Y-92162681D01*
X113093943Y-92152577D01*
X113110341Y-92156391D01*
X113116874Y-92159719D01*
X113126667Y-92161270D01*
X113126670Y-92161271D01*
X113240207Y-92179253D01*
X113250000Y-92180804D01*
X113259793Y-92179253D01*
X113373335Y-92161270D01*
X113373337Y-92161269D01*
X113383126Y-92159719D01*
X113503220Y-92098528D01*
X113598528Y-92003220D01*
X113659719Y-91883126D01*
X113665855Y-91844388D01*
X113675202Y-91785370D01*
X113705614Y-91721217D01*
X113765883Y-91683690D01*
X113779940Y-91680632D01*
X113823334Y-91673759D01*
X113823335Y-91673759D01*
X113833126Y-91672208D01*
X113953220Y-91611017D01*
X114048528Y-91515709D01*
X114109719Y-91395615D01*
X114121098Y-91323774D01*
X114129253Y-91272282D01*
X114130804Y-91262489D01*
X114125130Y-91226665D01*
X114111270Y-91139154D01*
X114111269Y-91139152D01*
X114109719Y-91129363D01*
X114048528Y-91009269D01*
X113953220Y-90913961D01*
X113833126Y-90852770D01*
X113823337Y-90851220D01*
X113823335Y-90851219D01*
X113709793Y-90833236D01*
X113700000Y-90831685D01*
X113690207Y-90833236D01*
X113576665Y-90851219D01*
X113576663Y-90851220D01*
X113566874Y-90852770D01*
X113446780Y-90913961D01*
X113351472Y-91009269D01*
X113290281Y-91129363D01*
X113288731Y-91139152D01*
X113288730Y-91139154D01*
X113274798Y-91227119D01*
X113244386Y-91291272D01*
X113184117Y-91328799D01*
X113170060Y-91331857D01*
X113126666Y-91338730D01*
X113126665Y-91338730D01*
X113116874Y-91340281D01*
X113108043Y-91344781D01*
X113108039Y-91344782D01*
X113103196Y-91347250D01*
X113033419Y-91360355D01*
X112967635Y-91333656D01*
X112935915Y-91292723D01*
X112935118Y-91288971D01*
X112927335Y-91278259D01*
X112925314Y-91273718D01*
X112922602Y-91269542D01*
X112917856Y-91257179D01*
X112903528Y-91242851D01*
X112890687Y-91227817D01*
X112886554Y-91222128D01*
X112886553Y-91222127D01*
X112878771Y-91211416D01*
X112867305Y-91204796D01*
X112857460Y-91195932D01*
X112857778Y-91195579D01*
X112851239Y-91190562D01*
X112307749Y-90647072D01*
X112303208Y-90642288D01*
X112298995Y-90637609D01*
X112277279Y-90613491D01*
X112258757Y-90605245D01*
X112241394Y-90595817D01*
X112224390Y-90584774D01*
X112211309Y-90582702D01*
X112206666Y-90580920D01*
X112201800Y-90579886D01*
X112189704Y-90574500D01*
X112169438Y-90574500D01*
X112149729Y-90572949D01*
X112129707Y-90569778D01*
X112116918Y-90573205D01*
X112103690Y-90573898D01*
X112103665Y-90573424D01*
X112095495Y-90574500D01*
X111828438Y-90574500D01*
X111760317Y-90554498D01*
X111739343Y-90537595D01*
X111653220Y-90451472D01*
X111625341Y-90437267D01*
X111573726Y-90388519D01*
X111556660Y-90319604D01*
X111579561Y-90252402D01*
X111625341Y-90212733D01*
X111644388Y-90203028D01*
X111644387Y-90203028D01*
X111653220Y-90198528D01*
X111748528Y-90103220D01*
X111809719Y-89983126D01*
X111812908Y-89962995D01*
X111829253Y-89859793D01*
X111830804Y-89850000D01*
X111827984Y-89832196D01*
X111811270Y-89726665D01*
X111811269Y-89726663D01*
X111809719Y-89716874D01*
X111748528Y-89596780D01*
X111653220Y-89501472D01*
X111533126Y-89440281D01*
X111523337Y-89438731D01*
X111523335Y-89438730D01*
X111409793Y-89420747D01*
X111400000Y-89419196D01*
X111390207Y-89420747D01*
X111276665Y-89438730D01*
X111276663Y-89438731D01*
X111266874Y-89440281D01*
X111146780Y-89501472D01*
X111051472Y-89596780D01*
X110990281Y-89716874D01*
X110988731Y-89726663D01*
X110988730Y-89726665D01*
X110972016Y-89832196D01*
X110969196Y-89850000D01*
X110970747Y-89859793D01*
X110970747Y-89859794D01*
X110987092Y-89962995D01*
X110977992Y-90033406D01*
X110932270Y-90087720D01*
X110864442Y-90108692D01*
X110796042Y-90089665D01*
X110773548Y-90071800D01*
X110703220Y-90001472D01*
X110583126Y-89940281D01*
X110573337Y-89938731D01*
X110573335Y-89938730D01*
X110459793Y-89920747D01*
X110450000Y-89919196D01*
X110440207Y-89920747D01*
X110326665Y-89938730D01*
X110326663Y-89938731D01*
X110316874Y-89940281D01*
X110196780Y-90001472D01*
X110101472Y-90096780D01*
X110040281Y-90216874D01*
X110038731Y-90226663D01*
X110038730Y-90226665D01*
X110028004Y-90294388D01*
X110019196Y-90350000D01*
X108775500Y-90350000D01*
X108775500Y-89628438D01*
X108795502Y-89560317D01*
X108812405Y-89539343D01*
X109789343Y-88562405D01*
X109851655Y-88528379D01*
X109878438Y-88525500D01*
X111471562Y-88525500D01*
X111539683Y-88545502D01*
X111560657Y-88562405D01*
X112772269Y-89774017D01*
X112793643Y-89784907D01*
X112810495Y-89795233D01*
X112829909Y-89809339D01*
X112839338Y-89812403D01*
X112839341Y-89812404D01*
X112852728Y-89816754D01*
X112870992Y-89824319D01*
X112892363Y-89835208D01*
X112902155Y-89836759D01*
X112902158Y-89836760D01*
X112916058Y-89838962D01*
X112935277Y-89843576D01*
X112948662Y-89847925D01*
X112948669Y-89847926D01*
X112958096Y-89850989D01*
X114497051Y-89850989D01*
X114565172Y-89870991D01*
X114586146Y-89887894D01*
X115187595Y-90489343D01*
X115221621Y-90551655D01*
X115224500Y-90578438D01*
X115224500Y-90917393D01*
X115231914Y-90940210D01*
X115236528Y-90959429D01*
X115240281Y-90983126D01*
X115244784Y-90991963D01*
X115244784Y-90991964D01*
X115251172Y-91004502D01*
X115258736Y-91022763D01*
X115263085Y-91036147D01*
X115263087Y-91036150D01*
X115266151Y-91045581D01*
X115271980Y-91053604D01*
X115280253Y-91064991D01*
X115290577Y-91081837D01*
X115301472Y-91103220D01*
X115657962Y-91459710D01*
X115691988Y-91522022D01*
X115686923Y-91592837D01*
X115644376Y-91649673D01*
X115626069Y-91661072D01*
X115555615Y-91696970D01*
X115555613Y-91696971D01*
X115546780Y-91701472D01*
X115451472Y-91796780D01*
X115390281Y-91916874D01*
X115388731Y-91926663D01*
X115388730Y-91926665D01*
X115384555Y-91953028D01*
X115369196Y-92050000D01*
X115370747Y-92059793D01*
X115386820Y-92161271D01*
X115390281Y-92183126D01*
X115451472Y-92303220D01*
X115546780Y-92398528D01*
X115666874Y-92459719D01*
X115676663Y-92461269D01*
X115676665Y-92461270D01*
X115790207Y-92479253D01*
X115800000Y-92480804D01*
X115809793Y-92479253D01*
X115923335Y-92461270D01*
X115923337Y-92461269D01*
X115933126Y-92459719D01*
X116053220Y-92398528D01*
X116148528Y-92303220D01*
X116209719Y-92183126D01*
X116213181Y-92161271D01*
X116229253Y-92059793D01*
X116230804Y-92050000D01*
X116215445Y-91953028D01*
X116211270Y-91926665D01*
X116211269Y-91926663D01*
X116209719Y-91916874D01*
X116180079Y-91858702D01*
X116166975Y-91788927D01*
X116193675Y-91723142D01*
X116251702Y-91682235D01*
X116292346Y-91675500D01*
X120121562Y-91675500D01*
X120189683Y-91695502D01*
X120210657Y-91712405D01*
X121911000Y-93412748D01*
X121932374Y-93423638D01*
X121949226Y-93433964D01*
X121968640Y-93448070D01*
X121978069Y-93451134D01*
X121978072Y-93451135D01*
X121991459Y-93455485D01*
X122009723Y-93463050D01*
X122031094Y-93473939D01*
X122040886Y-93475490D01*
X122040889Y-93475491D01*
X122054789Y-93477693D01*
X122074008Y-93482307D01*
X122087393Y-93486656D01*
X122087400Y-93486657D01*
X122096827Y-93489720D01*
X122856832Y-93489720D01*
X122876542Y-93491271D01*
X122900238Y-93495024D01*
X122923934Y-93491271D01*
X122933726Y-93489720D01*
X123023573Y-93475490D01*
X123023575Y-93475489D01*
X123033364Y-93473939D01*
X123153458Y-93412748D01*
X123248766Y-93317440D01*
X123309957Y-93197346D01*
X123319912Y-93134496D01*
X123329491Y-93074013D01*
X123331042Y-93064220D01*
X123309957Y-92931094D01*
X123248766Y-92811000D01*
X123153458Y-92715692D01*
X123033364Y-92654501D01*
X123023575Y-92652951D01*
X123023573Y-92652950D01*
X122933726Y-92638720D01*
X122910031Y-92634967D01*
X122900238Y-92633416D01*
X122876543Y-92637169D01*
X122856832Y-92638720D01*
X122392658Y-92638720D01*
X122324537Y-92618718D01*
X122303563Y-92601815D01*
X121055242Y-91353494D01*
X121021216Y-91291182D01*
X121026281Y-91220367D01*
X121068828Y-91163531D01*
X121087135Y-91152132D01*
X121140763Y-91124808D01*
X121140767Y-91124805D01*
X121149597Y-91120306D01*
X121244905Y-91024998D01*
X121306096Y-90904904D01*
X121313966Y-90855218D01*
X121325630Y-90781571D01*
X121327181Y-90771778D01*
X121316292Y-90703028D01*
X121307647Y-90648443D01*
X121307646Y-90648441D01*
X121306096Y-90638652D01*
X121244905Y-90518558D01*
X121149597Y-90423250D01*
X121029503Y-90362059D01*
X121019714Y-90360509D01*
X121019712Y-90360508D01*
X120906170Y-90342525D01*
X120896377Y-90340974D01*
X120886584Y-90342525D01*
X120773042Y-90360508D01*
X120773040Y-90360509D01*
X120763251Y-90362059D01*
X120643157Y-90423250D01*
X120547849Y-90518558D01*
X120546575Y-90517284D01*
X120499711Y-90553418D01*
X120454004Y-90562000D01*
X119512196Y-90562000D01*
X119444075Y-90541998D01*
X119397582Y-90488342D01*
X119387478Y-90418068D01*
X119391139Y-90402327D01*
X119394298Y-90396126D01*
X119405300Y-90326665D01*
X119413832Y-90272793D01*
X119415383Y-90263000D01*
X119413832Y-90253207D01*
X119395849Y-90139665D01*
X119395848Y-90139663D01*
X119394298Y-90129874D01*
X119333107Y-90009780D01*
X119237799Y-89914472D01*
X119117705Y-89853281D01*
X119107916Y-89851731D01*
X119107914Y-89851730D01*
X118994372Y-89833747D01*
X118984579Y-89832196D01*
X118974786Y-89833747D01*
X118861244Y-89851730D01*
X118861242Y-89851731D01*
X118851453Y-89853281D01*
X118731359Y-89914472D01*
X118645316Y-90000515D01*
X118583004Y-90034541D01*
X118512189Y-90029476D01*
X118467126Y-90000515D01*
X117967901Y-89501290D01*
X117966749Y-89500000D01*
X122269196Y-89500000D01*
X122290281Y-89633126D01*
X122351472Y-89753220D01*
X122446780Y-89848528D01*
X122455613Y-89853029D01*
X122455615Y-89853030D01*
X122499658Y-89875471D01*
X122551274Y-89924219D01*
X122568340Y-89993134D01*
X122545440Y-90060335D01*
X122512192Y-90089146D01*
X122513640Y-90091139D01*
X122505612Y-90096972D01*
X122496780Y-90101472D01*
X122401472Y-90196780D01*
X122340281Y-90316874D01*
X122338731Y-90326663D01*
X122338730Y-90326665D01*
X122324145Y-90418750D01*
X122319196Y-90450000D01*
X122320747Y-90459793D01*
X122335297Y-90551655D01*
X122340281Y-90583126D01*
X122401472Y-90703220D01*
X122496780Y-90798528D01*
X122616874Y-90859719D01*
X122626663Y-90861269D01*
X122626665Y-90861270D01*
X122740207Y-90879253D01*
X122750000Y-90880804D01*
X122759793Y-90879253D01*
X122873335Y-90861270D01*
X122873337Y-90861269D01*
X122883126Y-90859719D01*
X123003220Y-90798528D01*
X123098528Y-90703220D01*
X123159719Y-90583126D01*
X123164704Y-90551655D01*
X123179253Y-90459793D01*
X123180804Y-90450000D01*
X123175855Y-90418750D01*
X123161270Y-90326665D01*
X123161269Y-90326663D01*
X123159719Y-90316874D01*
X123098528Y-90196780D01*
X123003220Y-90101472D01*
X122994387Y-90096971D01*
X122994385Y-90096970D01*
X122950342Y-90074529D01*
X122898726Y-90025781D01*
X122881660Y-89956866D01*
X122904560Y-89889665D01*
X122937808Y-89860854D01*
X122936360Y-89858861D01*
X122944388Y-89853028D01*
X122953220Y-89848528D01*
X123048528Y-89753220D01*
X123109719Y-89633126D01*
X123130804Y-89500000D01*
X123125900Y-89469036D01*
X123111270Y-89376665D01*
X123111269Y-89376663D01*
X123109719Y-89366874D01*
X123048528Y-89246780D01*
X122953220Y-89151472D01*
X122833126Y-89090281D01*
X122823337Y-89088731D01*
X122823335Y-89088730D01*
X122709793Y-89070747D01*
X122700000Y-89069196D01*
X122690207Y-89070747D01*
X122576665Y-89088730D01*
X122576663Y-89088731D01*
X122566874Y-89090281D01*
X122446780Y-89151472D01*
X122351472Y-89246780D01*
X122290281Y-89366874D01*
X122288731Y-89376663D01*
X122288730Y-89376665D01*
X122274100Y-89469036D01*
X122269196Y-89500000D01*
X117966749Y-89500000D01*
X117961941Y-89494616D01*
X117959561Y-89490815D01*
X117954517Y-89485771D01*
X117952342Y-89483039D01*
X117947562Y-89477689D01*
X117940667Y-89469036D01*
X117931825Y-89457940D01*
X117922031Y-89453216D01*
X117921382Y-89452636D01*
X116965728Y-88496982D01*
X117752564Y-88496982D01*
X117773649Y-88630108D01*
X117834840Y-88750202D01*
X117930148Y-88845510D01*
X118050242Y-88906701D01*
X118060031Y-88908251D01*
X118060033Y-88908252D01*
X118173575Y-88926235D01*
X118183368Y-88927786D01*
X118193161Y-88926235D01*
X118306703Y-88908252D01*
X118306705Y-88908251D01*
X118316494Y-88906701D01*
X118436588Y-88845510D01*
X118531896Y-88750202D01*
X118593087Y-88630108D01*
X118614172Y-88496982D01*
X118601872Y-88419323D01*
X118594638Y-88373647D01*
X118594637Y-88373645D01*
X118593087Y-88363856D01*
X118531896Y-88243762D01*
X118436588Y-88148454D01*
X118316494Y-88087263D01*
X118306705Y-88085713D01*
X118306703Y-88085712D01*
X118193161Y-88067729D01*
X118183368Y-88066178D01*
X118173575Y-88067729D01*
X118060033Y-88085712D01*
X118060031Y-88085713D01*
X118050242Y-88087263D01*
X117930148Y-88148454D01*
X117834840Y-88243762D01*
X117773649Y-88363856D01*
X117772099Y-88373645D01*
X117772098Y-88373647D01*
X117764864Y-88419323D01*
X117752564Y-88496982D01*
X116965728Y-88496982D01*
X116708912Y-88240166D01*
X116708432Y-88239628D01*
X116703788Y-88229957D01*
X116683851Y-88214013D01*
X116678384Y-88209120D01*
X116675824Y-88207078D01*
X116670822Y-88202076D01*
X116664833Y-88198312D01*
X116661836Y-88195921D01*
X116656384Y-88192047D01*
X116636802Y-88176387D01*
X116625995Y-88173902D01*
X116616608Y-88168002D01*
X116602510Y-88166408D01*
X116589120Y-88161719D01*
X116589943Y-88159369D01*
X116542762Y-88139519D01*
X116502595Y-88080977D01*
X116500455Y-88010013D01*
X116510101Y-87984644D01*
X116513034Y-87978888D01*
X116513034Y-87978887D01*
X116517535Y-87970054D01*
X116519572Y-87957196D01*
X116537069Y-87846721D01*
X116538620Y-87836928D01*
X116537069Y-87827135D01*
X116537069Y-87826500D01*
X116557071Y-87758379D01*
X116610727Y-87711886D01*
X116663069Y-87700500D01*
X119961185Y-87700500D01*
X120029306Y-87720502D01*
G37*
%TD.AperFunction*%
%TD*%
M02*
