M48
; DRILL file {KiCad (6.0.4)} date Mon Nov 14 13:00:00 2022
; FORMAT={-:-/ absolute / inch / decimal}
; #@! TF.CreationDate,2022-11-14T13:00:00+01:00
; #@! TF.GenerationSoftware,Kicad,Pcbnew,(6.0.4)
; #@! TF.FileFunction,Plated,1,4,PTH
FMAT,2
INCH
; #@! TA.AperFunction,Plated,PTH,ViaDrill
T1C0.0098
%
G90
G05
T1
X4.0236Y-3.563
X4.0236Y-3.5886
X4.0276Y-3.6476
X4.0294Y-3.7363
X4.0295Y-3.7677
X4.0295Y-3.7972
X4.0315Y-3.8327
X4.0315Y-3.8583
X4.034Y-3.9441
X4.0354Y-3.6201
X4.0472Y-3.4665
X4.0472Y-3.5512
X4.0546Y-3.5219
X4.0632Y-3.6078
X4.0748Y-3.8583
X4.1553Y-3.4724
X4.1572Y-3.5118
X4.1572Y-3.5925
X4.1592Y-3.6358
X4.1929Y-3.9055
X4.2133Y-3.7605
X4.2227Y-3.8426
X4.2244Y-3.8701
X4.2283Y-3.6791
X4.2756Y-3.9016
X4.3051Y-3.8209
X4.3071Y-3.7539
X4.311Y-3.6401
X4.3127Y-3.5965
X4.313Y-3.7854
X4.3209Y-3.4685
X4.3484Y-3.5571
X4.3511Y-3.9438
X4.3586Y-3.8935
X4.3858Y-3.498
X4.3858Y-3.5374
X4.3858Y-3.5748
X4.3878Y-3.6063
X4.4173Y-3.6063
X4.4252Y-3.9409
X4.4528Y-3.6831
X4.4587Y-3.6122
X4.4685Y-3.4798
X4.4764Y-3.5492
X4.4764Y-3.593
X4.4913Y-3.8594
X4.5039Y-3.8095
X4.5039Y-3.9183
X4.5039Y-3.9449
X4.5118Y-3.5566
X4.5121Y-3.4591
X4.5157Y-3.6772
X4.5276Y-3.8249
X4.5332Y-3.9335
X4.5591Y-3.624
X4.562Y-3.8566
X4.5664Y-3.5077
X4.5805Y-3.4524
X4.5827Y-3.5531
X4.591Y-3.9434
X4.6024Y-3.7441
X4.6137Y-3.9146
X4.6284Y-3.5453
X4.6417Y-3.7047
X4.6417Y-3.7835
X4.6529Y-3.4841
X4.6614Y-3.5394
X4.6732Y-3.939
X4.6791Y-3.8228
X4.6811Y-3.6654
X4.6811Y-3.7441
X4.6969Y-3.5394
X4.7185Y-3.7047
X4.7185Y-3.7835
X4.7264Y-3.5433
X4.7441Y-3.4626
X4.7441Y-3.939
X4.7597Y-3.5737
X4.7598Y-3.7441
X4.8307Y-3.5236
X4.8327Y-3.561
X4.8386Y-3.6639
X4.8572Y-3.5776
X4.8631Y-3.6881
X4.8819Y-3.874
X4.8898Y-3.5965
X4.9016Y-3.622
X4.9133Y-3.8739
X4.9941Y-3.5079
X4.9941Y-3.8819
T0
M30
