%TF.GenerationSoftware,KiCad,Pcbnew,(6.0.4)*%
%TF.CreationDate,2022-11-15T14:04:27+01:00*%
%TF.ProjectId,tk1,746b312e-6b69-4636-9164-5f7063625858,rev?*%
%TF.SameCoordinates,Original*%
%TF.FileFunction,Soldermask,Top*%
%TF.FilePolarity,Negative*%
%FSLAX46Y46*%
G04 Gerber Fmt 4.6, Leading zero omitted, Abs format (unit mm)*
G04 Created by KiCad (PCBNEW (6.0.4)) date 2022-11-15 14:04:27*
%MOMM*%
%LPD*%
G01*
G04 APERTURE LIST*
G04 Aperture macros list*
%AMRoundRect*
0 Rectangle with rounded corners*
0 $1 Rounding radius*
0 $2 $3 $4 $5 $6 $7 $8 $9 X,Y pos of 4 corners*
0 Add a 4 corners polygon primitive as box body*
4,1,4,$2,$3,$4,$5,$6,$7,$8,$9,$2,$3,0*
0 Add four circle primitives for the rounded corners*
1,1,$1+$1,$2,$3*
1,1,$1+$1,$4,$5*
1,1,$1+$1,$6,$7*
1,1,$1+$1,$8,$9*
0 Add four rect primitives between the rounded corners*
20,1,$1+$1,$2,$3,$4,$5,0*
20,1,$1+$1,$4,$5,$6,$7,0*
20,1,$1+$1,$6,$7,$8,$9,0*
20,1,$1+$1,$8,$9,$2,$3,0*%
%AMRotRect*
0 Rectangle, with rotation*
0 The origin of the aperture is its center*
0 $1 length*
0 $2 width*
0 $3 Rotation angle, in degrees counterclockwise*
0 Add horizontal line*
21,1,$1,$2,0,0,$3*%
G04 Aperture macros list end*
%ADD10C,1.500000*%
%ADD11RoundRect,0.129500X0.129500X-0.150500X0.129500X0.150500X-0.129500X0.150500X-0.129500X-0.150500X0*%
%ADD12RoundRect,0.129500X-0.014849X-0.197990X0.197990X0.014849X0.014849X0.197990X-0.197990X-0.014849X0*%
%ADD13RoundRect,0.129500X0.014849X0.197990X-0.197990X-0.014849X-0.014849X-0.197990X0.197990X0.014849X0*%
%ADD14RoundRect,0.129500X0.197990X-0.014849X-0.014849X0.197990X-0.197990X0.014849X0.014849X-0.197990X0*%
%ADD15RoundRect,0.147500X0.147500X0.172500X-0.147500X0.172500X-0.147500X-0.172500X0.147500X-0.172500X0*%
%ADD16R,0.450000X0.450000*%
%ADD17RoundRect,0.112500X-0.112500X0.112500X-0.112500X-0.112500X0.112500X-0.112500X0.112500X0.112500X0*%
%ADD18RoundRect,0.112500X-0.159099X0.000000X0.000000X-0.159099X0.159099X0.000000X0.000000X0.159099X0*%
%ADD19RoundRect,0.112500X0.000000X0.159099X-0.159099X0.000000X0.000000X-0.159099X0.159099X0.000000X0*%
%ADD20RoundRect,0.150000X0.512500X0.150000X-0.512500X0.150000X-0.512500X-0.150000X0.512500X-0.150000X0*%
%ADD21RoundRect,0.062500X0.220971X0.309359X-0.309359X-0.220971X-0.220971X-0.309359X0.309359X0.220971X0*%
%ADD22RoundRect,0.062500X-0.220971X0.309359X-0.309359X0.220971X0.220971X-0.309359X0.309359X-0.220971X0*%
%ADD23RotRect,5.600000X5.600000X225.000000*%
%ADD24RoundRect,0.200000X-0.225000X0.200000X-0.225000X-0.200000X0.225000X-0.200000X0.225000X0.200000X0*%
%ADD25RoundRect,0.200000X-0.275000X0.200000X-0.275000X-0.200000X0.275000X-0.200000X0.275000X0.200000X0*%
%ADD26RoundRect,0.112500X0.112500X-0.112500X0.112500X0.112500X-0.112500X0.112500X-0.112500X-0.112500X0*%
%ADD27RoundRect,0.150000X-0.512500X-0.150000X0.512500X-0.150000X0.512500X0.150000X-0.512500X0.150000X0*%
%ADD28R,1.000000X0.700000*%
%ADD29RoundRect,0.112500X0.112500X0.112500X-0.112500X0.112500X-0.112500X-0.112500X0.112500X-0.112500X0*%
%ADD30RoundRect,0.129500X0.150500X0.129500X-0.150500X0.129500X-0.150500X-0.129500X0.150500X-0.129500X0*%
%ADD31R,1.400000X0.300000*%
%ADD32RoundRect,0.112500X-0.112500X-0.112500X0.112500X-0.112500X0.112500X0.112500X-0.112500X0.112500X0*%
%ADD33RoundRect,0.075000X0.225000X0.075000X-0.225000X0.075000X-0.225000X-0.075000X0.225000X-0.075000X0*%
%ADD34RoundRect,0.075000X-0.075000X-0.775000X0.075000X-0.775000X0.075000X0.775000X-0.075000X0.775000X0*%
%ADD35RoundRect,0.129500X-0.150500X-0.129500X0.150500X-0.129500X0.150500X0.129500X-0.150500X0.129500X0*%
%ADD36RoundRect,0.250000X0.650000X-0.325000X0.650000X0.325000X-0.650000X0.325000X-0.650000X-0.325000X0*%
%ADD37RoundRect,0.075000X0.675000X0.075000X-0.675000X0.075000X-0.675000X-0.075000X0.675000X-0.075000X0*%
%ADD38RoundRect,0.175000X0.525000X0.175000X-0.525000X0.175000X-0.525000X-0.175000X0.525000X-0.175000X0*%
G04 APERTURE END LIST*
D10*
%TO.C,FID1*%
X101500000Y-88500000D03*
%TD*%
%TO.C,FID2*%
X124250000Y-96750000D03*
%TD*%
D11*
%TO.C,C7*%
X111450000Y-93040000D03*
X111450000Y-92260000D03*
%TD*%
%TO.C,C13*%
X112350000Y-93040000D03*
X112350000Y-92260000D03*
%TD*%
D12*
%TO.C,C16*%
X123224228Y-92575772D03*
X123775772Y-92024228D03*
%TD*%
D13*
%TO.C,C17*%
X115075772Y-97924228D03*
X114524228Y-98475772D03*
%TD*%
D14*
%TO.C,C18*%
X114075772Y-93025772D03*
X113524228Y-92474228D03*
%TD*%
D12*
%TO.C,C19*%
X123924228Y-93275772D03*
X124475772Y-92724228D03*
%TD*%
D13*
%TO.C,C20*%
X115775772Y-98624228D03*
X115224228Y-99175772D03*
%TD*%
%TO.C,C21*%
X116475772Y-99324228D03*
X115924228Y-99875772D03*
%TD*%
D15*
%TO.C,D1*%
X112985000Y-90850000D03*
X112015000Y-90850000D03*
%TD*%
D16*
%TO.C,D3*%
X126380000Y-98570000D03*
X126380000Y-99330000D03*
X125620000Y-99330000D03*
X125620000Y-98570000D03*
%TD*%
D17*
%TO.C,R1*%
X103550000Y-88300000D03*
X103550000Y-89100000D03*
%TD*%
%TO.C,R2*%
X103550000Y-92250000D03*
X103550000Y-93050000D03*
%TD*%
D18*
%TO.C,R16*%
X121317157Y-99317157D03*
X121882843Y-99882843D03*
%TD*%
%TO.C,R17*%
X122017157Y-98617157D03*
X122582843Y-99182843D03*
%TD*%
%TO.C,R18*%
X122717157Y-97917157D03*
X123282843Y-98482843D03*
%TD*%
D19*
%TO.C,R19*%
X122982843Y-91367157D03*
X122417157Y-91932843D03*
%TD*%
D20*
%TO.C,U5*%
X106137500Y-96550000D03*
X106137500Y-95600000D03*
X106137500Y-94650000D03*
X103862500Y-94650000D03*
X103862500Y-95600000D03*
X103862500Y-96550000D03*
%TD*%
D21*
%TO.C,U6*%
X123275223Y-94613864D03*
X122921670Y-94260311D03*
X122568116Y-93906757D03*
X122214563Y-93553204D03*
X121861010Y-93199651D03*
X121507456Y-92846097D03*
X121153903Y-92492544D03*
X120800349Y-92138990D03*
X120446796Y-91785437D03*
X120093243Y-91431884D03*
X119739689Y-91078330D03*
X119386136Y-90724777D03*
D22*
X118413864Y-90724777D03*
X118060311Y-91078330D03*
X117706757Y-91431884D03*
X117353204Y-91785437D03*
X116999651Y-92138990D03*
X116646097Y-92492544D03*
X116292544Y-92846097D03*
X115938990Y-93199651D03*
X115585437Y-93553204D03*
X115231884Y-93906757D03*
X114878330Y-94260311D03*
X114524777Y-94613864D03*
D21*
X114524777Y-95586136D03*
X114878330Y-95939689D03*
X115231884Y-96293243D03*
X115585437Y-96646796D03*
X115938990Y-97000349D03*
X116292544Y-97353903D03*
X116646097Y-97707456D03*
X116999651Y-98061010D03*
X117353204Y-98414563D03*
X117706757Y-98768116D03*
X118060311Y-99121670D03*
X118413864Y-99475223D03*
D22*
X119386136Y-99475223D03*
X119739689Y-99121670D03*
X120093243Y-98768116D03*
X120446796Y-98414563D03*
X120800349Y-98061010D03*
X121153903Y-97707456D03*
X121507456Y-97353903D03*
X121861010Y-97000349D03*
X122214563Y-96646796D03*
X122568116Y-96293243D03*
X122921670Y-95939689D03*
X123275223Y-95586136D03*
D23*
X118900000Y-95100000D03*
%TD*%
D24*
%TO.C,C6*%
X104943750Y-91550000D03*
X104943750Y-92850000D03*
%TD*%
%TO.C,C25*%
X113050000Y-98150000D03*
X113050000Y-99450000D03*
%TD*%
D25*
%TO.C,FB3*%
X111500000Y-97975000D03*
X111500000Y-99625000D03*
%TD*%
D17*
%TO.C,R22*%
X103000000Y-98600000D03*
X103000000Y-99400000D03*
%TD*%
D26*
%TO.C,R29*%
X103550000Y-91050000D03*
X103550000Y-90250000D03*
%TD*%
D18*
%TO.C,R20*%
X115617157Y-90367157D03*
X116182843Y-90932843D03*
%TD*%
D24*
%TO.C,C1*%
X104843750Y-88250000D03*
X104843750Y-89550000D03*
%TD*%
%TO.C,C5*%
X110450000Y-88250000D03*
X110450000Y-89550000D03*
%TD*%
D27*
%TO.C,U2*%
X106506250Y-88050000D03*
X106506250Y-89000000D03*
X106506250Y-89950000D03*
X108781250Y-89950000D03*
X108781250Y-88050000D03*
%TD*%
D24*
%TO.C,C4*%
X110000000Y-98150000D03*
X110000000Y-99450000D03*
%TD*%
%TO.C,C2*%
X104450000Y-98150000D03*
X104450000Y-99450000D03*
%TD*%
D27*
%TO.C,U1*%
X106112500Y-98000000D03*
X106112500Y-98950000D03*
X106112500Y-99900000D03*
X108387500Y-99900000D03*
X108387500Y-98000000D03*
%TD*%
D24*
%TO.C,C3*%
X110243750Y-91550000D03*
X110243750Y-92850000D03*
%TD*%
D18*
%TO.C,R3*%
X114867157Y-91067157D03*
X115432843Y-91632843D03*
%TD*%
D14*
%TO.C,C22*%
X114775772Y-92325772D03*
X114224228Y-91774228D03*
%TD*%
D28*
%TO.C,U9*%
X106393750Y-91250000D03*
X106393750Y-92200000D03*
X106393750Y-93150000D03*
X108793750Y-93150000D03*
X108793750Y-91250000D03*
%TD*%
D29*
%TO.C,R25*%
X118600000Y-87950000D03*
X117800000Y-87950000D03*
%TD*%
D30*
%TO.C,C23*%
X112890000Y-89850000D03*
X112110000Y-89850000D03*
%TD*%
D31*
%TO.C,U3*%
X112400000Y-96500000D03*
X112400000Y-96000000D03*
X112400000Y-95500000D03*
X112400000Y-95000000D03*
X112400000Y-94500000D03*
X108000000Y-94500000D03*
X108000000Y-95000000D03*
X108000000Y-95500000D03*
X108000000Y-96000000D03*
X108000000Y-96500000D03*
%TD*%
D11*
%TO.C,C26*%
X120050000Y-89240000D03*
X120050000Y-88460000D03*
%TD*%
D29*
%TO.C,R23*%
X118600000Y-89050000D03*
X117800000Y-89050000D03*
%TD*%
D32*
%TO.C,R26*%
X112100000Y-88900000D03*
X112900000Y-88900000D03*
%TD*%
D20*
%TO.C,U10*%
X123837500Y-89950000D03*
X123837500Y-89000000D03*
X123837500Y-88050000D03*
X121562500Y-88050000D03*
X121562500Y-89000000D03*
X121562500Y-89950000D03*
%TD*%
D33*
%TO.C,U8*%
X116650000Y-89350000D03*
X116650000Y-88850000D03*
X116650000Y-88350000D03*
X116650000Y-87850000D03*
X114150000Y-87850000D03*
X114150000Y-88350000D03*
X114150000Y-88850000D03*
X114150000Y-89350000D03*
D34*
X115400000Y-88600000D03*
%TD*%
D32*
%TO.C,R30*%
X125350000Y-89700000D03*
X126150000Y-89700000D03*
%TD*%
D35*
%TO.C,C27*%
X125360000Y-88700000D03*
X126140000Y-88700000D03*
%TD*%
D36*
%TO.C,C8*%
X126200000Y-95475000D03*
X126200000Y-92525000D03*
%TD*%
D37*
%TO.C,P1*%
X101050000Y-96750000D03*
X101050000Y-96250000D03*
X101050000Y-95750000D03*
X101050000Y-95250000D03*
X101050000Y-94750000D03*
X101050000Y-94250000D03*
X101050000Y-93750000D03*
X101050000Y-93250000D03*
X101050000Y-92750000D03*
X101050000Y-92250000D03*
X101050000Y-91750000D03*
X101050000Y-91250000D03*
D38*
X101100000Y-97500000D03*
%TD*%
D32*
%TO.C,R24*%
X112100000Y-87950000D03*
X112900000Y-87950000D03*
%TD*%
M02*
